G04 #@! TF.GenerationSoftware,KiCad,Pcbnew,(5.1.2)-1*
G04 #@! TF.CreationDate,2022-02-25T21:01:52+09:00*
G04 #@! TF.ProjectId,wcc,7763632e-6b69-4636-9164-5f7063625858,v2.2*
G04 #@! TF.SameCoordinates,Original*
G04 #@! TF.FileFunction,Legend,Top*
G04 #@! TF.FilePolarity,Positive*
%FSLAX46Y46*%
G04 Gerber Fmt 4.6, Leading zero omitted, Abs format (unit mm)*
G04 Created by KiCad (PCBNEW (5.1.2)-1) date 2022-02-25 21:01:52*
%MOMM*%
%LPD*%
G04 APERTURE LIST*
%ADD10C,0.120000*%
%ADD11C,0.150000*%
%ADD12C,0.300000*%
%ADD13C,1.102000*%
%ADD14C,0.100000*%
%ADD15C,1.352000*%
%ADD16C,1.702000*%
%ADD17R,0.302000X1.602000*%
%ADD18R,1.602000X0.302000*%
%ADD19C,0.702000*%
%ADD20C,0.977000*%
%ADD21O,1.802000X1.802000*%
%ADD22R,1.802000X1.802000*%
%ADD23R,1.452000X0.502000*%
%ADD24O,1.652000X1.652000*%
%ADD25O,1.352000X1.352000*%
%ADD26C,3.302000*%
%ADD27R,1.152000X0.752000*%
%ADD28C,2.502000*%
%ADD29R,1.502000X1.302000*%
%ADD30R,1.162000X0.752000*%
%ADD31C,3.102000*%
%ADD32C,1.626000*%
%ADD33C,1.077000*%
G04 APERTURE END LIST*
D10*
X154112857Y-136755714D02*
X154150952Y-136641428D01*
X154189047Y-136603333D01*
X154265238Y-136565238D01*
X154379523Y-136565238D01*
X154455714Y-136603333D01*
X154493809Y-136641428D01*
X154531904Y-136717619D01*
X154531904Y-137022380D01*
X153731904Y-137022380D01*
X153731904Y-136755714D01*
X153770000Y-136679523D01*
X153808095Y-136641428D01*
X153884285Y-136603333D01*
X153960476Y-136603333D01*
X154036666Y-136641428D01*
X154074761Y-136679523D01*
X154112857Y-136755714D01*
X154112857Y-137022380D01*
X153731904Y-136070000D02*
X153731904Y-135917619D01*
X153770000Y-135841428D01*
X153846190Y-135765238D01*
X153998571Y-135727142D01*
X154265238Y-135727142D01*
X154417619Y-135765238D01*
X154493809Y-135841428D01*
X154531904Y-135917619D01*
X154531904Y-136070000D01*
X154493809Y-136146190D01*
X154417619Y-136222380D01*
X154265238Y-136260476D01*
X153998571Y-136260476D01*
X153846190Y-136222380D01*
X153770000Y-136146190D01*
X153731904Y-136070000D01*
X153731904Y-135231904D02*
X153731904Y-135079523D01*
X153770000Y-135003333D01*
X153846190Y-134927142D01*
X153998571Y-134889047D01*
X154265238Y-134889047D01*
X154417619Y-134927142D01*
X154493809Y-135003333D01*
X154531904Y-135079523D01*
X154531904Y-135231904D01*
X154493809Y-135308095D01*
X154417619Y-135384285D01*
X154265238Y-135422380D01*
X153998571Y-135422380D01*
X153846190Y-135384285D01*
X153770000Y-135308095D01*
X153731904Y-135231904D01*
X153731904Y-134660476D02*
X153731904Y-134203333D01*
X154531904Y-134431904D02*
X153731904Y-134431904D01*
X152895428Y-130511904D02*
X153352571Y-130511904D01*
X153124000Y-131311904D02*
X153124000Y-130511904D01*
X154076380Y-131311904D02*
X153809714Y-130930952D01*
X153619238Y-131311904D02*
X153619238Y-130511904D01*
X153924000Y-130511904D01*
X154000190Y-130550000D01*
X154038285Y-130588095D01*
X154076380Y-130664285D01*
X154076380Y-130778571D01*
X154038285Y-130854761D01*
X154000190Y-130892857D01*
X153924000Y-130930952D01*
X153619238Y-130930952D01*
X154838285Y-130550000D02*
X154762095Y-130511904D01*
X154647809Y-130511904D01*
X154533523Y-130550000D01*
X154457333Y-130626190D01*
X154419238Y-130702380D01*
X154381142Y-130854761D01*
X154381142Y-130969047D01*
X154419238Y-131121428D01*
X154457333Y-131197619D01*
X154533523Y-131273809D01*
X154647809Y-131311904D01*
X154724000Y-131311904D01*
X154838285Y-131273809D01*
X154876380Y-131235714D01*
X154876380Y-130969047D01*
X154724000Y-130969047D01*
X149821428Y-151111904D02*
X150278571Y-151111904D01*
X150050000Y-151911904D02*
X150050000Y-151111904D01*
X151002380Y-151911904D02*
X150735714Y-151530952D01*
X150545238Y-151911904D02*
X150545238Y-151111904D01*
X150850000Y-151111904D01*
X150926190Y-151150000D01*
X150964285Y-151188095D01*
X151002380Y-151264285D01*
X151002380Y-151378571D01*
X150964285Y-151454761D01*
X150926190Y-151492857D01*
X150850000Y-151530952D01*
X150545238Y-151530952D01*
X151764285Y-151150000D02*
X151688095Y-151111904D01*
X151573809Y-151111904D01*
X151459523Y-151150000D01*
X151383333Y-151226190D01*
X151345238Y-151302380D01*
X151307142Y-151454761D01*
X151307142Y-151569047D01*
X151345238Y-151721428D01*
X151383333Y-151797619D01*
X151459523Y-151873809D01*
X151573809Y-151911904D01*
X151650000Y-151911904D01*
X151764285Y-151873809D01*
X151802380Y-151835714D01*
X151802380Y-151569047D01*
X151650000Y-151569047D01*
X152850476Y-151130000D02*
X152774285Y-151091904D01*
X152660000Y-151091904D01*
X152545714Y-151130000D01*
X152469523Y-151206190D01*
X152431428Y-151282380D01*
X152393333Y-151434761D01*
X152393333Y-151549047D01*
X152431428Y-151701428D01*
X152469523Y-151777619D01*
X152545714Y-151853809D01*
X152660000Y-151891904D01*
X152736190Y-151891904D01*
X152850476Y-151853809D01*
X152888571Y-151815714D01*
X152888571Y-151549047D01*
X152736190Y-151549047D01*
X153231428Y-151891904D02*
X153231428Y-151091904D01*
X153688571Y-151891904D01*
X153688571Y-151091904D01*
X154069523Y-151891904D02*
X154069523Y-151091904D01*
X154260000Y-151091904D01*
X154374285Y-151130000D01*
X154450476Y-151206190D01*
X154488571Y-151282380D01*
X154526666Y-151434761D01*
X154526666Y-151549047D01*
X154488571Y-151701428D01*
X154450476Y-151777619D01*
X154374285Y-151853809D01*
X154260000Y-151891904D01*
X154069523Y-151891904D01*
X146860476Y-151090000D02*
X146784285Y-151051904D01*
X146670000Y-151051904D01*
X146555714Y-151090000D01*
X146479523Y-151166190D01*
X146441428Y-151242380D01*
X146403333Y-151394761D01*
X146403333Y-151509047D01*
X146441428Y-151661428D01*
X146479523Y-151737619D01*
X146555714Y-151813809D01*
X146670000Y-151851904D01*
X146746190Y-151851904D01*
X146860476Y-151813809D01*
X146898571Y-151775714D01*
X146898571Y-151509047D01*
X146746190Y-151509047D01*
X147241428Y-151851904D02*
X147241428Y-151051904D01*
X147698571Y-151851904D01*
X147698571Y-151051904D01*
X148079523Y-151851904D02*
X148079523Y-151051904D01*
X148270000Y-151051904D01*
X148384285Y-151090000D01*
X148460476Y-151166190D01*
X148498571Y-151242380D01*
X148536666Y-151394761D01*
X148536666Y-151509047D01*
X148498571Y-151661428D01*
X148460476Y-151737619D01*
X148384285Y-151813809D01*
X148270000Y-151851904D01*
X148079523Y-151851904D01*
X143948095Y-151081904D02*
X143567142Y-151081904D01*
X143529047Y-151462857D01*
X143567142Y-151424761D01*
X143643333Y-151386666D01*
X143833809Y-151386666D01*
X143910000Y-151424761D01*
X143948095Y-151462857D01*
X143986190Y-151539047D01*
X143986190Y-151729523D01*
X143948095Y-151805714D01*
X143910000Y-151843809D01*
X143833809Y-151881904D01*
X143643333Y-151881904D01*
X143567142Y-151843809D01*
X143529047Y-151805714D01*
X144214761Y-151081904D02*
X144481428Y-151881904D01*
X144748095Y-151081904D01*
X145014761Y-151881904D02*
X145014761Y-151081904D01*
X145395714Y-151881904D02*
X145395714Y-151081904D01*
X145852857Y-151881904D01*
X145852857Y-151081904D01*
X142076666Y-151921904D02*
X141810000Y-151540952D01*
X141619523Y-151921904D02*
X141619523Y-151121904D01*
X141924285Y-151121904D01*
X142000476Y-151160000D01*
X142038571Y-151198095D01*
X142076666Y-151274285D01*
X142076666Y-151388571D01*
X142038571Y-151464761D01*
X142000476Y-151502857D01*
X141924285Y-151540952D01*
X141619523Y-151540952D01*
X142343333Y-151121904D02*
X142876666Y-151921904D01*
X142876666Y-151121904D02*
X142343333Y-151921904D01*
X139030476Y-151141904D02*
X139487619Y-151141904D01*
X139259047Y-151941904D02*
X139259047Y-151141904D01*
X139678095Y-151141904D02*
X140211428Y-151941904D01*
X140211428Y-151141904D02*
X139678095Y-151941904D01*
X147988571Y-130802857D02*
X148255238Y-130802857D01*
X148369523Y-131221904D02*
X147988571Y-131221904D01*
X147988571Y-130421904D01*
X148369523Y-130421904D01*
X149169523Y-131221904D02*
X148902857Y-130840952D01*
X148712380Y-131221904D02*
X148712380Y-130421904D01*
X149017142Y-130421904D01*
X149093333Y-130460000D01*
X149131428Y-130498095D01*
X149169523Y-130574285D01*
X149169523Y-130688571D01*
X149131428Y-130764761D01*
X149093333Y-130802857D01*
X149017142Y-130840952D01*
X148712380Y-130840952D01*
X149969523Y-131221904D02*
X149702857Y-130840952D01*
X149512380Y-131221904D02*
X149512380Y-130421904D01*
X149817142Y-130421904D01*
X149893333Y-130460000D01*
X149931428Y-130498095D01*
X149969523Y-130574285D01*
X149969523Y-130688571D01*
X149931428Y-130764761D01*
X149893333Y-130802857D01*
X149817142Y-130840952D01*
X149512380Y-130840952D01*
X143579523Y-131251904D02*
X143312857Y-130870952D01*
X143122380Y-131251904D02*
X143122380Y-130451904D01*
X143427142Y-130451904D01*
X143503333Y-130490000D01*
X143541428Y-130528095D01*
X143579523Y-130604285D01*
X143579523Y-130718571D01*
X143541428Y-130794761D01*
X143503333Y-130832857D01*
X143427142Y-130870952D01*
X143122380Y-130870952D01*
X143922380Y-130451904D02*
X143922380Y-131099523D01*
X143960476Y-131175714D01*
X143998571Y-131213809D01*
X144074761Y-131251904D01*
X144227142Y-131251904D01*
X144303333Y-131213809D01*
X144341428Y-131175714D01*
X144379523Y-131099523D01*
X144379523Y-130451904D01*
X144760476Y-131251904D02*
X144760476Y-130451904D01*
X145217619Y-131251904D01*
X145217619Y-130451904D01*
X138444285Y-131291904D02*
X138444285Y-130491904D01*
X138749047Y-130491904D01*
X138825238Y-130530000D01*
X138863333Y-130568095D01*
X138901428Y-130644285D01*
X138901428Y-130758571D01*
X138863333Y-130834761D01*
X138825238Y-130872857D01*
X138749047Y-130910952D01*
X138444285Y-130910952D01*
X139396666Y-130491904D02*
X139549047Y-130491904D01*
X139625238Y-130530000D01*
X139701428Y-130606190D01*
X139739523Y-130758571D01*
X139739523Y-131025238D01*
X139701428Y-131177619D01*
X139625238Y-131253809D01*
X139549047Y-131291904D01*
X139396666Y-131291904D01*
X139320476Y-131253809D01*
X139244285Y-131177619D01*
X139206190Y-131025238D01*
X139206190Y-130758571D01*
X139244285Y-130606190D01*
X139320476Y-130530000D01*
X139396666Y-130491904D01*
X140006190Y-130491904D02*
X140196666Y-131291904D01*
X140349047Y-130720476D01*
X140501428Y-131291904D01*
X140691904Y-130491904D01*
D11*
X181162380Y-133090000D02*
X180162380Y-133090000D01*
X181067142Y-132042380D02*
X181114761Y-132090000D01*
X181162380Y-132232857D01*
X181162380Y-132328095D01*
X181114761Y-132470952D01*
X181019523Y-132566190D01*
X180924285Y-132613809D01*
X180733809Y-132661428D01*
X180590952Y-132661428D01*
X180400476Y-132613809D01*
X180305238Y-132566190D01*
X180210000Y-132470952D01*
X180162380Y-132328095D01*
X180162380Y-132232857D01*
X180210000Y-132090000D01*
X180257619Y-132042380D01*
X181162380Y-131613809D02*
X180162380Y-131613809D01*
X180162380Y-131375714D01*
X180210000Y-131232857D01*
X180305238Y-131137619D01*
X180400476Y-131090000D01*
X180590952Y-131042380D01*
X180733809Y-131042380D01*
X180924285Y-131090000D01*
X181019523Y-131137619D01*
X181114761Y-131232857D01*
X181162380Y-131375714D01*
X181162380Y-131613809D01*
D10*
X156350000Y-135600000D02*
G75*
G03X156350000Y-135600000I-700000J0D01*
G01*
X139410064Y-139610000D02*
X138205936Y-139610000D01*
X139410064Y-142330000D02*
X138205936Y-142330000D01*
X173268750Y-145943750D02*
X174056250Y-145943750D01*
X173662500Y-146337500D02*
X173662500Y-145550000D01*
X177855563Y-145310000D02*
X178920000Y-144245563D01*
X173164437Y-145310000D02*
X172100000Y-144245563D01*
X173164437Y-145310000D02*
X174450000Y-145310000D01*
X177855563Y-145310000D02*
X176570000Y-145310000D01*
X178920000Y-144245563D02*
X178920000Y-138490000D01*
X172100000Y-144245563D02*
X172100000Y-138490000D01*
X172100000Y-138490000D02*
X174450000Y-138490000D01*
X178920000Y-138490000D02*
X176570000Y-138490000D01*
D11*
X156415000Y-137040000D02*
X155140000Y-137040000D01*
X168765000Y-136065000D02*
X167715000Y-136065000D01*
X168765000Y-148415000D02*
X167715000Y-148415000D01*
X156415000Y-148415000D02*
X157465000Y-148415000D01*
X156415000Y-136065000D02*
X157465000Y-136065000D01*
X156415000Y-148415000D02*
X156415000Y-147365000D01*
X168765000Y-148415000D02*
X168765000Y-147365000D01*
X168765000Y-136065000D02*
X168765000Y-137115000D01*
X156415000Y-136065000D02*
X156415000Y-137040000D01*
D10*
X145990000Y-148390000D02*
X149440000Y-148390000D01*
X145990000Y-148390000D02*
X144040000Y-148390000D01*
X145990000Y-143270000D02*
X147940000Y-143270000D01*
X145990000Y-143270000D02*
X144040000Y-143270000D01*
X150600000Y-144515221D02*
X150600000Y-144840779D01*
X151620000Y-144515221D02*
X151620000Y-144840779D01*
X140284779Y-143340000D02*
X139959221Y-143340000D01*
X140284779Y-144360000D02*
X139959221Y-144360000D01*
X140270779Y-145060000D02*
X139945221Y-145060000D01*
X140270779Y-146080000D02*
X139945221Y-146080000D01*
X194330000Y-151670000D02*
X194330000Y-153000000D01*
X193000000Y-151670000D02*
X194330000Y-151670000D01*
X191730000Y-151670000D02*
X191730000Y-154330000D01*
X191730000Y-154330000D02*
X178970000Y-154330000D01*
X191730000Y-151670000D02*
X178970000Y-151670000D01*
X178970000Y-151670000D02*
X178970000Y-154330000D01*
D11*
X136050000Y-140730000D02*
X136050000Y-141480000D01*
D12*
X130550000Y-137980000D02*
X135050000Y-137980000D01*
X135050000Y-137980000D02*
X135550000Y-137980000D01*
X135550000Y-137980000D02*
X135550000Y-146980000D01*
X135550000Y-146980000D02*
X130550000Y-146980000D01*
D10*
X162547221Y-132400000D02*
X162872779Y-132400000D01*
X162547221Y-131380000D02*
X162872779Y-131380000D01*
X165994779Y-131390000D02*
X165669221Y-131390000D01*
X165994779Y-132410000D02*
X165669221Y-132410000D01*
X169442779Y-131420000D02*
X169117221Y-131420000D01*
X169442779Y-132440000D02*
X169117221Y-132440000D01*
X149504779Y-140020000D02*
X149179221Y-140020000D01*
X149504779Y-141040000D02*
X149179221Y-141040000D01*
X140260779Y-146780000D02*
X139935221Y-146780000D01*
X140260779Y-147800000D02*
X139935221Y-147800000D01*
X140272779Y-148440000D02*
X139947221Y-148440000D01*
X140272779Y-149460000D02*
X139947221Y-149460000D01*
X149470000Y-154780000D02*
X149470000Y-153450000D01*
X150800000Y-154780000D02*
X149470000Y-154780000D01*
X152070000Y-154780000D02*
X152070000Y-152120000D01*
X152070000Y-152120000D02*
X154670000Y-152120000D01*
X152070000Y-154780000D02*
X154670000Y-154780000D01*
X154670000Y-154780000D02*
X154670000Y-152120000D01*
X138230000Y-154780000D02*
X138230000Y-153450000D01*
X139560000Y-154780000D02*
X138230000Y-154780000D01*
X140830000Y-154780000D02*
X140830000Y-152120000D01*
X140830000Y-152120000D02*
X148510000Y-152120000D01*
X140830000Y-154780000D02*
X148510000Y-154780000D01*
X148510000Y-154780000D02*
X148510000Y-152120000D01*
X159484779Y-131380000D02*
X159159221Y-131380000D01*
X159484779Y-132400000D02*
X159159221Y-132400000D01*
X146330000Y-136100000D02*
X143880000Y-136100000D01*
X144530000Y-139320000D02*
X146330000Y-139320000D01*
X149210779Y-133240000D02*
X148885221Y-133240000D01*
X149210779Y-134260000D02*
X148885221Y-134260000D01*
X144380779Y-133250000D02*
X144055221Y-133250000D01*
X144380779Y-134270000D02*
X144055221Y-134270000D01*
X139642779Y-133340000D02*
X139317221Y-133340000D01*
X139642779Y-134360000D02*
X139317221Y-134360000D01*
X149510779Y-141670000D02*
X149185221Y-141670000D01*
X149510779Y-142690000D02*
X149185221Y-142690000D01*
D11*
X194500000Y-151000000D02*
X180000000Y-151000000D01*
X194500000Y-134000000D02*
X194500000Y-151000000D01*
X180000000Y-134000000D02*
X194500000Y-134000000D01*
X180000000Y-151000000D02*
X180000000Y-134000000D01*
D10*
X194330000Y-130670000D02*
X194330000Y-132000000D01*
X193000000Y-130670000D02*
X194330000Y-130670000D01*
X191730000Y-130670000D02*
X191730000Y-133330000D01*
X191730000Y-133330000D02*
X181510000Y-133330000D01*
X191730000Y-130670000D02*
X181510000Y-130670000D01*
X181510000Y-130670000D02*
X181510000Y-133330000D01*
X147575000Y-132835000D02*
X149860000Y-132835000D01*
X147575000Y-131365000D02*
X147575000Y-132835000D01*
X149860000Y-131365000D02*
X147575000Y-131365000D01*
X142745000Y-132845000D02*
X145030000Y-132845000D01*
X142745000Y-131375000D02*
X142745000Y-132845000D01*
X145030000Y-131375000D02*
X142745000Y-131375000D01*
X137985000Y-132905000D02*
X140270000Y-132905000D01*
X137985000Y-131435000D02*
X137985000Y-132905000D01*
X140270000Y-131435000D02*
X137985000Y-131435000D01*
X172617221Y-147980000D02*
X172942779Y-147980000D01*
X172617221Y-146960000D02*
X172942779Y-146960000D01*
X161180000Y-152455221D02*
X161180000Y-152780779D01*
X162200000Y-152455221D02*
X162200000Y-152780779D01*
X158610000Y-152455221D02*
X158610000Y-152780779D01*
X159630000Y-152455221D02*
X159630000Y-152780779D01*
X148080000Y-137333422D02*
X148080000Y-137850578D01*
X149500000Y-137333422D02*
X149500000Y-137850578D01*
X146010779Y-140020000D02*
X145685221Y-140020000D01*
X146010779Y-141040000D02*
X145685221Y-141040000D01*
X170280000Y-152307221D02*
X170280000Y-152632779D01*
X171300000Y-152307221D02*
X171300000Y-152632779D01*
X165050000Y-152732779D02*
X165050000Y-152407221D01*
X164030000Y-152732779D02*
X164030000Y-152407221D01*
X141350000Y-137333422D02*
X141350000Y-137850578D01*
X142770000Y-137333422D02*
X142770000Y-137850578D01*
X151825221Y-149660000D02*
X152150779Y-149660000D01*
X151825221Y-150680000D02*
X152150779Y-150680000D01*
D11*
X138474666Y-138866571D02*
X138141333Y-138866571D01*
X138141333Y-139390380D02*
X138141333Y-138390380D01*
X138617523Y-138390380D01*
X139522285Y-139390380D02*
X138950857Y-139390380D01*
X139236571Y-139390380D02*
X139236571Y-138390380D01*
X139141333Y-138533238D01*
X139046095Y-138628476D01*
X138950857Y-138676095D01*
X177567142Y-147452857D02*
X177614761Y-147500476D01*
X177662380Y-147643333D01*
X177662380Y-147738571D01*
X177614761Y-147881428D01*
X177519523Y-147976666D01*
X177424285Y-148024285D01*
X177233809Y-148071904D01*
X177090952Y-148071904D01*
X176900476Y-148024285D01*
X176805238Y-147976666D01*
X176710000Y-147881428D01*
X176662380Y-147738571D01*
X176662380Y-147643333D01*
X176710000Y-147500476D01*
X176757619Y-147452857D01*
X176757619Y-147071904D02*
X176710000Y-147024285D01*
X176662380Y-146929047D01*
X176662380Y-146690952D01*
X176710000Y-146595714D01*
X176757619Y-146548095D01*
X176852857Y-146500476D01*
X176948095Y-146500476D01*
X177090952Y-146548095D01*
X177662380Y-147119523D01*
X177662380Y-146500476D01*
X176757619Y-146119523D02*
X176710000Y-146071904D01*
X176662380Y-145976666D01*
X176662380Y-145738571D01*
X176710000Y-145643333D01*
X176757619Y-145595714D01*
X176852857Y-145548095D01*
X176948095Y-145548095D01*
X177090952Y-145595714D01*
X177662380Y-146167142D01*
X177662380Y-145548095D01*
X169672095Y-134326380D02*
X169672095Y-135135904D01*
X169719714Y-135231142D01*
X169767333Y-135278761D01*
X169862571Y-135326380D01*
X170053047Y-135326380D01*
X170148285Y-135278761D01*
X170195904Y-135231142D01*
X170243523Y-135135904D01*
X170243523Y-134326380D01*
X171195904Y-134326380D02*
X170719714Y-134326380D01*
X170672095Y-134802571D01*
X170719714Y-134754952D01*
X170814952Y-134707333D01*
X171053047Y-134707333D01*
X171148285Y-134754952D01*
X171195904Y-134802571D01*
X171243523Y-134897809D01*
X171243523Y-135135904D01*
X171195904Y-135231142D01*
X171148285Y-135278761D01*
X171053047Y-135326380D01*
X170814952Y-135326380D01*
X170719714Y-135278761D01*
X170672095Y-135231142D01*
X145228095Y-148682380D02*
X145228095Y-149491904D01*
X145275714Y-149587142D01*
X145323333Y-149634761D01*
X145418571Y-149682380D01*
X145609047Y-149682380D01*
X145704285Y-149634761D01*
X145751904Y-149587142D01*
X145799523Y-149491904D01*
X145799523Y-148682380D01*
X146180476Y-148682380D02*
X146799523Y-148682380D01*
X146466190Y-149063333D01*
X146609047Y-149063333D01*
X146704285Y-149110952D01*
X146751904Y-149158571D01*
X146799523Y-149253809D01*
X146799523Y-149491904D01*
X146751904Y-149587142D01*
X146704285Y-149634761D01*
X146609047Y-149682380D01*
X146323333Y-149682380D01*
X146228095Y-149634761D01*
X146180476Y-149587142D01*
X151572380Y-148162857D02*
X151096190Y-148496190D01*
X151572380Y-148734285D02*
X150572380Y-148734285D01*
X150572380Y-148353333D01*
X150620000Y-148258095D01*
X150667619Y-148210476D01*
X150762857Y-148162857D01*
X150905714Y-148162857D01*
X151000952Y-148210476D01*
X151048571Y-148258095D01*
X151096190Y-148353333D01*
X151096190Y-148734285D01*
X151572380Y-147210476D02*
X151572380Y-147781904D01*
X151572380Y-147496190D02*
X150572380Y-147496190D01*
X150715238Y-147591428D01*
X150810476Y-147686666D01*
X150858095Y-147781904D01*
X150667619Y-146829523D02*
X150620000Y-146781904D01*
X150572380Y-146686666D01*
X150572380Y-146448571D01*
X150620000Y-146353333D01*
X150667619Y-146305714D01*
X150762857Y-146258095D01*
X150858095Y-146258095D01*
X151000952Y-146305714D01*
X151572380Y-146877142D01*
X151572380Y-146258095D01*
X136646642Y-144282380D02*
X136313309Y-143806190D01*
X136075214Y-144282380D02*
X136075214Y-143282380D01*
X136456166Y-143282380D01*
X136551404Y-143330000D01*
X136599023Y-143377619D01*
X136646642Y-143472857D01*
X136646642Y-143615714D01*
X136599023Y-143710952D01*
X136551404Y-143758571D01*
X136456166Y-143806190D01*
X136075214Y-143806190D01*
X137599023Y-144282380D02*
X137027595Y-144282380D01*
X137313309Y-144282380D02*
X137313309Y-143282380D01*
X137218071Y-143425238D01*
X137122833Y-143520476D01*
X137027595Y-143568095D01*
X138551404Y-144282380D02*
X137979976Y-144282380D01*
X138265690Y-144282380D02*
X138265690Y-143282380D01*
X138170452Y-143425238D01*
X138075214Y-143520476D01*
X137979976Y-143568095D01*
X136637642Y-146102380D02*
X136304309Y-145626190D01*
X136066214Y-146102380D02*
X136066214Y-145102380D01*
X136447166Y-145102380D01*
X136542404Y-145150000D01*
X136590023Y-145197619D01*
X136637642Y-145292857D01*
X136637642Y-145435714D01*
X136590023Y-145530952D01*
X136542404Y-145578571D01*
X136447166Y-145626190D01*
X136066214Y-145626190D01*
X137590023Y-146102380D02*
X137018595Y-146102380D01*
X137304309Y-146102380D02*
X137304309Y-145102380D01*
X137209071Y-145245238D01*
X137113833Y-145340476D01*
X137018595Y-145388095D01*
X138209071Y-145102380D02*
X138304309Y-145102380D01*
X138399547Y-145150000D01*
X138447166Y-145197619D01*
X138494785Y-145292857D01*
X138542404Y-145483333D01*
X138542404Y-145721428D01*
X138494785Y-145911904D01*
X138447166Y-146007142D01*
X138399547Y-146054761D01*
X138304309Y-146102380D01*
X138209071Y-146102380D01*
X138113833Y-146054761D01*
X138066214Y-146007142D01*
X138018595Y-145911904D01*
X137970976Y-145721428D01*
X137970976Y-145483333D01*
X138018595Y-145292857D01*
X138066214Y-145197619D01*
X138113833Y-145150000D01*
X138209071Y-145102380D01*
X192616666Y-153962380D02*
X192616666Y-154676666D01*
X192569047Y-154819523D01*
X192473809Y-154914761D01*
X192330952Y-154962380D01*
X192235714Y-154962380D01*
X192997619Y-153962380D02*
X193664285Y-153962380D01*
X193235714Y-154962380D01*
X131111904Y-142746666D02*
X131683333Y-142746666D01*
X131797619Y-142784761D01*
X131873809Y-142860952D01*
X131911904Y-142975238D01*
X131911904Y-143051428D01*
X131911904Y-141946666D02*
X131911904Y-142403809D01*
X131911904Y-142175238D02*
X131111904Y-142175238D01*
X131226190Y-142251428D01*
X131302380Y-142327619D01*
X131340476Y-142403809D01*
X162047142Y-130977142D02*
X161999523Y-131024761D01*
X161856666Y-131072380D01*
X161761428Y-131072380D01*
X161618571Y-131024761D01*
X161523333Y-130929523D01*
X161475714Y-130834285D01*
X161428095Y-130643809D01*
X161428095Y-130500952D01*
X161475714Y-130310476D01*
X161523333Y-130215238D01*
X161618571Y-130120000D01*
X161761428Y-130072380D01*
X161856666Y-130072380D01*
X161999523Y-130120000D01*
X162047142Y-130167619D01*
X162428095Y-130167619D02*
X162475714Y-130120000D01*
X162570952Y-130072380D01*
X162809047Y-130072380D01*
X162904285Y-130120000D01*
X162951904Y-130167619D01*
X162999523Y-130262857D01*
X162999523Y-130358095D01*
X162951904Y-130500952D01*
X162380476Y-131072380D01*
X162999523Y-131072380D01*
X163618571Y-130072380D02*
X163713809Y-130072380D01*
X163809047Y-130120000D01*
X163856666Y-130167619D01*
X163904285Y-130262857D01*
X163951904Y-130453333D01*
X163951904Y-130691428D01*
X163904285Y-130881904D01*
X163856666Y-130977142D01*
X163809047Y-131024761D01*
X163713809Y-131072380D01*
X163618571Y-131072380D01*
X163523333Y-131024761D01*
X163475714Y-130977142D01*
X163428095Y-130881904D01*
X163380476Y-130691428D01*
X163380476Y-130453333D01*
X163428095Y-130262857D01*
X163475714Y-130167619D01*
X163523333Y-130120000D01*
X163618571Y-130072380D01*
X165156642Y-130967142D02*
X165109023Y-131014761D01*
X164966166Y-131062380D01*
X164870928Y-131062380D01*
X164728071Y-131014761D01*
X164632833Y-130919523D01*
X164585214Y-130824285D01*
X164537595Y-130633809D01*
X164537595Y-130490952D01*
X164585214Y-130300476D01*
X164632833Y-130205238D01*
X164728071Y-130110000D01*
X164870928Y-130062380D01*
X164966166Y-130062380D01*
X165109023Y-130110000D01*
X165156642Y-130157619D01*
X166109023Y-131062380D02*
X165537595Y-131062380D01*
X165823309Y-131062380D02*
X165823309Y-130062380D01*
X165728071Y-130205238D01*
X165632833Y-130300476D01*
X165537595Y-130348095D01*
X166442357Y-130062380D02*
X167109023Y-130062380D01*
X166680452Y-131062380D01*
X168637142Y-131167142D02*
X168589523Y-131214761D01*
X168446666Y-131262380D01*
X168351428Y-131262380D01*
X168208571Y-131214761D01*
X168113333Y-131119523D01*
X168065714Y-131024285D01*
X168018095Y-130833809D01*
X168018095Y-130690952D01*
X168065714Y-130500476D01*
X168113333Y-130405238D01*
X168208571Y-130310000D01*
X168351428Y-130262380D01*
X168446666Y-130262380D01*
X168589523Y-130310000D01*
X168637142Y-130357619D01*
X169589523Y-131262380D02*
X169018095Y-131262380D01*
X169303809Y-131262380D02*
X169303809Y-130262380D01*
X169208571Y-130405238D01*
X169113333Y-130500476D01*
X169018095Y-130548095D01*
X170494285Y-130262380D02*
X170018095Y-130262380D01*
X169970476Y-130738571D01*
X170018095Y-130690952D01*
X170113333Y-130643333D01*
X170351428Y-130643333D01*
X170446666Y-130690952D01*
X170494285Y-130738571D01*
X170541904Y-130833809D01*
X170541904Y-131071904D01*
X170494285Y-131167142D01*
X170446666Y-131214761D01*
X170351428Y-131262380D01*
X170113333Y-131262380D01*
X170018095Y-131214761D01*
X169970476Y-131167142D01*
X151612833Y-140977142D02*
X151565214Y-141024761D01*
X151422357Y-141072380D01*
X151327119Y-141072380D01*
X151184261Y-141024761D01*
X151089023Y-140929523D01*
X151041404Y-140834285D01*
X150993785Y-140643809D01*
X150993785Y-140500952D01*
X151041404Y-140310476D01*
X151089023Y-140215238D01*
X151184261Y-140120000D01*
X151327119Y-140072380D01*
X151422357Y-140072380D01*
X151565214Y-140120000D01*
X151612833Y-140167619D01*
X152089023Y-141072380D02*
X152279500Y-141072380D01*
X152374738Y-141024761D01*
X152422357Y-140977142D01*
X152517595Y-140834285D01*
X152565214Y-140643809D01*
X152565214Y-140262857D01*
X152517595Y-140167619D01*
X152469976Y-140120000D01*
X152374738Y-140072380D01*
X152184261Y-140072380D01*
X152089023Y-140120000D01*
X152041404Y-140167619D01*
X151993785Y-140262857D01*
X151993785Y-140500952D01*
X152041404Y-140596190D01*
X152089023Y-140643809D01*
X152184261Y-140691428D01*
X152374738Y-140691428D01*
X152469976Y-140643809D01*
X152517595Y-140596190D01*
X152565214Y-140500952D01*
X137423833Y-147657142D02*
X137376214Y-147704761D01*
X137233357Y-147752380D01*
X137138119Y-147752380D01*
X136995261Y-147704761D01*
X136900023Y-147609523D01*
X136852404Y-147514285D01*
X136804785Y-147323809D01*
X136804785Y-147180952D01*
X136852404Y-146990476D01*
X136900023Y-146895238D01*
X136995261Y-146800000D01*
X137138119Y-146752380D01*
X137233357Y-146752380D01*
X137376214Y-146800000D01*
X137423833Y-146847619D01*
X137757166Y-146752380D02*
X138423833Y-146752380D01*
X137995261Y-147752380D01*
X137483333Y-149327142D02*
X137435714Y-149374761D01*
X137292857Y-149422380D01*
X137197619Y-149422380D01*
X137054761Y-149374761D01*
X136959523Y-149279523D01*
X136911904Y-149184285D01*
X136864285Y-148993809D01*
X136864285Y-148850952D01*
X136911904Y-148660476D01*
X136959523Y-148565238D01*
X137054761Y-148470000D01*
X137197619Y-148422380D01*
X137292857Y-148422380D01*
X137435714Y-148470000D01*
X137483333Y-148517619D01*
X138340476Y-148422380D02*
X138150000Y-148422380D01*
X138054761Y-148470000D01*
X138007142Y-148517619D01*
X137911904Y-148660476D01*
X137864285Y-148850952D01*
X137864285Y-149231904D01*
X137911904Y-149327142D01*
X137959523Y-149374761D01*
X138054761Y-149422380D01*
X138245238Y-149422380D01*
X138340476Y-149374761D01*
X138388095Y-149327142D01*
X138435714Y-149231904D01*
X138435714Y-148993809D01*
X138388095Y-148898571D01*
X138340476Y-148850952D01*
X138245238Y-148803333D01*
X138054761Y-148803333D01*
X137959523Y-148850952D01*
X137911904Y-148898571D01*
X137864285Y-148993809D01*
X155122380Y-153743333D02*
X155836666Y-153743333D01*
X155979523Y-153790952D01*
X156074761Y-153886190D01*
X156122380Y-154029047D01*
X156122380Y-154124285D01*
X155122380Y-152838571D02*
X155122380Y-153029047D01*
X155170000Y-153124285D01*
X155217619Y-153171904D01*
X155360476Y-153267142D01*
X155550952Y-153314761D01*
X155931904Y-153314761D01*
X156027142Y-153267142D01*
X156074761Y-153219523D01*
X156122380Y-153124285D01*
X156122380Y-152933809D01*
X156074761Y-152838571D01*
X156027142Y-152790952D01*
X155931904Y-152743333D01*
X155693809Y-152743333D01*
X155598571Y-152790952D01*
X155550952Y-152838571D01*
X155503333Y-152933809D01*
X155503333Y-153124285D01*
X155550952Y-153219523D01*
X155598571Y-153267142D01*
X155693809Y-153314761D01*
X136682380Y-153783333D02*
X137396666Y-153783333D01*
X137539523Y-153830952D01*
X137634761Y-153926190D01*
X137682380Y-154069047D01*
X137682380Y-154164285D01*
X136682380Y-152830952D02*
X136682380Y-153307142D01*
X137158571Y-153354761D01*
X137110952Y-153307142D01*
X137063333Y-153211904D01*
X137063333Y-152973809D01*
X137110952Y-152878571D01*
X137158571Y-152830952D01*
X137253809Y-152783333D01*
X137491904Y-152783333D01*
X137587142Y-152830952D01*
X137634761Y-152878571D01*
X137682380Y-152973809D01*
X137682380Y-153211904D01*
X137634761Y-153307142D01*
X137587142Y-153354761D01*
X158656642Y-130997142D02*
X158609023Y-131044761D01*
X158466166Y-131092380D01*
X158370928Y-131092380D01*
X158228071Y-131044761D01*
X158132833Y-130949523D01*
X158085214Y-130854285D01*
X158037595Y-130663809D01*
X158037595Y-130520952D01*
X158085214Y-130330476D01*
X158132833Y-130235238D01*
X158228071Y-130140000D01*
X158370928Y-130092380D01*
X158466166Y-130092380D01*
X158609023Y-130140000D01*
X158656642Y-130187619D01*
X159609023Y-131092380D02*
X159037595Y-131092380D01*
X159323309Y-131092380D02*
X159323309Y-130092380D01*
X159228071Y-130235238D01*
X159132833Y-130330476D01*
X159037595Y-130378095D01*
X160466166Y-130092380D02*
X160275690Y-130092380D01*
X160180452Y-130140000D01*
X160132833Y-130187619D01*
X160037595Y-130330476D01*
X159989976Y-130520952D01*
X159989976Y-130901904D01*
X160037595Y-130997142D01*
X160085214Y-131044761D01*
X160180452Y-131092380D01*
X160370928Y-131092380D01*
X160466166Y-131044761D01*
X160513785Y-130997142D01*
X160561404Y-130901904D01*
X160561404Y-130663809D01*
X160513785Y-130568571D01*
X160466166Y-130520952D01*
X160370928Y-130473333D01*
X160180452Y-130473333D01*
X160085214Y-130520952D01*
X160037595Y-130568571D01*
X159989976Y-130663809D01*
D10*
X151203809Y-133986666D02*
X151241904Y-133872380D01*
X151241904Y-133681904D01*
X151203809Y-133605714D01*
X151165714Y-133567619D01*
X151089523Y-133529523D01*
X151013333Y-133529523D01*
X150937142Y-133567619D01*
X150899047Y-133605714D01*
X150860952Y-133681904D01*
X150822857Y-133834285D01*
X150784761Y-133910476D01*
X150746666Y-133948571D01*
X150670476Y-133986666D01*
X150594285Y-133986666D01*
X150518095Y-133948571D01*
X150480000Y-133910476D01*
X150441904Y-133834285D01*
X150441904Y-133643809D01*
X150480000Y-133529523D01*
X150441904Y-133262857D02*
X151241904Y-133072380D01*
X150670476Y-132920000D01*
X151241904Y-132767619D01*
X150441904Y-132577142D01*
X151241904Y-131853333D02*
X151241904Y-132310476D01*
X151241904Y-132081904D02*
X150441904Y-132081904D01*
X150556190Y-132158095D01*
X150632380Y-132234285D01*
X150670476Y-132310476D01*
D11*
X169960476Y-149782380D02*
X170627142Y-150782380D01*
X170627142Y-149782380D02*
X169960476Y-150782380D01*
X171531904Y-150782380D02*
X170960476Y-150782380D01*
X171246190Y-150782380D02*
X171246190Y-149782380D01*
X171150952Y-149925238D01*
X171055714Y-150020476D01*
X170960476Y-150068095D01*
X144598095Y-134822380D02*
X144598095Y-135631904D01*
X144645714Y-135727142D01*
X144693333Y-135774761D01*
X144788571Y-135822380D01*
X144979047Y-135822380D01*
X145074285Y-135774761D01*
X145121904Y-135727142D01*
X145169523Y-135631904D01*
X145169523Y-134822380D01*
X145598095Y-134917619D02*
X145645714Y-134870000D01*
X145740952Y-134822380D01*
X145979047Y-134822380D01*
X146074285Y-134870000D01*
X146121904Y-134917619D01*
X146169523Y-135012857D01*
X146169523Y-135108095D01*
X146121904Y-135250952D01*
X145550476Y-135822380D01*
X146169523Y-135822380D01*
X146533333Y-134322380D02*
X146200000Y-133846190D01*
X145961904Y-134322380D02*
X145961904Y-133322380D01*
X146342857Y-133322380D01*
X146438095Y-133370000D01*
X146485714Y-133417619D01*
X146533333Y-133512857D01*
X146533333Y-133655714D01*
X146485714Y-133750952D01*
X146438095Y-133798571D01*
X146342857Y-133846190D01*
X145961904Y-133846190D01*
X147009523Y-134322380D02*
X147200000Y-134322380D01*
X147295238Y-134274761D01*
X147342857Y-134227142D01*
X147438095Y-134084285D01*
X147485714Y-133893809D01*
X147485714Y-133512857D01*
X147438095Y-133417619D01*
X147390476Y-133370000D01*
X147295238Y-133322380D01*
X147104761Y-133322380D01*
X147009523Y-133370000D01*
X146961904Y-133417619D01*
X146914285Y-133512857D01*
X146914285Y-133750952D01*
X146961904Y-133846190D01*
X147009523Y-133893809D01*
X147104761Y-133941428D01*
X147295238Y-133941428D01*
X147390476Y-133893809D01*
X147438095Y-133846190D01*
X147485714Y-133750952D01*
X141763333Y-134292380D02*
X141430000Y-133816190D01*
X141191904Y-134292380D02*
X141191904Y-133292380D01*
X141572857Y-133292380D01*
X141668095Y-133340000D01*
X141715714Y-133387619D01*
X141763333Y-133482857D01*
X141763333Y-133625714D01*
X141715714Y-133720952D01*
X141668095Y-133768571D01*
X141572857Y-133816190D01*
X141191904Y-133816190D01*
X142334761Y-133720952D02*
X142239523Y-133673333D01*
X142191904Y-133625714D01*
X142144285Y-133530476D01*
X142144285Y-133482857D01*
X142191904Y-133387619D01*
X142239523Y-133340000D01*
X142334761Y-133292380D01*
X142525238Y-133292380D01*
X142620476Y-133340000D01*
X142668095Y-133387619D01*
X142715714Y-133482857D01*
X142715714Y-133530476D01*
X142668095Y-133625714D01*
X142620476Y-133673333D01*
X142525238Y-133720952D01*
X142334761Y-133720952D01*
X142239523Y-133768571D01*
X142191904Y-133816190D01*
X142144285Y-133911428D01*
X142144285Y-134101904D01*
X142191904Y-134197142D01*
X142239523Y-134244761D01*
X142334761Y-134292380D01*
X142525238Y-134292380D01*
X142620476Y-134244761D01*
X142668095Y-134197142D01*
X142715714Y-134101904D01*
X142715714Y-133911428D01*
X142668095Y-133816190D01*
X142620476Y-133768571D01*
X142525238Y-133720952D01*
X136783333Y-134362380D02*
X136450000Y-133886190D01*
X136211904Y-134362380D02*
X136211904Y-133362380D01*
X136592857Y-133362380D01*
X136688095Y-133410000D01*
X136735714Y-133457619D01*
X136783333Y-133552857D01*
X136783333Y-133695714D01*
X136735714Y-133790952D01*
X136688095Y-133838571D01*
X136592857Y-133886190D01*
X136211904Y-133886190D01*
X137116666Y-133362380D02*
X137783333Y-133362380D01*
X137354761Y-134362380D01*
X151643833Y-142722380D02*
X151310500Y-142246190D01*
X151072404Y-142722380D02*
X151072404Y-141722380D01*
X151453357Y-141722380D01*
X151548595Y-141770000D01*
X151596214Y-141817619D01*
X151643833Y-141912857D01*
X151643833Y-142055714D01*
X151596214Y-142150952D01*
X151548595Y-142198571D01*
X151453357Y-142246190D01*
X151072404Y-142246190D01*
X152596214Y-142722380D02*
X152024785Y-142722380D01*
X152310500Y-142722380D02*
X152310500Y-141722380D01*
X152215261Y-141865238D01*
X152120023Y-141960476D01*
X152024785Y-142008095D01*
X178792380Y-135207333D02*
X179506666Y-135207333D01*
X179649523Y-135254952D01*
X179744761Y-135350190D01*
X179792380Y-135493047D01*
X179792380Y-135588285D01*
X179125714Y-134302571D02*
X179792380Y-134302571D01*
X178744761Y-134540666D02*
X179459047Y-134778761D01*
X179459047Y-134159714D01*
X192566666Y-132962380D02*
X192566666Y-133676666D01*
X192519047Y-133819523D01*
X192423809Y-133914761D01*
X192280952Y-133962380D01*
X192185714Y-133962380D01*
X192947619Y-132962380D02*
X193566666Y-132962380D01*
X193233333Y-133343333D01*
X193376190Y-133343333D01*
X193471428Y-133390952D01*
X193519047Y-133438571D01*
X193566666Y-133533809D01*
X193566666Y-133771904D01*
X193519047Y-133867142D01*
X193471428Y-133914761D01*
X193376190Y-133962380D01*
X193090476Y-133962380D01*
X192995238Y-133914761D01*
X192947619Y-133867142D01*
X145871904Y-132522380D02*
X145871904Y-131522380D01*
X146110000Y-131522380D01*
X146252857Y-131570000D01*
X146348095Y-131665238D01*
X146395714Y-131760476D01*
X146443333Y-131950952D01*
X146443333Y-132093809D01*
X146395714Y-132284285D01*
X146348095Y-132379523D01*
X146252857Y-132474761D01*
X146110000Y-132522380D01*
X145871904Y-132522380D01*
X147300476Y-131855714D02*
X147300476Y-132522380D01*
X147062380Y-131474761D02*
X146824285Y-132189047D01*
X147443333Y-132189047D01*
X141091904Y-132592380D02*
X141091904Y-131592380D01*
X141330000Y-131592380D01*
X141472857Y-131640000D01*
X141568095Y-131735238D01*
X141615714Y-131830476D01*
X141663333Y-132020952D01*
X141663333Y-132163809D01*
X141615714Y-132354285D01*
X141568095Y-132449523D01*
X141472857Y-132544761D01*
X141330000Y-132592380D01*
X141091904Y-132592380D01*
X141996666Y-131592380D02*
X142615714Y-131592380D01*
X142282380Y-131973333D01*
X142425238Y-131973333D01*
X142520476Y-132020952D01*
X142568095Y-132068571D01*
X142615714Y-132163809D01*
X142615714Y-132401904D01*
X142568095Y-132497142D01*
X142520476Y-132544761D01*
X142425238Y-132592380D01*
X142139523Y-132592380D01*
X142044285Y-132544761D01*
X141996666Y-132497142D01*
X136281904Y-132632380D02*
X136281904Y-131632380D01*
X136520000Y-131632380D01*
X136662857Y-131680000D01*
X136758095Y-131775238D01*
X136805714Y-131870476D01*
X136853333Y-132060952D01*
X136853333Y-132203809D01*
X136805714Y-132394285D01*
X136758095Y-132489523D01*
X136662857Y-132584761D01*
X136520000Y-132632380D01*
X136281904Y-132632380D01*
X137234285Y-131727619D02*
X137281904Y-131680000D01*
X137377142Y-131632380D01*
X137615238Y-131632380D01*
X137710476Y-131680000D01*
X137758095Y-131727619D01*
X137805714Y-131822857D01*
X137805714Y-131918095D01*
X137758095Y-132060952D01*
X137186666Y-132632380D01*
X137805714Y-132632380D01*
X172159642Y-149257142D02*
X172112023Y-149304761D01*
X171969166Y-149352380D01*
X171873928Y-149352380D01*
X171731071Y-149304761D01*
X171635833Y-149209523D01*
X171588214Y-149114285D01*
X171540595Y-148923809D01*
X171540595Y-148780952D01*
X171588214Y-148590476D01*
X171635833Y-148495238D01*
X171731071Y-148400000D01*
X171873928Y-148352380D01*
X171969166Y-148352380D01*
X172112023Y-148400000D01*
X172159642Y-148447619D01*
X173112023Y-149352380D02*
X172540595Y-149352380D01*
X172826309Y-149352380D02*
X172826309Y-148352380D01*
X172731071Y-148495238D01*
X172635833Y-148590476D01*
X172540595Y-148638095D01*
X173445357Y-148352380D02*
X174064404Y-148352380D01*
X173731071Y-148733333D01*
X173873928Y-148733333D01*
X173969166Y-148780952D01*
X174016785Y-148828571D01*
X174064404Y-148923809D01*
X174064404Y-149161904D01*
X174016785Y-149257142D01*
X173969166Y-149304761D01*
X173873928Y-149352380D01*
X173588214Y-149352380D01*
X173492976Y-149304761D01*
X173445357Y-149257142D01*
X160757142Y-153233357D02*
X160804761Y-153280976D01*
X160852380Y-153423833D01*
X160852380Y-153519071D01*
X160804761Y-153661928D01*
X160709523Y-153757166D01*
X160614285Y-153804785D01*
X160423809Y-153852404D01*
X160280952Y-153852404D01*
X160090476Y-153804785D01*
X159995238Y-153757166D01*
X159900000Y-153661928D01*
X159852380Y-153519071D01*
X159852380Y-153423833D01*
X159900000Y-153280976D01*
X159947619Y-153233357D01*
X160852380Y-152280976D02*
X160852380Y-152852404D01*
X160852380Y-152566690D02*
X159852380Y-152566690D01*
X159995238Y-152661928D01*
X160090476Y-152757166D01*
X160138095Y-152852404D01*
X160852380Y-151328595D02*
X160852380Y-151900023D01*
X160852380Y-151614309D02*
X159852380Y-151614309D01*
X159995238Y-151709547D01*
X160090476Y-151804785D01*
X160138095Y-151900023D01*
X158097142Y-153248357D02*
X158144761Y-153295976D01*
X158192380Y-153438833D01*
X158192380Y-153534071D01*
X158144761Y-153676928D01*
X158049523Y-153772166D01*
X157954285Y-153819785D01*
X157763809Y-153867404D01*
X157620952Y-153867404D01*
X157430476Y-153819785D01*
X157335238Y-153772166D01*
X157240000Y-153676928D01*
X157192380Y-153534071D01*
X157192380Y-153438833D01*
X157240000Y-153295976D01*
X157287619Y-153248357D01*
X158192380Y-152295976D02*
X158192380Y-152867404D01*
X158192380Y-152581690D02*
X157192380Y-152581690D01*
X157335238Y-152676928D01*
X157430476Y-152772166D01*
X157478095Y-152867404D01*
X157192380Y-151676928D02*
X157192380Y-151581690D01*
X157240000Y-151486452D01*
X157287619Y-151438833D01*
X157382857Y-151391214D01*
X157573333Y-151343595D01*
X157811428Y-151343595D01*
X158001904Y-151391214D01*
X158097142Y-151438833D01*
X158144761Y-151486452D01*
X158192380Y-151581690D01*
X158192380Y-151676928D01*
X158144761Y-151772166D01*
X158097142Y-151819785D01*
X158001904Y-151867404D01*
X157811428Y-151915023D01*
X157573333Y-151915023D01*
X157382857Y-151867404D01*
X157287619Y-151819785D01*
X157240000Y-151772166D01*
X157192380Y-151676928D01*
X148583333Y-135657142D02*
X148535714Y-135704761D01*
X148392857Y-135752380D01*
X148297619Y-135752380D01*
X148154761Y-135704761D01*
X148059523Y-135609523D01*
X148011904Y-135514285D01*
X147964285Y-135323809D01*
X147964285Y-135180952D01*
X148011904Y-134990476D01*
X148059523Y-134895238D01*
X148154761Y-134800000D01*
X148297619Y-134752380D01*
X148392857Y-134752380D01*
X148535714Y-134800000D01*
X148583333Y-134847619D01*
X149154761Y-135180952D02*
X149059523Y-135133333D01*
X149011904Y-135085714D01*
X148964285Y-134990476D01*
X148964285Y-134942857D01*
X149011904Y-134847619D01*
X149059523Y-134800000D01*
X149154761Y-134752380D01*
X149345238Y-134752380D01*
X149440476Y-134800000D01*
X149488095Y-134847619D01*
X149535714Y-134942857D01*
X149535714Y-134990476D01*
X149488095Y-135085714D01*
X149440476Y-135133333D01*
X149345238Y-135180952D01*
X149154761Y-135180952D01*
X149059523Y-135228571D01*
X149011904Y-135276190D01*
X148964285Y-135371428D01*
X148964285Y-135561904D01*
X149011904Y-135657142D01*
X149059523Y-135704761D01*
X149154761Y-135752380D01*
X149345238Y-135752380D01*
X149440476Y-135704761D01*
X149488095Y-135657142D01*
X149535714Y-135561904D01*
X149535714Y-135371428D01*
X149488095Y-135276190D01*
X149440476Y-135228571D01*
X149345238Y-135180952D01*
X143133333Y-140867142D02*
X143085714Y-140914761D01*
X142942857Y-140962380D01*
X142847619Y-140962380D01*
X142704761Y-140914761D01*
X142609523Y-140819523D01*
X142561904Y-140724285D01*
X142514285Y-140533809D01*
X142514285Y-140390952D01*
X142561904Y-140200476D01*
X142609523Y-140105238D01*
X142704761Y-140010000D01*
X142847619Y-139962380D01*
X142942857Y-139962380D01*
X143085714Y-140010000D01*
X143133333Y-140057619D01*
X144038095Y-139962380D02*
X143561904Y-139962380D01*
X143514285Y-140438571D01*
X143561904Y-140390952D01*
X143657142Y-140343333D01*
X143895238Y-140343333D01*
X143990476Y-140390952D01*
X144038095Y-140438571D01*
X144085714Y-140533809D01*
X144085714Y-140771904D01*
X144038095Y-140867142D01*
X143990476Y-140914761D01*
X143895238Y-140962380D01*
X143657142Y-140962380D01*
X143561904Y-140914761D01*
X143514285Y-140867142D01*
X172557142Y-152586666D02*
X172604761Y-152634285D01*
X172652380Y-152777142D01*
X172652380Y-152872380D01*
X172604761Y-153015238D01*
X172509523Y-153110476D01*
X172414285Y-153158095D01*
X172223809Y-153205714D01*
X172080952Y-153205714D01*
X171890476Y-153158095D01*
X171795238Y-153110476D01*
X171700000Y-153015238D01*
X171652380Y-152872380D01*
X171652380Y-152777142D01*
X171700000Y-152634285D01*
X171747619Y-152586666D01*
X171985714Y-151729523D02*
X172652380Y-151729523D01*
X171604761Y-151967619D02*
X172319047Y-152205714D01*
X172319047Y-151586666D01*
X163567142Y-152656666D02*
X163614761Y-152704285D01*
X163662380Y-152847142D01*
X163662380Y-152942380D01*
X163614761Y-153085238D01*
X163519523Y-153180476D01*
X163424285Y-153228095D01*
X163233809Y-153275714D01*
X163090952Y-153275714D01*
X162900476Y-153228095D01*
X162805238Y-153180476D01*
X162710000Y-153085238D01*
X162662380Y-152942380D01*
X162662380Y-152847142D01*
X162710000Y-152704285D01*
X162757619Y-152656666D01*
X162662380Y-152323333D02*
X162662380Y-151704285D01*
X163043333Y-152037619D01*
X163043333Y-151894761D01*
X163090952Y-151799523D01*
X163138571Y-151751904D01*
X163233809Y-151704285D01*
X163471904Y-151704285D01*
X163567142Y-151751904D01*
X163614761Y-151799523D01*
X163662380Y-151894761D01*
X163662380Y-152180476D01*
X163614761Y-152275714D01*
X163567142Y-152323333D01*
X141793333Y-135657142D02*
X141745714Y-135704761D01*
X141602857Y-135752380D01*
X141507619Y-135752380D01*
X141364761Y-135704761D01*
X141269523Y-135609523D01*
X141221904Y-135514285D01*
X141174285Y-135323809D01*
X141174285Y-135180952D01*
X141221904Y-134990476D01*
X141269523Y-134895238D01*
X141364761Y-134800000D01*
X141507619Y-134752380D01*
X141602857Y-134752380D01*
X141745714Y-134800000D01*
X141793333Y-134847619D01*
X142174285Y-134847619D02*
X142221904Y-134800000D01*
X142317142Y-134752380D01*
X142555238Y-134752380D01*
X142650476Y-134800000D01*
X142698095Y-134847619D01*
X142745714Y-134942857D01*
X142745714Y-135038095D01*
X142698095Y-135180952D01*
X142126666Y-135752380D01*
X142745714Y-135752380D01*
X149423833Y-150527142D02*
X149376214Y-150574761D01*
X149233357Y-150622380D01*
X149138119Y-150622380D01*
X148995261Y-150574761D01*
X148900023Y-150479523D01*
X148852404Y-150384285D01*
X148804785Y-150193809D01*
X148804785Y-150050952D01*
X148852404Y-149860476D01*
X148900023Y-149765238D01*
X148995261Y-149670000D01*
X149138119Y-149622380D01*
X149233357Y-149622380D01*
X149376214Y-149670000D01*
X149423833Y-149717619D01*
X150376214Y-150622380D02*
X149804785Y-150622380D01*
X150090500Y-150622380D02*
X150090500Y-149622380D01*
X149995261Y-149765238D01*
X149900023Y-149860476D01*
X149804785Y-149908095D01*
%LPC*%
D13*
X155650000Y-135600000D03*
D14*
G36*
X137840104Y-139595302D02*
G01*
X137866352Y-139599196D01*
X137892093Y-139605643D01*
X137917078Y-139614583D01*
X137941066Y-139625928D01*
X137963826Y-139639571D01*
X137985140Y-139655378D01*
X138004802Y-139673198D01*
X138022622Y-139692860D01*
X138038429Y-139714174D01*
X138052072Y-139736934D01*
X138063417Y-139760922D01*
X138072357Y-139785907D01*
X138078804Y-139811648D01*
X138082698Y-139837896D01*
X138084000Y-139864400D01*
X138084000Y-142075600D01*
X138082698Y-142102104D01*
X138078804Y-142128352D01*
X138072357Y-142154093D01*
X138063417Y-142179078D01*
X138052072Y-142203066D01*
X138038429Y-142225826D01*
X138022622Y-142247140D01*
X138004802Y-142266802D01*
X137985140Y-142284622D01*
X137963826Y-142300429D01*
X137941066Y-142314072D01*
X137917078Y-142325417D01*
X137892093Y-142334357D01*
X137866352Y-142340804D01*
X137840104Y-142344698D01*
X137813600Y-142346000D01*
X137002400Y-142346000D01*
X136975896Y-142344698D01*
X136949648Y-142340804D01*
X136923907Y-142334357D01*
X136898922Y-142325417D01*
X136874934Y-142314072D01*
X136852174Y-142300429D01*
X136830860Y-142284622D01*
X136811198Y-142266802D01*
X136793378Y-142247140D01*
X136777571Y-142225826D01*
X136763928Y-142203066D01*
X136752583Y-142179078D01*
X136743643Y-142154093D01*
X136737196Y-142128352D01*
X136733302Y-142102104D01*
X136732000Y-142075600D01*
X136732000Y-139864400D01*
X136733302Y-139837896D01*
X136737196Y-139811648D01*
X136743643Y-139785907D01*
X136752583Y-139760922D01*
X136763928Y-139736934D01*
X136777571Y-139714174D01*
X136793378Y-139692860D01*
X136811198Y-139673198D01*
X136830860Y-139655378D01*
X136852174Y-139639571D01*
X136874934Y-139625928D01*
X136898922Y-139614583D01*
X136923907Y-139605643D01*
X136949648Y-139599196D01*
X136975896Y-139595302D01*
X137002400Y-139594000D01*
X137813600Y-139594000D01*
X137840104Y-139595302D01*
X137840104Y-139595302D01*
G37*
D15*
X137408000Y-140970000D03*
D14*
G36*
X140640104Y-139595302D02*
G01*
X140666352Y-139599196D01*
X140692093Y-139605643D01*
X140717078Y-139614583D01*
X140741066Y-139625928D01*
X140763826Y-139639571D01*
X140785140Y-139655378D01*
X140804802Y-139673198D01*
X140822622Y-139692860D01*
X140838429Y-139714174D01*
X140852072Y-139736934D01*
X140863417Y-139760922D01*
X140872357Y-139785907D01*
X140878804Y-139811648D01*
X140882698Y-139837896D01*
X140884000Y-139864400D01*
X140884000Y-142075600D01*
X140882698Y-142102104D01*
X140878804Y-142128352D01*
X140872357Y-142154093D01*
X140863417Y-142179078D01*
X140852072Y-142203066D01*
X140838429Y-142225826D01*
X140822622Y-142247140D01*
X140804802Y-142266802D01*
X140785140Y-142284622D01*
X140763826Y-142300429D01*
X140741066Y-142314072D01*
X140717078Y-142325417D01*
X140692093Y-142334357D01*
X140666352Y-142340804D01*
X140640104Y-142344698D01*
X140613600Y-142346000D01*
X139802400Y-142346000D01*
X139775896Y-142344698D01*
X139749648Y-142340804D01*
X139723907Y-142334357D01*
X139698922Y-142325417D01*
X139674934Y-142314072D01*
X139652174Y-142300429D01*
X139630860Y-142284622D01*
X139611198Y-142266802D01*
X139593378Y-142247140D01*
X139577571Y-142225826D01*
X139563928Y-142203066D01*
X139552583Y-142179078D01*
X139543643Y-142154093D01*
X139537196Y-142128352D01*
X139533302Y-142102104D01*
X139532000Y-142075600D01*
X139532000Y-139864400D01*
X139533302Y-139837896D01*
X139537196Y-139811648D01*
X139543643Y-139785907D01*
X139552583Y-139760922D01*
X139563928Y-139736934D01*
X139577571Y-139714174D01*
X139593378Y-139692860D01*
X139611198Y-139673198D01*
X139630860Y-139655378D01*
X139652174Y-139639571D01*
X139674934Y-139625928D01*
X139698922Y-139614583D01*
X139723907Y-139605643D01*
X139749648Y-139599196D01*
X139775896Y-139595302D01*
X139802400Y-139594000D01*
X140613600Y-139594000D01*
X140640104Y-139595302D01*
X140640104Y-139595302D01*
G37*
D15*
X140208000Y-140970000D03*
D14*
G36*
X176121129Y-137400281D02*
G01*
X176146945Y-137404110D01*
X176172260Y-137410451D01*
X176196833Y-137419243D01*
X176220425Y-137430402D01*
X176242810Y-137443818D01*
X176263772Y-137459365D01*
X176283109Y-137476891D01*
X176300635Y-137496228D01*
X176316182Y-137517190D01*
X176329598Y-137539575D01*
X176340757Y-137563167D01*
X176349549Y-137587740D01*
X176355890Y-137613055D01*
X176359719Y-137638871D01*
X176361000Y-137664937D01*
X176361000Y-140735063D01*
X176359719Y-140761129D01*
X176355890Y-140786945D01*
X176349549Y-140812260D01*
X176340757Y-140836833D01*
X176329598Y-140860425D01*
X176316182Y-140882810D01*
X176300635Y-140903772D01*
X176283109Y-140923109D01*
X176263772Y-140940635D01*
X176242810Y-140956182D01*
X176220425Y-140969598D01*
X176196833Y-140980757D01*
X176172260Y-140989549D01*
X176146945Y-140995890D01*
X176121129Y-140999719D01*
X176095063Y-141001000D01*
X174924937Y-141001000D01*
X174898871Y-140999719D01*
X174873055Y-140995890D01*
X174847740Y-140989549D01*
X174823167Y-140980757D01*
X174799575Y-140969598D01*
X174777190Y-140956182D01*
X174756228Y-140940635D01*
X174736891Y-140923109D01*
X174719365Y-140903772D01*
X174703818Y-140882810D01*
X174690402Y-140860425D01*
X174679243Y-140836833D01*
X174670451Y-140812260D01*
X174664110Y-140786945D01*
X174660281Y-140761129D01*
X174659000Y-140735063D01*
X174659000Y-137664937D01*
X174660281Y-137638871D01*
X174664110Y-137613055D01*
X174670451Y-137587740D01*
X174679243Y-137563167D01*
X174690402Y-137539575D01*
X174703818Y-137517190D01*
X174719365Y-137496228D01*
X174736891Y-137476891D01*
X174756228Y-137459365D01*
X174777190Y-137443818D01*
X174799575Y-137430402D01*
X174823167Y-137419243D01*
X174847740Y-137410451D01*
X174873055Y-137404110D01*
X174898871Y-137400281D01*
X174924937Y-137399000D01*
X176095063Y-137399000D01*
X176121129Y-137400281D01*
X176121129Y-137400281D01*
G37*
D16*
X175510000Y-139200000D03*
D14*
G36*
X176121129Y-142800281D02*
G01*
X176146945Y-142804110D01*
X176172260Y-142810451D01*
X176196833Y-142819243D01*
X176220425Y-142830402D01*
X176242810Y-142843818D01*
X176263772Y-142859365D01*
X176283109Y-142876891D01*
X176300635Y-142896228D01*
X176316182Y-142917190D01*
X176329598Y-142939575D01*
X176340757Y-142963167D01*
X176349549Y-142987740D01*
X176355890Y-143013055D01*
X176359719Y-143038871D01*
X176361000Y-143064937D01*
X176361000Y-146135063D01*
X176359719Y-146161129D01*
X176355890Y-146186945D01*
X176349549Y-146212260D01*
X176340757Y-146236833D01*
X176329598Y-146260425D01*
X176316182Y-146282810D01*
X176300635Y-146303772D01*
X176283109Y-146323109D01*
X176263772Y-146340635D01*
X176242810Y-146356182D01*
X176220425Y-146369598D01*
X176196833Y-146380757D01*
X176172260Y-146389549D01*
X176146945Y-146395890D01*
X176121129Y-146399719D01*
X176095063Y-146401000D01*
X174924937Y-146401000D01*
X174898871Y-146399719D01*
X174873055Y-146395890D01*
X174847740Y-146389549D01*
X174823167Y-146380757D01*
X174799575Y-146369598D01*
X174777190Y-146356182D01*
X174756228Y-146340635D01*
X174736891Y-146323109D01*
X174719365Y-146303772D01*
X174703818Y-146282810D01*
X174690402Y-146260425D01*
X174679243Y-146236833D01*
X174670451Y-146212260D01*
X174664110Y-146186945D01*
X174660281Y-146161129D01*
X174659000Y-146135063D01*
X174659000Y-143064937D01*
X174660281Y-143038871D01*
X174664110Y-143013055D01*
X174670451Y-142987740D01*
X174679243Y-142963167D01*
X174690402Y-142939575D01*
X174703818Y-142917190D01*
X174719365Y-142896228D01*
X174736891Y-142876891D01*
X174756228Y-142859365D01*
X174777190Y-142843818D01*
X174799575Y-142830402D01*
X174823167Y-142819243D01*
X174847740Y-142810451D01*
X174873055Y-142804110D01*
X174898871Y-142800281D01*
X174924937Y-142799000D01*
X176095063Y-142799000D01*
X176121129Y-142800281D01*
X176121129Y-142800281D01*
G37*
D16*
X175510000Y-144600000D03*
D17*
X157790000Y-135540000D03*
X158190000Y-135540000D03*
X158590000Y-135540000D03*
X158990000Y-135540000D03*
X159390000Y-135540000D03*
X159790000Y-135540000D03*
X160190000Y-135540000D03*
X160590000Y-135540000D03*
X160990000Y-135540000D03*
X161390000Y-135540000D03*
X161790000Y-135540000D03*
X162190000Y-135540000D03*
X162590000Y-135540000D03*
X162990000Y-135540000D03*
X163390000Y-135540000D03*
X163790000Y-135540000D03*
X164190000Y-135540000D03*
X164590000Y-135540000D03*
X164990000Y-135540000D03*
X165390000Y-135540000D03*
X165790000Y-135540000D03*
X166190000Y-135540000D03*
X166590000Y-135540000D03*
X166990000Y-135540000D03*
X167390000Y-135540000D03*
D18*
X169290000Y-137440000D03*
X169290000Y-137840000D03*
X169290000Y-138240000D03*
X169290000Y-138640000D03*
X169290000Y-139040000D03*
X169290000Y-139440000D03*
X169290000Y-139840000D03*
X169290000Y-140240000D03*
X169290000Y-140640000D03*
X169290000Y-141040000D03*
X169290000Y-141440000D03*
X169290000Y-141840000D03*
X169290000Y-142240000D03*
X169290000Y-142640000D03*
X169290000Y-143040000D03*
X169290000Y-143440000D03*
X169290000Y-143840000D03*
X169290000Y-144240000D03*
X169290000Y-144640000D03*
X169290000Y-145040000D03*
X169290000Y-145440000D03*
X169290000Y-145840000D03*
X169290000Y-146240000D03*
X169290000Y-146640000D03*
X169290000Y-147040000D03*
D17*
X167390000Y-148940000D03*
X166990000Y-148940000D03*
X166590000Y-148940000D03*
X166190000Y-148940000D03*
X165790000Y-148940000D03*
X165390000Y-148940000D03*
X164990000Y-148940000D03*
X164590000Y-148940000D03*
X164190000Y-148940000D03*
X163790000Y-148940000D03*
X163390000Y-148940000D03*
X162990000Y-148940000D03*
X162590000Y-148940000D03*
X162190000Y-148940000D03*
X161790000Y-148940000D03*
X161390000Y-148940000D03*
X160990000Y-148940000D03*
X160590000Y-148940000D03*
X160190000Y-148940000D03*
X159790000Y-148940000D03*
X159390000Y-148940000D03*
X158990000Y-148940000D03*
X158590000Y-148940000D03*
X158190000Y-148940000D03*
X157790000Y-148940000D03*
D18*
X155890000Y-147040000D03*
X155890000Y-146640000D03*
X155890000Y-146240000D03*
X155890000Y-145840000D03*
X155890000Y-145440000D03*
X155890000Y-145040000D03*
X155890000Y-144640000D03*
X155890000Y-144240000D03*
X155890000Y-143840000D03*
X155890000Y-143440000D03*
X155890000Y-143040000D03*
X155890000Y-142640000D03*
X155890000Y-142240000D03*
X155890000Y-141840000D03*
X155890000Y-141440000D03*
X155890000Y-141040000D03*
X155890000Y-140640000D03*
X155890000Y-140240000D03*
X155890000Y-139840000D03*
X155890000Y-139440000D03*
X155890000Y-139040000D03*
X155890000Y-138640000D03*
X155890000Y-138240000D03*
X155890000Y-137840000D03*
X155890000Y-137440000D03*
D14*
G36*
X144382702Y-147384845D02*
G01*
X144399738Y-147387372D01*
X144416445Y-147391557D01*
X144432661Y-147397359D01*
X144448230Y-147404723D01*
X144463003Y-147413577D01*
X144476836Y-147423837D01*
X144489597Y-147435403D01*
X144501163Y-147448164D01*
X144511423Y-147461997D01*
X144520277Y-147476770D01*
X144527641Y-147492339D01*
X144533443Y-147508555D01*
X144537628Y-147525262D01*
X144540155Y-147542298D01*
X144541000Y-147559500D01*
X144541000Y-147910500D01*
X144540155Y-147927702D01*
X144537628Y-147944738D01*
X144533443Y-147961445D01*
X144527641Y-147977661D01*
X144520277Y-147993230D01*
X144511423Y-148008003D01*
X144501163Y-148021836D01*
X144489597Y-148034597D01*
X144476836Y-148046163D01*
X144463003Y-148056423D01*
X144448230Y-148065277D01*
X144432661Y-148072641D01*
X144416445Y-148078443D01*
X144399738Y-148082628D01*
X144382702Y-148085155D01*
X144365500Y-148086000D01*
X142664500Y-148086000D01*
X142647298Y-148085155D01*
X142630262Y-148082628D01*
X142613555Y-148078443D01*
X142597339Y-148072641D01*
X142581770Y-148065277D01*
X142566997Y-148056423D01*
X142553164Y-148046163D01*
X142540403Y-148034597D01*
X142528837Y-148021836D01*
X142518577Y-148008003D01*
X142509723Y-147993230D01*
X142502359Y-147977661D01*
X142496557Y-147961445D01*
X142492372Y-147944738D01*
X142489845Y-147927702D01*
X142489000Y-147910500D01*
X142489000Y-147559500D01*
X142489845Y-147542298D01*
X142492372Y-147525262D01*
X142496557Y-147508555D01*
X142502359Y-147492339D01*
X142509723Y-147476770D01*
X142518577Y-147461997D01*
X142528837Y-147448164D01*
X142540403Y-147435403D01*
X142553164Y-147423837D01*
X142566997Y-147413577D01*
X142581770Y-147404723D01*
X142597339Y-147397359D01*
X142613555Y-147391557D01*
X142630262Y-147387372D01*
X142647298Y-147384845D01*
X142664500Y-147384000D01*
X144365500Y-147384000D01*
X144382702Y-147384845D01*
X144382702Y-147384845D01*
G37*
D19*
X143515000Y-147735000D03*
D14*
G36*
X144382702Y-146114845D02*
G01*
X144399738Y-146117372D01*
X144416445Y-146121557D01*
X144432661Y-146127359D01*
X144448230Y-146134723D01*
X144463003Y-146143577D01*
X144476836Y-146153837D01*
X144489597Y-146165403D01*
X144501163Y-146178164D01*
X144511423Y-146191997D01*
X144520277Y-146206770D01*
X144527641Y-146222339D01*
X144533443Y-146238555D01*
X144537628Y-146255262D01*
X144540155Y-146272298D01*
X144541000Y-146289500D01*
X144541000Y-146640500D01*
X144540155Y-146657702D01*
X144537628Y-146674738D01*
X144533443Y-146691445D01*
X144527641Y-146707661D01*
X144520277Y-146723230D01*
X144511423Y-146738003D01*
X144501163Y-146751836D01*
X144489597Y-146764597D01*
X144476836Y-146776163D01*
X144463003Y-146786423D01*
X144448230Y-146795277D01*
X144432661Y-146802641D01*
X144416445Y-146808443D01*
X144399738Y-146812628D01*
X144382702Y-146815155D01*
X144365500Y-146816000D01*
X142664500Y-146816000D01*
X142647298Y-146815155D01*
X142630262Y-146812628D01*
X142613555Y-146808443D01*
X142597339Y-146802641D01*
X142581770Y-146795277D01*
X142566997Y-146786423D01*
X142553164Y-146776163D01*
X142540403Y-146764597D01*
X142528837Y-146751836D01*
X142518577Y-146738003D01*
X142509723Y-146723230D01*
X142502359Y-146707661D01*
X142496557Y-146691445D01*
X142492372Y-146674738D01*
X142489845Y-146657702D01*
X142489000Y-146640500D01*
X142489000Y-146289500D01*
X142489845Y-146272298D01*
X142492372Y-146255262D01*
X142496557Y-146238555D01*
X142502359Y-146222339D01*
X142509723Y-146206770D01*
X142518577Y-146191997D01*
X142528837Y-146178164D01*
X142540403Y-146165403D01*
X142553164Y-146153837D01*
X142566997Y-146143577D01*
X142581770Y-146134723D01*
X142597339Y-146127359D01*
X142613555Y-146121557D01*
X142630262Y-146117372D01*
X142647298Y-146114845D01*
X142664500Y-146114000D01*
X144365500Y-146114000D01*
X144382702Y-146114845D01*
X144382702Y-146114845D01*
G37*
D19*
X143515000Y-146465000D03*
D14*
G36*
X144382702Y-144844845D02*
G01*
X144399738Y-144847372D01*
X144416445Y-144851557D01*
X144432661Y-144857359D01*
X144448230Y-144864723D01*
X144463003Y-144873577D01*
X144476836Y-144883837D01*
X144489597Y-144895403D01*
X144501163Y-144908164D01*
X144511423Y-144921997D01*
X144520277Y-144936770D01*
X144527641Y-144952339D01*
X144533443Y-144968555D01*
X144537628Y-144985262D01*
X144540155Y-145002298D01*
X144541000Y-145019500D01*
X144541000Y-145370500D01*
X144540155Y-145387702D01*
X144537628Y-145404738D01*
X144533443Y-145421445D01*
X144527641Y-145437661D01*
X144520277Y-145453230D01*
X144511423Y-145468003D01*
X144501163Y-145481836D01*
X144489597Y-145494597D01*
X144476836Y-145506163D01*
X144463003Y-145516423D01*
X144448230Y-145525277D01*
X144432661Y-145532641D01*
X144416445Y-145538443D01*
X144399738Y-145542628D01*
X144382702Y-145545155D01*
X144365500Y-145546000D01*
X142664500Y-145546000D01*
X142647298Y-145545155D01*
X142630262Y-145542628D01*
X142613555Y-145538443D01*
X142597339Y-145532641D01*
X142581770Y-145525277D01*
X142566997Y-145516423D01*
X142553164Y-145506163D01*
X142540403Y-145494597D01*
X142528837Y-145481836D01*
X142518577Y-145468003D01*
X142509723Y-145453230D01*
X142502359Y-145437661D01*
X142496557Y-145421445D01*
X142492372Y-145404738D01*
X142489845Y-145387702D01*
X142489000Y-145370500D01*
X142489000Y-145019500D01*
X142489845Y-145002298D01*
X142492372Y-144985262D01*
X142496557Y-144968555D01*
X142502359Y-144952339D01*
X142509723Y-144936770D01*
X142518577Y-144921997D01*
X142528837Y-144908164D01*
X142540403Y-144895403D01*
X142553164Y-144883837D01*
X142566997Y-144873577D01*
X142581770Y-144864723D01*
X142597339Y-144857359D01*
X142613555Y-144851557D01*
X142630262Y-144847372D01*
X142647298Y-144844845D01*
X142664500Y-144844000D01*
X144365500Y-144844000D01*
X144382702Y-144844845D01*
X144382702Y-144844845D01*
G37*
D19*
X143515000Y-145195000D03*
D14*
G36*
X144382702Y-143574845D02*
G01*
X144399738Y-143577372D01*
X144416445Y-143581557D01*
X144432661Y-143587359D01*
X144448230Y-143594723D01*
X144463003Y-143603577D01*
X144476836Y-143613837D01*
X144489597Y-143625403D01*
X144501163Y-143638164D01*
X144511423Y-143651997D01*
X144520277Y-143666770D01*
X144527641Y-143682339D01*
X144533443Y-143698555D01*
X144537628Y-143715262D01*
X144540155Y-143732298D01*
X144541000Y-143749500D01*
X144541000Y-144100500D01*
X144540155Y-144117702D01*
X144537628Y-144134738D01*
X144533443Y-144151445D01*
X144527641Y-144167661D01*
X144520277Y-144183230D01*
X144511423Y-144198003D01*
X144501163Y-144211836D01*
X144489597Y-144224597D01*
X144476836Y-144236163D01*
X144463003Y-144246423D01*
X144448230Y-144255277D01*
X144432661Y-144262641D01*
X144416445Y-144268443D01*
X144399738Y-144272628D01*
X144382702Y-144275155D01*
X144365500Y-144276000D01*
X142664500Y-144276000D01*
X142647298Y-144275155D01*
X142630262Y-144272628D01*
X142613555Y-144268443D01*
X142597339Y-144262641D01*
X142581770Y-144255277D01*
X142566997Y-144246423D01*
X142553164Y-144236163D01*
X142540403Y-144224597D01*
X142528837Y-144211836D01*
X142518577Y-144198003D01*
X142509723Y-144183230D01*
X142502359Y-144167661D01*
X142496557Y-144151445D01*
X142492372Y-144134738D01*
X142489845Y-144117702D01*
X142489000Y-144100500D01*
X142489000Y-143749500D01*
X142489845Y-143732298D01*
X142492372Y-143715262D01*
X142496557Y-143698555D01*
X142502359Y-143682339D01*
X142509723Y-143666770D01*
X142518577Y-143651997D01*
X142528837Y-143638164D01*
X142540403Y-143625403D01*
X142553164Y-143613837D01*
X142566997Y-143603577D01*
X142581770Y-143594723D01*
X142597339Y-143587359D01*
X142613555Y-143581557D01*
X142630262Y-143577372D01*
X142647298Y-143574845D01*
X142664500Y-143574000D01*
X144365500Y-143574000D01*
X144382702Y-143574845D01*
X144382702Y-143574845D01*
G37*
D19*
X143515000Y-143925000D03*
D14*
G36*
X149332702Y-143574845D02*
G01*
X149349738Y-143577372D01*
X149366445Y-143581557D01*
X149382661Y-143587359D01*
X149398230Y-143594723D01*
X149413003Y-143603577D01*
X149426836Y-143613837D01*
X149439597Y-143625403D01*
X149451163Y-143638164D01*
X149461423Y-143651997D01*
X149470277Y-143666770D01*
X149477641Y-143682339D01*
X149483443Y-143698555D01*
X149487628Y-143715262D01*
X149490155Y-143732298D01*
X149491000Y-143749500D01*
X149491000Y-144100500D01*
X149490155Y-144117702D01*
X149487628Y-144134738D01*
X149483443Y-144151445D01*
X149477641Y-144167661D01*
X149470277Y-144183230D01*
X149461423Y-144198003D01*
X149451163Y-144211836D01*
X149439597Y-144224597D01*
X149426836Y-144236163D01*
X149413003Y-144246423D01*
X149398230Y-144255277D01*
X149382661Y-144262641D01*
X149366445Y-144268443D01*
X149349738Y-144272628D01*
X149332702Y-144275155D01*
X149315500Y-144276000D01*
X147614500Y-144276000D01*
X147597298Y-144275155D01*
X147580262Y-144272628D01*
X147563555Y-144268443D01*
X147547339Y-144262641D01*
X147531770Y-144255277D01*
X147516997Y-144246423D01*
X147503164Y-144236163D01*
X147490403Y-144224597D01*
X147478837Y-144211836D01*
X147468577Y-144198003D01*
X147459723Y-144183230D01*
X147452359Y-144167661D01*
X147446557Y-144151445D01*
X147442372Y-144134738D01*
X147439845Y-144117702D01*
X147439000Y-144100500D01*
X147439000Y-143749500D01*
X147439845Y-143732298D01*
X147442372Y-143715262D01*
X147446557Y-143698555D01*
X147452359Y-143682339D01*
X147459723Y-143666770D01*
X147468577Y-143651997D01*
X147478837Y-143638164D01*
X147490403Y-143625403D01*
X147503164Y-143613837D01*
X147516997Y-143603577D01*
X147531770Y-143594723D01*
X147547339Y-143587359D01*
X147563555Y-143581557D01*
X147580262Y-143577372D01*
X147597298Y-143574845D01*
X147614500Y-143574000D01*
X149315500Y-143574000D01*
X149332702Y-143574845D01*
X149332702Y-143574845D01*
G37*
D19*
X148465000Y-143925000D03*
D14*
G36*
X149332702Y-144844845D02*
G01*
X149349738Y-144847372D01*
X149366445Y-144851557D01*
X149382661Y-144857359D01*
X149398230Y-144864723D01*
X149413003Y-144873577D01*
X149426836Y-144883837D01*
X149439597Y-144895403D01*
X149451163Y-144908164D01*
X149461423Y-144921997D01*
X149470277Y-144936770D01*
X149477641Y-144952339D01*
X149483443Y-144968555D01*
X149487628Y-144985262D01*
X149490155Y-145002298D01*
X149491000Y-145019500D01*
X149491000Y-145370500D01*
X149490155Y-145387702D01*
X149487628Y-145404738D01*
X149483443Y-145421445D01*
X149477641Y-145437661D01*
X149470277Y-145453230D01*
X149461423Y-145468003D01*
X149451163Y-145481836D01*
X149439597Y-145494597D01*
X149426836Y-145506163D01*
X149413003Y-145516423D01*
X149398230Y-145525277D01*
X149382661Y-145532641D01*
X149366445Y-145538443D01*
X149349738Y-145542628D01*
X149332702Y-145545155D01*
X149315500Y-145546000D01*
X147614500Y-145546000D01*
X147597298Y-145545155D01*
X147580262Y-145542628D01*
X147563555Y-145538443D01*
X147547339Y-145532641D01*
X147531770Y-145525277D01*
X147516997Y-145516423D01*
X147503164Y-145506163D01*
X147490403Y-145494597D01*
X147478837Y-145481836D01*
X147468577Y-145468003D01*
X147459723Y-145453230D01*
X147452359Y-145437661D01*
X147446557Y-145421445D01*
X147442372Y-145404738D01*
X147439845Y-145387702D01*
X147439000Y-145370500D01*
X147439000Y-145019500D01*
X147439845Y-145002298D01*
X147442372Y-144985262D01*
X147446557Y-144968555D01*
X147452359Y-144952339D01*
X147459723Y-144936770D01*
X147468577Y-144921997D01*
X147478837Y-144908164D01*
X147490403Y-144895403D01*
X147503164Y-144883837D01*
X147516997Y-144873577D01*
X147531770Y-144864723D01*
X147547339Y-144857359D01*
X147563555Y-144851557D01*
X147580262Y-144847372D01*
X147597298Y-144844845D01*
X147614500Y-144844000D01*
X149315500Y-144844000D01*
X149332702Y-144844845D01*
X149332702Y-144844845D01*
G37*
D19*
X148465000Y-145195000D03*
D14*
G36*
X149332702Y-146114845D02*
G01*
X149349738Y-146117372D01*
X149366445Y-146121557D01*
X149382661Y-146127359D01*
X149398230Y-146134723D01*
X149413003Y-146143577D01*
X149426836Y-146153837D01*
X149439597Y-146165403D01*
X149451163Y-146178164D01*
X149461423Y-146191997D01*
X149470277Y-146206770D01*
X149477641Y-146222339D01*
X149483443Y-146238555D01*
X149487628Y-146255262D01*
X149490155Y-146272298D01*
X149491000Y-146289500D01*
X149491000Y-146640500D01*
X149490155Y-146657702D01*
X149487628Y-146674738D01*
X149483443Y-146691445D01*
X149477641Y-146707661D01*
X149470277Y-146723230D01*
X149461423Y-146738003D01*
X149451163Y-146751836D01*
X149439597Y-146764597D01*
X149426836Y-146776163D01*
X149413003Y-146786423D01*
X149398230Y-146795277D01*
X149382661Y-146802641D01*
X149366445Y-146808443D01*
X149349738Y-146812628D01*
X149332702Y-146815155D01*
X149315500Y-146816000D01*
X147614500Y-146816000D01*
X147597298Y-146815155D01*
X147580262Y-146812628D01*
X147563555Y-146808443D01*
X147547339Y-146802641D01*
X147531770Y-146795277D01*
X147516997Y-146786423D01*
X147503164Y-146776163D01*
X147490403Y-146764597D01*
X147478837Y-146751836D01*
X147468577Y-146738003D01*
X147459723Y-146723230D01*
X147452359Y-146707661D01*
X147446557Y-146691445D01*
X147442372Y-146674738D01*
X147439845Y-146657702D01*
X147439000Y-146640500D01*
X147439000Y-146289500D01*
X147439845Y-146272298D01*
X147442372Y-146255262D01*
X147446557Y-146238555D01*
X147452359Y-146222339D01*
X147459723Y-146206770D01*
X147468577Y-146191997D01*
X147478837Y-146178164D01*
X147490403Y-146165403D01*
X147503164Y-146153837D01*
X147516997Y-146143577D01*
X147531770Y-146134723D01*
X147547339Y-146127359D01*
X147563555Y-146121557D01*
X147580262Y-146117372D01*
X147597298Y-146114845D01*
X147614500Y-146114000D01*
X149315500Y-146114000D01*
X149332702Y-146114845D01*
X149332702Y-146114845D01*
G37*
D19*
X148465000Y-146465000D03*
D14*
G36*
X149332702Y-147384845D02*
G01*
X149349738Y-147387372D01*
X149366445Y-147391557D01*
X149382661Y-147397359D01*
X149398230Y-147404723D01*
X149413003Y-147413577D01*
X149426836Y-147423837D01*
X149439597Y-147435403D01*
X149451163Y-147448164D01*
X149461423Y-147461997D01*
X149470277Y-147476770D01*
X149477641Y-147492339D01*
X149483443Y-147508555D01*
X149487628Y-147525262D01*
X149490155Y-147542298D01*
X149491000Y-147559500D01*
X149491000Y-147910500D01*
X149490155Y-147927702D01*
X149487628Y-147944738D01*
X149483443Y-147961445D01*
X149477641Y-147977661D01*
X149470277Y-147993230D01*
X149461423Y-148008003D01*
X149451163Y-148021836D01*
X149439597Y-148034597D01*
X149426836Y-148046163D01*
X149413003Y-148056423D01*
X149398230Y-148065277D01*
X149382661Y-148072641D01*
X149366445Y-148078443D01*
X149349738Y-148082628D01*
X149332702Y-148085155D01*
X149315500Y-148086000D01*
X147614500Y-148086000D01*
X147597298Y-148085155D01*
X147580262Y-148082628D01*
X147563555Y-148078443D01*
X147547339Y-148072641D01*
X147531770Y-148065277D01*
X147516997Y-148056423D01*
X147503164Y-148046163D01*
X147490403Y-148034597D01*
X147478837Y-148021836D01*
X147468577Y-148008003D01*
X147459723Y-147993230D01*
X147452359Y-147977661D01*
X147446557Y-147961445D01*
X147442372Y-147944738D01*
X147439845Y-147927702D01*
X147439000Y-147910500D01*
X147439000Y-147559500D01*
X147439845Y-147542298D01*
X147442372Y-147525262D01*
X147446557Y-147508555D01*
X147452359Y-147492339D01*
X147459723Y-147476770D01*
X147468577Y-147461997D01*
X147478837Y-147448164D01*
X147490403Y-147435403D01*
X147503164Y-147423837D01*
X147516997Y-147413577D01*
X147531770Y-147404723D01*
X147547339Y-147397359D01*
X147563555Y-147391557D01*
X147580262Y-147387372D01*
X147597298Y-147384845D01*
X147614500Y-147384000D01*
X149315500Y-147384000D01*
X149332702Y-147384845D01*
X149332702Y-147384845D01*
G37*
D19*
X148465000Y-147735000D03*
D14*
G36*
X151415691Y-144978176D02*
G01*
X151439401Y-144981693D01*
X151462652Y-144987517D01*
X151485220Y-144995592D01*
X151506889Y-145005841D01*
X151527448Y-145018164D01*
X151546701Y-145032442D01*
X151564461Y-145048539D01*
X151580558Y-145066299D01*
X151594836Y-145085552D01*
X151607159Y-145106111D01*
X151617408Y-145127780D01*
X151625483Y-145150348D01*
X151631307Y-145173599D01*
X151634824Y-145197309D01*
X151636000Y-145221250D01*
X151636000Y-145709750D01*
X151634824Y-145733691D01*
X151631307Y-145757401D01*
X151625483Y-145780652D01*
X151617408Y-145803220D01*
X151607159Y-145824889D01*
X151594836Y-145845448D01*
X151580558Y-145864701D01*
X151564461Y-145882461D01*
X151546701Y-145898558D01*
X151527448Y-145912836D01*
X151506889Y-145925159D01*
X151485220Y-145935408D01*
X151462652Y-145943483D01*
X151439401Y-145949307D01*
X151415691Y-145952824D01*
X151391750Y-145954000D01*
X150828250Y-145954000D01*
X150804309Y-145952824D01*
X150780599Y-145949307D01*
X150757348Y-145943483D01*
X150734780Y-145935408D01*
X150713111Y-145925159D01*
X150692552Y-145912836D01*
X150673299Y-145898558D01*
X150655539Y-145882461D01*
X150639442Y-145864701D01*
X150625164Y-145845448D01*
X150612841Y-145824889D01*
X150602592Y-145803220D01*
X150594517Y-145780652D01*
X150588693Y-145757401D01*
X150585176Y-145733691D01*
X150584000Y-145709750D01*
X150584000Y-145221250D01*
X150585176Y-145197309D01*
X150588693Y-145173599D01*
X150594517Y-145150348D01*
X150602592Y-145127780D01*
X150612841Y-145106111D01*
X150625164Y-145085552D01*
X150639442Y-145066299D01*
X150655539Y-145048539D01*
X150673299Y-145032442D01*
X150692552Y-145018164D01*
X150713111Y-145005841D01*
X150734780Y-144995592D01*
X150757348Y-144987517D01*
X150780599Y-144981693D01*
X150804309Y-144978176D01*
X150828250Y-144977000D01*
X151391750Y-144977000D01*
X151415691Y-144978176D01*
X151415691Y-144978176D01*
G37*
D20*
X151110000Y-145465500D03*
D14*
G36*
X151415691Y-143403176D02*
G01*
X151439401Y-143406693D01*
X151462652Y-143412517D01*
X151485220Y-143420592D01*
X151506889Y-143430841D01*
X151527448Y-143443164D01*
X151546701Y-143457442D01*
X151564461Y-143473539D01*
X151580558Y-143491299D01*
X151594836Y-143510552D01*
X151607159Y-143531111D01*
X151617408Y-143552780D01*
X151625483Y-143575348D01*
X151631307Y-143598599D01*
X151634824Y-143622309D01*
X151636000Y-143646250D01*
X151636000Y-144134750D01*
X151634824Y-144158691D01*
X151631307Y-144182401D01*
X151625483Y-144205652D01*
X151617408Y-144228220D01*
X151607159Y-144249889D01*
X151594836Y-144270448D01*
X151580558Y-144289701D01*
X151564461Y-144307461D01*
X151546701Y-144323558D01*
X151527448Y-144337836D01*
X151506889Y-144350159D01*
X151485220Y-144360408D01*
X151462652Y-144368483D01*
X151439401Y-144374307D01*
X151415691Y-144377824D01*
X151391750Y-144379000D01*
X150828250Y-144379000D01*
X150804309Y-144377824D01*
X150780599Y-144374307D01*
X150757348Y-144368483D01*
X150734780Y-144360408D01*
X150713111Y-144350159D01*
X150692552Y-144337836D01*
X150673299Y-144323558D01*
X150655539Y-144307461D01*
X150639442Y-144289701D01*
X150625164Y-144270448D01*
X150612841Y-144249889D01*
X150602592Y-144228220D01*
X150594517Y-144205652D01*
X150588693Y-144182401D01*
X150585176Y-144158691D01*
X150584000Y-144134750D01*
X150584000Y-143646250D01*
X150585176Y-143622309D01*
X150588693Y-143598599D01*
X150594517Y-143575348D01*
X150602592Y-143552780D01*
X150612841Y-143531111D01*
X150625164Y-143510552D01*
X150639442Y-143491299D01*
X150655539Y-143473539D01*
X150673299Y-143457442D01*
X150692552Y-143443164D01*
X150713111Y-143430841D01*
X150734780Y-143420592D01*
X150757348Y-143412517D01*
X150780599Y-143406693D01*
X150804309Y-143403176D01*
X150828250Y-143402000D01*
X151391750Y-143402000D01*
X151415691Y-143403176D01*
X151415691Y-143403176D01*
G37*
D20*
X151110000Y-143890500D03*
D14*
G36*
X139602691Y-143325176D02*
G01*
X139626401Y-143328693D01*
X139649652Y-143334517D01*
X139672220Y-143342592D01*
X139693889Y-143352841D01*
X139714448Y-143365164D01*
X139733701Y-143379442D01*
X139751461Y-143395539D01*
X139767558Y-143413299D01*
X139781836Y-143432552D01*
X139794159Y-143453111D01*
X139804408Y-143474780D01*
X139812483Y-143497348D01*
X139818307Y-143520599D01*
X139821824Y-143544309D01*
X139823000Y-143568250D01*
X139823000Y-144131750D01*
X139821824Y-144155691D01*
X139818307Y-144179401D01*
X139812483Y-144202652D01*
X139804408Y-144225220D01*
X139794159Y-144246889D01*
X139781836Y-144267448D01*
X139767558Y-144286701D01*
X139751461Y-144304461D01*
X139733701Y-144320558D01*
X139714448Y-144334836D01*
X139693889Y-144347159D01*
X139672220Y-144357408D01*
X139649652Y-144365483D01*
X139626401Y-144371307D01*
X139602691Y-144374824D01*
X139578750Y-144376000D01*
X139090250Y-144376000D01*
X139066309Y-144374824D01*
X139042599Y-144371307D01*
X139019348Y-144365483D01*
X138996780Y-144357408D01*
X138975111Y-144347159D01*
X138954552Y-144334836D01*
X138935299Y-144320558D01*
X138917539Y-144304461D01*
X138901442Y-144286701D01*
X138887164Y-144267448D01*
X138874841Y-144246889D01*
X138864592Y-144225220D01*
X138856517Y-144202652D01*
X138850693Y-144179401D01*
X138847176Y-144155691D01*
X138846000Y-144131750D01*
X138846000Y-143568250D01*
X138847176Y-143544309D01*
X138850693Y-143520599D01*
X138856517Y-143497348D01*
X138864592Y-143474780D01*
X138874841Y-143453111D01*
X138887164Y-143432552D01*
X138901442Y-143413299D01*
X138917539Y-143395539D01*
X138935299Y-143379442D01*
X138954552Y-143365164D01*
X138975111Y-143352841D01*
X138996780Y-143342592D01*
X139019348Y-143334517D01*
X139042599Y-143328693D01*
X139066309Y-143325176D01*
X139090250Y-143324000D01*
X139578750Y-143324000D01*
X139602691Y-143325176D01*
X139602691Y-143325176D01*
G37*
D20*
X139334500Y-143850000D03*
D14*
G36*
X141177691Y-143325176D02*
G01*
X141201401Y-143328693D01*
X141224652Y-143334517D01*
X141247220Y-143342592D01*
X141268889Y-143352841D01*
X141289448Y-143365164D01*
X141308701Y-143379442D01*
X141326461Y-143395539D01*
X141342558Y-143413299D01*
X141356836Y-143432552D01*
X141369159Y-143453111D01*
X141379408Y-143474780D01*
X141387483Y-143497348D01*
X141393307Y-143520599D01*
X141396824Y-143544309D01*
X141398000Y-143568250D01*
X141398000Y-144131750D01*
X141396824Y-144155691D01*
X141393307Y-144179401D01*
X141387483Y-144202652D01*
X141379408Y-144225220D01*
X141369159Y-144246889D01*
X141356836Y-144267448D01*
X141342558Y-144286701D01*
X141326461Y-144304461D01*
X141308701Y-144320558D01*
X141289448Y-144334836D01*
X141268889Y-144347159D01*
X141247220Y-144357408D01*
X141224652Y-144365483D01*
X141201401Y-144371307D01*
X141177691Y-144374824D01*
X141153750Y-144376000D01*
X140665250Y-144376000D01*
X140641309Y-144374824D01*
X140617599Y-144371307D01*
X140594348Y-144365483D01*
X140571780Y-144357408D01*
X140550111Y-144347159D01*
X140529552Y-144334836D01*
X140510299Y-144320558D01*
X140492539Y-144304461D01*
X140476442Y-144286701D01*
X140462164Y-144267448D01*
X140449841Y-144246889D01*
X140439592Y-144225220D01*
X140431517Y-144202652D01*
X140425693Y-144179401D01*
X140422176Y-144155691D01*
X140421000Y-144131750D01*
X140421000Y-143568250D01*
X140422176Y-143544309D01*
X140425693Y-143520599D01*
X140431517Y-143497348D01*
X140439592Y-143474780D01*
X140449841Y-143453111D01*
X140462164Y-143432552D01*
X140476442Y-143413299D01*
X140492539Y-143395539D01*
X140510299Y-143379442D01*
X140529552Y-143365164D01*
X140550111Y-143352841D01*
X140571780Y-143342592D01*
X140594348Y-143334517D01*
X140617599Y-143328693D01*
X140641309Y-143325176D01*
X140665250Y-143324000D01*
X141153750Y-143324000D01*
X141177691Y-143325176D01*
X141177691Y-143325176D01*
G37*
D20*
X140909500Y-143850000D03*
D14*
G36*
X139588691Y-145045176D02*
G01*
X139612401Y-145048693D01*
X139635652Y-145054517D01*
X139658220Y-145062592D01*
X139679889Y-145072841D01*
X139700448Y-145085164D01*
X139719701Y-145099442D01*
X139737461Y-145115539D01*
X139753558Y-145133299D01*
X139767836Y-145152552D01*
X139780159Y-145173111D01*
X139790408Y-145194780D01*
X139798483Y-145217348D01*
X139804307Y-145240599D01*
X139807824Y-145264309D01*
X139809000Y-145288250D01*
X139809000Y-145851750D01*
X139807824Y-145875691D01*
X139804307Y-145899401D01*
X139798483Y-145922652D01*
X139790408Y-145945220D01*
X139780159Y-145966889D01*
X139767836Y-145987448D01*
X139753558Y-146006701D01*
X139737461Y-146024461D01*
X139719701Y-146040558D01*
X139700448Y-146054836D01*
X139679889Y-146067159D01*
X139658220Y-146077408D01*
X139635652Y-146085483D01*
X139612401Y-146091307D01*
X139588691Y-146094824D01*
X139564750Y-146096000D01*
X139076250Y-146096000D01*
X139052309Y-146094824D01*
X139028599Y-146091307D01*
X139005348Y-146085483D01*
X138982780Y-146077408D01*
X138961111Y-146067159D01*
X138940552Y-146054836D01*
X138921299Y-146040558D01*
X138903539Y-146024461D01*
X138887442Y-146006701D01*
X138873164Y-145987448D01*
X138860841Y-145966889D01*
X138850592Y-145945220D01*
X138842517Y-145922652D01*
X138836693Y-145899401D01*
X138833176Y-145875691D01*
X138832000Y-145851750D01*
X138832000Y-145288250D01*
X138833176Y-145264309D01*
X138836693Y-145240599D01*
X138842517Y-145217348D01*
X138850592Y-145194780D01*
X138860841Y-145173111D01*
X138873164Y-145152552D01*
X138887442Y-145133299D01*
X138903539Y-145115539D01*
X138921299Y-145099442D01*
X138940552Y-145085164D01*
X138961111Y-145072841D01*
X138982780Y-145062592D01*
X139005348Y-145054517D01*
X139028599Y-145048693D01*
X139052309Y-145045176D01*
X139076250Y-145044000D01*
X139564750Y-145044000D01*
X139588691Y-145045176D01*
X139588691Y-145045176D01*
G37*
D20*
X139320500Y-145570000D03*
D14*
G36*
X141163691Y-145045176D02*
G01*
X141187401Y-145048693D01*
X141210652Y-145054517D01*
X141233220Y-145062592D01*
X141254889Y-145072841D01*
X141275448Y-145085164D01*
X141294701Y-145099442D01*
X141312461Y-145115539D01*
X141328558Y-145133299D01*
X141342836Y-145152552D01*
X141355159Y-145173111D01*
X141365408Y-145194780D01*
X141373483Y-145217348D01*
X141379307Y-145240599D01*
X141382824Y-145264309D01*
X141384000Y-145288250D01*
X141384000Y-145851750D01*
X141382824Y-145875691D01*
X141379307Y-145899401D01*
X141373483Y-145922652D01*
X141365408Y-145945220D01*
X141355159Y-145966889D01*
X141342836Y-145987448D01*
X141328558Y-146006701D01*
X141312461Y-146024461D01*
X141294701Y-146040558D01*
X141275448Y-146054836D01*
X141254889Y-146067159D01*
X141233220Y-146077408D01*
X141210652Y-146085483D01*
X141187401Y-146091307D01*
X141163691Y-146094824D01*
X141139750Y-146096000D01*
X140651250Y-146096000D01*
X140627309Y-146094824D01*
X140603599Y-146091307D01*
X140580348Y-146085483D01*
X140557780Y-146077408D01*
X140536111Y-146067159D01*
X140515552Y-146054836D01*
X140496299Y-146040558D01*
X140478539Y-146024461D01*
X140462442Y-146006701D01*
X140448164Y-145987448D01*
X140435841Y-145966889D01*
X140425592Y-145945220D01*
X140417517Y-145922652D01*
X140411693Y-145899401D01*
X140408176Y-145875691D01*
X140407000Y-145851750D01*
X140407000Y-145288250D01*
X140408176Y-145264309D01*
X140411693Y-145240599D01*
X140417517Y-145217348D01*
X140425592Y-145194780D01*
X140435841Y-145173111D01*
X140448164Y-145152552D01*
X140462442Y-145133299D01*
X140478539Y-145115539D01*
X140496299Y-145099442D01*
X140515552Y-145085164D01*
X140536111Y-145072841D01*
X140557780Y-145062592D01*
X140580348Y-145054517D01*
X140603599Y-145048693D01*
X140627309Y-145045176D01*
X140651250Y-145044000D01*
X141139750Y-145044000D01*
X141163691Y-145045176D01*
X141163691Y-145045176D01*
G37*
D20*
X140895500Y-145570000D03*
D21*
X180300000Y-153000000D03*
X182840000Y-153000000D03*
X185380000Y-153000000D03*
X187920000Y-153000000D03*
X190460000Y-153000000D03*
D22*
X193000000Y-153000000D03*
D23*
X134250000Y-141180000D03*
X134250000Y-141830000D03*
X134250000Y-142480000D03*
X134250000Y-143130000D03*
X134250000Y-143780000D03*
D24*
X131550000Y-138980000D03*
X131550000Y-145980000D03*
D25*
X134250000Y-139980000D03*
X134250000Y-144980000D03*
D14*
G36*
X163765691Y-131365176D02*
G01*
X163789401Y-131368693D01*
X163812652Y-131374517D01*
X163835220Y-131382592D01*
X163856889Y-131392841D01*
X163877448Y-131405164D01*
X163896701Y-131419442D01*
X163914461Y-131435539D01*
X163930558Y-131453299D01*
X163944836Y-131472552D01*
X163957159Y-131493111D01*
X163967408Y-131514780D01*
X163975483Y-131537348D01*
X163981307Y-131560599D01*
X163984824Y-131584309D01*
X163986000Y-131608250D01*
X163986000Y-132171750D01*
X163984824Y-132195691D01*
X163981307Y-132219401D01*
X163975483Y-132242652D01*
X163967408Y-132265220D01*
X163957159Y-132286889D01*
X163944836Y-132307448D01*
X163930558Y-132326701D01*
X163914461Y-132344461D01*
X163896701Y-132360558D01*
X163877448Y-132374836D01*
X163856889Y-132387159D01*
X163835220Y-132397408D01*
X163812652Y-132405483D01*
X163789401Y-132411307D01*
X163765691Y-132414824D01*
X163741750Y-132416000D01*
X163253250Y-132416000D01*
X163229309Y-132414824D01*
X163205599Y-132411307D01*
X163182348Y-132405483D01*
X163159780Y-132397408D01*
X163138111Y-132387159D01*
X163117552Y-132374836D01*
X163098299Y-132360558D01*
X163080539Y-132344461D01*
X163064442Y-132326701D01*
X163050164Y-132307448D01*
X163037841Y-132286889D01*
X163027592Y-132265220D01*
X163019517Y-132242652D01*
X163013693Y-132219401D01*
X163010176Y-132195691D01*
X163009000Y-132171750D01*
X163009000Y-131608250D01*
X163010176Y-131584309D01*
X163013693Y-131560599D01*
X163019517Y-131537348D01*
X163027592Y-131514780D01*
X163037841Y-131493111D01*
X163050164Y-131472552D01*
X163064442Y-131453299D01*
X163080539Y-131435539D01*
X163098299Y-131419442D01*
X163117552Y-131405164D01*
X163138111Y-131392841D01*
X163159780Y-131382592D01*
X163182348Y-131374517D01*
X163205599Y-131368693D01*
X163229309Y-131365176D01*
X163253250Y-131364000D01*
X163741750Y-131364000D01*
X163765691Y-131365176D01*
X163765691Y-131365176D01*
G37*
D20*
X163497500Y-131890000D03*
D14*
G36*
X162190691Y-131365176D02*
G01*
X162214401Y-131368693D01*
X162237652Y-131374517D01*
X162260220Y-131382592D01*
X162281889Y-131392841D01*
X162302448Y-131405164D01*
X162321701Y-131419442D01*
X162339461Y-131435539D01*
X162355558Y-131453299D01*
X162369836Y-131472552D01*
X162382159Y-131493111D01*
X162392408Y-131514780D01*
X162400483Y-131537348D01*
X162406307Y-131560599D01*
X162409824Y-131584309D01*
X162411000Y-131608250D01*
X162411000Y-132171750D01*
X162409824Y-132195691D01*
X162406307Y-132219401D01*
X162400483Y-132242652D01*
X162392408Y-132265220D01*
X162382159Y-132286889D01*
X162369836Y-132307448D01*
X162355558Y-132326701D01*
X162339461Y-132344461D01*
X162321701Y-132360558D01*
X162302448Y-132374836D01*
X162281889Y-132387159D01*
X162260220Y-132397408D01*
X162237652Y-132405483D01*
X162214401Y-132411307D01*
X162190691Y-132414824D01*
X162166750Y-132416000D01*
X161678250Y-132416000D01*
X161654309Y-132414824D01*
X161630599Y-132411307D01*
X161607348Y-132405483D01*
X161584780Y-132397408D01*
X161563111Y-132387159D01*
X161542552Y-132374836D01*
X161523299Y-132360558D01*
X161505539Y-132344461D01*
X161489442Y-132326701D01*
X161475164Y-132307448D01*
X161462841Y-132286889D01*
X161452592Y-132265220D01*
X161444517Y-132242652D01*
X161438693Y-132219401D01*
X161435176Y-132195691D01*
X161434000Y-132171750D01*
X161434000Y-131608250D01*
X161435176Y-131584309D01*
X161438693Y-131560599D01*
X161444517Y-131537348D01*
X161452592Y-131514780D01*
X161462841Y-131493111D01*
X161475164Y-131472552D01*
X161489442Y-131453299D01*
X161505539Y-131435539D01*
X161523299Y-131419442D01*
X161542552Y-131405164D01*
X161563111Y-131392841D01*
X161584780Y-131382592D01*
X161607348Y-131374517D01*
X161630599Y-131368693D01*
X161654309Y-131365176D01*
X161678250Y-131364000D01*
X162166750Y-131364000D01*
X162190691Y-131365176D01*
X162190691Y-131365176D01*
G37*
D20*
X161922500Y-131890000D03*
D14*
G36*
X165312691Y-131375176D02*
G01*
X165336401Y-131378693D01*
X165359652Y-131384517D01*
X165382220Y-131392592D01*
X165403889Y-131402841D01*
X165424448Y-131415164D01*
X165443701Y-131429442D01*
X165461461Y-131445539D01*
X165477558Y-131463299D01*
X165491836Y-131482552D01*
X165504159Y-131503111D01*
X165514408Y-131524780D01*
X165522483Y-131547348D01*
X165528307Y-131570599D01*
X165531824Y-131594309D01*
X165533000Y-131618250D01*
X165533000Y-132181750D01*
X165531824Y-132205691D01*
X165528307Y-132229401D01*
X165522483Y-132252652D01*
X165514408Y-132275220D01*
X165504159Y-132296889D01*
X165491836Y-132317448D01*
X165477558Y-132336701D01*
X165461461Y-132354461D01*
X165443701Y-132370558D01*
X165424448Y-132384836D01*
X165403889Y-132397159D01*
X165382220Y-132407408D01*
X165359652Y-132415483D01*
X165336401Y-132421307D01*
X165312691Y-132424824D01*
X165288750Y-132426000D01*
X164800250Y-132426000D01*
X164776309Y-132424824D01*
X164752599Y-132421307D01*
X164729348Y-132415483D01*
X164706780Y-132407408D01*
X164685111Y-132397159D01*
X164664552Y-132384836D01*
X164645299Y-132370558D01*
X164627539Y-132354461D01*
X164611442Y-132336701D01*
X164597164Y-132317448D01*
X164584841Y-132296889D01*
X164574592Y-132275220D01*
X164566517Y-132252652D01*
X164560693Y-132229401D01*
X164557176Y-132205691D01*
X164556000Y-132181750D01*
X164556000Y-131618250D01*
X164557176Y-131594309D01*
X164560693Y-131570599D01*
X164566517Y-131547348D01*
X164574592Y-131524780D01*
X164584841Y-131503111D01*
X164597164Y-131482552D01*
X164611442Y-131463299D01*
X164627539Y-131445539D01*
X164645299Y-131429442D01*
X164664552Y-131415164D01*
X164685111Y-131402841D01*
X164706780Y-131392592D01*
X164729348Y-131384517D01*
X164752599Y-131378693D01*
X164776309Y-131375176D01*
X164800250Y-131374000D01*
X165288750Y-131374000D01*
X165312691Y-131375176D01*
X165312691Y-131375176D01*
G37*
D20*
X165044500Y-131900000D03*
D14*
G36*
X166887691Y-131375176D02*
G01*
X166911401Y-131378693D01*
X166934652Y-131384517D01*
X166957220Y-131392592D01*
X166978889Y-131402841D01*
X166999448Y-131415164D01*
X167018701Y-131429442D01*
X167036461Y-131445539D01*
X167052558Y-131463299D01*
X167066836Y-131482552D01*
X167079159Y-131503111D01*
X167089408Y-131524780D01*
X167097483Y-131547348D01*
X167103307Y-131570599D01*
X167106824Y-131594309D01*
X167108000Y-131618250D01*
X167108000Y-132181750D01*
X167106824Y-132205691D01*
X167103307Y-132229401D01*
X167097483Y-132252652D01*
X167089408Y-132275220D01*
X167079159Y-132296889D01*
X167066836Y-132317448D01*
X167052558Y-132336701D01*
X167036461Y-132354461D01*
X167018701Y-132370558D01*
X166999448Y-132384836D01*
X166978889Y-132397159D01*
X166957220Y-132407408D01*
X166934652Y-132415483D01*
X166911401Y-132421307D01*
X166887691Y-132424824D01*
X166863750Y-132426000D01*
X166375250Y-132426000D01*
X166351309Y-132424824D01*
X166327599Y-132421307D01*
X166304348Y-132415483D01*
X166281780Y-132407408D01*
X166260111Y-132397159D01*
X166239552Y-132384836D01*
X166220299Y-132370558D01*
X166202539Y-132354461D01*
X166186442Y-132336701D01*
X166172164Y-132317448D01*
X166159841Y-132296889D01*
X166149592Y-132275220D01*
X166141517Y-132252652D01*
X166135693Y-132229401D01*
X166132176Y-132205691D01*
X166131000Y-132181750D01*
X166131000Y-131618250D01*
X166132176Y-131594309D01*
X166135693Y-131570599D01*
X166141517Y-131547348D01*
X166149592Y-131524780D01*
X166159841Y-131503111D01*
X166172164Y-131482552D01*
X166186442Y-131463299D01*
X166202539Y-131445539D01*
X166220299Y-131429442D01*
X166239552Y-131415164D01*
X166260111Y-131402841D01*
X166281780Y-131392592D01*
X166304348Y-131384517D01*
X166327599Y-131378693D01*
X166351309Y-131375176D01*
X166375250Y-131374000D01*
X166863750Y-131374000D01*
X166887691Y-131375176D01*
X166887691Y-131375176D01*
G37*
D20*
X166619500Y-131900000D03*
D14*
G36*
X168760691Y-131405176D02*
G01*
X168784401Y-131408693D01*
X168807652Y-131414517D01*
X168830220Y-131422592D01*
X168851889Y-131432841D01*
X168872448Y-131445164D01*
X168891701Y-131459442D01*
X168909461Y-131475539D01*
X168925558Y-131493299D01*
X168939836Y-131512552D01*
X168952159Y-131533111D01*
X168962408Y-131554780D01*
X168970483Y-131577348D01*
X168976307Y-131600599D01*
X168979824Y-131624309D01*
X168981000Y-131648250D01*
X168981000Y-132211750D01*
X168979824Y-132235691D01*
X168976307Y-132259401D01*
X168970483Y-132282652D01*
X168962408Y-132305220D01*
X168952159Y-132326889D01*
X168939836Y-132347448D01*
X168925558Y-132366701D01*
X168909461Y-132384461D01*
X168891701Y-132400558D01*
X168872448Y-132414836D01*
X168851889Y-132427159D01*
X168830220Y-132437408D01*
X168807652Y-132445483D01*
X168784401Y-132451307D01*
X168760691Y-132454824D01*
X168736750Y-132456000D01*
X168248250Y-132456000D01*
X168224309Y-132454824D01*
X168200599Y-132451307D01*
X168177348Y-132445483D01*
X168154780Y-132437408D01*
X168133111Y-132427159D01*
X168112552Y-132414836D01*
X168093299Y-132400558D01*
X168075539Y-132384461D01*
X168059442Y-132366701D01*
X168045164Y-132347448D01*
X168032841Y-132326889D01*
X168022592Y-132305220D01*
X168014517Y-132282652D01*
X168008693Y-132259401D01*
X168005176Y-132235691D01*
X168004000Y-132211750D01*
X168004000Y-131648250D01*
X168005176Y-131624309D01*
X168008693Y-131600599D01*
X168014517Y-131577348D01*
X168022592Y-131554780D01*
X168032841Y-131533111D01*
X168045164Y-131512552D01*
X168059442Y-131493299D01*
X168075539Y-131475539D01*
X168093299Y-131459442D01*
X168112552Y-131445164D01*
X168133111Y-131432841D01*
X168154780Y-131422592D01*
X168177348Y-131414517D01*
X168200599Y-131408693D01*
X168224309Y-131405176D01*
X168248250Y-131404000D01*
X168736750Y-131404000D01*
X168760691Y-131405176D01*
X168760691Y-131405176D01*
G37*
D20*
X168492500Y-131930000D03*
D14*
G36*
X170335691Y-131405176D02*
G01*
X170359401Y-131408693D01*
X170382652Y-131414517D01*
X170405220Y-131422592D01*
X170426889Y-131432841D01*
X170447448Y-131445164D01*
X170466701Y-131459442D01*
X170484461Y-131475539D01*
X170500558Y-131493299D01*
X170514836Y-131512552D01*
X170527159Y-131533111D01*
X170537408Y-131554780D01*
X170545483Y-131577348D01*
X170551307Y-131600599D01*
X170554824Y-131624309D01*
X170556000Y-131648250D01*
X170556000Y-132211750D01*
X170554824Y-132235691D01*
X170551307Y-132259401D01*
X170545483Y-132282652D01*
X170537408Y-132305220D01*
X170527159Y-132326889D01*
X170514836Y-132347448D01*
X170500558Y-132366701D01*
X170484461Y-132384461D01*
X170466701Y-132400558D01*
X170447448Y-132414836D01*
X170426889Y-132427159D01*
X170405220Y-132437408D01*
X170382652Y-132445483D01*
X170359401Y-132451307D01*
X170335691Y-132454824D01*
X170311750Y-132456000D01*
X169823250Y-132456000D01*
X169799309Y-132454824D01*
X169775599Y-132451307D01*
X169752348Y-132445483D01*
X169729780Y-132437408D01*
X169708111Y-132427159D01*
X169687552Y-132414836D01*
X169668299Y-132400558D01*
X169650539Y-132384461D01*
X169634442Y-132366701D01*
X169620164Y-132347448D01*
X169607841Y-132326889D01*
X169597592Y-132305220D01*
X169589517Y-132282652D01*
X169583693Y-132259401D01*
X169580176Y-132235691D01*
X169579000Y-132211750D01*
X169579000Y-131648250D01*
X169580176Y-131624309D01*
X169583693Y-131600599D01*
X169589517Y-131577348D01*
X169597592Y-131554780D01*
X169607841Y-131533111D01*
X169620164Y-131512552D01*
X169634442Y-131493299D01*
X169650539Y-131475539D01*
X169668299Y-131459442D01*
X169687552Y-131445164D01*
X169708111Y-131432841D01*
X169729780Y-131422592D01*
X169752348Y-131414517D01*
X169775599Y-131408693D01*
X169799309Y-131405176D01*
X169823250Y-131404000D01*
X170311750Y-131404000D01*
X170335691Y-131405176D01*
X170335691Y-131405176D01*
G37*
D20*
X170067500Y-131930000D03*
D14*
G36*
X148822691Y-140005176D02*
G01*
X148846401Y-140008693D01*
X148869652Y-140014517D01*
X148892220Y-140022592D01*
X148913889Y-140032841D01*
X148934448Y-140045164D01*
X148953701Y-140059442D01*
X148971461Y-140075539D01*
X148987558Y-140093299D01*
X149001836Y-140112552D01*
X149014159Y-140133111D01*
X149024408Y-140154780D01*
X149032483Y-140177348D01*
X149038307Y-140200599D01*
X149041824Y-140224309D01*
X149043000Y-140248250D01*
X149043000Y-140811750D01*
X149041824Y-140835691D01*
X149038307Y-140859401D01*
X149032483Y-140882652D01*
X149024408Y-140905220D01*
X149014159Y-140926889D01*
X149001836Y-140947448D01*
X148987558Y-140966701D01*
X148971461Y-140984461D01*
X148953701Y-141000558D01*
X148934448Y-141014836D01*
X148913889Y-141027159D01*
X148892220Y-141037408D01*
X148869652Y-141045483D01*
X148846401Y-141051307D01*
X148822691Y-141054824D01*
X148798750Y-141056000D01*
X148310250Y-141056000D01*
X148286309Y-141054824D01*
X148262599Y-141051307D01*
X148239348Y-141045483D01*
X148216780Y-141037408D01*
X148195111Y-141027159D01*
X148174552Y-141014836D01*
X148155299Y-141000558D01*
X148137539Y-140984461D01*
X148121442Y-140966701D01*
X148107164Y-140947448D01*
X148094841Y-140926889D01*
X148084592Y-140905220D01*
X148076517Y-140882652D01*
X148070693Y-140859401D01*
X148067176Y-140835691D01*
X148066000Y-140811750D01*
X148066000Y-140248250D01*
X148067176Y-140224309D01*
X148070693Y-140200599D01*
X148076517Y-140177348D01*
X148084592Y-140154780D01*
X148094841Y-140133111D01*
X148107164Y-140112552D01*
X148121442Y-140093299D01*
X148137539Y-140075539D01*
X148155299Y-140059442D01*
X148174552Y-140045164D01*
X148195111Y-140032841D01*
X148216780Y-140022592D01*
X148239348Y-140014517D01*
X148262599Y-140008693D01*
X148286309Y-140005176D01*
X148310250Y-140004000D01*
X148798750Y-140004000D01*
X148822691Y-140005176D01*
X148822691Y-140005176D01*
G37*
D20*
X148554500Y-140530000D03*
D14*
G36*
X150397691Y-140005176D02*
G01*
X150421401Y-140008693D01*
X150444652Y-140014517D01*
X150467220Y-140022592D01*
X150488889Y-140032841D01*
X150509448Y-140045164D01*
X150528701Y-140059442D01*
X150546461Y-140075539D01*
X150562558Y-140093299D01*
X150576836Y-140112552D01*
X150589159Y-140133111D01*
X150599408Y-140154780D01*
X150607483Y-140177348D01*
X150613307Y-140200599D01*
X150616824Y-140224309D01*
X150618000Y-140248250D01*
X150618000Y-140811750D01*
X150616824Y-140835691D01*
X150613307Y-140859401D01*
X150607483Y-140882652D01*
X150599408Y-140905220D01*
X150589159Y-140926889D01*
X150576836Y-140947448D01*
X150562558Y-140966701D01*
X150546461Y-140984461D01*
X150528701Y-141000558D01*
X150509448Y-141014836D01*
X150488889Y-141027159D01*
X150467220Y-141037408D01*
X150444652Y-141045483D01*
X150421401Y-141051307D01*
X150397691Y-141054824D01*
X150373750Y-141056000D01*
X149885250Y-141056000D01*
X149861309Y-141054824D01*
X149837599Y-141051307D01*
X149814348Y-141045483D01*
X149791780Y-141037408D01*
X149770111Y-141027159D01*
X149749552Y-141014836D01*
X149730299Y-141000558D01*
X149712539Y-140984461D01*
X149696442Y-140966701D01*
X149682164Y-140947448D01*
X149669841Y-140926889D01*
X149659592Y-140905220D01*
X149651517Y-140882652D01*
X149645693Y-140859401D01*
X149642176Y-140835691D01*
X149641000Y-140811750D01*
X149641000Y-140248250D01*
X149642176Y-140224309D01*
X149645693Y-140200599D01*
X149651517Y-140177348D01*
X149659592Y-140154780D01*
X149669841Y-140133111D01*
X149682164Y-140112552D01*
X149696442Y-140093299D01*
X149712539Y-140075539D01*
X149730299Y-140059442D01*
X149749552Y-140045164D01*
X149770111Y-140032841D01*
X149791780Y-140022592D01*
X149814348Y-140014517D01*
X149837599Y-140008693D01*
X149861309Y-140005176D01*
X149885250Y-140004000D01*
X150373750Y-140004000D01*
X150397691Y-140005176D01*
X150397691Y-140005176D01*
G37*
D20*
X150129500Y-140530000D03*
D14*
G36*
X139578691Y-146765176D02*
G01*
X139602401Y-146768693D01*
X139625652Y-146774517D01*
X139648220Y-146782592D01*
X139669889Y-146792841D01*
X139690448Y-146805164D01*
X139709701Y-146819442D01*
X139727461Y-146835539D01*
X139743558Y-146853299D01*
X139757836Y-146872552D01*
X139770159Y-146893111D01*
X139780408Y-146914780D01*
X139788483Y-146937348D01*
X139794307Y-146960599D01*
X139797824Y-146984309D01*
X139799000Y-147008250D01*
X139799000Y-147571750D01*
X139797824Y-147595691D01*
X139794307Y-147619401D01*
X139788483Y-147642652D01*
X139780408Y-147665220D01*
X139770159Y-147686889D01*
X139757836Y-147707448D01*
X139743558Y-147726701D01*
X139727461Y-147744461D01*
X139709701Y-147760558D01*
X139690448Y-147774836D01*
X139669889Y-147787159D01*
X139648220Y-147797408D01*
X139625652Y-147805483D01*
X139602401Y-147811307D01*
X139578691Y-147814824D01*
X139554750Y-147816000D01*
X139066250Y-147816000D01*
X139042309Y-147814824D01*
X139018599Y-147811307D01*
X138995348Y-147805483D01*
X138972780Y-147797408D01*
X138951111Y-147787159D01*
X138930552Y-147774836D01*
X138911299Y-147760558D01*
X138893539Y-147744461D01*
X138877442Y-147726701D01*
X138863164Y-147707448D01*
X138850841Y-147686889D01*
X138840592Y-147665220D01*
X138832517Y-147642652D01*
X138826693Y-147619401D01*
X138823176Y-147595691D01*
X138822000Y-147571750D01*
X138822000Y-147008250D01*
X138823176Y-146984309D01*
X138826693Y-146960599D01*
X138832517Y-146937348D01*
X138840592Y-146914780D01*
X138850841Y-146893111D01*
X138863164Y-146872552D01*
X138877442Y-146853299D01*
X138893539Y-146835539D01*
X138911299Y-146819442D01*
X138930552Y-146805164D01*
X138951111Y-146792841D01*
X138972780Y-146782592D01*
X138995348Y-146774517D01*
X139018599Y-146768693D01*
X139042309Y-146765176D01*
X139066250Y-146764000D01*
X139554750Y-146764000D01*
X139578691Y-146765176D01*
X139578691Y-146765176D01*
G37*
D20*
X139310500Y-147290000D03*
D14*
G36*
X141153691Y-146765176D02*
G01*
X141177401Y-146768693D01*
X141200652Y-146774517D01*
X141223220Y-146782592D01*
X141244889Y-146792841D01*
X141265448Y-146805164D01*
X141284701Y-146819442D01*
X141302461Y-146835539D01*
X141318558Y-146853299D01*
X141332836Y-146872552D01*
X141345159Y-146893111D01*
X141355408Y-146914780D01*
X141363483Y-146937348D01*
X141369307Y-146960599D01*
X141372824Y-146984309D01*
X141374000Y-147008250D01*
X141374000Y-147571750D01*
X141372824Y-147595691D01*
X141369307Y-147619401D01*
X141363483Y-147642652D01*
X141355408Y-147665220D01*
X141345159Y-147686889D01*
X141332836Y-147707448D01*
X141318558Y-147726701D01*
X141302461Y-147744461D01*
X141284701Y-147760558D01*
X141265448Y-147774836D01*
X141244889Y-147787159D01*
X141223220Y-147797408D01*
X141200652Y-147805483D01*
X141177401Y-147811307D01*
X141153691Y-147814824D01*
X141129750Y-147816000D01*
X140641250Y-147816000D01*
X140617309Y-147814824D01*
X140593599Y-147811307D01*
X140570348Y-147805483D01*
X140547780Y-147797408D01*
X140526111Y-147787159D01*
X140505552Y-147774836D01*
X140486299Y-147760558D01*
X140468539Y-147744461D01*
X140452442Y-147726701D01*
X140438164Y-147707448D01*
X140425841Y-147686889D01*
X140415592Y-147665220D01*
X140407517Y-147642652D01*
X140401693Y-147619401D01*
X140398176Y-147595691D01*
X140397000Y-147571750D01*
X140397000Y-147008250D01*
X140398176Y-146984309D01*
X140401693Y-146960599D01*
X140407517Y-146937348D01*
X140415592Y-146914780D01*
X140425841Y-146893111D01*
X140438164Y-146872552D01*
X140452442Y-146853299D01*
X140468539Y-146835539D01*
X140486299Y-146819442D01*
X140505552Y-146805164D01*
X140526111Y-146792841D01*
X140547780Y-146782592D01*
X140570348Y-146774517D01*
X140593599Y-146768693D01*
X140617309Y-146765176D01*
X140641250Y-146764000D01*
X141129750Y-146764000D01*
X141153691Y-146765176D01*
X141153691Y-146765176D01*
G37*
D20*
X140885500Y-147290000D03*
D14*
G36*
X139590691Y-148425176D02*
G01*
X139614401Y-148428693D01*
X139637652Y-148434517D01*
X139660220Y-148442592D01*
X139681889Y-148452841D01*
X139702448Y-148465164D01*
X139721701Y-148479442D01*
X139739461Y-148495539D01*
X139755558Y-148513299D01*
X139769836Y-148532552D01*
X139782159Y-148553111D01*
X139792408Y-148574780D01*
X139800483Y-148597348D01*
X139806307Y-148620599D01*
X139809824Y-148644309D01*
X139811000Y-148668250D01*
X139811000Y-149231750D01*
X139809824Y-149255691D01*
X139806307Y-149279401D01*
X139800483Y-149302652D01*
X139792408Y-149325220D01*
X139782159Y-149346889D01*
X139769836Y-149367448D01*
X139755558Y-149386701D01*
X139739461Y-149404461D01*
X139721701Y-149420558D01*
X139702448Y-149434836D01*
X139681889Y-149447159D01*
X139660220Y-149457408D01*
X139637652Y-149465483D01*
X139614401Y-149471307D01*
X139590691Y-149474824D01*
X139566750Y-149476000D01*
X139078250Y-149476000D01*
X139054309Y-149474824D01*
X139030599Y-149471307D01*
X139007348Y-149465483D01*
X138984780Y-149457408D01*
X138963111Y-149447159D01*
X138942552Y-149434836D01*
X138923299Y-149420558D01*
X138905539Y-149404461D01*
X138889442Y-149386701D01*
X138875164Y-149367448D01*
X138862841Y-149346889D01*
X138852592Y-149325220D01*
X138844517Y-149302652D01*
X138838693Y-149279401D01*
X138835176Y-149255691D01*
X138834000Y-149231750D01*
X138834000Y-148668250D01*
X138835176Y-148644309D01*
X138838693Y-148620599D01*
X138844517Y-148597348D01*
X138852592Y-148574780D01*
X138862841Y-148553111D01*
X138875164Y-148532552D01*
X138889442Y-148513299D01*
X138905539Y-148495539D01*
X138923299Y-148479442D01*
X138942552Y-148465164D01*
X138963111Y-148452841D01*
X138984780Y-148442592D01*
X139007348Y-148434517D01*
X139030599Y-148428693D01*
X139054309Y-148425176D01*
X139078250Y-148424000D01*
X139566750Y-148424000D01*
X139590691Y-148425176D01*
X139590691Y-148425176D01*
G37*
D20*
X139322500Y-148950000D03*
D14*
G36*
X141165691Y-148425176D02*
G01*
X141189401Y-148428693D01*
X141212652Y-148434517D01*
X141235220Y-148442592D01*
X141256889Y-148452841D01*
X141277448Y-148465164D01*
X141296701Y-148479442D01*
X141314461Y-148495539D01*
X141330558Y-148513299D01*
X141344836Y-148532552D01*
X141357159Y-148553111D01*
X141367408Y-148574780D01*
X141375483Y-148597348D01*
X141381307Y-148620599D01*
X141384824Y-148644309D01*
X141386000Y-148668250D01*
X141386000Y-149231750D01*
X141384824Y-149255691D01*
X141381307Y-149279401D01*
X141375483Y-149302652D01*
X141367408Y-149325220D01*
X141357159Y-149346889D01*
X141344836Y-149367448D01*
X141330558Y-149386701D01*
X141314461Y-149404461D01*
X141296701Y-149420558D01*
X141277448Y-149434836D01*
X141256889Y-149447159D01*
X141235220Y-149457408D01*
X141212652Y-149465483D01*
X141189401Y-149471307D01*
X141165691Y-149474824D01*
X141141750Y-149476000D01*
X140653250Y-149476000D01*
X140629309Y-149474824D01*
X140605599Y-149471307D01*
X140582348Y-149465483D01*
X140559780Y-149457408D01*
X140538111Y-149447159D01*
X140517552Y-149434836D01*
X140498299Y-149420558D01*
X140480539Y-149404461D01*
X140464442Y-149386701D01*
X140450164Y-149367448D01*
X140437841Y-149346889D01*
X140427592Y-149325220D01*
X140419517Y-149302652D01*
X140413693Y-149279401D01*
X140410176Y-149255691D01*
X140409000Y-149231750D01*
X140409000Y-148668250D01*
X140410176Y-148644309D01*
X140413693Y-148620599D01*
X140419517Y-148597348D01*
X140427592Y-148574780D01*
X140437841Y-148553111D01*
X140450164Y-148532552D01*
X140464442Y-148513299D01*
X140480539Y-148495539D01*
X140498299Y-148479442D01*
X140517552Y-148465164D01*
X140538111Y-148452841D01*
X140559780Y-148442592D01*
X140582348Y-148434517D01*
X140605599Y-148428693D01*
X140629309Y-148425176D01*
X140653250Y-148424000D01*
X141141750Y-148424000D01*
X141165691Y-148425176D01*
X141165691Y-148425176D01*
G37*
D20*
X140897500Y-148950000D03*
D21*
X153340000Y-153450000D03*
D22*
X150800000Y-153450000D03*
D21*
X147180000Y-153450000D03*
X144640000Y-153450000D03*
X142100000Y-153450000D03*
D22*
X139560000Y-153450000D03*
D26*
X176000000Y-152000000D03*
X176000000Y-133000000D03*
D14*
G36*
X158802691Y-131365176D02*
G01*
X158826401Y-131368693D01*
X158849652Y-131374517D01*
X158872220Y-131382592D01*
X158893889Y-131392841D01*
X158914448Y-131405164D01*
X158933701Y-131419442D01*
X158951461Y-131435539D01*
X158967558Y-131453299D01*
X158981836Y-131472552D01*
X158994159Y-131493111D01*
X159004408Y-131514780D01*
X159012483Y-131537348D01*
X159018307Y-131560599D01*
X159021824Y-131584309D01*
X159023000Y-131608250D01*
X159023000Y-132171750D01*
X159021824Y-132195691D01*
X159018307Y-132219401D01*
X159012483Y-132242652D01*
X159004408Y-132265220D01*
X158994159Y-132286889D01*
X158981836Y-132307448D01*
X158967558Y-132326701D01*
X158951461Y-132344461D01*
X158933701Y-132360558D01*
X158914448Y-132374836D01*
X158893889Y-132387159D01*
X158872220Y-132397408D01*
X158849652Y-132405483D01*
X158826401Y-132411307D01*
X158802691Y-132414824D01*
X158778750Y-132416000D01*
X158290250Y-132416000D01*
X158266309Y-132414824D01*
X158242599Y-132411307D01*
X158219348Y-132405483D01*
X158196780Y-132397408D01*
X158175111Y-132387159D01*
X158154552Y-132374836D01*
X158135299Y-132360558D01*
X158117539Y-132344461D01*
X158101442Y-132326701D01*
X158087164Y-132307448D01*
X158074841Y-132286889D01*
X158064592Y-132265220D01*
X158056517Y-132242652D01*
X158050693Y-132219401D01*
X158047176Y-132195691D01*
X158046000Y-132171750D01*
X158046000Y-131608250D01*
X158047176Y-131584309D01*
X158050693Y-131560599D01*
X158056517Y-131537348D01*
X158064592Y-131514780D01*
X158074841Y-131493111D01*
X158087164Y-131472552D01*
X158101442Y-131453299D01*
X158117539Y-131435539D01*
X158135299Y-131419442D01*
X158154552Y-131405164D01*
X158175111Y-131392841D01*
X158196780Y-131382592D01*
X158219348Y-131374517D01*
X158242599Y-131368693D01*
X158266309Y-131365176D01*
X158290250Y-131364000D01*
X158778750Y-131364000D01*
X158802691Y-131365176D01*
X158802691Y-131365176D01*
G37*
D20*
X158534500Y-131890000D03*
D14*
G36*
X160377691Y-131365176D02*
G01*
X160401401Y-131368693D01*
X160424652Y-131374517D01*
X160447220Y-131382592D01*
X160468889Y-131392841D01*
X160489448Y-131405164D01*
X160508701Y-131419442D01*
X160526461Y-131435539D01*
X160542558Y-131453299D01*
X160556836Y-131472552D01*
X160569159Y-131493111D01*
X160579408Y-131514780D01*
X160587483Y-131537348D01*
X160593307Y-131560599D01*
X160596824Y-131584309D01*
X160598000Y-131608250D01*
X160598000Y-132171750D01*
X160596824Y-132195691D01*
X160593307Y-132219401D01*
X160587483Y-132242652D01*
X160579408Y-132265220D01*
X160569159Y-132286889D01*
X160556836Y-132307448D01*
X160542558Y-132326701D01*
X160526461Y-132344461D01*
X160508701Y-132360558D01*
X160489448Y-132374836D01*
X160468889Y-132387159D01*
X160447220Y-132397408D01*
X160424652Y-132405483D01*
X160401401Y-132411307D01*
X160377691Y-132414824D01*
X160353750Y-132416000D01*
X159865250Y-132416000D01*
X159841309Y-132414824D01*
X159817599Y-132411307D01*
X159794348Y-132405483D01*
X159771780Y-132397408D01*
X159750111Y-132387159D01*
X159729552Y-132374836D01*
X159710299Y-132360558D01*
X159692539Y-132344461D01*
X159676442Y-132326701D01*
X159662164Y-132307448D01*
X159649841Y-132286889D01*
X159639592Y-132265220D01*
X159631517Y-132242652D01*
X159625693Y-132219401D01*
X159622176Y-132195691D01*
X159621000Y-132171750D01*
X159621000Y-131608250D01*
X159622176Y-131584309D01*
X159625693Y-131560599D01*
X159631517Y-131537348D01*
X159639592Y-131514780D01*
X159649841Y-131493111D01*
X159662164Y-131472552D01*
X159676442Y-131453299D01*
X159692539Y-131435539D01*
X159710299Y-131419442D01*
X159729552Y-131405164D01*
X159750111Y-131392841D01*
X159771780Y-131382592D01*
X159794348Y-131374517D01*
X159817599Y-131368693D01*
X159841309Y-131365176D01*
X159865250Y-131364000D01*
X160353750Y-131364000D01*
X160377691Y-131365176D01*
X160377691Y-131365176D01*
G37*
D20*
X160109500Y-131890000D03*
D27*
X151850000Y-131970000D03*
X156000000Y-131970000D03*
X151850000Y-134120000D03*
X156000000Y-134120000D03*
D28*
X152000000Y-136800000D03*
X138800000Y-136800000D03*
D26*
X133000000Y-152000000D03*
X133000000Y-133000000D03*
D29*
X166440000Y-151570000D03*
X168840000Y-153470000D03*
X168840000Y-151570000D03*
X166440000Y-153470000D03*
D30*
X146530000Y-136760000D03*
X146530000Y-138660000D03*
X144330000Y-138660000D03*
X144330000Y-137710000D03*
X144330000Y-136760000D03*
D14*
G36*
X148528691Y-133225176D02*
G01*
X148552401Y-133228693D01*
X148575652Y-133234517D01*
X148598220Y-133242592D01*
X148619889Y-133252841D01*
X148640448Y-133265164D01*
X148659701Y-133279442D01*
X148677461Y-133295539D01*
X148693558Y-133313299D01*
X148707836Y-133332552D01*
X148720159Y-133353111D01*
X148730408Y-133374780D01*
X148738483Y-133397348D01*
X148744307Y-133420599D01*
X148747824Y-133444309D01*
X148749000Y-133468250D01*
X148749000Y-134031750D01*
X148747824Y-134055691D01*
X148744307Y-134079401D01*
X148738483Y-134102652D01*
X148730408Y-134125220D01*
X148720159Y-134146889D01*
X148707836Y-134167448D01*
X148693558Y-134186701D01*
X148677461Y-134204461D01*
X148659701Y-134220558D01*
X148640448Y-134234836D01*
X148619889Y-134247159D01*
X148598220Y-134257408D01*
X148575652Y-134265483D01*
X148552401Y-134271307D01*
X148528691Y-134274824D01*
X148504750Y-134276000D01*
X148016250Y-134276000D01*
X147992309Y-134274824D01*
X147968599Y-134271307D01*
X147945348Y-134265483D01*
X147922780Y-134257408D01*
X147901111Y-134247159D01*
X147880552Y-134234836D01*
X147861299Y-134220558D01*
X147843539Y-134204461D01*
X147827442Y-134186701D01*
X147813164Y-134167448D01*
X147800841Y-134146889D01*
X147790592Y-134125220D01*
X147782517Y-134102652D01*
X147776693Y-134079401D01*
X147773176Y-134055691D01*
X147772000Y-134031750D01*
X147772000Y-133468250D01*
X147773176Y-133444309D01*
X147776693Y-133420599D01*
X147782517Y-133397348D01*
X147790592Y-133374780D01*
X147800841Y-133353111D01*
X147813164Y-133332552D01*
X147827442Y-133313299D01*
X147843539Y-133295539D01*
X147861299Y-133279442D01*
X147880552Y-133265164D01*
X147901111Y-133252841D01*
X147922780Y-133242592D01*
X147945348Y-133234517D01*
X147968599Y-133228693D01*
X147992309Y-133225176D01*
X148016250Y-133224000D01*
X148504750Y-133224000D01*
X148528691Y-133225176D01*
X148528691Y-133225176D01*
G37*
D20*
X148260500Y-133750000D03*
D14*
G36*
X150103691Y-133225176D02*
G01*
X150127401Y-133228693D01*
X150150652Y-133234517D01*
X150173220Y-133242592D01*
X150194889Y-133252841D01*
X150215448Y-133265164D01*
X150234701Y-133279442D01*
X150252461Y-133295539D01*
X150268558Y-133313299D01*
X150282836Y-133332552D01*
X150295159Y-133353111D01*
X150305408Y-133374780D01*
X150313483Y-133397348D01*
X150319307Y-133420599D01*
X150322824Y-133444309D01*
X150324000Y-133468250D01*
X150324000Y-134031750D01*
X150322824Y-134055691D01*
X150319307Y-134079401D01*
X150313483Y-134102652D01*
X150305408Y-134125220D01*
X150295159Y-134146889D01*
X150282836Y-134167448D01*
X150268558Y-134186701D01*
X150252461Y-134204461D01*
X150234701Y-134220558D01*
X150215448Y-134234836D01*
X150194889Y-134247159D01*
X150173220Y-134257408D01*
X150150652Y-134265483D01*
X150127401Y-134271307D01*
X150103691Y-134274824D01*
X150079750Y-134276000D01*
X149591250Y-134276000D01*
X149567309Y-134274824D01*
X149543599Y-134271307D01*
X149520348Y-134265483D01*
X149497780Y-134257408D01*
X149476111Y-134247159D01*
X149455552Y-134234836D01*
X149436299Y-134220558D01*
X149418539Y-134204461D01*
X149402442Y-134186701D01*
X149388164Y-134167448D01*
X149375841Y-134146889D01*
X149365592Y-134125220D01*
X149357517Y-134102652D01*
X149351693Y-134079401D01*
X149348176Y-134055691D01*
X149347000Y-134031750D01*
X149347000Y-133468250D01*
X149348176Y-133444309D01*
X149351693Y-133420599D01*
X149357517Y-133397348D01*
X149365592Y-133374780D01*
X149375841Y-133353111D01*
X149388164Y-133332552D01*
X149402442Y-133313299D01*
X149418539Y-133295539D01*
X149436299Y-133279442D01*
X149455552Y-133265164D01*
X149476111Y-133252841D01*
X149497780Y-133242592D01*
X149520348Y-133234517D01*
X149543599Y-133228693D01*
X149567309Y-133225176D01*
X149591250Y-133224000D01*
X150079750Y-133224000D01*
X150103691Y-133225176D01*
X150103691Y-133225176D01*
G37*
D20*
X149835500Y-133750000D03*
D14*
G36*
X143698691Y-133235176D02*
G01*
X143722401Y-133238693D01*
X143745652Y-133244517D01*
X143768220Y-133252592D01*
X143789889Y-133262841D01*
X143810448Y-133275164D01*
X143829701Y-133289442D01*
X143847461Y-133305539D01*
X143863558Y-133323299D01*
X143877836Y-133342552D01*
X143890159Y-133363111D01*
X143900408Y-133384780D01*
X143908483Y-133407348D01*
X143914307Y-133430599D01*
X143917824Y-133454309D01*
X143919000Y-133478250D01*
X143919000Y-134041750D01*
X143917824Y-134065691D01*
X143914307Y-134089401D01*
X143908483Y-134112652D01*
X143900408Y-134135220D01*
X143890159Y-134156889D01*
X143877836Y-134177448D01*
X143863558Y-134196701D01*
X143847461Y-134214461D01*
X143829701Y-134230558D01*
X143810448Y-134244836D01*
X143789889Y-134257159D01*
X143768220Y-134267408D01*
X143745652Y-134275483D01*
X143722401Y-134281307D01*
X143698691Y-134284824D01*
X143674750Y-134286000D01*
X143186250Y-134286000D01*
X143162309Y-134284824D01*
X143138599Y-134281307D01*
X143115348Y-134275483D01*
X143092780Y-134267408D01*
X143071111Y-134257159D01*
X143050552Y-134244836D01*
X143031299Y-134230558D01*
X143013539Y-134214461D01*
X142997442Y-134196701D01*
X142983164Y-134177448D01*
X142970841Y-134156889D01*
X142960592Y-134135220D01*
X142952517Y-134112652D01*
X142946693Y-134089401D01*
X142943176Y-134065691D01*
X142942000Y-134041750D01*
X142942000Y-133478250D01*
X142943176Y-133454309D01*
X142946693Y-133430599D01*
X142952517Y-133407348D01*
X142960592Y-133384780D01*
X142970841Y-133363111D01*
X142983164Y-133342552D01*
X142997442Y-133323299D01*
X143013539Y-133305539D01*
X143031299Y-133289442D01*
X143050552Y-133275164D01*
X143071111Y-133262841D01*
X143092780Y-133252592D01*
X143115348Y-133244517D01*
X143138599Y-133238693D01*
X143162309Y-133235176D01*
X143186250Y-133234000D01*
X143674750Y-133234000D01*
X143698691Y-133235176D01*
X143698691Y-133235176D01*
G37*
D20*
X143430500Y-133760000D03*
D14*
G36*
X145273691Y-133235176D02*
G01*
X145297401Y-133238693D01*
X145320652Y-133244517D01*
X145343220Y-133252592D01*
X145364889Y-133262841D01*
X145385448Y-133275164D01*
X145404701Y-133289442D01*
X145422461Y-133305539D01*
X145438558Y-133323299D01*
X145452836Y-133342552D01*
X145465159Y-133363111D01*
X145475408Y-133384780D01*
X145483483Y-133407348D01*
X145489307Y-133430599D01*
X145492824Y-133454309D01*
X145494000Y-133478250D01*
X145494000Y-134041750D01*
X145492824Y-134065691D01*
X145489307Y-134089401D01*
X145483483Y-134112652D01*
X145475408Y-134135220D01*
X145465159Y-134156889D01*
X145452836Y-134177448D01*
X145438558Y-134196701D01*
X145422461Y-134214461D01*
X145404701Y-134230558D01*
X145385448Y-134244836D01*
X145364889Y-134257159D01*
X145343220Y-134267408D01*
X145320652Y-134275483D01*
X145297401Y-134281307D01*
X145273691Y-134284824D01*
X145249750Y-134286000D01*
X144761250Y-134286000D01*
X144737309Y-134284824D01*
X144713599Y-134281307D01*
X144690348Y-134275483D01*
X144667780Y-134267408D01*
X144646111Y-134257159D01*
X144625552Y-134244836D01*
X144606299Y-134230558D01*
X144588539Y-134214461D01*
X144572442Y-134196701D01*
X144558164Y-134177448D01*
X144545841Y-134156889D01*
X144535592Y-134135220D01*
X144527517Y-134112652D01*
X144521693Y-134089401D01*
X144518176Y-134065691D01*
X144517000Y-134041750D01*
X144517000Y-133478250D01*
X144518176Y-133454309D01*
X144521693Y-133430599D01*
X144527517Y-133407348D01*
X144535592Y-133384780D01*
X144545841Y-133363111D01*
X144558164Y-133342552D01*
X144572442Y-133323299D01*
X144588539Y-133305539D01*
X144606299Y-133289442D01*
X144625552Y-133275164D01*
X144646111Y-133262841D01*
X144667780Y-133252592D01*
X144690348Y-133244517D01*
X144713599Y-133238693D01*
X144737309Y-133235176D01*
X144761250Y-133234000D01*
X145249750Y-133234000D01*
X145273691Y-133235176D01*
X145273691Y-133235176D01*
G37*
D20*
X145005500Y-133760000D03*
D14*
G36*
X138960691Y-133325176D02*
G01*
X138984401Y-133328693D01*
X139007652Y-133334517D01*
X139030220Y-133342592D01*
X139051889Y-133352841D01*
X139072448Y-133365164D01*
X139091701Y-133379442D01*
X139109461Y-133395539D01*
X139125558Y-133413299D01*
X139139836Y-133432552D01*
X139152159Y-133453111D01*
X139162408Y-133474780D01*
X139170483Y-133497348D01*
X139176307Y-133520599D01*
X139179824Y-133544309D01*
X139181000Y-133568250D01*
X139181000Y-134131750D01*
X139179824Y-134155691D01*
X139176307Y-134179401D01*
X139170483Y-134202652D01*
X139162408Y-134225220D01*
X139152159Y-134246889D01*
X139139836Y-134267448D01*
X139125558Y-134286701D01*
X139109461Y-134304461D01*
X139091701Y-134320558D01*
X139072448Y-134334836D01*
X139051889Y-134347159D01*
X139030220Y-134357408D01*
X139007652Y-134365483D01*
X138984401Y-134371307D01*
X138960691Y-134374824D01*
X138936750Y-134376000D01*
X138448250Y-134376000D01*
X138424309Y-134374824D01*
X138400599Y-134371307D01*
X138377348Y-134365483D01*
X138354780Y-134357408D01*
X138333111Y-134347159D01*
X138312552Y-134334836D01*
X138293299Y-134320558D01*
X138275539Y-134304461D01*
X138259442Y-134286701D01*
X138245164Y-134267448D01*
X138232841Y-134246889D01*
X138222592Y-134225220D01*
X138214517Y-134202652D01*
X138208693Y-134179401D01*
X138205176Y-134155691D01*
X138204000Y-134131750D01*
X138204000Y-133568250D01*
X138205176Y-133544309D01*
X138208693Y-133520599D01*
X138214517Y-133497348D01*
X138222592Y-133474780D01*
X138232841Y-133453111D01*
X138245164Y-133432552D01*
X138259442Y-133413299D01*
X138275539Y-133395539D01*
X138293299Y-133379442D01*
X138312552Y-133365164D01*
X138333111Y-133352841D01*
X138354780Y-133342592D01*
X138377348Y-133334517D01*
X138400599Y-133328693D01*
X138424309Y-133325176D01*
X138448250Y-133324000D01*
X138936750Y-133324000D01*
X138960691Y-133325176D01*
X138960691Y-133325176D01*
G37*
D20*
X138692500Y-133850000D03*
D14*
G36*
X140535691Y-133325176D02*
G01*
X140559401Y-133328693D01*
X140582652Y-133334517D01*
X140605220Y-133342592D01*
X140626889Y-133352841D01*
X140647448Y-133365164D01*
X140666701Y-133379442D01*
X140684461Y-133395539D01*
X140700558Y-133413299D01*
X140714836Y-133432552D01*
X140727159Y-133453111D01*
X140737408Y-133474780D01*
X140745483Y-133497348D01*
X140751307Y-133520599D01*
X140754824Y-133544309D01*
X140756000Y-133568250D01*
X140756000Y-134131750D01*
X140754824Y-134155691D01*
X140751307Y-134179401D01*
X140745483Y-134202652D01*
X140737408Y-134225220D01*
X140727159Y-134246889D01*
X140714836Y-134267448D01*
X140700558Y-134286701D01*
X140684461Y-134304461D01*
X140666701Y-134320558D01*
X140647448Y-134334836D01*
X140626889Y-134347159D01*
X140605220Y-134357408D01*
X140582652Y-134365483D01*
X140559401Y-134371307D01*
X140535691Y-134374824D01*
X140511750Y-134376000D01*
X140023250Y-134376000D01*
X139999309Y-134374824D01*
X139975599Y-134371307D01*
X139952348Y-134365483D01*
X139929780Y-134357408D01*
X139908111Y-134347159D01*
X139887552Y-134334836D01*
X139868299Y-134320558D01*
X139850539Y-134304461D01*
X139834442Y-134286701D01*
X139820164Y-134267448D01*
X139807841Y-134246889D01*
X139797592Y-134225220D01*
X139789517Y-134202652D01*
X139783693Y-134179401D01*
X139780176Y-134155691D01*
X139779000Y-134131750D01*
X139779000Y-133568250D01*
X139780176Y-133544309D01*
X139783693Y-133520599D01*
X139789517Y-133497348D01*
X139797592Y-133474780D01*
X139807841Y-133453111D01*
X139820164Y-133432552D01*
X139834442Y-133413299D01*
X139850539Y-133395539D01*
X139868299Y-133379442D01*
X139887552Y-133365164D01*
X139908111Y-133352841D01*
X139929780Y-133342592D01*
X139952348Y-133334517D01*
X139975599Y-133328693D01*
X139999309Y-133325176D01*
X140023250Y-133324000D01*
X140511750Y-133324000D01*
X140535691Y-133325176D01*
X140535691Y-133325176D01*
G37*
D20*
X140267500Y-133850000D03*
D14*
G36*
X148828691Y-141655176D02*
G01*
X148852401Y-141658693D01*
X148875652Y-141664517D01*
X148898220Y-141672592D01*
X148919889Y-141682841D01*
X148940448Y-141695164D01*
X148959701Y-141709442D01*
X148977461Y-141725539D01*
X148993558Y-141743299D01*
X149007836Y-141762552D01*
X149020159Y-141783111D01*
X149030408Y-141804780D01*
X149038483Y-141827348D01*
X149044307Y-141850599D01*
X149047824Y-141874309D01*
X149049000Y-141898250D01*
X149049000Y-142461750D01*
X149047824Y-142485691D01*
X149044307Y-142509401D01*
X149038483Y-142532652D01*
X149030408Y-142555220D01*
X149020159Y-142576889D01*
X149007836Y-142597448D01*
X148993558Y-142616701D01*
X148977461Y-142634461D01*
X148959701Y-142650558D01*
X148940448Y-142664836D01*
X148919889Y-142677159D01*
X148898220Y-142687408D01*
X148875652Y-142695483D01*
X148852401Y-142701307D01*
X148828691Y-142704824D01*
X148804750Y-142706000D01*
X148316250Y-142706000D01*
X148292309Y-142704824D01*
X148268599Y-142701307D01*
X148245348Y-142695483D01*
X148222780Y-142687408D01*
X148201111Y-142677159D01*
X148180552Y-142664836D01*
X148161299Y-142650558D01*
X148143539Y-142634461D01*
X148127442Y-142616701D01*
X148113164Y-142597448D01*
X148100841Y-142576889D01*
X148090592Y-142555220D01*
X148082517Y-142532652D01*
X148076693Y-142509401D01*
X148073176Y-142485691D01*
X148072000Y-142461750D01*
X148072000Y-141898250D01*
X148073176Y-141874309D01*
X148076693Y-141850599D01*
X148082517Y-141827348D01*
X148090592Y-141804780D01*
X148100841Y-141783111D01*
X148113164Y-141762552D01*
X148127442Y-141743299D01*
X148143539Y-141725539D01*
X148161299Y-141709442D01*
X148180552Y-141695164D01*
X148201111Y-141682841D01*
X148222780Y-141672592D01*
X148245348Y-141664517D01*
X148268599Y-141658693D01*
X148292309Y-141655176D01*
X148316250Y-141654000D01*
X148804750Y-141654000D01*
X148828691Y-141655176D01*
X148828691Y-141655176D01*
G37*
D20*
X148560500Y-142180000D03*
D14*
G36*
X150403691Y-141655176D02*
G01*
X150427401Y-141658693D01*
X150450652Y-141664517D01*
X150473220Y-141672592D01*
X150494889Y-141682841D01*
X150515448Y-141695164D01*
X150534701Y-141709442D01*
X150552461Y-141725539D01*
X150568558Y-141743299D01*
X150582836Y-141762552D01*
X150595159Y-141783111D01*
X150605408Y-141804780D01*
X150613483Y-141827348D01*
X150619307Y-141850599D01*
X150622824Y-141874309D01*
X150624000Y-141898250D01*
X150624000Y-142461750D01*
X150622824Y-142485691D01*
X150619307Y-142509401D01*
X150613483Y-142532652D01*
X150605408Y-142555220D01*
X150595159Y-142576889D01*
X150582836Y-142597448D01*
X150568558Y-142616701D01*
X150552461Y-142634461D01*
X150534701Y-142650558D01*
X150515448Y-142664836D01*
X150494889Y-142677159D01*
X150473220Y-142687408D01*
X150450652Y-142695483D01*
X150427401Y-142701307D01*
X150403691Y-142704824D01*
X150379750Y-142706000D01*
X149891250Y-142706000D01*
X149867309Y-142704824D01*
X149843599Y-142701307D01*
X149820348Y-142695483D01*
X149797780Y-142687408D01*
X149776111Y-142677159D01*
X149755552Y-142664836D01*
X149736299Y-142650558D01*
X149718539Y-142634461D01*
X149702442Y-142616701D01*
X149688164Y-142597448D01*
X149675841Y-142576889D01*
X149665592Y-142555220D01*
X149657517Y-142532652D01*
X149651693Y-142509401D01*
X149648176Y-142485691D01*
X149647000Y-142461750D01*
X149647000Y-141898250D01*
X149648176Y-141874309D01*
X149651693Y-141850599D01*
X149657517Y-141827348D01*
X149665592Y-141804780D01*
X149675841Y-141783111D01*
X149688164Y-141762552D01*
X149702442Y-141743299D01*
X149718539Y-141725539D01*
X149736299Y-141709442D01*
X149755552Y-141695164D01*
X149776111Y-141682841D01*
X149797780Y-141672592D01*
X149820348Y-141664517D01*
X149843599Y-141658693D01*
X149867309Y-141655176D01*
X149891250Y-141654000D01*
X150379750Y-141654000D01*
X150403691Y-141655176D01*
X150403691Y-141655176D01*
G37*
D20*
X150135500Y-142180000D03*
D31*
X183600000Y-135930000D03*
X183600000Y-149070000D03*
D32*
X181000000Y-139000000D03*
X181000000Y-141500000D03*
X181000000Y-143500000D03*
X181000000Y-146000000D03*
D21*
X182840000Y-132000000D03*
X185380000Y-132000000D03*
X187920000Y-132000000D03*
X190460000Y-132000000D03*
D22*
X193000000Y-132000000D03*
D14*
G36*
X150115691Y-131575176D02*
G01*
X150139401Y-131578693D01*
X150162652Y-131584517D01*
X150185220Y-131592592D01*
X150206889Y-131602841D01*
X150227448Y-131615164D01*
X150246701Y-131629442D01*
X150264461Y-131645539D01*
X150280558Y-131663299D01*
X150294836Y-131682552D01*
X150307159Y-131703111D01*
X150317408Y-131724780D01*
X150325483Y-131747348D01*
X150331307Y-131770599D01*
X150334824Y-131794309D01*
X150336000Y-131818250D01*
X150336000Y-132381750D01*
X150334824Y-132405691D01*
X150331307Y-132429401D01*
X150325483Y-132452652D01*
X150317408Y-132475220D01*
X150307159Y-132496889D01*
X150294836Y-132517448D01*
X150280558Y-132536701D01*
X150264461Y-132554461D01*
X150246701Y-132570558D01*
X150227448Y-132584836D01*
X150206889Y-132597159D01*
X150185220Y-132607408D01*
X150162652Y-132615483D01*
X150139401Y-132621307D01*
X150115691Y-132624824D01*
X150091750Y-132626000D01*
X149603250Y-132626000D01*
X149579309Y-132624824D01*
X149555599Y-132621307D01*
X149532348Y-132615483D01*
X149509780Y-132607408D01*
X149488111Y-132597159D01*
X149467552Y-132584836D01*
X149448299Y-132570558D01*
X149430539Y-132554461D01*
X149414442Y-132536701D01*
X149400164Y-132517448D01*
X149387841Y-132496889D01*
X149377592Y-132475220D01*
X149369517Y-132452652D01*
X149363693Y-132429401D01*
X149360176Y-132405691D01*
X149359000Y-132381750D01*
X149359000Y-131818250D01*
X149360176Y-131794309D01*
X149363693Y-131770599D01*
X149369517Y-131747348D01*
X149377592Y-131724780D01*
X149387841Y-131703111D01*
X149400164Y-131682552D01*
X149414442Y-131663299D01*
X149430539Y-131645539D01*
X149448299Y-131629442D01*
X149467552Y-131615164D01*
X149488111Y-131602841D01*
X149509780Y-131592592D01*
X149532348Y-131584517D01*
X149555599Y-131578693D01*
X149579309Y-131575176D01*
X149603250Y-131574000D01*
X150091750Y-131574000D01*
X150115691Y-131575176D01*
X150115691Y-131575176D01*
G37*
D20*
X149847500Y-132100000D03*
D14*
G36*
X148540691Y-131575176D02*
G01*
X148564401Y-131578693D01*
X148587652Y-131584517D01*
X148610220Y-131592592D01*
X148631889Y-131602841D01*
X148652448Y-131615164D01*
X148671701Y-131629442D01*
X148689461Y-131645539D01*
X148705558Y-131663299D01*
X148719836Y-131682552D01*
X148732159Y-131703111D01*
X148742408Y-131724780D01*
X148750483Y-131747348D01*
X148756307Y-131770599D01*
X148759824Y-131794309D01*
X148761000Y-131818250D01*
X148761000Y-132381750D01*
X148759824Y-132405691D01*
X148756307Y-132429401D01*
X148750483Y-132452652D01*
X148742408Y-132475220D01*
X148732159Y-132496889D01*
X148719836Y-132517448D01*
X148705558Y-132536701D01*
X148689461Y-132554461D01*
X148671701Y-132570558D01*
X148652448Y-132584836D01*
X148631889Y-132597159D01*
X148610220Y-132607408D01*
X148587652Y-132615483D01*
X148564401Y-132621307D01*
X148540691Y-132624824D01*
X148516750Y-132626000D01*
X148028250Y-132626000D01*
X148004309Y-132624824D01*
X147980599Y-132621307D01*
X147957348Y-132615483D01*
X147934780Y-132607408D01*
X147913111Y-132597159D01*
X147892552Y-132584836D01*
X147873299Y-132570558D01*
X147855539Y-132554461D01*
X147839442Y-132536701D01*
X147825164Y-132517448D01*
X147812841Y-132496889D01*
X147802592Y-132475220D01*
X147794517Y-132452652D01*
X147788693Y-132429401D01*
X147785176Y-132405691D01*
X147784000Y-132381750D01*
X147784000Y-131818250D01*
X147785176Y-131794309D01*
X147788693Y-131770599D01*
X147794517Y-131747348D01*
X147802592Y-131724780D01*
X147812841Y-131703111D01*
X147825164Y-131682552D01*
X147839442Y-131663299D01*
X147855539Y-131645539D01*
X147873299Y-131629442D01*
X147892552Y-131615164D01*
X147913111Y-131602841D01*
X147934780Y-131592592D01*
X147957348Y-131584517D01*
X147980599Y-131578693D01*
X148004309Y-131575176D01*
X148028250Y-131574000D01*
X148516750Y-131574000D01*
X148540691Y-131575176D01*
X148540691Y-131575176D01*
G37*
D20*
X148272500Y-132100000D03*
D14*
G36*
X145285691Y-131585176D02*
G01*
X145309401Y-131588693D01*
X145332652Y-131594517D01*
X145355220Y-131602592D01*
X145376889Y-131612841D01*
X145397448Y-131625164D01*
X145416701Y-131639442D01*
X145434461Y-131655539D01*
X145450558Y-131673299D01*
X145464836Y-131692552D01*
X145477159Y-131713111D01*
X145487408Y-131734780D01*
X145495483Y-131757348D01*
X145501307Y-131780599D01*
X145504824Y-131804309D01*
X145506000Y-131828250D01*
X145506000Y-132391750D01*
X145504824Y-132415691D01*
X145501307Y-132439401D01*
X145495483Y-132462652D01*
X145487408Y-132485220D01*
X145477159Y-132506889D01*
X145464836Y-132527448D01*
X145450558Y-132546701D01*
X145434461Y-132564461D01*
X145416701Y-132580558D01*
X145397448Y-132594836D01*
X145376889Y-132607159D01*
X145355220Y-132617408D01*
X145332652Y-132625483D01*
X145309401Y-132631307D01*
X145285691Y-132634824D01*
X145261750Y-132636000D01*
X144773250Y-132636000D01*
X144749309Y-132634824D01*
X144725599Y-132631307D01*
X144702348Y-132625483D01*
X144679780Y-132617408D01*
X144658111Y-132607159D01*
X144637552Y-132594836D01*
X144618299Y-132580558D01*
X144600539Y-132564461D01*
X144584442Y-132546701D01*
X144570164Y-132527448D01*
X144557841Y-132506889D01*
X144547592Y-132485220D01*
X144539517Y-132462652D01*
X144533693Y-132439401D01*
X144530176Y-132415691D01*
X144529000Y-132391750D01*
X144529000Y-131828250D01*
X144530176Y-131804309D01*
X144533693Y-131780599D01*
X144539517Y-131757348D01*
X144547592Y-131734780D01*
X144557841Y-131713111D01*
X144570164Y-131692552D01*
X144584442Y-131673299D01*
X144600539Y-131655539D01*
X144618299Y-131639442D01*
X144637552Y-131625164D01*
X144658111Y-131612841D01*
X144679780Y-131602592D01*
X144702348Y-131594517D01*
X144725599Y-131588693D01*
X144749309Y-131585176D01*
X144773250Y-131584000D01*
X145261750Y-131584000D01*
X145285691Y-131585176D01*
X145285691Y-131585176D01*
G37*
D20*
X145017500Y-132110000D03*
D14*
G36*
X143710691Y-131585176D02*
G01*
X143734401Y-131588693D01*
X143757652Y-131594517D01*
X143780220Y-131602592D01*
X143801889Y-131612841D01*
X143822448Y-131625164D01*
X143841701Y-131639442D01*
X143859461Y-131655539D01*
X143875558Y-131673299D01*
X143889836Y-131692552D01*
X143902159Y-131713111D01*
X143912408Y-131734780D01*
X143920483Y-131757348D01*
X143926307Y-131780599D01*
X143929824Y-131804309D01*
X143931000Y-131828250D01*
X143931000Y-132391750D01*
X143929824Y-132415691D01*
X143926307Y-132439401D01*
X143920483Y-132462652D01*
X143912408Y-132485220D01*
X143902159Y-132506889D01*
X143889836Y-132527448D01*
X143875558Y-132546701D01*
X143859461Y-132564461D01*
X143841701Y-132580558D01*
X143822448Y-132594836D01*
X143801889Y-132607159D01*
X143780220Y-132617408D01*
X143757652Y-132625483D01*
X143734401Y-132631307D01*
X143710691Y-132634824D01*
X143686750Y-132636000D01*
X143198250Y-132636000D01*
X143174309Y-132634824D01*
X143150599Y-132631307D01*
X143127348Y-132625483D01*
X143104780Y-132617408D01*
X143083111Y-132607159D01*
X143062552Y-132594836D01*
X143043299Y-132580558D01*
X143025539Y-132564461D01*
X143009442Y-132546701D01*
X142995164Y-132527448D01*
X142982841Y-132506889D01*
X142972592Y-132485220D01*
X142964517Y-132462652D01*
X142958693Y-132439401D01*
X142955176Y-132415691D01*
X142954000Y-132391750D01*
X142954000Y-131828250D01*
X142955176Y-131804309D01*
X142958693Y-131780599D01*
X142964517Y-131757348D01*
X142972592Y-131734780D01*
X142982841Y-131713111D01*
X142995164Y-131692552D01*
X143009442Y-131673299D01*
X143025539Y-131655539D01*
X143043299Y-131639442D01*
X143062552Y-131625164D01*
X143083111Y-131612841D01*
X143104780Y-131602592D01*
X143127348Y-131594517D01*
X143150599Y-131588693D01*
X143174309Y-131585176D01*
X143198250Y-131584000D01*
X143686750Y-131584000D01*
X143710691Y-131585176D01*
X143710691Y-131585176D01*
G37*
D20*
X143442500Y-132110000D03*
D14*
G36*
X140525691Y-131645176D02*
G01*
X140549401Y-131648693D01*
X140572652Y-131654517D01*
X140595220Y-131662592D01*
X140616889Y-131672841D01*
X140637448Y-131685164D01*
X140656701Y-131699442D01*
X140674461Y-131715539D01*
X140690558Y-131733299D01*
X140704836Y-131752552D01*
X140717159Y-131773111D01*
X140727408Y-131794780D01*
X140735483Y-131817348D01*
X140741307Y-131840599D01*
X140744824Y-131864309D01*
X140746000Y-131888250D01*
X140746000Y-132451750D01*
X140744824Y-132475691D01*
X140741307Y-132499401D01*
X140735483Y-132522652D01*
X140727408Y-132545220D01*
X140717159Y-132566889D01*
X140704836Y-132587448D01*
X140690558Y-132606701D01*
X140674461Y-132624461D01*
X140656701Y-132640558D01*
X140637448Y-132654836D01*
X140616889Y-132667159D01*
X140595220Y-132677408D01*
X140572652Y-132685483D01*
X140549401Y-132691307D01*
X140525691Y-132694824D01*
X140501750Y-132696000D01*
X140013250Y-132696000D01*
X139989309Y-132694824D01*
X139965599Y-132691307D01*
X139942348Y-132685483D01*
X139919780Y-132677408D01*
X139898111Y-132667159D01*
X139877552Y-132654836D01*
X139858299Y-132640558D01*
X139840539Y-132624461D01*
X139824442Y-132606701D01*
X139810164Y-132587448D01*
X139797841Y-132566889D01*
X139787592Y-132545220D01*
X139779517Y-132522652D01*
X139773693Y-132499401D01*
X139770176Y-132475691D01*
X139769000Y-132451750D01*
X139769000Y-131888250D01*
X139770176Y-131864309D01*
X139773693Y-131840599D01*
X139779517Y-131817348D01*
X139787592Y-131794780D01*
X139797841Y-131773111D01*
X139810164Y-131752552D01*
X139824442Y-131733299D01*
X139840539Y-131715539D01*
X139858299Y-131699442D01*
X139877552Y-131685164D01*
X139898111Y-131672841D01*
X139919780Y-131662592D01*
X139942348Y-131654517D01*
X139965599Y-131648693D01*
X139989309Y-131645176D01*
X140013250Y-131644000D01*
X140501750Y-131644000D01*
X140525691Y-131645176D01*
X140525691Y-131645176D01*
G37*
D20*
X140257500Y-132170000D03*
D14*
G36*
X138950691Y-131645176D02*
G01*
X138974401Y-131648693D01*
X138997652Y-131654517D01*
X139020220Y-131662592D01*
X139041889Y-131672841D01*
X139062448Y-131685164D01*
X139081701Y-131699442D01*
X139099461Y-131715539D01*
X139115558Y-131733299D01*
X139129836Y-131752552D01*
X139142159Y-131773111D01*
X139152408Y-131794780D01*
X139160483Y-131817348D01*
X139166307Y-131840599D01*
X139169824Y-131864309D01*
X139171000Y-131888250D01*
X139171000Y-132451750D01*
X139169824Y-132475691D01*
X139166307Y-132499401D01*
X139160483Y-132522652D01*
X139152408Y-132545220D01*
X139142159Y-132566889D01*
X139129836Y-132587448D01*
X139115558Y-132606701D01*
X139099461Y-132624461D01*
X139081701Y-132640558D01*
X139062448Y-132654836D01*
X139041889Y-132667159D01*
X139020220Y-132677408D01*
X138997652Y-132685483D01*
X138974401Y-132691307D01*
X138950691Y-132694824D01*
X138926750Y-132696000D01*
X138438250Y-132696000D01*
X138414309Y-132694824D01*
X138390599Y-132691307D01*
X138367348Y-132685483D01*
X138344780Y-132677408D01*
X138323111Y-132667159D01*
X138302552Y-132654836D01*
X138283299Y-132640558D01*
X138265539Y-132624461D01*
X138249442Y-132606701D01*
X138235164Y-132587448D01*
X138222841Y-132566889D01*
X138212592Y-132545220D01*
X138204517Y-132522652D01*
X138198693Y-132499401D01*
X138195176Y-132475691D01*
X138194000Y-132451750D01*
X138194000Y-131888250D01*
X138195176Y-131864309D01*
X138198693Y-131840599D01*
X138204517Y-131817348D01*
X138212592Y-131794780D01*
X138222841Y-131773111D01*
X138235164Y-131752552D01*
X138249442Y-131733299D01*
X138265539Y-131715539D01*
X138283299Y-131699442D01*
X138302552Y-131685164D01*
X138323111Y-131672841D01*
X138344780Y-131662592D01*
X138367348Y-131654517D01*
X138390599Y-131648693D01*
X138414309Y-131645176D01*
X138438250Y-131644000D01*
X138926750Y-131644000D01*
X138950691Y-131645176D01*
X138950691Y-131645176D01*
G37*
D20*
X138682500Y-132170000D03*
D14*
G36*
X173835691Y-146945176D02*
G01*
X173859401Y-146948693D01*
X173882652Y-146954517D01*
X173905220Y-146962592D01*
X173926889Y-146972841D01*
X173947448Y-146985164D01*
X173966701Y-146999442D01*
X173984461Y-147015539D01*
X174000558Y-147033299D01*
X174014836Y-147052552D01*
X174027159Y-147073111D01*
X174037408Y-147094780D01*
X174045483Y-147117348D01*
X174051307Y-147140599D01*
X174054824Y-147164309D01*
X174056000Y-147188250D01*
X174056000Y-147751750D01*
X174054824Y-147775691D01*
X174051307Y-147799401D01*
X174045483Y-147822652D01*
X174037408Y-147845220D01*
X174027159Y-147866889D01*
X174014836Y-147887448D01*
X174000558Y-147906701D01*
X173984461Y-147924461D01*
X173966701Y-147940558D01*
X173947448Y-147954836D01*
X173926889Y-147967159D01*
X173905220Y-147977408D01*
X173882652Y-147985483D01*
X173859401Y-147991307D01*
X173835691Y-147994824D01*
X173811750Y-147996000D01*
X173323250Y-147996000D01*
X173299309Y-147994824D01*
X173275599Y-147991307D01*
X173252348Y-147985483D01*
X173229780Y-147977408D01*
X173208111Y-147967159D01*
X173187552Y-147954836D01*
X173168299Y-147940558D01*
X173150539Y-147924461D01*
X173134442Y-147906701D01*
X173120164Y-147887448D01*
X173107841Y-147866889D01*
X173097592Y-147845220D01*
X173089517Y-147822652D01*
X173083693Y-147799401D01*
X173080176Y-147775691D01*
X173079000Y-147751750D01*
X173079000Y-147188250D01*
X173080176Y-147164309D01*
X173083693Y-147140599D01*
X173089517Y-147117348D01*
X173097592Y-147094780D01*
X173107841Y-147073111D01*
X173120164Y-147052552D01*
X173134442Y-147033299D01*
X173150539Y-147015539D01*
X173168299Y-146999442D01*
X173187552Y-146985164D01*
X173208111Y-146972841D01*
X173229780Y-146962592D01*
X173252348Y-146954517D01*
X173275599Y-146948693D01*
X173299309Y-146945176D01*
X173323250Y-146944000D01*
X173811750Y-146944000D01*
X173835691Y-146945176D01*
X173835691Y-146945176D01*
G37*
D20*
X173567500Y-147470000D03*
D14*
G36*
X172260691Y-146945176D02*
G01*
X172284401Y-146948693D01*
X172307652Y-146954517D01*
X172330220Y-146962592D01*
X172351889Y-146972841D01*
X172372448Y-146985164D01*
X172391701Y-146999442D01*
X172409461Y-147015539D01*
X172425558Y-147033299D01*
X172439836Y-147052552D01*
X172452159Y-147073111D01*
X172462408Y-147094780D01*
X172470483Y-147117348D01*
X172476307Y-147140599D01*
X172479824Y-147164309D01*
X172481000Y-147188250D01*
X172481000Y-147751750D01*
X172479824Y-147775691D01*
X172476307Y-147799401D01*
X172470483Y-147822652D01*
X172462408Y-147845220D01*
X172452159Y-147866889D01*
X172439836Y-147887448D01*
X172425558Y-147906701D01*
X172409461Y-147924461D01*
X172391701Y-147940558D01*
X172372448Y-147954836D01*
X172351889Y-147967159D01*
X172330220Y-147977408D01*
X172307652Y-147985483D01*
X172284401Y-147991307D01*
X172260691Y-147994824D01*
X172236750Y-147996000D01*
X171748250Y-147996000D01*
X171724309Y-147994824D01*
X171700599Y-147991307D01*
X171677348Y-147985483D01*
X171654780Y-147977408D01*
X171633111Y-147967159D01*
X171612552Y-147954836D01*
X171593299Y-147940558D01*
X171575539Y-147924461D01*
X171559442Y-147906701D01*
X171545164Y-147887448D01*
X171532841Y-147866889D01*
X171522592Y-147845220D01*
X171514517Y-147822652D01*
X171508693Y-147799401D01*
X171505176Y-147775691D01*
X171504000Y-147751750D01*
X171504000Y-147188250D01*
X171505176Y-147164309D01*
X171508693Y-147140599D01*
X171514517Y-147117348D01*
X171522592Y-147094780D01*
X171532841Y-147073111D01*
X171545164Y-147052552D01*
X171559442Y-147033299D01*
X171575539Y-147015539D01*
X171593299Y-146999442D01*
X171612552Y-146985164D01*
X171633111Y-146972841D01*
X171654780Y-146962592D01*
X171677348Y-146954517D01*
X171700599Y-146948693D01*
X171724309Y-146945176D01*
X171748250Y-146944000D01*
X172236750Y-146944000D01*
X172260691Y-146945176D01*
X172260691Y-146945176D01*
G37*
D20*
X171992500Y-147470000D03*
D14*
G36*
X161995691Y-152918176D02*
G01*
X162019401Y-152921693D01*
X162042652Y-152927517D01*
X162065220Y-152935592D01*
X162086889Y-152945841D01*
X162107448Y-152958164D01*
X162126701Y-152972442D01*
X162144461Y-152988539D01*
X162160558Y-153006299D01*
X162174836Y-153025552D01*
X162187159Y-153046111D01*
X162197408Y-153067780D01*
X162205483Y-153090348D01*
X162211307Y-153113599D01*
X162214824Y-153137309D01*
X162216000Y-153161250D01*
X162216000Y-153649750D01*
X162214824Y-153673691D01*
X162211307Y-153697401D01*
X162205483Y-153720652D01*
X162197408Y-153743220D01*
X162187159Y-153764889D01*
X162174836Y-153785448D01*
X162160558Y-153804701D01*
X162144461Y-153822461D01*
X162126701Y-153838558D01*
X162107448Y-153852836D01*
X162086889Y-153865159D01*
X162065220Y-153875408D01*
X162042652Y-153883483D01*
X162019401Y-153889307D01*
X161995691Y-153892824D01*
X161971750Y-153894000D01*
X161408250Y-153894000D01*
X161384309Y-153892824D01*
X161360599Y-153889307D01*
X161337348Y-153883483D01*
X161314780Y-153875408D01*
X161293111Y-153865159D01*
X161272552Y-153852836D01*
X161253299Y-153838558D01*
X161235539Y-153822461D01*
X161219442Y-153804701D01*
X161205164Y-153785448D01*
X161192841Y-153764889D01*
X161182592Y-153743220D01*
X161174517Y-153720652D01*
X161168693Y-153697401D01*
X161165176Y-153673691D01*
X161164000Y-153649750D01*
X161164000Y-153161250D01*
X161165176Y-153137309D01*
X161168693Y-153113599D01*
X161174517Y-153090348D01*
X161182592Y-153067780D01*
X161192841Y-153046111D01*
X161205164Y-153025552D01*
X161219442Y-153006299D01*
X161235539Y-152988539D01*
X161253299Y-152972442D01*
X161272552Y-152958164D01*
X161293111Y-152945841D01*
X161314780Y-152935592D01*
X161337348Y-152927517D01*
X161360599Y-152921693D01*
X161384309Y-152918176D01*
X161408250Y-152917000D01*
X161971750Y-152917000D01*
X161995691Y-152918176D01*
X161995691Y-152918176D01*
G37*
D20*
X161690000Y-153405500D03*
D14*
G36*
X161995691Y-151343176D02*
G01*
X162019401Y-151346693D01*
X162042652Y-151352517D01*
X162065220Y-151360592D01*
X162086889Y-151370841D01*
X162107448Y-151383164D01*
X162126701Y-151397442D01*
X162144461Y-151413539D01*
X162160558Y-151431299D01*
X162174836Y-151450552D01*
X162187159Y-151471111D01*
X162197408Y-151492780D01*
X162205483Y-151515348D01*
X162211307Y-151538599D01*
X162214824Y-151562309D01*
X162216000Y-151586250D01*
X162216000Y-152074750D01*
X162214824Y-152098691D01*
X162211307Y-152122401D01*
X162205483Y-152145652D01*
X162197408Y-152168220D01*
X162187159Y-152189889D01*
X162174836Y-152210448D01*
X162160558Y-152229701D01*
X162144461Y-152247461D01*
X162126701Y-152263558D01*
X162107448Y-152277836D01*
X162086889Y-152290159D01*
X162065220Y-152300408D01*
X162042652Y-152308483D01*
X162019401Y-152314307D01*
X161995691Y-152317824D01*
X161971750Y-152319000D01*
X161408250Y-152319000D01*
X161384309Y-152317824D01*
X161360599Y-152314307D01*
X161337348Y-152308483D01*
X161314780Y-152300408D01*
X161293111Y-152290159D01*
X161272552Y-152277836D01*
X161253299Y-152263558D01*
X161235539Y-152247461D01*
X161219442Y-152229701D01*
X161205164Y-152210448D01*
X161192841Y-152189889D01*
X161182592Y-152168220D01*
X161174517Y-152145652D01*
X161168693Y-152122401D01*
X161165176Y-152098691D01*
X161164000Y-152074750D01*
X161164000Y-151586250D01*
X161165176Y-151562309D01*
X161168693Y-151538599D01*
X161174517Y-151515348D01*
X161182592Y-151492780D01*
X161192841Y-151471111D01*
X161205164Y-151450552D01*
X161219442Y-151431299D01*
X161235539Y-151413539D01*
X161253299Y-151397442D01*
X161272552Y-151383164D01*
X161293111Y-151370841D01*
X161314780Y-151360592D01*
X161337348Y-151352517D01*
X161360599Y-151346693D01*
X161384309Y-151343176D01*
X161408250Y-151342000D01*
X161971750Y-151342000D01*
X161995691Y-151343176D01*
X161995691Y-151343176D01*
G37*
D20*
X161690000Y-151830500D03*
D14*
G36*
X159425691Y-152918176D02*
G01*
X159449401Y-152921693D01*
X159472652Y-152927517D01*
X159495220Y-152935592D01*
X159516889Y-152945841D01*
X159537448Y-152958164D01*
X159556701Y-152972442D01*
X159574461Y-152988539D01*
X159590558Y-153006299D01*
X159604836Y-153025552D01*
X159617159Y-153046111D01*
X159627408Y-153067780D01*
X159635483Y-153090348D01*
X159641307Y-153113599D01*
X159644824Y-153137309D01*
X159646000Y-153161250D01*
X159646000Y-153649750D01*
X159644824Y-153673691D01*
X159641307Y-153697401D01*
X159635483Y-153720652D01*
X159627408Y-153743220D01*
X159617159Y-153764889D01*
X159604836Y-153785448D01*
X159590558Y-153804701D01*
X159574461Y-153822461D01*
X159556701Y-153838558D01*
X159537448Y-153852836D01*
X159516889Y-153865159D01*
X159495220Y-153875408D01*
X159472652Y-153883483D01*
X159449401Y-153889307D01*
X159425691Y-153892824D01*
X159401750Y-153894000D01*
X158838250Y-153894000D01*
X158814309Y-153892824D01*
X158790599Y-153889307D01*
X158767348Y-153883483D01*
X158744780Y-153875408D01*
X158723111Y-153865159D01*
X158702552Y-153852836D01*
X158683299Y-153838558D01*
X158665539Y-153822461D01*
X158649442Y-153804701D01*
X158635164Y-153785448D01*
X158622841Y-153764889D01*
X158612592Y-153743220D01*
X158604517Y-153720652D01*
X158598693Y-153697401D01*
X158595176Y-153673691D01*
X158594000Y-153649750D01*
X158594000Y-153161250D01*
X158595176Y-153137309D01*
X158598693Y-153113599D01*
X158604517Y-153090348D01*
X158612592Y-153067780D01*
X158622841Y-153046111D01*
X158635164Y-153025552D01*
X158649442Y-153006299D01*
X158665539Y-152988539D01*
X158683299Y-152972442D01*
X158702552Y-152958164D01*
X158723111Y-152945841D01*
X158744780Y-152935592D01*
X158767348Y-152927517D01*
X158790599Y-152921693D01*
X158814309Y-152918176D01*
X158838250Y-152917000D01*
X159401750Y-152917000D01*
X159425691Y-152918176D01*
X159425691Y-152918176D01*
G37*
D20*
X159120000Y-153405500D03*
D14*
G36*
X159425691Y-151343176D02*
G01*
X159449401Y-151346693D01*
X159472652Y-151352517D01*
X159495220Y-151360592D01*
X159516889Y-151370841D01*
X159537448Y-151383164D01*
X159556701Y-151397442D01*
X159574461Y-151413539D01*
X159590558Y-151431299D01*
X159604836Y-151450552D01*
X159617159Y-151471111D01*
X159627408Y-151492780D01*
X159635483Y-151515348D01*
X159641307Y-151538599D01*
X159644824Y-151562309D01*
X159646000Y-151586250D01*
X159646000Y-152074750D01*
X159644824Y-152098691D01*
X159641307Y-152122401D01*
X159635483Y-152145652D01*
X159627408Y-152168220D01*
X159617159Y-152189889D01*
X159604836Y-152210448D01*
X159590558Y-152229701D01*
X159574461Y-152247461D01*
X159556701Y-152263558D01*
X159537448Y-152277836D01*
X159516889Y-152290159D01*
X159495220Y-152300408D01*
X159472652Y-152308483D01*
X159449401Y-152314307D01*
X159425691Y-152317824D01*
X159401750Y-152319000D01*
X158838250Y-152319000D01*
X158814309Y-152317824D01*
X158790599Y-152314307D01*
X158767348Y-152308483D01*
X158744780Y-152300408D01*
X158723111Y-152290159D01*
X158702552Y-152277836D01*
X158683299Y-152263558D01*
X158665539Y-152247461D01*
X158649442Y-152229701D01*
X158635164Y-152210448D01*
X158622841Y-152189889D01*
X158612592Y-152168220D01*
X158604517Y-152145652D01*
X158598693Y-152122401D01*
X158595176Y-152098691D01*
X158594000Y-152074750D01*
X158594000Y-151586250D01*
X158595176Y-151562309D01*
X158598693Y-151538599D01*
X158604517Y-151515348D01*
X158612592Y-151492780D01*
X158622841Y-151471111D01*
X158635164Y-151450552D01*
X158649442Y-151431299D01*
X158665539Y-151413539D01*
X158683299Y-151397442D01*
X158702552Y-151383164D01*
X158723111Y-151370841D01*
X158744780Y-151360592D01*
X158767348Y-151352517D01*
X158790599Y-151346693D01*
X158814309Y-151343176D01*
X158838250Y-151342000D01*
X159401750Y-151342000D01*
X159425691Y-151343176D01*
X159425691Y-151343176D01*
G37*
D20*
X159120000Y-151830500D03*
D14*
G36*
X149298141Y-137992297D02*
G01*
X149324278Y-137996174D01*
X149349909Y-138002594D01*
X149374788Y-138011495D01*
X149398674Y-138022793D01*
X149421337Y-138036377D01*
X149442560Y-138052117D01*
X149462139Y-138069861D01*
X149479883Y-138089440D01*
X149495623Y-138110663D01*
X149509207Y-138133326D01*
X149520505Y-138157212D01*
X149529406Y-138182091D01*
X149535826Y-138207722D01*
X149539703Y-138233859D01*
X149541000Y-138260250D01*
X149541000Y-138798750D01*
X149539703Y-138825141D01*
X149535826Y-138851278D01*
X149529406Y-138876909D01*
X149520505Y-138901788D01*
X149509207Y-138925674D01*
X149495623Y-138948337D01*
X149479883Y-138969560D01*
X149462139Y-138989139D01*
X149442560Y-139006883D01*
X149421337Y-139022623D01*
X149398674Y-139036207D01*
X149374788Y-139047505D01*
X149349909Y-139056406D01*
X149324278Y-139062826D01*
X149298141Y-139066703D01*
X149271750Y-139068000D01*
X148308250Y-139068000D01*
X148281859Y-139066703D01*
X148255722Y-139062826D01*
X148230091Y-139056406D01*
X148205212Y-139047505D01*
X148181326Y-139036207D01*
X148158663Y-139022623D01*
X148137440Y-139006883D01*
X148117861Y-138989139D01*
X148100117Y-138969560D01*
X148084377Y-138948337D01*
X148070793Y-138925674D01*
X148059495Y-138901788D01*
X148050594Y-138876909D01*
X148044174Y-138851278D01*
X148040297Y-138825141D01*
X148039000Y-138798750D01*
X148039000Y-138260250D01*
X148040297Y-138233859D01*
X148044174Y-138207722D01*
X148050594Y-138182091D01*
X148059495Y-138157212D01*
X148070793Y-138133326D01*
X148084377Y-138110663D01*
X148100117Y-138089440D01*
X148117861Y-138069861D01*
X148137440Y-138052117D01*
X148158663Y-138036377D01*
X148181326Y-138022793D01*
X148205212Y-138011495D01*
X148230091Y-138002594D01*
X148255722Y-137996174D01*
X148281859Y-137992297D01*
X148308250Y-137991000D01*
X149271750Y-137991000D01*
X149298141Y-137992297D01*
X149298141Y-137992297D01*
G37*
D33*
X148790000Y-138529500D03*
D14*
G36*
X149298141Y-136117297D02*
G01*
X149324278Y-136121174D01*
X149349909Y-136127594D01*
X149374788Y-136136495D01*
X149398674Y-136147793D01*
X149421337Y-136161377D01*
X149442560Y-136177117D01*
X149462139Y-136194861D01*
X149479883Y-136214440D01*
X149495623Y-136235663D01*
X149509207Y-136258326D01*
X149520505Y-136282212D01*
X149529406Y-136307091D01*
X149535826Y-136332722D01*
X149539703Y-136358859D01*
X149541000Y-136385250D01*
X149541000Y-136923750D01*
X149539703Y-136950141D01*
X149535826Y-136976278D01*
X149529406Y-137001909D01*
X149520505Y-137026788D01*
X149509207Y-137050674D01*
X149495623Y-137073337D01*
X149479883Y-137094560D01*
X149462139Y-137114139D01*
X149442560Y-137131883D01*
X149421337Y-137147623D01*
X149398674Y-137161207D01*
X149374788Y-137172505D01*
X149349909Y-137181406D01*
X149324278Y-137187826D01*
X149298141Y-137191703D01*
X149271750Y-137193000D01*
X148308250Y-137193000D01*
X148281859Y-137191703D01*
X148255722Y-137187826D01*
X148230091Y-137181406D01*
X148205212Y-137172505D01*
X148181326Y-137161207D01*
X148158663Y-137147623D01*
X148137440Y-137131883D01*
X148117861Y-137114139D01*
X148100117Y-137094560D01*
X148084377Y-137073337D01*
X148070793Y-137050674D01*
X148059495Y-137026788D01*
X148050594Y-137001909D01*
X148044174Y-136976278D01*
X148040297Y-136950141D01*
X148039000Y-136923750D01*
X148039000Y-136385250D01*
X148040297Y-136358859D01*
X148044174Y-136332722D01*
X148050594Y-136307091D01*
X148059495Y-136282212D01*
X148070793Y-136258326D01*
X148084377Y-136235663D01*
X148100117Y-136214440D01*
X148117861Y-136194861D01*
X148137440Y-136177117D01*
X148158663Y-136161377D01*
X148181326Y-136147793D01*
X148205212Y-136136495D01*
X148230091Y-136127594D01*
X148255722Y-136121174D01*
X148281859Y-136117297D01*
X148308250Y-136116000D01*
X149271750Y-136116000D01*
X149298141Y-136117297D01*
X149298141Y-136117297D01*
G37*
D33*
X148790000Y-136654500D03*
D14*
G36*
X145328691Y-140005176D02*
G01*
X145352401Y-140008693D01*
X145375652Y-140014517D01*
X145398220Y-140022592D01*
X145419889Y-140032841D01*
X145440448Y-140045164D01*
X145459701Y-140059442D01*
X145477461Y-140075539D01*
X145493558Y-140093299D01*
X145507836Y-140112552D01*
X145520159Y-140133111D01*
X145530408Y-140154780D01*
X145538483Y-140177348D01*
X145544307Y-140200599D01*
X145547824Y-140224309D01*
X145549000Y-140248250D01*
X145549000Y-140811750D01*
X145547824Y-140835691D01*
X145544307Y-140859401D01*
X145538483Y-140882652D01*
X145530408Y-140905220D01*
X145520159Y-140926889D01*
X145507836Y-140947448D01*
X145493558Y-140966701D01*
X145477461Y-140984461D01*
X145459701Y-141000558D01*
X145440448Y-141014836D01*
X145419889Y-141027159D01*
X145398220Y-141037408D01*
X145375652Y-141045483D01*
X145352401Y-141051307D01*
X145328691Y-141054824D01*
X145304750Y-141056000D01*
X144816250Y-141056000D01*
X144792309Y-141054824D01*
X144768599Y-141051307D01*
X144745348Y-141045483D01*
X144722780Y-141037408D01*
X144701111Y-141027159D01*
X144680552Y-141014836D01*
X144661299Y-141000558D01*
X144643539Y-140984461D01*
X144627442Y-140966701D01*
X144613164Y-140947448D01*
X144600841Y-140926889D01*
X144590592Y-140905220D01*
X144582517Y-140882652D01*
X144576693Y-140859401D01*
X144573176Y-140835691D01*
X144572000Y-140811750D01*
X144572000Y-140248250D01*
X144573176Y-140224309D01*
X144576693Y-140200599D01*
X144582517Y-140177348D01*
X144590592Y-140154780D01*
X144600841Y-140133111D01*
X144613164Y-140112552D01*
X144627442Y-140093299D01*
X144643539Y-140075539D01*
X144661299Y-140059442D01*
X144680552Y-140045164D01*
X144701111Y-140032841D01*
X144722780Y-140022592D01*
X144745348Y-140014517D01*
X144768599Y-140008693D01*
X144792309Y-140005176D01*
X144816250Y-140004000D01*
X145304750Y-140004000D01*
X145328691Y-140005176D01*
X145328691Y-140005176D01*
G37*
D20*
X145060500Y-140530000D03*
D14*
G36*
X146903691Y-140005176D02*
G01*
X146927401Y-140008693D01*
X146950652Y-140014517D01*
X146973220Y-140022592D01*
X146994889Y-140032841D01*
X147015448Y-140045164D01*
X147034701Y-140059442D01*
X147052461Y-140075539D01*
X147068558Y-140093299D01*
X147082836Y-140112552D01*
X147095159Y-140133111D01*
X147105408Y-140154780D01*
X147113483Y-140177348D01*
X147119307Y-140200599D01*
X147122824Y-140224309D01*
X147124000Y-140248250D01*
X147124000Y-140811750D01*
X147122824Y-140835691D01*
X147119307Y-140859401D01*
X147113483Y-140882652D01*
X147105408Y-140905220D01*
X147095159Y-140926889D01*
X147082836Y-140947448D01*
X147068558Y-140966701D01*
X147052461Y-140984461D01*
X147034701Y-141000558D01*
X147015448Y-141014836D01*
X146994889Y-141027159D01*
X146973220Y-141037408D01*
X146950652Y-141045483D01*
X146927401Y-141051307D01*
X146903691Y-141054824D01*
X146879750Y-141056000D01*
X146391250Y-141056000D01*
X146367309Y-141054824D01*
X146343599Y-141051307D01*
X146320348Y-141045483D01*
X146297780Y-141037408D01*
X146276111Y-141027159D01*
X146255552Y-141014836D01*
X146236299Y-141000558D01*
X146218539Y-140984461D01*
X146202442Y-140966701D01*
X146188164Y-140947448D01*
X146175841Y-140926889D01*
X146165592Y-140905220D01*
X146157517Y-140882652D01*
X146151693Y-140859401D01*
X146148176Y-140835691D01*
X146147000Y-140811750D01*
X146147000Y-140248250D01*
X146148176Y-140224309D01*
X146151693Y-140200599D01*
X146157517Y-140177348D01*
X146165592Y-140154780D01*
X146175841Y-140133111D01*
X146188164Y-140112552D01*
X146202442Y-140093299D01*
X146218539Y-140075539D01*
X146236299Y-140059442D01*
X146255552Y-140045164D01*
X146276111Y-140032841D01*
X146297780Y-140022592D01*
X146320348Y-140014517D01*
X146343599Y-140008693D01*
X146367309Y-140005176D01*
X146391250Y-140004000D01*
X146879750Y-140004000D01*
X146903691Y-140005176D01*
X146903691Y-140005176D01*
G37*
D20*
X146635500Y-140530000D03*
D14*
G36*
X171095691Y-152770176D02*
G01*
X171119401Y-152773693D01*
X171142652Y-152779517D01*
X171165220Y-152787592D01*
X171186889Y-152797841D01*
X171207448Y-152810164D01*
X171226701Y-152824442D01*
X171244461Y-152840539D01*
X171260558Y-152858299D01*
X171274836Y-152877552D01*
X171287159Y-152898111D01*
X171297408Y-152919780D01*
X171305483Y-152942348D01*
X171311307Y-152965599D01*
X171314824Y-152989309D01*
X171316000Y-153013250D01*
X171316000Y-153501750D01*
X171314824Y-153525691D01*
X171311307Y-153549401D01*
X171305483Y-153572652D01*
X171297408Y-153595220D01*
X171287159Y-153616889D01*
X171274836Y-153637448D01*
X171260558Y-153656701D01*
X171244461Y-153674461D01*
X171226701Y-153690558D01*
X171207448Y-153704836D01*
X171186889Y-153717159D01*
X171165220Y-153727408D01*
X171142652Y-153735483D01*
X171119401Y-153741307D01*
X171095691Y-153744824D01*
X171071750Y-153746000D01*
X170508250Y-153746000D01*
X170484309Y-153744824D01*
X170460599Y-153741307D01*
X170437348Y-153735483D01*
X170414780Y-153727408D01*
X170393111Y-153717159D01*
X170372552Y-153704836D01*
X170353299Y-153690558D01*
X170335539Y-153674461D01*
X170319442Y-153656701D01*
X170305164Y-153637448D01*
X170292841Y-153616889D01*
X170282592Y-153595220D01*
X170274517Y-153572652D01*
X170268693Y-153549401D01*
X170265176Y-153525691D01*
X170264000Y-153501750D01*
X170264000Y-153013250D01*
X170265176Y-152989309D01*
X170268693Y-152965599D01*
X170274517Y-152942348D01*
X170282592Y-152919780D01*
X170292841Y-152898111D01*
X170305164Y-152877552D01*
X170319442Y-152858299D01*
X170335539Y-152840539D01*
X170353299Y-152824442D01*
X170372552Y-152810164D01*
X170393111Y-152797841D01*
X170414780Y-152787592D01*
X170437348Y-152779517D01*
X170460599Y-152773693D01*
X170484309Y-152770176D01*
X170508250Y-152769000D01*
X171071750Y-152769000D01*
X171095691Y-152770176D01*
X171095691Y-152770176D01*
G37*
D20*
X170790000Y-153257500D03*
D14*
G36*
X171095691Y-151195176D02*
G01*
X171119401Y-151198693D01*
X171142652Y-151204517D01*
X171165220Y-151212592D01*
X171186889Y-151222841D01*
X171207448Y-151235164D01*
X171226701Y-151249442D01*
X171244461Y-151265539D01*
X171260558Y-151283299D01*
X171274836Y-151302552D01*
X171287159Y-151323111D01*
X171297408Y-151344780D01*
X171305483Y-151367348D01*
X171311307Y-151390599D01*
X171314824Y-151414309D01*
X171316000Y-151438250D01*
X171316000Y-151926750D01*
X171314824Y-151950691D01*
X171311307Y-151974401D01*
X171305483Y-151997652D01*
X171297408Y-152020220D01*
X171287159Y-152041889D01*
X171274836Y-152062448D01*
X171260558Y-152081701D01*
X171244461Y-152099461D01*
X171226701Y-152115558D01*
X171207448Y-152129836D01*
X171186889Y-152142159D01*
X171165220Y-152152408D01*
X171142652Y-152160483D01*
X171119401Y-152166307D01*
X171095691Y-152169824D01*
X171071750Y-152171000D01*
X170508250Y-152171000D01*
X170484309Y-152169824D01*
X170460599Y-152166307D01*
X170437348Y-152160483D01*
X170414780Y-152152408D01*
X170393111Y-152142159D01*
X170372552Y-152129836D01*
X170353299Y-152115558D01*
X170335539Y-152099461D01*
X170319442Y-152081701D01*
X170305164Y-152062448D01*
X170292841Y-152041889D01*
X170282592Y-152020220D01*
X170274517Y-151997652D01*
X170268693Y-151974401D01*
X170265176Y-151950691D01*
X170264000Y-151926750D01*
X170264000Y-151438250D01*
X170265176Y-151414309D01*
X170268693Y-151390599D01*
X170274517Y-151367348D01*
X170282592Y-151344780D01*
X170292841Y-151323111D01*
X170305164Y-151302552D01*
X170319442Y-151283299D01*
X170335539Y-151265539D01*
X170353299Y-151249442D01*
X170372552Y-151235164D01*
X170393111Y-151222841D01*
X170414780Y-151212592D01*
X170437348Y-151204517D01*
X170460599Y-151198693D01*
X170484309Y-151195176D01*
X170508250Y-151194000D01*
X171071750Y-151194000D01*
X171095691Y-151195176D01*
X171095691Y-151195176D01*
G37*
D20*
X170790000Y-151682500D03*
D14*
G36*
X164845691Y-151295176D02*
G01*
X164869401Y-151298693D01*
X164892652Y-151304517D01*
X164915220Y-151312592D01*
X164936889Y-151322841D01*
X164957448Y-151335164D01*
X164976701Y-151349442D01*
X164994461Y-151365539D01*
X165010558Y-151383299D01*
X165024836Y-151402552D01*
X165037159Y-151423111D01*
X165047408Y-151444780D01*
X165055483Y-151467348D01*
X165061307Y-151490599D01*
X165064824Y-151514309D01*
X165066000Y-151538250D01*
X165066000Y-152026750D01*
X165064824Y-152050691D01*
X165061307Y-152074401D01*
X165055483Y-152097652D01*
X165047408Y-152120220D01*
X165037159Y-152141889D01*
X165024836Y-152162448D01*
X165010558Y-152181701D01*
X164994461Y-152199461D01*
X164976701Y-152215558D01*
X164957448Y-152229836D01*
X164936889Y-152242159D01*
X164915220Y-152252408D01*
X164892652Y-152260483D01*
X164869401Y-152266307D01*
X164845691Y-152269824D01*
X164821750Y-152271000D01*
X164258250Y-152271000D01*
X164234309Y-152269824D01*
X164210599Y-152266307D01*
X164187348Y-152260483D01*
X164164780Y-152252408D01*
X164143111Y-152242159D01*
X164122552Y-152229836D01*
X164103299Y-152215558D01*
X164085539Y-152199461D01*
X164069442Y-152181701D01*
X164055164Y-152162448D01*
X164042841Y-152141889D01*
X164032592Y-152120220D01*
X164024517Y-152097652D01*
X164018693Y-152074401D01*
X164015176Y-152050691D01*
X164014000Y-152026750D01*
X164014000Y-151538250D01*
X164015176Y-151514309D01*
X164018693Y-151490599D01*
X164024517Y-151467348D01*
X164032592Y-151444780D01*
X164042841Y-151423111D01*
X164055164Y-151402552D01*
X164069442Y-151383299D01*
X164085539Y-151365539D01*
X164103299Y-151349442D01*
X164122552Y-151335164D01*
X164143111Y-151322841D01*
X164164780Y-151312592D01*
X164187348Y-151304517D01*
X164210599Y-151298693D01*
X164234309Y-151295176D01*
X164258250Y-151294000D01*
X164821750Y-151294000D01*
X164845691Y-151295176D01*
X164845691Y-151295176D01*
G37*
D20*
X164540000Y-151782500D03*
D14*
G36*
X164845691Y-152870176D02*
G01*
X164869401Y-152873693D01*
X164892652Y-152879517D01*
X164915220Y-152887592D01*
X164936889Y-152897841D01*
X164957448Y-152910164D01*
X164976701Y-152924442D01*
X164994461Y-152940539D01*
X165010558Y-152958299D01*
X165024836Y-152977552D01*
X165037159Y-152998111D01*
X165047408Y-153019780D01*
X165055483Y-153042348D01*
X165061307Y-153065599D01*
X165064824Y-153089309D01*
X165066000Y-153113250D01*
X165066000Y-153601750D01*
X165064824Y-153625691D01*
X165061307Y-153649401D01*
X165055483Y-153672652D01*
X165047408Y-153695220D01*
X165037159Y-153716889D01*
X165024836Y-153737448D01*
X165010558Y-153756701D01*
X164994461Y-153774461D01*
X164976701Y-153790558D01*
X164957448Y-153804836D01*
X164936889Y-153817159D01*
X164915220Y-153827408D01*
X164892652Y-153835483D01*
X164869401Y-153841307D01*
X164845691Y-153844824D01*
X164821750Y-153846000D01*
X164258250Y-153846000D01*
X164234309Y-153844824D01*
X164210599Y-153841307D01*
X164187348Y-153835483D01*
X164164780Y-153827408D01*
X164143111Y-153817159D01*
X164122552Y-153804836D01*
X164103299Y-153790558D01*
X164085539Y-153774461D01*
X164069442Y-153756701D01*
X164055164Y-153737448D01*
X164042841Y-153716889D01*
X164032592Y-153695220D01*
X164024517Y-153672652D01*
X164018693Y-153649401D01*
X164015176Y-153625691D01*
X164014000Y-153601750D01*
X164014000Y-153113250D01*
X164015176Y-153089309D01*
X164018693Y-153065599D01*
X164024517Y-153042348D01*
X164032592Y-153019780D01*
X164042841Y-152998111D01*
X164055164Y-152977552D01*
X164069442Y-152958299D01*
X164085539Y-152940539D01*
X164103299Y-152924442D01*
X164122552Y-152910164D01*
X164143111Y-152897841D01*
X164164780Y-152887592D01*
X164187348Y-152879517D01*
X164210599Y-152873693D01*
X164234309Y-152870176D01*
X164258250Y-152869000D01*
X164821750Y-152869000D01*
X164845691Y-152870176D01*
X164845691Y-152870176D01*
G37*
D20*
X164540000Y-153357500D03*
D14*
G36*
X142568141Y-137992297D02*
G01*
X142594278Y-137996174D01*
X142619909Y-138002594D01*
X142644788Y-138011495D01*
X142668674Y-138022793D01*
X142691337Y-138036377D01*
X142712560Y-138052117D01*
X142732139Y-138069861D01*
X142749883Y-138089440D01*
X142765623Y-138110663D01*
X142779207Y-138133326D01*
X142790505Y-138157212D01*
X142799406Y-138182091D01*
X142805826Y-138207722D01*
X142809703Y-138233859D01*
X142811000Y-138260250D01*
X142811000Y-138798750D01*
X142809703Y-138825141D01*
X142805826Y-138851278D01*
X142799406Y-138876909D01*
X142790505Y-138901788D01*
X142779207Y-138925674D01*
X142765623Y-138948337D01*
X142749883Y-138969560D01*
X142732139Y-138989139D01*
X142712560Y-139006883D01*
X142691337Y-139022623D01*
X142668674Y-139036207D01*
X142644788Y-139047505D01*
X142619909Y-139056406D01*
X142594278Y-139062826D01*
X142568141Y-139066703D01*
X142541750Y-139068000D01*
X141578250Y-139068000D01*
X141551859Y-139066703D01*
X141525722Y-139062826D01*
X141500091Y-139056406D01*
X141475212Y-139047505D01*
X141451326Y-139036207D01*
X141428663Y-139022623D01*
X141407440Y-139006883D01*
X141387861Y-138989139D01*
X141370117Y-138969560D01*
X141354377Y-138948337D01*
X141340793Y-138925674D01*
X141329495Y-138901788D01*
X141320594Y-138876909D01*
X141314174Y-138851278D01*
X141310297Y-138825141D01*
X141309000Y-138798750D01*
X141309000Y-138260250D01*
X141310297Y-138233859D01*
X141314174Y-138207722D01*
X141320594Y-138182091D01*
X141329495Y-138157212D01*
X141340793Y-138133326D01*
X141354377Y-138110663D01*
X141370117Y-138089440D01*
X141387861Y-138069861D01*
X141407440Y-138052117D01*
X141428663Y-138036377D01*
X141451326Y-138022793D01*
X141475212Y-138011495D01*
X141500091Y-138002594D01*
X141525722Y-137996174D01*
X141551859Y-137992297D01*
X141578250Y-137991000D01*
X142541750Y-137991000D01*
X142568141Y-137992297D01*
X142568141Y-137992297D01*
G37*
D33*
X142060000Y-138529500D03*
D14*
G36*
X142568141Y-136117297D02*
G01*
X142594278Y-136121174D01*
X142619909Y-136127594D01*
X142644788Y-136136495D01*
X142668674Y-136147793D01*
X142691337Y-136161377D01*
X142712560Y-136177117D01*
X142732139Y-136194861D01*
X142749883Y-136214440D01*
X142765623Y-136235663D01*
X142779207Y-136258326D01*
X142790505Y-136282212D01*
X142799406Y-136307091D01*
X142805826Y-136332722D01*
X142809703Y-136358859D01*
X142811000Y-136385250D01*
X142811000Y-136923750D01*
X142809703Y-136950141D01*
X142805826Y-136976278D01*
X142799406Y-137001909D01*
X142790505Y-137026788D01*
X142779207Y-137050674D01*
X142765623Y-137073337D01*
X142749883Y-137094560D01*
X142732139Y-137114139D01*
X142712560Y-137131883D01*
X142691337Y-137147623D01*
X142668674Y-137161207D01*
X142644788Y-137172505D01*
X142619909Y-137181406D01*
X142594278Y-137187826D01*
X142568141Y-137191703D01*
X142541750Y-137193000D01*
X141578250Y-137193000D01*
X141551859Y-137191703D01*
X141525722Y-137187826D01*
X141500091Y-137181406D01*
X141475212Y-137172505D01*
X141451326Y-137161207D01*
X141428663Y-137147623D01*
X141407440Y-137131883D01*
X141387861Y-137114139D01*
X141370117Y-137094560D01*
X141354377Y-137073337D01*
X141340793Y-137050674D01*
X141329495Y-137026788D01*
X141320594Y-137001909D01*
X141314174Y-136976278D01*
X141310297Y-136950141D01*
X141309000Y-136923750D01*
X141309000Y-136385250D01*
X141310297Y-136358859D01*
X141314174Y-136332722D01*
X141320594Y-136307091D01*
X141329495Y-136282212D01*
X141340793Y-136258326D01*
X141354377Y-136235663D01*
X141370117Y-136214440D01*
X141387861Y-136194861D01*
X141407440Y-136177117D01*
X141428663Y-136161377D01*
X141451326Y-136147793D01*
X141475212Y-136136495D01*
X141500091Y-136127594D01*
X141525722Y-136121174D01*
X141551859Y-136117297D01*
X141578250Y-136116000D01*
X142541750Y-136116000D01*
X142568141Y-136117297D01*
X142568141Y-136117297D01*
G37*
D33*
X142060000Y-136654500D03*
D14*
G36*
X151468691Y-149645176D02*
G01*
X151492401Y-149648693D01*
X151515652Y-149654517D01*
X151538220Y-149662592D01*
X151559889Y-149672841D01*
X151580448Y-149685164D01*
X151599701Y-149699442D01*
X151617461Y-149715539D01*
X151633558Y-149733299D01*
X151647836Y-149752552D01*
X151660159Y-149773111D01*
X151670408Y-149794780D01*
X151678483Y-149817348D01*
X151684307Y-149840599D01*
X151687824Y-149864309D01*
X151689000Y-149888250D01*
X151689000Y-150451750D01*
X151687824Y-150475691D01*
X151684307Y-150499401D01*
X151678483Y-150522652D01*
X151670408Y-150545220D01*
X151660159Y-150566889D01*
X151647836Y-150587448D01*
X151633558Y-150606701D01*
X151617461Y-150624461D01*
X151599701Y-150640558D01*
X151580448Y-150654836D01*
X151559889Y-150667159D01*
X151538220Y-150677408D01*
X151515652Y-150685483D01*
X151492401Y-150691307D01*
X151468691Y-150694824D01*
X151444750Y-150696000D01*
X150956250Y-150696000D01*
X150932309Y-150694824D01*
X150908599Y-150691307D01*
X150885348Y-150685483D01*
X150862780Y-150677408D01*
X150841111Y-150667159D01*
X150820552Y-150654836D01*
X150801299Y-150640558D01*
X150783539Y-150624461D01*
X150767442Y-150606701D01*
X150753164Y-150587448D01*
X150740841Y-150566889D01*
X150730592Y-150545220D01*
X150722517Y-150522652D01*
X150716693Y-150499401D01*
X150713176Y-150475691D01*
X150712000Y-150451750D01*
X150712000Y-149888250D01*
X150713176Y-149864309D01*
X150716693Y-149840599D01*
X150722517Y-149817348D01*
X150730592Y-149794780D01*
X150740841Y-149773111D01*
X150753164Y-149752552D01*
X150767442Y-149733299D01*
X150783539Y-149715539D01*
X150801299Y-149699442D01*
X150820552Y-149685164D01*
X150841111Y-149672841D01*
X150862780Y-149662592D01*
X150885348Y-149654517D01*
X150908599Y-149648693D01*
X150932309Y-149645176D01*
X150956250Y-149644000D01*
X151444750Y-149644000D01*
X151468691Y-149645176D01*
X151468691Y-149645176D01*
G37*
D20*
X151200500Y-150170000D03*
D14*
G36*
X153043691Y-149645176D02*
G01*
X153067401Y-149648693D01*
X153090652Y-149654517D01*
X153113220Y-149662592D01*
X153134889Y-149672841D01*
X153155448Y-149685164D01*
X153174701Y-149699442D01*
X153192461Y-149715539D01*
X153208558Y-149733299D01*
X153222836Y-149752552D01*
X153235159Y-149773111D01*
X153245408Y-149794780D01*
X153253483Y-149817348D01*
X153259307Y-149840599D01*
X153262824Y-149864309D01*
X153264000Y-149888250D01*
X153264000Y-150451750D01*
X153262824Y-150475691D01*
X153259307Y-150499401D01*
X153253483Y-150522652D01*
X153245408Y-150545220D01*
X153235159Y-150566889D01*
X153222836Y-150587448D01*
X153208558Y-150606701D01*
X153192461Y-150624461D01*
X153174701Y-150640558D01*
X153155448Y-150654836D01*
X153134889Y-150667159D01*
X153113220Y-150677408D01*
X153090652Y-150685483D01*
X153067401Y-150691307D01*
X153043691Y-150694824D01*
X153019750Y-150696000D01*
X152531250Y-150696000D01*
X152507309Y-150694824D01*
X152483599Y-150691307D01*
X152460348Y-150685483D01*
X152437780Y-150677408D01*
X152416111Y-150667159D01*
X152395552Y-150654836D01*
X152376299Y-150640558D01*
X152358539Y-150624461D01*
X152342442Y-150606701D01*
X152328164Y-150587448D01*
X152315841Y-150566889D01*
X152305592Y-150545220D01*
X152297517Y-150522652D01*
X152291693Y-150499401D01*
X152288176Y-150475691D01*
X152287000Y-150451750D01*
X152287000Y-149888250D01*
X152288176Y-149864309D01*
X152291693Y-149840599D01*
X152297517Y-149817348D01*
X152305592Y-149794780D01*
X152315841Y-149773111D01*
X152328164Y-149752552D01*
X152342442Y-149733299D01*
X152358539Y-149715539D01*
X152376299Y-149699442D01*
X152395552Y-149685164D01*
X152416111Y-149672841D01*
X152437780Y-149662592D01*
X152460348Y-149654517D01*
X152483599Y-149648693D01*
X152507309Y-149645176D01*
X152531250Y-149644000D01*
X153019750Y-149644000D01*
X153043691Y-149645176D01*
X153043691Y-149645176D01*
G37*
D20*
X152775500Y-150170000D03*
M02*
