G04 #@! TF.GenerationSoftware,KiCad,Pcbnew,(5.1.2)-1*
G04 #@! TF.CreationDate,2022-02-25T21:01:52+09:00*
G04 #@! TF.ProjectId,wcc,7763632e-6b69-4636-9164-5f7063625858,v2.2*
G04 #@! TF.SameCoordinates,Original*
G04 #@! TF.FileFunction,Soldermask,Top*
G04 #@! TF.FilePolarity,Negative*
%FSLAX46Y46*%
G04 Gerber Fmt 4.6, Leading zero omitted, Abs format (unit mm)*
G04 Created by KiCad (PCBNEW (5.1.2)-1) date 2022-02-25 21:01:52*
%MOMM*%
%LPD*%
G04 APERTURE LIST*
%ADD10C,0.100000*%
G04 APERTURE END LIST*
D10*
G36*
X153450443Y-152555519D02*
G01*
X153516627Y-152562037D01*
X153686466Y-152613557D01*
X153842991Y-152697222D01*
X153878729Y-152726552D01*
X153980186Y-152809814D01*
X154062540Y-152910164D01*
X154092778Y-152947009D01*
X154176443Y-153103534D01*
X154227963Y-153273373D01*
X154245359Y-153450000D01*
X154227963Y-153626627D01*
X154176443Y-153796466D01*
X154092778Y-153952991D01*
X154063448Y-153988729D01*
X153980186Y-154090186D01*
X153878729Y-154173448D01*
X153842991Y-154202778D01*
X153686466Y-154286443D01*
X153516627Y-154337963D01*
X153450443Y-154344481D01*
X153384260Y-154351000D01*
X153295740Y-154351000D01*
X153229557Y-154344481D01*
X153163373Y-154337963D01*
X152993534Y-154286443D01*
X152837009Y-154202778D01*
X152801271Y-154173448D01*
X152699814Y-154090186D01*
X152616552Y-153988729D01*
X152587222Y-153952991D01*
X152503557Y-153796466D01*
X152452037Y-153626627D01*
X152434641Y-153450000D01*
X152452037Y-153273373D01*
X152503557Y-153103534D01*
X152587222Y-152947009D01*
X152617460Y-152910164D01*
X152699814Y-152809814D01*
X152801271Y-152726552D01*
X152837009Y-152697222D01*
X152993534Y-152613557D01*
X153163373Y-152562037D01*
X153229557Y-152555519D01*
X153295740Y-152549000D01*
X153384260Y-152549000D01*
X153450443Y-152555519D01*
X153450443Y-152555519D01*
G37*
G36*
X151701000Y-154351000D02*
G01*
X149899000Y-154351000D01*
X149899000Y-152549000D01*
X151701000Y-152549000D01*
X151701000Y-154351000D01*
X151701000Y-154351000D01*
G37*
G36*
X147290443Y-152555519D02*
G01*
X147356627Y-152562037D01*
X147526466Y-152613557D01*
X147682991Y-152697222D01*
X147718729Y-152726552D01*
X147820186Y-152809814D01*
X147902540Y-152910164D01*
X147932778Y-152947009D01*
X148016443Y-153103534D01*
X148067963Y-153273373D01*
X148085359Y-153450000D01*
X148067963Y-153626627D01*
X148016443Y-153796466D01*
X147932778Y-153952991D01*
X147903448Y-153988729D01*
X147820186Y-154090186D01*
X147718729Y-154173448D01*
X147682991Y-154202778D01*
X147526466Y-154286443D01*
X147356627Y-154337963D01*
X147290443Y-154344481D01*
X147224260Y-154351000D01*
X147135740Y-154351000D01*
X147069557Y-154344481D01*
X147003373Y-154337963D01*
X146833534Y-154286443D01*
X146677009Y-154202778D01*
X146641271Y-154173448D01*
X146539814Y-154090186D01*
X146456552Y-153988729D01*
X146427222Y-153952991D01*
X146343557Y-153796466D01*
X146292037Y-153626627D01*
X146274641Y-153450000D01*
X146292037Y-153273373D01*
X146343557Y-153103534D01*
X146427222Y-152947009D01*
X146457460Y-152910164D01*
X146539814Y-152809814D01*
X146641271Y-152726552D01*
X146677009Y-152697222D01*
X146833534Y-152613557D01*
X147003373Y-152562037D01*
X147069557Y-152555519D01*
X147135740Y-152549000D01*
X147224260Y-152549000D01*
X147290443Y-152555519D01*
X147290443Y-152555519D01*
G37*
G36*
X144750443Y-152555519D02*
G01*
X144816627Y-152562037D01*
X144986466Y-152613557D01*
X145142991Y-152697222D01*
X145178729Y-152726552D01*
X145280186Y-152809814D01*
X145362540Y-152910164D01*
X145392778Y-152947009D01*
X145476443Y-153103534D01*
X145527963Y-153273373D01*
X145545359Y-153450000D01*
X145527963Y-153626627D01*
X145476443Y-153796466D01*
X145392778Y-153952991D01*
X145363448Y-153988729D01*
X145280186Y-154090186D01*
X145178729Y-154173448D01*
X145142991Y-154202778D01*
X144986466Y-154286443D01*
X144816627Y-154337963D01*
X144750443Y-154344481D01*
X144684260Y-154351000D01*
X144595740Y-154351000D01*
X144529557Y-154344481D01*
X144463373Y-154337963D01*
X144293534Y-154286443D01*
X144137009Y-154202778D01*
X144101271Y-154173448D01*
X143999814Y-154090186D01*
X143916552Y-153988729D01*
X143887222Y-153952991D01*
X143803557Y-153796466D01*
X143752037Y-153626627D01*
X143734641Y-153450000D01*
X143752037Y-153273373D01*
X143803557Y-153103534D01*
X143887222Y-152947009D01*
X143917460Y-152910164D01*
X143999814Y-152809814D01*
X144101271Y-152726552D01*
X144137009Y-152697222D01*
X144293534Y-152613557D01*
X144463373Y-152562037D01*
X144529557Y-152555519D01*
X144595740Y-152549000D01*
X144684260Y-152549000D01*
X144750443Y-152555519D01*
X144750443Y-152555519D01*
G37*
G36*
X140461000Y-154351000D02*
G01*
X138659000Y-154351000D01*
X138659000Y-152549000D01*
X140461000Y-152549000D01*
X140461000Y-154351000D01*
X140461000Y-154351000D01*
G37*
G36*
X142210443Y-152555519D02*
G01*
X142276627Y-152562037D01*
X142446466Y-152613557D01*
X142602991Y-152697222D01*
X142638729Y-152726552D01*
X142740186Y-152809814D01*
X142822540Y-152910164D01*
X142852778Y-152947009D01*
X142936443Y-153103534D01*
X142987963Y-153273373D01*
X143005359Y-153450000D01*
X142987963Y-153626627D01*
X142936443Y-153796466D01*
X142852778Y-153952991D01*
X142823448Y-153988729D01*
X142740186Y-154090186D01*
X142638729Y-154173448D01*
X142602991Y-154202778D01*
X142446466Y-154286443D01*
X142276627Y-154337963D01*
X142210443Y-154344481D01*
X142144260Y-154351000D01*
X142055740Y-154351000D01*
X141989557Y-154344481D01*
X141923373Y-154337963D01*
X141753534Y-154286443D01*
X141597009Y-154202778D01*
X141561271Y-154173448D01*
X141459814Y-154090186D01*
X141376552Y-153988729D01*
X141347222Y-153952991D01*
X141263557Y-153796466D01*
X141212037Y-153626627D01*
X141194641Y-153450000D01*
X141212037Y-153273373D01*
X141263557Y-153103534D01*
X141347222Y-152947009D01*
X141377460Y-152910164D01*
X141459814Y-152809814D01*
X141561271Y-152726552D01*
X141597009Y-152697222D01*
X141753534Y-152613557D01*
X141923373Y-152562037D01*
X141989557Y-152555519D01*
X142055740Y-152549000D01*
X142144260Y-152549000D01*
X142210443Y-152555519D01*
X142210443Y-152555519D01*
G37*
G36*
X169591000Y-154121000D02*
G01*
X168089000Y-154121000D01*
X168089000Y-152819000D01*
X169591000Y-152819000D01*
X169591000Y-154121000D01*
X169591000Y-154121000D01*
G37*
G36*
X167191000Y-154121000D02*
G01*
X165689000Y-154121000D01*
X165689000Y-152819000D01*
X167191000Y-152819000D01*
X167191000Y-154121000D01*
X167191000Y-154121000D01*
G37*
G36*
X182950443Y-152105519D02*
G01*
X183016627Y-152112037D01*
X183186466Y-152163557D01*
X183342991Y-152247222D01*
X183365066Y-152265339D01*
X183480186Y-152359814D01*
X183563448Y-152461271D01*
X183592778Y-152497009D01*
X183676443Y-152653534D01*
X183727963Y-152823373D01*
X183745359Y-153000000D01*
X183727963Y-153176627D01*
X183676443Y-153346466D01*
X183592778Y-153502991D01*
X183563448Y-153538729D01*
X183480186Y-153640186D01*
X183399856Y-153706110D01*
X183342991Y-153752778D01*
X183342989Y-153752779D01*
X183195514Y-153831607D01*
X183186466Y-153836443D01*
X183016627Y-153887963D01*
X182955331Y-153894000D01*
X182884260Y-153901000D01*
X182795740Y-153901000D01*
X182724669Y-153894000D01*
X182663373Y-153887963D01*
X182493534Y-153836443D01*
X182484487Y-153831607D01*
X182337011Y-153752779D01*
X182337009Y-153752778D01*
X182280144Y-153706110D01*
X182199814Y-153640186D01*
X182116552Y-153538729D01*
X182087222Y-153502991D01*
X182003557Y-153346466D01*
X181952037Y-153176627D01*
X181934641Y-153000000D01*
X181952037Y-152823373D01*
X182003557Y-152653534D01*
X182087222Y-152497009D01*
X182116552Y-152461271D01*
X182199814Y-152359814D01*
X182314934Y-152265339D01*
X182337009Y-152247222D01*
X182493534Y-152163557D01*
X182663373Y-152112037D01*
X182729557Y-152105519D01*
X182795740Y-152099000D01*
X182884260Y-152099000D01*
X182950443Y-152105519D01*
X182950443Y-152105519D01*
G37*
G36*
X185490443Y-152105519D02*
G01*
X185556627Y-152112037D01*
X185726466Y-152163557D01*
X185882991Y-152247222D01*
X185905066Y-152265339D01*
X186020186Y-152359814D01*
X186103448Y-152461271D01*
X186132778Y-152497009D01*
X186216443Y-152653534D01*
X186267963Y-152823373D01*
X186285359Y-153000000D01*
X186267963Y-153176627D01*
X186216443Y-153346466D01*
X186132778Y-153502991D01*
X186103448Y-153538729D01*
X186020186Y-153640186D01*
X185939856Y-153706110D01*
X185882991Y-153752778D01*
X185882989Y-153752779D01*
X185735514Y-153831607D01*
X185726466Y-153836443D01*
X185556627Y-153887963D01*
X185495331Y-153894000D01*
X185424260Y-153901000D01*
X185335740Y-153901000D01*
X185264669Y-153894000D01*
X185203373Y-153887963D01*
X185033534Y-153836443D01*
X185024487Y-153831607D01*
X184877011Y-153752779D01*
X184877009Y-153752778D01*
X184820144Y-153706110D01*
X184739814Y-153640186D01*
X184656552Y-153538729D01*
X184627222Y-153502991D01*
X184543557Y-153346466D01*
X184492037Y-153176627D01*
X184474641Y-153000000D01*
X184492037Y-152823373D01*
X184543557Y-152653534D01*
X184627222Y-152497009D01*
X184656552Y-152461271D01*
X184739814Y-152359814D01*
X184854934Y-152265339D01*
X184877009Y-152247222D01*
X185033534Y-152163557D01*
X185203373Y-152112037D01*
X185269557Y-152105519D01*
X185335740Y-152099000D01*
X185424260Y-152099000D01*
X185490443Y-152105519D01*
X185490443Y-152105519D01*
G37*
G36*
X188030443Y-152105519D02*
G01*
X188096627Y-152112037D01*
X188266466Y-152163557D01*
X188422991Y-152247222D01*
X188445066Y-152265339D01*
X188560186Y-152359814D01*
X188643448Y-152461271D01*
X188672778Y-152497009D01*
X188756443Y-152653534D01*
X188807963Y-152823373D01*
X188825359Y-153000000D01*
X188807963Y-153176627D01*
X188756443Y-153346466D01*
X188672778Y-153502991D01*
X188643448Y-153538729D01*
X188560186Y-153640186D01*
X188479856Y-153706110D01*
X188422991Y-153752778D01*
X188422989Y-153752779D01*
X188275514Y-153831607D01*
X188266466Y-153836443D01*
X188096627Y-153887963D01*
X188035331Y-153894000D01*
X187964260Y-153901000D01*
X187875740Y-153901000D01*
X187804669Y-153894000D01*
X187743373Y-153887963D01*
X187573534Y-153836443D01*
X187564487Y-153831607D01*
X187417011Y-153752779D01*
X187417009Y-153752778D01*
X187360144Y-153706110D01*
X187279814Y-153640186D01*
X187196552Y-153538729D01*
X187167222Y-153502991D01*
X187083557Y-153346466D01*
X187032037Y-153176627D01*
X187014641Y-153000000D01*
X187032037Y-152823373D01*
X187083557Y-152653534D01*
X187167222Y-152497009D01*
X187196552Y-152461271D01*
X187279814Y-152359814D01*
X187394934Y-152265339D01*
X187417009Y-152247222D01*
X187573534Y-152163557D01*
X187743373Y-152112037D01*
X187809557Y-152105519D01*
X187875740Y-152099000D01*
X187964260Y-152099000D01*
X188030443Y-152105519D01*
X188030443Y-152105519D01*
G37*
G36*
X190570443Y-152105519D02*
G01*
X190636627Y-152112037D01*
X190806466Y-152163557D01*
X190962991Y-152247222D01*
X190985066Y-152265339D01*
X191100186Y-152359814D01*
X191183448Y-152461271D01*
X191212778Y-152497009D01*
X191296443Y-152653534D01*
X191347963Y-152823373D01*
X191365359Y-153000000D01*
X191347963Y-153176627D01*
X191296443Y-153346466D01*
X191212778Y-153502991D01*
X191183448Y-153538729D01*
X191100186Y-153640186D01*
X191019856Y-153706110D01*
X190962991Y-153752778D01*
X190962989Y-153752779D01*
X190815514Y-153831607D01*
X190806466Y-153836443D01*
X190636627Y-153887963D01*
X190575331Y-153894000D01*
X190504260Y-153901000D01*
X190415740Y-153901000D01*
X190344669Y-153894000D01*
X190283373Y-153887963D01*
X190113534Y-153836443D01*
X190104487Y-153831607D01*
X189957011Y-153752779D01*
X189957009Y-153752778D01*
X189900144Y-153706110D01*
X189819814Y-153640186D01*
X189736552Y-153538729D01*
X189707222Y-153502991D01*
X189623557Y-153346466D01*
X189572037Y-153176627D01*
X189554641Y-153000000D01*
X189572037Y-152823373D01*
X189623557Y-152653534D01*
X189707222Y-152497009D01*
X189736552Y-152461271D01*
X189819814Y-152359814D01*
X189934934Y-152265339D01*
X189957009Y-152247222D01*
X190113534Y-152163557D01*
X190283373Y-152112037D01*
X190349557Y-152105519D01*
X190415740Y-152099000D01*
X190504260Y-152099000D01*
X190570443Y-152105519D01*
X190570443Y-152105519D01*
G37*
G36*
X193901000Y-153901000D02*
G01*
X192099000Y-153901000D01*
X192099000Y-152099000D01*
X193901000Y-152099000D01*
X193901000Y-153901000D01*
X193901000Y-153901000D01*
G37*
G36*
X180410443Y-152105519D02*
G01*
X180476627Y-152112037D01*
X180646466Y-152163557D01*
X180802991Y-152247222D01*
X180825066Y-152265339D01*
X180940186Y-152359814D01*
X181023448Y-152461271D01*
X181052778Y-152497009D01*
X181136443Y-152653534D01*
X181187963Y-152823373D01*
X181205359Y-153000000D01*
X181187963Y-153176627D01*
X181136443Y-153346466D01*
X181052778Y-153502991D01*
X181023448Y-153538729D01*
X180940186Y-153640186D01*
X180859856Y-153706110D01*
X180802991Y-153752778D01*
X180802989Y-153752779D01*
X180655514Y-153831607D01*
X180646466Y-153836443D01*
X180476627Y-153887963D01*
X180415331Y-153894000D01*
X180344260Y-153901000D01*
X180255740Y-153901000D01*
X180184669Y-153894000D01*
X180123373Y-153887963D01*
X179953534Y-153836443D01*
X179944487Y-153831607D01*
X179797011Y-153752779D01*
X179797009Y-153752778D01*
X179740144Y-153706110D01*
X179659814Y-153640186D01*
X179576552Y-153538729D01*
X179547222Y-153502991D01*
X179463557Y-153346466D01*
X179412037Y-153176627D01*
X179394641Y-153000000D01*
X179412037Y-152823373D01*
X179463557Y-152653534D01*
X179547222Y-152497009D01*
X179576552Y-152461271D01*
X179659814Y-152359814D01*
X179774934Y-152265339D01*
X179797009Y-152247222D01*
X179953534Y-152163557D01*
X180123373Y-152112037D01*
X180189557Y-152105519D01*
X180255740Y-152099000D01*
X180344260Y-152099000D01*
X180410443Y-152105519D01*
X180410443Y-152105519D01*
G37*
G36*
X162069591Y-152921085D02*
G01*
X162103569Y-152931393D01*
X162134890Y-152948134D01*
X162162339Y-152970661D01*
X162184866Y-152998110D01*
X162201607Y-153029431D01*
X162211915Y-153063409D01*
X162216000Y-153104890D01*
X162216000Y-153706110D01*
X162211915Y-153747591D01*
X162201607Y-153781569D01*
X162184866Y-153812890D01*
X162162339Y-153840339D01*
X162134890Y-153862866D01*
X162103569Y-153879607D01*
X162069591Y-153889915D01*
X162028110Y-153894000D01*
X161351890Y-153894000D01*
X161310409Y-153889915D01*
X161276431Y-153879607D01*
X161245110Y-153862866D01*
X161217661Y-153840339D01*
X161195134Y-153812890D01*
X161178393Y-153781569D01*
X161168085Y-153747591D01*
X161164000Y-153706110D01*
X161164000Y-153104890D01*
X161168085Y-153063409D01*
X161178393Y-153029431D01*
X161195134Y-152998110D01*
X161217661Y-152970661D01*
X161245110Y-152948134D01*
X161276431Y-152931393D01*
X161310409Y-152921085D01*
X161351890Y-152917000D01*
X162028110Y-152917000D01*
X162069591Y-152921085D01*
X162069591Y-152921085D01*
G37*
G36*
X159499591Y-152921085D02*
G01*
X159533569Y-152931393D01*
X159564890Y-152948134D01*
X159592339Y-152970661D01*
X159614866Y-152998110D01*
X159631607Y-153029431D01*
X159641915Y-153063409D01*
X159646000Y-153104890D01*
X159646000Y-153706110D01*
X159641915Y-153747591D01*
X159631607Y-153781569D01*
X159614866Y-153812890D01*
X159592339Y-153840339D01*
X159564890Y-153862866D01*
X159533569Y-153879607D01*
X159499591Y-153889915D01*
X159458110Y-153894000D01*
X158781890Y-153894000D01*
X158740409Y-153889915D01*
X158706431Y-153879607D01*
X158675110Y-153862866D01*
X158647661Y-153840339D01*
X158625134Y-153812890D01*
X158608393Y-153781569D01*
X158598085Y-153747591D01*
X158594000Y-153706110D01*
X158594000Y-153104890D01*
X158598085Y-153063409D01*
X158608393Y-153029431D01*
X158625134Y-152998110D01*
X158647661Y-152970661D01*
X158675110Y-152948134D01*
X158706431Y-152931393D01*
X158740409Y-152921085D01*
X158781890Y-152917000D01*
X159458110Y-152917000D01*
X159499591Y-152921085D01*
X159499591Y-152921085D01*
G37*
G36*
X164919591Y-152873085D02*
G01*
X164953569Y-152883393D01*
X164984890Y-152900134D01*
X165012339Y-152922661D01*
X165034866Y-152950110D01*
X165051607Y-152981431D01*
X165061915Y-153015409D01*
X165066000Y-153056890D01*
X165066000Y-153658110D01*
X165061915Y-153699591D01*
X165051607Y-153733569D01*
X165034866Y-153764890D01*
X165012339Y-153792339D01*
X164984890Y-153814866D01*
X164953569Y-153831607D01*
X164919591Y-153841915D01*
X164878110Y-153846000D01*
X164201890Y-153846000D01*
X164160409Y-153841915D01*
X164126431Y-153831607D01*
X164095110Y-153814866D01*
X164067661Y-153792339D01*
X164045134Y-153764890D01*
X164028393Y-153733569D01*
X164018085Y-153699591D01*
X164014000Y-153658110D01*
X164014000Y-153056890D01*
X164018085Y-153015409D01*
X164028393Y-152981431D01*
X164045134Y-152950110D01*
X164067661Y-152922661D01*
X164095110Y-152900134D01*
X164126431Y-152883393D01*
X164160409Y-152873085D01*
X164201890Y-152869000D01*
X164878110Y-152869000D01*
X164919591Y-152873085D01*
X164919591Y-152873085D01*
G37*
G36*
X171169591Y-152773085D02*
G01*
X171203569Y-152783393D01*
X171234890Y-152800134D01*
X171262339Y-152822661D01*
X171284866Y-152850110D01*
X171301607Y-152881431D01*
X171311915Y-152915409D01*
X171316000Y-152956890D01*
X171316000Y-153558110D01*
X171311915Y-153599591D01*
X171301607Y-153633569D01*
X171284866Y-153664890D01*
X171262339Y-153692339D01*
X171234890Y-153714866D01*
X171203569Y-153731607D01*
X171169591Y-153741915D01*
X171128110Y-153746000D01*
X170451890Y-153746000D01*
X170410409Y-153741915D01*
X170376431Y-153731607D01*
X170345110Y-153714866D01*
X170317661Y-153692339D01*
X170295134Y-153664890D01*
X170278393Y-153633569D01*
X170268085Y-153599591D01*
X170264000Y-153558110D01*
X170264000Y-152956890D01*
X170268085Y-152915409D01*
X170278393Y-152881431D01*
X170295134Y-152850110D01*
X170317661Y-152822661D01*
X170345110Y-152800134D01*
X170376431Y-152783393D01*
X170410409Y-152773085D01*
X170451890Y-152769000D01*
X171128110Y-152769000D01*
X171169591Y-152773085D01*
X171169591Y-152773085D01*
G37*
G36*
X176375256Y-150391298D02*
G01*
X176481579Y-150412447D01*
X176782042Y-150536903D01*
X177052451Y-150717585D01*
X177282415Y-150947549D01*
X177463097Y-151217958D01*
X177463098Y-151217960D01*
X177482806Y-151265539D01*
X177587553Y-151518421D01*
X177601045Y-151586250D01*
X177651000Y-151837389D01*
X177651000Y-152162611D01*
X177619892Y-152319000D01*
X177587553Y-152481579D01*
X177463097Y-152782042D01*
X177282415Y-153052451D01*
X177052451Y-153282415D01*
X176782042Y-153463097D01*
X176481579Y-153587553D01*
X176375256Y-153608702D01*
X176162611Y-153651000D01*
X175837389Y-153651000D01*
X175624744Y-153608702D01*
X175518421Y-153587553D01*
X175217958Y-153463097D01*
X174947549Y-153282415D01*
X174717585Y-153052451D01*
X174536903Y-152782042D01*
X174412447Y-152481579D01*
X174380108Y-152319000D01*
X174349000Y-152162611D01*
X174349000Y-151837389D01*
X174398955Y-151586250D01*
X174412447Y-151518421D01*
X174517194Y-151265539D01*
X174536902Y-151217960D01*
X174536903Y-151217958D01*
X174717585Y-150947549D01*
X174947549Y-150717585D01*
X175217958Y-150536903D01*
X175518421Y-150412447D01*
X175624744Y-150391298D01*
X175837389Y-150349000D01*
X176162611Y-150349000D01*
X176375256Y-150391298D01*
X176375256Y-150391298D01*
G37*
G36*
X133375256Y-150391298D02*
G01*
X133481579Y-150412447D01*
X133782042Y-150536903D01*
X134052451Y-150717585D01*
X134282415Y-150947549D01*
X134463097Y-151217958D01*
X134463098Y-151217960D01*
X134482806Y-151265539D01*
X134587553Y-151518421D01*
X134601045Y-151586250D01*
X134651000Y-151837389D01*
X134651000Y-152162611D01*
X134619892Y-152319000D01*
X134587553Y-152481579D01*
X134463097Y-152782042D01*
X134282415Y-153052451D01*
X134052451Y-153282415D01*
X133782042Y-153463097D01*
X133481579Y-153587553D01*
X133375256Y-153608702D01*
X133162611Y-153651000D01*
X132837389Y-153651000D01*
X132624744Y-153608702D01*
X132518421Y-153587553D01*
X132217958Y-153463097D01*
X131947549Y-153282415D01*
X131717585Y-153052451D01*
X131536903Y-152782042D01*
X131412447Y-152481579D01*
X131380108Y-152319000D01*
X131349000Y-152162611D01*
X131349000Y-151837389D01*
X131398955Y-151586250D01*
X131412447Y-151518421D01*
X131517194Y-151265539D01*
X131536902Y-151217960D01*
X131536903Y-151217958D01*
X131717585Y-150947549D01*
X131947549Y-150717585D01*
X132217958Y-150536903D01*
X132518421Y-150412447D01*
X132624744Y-150391298D01*
X132837389Y-150349000D01*
X133162611Y-150349000D01*
X133375256Y-150391298D01*
X133375256Y-150391298D01*
G37*
G36*
X162069591Y-151346085D02*
G01*
X162103569Y-151356393D01*
X162134890Y-151373134D01*
X162162339Y-151395661D01*
X162184866Y-151423110D01*
X162201607Y-151454431D01*
X162211915Y-151488409D01*
X162216000Y-151529890D01*
X162216000Y-152131110D01*
X162211915Y-152172591D01*
X162201607Y-152206569D01*
X162184866Y-152237890D01*
X162162339Y-152265339D01*
X162134890Y-152287866D01*
X162103569Y-152304607D01*
X162069591Y-152314915D01*
X162028110Y-152319000D01*
X161351890Y-152319000D01*
X161310409Y-152314915D01*
X161276431Y-152304607D01*
X161245110Y-152287866D01*
X161217661Y-152265339D01*
X161195134Y-152237890D01*
X161178393Y-152206569D01*
X161168085Y-152172591D01*
X161164000Y-152131110D01*
X161164000Y-151529890D01*
X161168085Y-151488409D01*
X161178393Y-151454431D01*
X161195134Y-151423110D01*
X161217661Y-151395661D01*
X161245110Y-151373134D01*
X161276431Y-151356393D01*
X161310409Y-151346085D01*
X161351890Y-151342000D01*
X162028110Y-151342000D01*
X162069591Y-151346085D01*
X162069591Y-151346085D01*
G37*
G36*
X159499591Y-151346085D02*
G01*
X159533569Y-151356393D01*
X159564890Y-151373134D01*
X159592339Y-151395661D01*
X159614866Y-151423110D01*
X159631607Y-151454431D01*
X159641915Y-151488409D01*
X159646000Y-151529890D01*
X159646000Y-152131110D01*
X159641915Y-152172591D01*
X159631607Y-152206569D01*
X159614866Y-152237890D01*
X159592339Y-152265339D01*
X159564890Y-152287866D01*
X159533569Y-152304607D01*
X159499591Y-152314915D01*
X159458110Y-152319000D01*
X158781890Y-152319000D01*
X158740409Y-152314915D01*
X158706431Y-152304607D01*
X158675110Y-152287866D01*
X158647661Y-152265339D01*
X158625134Y-152237890D01*
X158608393Y-152206569D01*
X158598085Y-152172591D01*
X158594000Y-152131110D01*
X158594000Y-151529890D01*
X158598085Y-151488409D01*
X158608393Y-151454431D01*
X158625134Y-151423110D01*
X158647661Y-151395661D01*
X158675110Y-151373134D01*
X158706431Y-151356393D01*
X158740409Y-151346085D01*
X158781890Y-151342000D01*
X159458110Y-151342000D01*
X159499591Y-151346085D01*
X159499591Y-151346085D01*
G37*
G36*
X164919591Y-151298085D02*
G01*
X164953569Y-151308393D01*
X164984890Y-151325134D01*
X165012339Y-151347661D01*
X165034866Y-151375110D01*
X165051607Y-151406431D01*
X165061915Y-151440409D01*
X165066000Y-151481890D01*
X165066000Y-152083110D01*
X165061915Y-152124591D01*
X165051607Y-152158569D01*
X165034866Y-152189890D01*
X165012339Y-152217339D01*
X164984890Y-152239866D01*
X164953569Y-152256607D01*
X164919591Y-152266915D01*
X164878110Y-152271000D01*
X164201890Y-152271000D01*
X164160409Y-152266915D01*
X164126431Y-152256607D01*
X164095110Y-152239866D01*
X164067661Y-152217339D01*
X164045134Y-152189890D01*
X164028393Y-152158569D01*
X164018085Y-152124591D01*
X164014000Y-152083110D01*
X164014000Y-151481890D01*
X164018085Y-151440409D01*
X164028393Y-151406431D01*
X164045134Y-151375110D01*
X164067661Y-151347661D01*
X164095110Y-151325134D01*
X164126431Y-151308393D01*
X164160409Y-151298085D01*
X164201890Y-151294000D01*
X164878110Y-151294000D01*
X164919591Y-151298085D01*
X164919591Y-151298085D01*
G37*
G36*
X169591000Y-152221000D02*
G01*
X168089000Y-152221000D01*
X168089000Y-150919000D01*
X169591000Y-150919000D01*
X169591000Y-152221000D01*
X169591000Y-152221000D01*
G37*
G36*
X167191000Y-152221000D02*
G01*
X165689000Y-152221000D01*
X165689000Y-150919000D01*
X167191000Y-150919000D01*
X167191000Y-152221000D01*
X167191000Y-152221000D01*
G37*
G36*
X171169591Y-151198085D02*
G01*
X171203569Y-151208393D01*
X171234890Y-151225134D01*
X171262339Y-151247661D01*
X171284866Y-151275110D01*
X171301607Y-151306431D01*
X171311915Y-151340409D01*
X171316000Y-151381890D01*
X171316000Y-151983110D01*
X171311915Y-152024591D01*
X171301607Y-152058569D01*
X171284866Y-152089890D01*
X171262339Y-152117339D01*
X171234890Y-152139866D01*
X171203569Y-152156607D01*
X171169591Y-152166915D01*
X171128110Y-152171000D01*
X170451890Y-152171000D01*
X170410409Y-152166915D01*
X170376431Y-152156607D01*
X170345110Y-152139866D01*
X170317661Y-152117339D01*
X170295134Y-152089890D01*
X170278393Y-152058569D01*
X170268085Y-152024591D01*
X170264000Y-151983110D01*
X170264000Y-151381890D01*
X170268085Y-151340409D01*
X170278393Y-151306431D01*
X170295134Y-151275110D01*
X170317661Y-151247661D01*
X170345110Y-151225134D01*
X170376431Y-151208393D01*
X170410409Y-151198085D01*
X170451890Y-151194000D01*
X171128110Y-151194000D01*
X171169591Y-151198085D01*
X171169591Y-151198085D01*
G37*
G36*
X151542591Y-149648085D02*
G01*
X151576569Y-149658393D01*
X151607890Y-149675134D01*
X151635339Y-149697661D01*
X151657866Y-149725110D01*
X151674607Y-149756431D01*
X151684915Y-149790409D01*
X151689000Y-149831890D01*
X151689000Y-150508110D01*
X151684915Y-150549591D01*
X151674607Y-150583569D01*
X151657866Y-150614890D01*
X151635339Y-150642339D01*
X151607890Y-150664866D01*
X151576569Y-150681607D01*
X151542591Y-150691915D01*
X151501110Y-150696000D01*
X150899890Y-150696000D01*
X150858409Y-150691915D01*
X150824431Y-150681607D01*
X150793110Y-150664866D01*
X150765661Y-150642339D01*
X150743134Y-150614890D01*
X150726393Y-150583569D01*
X150716085Y-150549591D01*
X150712000Y-150508110D01*
X150712000Y-149831890D01*
X150716085Y-149790409D01*
X150726393Y-149756431D01*
X150743134Y-149725110D01*
X150765661Y-149697661D01*
X150793110Y-149675134D01*
X150824431Y-149658393D01*
X150858409Y-149648085D01*
X150899890Y-149644000D01*
X151501110Y-149644000D01*
X151542591Y-149648085D01*
X151542591Y-149648085D01*
G37*
G36*
X153117591Y-149648085D02*
G01*
X153151569Y-149658393D01*
X153182890Y-149675134D01*
X153210339Y-149697661D01*
X153232866Y-149725110D01*
X153249607Y-149756431D01*
X153259915Y-149790409D01*
X153264000Y-149831890D01*
X153264000Y-150508110D01*
X153259915Y-150549591D01*
X153249607Y-150583569D01*
X153232866Y-150614890D01*
X153210339Y-150642339D01*
X153182890Y-150664866D01*
X153151569Y-150681607D01*
X153117591Y-150691915D01*
X153076110Y-150696000D01*
X152474890Y-150696000D01*
X152433409Y-150691915D01*
X152399431Y-150681607D01*
X152368110Y-150664866D01*
X152340661Y-150642339D01*
X152318134Y-150614890D01*
X152301393Y-150583569D01*
X152291085Y-150549591D01*
X152287000Y-150508110D01*
X152287000Y-149831890D01*
X152291085Y-149790409D01*
X152301393Y-149756431D01*
X152318134Y-149725110D01*
X152340661Y-149697661D01*
X152368110Y-149675134D01*
X152399431Y-149658393D01*
X152433409Y-149648085D01*
X152474890Y-149644000D01*
X153076110Y-149644000D01*
X153117591Y-149648085D01*
X153117591Y-149648085D01*
G37*
G36*
X183902585Y-147548802D02*
G01*
X184052410Y-147578604D01*
X184334674Y-147695521D01*
X184588705Y-147865259D01*
X184804741Y-148081295D01*
X184974479Y-148335326D01*
X185091396Y-148617590D01*
X185101473Y-148668250D01*
X185151000Y-148917239D01*
X185151000Y-149222761D01*
X185129750Y-149329591D01*
X185091396Y-149522410D01*
X184974479Y-149804674D01*
X184804741Y-150058705D01*
X184588705Y-150274741D01*
X184334674Y-150444479D01*
X184052410Y-150561396D01*
X183902585Y-150591198D01*
X183752761Y-150621000D01*
X183447239Y-150621000D01*
X183297415Y-150591198D01*
X183147590Y-150561396D01*
X182865326Y-150444479D01*
X182611295Y-150274741D01*
X182395259Y-150058705D01*
X182225521Y-149804674D01*
X182108604Y-149522410D01*
X182070250Y-149329591D01*
X182049000Y-149222761D01*
X182049000Y-148917239D01*
X182098527Y-148668250D01*
X182108604Y-148617590D01*
X182225521Y-148335326D01*
X182395259Y-148081295D01*
X182611295Y-147865259D01*
X182865326Y-147695521D01*
X183147590Y-147578604D01*
X183297415Y-147548802D01*
X183447239Y-147519000D01*
X183752761Y-147519000D01*
X183902585Y-147548802D01*
X183902585Y-147548802D01*
G37*
G36*
X167541000Y-149741000D02*
G01*
X157639000Y-149741000D01*
X157639000Y-148139000D01*
X167541000Y-148139000D01*
X167541000Y-149741000D01*
X167541000Y-149741000D01*
G37*
G36*
X139664591Y-148428085D02*
G01*
X139698569Y-148438393D01*
X139729890Y-148455134D01*
X139757339Y-148477661D01*
X139779866Y-148505110D01*
X139796607Y-148536431D01*
X139806915Y-148570409D01*
X139811000Y-148611890D01*
X139811000Y-149288110D01*
X139806915Y-149329591D01*
X139796607Y-149363569D01*
X139779866Y-149394890D01*
X139757339Y-149422339D01*
X139729890Y-149444866D01*
X139698569Y-149461607D01*
X139664591Y-149471915D01*
X139623110Y-149476000D01*
X139021890Y-149476000D01*
X138980409Y-149471915D01*
X138946431Y-149461607D01*
X138915110Y-149444866D01*
X138887661Y-149422339D01*
X138865134Y-149394890D01*
X138848393Y-149363569D01*
X138838085Y-149329591D01*
X138834000Y-149288110D01*
X138834000Y-148611890D01*
X138838085Y-148570409D01*
X138848393Y-148536431D01*
X138865134Y-148505110D01*
X138887661Y-148477661D01*
X138915110Y-148455134D01*
X138946431Y-148438393D01*
X138980409Y-148428085D01*
X139021890Y-148424000D01*
X139623110Y-148424000D01*
X139664591Y-148428085D01*
X139664591Y-148428085D01*
G37*
G36*
X141239591Y-148428085D02*
G01*
X141273569Y-148438393D01*
X141304890Y-148455134D01*
X141332339Y-148477661D01*
X141354866Y-148505110D01*
X141371607Y-148536431D01*
X141381915Y-148570409D01*
X141386000Y-148611890D01*
X141386000Y-149288110D01*
X141381915Y-149329591D01*
X141371607Y-149363569D01*
X141354866Y-149394890D01*
X141332339Y-149422339D01*
X141304890Y-149444866D01*
X141273569Y-149461607D01*
X141239591Y-149471915D01*
X141198110Y-149476000D01*
X140596890Y-149476000D01*
X140555409Y-149471915D01*
X140521431Y-149461607D01*
X140490110Y-149444866D01*
X140462661Y-149422339D01*
X140440134Y-149394890D01*
X140423393Y-149363569D01*
X140413085Y-149329591D01*
X140409000Y-149288110D01*
X140409000Y-148611890D01*
X140413085Y-148570409D01*
X140423393Y-148536431D01*
X140440134Y-148505110D01*
X140462661Y-148477661D01*
X140490110Y-148455134D01*
X140521431Y-148438393D01*
X140555409Y-148428085D01*
X140596890Y-148424000D01*
X141198110Y-148424000D01*
X141239591Y-148428085D01*
X141239591Y-148428085D01*
G37*
G36*
X144449928Y-147386764D02*
G01*
X144471009Y-147393160D01*
X144490445Y-147403548D01*
X144507476Y-147417524D01*
X144521452Y-147434555D01*
X144531840Y-147453991D01*
X144538236Y-147475072D01*
X144541000Y-147503140D01*
X144541000Y-147966860D01*
X144538236Y-147994928D01*
X144531840Y-148016009D01*
X144521452Y-148035445D01*
X144507476Y-148052476D01*
X144490445Y-148066452D01*
X144471009Y-148076840D01*
X144449928Y-148083236D01*
X144421860Y-148086000D01*
X142608140Y-148086000D01*
X142580072Y-148083236D01*
X142558991Y-148076840D01*
X142539555Y-148066452D01*
X142522524Y-148052476D01*
X142508548Y-148035445D01*
X142498160Y-148016009D01*
X142491764Y-147994928D01*
X142489000Y-147966860D01*
X142489000Y-147503140D01*
X142491764Y-147475072D01*
X142498160Y-147453991D01*
X142508548Y-147434555D01*
X142522524Y-147417524D01*
X142539555Y-147403548D01*
X142558991Y-147393160D01*
X142580072Y-147386764D01*
X142608140Y-147384000D01*
X144421860Y-147384000D01*
X144449928Y-147386764D01*
X144449928Y-147386764D01*
G37*
G36*
X149399928Y-147386764D02*
G01*
X149421009Y-147393160D01*
X149440445Y-147403548D01*
X149457476Y-147417524D01*
X149471452Y-147434555D01*
X149481840Y-147453991D01*
X149488236Y-147475072D01*
X149491000Y-147503140D01*
X149491000Y-147966860D01*
X149488236Y-147994928D01*
X149481840Y-148016009D01*
X149471452Y-148035445D01*
X149457476Y-148052476D01*
X149440445Y-148066452D01*
X149421009Y-148076840D01*
X149399928Y-148083236D01*
X149371860Y-148086000D01*
X147558140Y-148086000D01*
X147530072Y-148083236D01*
X147508991Y-148076840D01*
X147489555Y-148066452D01*
X147472524Y-148052476D01*
X147458548Y-148035445D01*
X147448160Y-148016009D01*
X147441764Y-147994928D01*
X147439000Y-147966860D01*
X147439000Y-147503140D01*
X147441764Y-147475072D01*
X147448160Y-147453991D01*
X147458548Y-147434555D01*
X147472524Y-147417524D01*
X147489555Y-147403548D01*
X147508991Y-147393160D01*
X147530072Y-147386764D01*
X147558140Y-147384000D01*
X149371860Y-147384000D01*
X149399928Y-147386764D01*
X149399928Y-147386764D01*
G37*
G36*
X173909591Y-146948085D02*
G01*
X173943569Y-146958393D01*
X173974890Y-146975134D01*
X174002339Y-146997661D01*
X174024866Y-147025110D01*
X174041607Y-147056431D01*
X174051915Y-147090409D01*
X174056000Y-147131890D01*
X174056000Y-147808110D01*
X174051915Y-147849591D01*
X174041607Y-147883569D01*
X174024866Y-147914890D01*
X174002339Y-147942339D01*
X173974890Y-147964866D01*
X173943569Y-147981607D01*
X173909591Y-147991915D01*
X173868110Y-147996000D01*
X173266890Y-147996000D01*
X173225409Y-147991915D01*
X173191431Y-147981607D01*
X173160110Y-147964866D01*
X173132661Y-147942339D01*
X173110134Y-147914890D01*
X173093393Y-147883569D01*
X173083085Y-147849591D01*
X173079000Y-147808110D01*
X173079000Y-147131890D01*
X173083085Y-147090409D01*
X173093393Y-147056431D01*
X173110134Y-147025110D01*
X173132661Y-146997661D01*
X173160110Y-146975134D01*
X173191431Y-146958393D01*
X173225409Y-146948085D01*
X173266890Y-146944000D01*
X173868110Y-146944000D01*
X173909591Y-146948085D01*
X173909591Y-146948085D01*
G37*
G36*
X172334591Y-146948085D02*
G01*
X172368569Y-146958393D01*
X172399890Y-146975134D01*
X172427339Y-146997661D01*
X172449866Y-147025110D01*
X172466607Y-147056431D01*
X172476915Y-147090409D01*
X172481000Y-147131890D01*
X172481000Y-147808110D01*
X172476915Y-147849591D01*
X172466607Y-147883569D01*
X172449866Y-147914890D01*
X172427339Y-147942339D01*
X172399890Y-147964866D01*
X172368569Y-147981607D01*
X172334591Y-147991915D01*
X172293110Y-147996000D01*
X171691890Y-147996000D01*
X171650409Y-147991915D01*
X171616431Y-147981607D01*
X171585110Y-147964866D01*
X171557661Y-147942339D01*
X171535134Y-147914890D01*
X171518393Y-147883569D01*
X171508085Y-147849591D01*
X171504000Y-147808110D01*
X171504000Y-147131890D01*
X171508085Y-147090409D01*
X171518393Y-147056431D01*
X171535134Y-147025110D01*
X171557661Y-146997661D01*
X171585110Y-146975134D01*
X171616431Y-146958393D01*
X171650409Y-146948085D01*
X171691890Y-146944000D01*
X172293110Y-146944000D01*
X172334591Y-146948085D01*
X172334591Y-146948085D01*
G37*
G36*
X141227591Y-146768085D02*
G01*
X141261569Y-146778393D01*
X141292890Y-146795134D01*
X141320339Y-146817661D01*
X141342866Y-146845110D01*
X141359607Y-146876431D01*
X141369915Y-146910409D01*
X141374000Y-146951890D01*
X141374000Y-147628110D01*
X141369915Y-147669591D01*
X141359607Y-147703569D01*
X141342866Y-147734890D01*
X141320339Y-147762339D01*
X141292890Y-147784866D01*
X141261569Y-147801607D01*
X141227591Y-147811915D01*
X141186110Y-147816000D01*
X140584890Y-147816000D01*
X140543409Y-147811915D01*
X140509431Y-147801607D01*
X140478110Y-147784866D01*
X140450661Y-147762339D01*
X140428134Y-147734890D01*
X140411393Y-147703569D01*
X140401085Y-147669591D01*
X140397000Y-147628110D01*
X140397000Y-146951890D01*
X140401085Y-146910409D01*
X140411393Y-146876431D01*
X140428134Y-146845110D01*
X140450661Y-146817661D01*
X140478110Y-146795134D01*
X140509431Y-146778393D01*
X140543409Y-146768085D01*
X140584890Y-146764000D01*
X141186110Y-146764000D01*
X141227591Y-146768085D01*
X141227591Y-146768085D01*
G37*
G36*
X139652591Y-146768085D02*
G01*
X139686569Y-146778393D01*
X139717890Y-146795134D01*
X139745339Y-146817661D01*
X139767866Y-146845110D01*
X139784607Y-146876431D01*
X139794915Y-146910409D01*
X139799000Y-146951890D01*
X139799000Y-147628110D01*
X139794915Y-147669591D01*
X139784607Y-147703569D01*
X139767866Y-147734890D01*
X139745339Y-147762339D01*
X139717890Y-147784866D01*
X139686569Y-147801607D01*
X139652591Y-147811915D01*
X139611110Y-147816000D01*
X139009890Y-147816000D01*
X138968409Y-147811915D01*
X138934431Y-147801607D01*
X138903110Y-147784866D01*
X138875661Y-147762339D01*
X138853134Y-147734890D01*
X138836393Y-147703569D01*
X138826085Y-147669591D01*
X138822000Y-147628110D01*
X138822000Y-146951890D01*
X138826085Y-146910409D01*
X138836393Y-146876431D01*
X138853134Y-146845110D01*
X138875661Y-146817661D01*
X138903110Y-146795134D01*
X138934431Y-146778393D01*
X138968409Y-146768085D01*
X139009890Y-146764000D01*
X139611110Y-146764000D01*
X139652591Y-146768085D01*
X139652591Y-146768085D01*
G37*
G36*
X170091000Y-147191000D02*
G01*
X168489000Y-147191000D01*
X168489000Y-137289000D01*
X170091000Y-137289000D01*
X170091000Y-147191000D01*
X170091000Y-147191000D01*
G37*
G36*
X156691000Y-147191000D02*
G01*
X155089000Y-147191000D01*
X155089000Y-137289000D01*
X156691000Y-137289000D01*
X156691000Y-147191000D01*
X156691000Y-147191000D01*
G37*
G36*
X149399928Y-146116764D02*
G01*
X149421009Y-146123160D01*
X149440445Y-146133548D01*
X149457476Y-146147524D01*
X149471452Y-146164555D01*
X149481840Y-146183991D01*
X149488236Y-146205072D01*
X149491000Y-146233140D01*
X149491000Y-146696860D01*
X149488236Y-146724928D01*
X149481840Y-146746009D01*
X149471452Y-146765445D01*
X149457476Y-146782476D01*
X149440445Y-146796452D01*
X149421009Y-146806840D01*
X149399928Y-146813236D01*
X149371860Y-146816000D01*
X147558140Y-146816000D01*
X147530072Y-146813236D01*
X147508991Y-146806840D01*
X147489555Y-146796452D01*
X147472524Y-146782476D01*
X147458548Y-146765445D01*
X147448160Y-146746009D01*
X147441764Y-146724928D01*
X147439000Y-146696860D01*
X147439000Y-146233140D01*
X147441764Y-146205072D01*
X147448160Y-146183991D01*
X147458548Y-146164555D01*
X147472524Y-146147524D01*
X147489555Y-146133548D01*
X147508991Y-146123160D01*
X147530072Y-146116764D01*
X147558140Y-146114000D01*
X149371860Y-146114000D01*
X149399928Y-146116764D01*
X149399928Y-146116764D01*
G37*
G36*
X144449928Y-146116764D02*
G01*
X144471009Y-146123160D01*
X144490445Y-146133548D01*
X144507476Y-146147524D01*
X144521452Y-146164555D01*
X144531840Y-146183991D01*
X144538236Y-146205072D01*
X144541000Y-146233140D01*
X144541000Y-146696860D01*
X144538236Y-146724928D01*
X144531840Y-146746009D01*
X144521452Y-146765445D01*
X144507476Y-146782476D01*
X144490445Y-146796452D01*
X144471009Y-146806840D01*
X144449928Y-146813236D01*
X144421860Y-146816000D01*
X142608140Y-146816000D01*
X142580072Y-146813236D01*
X142558991Y-146806840D01*
X142539555Y-146796452D01*
X142522524Y-146782476D01*
X142508548Y-146765445D01*
X142498160Y-146746009D01*
X142491764Y-146724928D01*
X142489000Y-146696860D01*
X142489000Y-146233140D01*
X142491764Y-146205072D01*
X142498160Y-146183991D01*
X142508548Y-146164555D01*
X142522524Y-146147524D01*
X142539555Y-146133548D01*
X142558991Y-146123160D01*
X142580072Y-146116764D01*
X142608140Y-146114000D01*
X144421860Y-146114000D01*
X144449928Y-146116764D01*
X144449928Y-146116764D01*
G37*
G36*
X181237142Y-145218242D02*
G01*
X181385101Y-145279529D01*
X181518255Y-145368499D01*
X181631501Y-145481745D01*
X181720471Y-145614899D01*
X181781758Y-145762858D01*
X181813000Y-145919925D01*
X181813000Y-146080075D01*
X181781758Y-146237142D01*
X181720471Y-146385101D01*
X181631501Y-146518255D01*
X181518255Y-146631501D01*
X181385101Y-146720471D01*
X181237142Y-146781758D01*
X181080075Y-146813000D01*
X180919925Y-146813000D01*
X180762858Y-146781758D01*
X180614899Y-146720471D01*
X180481745Y-146631501D01*
X180368499Y-146518255D01*
X180279529Y-146385101D01*
X180218242Y-146237142D01*
X180187000Y-146080075D01*
X180187000Y-145919925D01*
X180218242Y-145762858D01*
X180279529Y-145614899D01*
X180368499Y-145481745D01*
X180481745Y-145368499D01*
X180614899Y-145279529D01*
X180762858Y-145218242D01*
X180919925Y-145187000D01*
X181080075Y-145187000D01*
X181237142Y-145218242D01*
X181237142Y-145218242D01*
G37*
G36*
X131651248Y-145159976D02*
G01*
X131711924Y-145165952D01*
X131867626Y-145213184D01*
X131867628Y-145213185D01*
X132011121Y-145289883D01*
X132136896Y-145393104D01*
X132240117Y-145518879D01*
X132308181Y-145646219D01*
X132316816Y-145662374D01*
X132364048Y-145818076D01*
X132379996Y-145980000D01*
X132364048Y-146141924D01*
X132316816Y-146297626D01*
X132316815Y-146297628D01*
X132240117Y-146441121D01*
X132136896Y-146566896D01*
X132011121Y-146670117D01*
X131884114Y-146738003D01*
X131867626Y-146746816D01*
X131711924Y-146794048D01*
X131651248Y-146800024D01*
X131590574Y-146806000D01*
X131509426Y-146806000D01*
X131448752Y-146800024D01*
X131388076Y-146794048D01*
X131232374Y-146746816D01*
X131215886Y-146738003D01*
X131088879Y-146670117D01*
X130963104Y-146566896D01*
X130859883Y-146441121D01*
X130783185Y-146297628D01*
X130783184Y-146297626D01*
X130735952Y-146141924D01*
X130720004Y-145980000D01*
X130735952Y-145818076D01*
X130783184Y-145662374D01*
X130791819Y-145646219D01*
X130859883Y-145518879D01*
X130963104Y-145393104D01*
X131088879Y-145289883D01*
X131232372Y-145213185D01*
X131232374Y-145213184D01*
X131388076Y-145165952D01*
X131448752Y-145159976D01*
X131509426Y-145154000D01*
X131590574Y-145154000D01*
X131651248Y-145159976D01*
X131651248Y-145159976D01*
G37*
G36*
X176215997Y-142803051D02*
G01*
X176249652Y-142813261D01*
X176280665Y-142829838D01*
X176307851Y-142852149D01*
X176330162Y-142879335D01*
X176346739Y-142910348D01*
X176356949Y-142944003D01*
X176361000Y-142985138D01*
X176361000Y-146214862D01*
X176356949Y-146255997D01*
X176346739Y-146289652D01*
X176330162Y-146320665D01*
X176307851Y-146347851D01*
X176280665Y-146370162D01*
X176249652Y-146386739D01*
X176215997Y-146396949D01*
X176174862Y-146401000D01*
X174845138Y-146401000D01*
X174804003Y-146396949D01*
X174770348Y-146386739D01*
X174739335Y-146370162D01*
X174712149Y-146347851D01*
X174689838Y-146320665D01*
X174673261Y-146289652D01*
X174663051Y-146255997D01*
X174659000Y-146214862D01*
X174659000Y-142985138D01*
X174663051Y-142944003D01*
X174673261Y-142910348D01*
X174689838Y-142879335D01*
X174712149Y-142852149D01*
X174739335Y-142829838D01*
X174770348Y-142813261D01*
X174804003Y-142803051D01*
X174845138Y-142799000D01*
X176174862Y-142799000D01*
X176215997Y-142803051D01*
X176215997Y-142803051D01*
G37*
G36*
X139662591Y-145048085D02*
G01*
X139696569Y-145058393D01*
X139727890Y-145075134D01*
X139755339Y-145097661D01*
X139777866Y-145125110D01*
X139794607Y-145156431D01*
X139804915Y-145190409D01*
X139809000Y-145231890D01*
X139809000Y-145908110D01*
X139804915Y-145949591D01*
X139794607Y-145983569D01*
X139777866Y-146014890D01*
X139755339Y-146042339D01*
X139727890Y-146064866D01*
X139696569Y-146081607D01*
X139662591Y-146091915D01*
X139621110Y-146096000D01*
X139019890Y-146096000D01*
X138978409Y-146091915D01*
X138944431Y-146081607D01*
X138913110Y-146064866D01*
X138885661Y-146042339D01*
X138863134Y-146014890D01*
X138846393Y-145983569D01*
X138836085Y-145949591D01*
X138832000Y-145908110D01*
X138832000Y-145231890D01*
X138836085Y-145190409D01*
X138846393Y-145156431D01*
X138863134Y-145125110D01*
X138885661Y-145097661D01*
X138913110Y-145075134D01*
X138944431Y-145058393D01*
X138978409Y-145048085D01*
X139019890Y-145044000D01*
X139621110Y-145044000D01*
X139662591Y-145048085D01*
X139662591Y-145048085D01*
G37*
G36*
X141237591Y-145048085D02*
G01*
X141271569Y-145058393D01*
X141302890Y-145075134D01*
X141330339Y-145097661D01*
X141352866Y-145125110D01*
X141369607Y-145156431D01*
X141379915Y-145190409D01*
X141384000Y-145231890D01*
X141384000Y-145908110D01*
X141379915Y-145949591D01*
X141369607Y-145983569D01*
X141352866Y-146014890D01*
X141330339Y-146042339D01*
X141302890Y-146064866D01*
X141271569Y-146081607D01*
X141237591Y-146091915D01*
X141196110Y-146096000D01*
X140594890Y-146096000D01*
X140553409Y-146091915D01*
X140519431Y-146081607D01*
X140488110Y-146064866D01*
X140460661Y-146042339D01*
X140438134Y-146014890D01*
X140421393Y-145983569D01*
X140411085Y-145949591D01*
X140407000Y-145908110D01*
X140407000Y-145231890D01*
X140411085Y-145190409D01*
X140421393Y-145156431D01*
X140438134Y-145125110D01*
X140460661Y-145097661D01*
X140488110Y-145075134D01*
X140519431Y-145058393D01*
X140553409Y-145048085D01*
X140594890Y-145044000D01*
X141196110Y-145044000D01*
X141237591Y-145048085D01*
X141237591Y-145048085D01*
G37*
G36*
X151489591Y-144981085D02*
G01*
X151523569Y-144991393D01*
X151554890Y-145008134D01*
X151582339Y-145030661D01*
X151604866Y-145058110D01*
X151621607Y-145089431D01*
X151631915Y-145123409D01*
X151636000Y-145164890D01*
X151636000Y-145766110D01*
X151631915Y-145807591D01*
X151621607Y-145841569D01*
X151604866Y-145872890D01*
X151582339Y-145900339D01*
X151554890Y-145922866D01*
X151523569Y-145939607D01*
X151489591Y-145949915D01*
X151448110Y-145954000D01*
X150771890Y-145954000D01*
X150730409Y-145949915D01*
X150696431Y-145939607D01*
X150665110Y-145922866D01*
X150637661Y-145900339D01*
X150615134Y-145872890D01*
X150598393Y-145841569D01*
X150588085Y-145807591D01*
X150584000Y-145766110D01*
X150584000Y-145164890D01*
X150588085Y-145123409D01*
X150598393Y-145089431D01*
X150615134Y-145058110D01*
X150637661Y-145030661D01*
X150665110Y-145008134D01*
X150696431Y-144991393D01*
X150730409Y-144981085D01*
X150771890Y-144977000D01*
X151448110Y-144977000D01*
X151489591Y-144981085D01*
X151489591Y-144981085D01*
G37*
G36*
X134382517Y-144313781D02*
G01*
X134509946Y-144352436D01*
X134627383Y-144415208D01*
X134730317Y-144499683D01*
X134814792Y-144602617D01*
X134877564Y-144720054D01*
X134916219Y-144847483D01*
X134929270Y-144980000D01*
X134916219Y-145112517D01*
X134877564Y-145239946D01*
X134814792Y-145357383D01*
X134730317Y-145460317D01*
X134627383Y-145544792D01*
X134509946Y-145607564D01*
X134382517Y-145646219D01*
X134283205Y-145656000D01*
X134216795Y-145656000D01*
X134117483Y-145646219D01*
X133990054Y-145607564D01*
X133872617Y-145544792D01*
X133769683Y-145460317D01*
X133685208Y-145357383D01*
X133622436Y-145239946D01*
X133583781Y-145112517D01*
X133570730Y-144980000D01*
X133583781Y-144847483D01*
X133622436Y-144720054D01*
X133685208Y-144602617D01*
X133769683Y-144499683D01*
X133872617Y-144415208D01*
X133990054Y-144352436D01*
X134117483Y-144313781D01*
X134216795Y-144304000D01*
X134283205Y-144304000D01*
X134382517Y-144313781D01*
X134382517Y-144313781D01*
G37*
G36*
X144449928Y-144846764D02*
G01*
X144471009Y-144853160D01*
X144490445Y-144863548D01*
X144507476Y-144877524D01*
X144521452Y-144894555D01*
X144531840Y-144913991D01*
X144538236Y-144935072D01*
X144541000Y-144963140D01*
X144541000Y-145426860D01*
X144538236Y-145454928D01*
X144531840Y-145476009D01*
X144521452Y-145495445D01*
X144507476Y-145512476D01*
X144490445Y-145526452D01*
X144471009Y-145536840D01*
X144449928Y-145543236D01*
X144421860Y-145546000D01*
X142608140Y-145546000D01*
X142580072Y-145543236D01*
X142558991Y-145536840D01*
X142539555Y-145526452D01*
X142522524Y-145512476D01*
X142508548Y-145495445D01*
X142498160Y-145476009D01*
X142491764Y-145454928D01*
X142489000Y-145426860D01*
X142489000Y-144963140D01*
X142491764Y-144935072D01*
X142498160Y-144913991D01*
X142508548Y-144894555D01*
X142522524Y-144877524D01*
X142539555Y-144863548D01*
X142558991Y-144853160D01*
X142580072Y-144846764D01*
X142608140Y-144844000D01*
X144421860Y-144844000D01*
X144449928Y-144846764D01*
X144449928Y-144846764D01*
G37*
G36*
X149399928Y-144846764D02*
G01*
X149421009Y-144853160D01*
X149440445Y-144863548D01*
X149457476Y-144877524D01*
X149471452Y-144894555D01*
X149481840Y-144913991D01*
X149488236Y-144935072D01*
X149491000Y-144963140D01*
X149491000Y-145426860D01*
X149488236Y-145454928D01*
X149481840Y-145476009D01*
X149471452Y-145495445D01*
X149457476Y-145512476D01*
X149440445Y-145526452D01*
X149421009Y-145536840D01*
X149399928Y-145543236D01*
X149371860Y-145546000D01*
X147558140Y-145546000D01*
X147530072Y-145543236D01*
X147508991Y-145536840D01*
X147489555Y-145526452D01*
X147472524Y-145512476D01*
X147458548Y-145495445D01*
X147448160Y-145476009D01*
X147441764Y-145454928D01*
X147439000Y-145426860D01*
X147439000Y-144963140D01*
X147441764Y-144935072D01*
X147448160Y-144913991D01*
X147458548Y-144894555D01*
X147472524Y-144877524D01*
X147489555Y-144863548D01*
X147508991Y-144853160D01*
X147530072Y-144846764D01*
X147558140Y-144844000D01*
X149371860Y-144844000D01*
X149399928Y-144846764D01*
X149399928Y-144846764D01*
G37*
G36*
X151489591Y-143406085D02*
G01*
X151523569Y-143416393D01*
X151554890Y-143433134D01*
X151582339Y-143455661D01*
X151604866Y-143483110D01*
X151621607Y-143514431D01*
X151631915Y-143548409D01*
X151636000Y-143589890D01*
X151636000Y-144191110D01*
X151631915Y-144232591D01*
X151621607Y-144266569D01*
X151604866Y-144297890D01*
X151582339Y-144325339D01*
X151554890Y-144347866D01*
X151523569Y-144364607D01*
X151489591Y-144374915D01*
X151448110Y-144379000D01*
X150771890Y-144379000D01*
X150730409Y-144374915D01*
X150696431Y-144364607D01*
X150665110Y-144347866D01*
X150637661Y-144325339D01*
X150615134Y-144297890D01*
X150598393Y-144266569D01*
X150588085Y-144232591D01*
X150584000Y-144191110D01*
X150584000Y-143589890D01*
X150588085Y-143548409D01*
X150598393Y-143514431D01*
X150615134Y-143483110D01*
X150637661Y-143455661D01*
X150665110Y-143433134D01*
X150696431Y-143416393D01*
X150730409Y-143406085D01*
X150771890Y-143402000D01*
X151448110Y-143402000D01*
X151489591Y-143406085D01*
X151489591Y-143406085D01*
G37*
G36*
X139676591Y-143328085D02*
G01*
X139710569Y-143338393D01*
X139741890Y-143355134D01*
X139769339Y-143377661D01*
X139791866Y-143405110D01*
X139808607Y-143436431D01*
X139818915Y-143470409D01*
X139823000Y-143511890D01*
X139823000Y-144188110D01*
X139818915Y-144229591D01*
X139808607Y-144263569D01*
X139791866Y-144294890D01*
X139769339Y-144322339D01*
X139741890Y-144344866D01*
X139710569Y-144361607D01*
X139676591Y-144371915D01*
X139635110Y-144376000D01*
X139033890Y-144376000D01*
X138992409Y-144371915D01*
X138958431Y-144361607D01*
X138927110Y-144344866D01*
X138899661Y-144322339D01*
X138877134Y-144294890D01*
X138860393Y-144263569D01*
X138850085Y-144229591D01*
X138846000Y-144188110D01*
X138846000Y-143511890D01*
X138850085Y-143470409D01*
X138860393Y-143436431D01*
X138877134Y-143405110D01*
X138899661Y-143377661D01*
X138927110Y-143355134D01*
X138958431Y-143338393D01*
X138992409Y-143328085D01*
X139033890Y-143324000D01*
X139635110Y-143324000D01*
X139676591Y-143328085D01*
X139676591Y-143328085D01*
G37*
G36*
X141251591Y-143328085D02*
G01*
X141285569Y-143338393D01*
X141316890Y-143355134D01*
X141344339Y-143377661D01*
X141366866Y-143405110D01*
X141383607Y-143436431D01*
X141393915Y-143470409D01*
X141398000Y-143511890D01*
X141398000Y-144188110D01*
X141393915Y-144229591D01*
X141383607Y-144263569D01*
X141366866Y-144294890D01*
X141344339Y-144322339D01*
X141316890Y-144344866D01*
X141285569Y-144361607D01*
X141251591Y-144371915D01*
X141210110Y-144376000D01*
X140608890Y-144376000D01*
X140567409Y-144371915D01*
X140533431Y-144361607D01*
X140502110Y-144344866D01*
X140474661Y-144322339D01*
X140452134Y-144294890D01*
X140435393Y-144263569D01*
X140425085Y-144229591D01*
X140421000Y-144188110D01*
X140421000Y-143511890D01*
X140425085Y-143470409D01*
X140435393Y-143436431D01*
X140452134Y-143405110D01*
X140474661Y-143377661D01*
X140502110Y-143355134D01*
X140533431Y-143338393D01*
X140567409Y-143328085D01*
X140608890Y-143324000D01*
X141210110Y-143324000D01*
X141251591Y-143328085D01*
X141251591Y-143328085D01*
G37*
G36*
X181237142Y-142718242D02*
G01*
X181385101Y-142779529D01*
X181518255Y-142868499D01*
X181631501Y-142981745D01*
X181720471Y-143114899D01*
X181781758Y-143262858D01*
X181813000Y-143419925D01*
X181813000Y-143580075D01*
X181781758Y-143737142D01*
X181720471Y-143885101D01*
X181631501Y-144018255D01*
X181518255Y-144131501D01*
X181385101Y-144220471D01*
X181237142Y-144281758D01*
X181080075Y-144313000D01*
X180919925Y-144313000D01*
X180762858Y-144281758D01*
X180614899Y-144220471D01*
X180481745Y-144131501D01*
X180368499Y-144018255D01*
X180279529Y-143885101D01*
X180218242Y-143737142D01*
X180187000Y-143580075D01*
X180187000Y-143419925D01*
X180218242Y-143262858D01*
X180279529Y-143114899D01*
X180368499Y-142981745D01*
X180481745Y-142868499D01*
X180614899Y-142779529D01*
X180762858Y-142718242D01*
X180919925Y-142687000D01*
X181080075Y-142687000D01*
X181237142Y-142718242D01*
X181237142Y-142718242D01*
G37*
G36*
X149399928Y-143576764D02*
G01*
X149421009Y-143583160D01*
X149440445Y-143593548D01*
X149457476Y-143607524D01*
X149471452Y-143624555D01*
X149481840Y-143643991D01*
X149488236Y-143665072D01*
X149491000Y-143693140D01*
X149491000Y-144156860D01*
X149488236Y-144184928D01*
X149481840Y-144206009D01*
X149471452Y-144225445D01*
X149457476Y-144242476D01*
X149440445Y-144256452D01*
X149421009Y-144266840D01*
X149399928Y-144273236D01*
X149371860Y-144276000D01*
X147558140Y-144276000D01*
X147530072Y-144273236D01*
X147508991Y-144266840D01*
X147489555Y-144256452D01*
X147472524Y-144242476D01*
X147458548Y-144225445D01*
X147448160Y-144206009D01*
X147441764Y-144184928D01*
X147439000Y-144156860D01*
X147439000Y-143693140D01*
X147441764Y-143665072D01*
X147448160Y-143643991D01*
X147458548Y-143624555D01*
X147472524Y-143607524D01*
X147489555Y-143593548D01*
X147508991Y-143583160D01*
X147530072Y-143576764D01*
X147558140Y-143574000D01*
X149371860Y-143574000D01*
X149399928Y-143576764D01*
X149399928Y-143576764D01*
G37*
G36*
X144449928Y-143576764D02*
G01*
X144471009Y-143583160D01*
X144490445Y-143593548D01*
X144507476Y-143607524D01*
X144521452Y-143624555D01*
X144531840Y-143643991D01*
X144538236Y-143665072D01*
X144541000Y-143693140D01*
X144541000Y-144156860D01*
X144538236Y-144184928D01*
X144531840Y-144206009D01*
X144521452Y-144225445D01*
X144507476Y-144242476D01*
X144490445Y-144256452D01*
X144471009Y-144266840D01*
X144449928Y-144273236D01*
X144421860Y-144276000D01*
X142608140Y-144276000D01*
X142580072Y-144273236D01*
X142558991Y-144266840D01*
X142539555Y-144256452D01*
X142522524Y-144242476D01*
X142508548Y-144225445D01*
X142498160Y-144206009D01*
X142491764Y-144184928D01*
X142489000Y-144156860D01*
X142489000Y-143693140D01*
X142491764Y-143665072D01*
X142498160Y-143643991D01*
X142508548Y-143624555D01*
X142522524Y-143607524D01*
X142539555Y-143593548D01*
X142558991Y-143583160D01*
X142580072Y-143576764D01*
X142608140Y-143574000D01*
X144421860Y-143574000D01*
X144449928Y-143576764D01*
X144449928Y-143576764D01*
G37*
G36*
X134976000Y-144031000D02*
G01*
X133524000Y-144031000D01*
X133524000Y-140929000D01*
X134976000Y-140929000D01*
X134976000Y-144031000D01*
X134976000Y-144031000D01*
G37*
G36*
X150477591Y-141658085D02*
G01*
X150511569Y-141668393D01*
X150542890Y-141685134D01*
X150570339Y-141707661D01*
X150592866Y-141735110D01*
X150609607Y-141766431D01*
X150619915Y-141800409D01*
X150624000Y-141841890D01*
X150624000Y-142518110D01*
X150619915Y-142559591D01*
X150609607Y-142593569D01*
X150592866Y-142624890D01*
X150570339Y-142652339D01*
X150542890Y-142674866D01*
X150511569Y-142691607D01*
X150477591Y-142701915D01*
X150436110Y-142706000D01*
X149834890Y-142706000D01*
X149793409Y-142701915D01*
X149759431Y-142691607D01*
X149728110Y-142674866D01*
X149700661Y-142652339D01*
X149678134Y-142624890D01*
X149661393Y-142593569D01*
X149651085Y-142559591D01*
X149647000Y-142518110D01*
X149647000Y-141841890D01*
X149651085Y-141800409D01*
X149661393Y-141766431D01*
X149678134Y-141735110D01*
X149700661Y-141707661D01*
X149728110Y-141685134D01*
X149759431Y-141668393D01*
X149793409Y-141658085D01*
X149834890Y-141654000D01*
X150436110Y-141654000D01*
X150477591Y-141658085D01*
X150477591Y-141658085D01*
G37*
G36*
X148902591Y-141658085D02*
G01*
X148936569Y-141668393D01*
X148967890Y-141685134D01*
X148995339Y-141707661D01*
X149017866Y-141735110D01*
X149034607Y-141766431D01*
X149044915Y-141800409D01*
X149049000Y-141841890D01*
X149049000Y-142518110D01*
X149044915Y-142559591D01*
X149034607Y-142593569D01*
X149017866Y-142624890D01*
X148995339Y-142652339D01*
X148967890Y-142674866D01*
X148936569Y-142691607D01*
X148902591Y-142701915D01*
X148861110Y-142706000D01*
X148259890Y-142706000D01*
X148218409Y-142701915D01*
X148184431Y-142691607D01*
X148153110Y-142674866D01*
X148125661Y-142652339D01*
X148103134Y-142624890D01*
X148086393Y-142593569D01*
X148076085Y-142559591D01*
X148072000Y-142518110D01*
X148072000Y-141841890D01*
X148076085Y-141800409D01*
X148086393Y-141766431D01*
X148103134Y-141735110D01*
X148125661Y-141707661D01*
X148153110Y-141685134D01*
X148184431Y-141668393D01*
X148218409Y-141658085D01*
X148259890Y-141654000D01*
X148861110Y-141654000D01*
X148902591Y-141658085D01*
X148902591Y-141658085D01*
G37*
G36*
X137926604Y-139598347D02*
G01*
X137963144Y-139609432D01*
X137996821Y-139627433D01*
X138026341Y-139651659D01*
X138050567Y-139681179D01*
X138068568Y-139714856D01*
X138079653Y-139751396D01*
X138084000Y-139795538D01*
X138084000Y-142144462D01*
X138079653Y-142188604D01*
X138068568Y-142225144D01*
X138050567Y-142258821D01*
X138026341Y-142288341D01*
X137996821Y-142312567D01*
X137963144Y-142330568D01*
X137926604Y-142341653D01*
X137882462Y-142346000D01*
X136933538Y-142346000D01*
X136889396Y-142341653D01*
X136852856Y-142330568D01*
X136819179Y-142312567D01*
X136789659Y-142288341D01*
X136765433Y-142258821D01*
X136747432Y-142225144D01*
X136736347Y-142188604D01*
X136732000Y-142144462D01*
X136732000Y-139795538D01*
X136736347Y-139751396D01*
X136747432Y-139714856D01*
X136765433Y-139681179D01*
X136789659Y-139651659D01*
X136819179Y-139627433D01*
X136852856Y-139609432D01*
X136889396Y-139598347D01*
X136933538Y-139594000D01*
X137882462Y-139594000D01*
X137926604Y-139598347D01*
X137926604Y-139598347D01*
G37*
G36*
X140726604Y-139598347D02*
G01*
X140763144Y-139609432D01*
X140796821Y-139627433D01*
X140826341Y-139651659D01*
X140850567Y-139681179D01*
X140868568Y-139714856D01*
X140879653Y-139751396D01*
X140884000Y-139795538D01*
X140884000Y-142144462D01*
X140879653Y-142188604D01*
X140868568Y-142225144D01*
X140850567Y-142258821D01*
X140826341Y-142288341D01*
X140796821Y-142312567D01*
X140763144Y-142330568D01*
X140726604Y-142341653D01*
X140682462Y-142346000D01*
X139733538Y-142346000D01*
X139689396Y-142341653D01*
X139652856Y-142330568D01*
X139619179Y-142312567D01*
X139589659Y-142288341D01*
X139565433Y-142258821D01*
X139547432Y-142225144D01*
X139536347Y-142188604D01*
X139532000Y-142144462D01*
X139532000Y-139795538D01*
X139536347Y-139751396D01*
X139547432Y-139714856D01*
X139565433Y-139681179D01*
X139589659Y-139651659D01*
X139619179Y-139627433D01*
X139652856Y-139609432D01*
X139689396Y-139598347D01*
X139733538Y-139594000D01*
X140682462Y-139594000D01*
X140726604Y-139598347D01*
X140726604Y-139598347D01*
G37*
G36*
X181237142Y-140718242D02*
G01*
X181385101Y-140779529D01*
X181518255Y-140868499D01*
X181631501Y-140981745D01*
X181720471Y-141114899D01*
X181781758Y-141262858D01*
X181813000Y-141419925D01*
X181813000Y-141580075D01*
X181781758Y-141737142D01*
X181720471Y-141885101D01*
X181631501Y-142018255D01*
X181518255Y-142131501D01*
X181385101Y-142220471D01*
X181237142Y-142281758D01*
X181080075Y-142313000D01*
X180919925Y-142313000D01*
X180762858Y-142281758D01*
X180614899Y-142220471D01*
X180481745Y-142131501D01*
X180368499Y-142018255D01*
X180279529Y-141885101D01*
X180218242Y-141737142D01*
X180187000Y-141580075D01*
X180187000Y-141419925D01*
X180218242Y-141262858D01*
X180279529Y-141114899D01*
X180368499Y-140981745D01*
X180481745Y-140868499D01*
X180614899Y-140779529D01*
X180762858Y-140718242D01*
X180919925Y-140687000D01*
X181080075Y-140687000D01*
X181237142Y-140718242D01*
X181237142Y-140718242D01*
G37*
G36*
X150471591Y-140008085D02*
G01*
X150505569Y-140018393D01*
X150536890Y-140035134D01*
X150564339Y-140057661D01*
X150586866Y-140085110D01*
X150603607Y-140116431D01*
X150613915Y-140150409D01*
X150618000Y-140191890D01*
X150618000Y-140868110D01*
X150613915Y-140909591D01*
X150603607Y-140943569D01*
X150586866Y-140974890D01*
X150564339Y-141002339D01*
X150536890Y-141024866D01*
X150505569Y-141041607D01*
X150471591Y-141051915D01*
X150430110Y-141056000D01*
X149828890Y-141056000D01*
X149787409Y-141051915D01*
X149753431Y-141041607D01*
X149722110Y-141024866D01*
X149694661Y-141002339D01*
X149672134Y-140974890D01*
X149655393Y-140943569D01*
X149645085Y-140909591D01*
X149641000Y-140868110D01*
X149641000Y-140191890D01*
X149645085Y-140150409D01*
X149655393Y-140116431D01*
X149672134Y-140085110D01*
X149694661Y-140057661D01*
X149722110Y-140035134D01*
X149753431Y-140018393D01*
X149787409Y-140008085D01*
X149828890Y-140004000D01*
X150430110Y-140004000D01*
X150471591Y-140008085D01*
X150471591Y-140008085D01*
G37*
G36*
X148896591Y-140008085D02*
G01*
X148930569Y-140018393D01*
X148961890Y-140035134D01*
X148989339Y-140057661D01*
X149011866Y-140085110D01*
X149028607Y-140116431D01*
X149038915Y-140150409D01*
X149043000Y-140191890D01*
X149043000Y-140868110D01*
X149038915Y-140909591D01*
X149028607Y-140943569D01*
X149011866Y-140974890D01*
X148989339Y-141002339D01*
X148961890Y-141024866D01*
X148930569Y-141041607D01*
X148896591Y-141051915D01*
X148855110Y-141056000D01*
X148253890Y-141056000D01*
X148212409Y-141051915D01*
X148178431Y-141041607D01*
X148147110Y-141024866D01*
X148119661Y-141002339D01*
X148097134Y-140974890D01*
X148080393Y-140943569D01*
X148070085Y-140909591D01*
X148066000Y-140868110D01*
X148066000Y-140191890D01*
X148070085Y-140150409D01*
X148080393Y-140116431D01*
X148097134Y-140085110D01*
X148119661Y-140057661D01*
X148147110Y-140035134D01*
X148178431Y-140018393D01*
X148212409Y-140008085D01*
X148253890Y-140004000D01*
X148855110Y-140004000D01*
X148896591Y-140008085D01*
X148896591Y-140008085D01*
G37*
G36*
X145402591Y-140008085D02*
G01*
X145436569Y-140018393D01*
X145467890Y-140035134D01*
X145495339Y-140057661D01*
X145517866Y-140085110D01*
X145534607Y-140116431D01*
X145544915Y-140150409D01*
X145549000Y-140191890D01*
X145549000Y-140868110D01*
X145544915Y-140909591D01*
X145534607Y-140943569D01*
X145517866Y-140974890D01*
X145495339Y-141002339D01*
X145467890Y-141024866D01*
X145436569Y-141041607D01*
X145402591Y-141051915D01*
X145361110Y-141056000D01*
X144759890Y-141056000D01*
X144718409Y-141051915D01*
X144684431Y-141041607D01*
X144653110Y-141024866D01*
X144625661Y-141002339D01*
X144603134Y-140974890D01*
X144586393Y-140943569D01*
X144576085Y-140909591D01*
X144572000Y-140868110D01*
X144572000Y-140191890D01*
X144576085Y-140150409D01*
X144586393Y-140116431D01*
X144603134Y-140085110D01*
X144625661Y-140057661D01*
X144653110Y-140035134D01*
X144684431Y-140018393D01*
X144718409Y-140008085D01*
X144759890Y-140004000D01*
X145361110Y-140004000D01*
X145402591Y-140008085D01*
X145402591Y-140008085D01*
G37*
G36*
X146977591Y-140008085D02*
G01*
X147011569Y-140018393D01*
X147042890Y-140035134D01*
X147070339Y-140057661D01*
X147092866Y-140085110D01*
X147109607Y-140116431D01*
X147119915Y-140150409D01*
X147124000Y-140191890D01*
X147124000Y-140868110D01*
X147119915Y-140909591D01*
X147109607Y-140943569D01*
X147092866Y-140974890D01*
X147070339Y-141002339D01*
X147042890Y-141024866D01*
X147011569Y-141041607D01*
X146977591Y-141051915D01*
X146936110Y-141056000D01*
X146334890Y-141056000D01*
X146293409Y-141051915D01*
X146259431Y-141041607D01*
X146228110Y-141024866D01*
X146200661Y-141002339D01*
X146178134Y-140974890D01*
X146161393Y-140943569D01*
X146151085Y-140909591D01*
X146147000Y-140868110D01*
X146147000Y-140191890D01*
X146151085Y-140150409D01*
X146161393Y-140116431D01*
X146178134Y-140085110D01*
X146200661Y-140057661D01*
X146228110Y-140035134D01*
X146259431Y-140018393D01*
X146293409Y-140008085D01*
X146334890Y-140004000D01*
X146936110Y-140004000D01*
X146977591Y-140008085D01*
X146977591Y-140008085D01*
G37*
G36*
X176215997Y-137403051D02*
G01*
X176249652Y-137413261D01*
X176280665Y-137429838D01*
X176307851Y-137452149D01*
X176330162Y-137479335D01*
X176346739Y-137510348D01*
X176356949Y-137544003D01*
X176361000Y-137585138D01*
X176361000Y-140814862D01*
X176356949Y-140855997D01*
X176346739Y-140889652D01*
X176330162Y-140920665D01*
X176307851Y-140947851D01*
X176280665Y-140970162D01*
X176249652Y-140986739D01*
X176215997Y-140996949D01*
X176174862Y-141001000D01*
X174845138Y-141001000D01*
X174804003Y-140996949D01*
X174770348Y-140986739D01*
X174739335Y-140970162D01*
X174712149Y-140947851D01*
X174689838Y-140920665D01*
X174673261Y-140889652D01*
X174663051Y-140855997D01*
X174659000Y-140814862D01*
X174659000Y-137585138D01*
X174663051Y-137544003D01*
X174673261Y-137510348D01*
X174689838Y-137479335D01*
X174712149Y-137452149D01*
X174739335Y-137429838D01*
X174770348Y-137413261D01*
X174804003Y-137403051D01*
X174845138Y-137399000D01*
X176174862Y-137399000D01*
X176215997Y-137403051D01*
X176215997Y-137403051D01*
G37*
G36*
X134382517Y-139313781D02*
G01*
X134509946Y-139352436D01*
X134627383Y-139415208D01*
X134730317Y-139499683D01*
X134814792Y-139602617D01*
X134877564Y-139720054D01*
X134916219Y-139847483D01*
X134929270Y-139980000D01*
X134916219Y-140112517D01*
X134877564Y-140239946D01*
X134814792Y-140357383D01*
X134730317Y-140460317D01*
X134627383Y-140544792D01*
X134509946Y-140607564D01*
X134382517Y-140646219D01*
X134283205Y-140656000D01*
X134216795Y-140656000D01*
X134117483Y-140646219D01*
X133990054Y-140607564D01*
X133872617Y-140544792D01*
X133769683Y-140460317D01*
X133685208Y-140357383D01*
X133622436Y-140239946D01*
X133583781Y-140112517D01*
X133570730Y-139980000D01*
X133583781Y-139847483D01*
X133622436Y-139720054D01*
X133685208Y-139602617D01*
X133769683Y-139499683D01*
X133872617Y-139415208D01*
X133990054Y-139352436D01*
X134117483Y-139313781D01*
X134216795Y-139304000D01*
X134283205Y-139304000D01*
X134382517Y-139313781D01*
X134382517Y-139313781D01*
G37*
G36*
X181237142Y-138218242D02*
G01*
X181385101Y-138279529D01*
X181518255Y-138368499D01*
X181631501Y-138481745D01*
X181720471Y-138614899D01*
X181781758Y-138762858D01*
X181813000Y-138919925D01*
X181813000Y-139080075D01*
X181781758Y-139237142D01*
X181720471Y-139385101D01*
X181631501Y-139518255D01*
X181518255Y-139631501D01*
X181385101Y-139720471D01*
X181237142Y-139781758D01*
X181080075Y-139813000D01*
X180919925Y-139813000D01*
X180762858Y-139781758D01*
X180614899Y-139720471D01*
X180481745Y-139631501D01*
X180368499Y-139518255D01*
X180279529Y-139385101D01*
X180218242Y-139237142D01*
X180187000Y-139080075D01*
X180187000Y-138919925D01*
X180218242Y-138762858D01*
X180279529Y-138614899D01*
X180368499Y-138481745D01*
X180481745Y-138368499D01*
X180614899Y-138279529D01*
X180762858Y-138218242D01*
X180919925Y-138187000D01*
X181080075Y-138187000D01*
X181237142Y-138218242D01*
X181237142Y-138218242D01*
G37*
G36*
X131651248Y-138159976D02*
G01*
X131711924Y-138165952D01*
X131867626Y-138213184D01*
X131867628Y-138213185D01*
X132011121Y-138289883D01*
X132136896Y-138393104D01*
X132240117Y-138518879D01*
X132291440Y-138614899D01*
X132316816Y-138662374D01*
X132364048Y-138818076D01*
X132379996Y-138980000D01*
X132364048Y-139141924D01*
X132316816Y-139297626D01*
X132316815Y-139297628D01*
X132240117Y-139441121D01*
X132136896Y-139566896D01*
X132011121Y-139670117D01*
X131867628Y-139746815D01*
X131867626Y-139746816D01*
X131711924Y-139794048D01*
X131651248Y-139800024D01*
X131590574Y-139806000D01*
X131509426Y-139806000D01*
X131448752Y-139800024D01*
X131388076Y-139794048D01*
X131232374Y-139746816D01*
X131232372Y-139746815D01*
X131088879Y-139670117D01*
X130963104Y-139566896D01*
X130859883Y-139441121D01*
X130783185Y-139297628D01*
X130783184Y-139297626D01*
X130735952Y-139141924D01*
X130720004Y-138980000D01*
X130735952Y-138818076D01*
X130783184Y-138662374D01*
X130808560Y-138614899D01*
X130859883Y-138518879D01*
X130963104Y-138393104D01*
X131088879Y-138289883D01*
X131232372Y-138213185D01*
X131232374Y-138213184D01*
X131388076Y-138165952D01*
X131448752Y-138159976D01*
X131509426Y-138154000D01*
X131590574Y-138154000D01*
X131651248Y-138159976D01*
X131651248Y-138159976D01*
G37*
G36*
X142644468Y-137995565D02*
G01*
X142683138Y-138007296D01*
X142718777Y-138026346D01*
X142750017Y-138051983D01*
X142775654Y-138083223D01*
X142794704Y-138118862D01*
X142806435Y-138157532D01*
X142811000Y-138203888D01*
X142811000Y-138855112D01*
X142806435Y-138901468D01*
X142794704Y-138940138D01*
X142775654Y-138975777D01*
X142750017Y-139007017D01*
X142718777Y-139032654D01*
X142683138Y-139051704D01*
X142644468Y-139063435D01*
X142598112Y-139068000D01*
X141521888Y-139068000D01*
X141475532Y-139063435D01*
X141436862Y-139051704D01*
X141401223Y-139032654D01*
X141369983Y-139007017D01*
X141344346Y-138975777D01*
X141325296Y-138940138D01*
X141313565Y-138901468D01*
X141309000Y-138855112D01*
X141309000Y-138203888D01*
X141313565Y-138157532D01*
X141325296Y-138118862D01*
X141344346Y-138083223D01*
X141369983Y-138051983D01*
X141401223Y-138026346D01*
X141436862Y-138007296D01*
X141475532Y-137995565D01*
X141521888Y-137991000D01*
X142598112Y-137991000D01*
X142644468Y-137995565D01*
X142644468Y-137995565D01*
G37*
G36*
X149374468Y-137995565D02*
G01*
X149413138Y-138007296D01*
X149448777Y-138026346D01*
X149480017Y-138051983D01*
X149505654Y-138083223D01*
X149524704Y-138118862D01*
X149536435Y-138157532D01*
X149541000Y-138203888D01*
X149541000Y-138855112D01*
X149536435Y-138901468D01*
X149524704Y-138940138D01*
X149505654Y-138975777D01*
X149480017Y-139007017D01*
X149448777Y-139032654D01*
X149413138Y-139051704D01*
X149374468Y-139063435D01*
X149328112Y-139068000D01*
X148251888Y-139068000D01*
X148205532Y-139063435D01*
X148166862Y-139051704D01*
X148131223Y-139032654D01*
X148099983Y-139007017D01*
X148074346Y-138975777D01*
X148055296Y-138940138D01*
X148043565Y-138901468D01*
X148039000Y-138855112D01*
X148039000Y-138203888D01*
X148043565Y-138157532D01*
X148055296Y-138118862D01*
X148074346Y-138083223D01*
X148099983Y-138051983D01*
X148131223Y-138026346D01*
X148166862Y-138007296D01*
X148205532Y-137995565D01*
X148251888Y-137991000D01*
X149328112Y-137991000D01*
X149374468Y-137995565D01*
X149374468Y-137995565D01*
G37*
G36*
X144911000Y-139036000D02*
G01*
X143749000Y-139036000D01*
X143749000Y-136384000D01*
X144911000Y-136384000D01*
X144911000Y-139036000D01*
X144911000Y-139036000D01*
G37*
G36*
X147111000Y-139036000D02*
G01*
X145949000Y-139036000D01*
X145949000Y-138284000D01*
X147111000Y-138284000D01*
X147111000Y-139036000D01*
X147111000Y-139036000D01*
G37*
G36*
X152364903Y-135597075D02*
G01*
X152592571Y-135691378D01*
X152797466Y-135828285D01*
X152971715Y-136002534D01*
X153100224Y-136194861D01*
X153108623Y-136207431D01*
X153202925Y-136435097D01*
X153251000Y-136676786D01*
X153251000Y-136923214D01*
X153202925Y-137164903D01*
X153151523Y-137289000D01*
X153108622Y-137392571D01*
X152971715Y-137597466D01*
X152797466Y-137771715D01*
X152592571Y-137908622D01*
X152592570Y-137908623D01*
X152592569Y-137908623D01*
X152364903Y-138002925D01*
X152123214Y-138051000D01*
X151876786Y-138051000D01*
X151635097Y-138002925D01*
X151407431Y-137908623D01*
X151407430Y-137908623D01*
X151407429Y-137908622D01*
X151202534Y-137771715D01*
X151028285Y-137597466D01*
X150891378Y-137392571D01*
X150848478Y-137289000D01*
X150797075Y-137164903D01*
X150749000Y-136923214D01*
X150749000Y-136676786D01*
X150797075Y-136435097D01*
X150891377Y-136207431D01*
X150899776Y-136194861D01*
X151028285Y-136002534D01*
X151202534Y-135828285D01*
X151407429Y-135691378D01*
X151635097Y-135597075D01*
X151876786Y-135549000D01*
X152123214Y-135549000D01*
X152364903Y-135597075D01*
X152364903Y-135597075D01*
G37*
G36*
X139164903Y-135597075D02*
G01*
X139392571Y-135691378D01*
X139597466Y-135828285D01*
X139771715Y-136002534D01*
X139900224Y-136194861D01*
X139908623Y-136207431D01*
X140002925Y-136435097D01*
X140051000Y-136676786D01*
X140051000Y-136923214D01*
X140002925Y-137164903D01*
X139951523Y-137289000D01*
X139908622Y-137392571D01*
X139771715Y-137597466D01*
X139597466Y-137771715D01*
X139392571Y-137908622D01*
X139392570Y-137908623D01*
X139392569Y-137908623D01*
X139164903Y-138002925D01*
X138923214Y-138051000D01*
X138676786Y-138051000D01*
X138435097Y-138002925D01*
X138207431Y-137908623D01*
X138207430Y-137908623D01*
X138207429Y-137908622D01*
X138002534Y-137771715D01*
X137828285Y-137597466D01*
X137691378Y-137392571D01*
X137648478Y-137289000D01*
X137597075Y-137164903D01*
X137549000Y-136923214D01*
X137549000Y-136676786D01*
X137597075Y-136435097D01*
X137691377Y-136207431D01*
X137699776Y-136194861D01*
X137828285Y-136002534D01*
X138002534Y-135828285D01*
X138207429Y-135691378D01*
X138435097Y-135597075D01*
X138676786Y-135549000D01*
X138923214Y-135549000D01*
X139164903Y-135597075D01*
X139164903Y-135597075D01*
G37*
G36*
X183902585Y-134408802D02*
G01*
X184052410Y-134438604D01*
X184334674Y-134555521D01*
X184588705Y-134725259D01*
X184804741Y-134941295D01*
X184974479Y-135195326D01*
X185033992Y-135339005D01*
X185091396Y-135477591D01*
X185151000Y-135777239D01*
X185151000Y-136082761D01*
X185135362Y-136161377D01*
X185091396Y-136382410D01*
X184974479Y-136664674D01*
X184804741Y-136918705D01*
X184588705Y-137134741D01*
X184334674Y-137304479D01*
X184052410Y-137421396D01*
X183939687Y-137443818D01*
X183752761Y-137481000D01*
X183447239Y-137481000D01*
X183260313Y-137443818D01*
X183147590Y-137421396D01*
X182865326Y-137304479D01*
X182611295Y-137134741D01*
X182395259Y-136918705D01*
X182225521Y-136664674D01*
X182108604Y-136382410D01*
X182064638Y-136161377D01*
X182049000Y-136082761D01*
X182049000Y-135777239D01*
X182108604Y-135477591D01*
X182166008Y-135339005D01*
X182225521Y-135195326D01*
X182395259Y-134941295D01*
X182611295Y-134725259D01*
X182865326Y-134555521D01*
X183147590Y-134438604D01*
X183297415Y-134408802D01*
X183447239Y-134379000D01*
X183752761Y-134379000D01*
X183902585Y-134408802D01*
X183902585Y-134408802D01*
G37*
G36*
X142644468Y-136120565D02*
G01*
X142683138Y-136132296D01*
X142718777Y-136151346D01*
X142750017Y-136176983D01*
X142775654Y-136208223D01*
X142794704Y-136243862D01*
X142806435Y-136282532D01*
X142811000Y-136328888D01*
X142811000Y-136980112D01*
X142806435Y-137026468D01*
X142794704Y-137065138D01*
X142775654Y-137100777D01*
X142750017Y-137132017D01*
X142718777Y-137157654D01*
X142683138Y-137176704D01*
X142644468Y-137188435D01*
X142598112Y-137193000D01*
X141521888Y-137193000D01*
X141475532Y-137188435D01*
X141436862Y-137176704D01*
X141401223Y-137157654D01*
X141369983Y-137132017D01*
X141344346Y-137100777D01*
X141325296Y-137065138D01*
X141313565Y-137026468D01*
X141309000Y-136980112D01*
X141309000Y-136328888D01*
X141313565Y-136282532D01*
X141325296Y-136243862D01*
X141344346Y-136208223D01*
X141369983Y-136176983D01*
X141401223Y-136151346D01*
X141436862Y-136132296D01*
X141475532Y-136120565D01*
X141521888Y-136116000D01*
X142598112Y-136116000D01*
X142644468Y-136120565D01*
X142644468Y-136120565D01*
G37*
G36*
X149374468Y-136120565D02*
G01*
X149413138Y-136132296D01*
X149448777Y-136151346D01*
X149480017Y-136176983D01*
X149505654Y-136208223D01*
X149524704Y-136243862D01*
X149536435Y-136282532D01*
X149541000Y-136328888D01*
X149541000Y-136980112D01*
X149536435Y-137026468D01*
X149524704Y-137065138D01*
X149505654Y-137100777D01*
X149480017Y-137132017D01*
X149448777Y-137157654D01*
X149413138Y-137176704D01*
X149374468Y-137188435D01*
X149328112Y-137193000D01*
X148251888Y-137193000D01*
X148205532Y-137188435D01*
X148166862Y-137176704D01*
X148131223Y-137157654D01*
X148099983Y-137132017D01*
X148074346Y-137100777D01*
X148055296Y-137065138D01*
X148043565Y-137026468D01*
X148039000Y-136980112D01*
X148039000Y-136328888D01*
X148043565Y-136282532D01*
X148055296Y-136243862D01*
X148074346Y-136208223D01*
X148099983Y-136176983D01*
X148131223Y-136151346D01*
X148166862Y-136132296D01*
X148205532Y-136120565D01*
X148251888Y-136116000D01*
X149328112Y-136116000D01*
X149374468Y-136120565D01*
X149374468Y-136120565D01*
G37*
G36*
X147111000Y-137136000D02*
G01*
X145949000Y-137136000D01*
X145949000Y-136384000D01*
X147111000Y-136384000D01*
X147111000Y-137136000D01*
X147111000Y-137136000D01*
G37*
G36*
X167541000Y-136341000D02*
G01*
X157639000Y-136341000D01*
X157639000Y-134739000D01*
X167541000Y-134739000D01*
X167541000Y-136341000D01*
X167541000Y-136341000D01*
G37*
G36*
X155810721Y-135070174D02*
G01*
X155910995Y-135111709D01*
X155910996Y-135111710D01*
X156001242Y-135172010D01*
X156077990Y-135248758D01*
X156077991Y-135248760D01*
X156138291Y-135339005D01*
X156179826Y-135439279D01*
X156201000Y-135545730D01*
X156201000Y-135654270D01*
X156179826Y-135760721D01*
X156138291Y-135860995D01*
X156138290Y-135860996D01*
X156077990Y-135951242D01*
X156001242Y-136027990D01*
X155955812Y-136058345D01*
X155910995Y-136088291D01*
X155810721Y-136129826D01*
X155704270Y-136151000D01*
X155595730Y-136151000D01*
X155489279Y-136129826D01*
X155389005Y-136088291D01*
X155344188Y-136058345D01*
X155298758Y-136027990D01*
X155222010Y-135951242D01*
X155161710Y-135860996D01*
X155161709Y-135860995D01*
X155120174Y-135760721D01*
X155099000Y-135654270D01*
X155099000Y-135545730D01*
X155120174Y-135439279D01*
X155161709Y-135339005D01*
X155222009Y-135248760D01*
X155222010Y-135248758D01*
X155298758Y-135172010D01*
X155389004Y-135111710D01*
X155389005Y-135111709D01*
X155489279Y-135070174D01*
X155595730Y-135049000D01*
X155704270Y-135049000D01*
X155810721Y-135070174D01*
X155810721Y-135070174D01*
G37*
G36*
X176331488Y-131382592D02*
G01*
X176481579Y-131412447D01*
X176584576Y-131455110D01*
X176728633Y-131514780D01*
X176782042Y-131536903D01*
X177052451Y-131717585D01*
X177282415Y-131947549D01*
X177463097Y-132217958D01*
X177587553Y-132518421D01*
X177593753Y-132549591D01*
X177651000Y-132837389D01*
X177651000Y-133162611D01*
X177615207Y-133342552D01*
X177587553Y-133481579D01*
X177463097Y-133782042D01*
X177282415Y-134052451D01*
X177052451Y-134282415D01*
X176782042Y-134463097D01*
X176481579Y-134587553D01*
X176375256Y-134608702D01*
X176162611Y-134651000D01*
X175837389Y-134651000D01*
X175624744Y-134608702D01*
X175518421Y-134587553D01*
X175217958Y-134463097D01*
X174947549Y-134282415D01*
X174717585Y-134052451D01*
X174536903Y-133782042D01*
X174412447Y-133481579D01*
X174384793Y-133342552D01*
X174349000Y-133162611D01*
X174349000Y-132837389D01*
X174406247Y-132549591D01*
X174412447Y-132518421D01*
X174536903Y-132217958D01*
X174717585Y-131947549D01*
X174947549Y-131717585D01*
X175217958Y-131536903D01*
X175271368Y-131514780D01*
X175415424Y-131455110D01*
X175518421Y-131412447D01*
X175668512Y-131382592D01*
X175837389Y-131349000D01*
X176162611Y-131349000D01*
X176331488Y-131382592D01*
X176331488Y-131382592D01*
G37*
G36*
X133331488Y-131382592D02*
G01*
X133481579Y-131412447D01*
X133584576Y-131455110D01*
X133728633Y-131514780D01*
X133782042Y-131536903D01*
X134052451Y-131717585D01*
X134282415Y-131947549D01*
X134463097Y-132217958D01*
X134587553Y-132518421D01*
X134593753Y-132549591D01*
X134651000Y-132837389D01*
X134651000Y-133162611D01*
X134615207Y-133342552D01*
X134587553Y-133481579D01*
X134463097Y-133782042D01*
X134282415Y-134052451D01*
X134052451Y-134282415D01*
X133782042Y-134463097D01*
X133481579Y-134587553D01*
X133375256Y-134608702D01*
X133162611Y-134651000D01*
X132837389Y-134651000D01*
X132624744Y-134608702D01*
X132518421Y-134587553D01*
X132217958Y-134463097D01*
X131947549Y-134282415D01*
X131717585Y-134052451D01*
X131536903Y-133782042D01*
X131412447Y-133481579D01*
X131384793Y-133342552D01*
X131349000Y-133162611D01*
X131349000Y-132837389D01*
X131406247Y-132549591D01*
X131412447Y-132518421D01*
X131536903Y-132217958D01*
X131717585Y-131947549D01*
X131947549Y-131717585D01*
X132217958Y-131536903D01*
X132271368Y-131514780D01*
X132415424Y-131455110D01*
X132518421Y-131412447D01*
X132668512Y-131382592D01*
X132837389Y-131349000D01*
X133162611Y-131349000D01*
X133331488Y-131382592D01*
X133331488Y-131382592D01*
G37*
G36*
X156576000Y-134496000D02*
G01*
X155424000Y-134496000D01*
X155424000Y-133744000D01*
X156576000Y-133744000D01*
X156576000Y-134496000D01*
X156576000Y-134496000D01*
G37*
G36*
X152426000Y-134496000D02*
G01*
X151274000Y-134496000D01*
X151274000Y-133744000D01*
X152426000Y-133744000D01*
X152426000Y-134496000D01*
X152426000Y-134496000D01*
G37*
G36*
X140609591Y-133328085D02*
G01*
X140643569Y-133338393D01*
X140674890Y-133355134D01*
X140702339Y-133377661D01*
X140724866Y-133405110D01*
X140741607Y-133436431D01*
X140751915Y-133470409D01*
X140756000Y-133511890D01*
X140756000Y-134188110D01*
X140751915Y-134229591D01*
X140741607Y-134263569D01*
X140724866Y-134294890D01*
X140702339Y-134322339D01*
X140674890Y-134344866D01*
X140643569Y-134361607D01*
X140609591Y-134371915D01*
X140568110Y-134376000D01*
X139966890Y-134376000D01*
X139925409Y-134371915D01*
X139891431Y-134361607D01*
X139860110Y-134344866D01*
X139832661Y-134322339D01*
X139810134Y-134294890D01*
X139793393Y-134263569D01*
X139783085Y-134229591D01*
X139779000Y-134188110D01*
X139779000Y-133511890D01*
X139783085Y-133470409D01*
X139793393Y-133436431D01*
X139810134Y-133405110D01*
X139832661Y-133377661D01*
X139860110Y-133355134D01*
X139891431Y-133338393D01*
X139925409Y-133328085D01*
X139966890Y-133324000D01*
X140568110Y-133324000D01*
X140609591Y-133328085D01*
X140609591Y-133328085D01*
G37*
G36*
X139034591Y-133328085D02*
G01*
X139068569Y-133338393D01*
X139099890Y-133355134D01*
X139127339Y-133377661D01*
X139149866Y-133405110D01*
X139166607Y-133436431D01*
X139176915Y-133470409D01*
X139181000Y-133511890D01*
X139181000Y-134188110D01*
X139176915Y-134229591D01*
X139166607Y-134263569D01*
X139149866Y-134294890D01*
X139127339Y-134322339D01*
X139099890Y-134344866D01*
X139068569Y-134361607D01*
X139034591Y-134371915D01*
X138993110Y-134376000D01*
X138391890Y-134376000D01*
X138350409Y-134371915D01*
X138316431Y-134361607D01*
X138285110Y-134344866D01*
X138257661Y-134322339D01*
X138235134Y-134294890D01*
X138218393Y-134263569D01*
X138208085Y-134229591D01*
X138204000Y-134188110D01*
X138204000Y-133511890D01*
X138208085Y-133470409D01*
X138218393Y-133436431D01*
X138235134Y-133405110D01*
X138257661Y-133377661D01*
X138285110Y-133355134D01*
X138316431Y-133338393D01*
X138350409Y-133328085D01*
X138391890Y-133324000D01*
X138993110Y-133324000D01*
X139034591Y-133328085D01*
X139034591Y-133328085D01*
G37*
G36*
X145347591Y-133238085D02*
G01*
X145381569Y-133248393D01*
X145412890Y-133265134D01*
X145440339Y-133287661D01*
X145462866Y-133315110D01*
X145479607Y-133346431D01*
X145489915Y-133380409D01*
X145494000Y-133421890D01*
X145494000Y-134098110D01*
X145489915Y-134139591D01*
X145479607Y-134173569D01*
X145462866Y-134204890D01*
X145440339Y-134232339D01*
X145412890Y-134254866D01*
X145381569Y-134271607D01*
X145347591Y-134281915D01*
X145306110Y-134286000D01*
X144704890Y-134286000D01*
X144663409Y-134281915D01*
X144629431Y-134271607D01*
X144598110Y-134254866D01*
X144570661Y-134232339D01*
X144548134Y-134204890D01*
X144531393Y-134173569D01*
X144521085Y-134139591D01*
X144517000Y-134098110D01*
X144517000Y-133421890D01*
X144521085Y-133380409D01*
X144531393Y-133346431D01*
X144548134Y-133315110D01*
X144570661Y-133287661D01*
X144598110Y-133265134D01*
X144629431Y-133248393D01*
X144663409Y-133238085D01*
X144704890Y-133234000D01*
X145306110Y-133234000D01*
X145347591Y-133238085D01*
X145347591Y-133238085D01*
G37*
G36*
X143772591Y-133238085D02*
G01*
X143806569Y-133248393D01*
X143837890Y-133265134D01*
X143865339Y-133287661D01*
X143887866Y-133315110D01*
X143904607Y-133346431D01*
X143914915Y-133380409D01*
X143919000Y-133421890D01*
X143919000Y-134098110D01*
X143914915Y-134139591D01*
X143904607Y-134173569D01*
X143887866Y-134204890D01*
X143865339Y-134232339D01*
X143837890Y-134254866D01*
X143806569Y-134271607D01*
X143772591Y-134281915D01*
X143731110Y-134286000D01*
X143129890Y-134286000D01*
X143088409Y-134281915D01*
X143054431Y-134271607D01*
X143023110Y-134254866D01*
X142995661Y-134232339D01*
X142973134Y-134204890D01*
X142956393Y-134173569D01*
X142946085Y-134139591D01*
X142942000Y-134098110D01*
X142942000Y-133421890D01*
X142946085Y-133380409D01*
X142956393Y-133346431D01*
X142973134Y-133315110D01*
X142995661Y-133287661D01*
X143023110Y-133265134D01*
X143054431Y-133248393D01*
X143088409Y-133238085D01*
X143129890Y-133234000D01*
X143731110Y-133234000D01*
X143772591Y-133238085D01*
X143772591Y-133238085D01*
G37*
G36*
X150177591Y-133228085D02*
G01*
X150211569Y-133238393D01*
X150242890Y-133255134D01*
X150270339Y-133277661D01*
X150292866Y-133305110D01*
X150309607Y-133336431D01*
X150319915Y-133370409D01*
X150324000Y-133411890D01*
X150324000Y-134088110D01*
X150319915Y-134129591D01*
X150309607Y-134163569D01*
X150292866Y-134194890D01*
X150270339Y-134222339D01*
X150242890Y-134244866D01*
X150211569Y-134261607D01*
X150177591Y-134271915D01*
X150136110Y-134276000D01*
X149534890Y-134276000D01*
X149493409Y-134271915D01*
X149459431Y-134261607D01*
X149428110Y-134244866D01*
X149400661Y-134222339D01*
X149378134Y-134194890D01*
X149361393Y-134163569D01*
X149351085Y-134129591D01*
X149347000Y-134088110D01*
X149347000Y-133411890D01*
X149351085Y-133370409D01*
X149361393Y-133336431D01*
X149378134Y-133305110D01*
X149400661Y-133277661D01*
X149428110Y-133255134D01*
X149459431Y-133238393D01*
X149493409Y-133228085D01*
X149534890Y-133224000D01*
X150136110Y-133224000D01*
X150177591Y-133228085D01*
X150177591Y-133228085D01*
G37*
G36*
X148602591Y-133228085D02*
G01*
X148636569Y-133238393D01*
X148667890Y-133255134D01*
X148695339Y-133277661D01*
X148717866Y-133305110D01*
X148734607Y-133336431D01*
X148744915Y-133370409D01*
X148749000Y-133411890D01*
X148749000Y-134088110D01*
X148744915Y-134129591D01*
X148734607Y-134163569D01*
X148717866Y-134194890D01*
X148695339Y-134222339D01*
X148667890Y-134244866D01*
X148636569Y-134261607D01*
X148602591Y-134271915D01*
X148561110Y-134276000D01*
X147959890Y-134276000D01*
X147918409Y-134271915D01*
X147884431Y-134261607D01*
X147853110Y-134244866D01*
X147825661Y-134222339D01*
X147803134Y-134194890D01*
X147786393Y-134163569D01*
X147776085Y-134129591D01*
X147772000Y-134088110D01*
X147772000Y-133411890D01*
X147776085Y-133370409D01*
X147786393Y-133336431D01*
X147803134Y-133305110D01*
X147825661Y-133277661D01*
X147853110Y-133255134D01*
X147884431Y-133238393D01*
X147918409Y-133228085D01*
X147959890Y-133224000D01*
X148561110Y-133224000D01*
X148602591Y-133228085D01*
X148602591Y-133228085D01*
G37*
G36*
X185490442Y-131105518D02*
G01*
X185556627Y-131112037D01*
X185726466Y-131163557D01*
X185882991Y-131247222D01*
X185918729Y-131276552D01*
X186020186Y-131359814D01*
X186098392Y-131455110D01*
X186132778Y-131497009D01*
X186141086Y-131512552D01*
X186202614Y-131627661D01*
X186216443Y-131653534D01*
X186267963Y-131823373D01*
X186285359Y-132000000D01*
X186267963Y-132176627D01*
X186217051Y-132344461D01*
X186216442Y-132346468D01*
X186181624Y-132411607D01*
X186132778Y-132502991D01*
X186103448Y-132538729D01*
X186020186Y-132640186D01*
X185952175Y-132696000D01*
X185882991Y-132752778D01*
X185726466Y-132836443D01*
X185556627Y-132887963D01*
X185490443Y-132894481D01*
X185424260Y-132901000D01*
X185335740Y-132901000D01*
X185269557Y-132894481D01*
X185203373Y-132887963D01*
X185033534Y-132836443D01*
X184877009Y-132752778D01*
X184807825Y-132696000D01*
X184739814Y-132640186D01*
X184656552Y-132538729D01*
X184627222Y-132502991D01*
X184578376Y-132411607D01*
X184543558Y-132346468D01*
X184542949Y-132344461D01*
X184492037Y-132176627D01*
X184474641Y-132000000D01*
X184492037Y-131823373D01*
X184543557Y-131653534D01*
X184557387Y-131627661D01*
X184618914Y-131512552D01*
X184627222Y-131497009D01*
X184661608Y-131455110D01*
X184739814Y-131359814D01*
X184841271Y-131276552D01*
X184877009Y-131247222D01*
X185033534Y-131163557D01*
X185203373Y-131112037D01*
X185269558Y-131105518D01*
X185335740Y-131099000D01*
X185424260Y-131099000D01*
X185490442Y-131105518D01*
X185490442Y-131105518D01*
G37*
G36*
X182950442Y-131105518D02*
G01*
X183016627Y-131112037D01*
X183186466Y-131163557D01*
X183342991Y-131247222D01*
X183378729Y-131276552D01*
X183480186Y-131359814D01*
X183558392Y-131455110D01*
X183592778Y-131497009D01*
X183601086Y-131512552D01*
X183662614Y-131627661D01*
X183676443Y-131653534D01*
X183727963Y-131823373D01*
X183745359Y-132000000D01*
X183727963Y-132176627D01*
X183677051Y-132344461D01*
X183676442Y-132346468D01*
X183641624Y-132411607D01*
X183592778Y-132502991D01*
X183563448Y-132538729D01*
X183480186Y-132640186D01*
X183412175Y-132696000D01*
X183342991Y-132752778D01*
X183186466Y-132836443D01*
X183016627Y-132887963D01*
X182950443Y-132894481D01*
X182884260Y-132901000D01*
X182795740Y-132901000D01*
X182729557Y-132894481D01*
X182663373Y-132887963D01*
X182493534Y-132836443D01*
X182337009Y-132752778D01*
X182267825Y-132696000D01*
X182199814Y-132640186D01*
X182116552Y-132538729D01*
X182087222Y-132502991D01*
X182038376Y-132411607D01*
X182003558Y-132346468D01*
X182002949Y-132344461D01*
X181952037Y-132176627D01*
X181934641Y-132000000D01*
X181952037Y-131823373D01*
X182003557Y-131653534D01*
X182017387Y-131627661D01*
X182078914Y-131512552D01*
X182087222Y-131497009D01*
X182121608Y-131455110D01*
X182199814Y-131359814D01*
X182301271Y-131276552D01*
X182337009Y-131247222D01*
X182493534Y-131163557D01*
X182663373Y-131112037D01*
X182729558Y-131105518D01*
X182795740Y-131099000D01*
X182884260Y-131099000D01*
X182950442Y-131105518D01*
X182950442Y-131105518D01*
G37*
G36*
X188030442Y-131105518D02*
G01*
X188096627Y-131112037D01*
X188266466Y-131163557D01*
X188422991Y-131247222D01*
X188458729Y-131276552D01*
X188560186Y-131359814D01*
X188638392Y-131455110D01*
X188672778Y-131497009D01*
X188681086Y-131512552D01*
X188742614Y-131627661D01*
X188756443Y-131653534D01*
X188807963Y-131823373D01*
X188825359Y-132000000D01*
X188807963Y-132176627D01*
X188757051Y-132344461D01*
X188756442Y-132346468D01*
X188721624Y-132411607D01*
X188672778Y-132502991D01*
X188643448Y-132538729D01*
X188560186Y-132640186D01*
X188492175Y-132696000D01*
X188422991Y-132752778D01*
X188266466Y-132836443D01*
X188096627Y-132887963D01*
X188030443Y-132894481D01*
X187964260Y-132901000D01*
X187875740Y-132901000D01*
X187809557Y-132894481D01*
X187743373Y-132887963D01*
X187573534Y-132836443D01*
X187417009Y-132752778D01*
X187347825Y-132696000D01*
X187279814Y-132640186D01*
X187196552Y-132538729D01*
X187167222Y-132502991D01*
X187118376Y-132411607D01*
X187083558Y-132346468D01*
X187082949Y-132344461D01*
X187032037Y-132176627D01*
X187014641Y-132000000D01*
X187032037Y-131823373D01*
X187083557Y-131653534D01*
X187097387Y-131627661D01*
X187158914Y-131512552D01*
X187167222Y-131497009D01*
X187201608Y-131455110D01*
X187279814Y-131359814D01*
X187381271Y-131276552D01*
X187417009Y-131247222D01*
X187573534Y-131163557D01*
X187743373Y-131112037D01*
X187809558Y-131105518D01*
X187875740Y-131099000D01*
X187964260Y-131099000D01*
X188030442Y-131105518D01*
X188030442Y-131105518D01*
G37*
G36*
X190570442Y-131105518D02*
G01*
X190636627Y-131112037D01*
X190806466Y-131163557D01*
X190962991Y-131247222D01*
X190998729Y-131276552D01*
X191100186Y-131359814D01*
X191178392Y-131455110D01*
X191212778Y-131497009D01*
X191221086Y-131512552D01*
X191282614Y-131627661D01*
X191296443Y-131653534D01*
X191347963Y-131823373D01*
X191365359Y-132000000D01*
X191347963Y-132176627D01*
X191297051Y-132344461D01*
X191296442Y-132346468D01*
X191261624Y-132411607D01*
X191212778Y-132502991D01*
X191183448Y-132538729D01*
X191100186Y-132640186D01*
X191032175Y-132696000D01*
X190962991Y-132752778D01*
X190806466Y-132836443D01*
X190636627Y-132887963D01*
X190570443Y-132894481D01*
X190504260Y-132901000D01*
X190415740Y-132901000D01*
X190349557Y-132894481D01*
X190283373Y-132887963D01*
X190113534Y-132836443D01*
X189957009Y-132752778D01*
X189887825Y-132696000D01*
X189819814Y-132640186D01*
X189736552Y-132538729D01*
X189707222Y-132502991D01*
X189658376Y-132411607D01*
X189623558Y-132346468D01*
X189622949Y-132344461D01*
X189572037Y-132176627D01*
X189554641Y-132000000D01*
X189572037Y-131823373D01*
X189623557Y-131653534D01*
X189637387Y-131627661D01*
X189698914Y-131512552D01*
X189707222Y-131497009D01*
X189741608Y-131455110D01*
X189819814Y-131359814D01*
X189921271Y-131276552D01*
X189957009Y-131247222D01*
X190113534Y-131163557D01*
X190283373Y-131112037D01*
X190349558Y-131105518D01*
X190415740Y-131099000D01*
X190504260Y-131099000D01*
X190570442Y-131105518D01*
X190570442Y-131105518D01*
G37*
G36*
X193901000Y-132901000D02*
G01*
X192099000Y-132901000D01*
X192099000Y-131099000D01*
X193901000Y-131099000D01*
X193901000Y-132901000D01*
X193901000Y-132901000D01*
G37*
G36*
X140599591Y-131648085D02*
G01*
X140633569Y-131658393D01*
X140664890Y-131675134D01*
X140692339Y-131697661D01*
X140714866Y-131725110D01*
X140731607Y-131756431D01*
X140741915Y-131790409D01*
X140746000Y-131831890D01*
X140746000Y-132508110D01*
X140741915Y-132549591D01*
X140731607Y-132583569D01*
X140714866Y-132614890D01*
X140692339Y-132642339D01*
X140664890Y-132664866D01*
X140633569Y-132681607D01*
X140599591Y-132691915D01*
X140558110Y-132696000D01*
X139956890Y-132696000D01*
X139915409Y-132691915D01*
X139881431Y-132681607D01*
X139850110Y-132664866D01*
X139822661Y-132642339D01*
X139800134Y-132614890D01*
X139783393Y-132583569D01*
X139773085Y-132549591D01*
X139769000Y-132508110D01*
X139769000Y-131831890D01*
X139773085Y-131790409D01*
X139783393Y-131756431D01*
X139800134Y-131725110D01*
X139822661Y-131697661D01*
X139850110Y-131675134D01*
X139881431Y-131658393D01*
X139915409Y-131648085D01*
X139956890Y-131644000D01*
X140558110Y-131644000D01*
X140599591Y-131648085D01*
X140599591Y-131648085D01*
G37*
G36*
X139024591Y-131648085D02*
G01*
X139058569Y-131658393D01*
X139089890Y-131675134D01*
X139117339Y-131697661D01*
X139139866Y-131725110D01*
X139156607Y-131756431D01*
X139166915Y-131790409D01*
X139171000Y-131831890D01*
X139171000Y-132508110D01*
X139166915Y-132549591D01*
X139156607Y-132583569D01*
X139139866Y-132614890D01*
X139117339Y-132642339D01*
X139089890Y-132664866D01*
X139058569Y-132681607D01*
X139024591Y-132691915D01*
X138983110Y-132696000D01*
X138381890Y-132696000D01*
X138340409Y-132691915D01*
X138306431Y-132681607D01*
X138275110Y-132664866D01*
X138247661Y-132642339D01*
X138225134Y-132614890D01*
X138208393Y-132583569D01*
X138198085Y-132549591D01*
X138194000Y-132508110D01*
X138194000Y-131831890D01*
X138198085Y-131790409D01*
X138208393Y-131756431D01*
X138225134Y-131725110D01*
X138247661Y-131697661D01*
X138275110Y-131675134D01*
X138306431Y-131658393D01*
X138340409Y-131648085D01*
X138381890Y-131644000D01*
X138983110Y-131644000D01*
X139024591Y-131648085D01*
X139024591Y-131648085D01*
G37*
G36*
X143784591Y-131588085D02*
G01*
X143818569Y-131598393D01*
X143849890Y-131615134D01*
X143877339Y-131637661D01*
X143899866Y-131665110D01*
X143916607Y-131696431D01*
X143926915Y-131730409D01*
X143931000Y-131771890D01*
X143931000Y-132448110D01*
X143926915Y-132489591D01*
X143916607Y-132523569D01*
X143899866Y-132554890D01*
X143877339Y-132582339D01*
X143849890Y-132604866D01*
X143818569Y-132621607D01*
X143784591Y-132631915D01*
X143743110Y-132636000D01*
X143141890Y-132636000D01*
X143100409Y-132631915D01*
X143066431Y-132621607D01*
X143035110Y-132604866D01*
X143007661Y-132582339D01*
X142985134Y-132554890D01*
X142968393Y-132523569D01*
X142958085Y-132489591D01*
X142954000Y-132448110D01*
X142954000Y-131771890D01*
X142958085Y-131730409D01*
X142968393Y-131696431D01*
X142985134Y-131665110D01*
X143007661Y-131637661D01*
X143035110Y-131615134D01*
X143066431Y-131598393D01*
X143100409Y-131588085D01*
X143141890Y-131584000D01*
X143743110Y-131584000D01*
X143784591Y-131588085D01*
X143784591Y-131588085D01*
G37*
G36*
X145359591Y-131588085D02*
G01*
X145393569Y-131598393D01*
X145424890Y-131615134D01*
X145452339Y-131637661D01*
X145474866Y-131665110D01*
X145491607Y-131696431D01*
X145501915Y-131730409D01*
X145506000Y-131771890D01*
X145506000Y-132448110D01*
X145501915Y-132489591D01*
X145491607Y-132523569D01*
X145474866Y-132554890D01*
X145452339Y-132582339D01*
X145424890Y-132604866D01*
X145393569Y-132621607D01*
X145359591Y-132631915D01*
X145318110Y-132636000D01*
X144716890Y-132636000D01*
X144675409Y-132631915D01*
X144641431Y-132621607D01*
X144610110Y-132604866D01*
X144582661Y-132582339D01*
X144560134Y-132554890D01*
X144543393Y-132523569D01*
X144533085Y-132489591D01*
X144529000Y-132448110D01*
X144529000Y-131771890D01*
X144533085Y-131730409D01*
X144543393Y-131696431D01*
X144560134Y-131665110D01*
X144582661Y-131637661D01*
X144610110Y-131615134D01*
X144641431Y-131598393D01*
X144675409Y-131588085D01*
X144716890Y-131584000D01*
X145318110Y-131584000D01*
X145359591Y-131588085D01*
X145359591Y-131588085D01*
G37*
G36*
X150189591Y-131578085D02*
G01*
X150223569Y-131588393D01*
X150254890Y-131605134D01*
X150282339Y-131627661D01*
X150304866Y-131655110D01*
X150321607Y-131686431D01*
X150331915Y-131720409D01*
X150336000Y-131761890D01*
X150336000Y-132438110D01*
X150331915Y-132479591D01*
X150321607Y-132513569D01*
X150304866Y-132544890D01*
X150282339Y-132572339D01*
X150254890Y-132594866D01*
X150223569Y-132611607D01*
X150189591Y-132621915D01*
X150148110Y-132626000D01*
X149546890Y-132626000D01*
X149505409Y-132621915D01*
X149471431Y-132611607D01*
X149440110Y-132594866D01*
X149412661Y-132572339D01*
X149390134Y-132544890D01*
X149373393Y-132513569D01*
X149363085Y-132479591D01*
X149359000Y-132438110D01*
X149359000Y-131761890D01*
X149363085Y-131720409D01*
X149373393Y-131686431D01*
X149390134Y-131655110D01*
X149412661Y-131627661D01*
X149440110Y-131605134D01*
X149471431Y-131588393D01*
X149505409Y-131578085D01*
X149546890Y-131574000D01*
X150148110Y-131574000D01*
X150189591Y-131578085D01*
X150189591Y-131578085D01*
G37*
G36*
X148614591Y-131578085D02*
G01*
X148648569Y-131588393D01*
X148679890Y-131605134D01*
X148707339Y-131627661D01*
X148729866Y-131655110D01*
X148746607Y-131686431D01*
X148756915Y-131720409D01*
X148761000Y-131761890D01*
X148761000Y-132438110D01*
X148756915Y-132479591D01*
X148746607Y-132513569D01*
X148729866Y-132544890D01*
X148707339Y-132572339D01*
X148679890Y-132594866D01*
X148648569Y-132611607D01*
X148614591Y-132621915D01*
X148573110Y-132626000D01*
X147971890Y-132626000D01*
X147930409Y-132621915D01*
X147896431Y-132611607D01*
X147865110Y-132594866D01*
X147837661Y-132572339D01*
X147815134Y-132544890D01*
X147798393Y-132513569D01*
X147788085Y-132479591D01*
X147784000Y-132438110D01*
X147784000Y-131761890D01*
X147788085Y-131720409D01*
X147798393Y-131686431D01*
X147815134Y-131655110D01*
X147837661Y-131627661D01*
X147865110Y-131605134D01*
X147896431Y-131588393D01*
X147930409Y-131578085D01*
X147971890Y-131574000D01*
X148573110Y-131574000D01*
X148614591Y-131578085D01*
X148614591Y-131578085D01*
G37*
G36*
X168834591Y-131408085D02*
G01*
X168868569Y-131418393D01*
X168899890Y-131435134D01*
X168927339Y-131457661D01*
X168949866Y-131485110D01*
X168966607Y-131516431D01*
X168976915Y-131550409D01*
X168981000Y-131591890D01*
X168981000Y-132268110D01*
X168976915Y-132309591D01*
X168966607Y-132343569D01*
X168949866Y-132374890D01*
X168927339Y-132402339D01*
X168899890Y-132424866D01*
X168868569Y-132441607D01*
X168834591Y-132451915D01*
X168793110Y-132456000D01*
X168191890Y-132456000D01*
X168150409Y-132451915D01*
X168116431Y-132441607D01*
X168085110Y-132424866D01*
X168057661Y-132402339D01*
X168035134Y-132374890D01*
X168018393Y-132343569D01*
X168008085Y-132309591D01*
X168004000Y-132268110D01*
X168004000Y-131591890D01*
X168008085Y-131550409D01*
X168018393Y-131516431D01*
X168035134Y-131485110D01*
X168057661Y-131457661D01*
X168085110Y-131435134D01*
X168116431Y-131418393D01*
X168150409Y-131408085D01*
X168191890Y-131404000D01*
X168793110Y-131404000D01*
X168834591Y-131408085D01*
X168834591Y-131408085D01*
G37*
G36*
X170409591Y-131408085D02*
G01*
X170443569Y-131418393D01*
X170474890Y-131435134D01*
X170502339Y-131457661D01*
X170524866Y-131485110D01*
X170541607Y-131516431D01*
X170551915Y-131550409D01*
X170556000Y-131591890D01*
X170556000Y-132268110D01*
X170551915Y-132309591D01*
X170541607Y-132343569D01*
X170524866Y-132374890D01*
X170502339Y-132402339D01*
X170474890Y-132424866D01*
X170443569Y-132441607D01*
X170409591Y-132451915D01*
X170368110Y-132456000D01*
X169766890Y-132456000D01*
X169725409Y-132451915D01*
X169691431Y-132441607D01*
X169660110Y-132424866D01*
X169632661Y-132402339D01*
X169610134Y-132374890D01*
X169593393Y-132343569D01*
X169583085Y-132309591D01*
X169579000Y-132268110D01*
X169579000Y-131591890D01*
X169583085Y-131550409D01*
X169593393Y-131516431D01*
X169610134Y-131485110D01*
X169632661Y-131457661D01*
X169660110Y-131435134D01*
X169691431Y-131418393D01*
X169725409Y-131408085D01*
X169766890Y-131404000D01*
X170368110Y-131404000D01*
X170409591Y-131408085D01*
X170409591Y-131408085D01*
G37*
G36*
X165386591Y-131378085D02*
G01*
X165420569Y-131388393D01*
X165451890Y-131405134D01*
X165479339Y-131427661D01*
X165501866Y-131455110D01*
X165518607Y-131486431D01*
X165528915Y-131520409D01*
X165533000Y-131561890D01*
X165533000Y-132238110D01*
X165528915Y-132279591D01*
X165518607Y-132313569D01*
X165501866Y-132344890D01*
X165479339Y-132372339D01*
X165451890Y-132394866D01*
X165420569Y-132411607D01*
X165386591Y-132421915D01*
X165345110Y-132426000D01*
X164743890Y-132426000D01*
X164702409Y-132421915D01*
X164668431Y-132411607D01*
X164637110Y-132394866D01*
X164609661Y-132372339D01*
X164587134Y-132344890D01*
X164570393Y-132313569D01*
X164560085Y-132279591D01*
X164556000Y-132238110D01*
X164556000Y-131561890D01*
X164560085Y-131520409D01*
X164570393Y-131486431D01*
X164587134Y-131455110D01*
X164609661Y-131427661D01*
X164637110Y-131405134D01*
X164668431Y-131388393D01*
X164702409Y-131378085D01*
X164743890Y-131374000D01*
X165345110Y-131374000D01*
X165386591Y-131378085D01*
X165386591Y-131378085D01*
G37*
G36*
X166961591Y-131378085D02*
G01*
X166995569Y-131388393D01*
X167026890Y-131405134D01*
X167054339Y-131427661D01*
X167076866Y-131455110D01*
X167093607Y-131486431D01*
X167103915Y-131520409D01*
X167108000Y-131561890D01*
X167108000Y-132238110D01*
X167103915Y-132279591D01*
X167093607Y-132313569D01*
X167076866Y-132344890D01*
X167054339Y-132372339D01*
X167026890Y-132394866D01*
X166995569Y-132411607D01*
X166961591Y-132421915D01*
X166920110Y-132426000D01*
X166318890Y-132426000D01*
X166277409Y-132421915D01*
X166243431Y-132411607D01*
X166212110Y-132394866D01*
X166184661Y-132372339D01*
X166162134Y-132344890D01*
X166145393Y-132313569D01*
X166135085Y-132279591D01*
X166131000Y-132238110D01*
X166131000Y-131561890D01*
X166135085Y-131520409D01*
X166145393Y-131486431D01*
X166162134Y-131455110D01*
X166184661Y-131427661D01*
X166212110Y-131405134D01*
X166243431Y-131388393D01*
X166277409Y-131378085D01*
X166318890Y-131374000D01*
X166920110Y-131374000D01*
X166961591Y-131378085D01*
X166961591Y-131378085D01*
G37*
G36*
X163839591Y-131368085D02*
G01*
X163873569Y-131378393D01*
X163904890Y-131395134D01*
X163932339Y-131417661D01*
X163954866Y-131445110D01*
X163971607Y-131476431D01*
X163981915Y-131510409D01*
X163986000Y-131551890D01*
X163986000Y-132228110D01*
X163981915Y-132269591D01*
X163971607Y-132303569D01*
X163954866Y-132334890D01*
X163932339Y-132362339D01*
X163904890Y-132384866D01*
X163873569Y-132401607D01*
X163839591Y-132411915D01*
X163798110Y-132416000D01*
X163196890Y-132416000D01*
X163155409Y-132411915D01*
X163121431Y-132401607D01*
X163090110Y-132384866D01*
X163062661Y-132362339D01*
X163040134Y-132334890D01*
X163023393Y-132303569D01*
X163013085Y-132269591D01*
X163009000Y-132228110D01*
X163009000Y-131551890D01*
X163013085Y-131510409D01*
X163023393Y-131476431D01*
X163040134Y-131445110D01*
X163062661Y-131417661D01*
X163090110Y-131395134D01*
X163121431Y-131378393D01*
X163155409Y-131368085D01*
X163196890Y-131364000D01*
X163798110Y-131364000D01*
X163839591Y-131368085D01*
X163839591Y-131368085D01*
G37*
G36*
X162264591Y-131368085D02*
G01*
X162298569Y-131378393D01*
X162329890Y-131395134D01*
X162357339Y-131417661D01*
X162379866Y-131445110D01*
X162396607Y-131476431D01*
X162406915Y-131510409D01*
X162411000Y-131551890D01*
X162411000Y-132228110D01*
X162406915Y-132269591D01*
X162396607Y-132303569D01*
X162379866Y-132334890D01*
X162357339Y-132362339D01*
X162329890Y-132384866D01*
X162298569Y-132401607D01*
X162264591Y-132411915D01*
X162223110Y-132416000D01*
X161621890Y-132416000D01*
X161580409Y-132411915D01*
X161546431Y-132401607D01*
X161515110Y-132384866D01*
X161487661Y-132362339D01*
X161465134Y-132334890D01*
X161448393Y-132303569D01*
X161438085Y-132269591D01*
X161434000Y-132228110D01*
X161434000Y-131551890D01*
X161438085Y-131510409D01*
X161448393Y-131476431D01*
X161465134Y-131445110D01*
X161487661Y-131417661D01*
X161515110Y-131395134D01*
X161546431Y-131378393D01*
X161580409Y-131368085D01*
X161621890Y-131364000D01*
X162223110Y-131364000D01*
X162264591Y-131368085D01*
X162264591Y-131368085D01*
G37*
G36*
X160451591Y-131368085D02*
G01*
X160485569Y-131378393D01*
X160516890Y-131395134D01*
X160544339Y-131417661D01*
X160566866Y-131445110D01*
X160583607Y-131476431D01*
X160593915Y-131510409D01*
X160598000Y-131551890D01*
X160598000Y-132228110D01*
X160593915Y-132269591D01*
X160583607Y-132303569D01*
X160566866Y-132334890D01*
X160544339Y-132362339D01*
X160516890Y-132384866D01*
X160485569Y-132401607D01*
X160451591Y-132411915D01*
X160410110Y-132416000D01*
X159808890Y-132416000D01*
X159767409Y-132411915D01*
X159733431Y-132401607D01*
X159702110Y-132384866D01*
X159674661Y-132362339D01*
X159652134Y-132334890D01*
X159635393Y-132303569D01*
X159625085Y-132269591D01*
X159621000Y-132228110D01*
X159621000Y-131551890D01*
X159625085Y-131510409D01*
X159635393Y-131476431D01*
X159652134Y-131445110D01*
X159674661Y-131417661D01*
X159702110Y-131395134D01*
X159733431Y-131378393D01*
X159767409Y-131368085D01*
X159808890Y-131364000D01*
X160410110Y-131364000D01*
X160451591Y-131368085D01*
X160451591Y-131368085D01*
G37*
G36*
X158876591Y-131368085D02*
G01*
X158910569Y-131378393D01*
X158941890Y-131395134D01*
X158969339Y-131417661D01*
X158991866Y-131445110D01*
X159008607Y-131476431D01*
X159018915Y-131510409D01*
X159023000Y-131551890D01*
X159023000Y-132228110D01*
X159018915Y-132269591D01*
X159008607Y-132303569D01*
X158991866Y-132334890D01*
X158969339Y-132362339D01*
X158941890Y-132384866D01*
X158910569Y-132401607D01*
X158876591Y-132411915D01*
X158835110Y-132416000D01*
X158233890Y-132416000D01*
X158192409Y-132411915D01*
X158158431Y-132401607D01*
X158127110Y-132384866D01*
X158099661Y-132362339D01*
X158077134Y-132334890D01*
X158060393Y-132303569D01*
X158050085Y-132269591D01*
X158046000Y-132228110D01*
X158046000Y-131551890D01*
X158050085Y-131510409D01*
X158060393Y-131476431D01*
X158077134Y-131445110D01*
X158099661Y-131417661D01*
X158127110Y-131395134D01*
X158158431Y-131378393D01*
X158192409Y-131368085D01*
X158233890Y-131364000D01*
X158835110Y-131364000D01*
X158876591Y-131368085D01*
X158876591Y-131368085D01*
G37*
G36*
X152426000Y-132346000D02*
G01*
X151274000Y-132346000D01*
X151274000Y-131594000D01*
X152426000Y-131594000D01*
X152426000Y-132346000D01*
X152426000Y-132346000D01*
G37*
G36*
X156576000Y-132346000D02*
G01*
X155424000Y-132346000D01*
X155424000Y-131594000D01*
X156576000Y-131594000D01*
X156576000Y-132346000D01*
X156576000Y-132346000D01*
G37*
M02*
