G04 #@! TF.GenerationSoftware,KiCad,Pcbnew,(5.1.2)-1*
G04 #@! TF.CreationDate,2022-02-25T21:01:52+09:00*
G04 #@! TF.ProjectId,wcc,7763632e-6b69-4636-9164-5f7063625858,v2.2*
G04 #@! TF.SameCoordinates,Original*
G04 #@! TF.FileFunction,Paste,Top*
G04 #@! TF.FilePolarity,Positive*
%FSLAX46Y46*%
G04 Gerber Fmt 4.6, Leading zero omitted, Abs format (unit mm)*
G04 Created by KiCad (PCBNEW (5.1.2)-1) date 2022-02-25 21:01:52*
%MOMM*%
%LPD*%
G04 APERTURE LIST*
%ADD10C,0.100000*%
%ADD11C,1.250000*%
%ADD12C,1.600000*%
%ADD13R,0.200000X1.500000*%
%ADD14R,1.500000X0.200000*%
%ADD15C,0.600000*%
%ADD16C,0.875000*%
%ADD17R,1.350000X0.400000*%
%ADD18R,1.050000X0.650000*%
%ADD19R,1.400000X1.200000*%
%ADD20R,1.060000X0.650000*%
%ADD21C,3.000000*%
%ADD22C,1.524000*%
%ADD23C,0.975000*%
G04 APERTURE END LIST*
D10*
G36*
X137807504Y-139646204D02*
G01*
X137831773Y-139649804D01*
X137855571Y-139655765D01*
X137878671Y-139664030D01*
X137900849Y-139674520D01*
X137921893Y-139687133D01*
X137941598Y-139701747D01*
X137959777Y-139718223D01*
X137976253Y-139736402D01*
X137990867Y-139756107D01*
X138003480Y-139777151D01*
X138013970Y-139799329D01*
X138022235Y-139822429D01*
X138028196Y-139846227D01*
X138031796Y-139870496D01*
X138033000Y-139895000D01*
X138033000Y-142045000D01*
X138031796Y-142069504D01*
X138028196Y-142093773D01*
X138022235Y-142117571D01*
X138013970Y-142140671D01*
X138003480Y-142162849D01*
X137990867Y-142183893D01*
X137976253Y-142203598D01*
X137959777Y-142221777D01*
X137941598Y-142238253D01*
X137921893Y-142252867D01*
X137900849Y-142265480D01*
X137878671Y-142275970D01*
X137855571Y-142284235D01*
X137831773Y-142290196D01*
X137807504Y-142293796D01*
X137783000Y-142295000D01*
X137033000Y-142295000D01*
X137008496Y-142293796D01*
X136984227Y-142290196D01*
X136960429Y-142284235D01*
X136937329Y-142275970D01*
X136915151Y-142265480D01*
X136894107Y-142252867D01*
X136874402Y-142238253D01*
X136856223Y-142221777D01*
X136839747Y-142203598D01*
X136825133Y-142183893D01*
X136812520Y-142162849D01*
X136802030Y-142140671D01*
X136793765Y-142117571D01*
X136787804Y-142093773D01*
X136784204Y-142069504D01*
X136783000Y-142045000D01*
X136783000Y-139895000D01*
X136784204Y-139870496D01*
X136787804Y-139846227D01*
X136793765Y-139822429D01*
X136802030Y-139799329D01*
X136812520Y-139777151D01*
X136825133Y-139756107D01*
X136839747Y-139736402D01*
X136856223Y-139718223D01*
X136874402Y-139701747D01*
X136894107Y-139687133D01*
X136915151Y-139674520D01*
X136937329Y-139664030D01*
X136960429Y-139655765D01*
X136984227Y-139649804D01*
X137008496Y-139646204D01*
X137033000Y-139645000D01*
X137783000Y-139645000D01*
X137807504Y-139646204D01*
X137807504Y-139646204D01*
G37*
D11*
X137408000Y-140970000D03*
D10*
G36*
X140607504Y-139646204D02*
G01*
X140631773Y-139649804D01*
X140655571Y-139655765D01*
X140678671Y-139664030D01*
X140700849Y-139674520D01*
X140721893Y-139687133D01*
X140741598Y-139701747D01*
X140759777Y-139718223D01*
X140776253Y-139736402D01*
X140790867Y-139756107D01*
X140803480Y-139777151D01*
X140813970Y-139799329D01*
X140822235Y-139822429D01*
X140828196Y-139846227D01*
X140831796Y-139870496D01*
X140833000Y-139895000D01*
X140833000Y-142045000D01*
X140831796Y-142069504D01*
X140828196Y-142093773D01*
X140822235Y-142117571D01*
X140813970Y-142140671D01*
X140803480Y-142162849D01*
X140790867Y-142183893D01*
X140776253Y-142203598D01*
X140759777Y-142221777D01*
X140741598Y-142238253D01*
X140721893Y-142252867D01*
X140700849Y-142265480D01*
X140678671Y-142275970D01*
X140655571Y-142284235D01*
X140631773Y-142290196D01*
X140607504Y-142293796D01*
X140583000Y-142295000D01*
X139833000Y-142295000D01*
X139808496Y-142293796D01*
X139784227Y-142290196D01*
X139760429Y-142284235D01*
X139737329Y-142275970D01*
X139715151Y-142265480D01*
X139694107Y-142252867D01*
X139674402Y-142238253D01*
X139656223Y-142221777D01*
X139639747Y-142203598D01*
X139625133Y-142183893D01*
X139612520Y-142162849D01*
X139602030Y-142140671D01*
X139593765Y-142117571D01*
X139587804Y-142093773D01*
X139584204Y-142069504D01*
X139583000Y-142045000D01*
X139583000Y-139895000D01*
X139584204Y-139870496D01*
X139587804Y-139846227D01*
X139593765Y-139822429D01*
X139602030Y-139799329D01*
X139612520Y-139777151D01*
X139625133Y-139756107D01*
X139639747Y-139736402D01*
X139656223Y-139718223D01*
X139674402Y-139701747D01*
X139694107Y-139687133D01*
X139715151Y-139674520D01*
X139737329Y-139664030D01*
X139760429Y-139655765D01*
X139784227Y-139649804D01*
X139808496Y-139646204D01*
X139833000Y-139645000D01*
X140583000Y-139645000D01*
X140607504Y-139646204D01*
X140607504Y-139646204D01*
G37*
D11*
X140208000Y-140970000D03*
D10*
G36*
X176084504Y-137451204D02*
G01*
X176108773Y-137454804D01*
X176132571Y-137460765D01*
X176155671Y-137469030D01*
X176177849Y-137479520D01*
X176198893Y-137492133D01*
X176218598Y-137506747D01*
X176236777Y-137523223D01*
X176253253Y-137541402D01*
X176267867Y-137561107D01*
X176280480Y-137582151D01*
X176290970Y-137604329D01*
X176299235Y-137627429D01*
X176305196Y-137651227D01*
X176308796Y-137675496D01*
X176310000Y-137700000D01*
X176310000Y-140700000D01*
X176308796Y-140724504D01*
X176305196Y-140748773D01*
X176299235Y-140772571D01*
X176290970Y-140795671D01*
X176280480Y-140817849D01*
X176267867Y-140838893D01*
X176253253Y-140858598D01*
X176236777Y-140876777D01*
X176218598Y-140893253D01*
X176198893Y-140907867D01*
X176177849Y-140920480D01*
X176155671Y-140930970D01*
X176132571Y-140939235D01*
X176108773Y-140945196D01*
X176084504Y-140948796D01*
X176060000Y-140950000D01*
X174960000Y-140950000D01*
X174935496Y-140948796D01*
X174911227Y-140945196D01*
X174887429Y-140939235D01*
X174864329Y-140930970D01*
X174842151Y-140920480D01*
X174821107Y-140907867D01*
X174801402Y-140893253D01*
X174783223Y-140876777D01*
X174766747Y-140858598D01*
X174752133Y-140838893D01*
X174739520Y-140817849D01*
X174729030Y-140795671D01*
X174720765Y-140772571D01*
X174714804Y-140748773D01*
X174711204Y-140724504D01*
X174710000Y-140700000D01*
X174710000Y-137700000D01*
X174711204Y-137675496D01*
X174714804Y-137651227D01*
X174720765Y-137627429D01*
X174729030Y-137604329D01*
X174739520Y-137582151D01*
X174752133Y-137561107D01*
X174766747Y-137541402D01*
X174783223Y-137523223D01*
X174801402Y-137506747D01*
X174821107Y-137492133D01*
X174842151Y-137479520D01*
X174864329Y-137469030D01*
X174887429Y-137460765D01*
X174911227Y-137454804D01*
X174935496Y-137451204D01*
X174960000Y-137450000D01*
X176060000Y-137450000D01*
X176084504Y-137451204D01*
X176084504Y-137451204D01*
G37*
D12*
X175510000Y-139200000D03*
D10*
G36*
X176084504Y-142851204D02*
G01*
X176108773Y-142854804D01*
X176132571Y-142860765D01*
X176155671Y-142869030D01*
X176177849Y-142879520D01*
X176198893Y-142892133D01*
X176218598Y-142906747D01*
X176236777Y-142923223D01*
X176253253Y-142941402D01*
X176267867Y-142961107D01*
X176280480Y-142982151D01*
X176290970Y-143004329D01*
X176299235Y-143027429D01*
X176305196Y-143051227D01*
X176308796Y-143075496D01*
X176310000Y-143100000D01*
X176310000Y-146100000D01*
X176308796Y-146124504D01*
X176305196Y-146148773D01*
X176299235Y-146172571D01*
X176290970Y-146195671D01*
X176280480Y-146217849D01*
X176267867Y-146238893D01*
X176253253Y-146258598D01*
X176236777Y-146276777D01*
X176218598Y-146293253D01*
X176198893Y-146307867D01*
X176177849Y-146320480D01*
X176155671Y-146330970D01*
X176132571Y-146339235D01*
X176108773Y-146345196D01*
X176084504Y-146348796D01*
X176060000Y-146350000D01*
X174960000Y-146350000D01*
X174935496Y-146348796D01*
X174911227Y-146345196D01*
X174887429Y-146339235D01*
X174864329Y-146330970D01*
X174842151Y-146320480D01*
X174821107Y-146307867D01*
X174801402Y-146293253D01*
X174783223Y-146276777D01*
X174766747Y-146258598D01*
X174752133Y-146238893D01*
X174739520Y-146217849D01*
X174729030Y-146195671D01*
X174720765Y-146172571D01*
X174714804Y-146148773D01*
X174711204Y-146124504D01*
X174710000Y-146100000D01*
X174710000Y-143100000D01*
X174711204Y-143075496D01*
X174714804Y-143051227D01*
X174720765Y-143027429D01*
X174729030Y-143004329D01*
X174739520Y-142982151D01*
X174752133Y-142961107D01*
X174766747Y-142941402D01*
X174783223Y-142923223D01*
X174801402Y-142906747D01*
X174821107Y-142892133D01*
X174842151Y-142879520D01*
X174864329Y-142869030D01*
X174887429Y-142860765D01*
X174911227Y-142854804D01*
X174935496Y-142851204D01*
X174960000Y-142850000D01*
X176060000Y-142850000D01*
X176084504Y-142851204D01*
X176084504Y-142851204D01*
G37*
D12*
X175510000Y-144600000D03*
D13*
X157790000Y-135540000D03*
X158190000Y-135540000D03*
X158590000Y-135540000D03*
X158990000Y-135540000D03*
X159390000Y-135540000D03*
X159790000Y-135540000D03*
X160190000Y-135540000D03*
X160590000Y-135540000D03*
X160990000Y-135540000D03*
X161390000Y-135540000D03*
X161790000Y-135540000D03*
X162190000Y-135540000D03*
X162590000Y-135540000D03*
X162990000Y-135540000D03*
X163390000Y-135540000D03*
X163790000Y-135540000D03*
X164190000Y-135540000D03*
X164590000Y-135540000D03*
X164990000Y-135540000D03*
X165390000Y-135540000D03*
X165790000Y-135540000D03*
X166190000Y-135540000D03*
X166590000Y-135540000D03*
X166990000Y-135540000D03*
X167390000Y-135540000D03*
D14*
X169290000Y-137440000D03*
X169290000Y-137840000D03*
X169290000Y-138240000D03*
X169290000Y-138640000D03*
X169290000Y-139040000D03*
X169290000Y-139440000D03*
X169290000Y-139840000D03*
X169290000Y-140240000D03*
X169290000Y-140640000D03*
X169290000Y-141040000D03*
X169290000Y-141440000D03*
X169290000Y-141840000D03*
X169290000Y-142240000D03*
X169290000Y-142640000D03*
X169290000Y-143040000D03*
X169290000Y-143440000D03*
X169290000Y-143840000D03*
X169290000Y-144240000D03*
X169290000Y-144640000D03*
X169290000Y-145040000D03*
X169290000Y-145440000D03*
X169290000Y-145840000D03*
X169290000Y-146240000D03*
X169290000Y-146640000D03*
X169290000Y-147040000D03*
D13*
X167390000Y-148940000D03*
X166990000Y-148940000D03*
X166590000Y-148940000D03*
X166190000Y-148940000D03*
X165790000Y-148940000D03*
X165390000Y-148940000D03*
X164990000Y-148940000D03*
X164590000Y-148940000D03*
X164190000Y-148940000D03*
X163790000Y-148940000D03*
X163390000Y-148940000D03*
X162990000Y-148940000D03*
X162590000Y-148940000D03*
X162190000Y-148940000D03*
X161790000Y-148940000D03*
X161390000Y-148940000D03*
X160990000Y-148940000D03*
X160590000Y-148940000D03*
X160190000Y-148940000D03*
X159790000Y-148940000D03*
X159390000Y-148940000D03*
X158990000Y-148940000D03*
X158590000Y-148940000D03*
X158190000Y-148940000D03*
X157790000Y-148940000D03*
D14*
X155890000Y-147040000D03*
X155890000Y-146640000D03*
X155890000Y-146240000D03*
X155890000Y-145840000D03*
X155890000Y-145440000D03*
X155890000Y-145040000D03*
X155890000Y-144640000D03*
X155890000Y-144240000D03*
X155890000Y-143840000D03*
X155890000Y-143440000D03*
X155890000Y-143040000D03*
X155890000Y-142640000D03*
X155890000Y-142240000D03*
X155890000Y-141840000D03*
X155890000Y-141440000D03*
X155890000Y-141040000D03*
X155890000Y-140640000D03*
X155890000Y-140240000D03*
X155890000Y-139840000D03*
X155890000Y-139440000D03*
X155890000Y-139040000D03*
X155890000Y-138640000D03*
X155890000Y-138240000D03*
X155890000Y-137840000D03*
X155890000Y-137440000D03*
D10*
G36*
X144354703Y-147435722D02*
G01*
X144369264Y-147437882D01*
X144383543Y-147441459D01*
X144397403Y-147446418D01*
X144410710Y-147452712D01*
X144423336Y-147460280D01*
X144435159Y-147469048D01*
X144446066Y-147478934D01*
X144455952Y-147489841D01*
X144464720Y-147501664D01*
X144472288Y-147514290D01*
X144478582Y-147527597D01*
X144483541Y-147541457D01*
X144487118Y-147555736D01*
X144489278Y-147570297D01*
X144490000Y-147585000D01*
X144490000Y-147885000D01*
X144489278Y-147899703D01*
X144487118Y-147914264D01*
X144483541Y-147928543D01*
X144478582Y-147942403D01*
X144472288Y-147955710D01*
X144464720Y-147968336D01*
X144455952Y-147980159D01*
X144446066Y-147991066D01*
X144435159Y-148000952D01*
X144423336Y-148009720D01*
X144410710Y-148017288D01*
X144397403Y-148023582D01*
X144383543Y-148028541D01*
X144369264Y-148032118D01*
X144354703Y-148034278D01*
X144340000Y-148035000D01*
X142690000Y-148035000D01*
X142675297Y-148034278D01*
X142660736Y-148032118D01*
X142646457Y-148028541D01*
X142632597Y-148023582D01*
X142619290Y-148017288D01*
X142606664Y-148009720D01*
X142594841Y-148000952D01*
X142583934Y-147991066D01*
X142574048Y-147980159D01*
X142565280Y-147968336D01*
X142557712Y-147955710D01*
X142551418Y-147942403D01*
X142546459Y-147928543D01*
X142542882Y-147914264D01*
X142540722Y-147899703D01*
X142540000Y-147885000D01*
X142540000Y-147585000D01*
X142540722Y-147570297D01*
X142542882Y-147555736D01*
X142546459Y-147541457D01*
X142551418Y-147527597D01*
X142557712Y-147514290D01*
X142565280Y-147501664D01*
X142574048Y-147489841D01*
X142583934Y-147478934D01*
X142594841Y-147469048D01*
X142606664Y-147460280D01*
X142619290Y-147452712D01*
X142632597Y-147446418D01*
X142646457Y-147441459D01*
X142660736Y-147437882D01*
X142675297Y-147435722D01*
X142690000Y-147435000D01*
X144340000Y-147435000D01*
X144354703Y-147435722D01*
X144354703Y-147435722D01*
G37*
D15*
X143515000Y-147735000D03*
D10*
G36*
X144354703Y-146165722D02*
G01*
X144369264Y-146167882D01*
X144383543Y-146171459D01*
X144397403Y-146176418D01*
X144410710Y-146182712D01*
X144423336Y-146190280D01*
X144435159Y-146199048D01*
X144446066Y-146208934D01*
X144455952Y-146219841D01*
X144464720Y-146231664D01*
X144472288Y-146244290D01*
X144478582Y-146257597D01*
X144483541Y-146271457D01*
X144487118Y-146285736D01*
X144489278Y-146300297D01*
X144490000Y-146315000D01*
X144490000Y-146615000D01*
X144489278Y-146629703D01*
X144487118Y-146644264D01*
X144483541Y-146658543D01*
X144478582Y-146672403D01*
X144472288Y-146685710D01*
X144464720Y-146698336D01*
X144455952Y-146710159D01*
X144446066Y-146721066D01*
X144435159Y-146730952D01*
X144423336Y-146739720D01*
X144410710Y-146747288D01*
X144397403Y-146753582D01*
X144383543Y-146758541D01*
X144369264Y-146762118D01*
X144354703Y-146764278D01*
X144340000Y-146765000D01*
X142690000Y-146765000D01*
X142675297Y-146764278D01*
X142660736Y-146762118D01*
X142646457Y-146758541D01*
X142632597Y-146753582D01*
X142619290Y-146747288D01*
X142606664Y-146739720D01*
X142594841Y-146730952D01*
X142583934Y-146721066D01*
X142574048Y-146710159D01*
X142565280Y-146698336D01*
X142557712Y-146685710D01*
X142551418Y-146672403D01*
X142546459Y-146658543D01*
X142542882Y-146644264D01*
X142540722Y-146629703D01*
X142540000Y-146615000D01*
X142540000Y-146315000D01*
X142540722Y-146300297D01*
X142542882Y-146285736D01*
X142546459Y-146271457D01*
X142551418Y-146257597D01*
X142557712Y-146244290D01*
X142565280Y-146231664D01*
X142574048Y-146219841D01*
X142583934Y-146208934D01*
X142594841Y-146199048D01*
X142606664Y-146190280D01*
X142619290Y-146182712D01*
X142632597Y-146176418D01*
X142646457Y-146171459D01*
X142660736Y-146167882D01*
X142675297Y-146165722D01*
X142690000Y-146165000D01*
X144340000Y-146165000D01*
X144354703Y-146165722D01*
X144354703Y-146165722D01*
G37*
D15*
X143515000Y-146465000D03*
D10*
G36*
X144354703Y-144895722D02*
G01*
X144369264Y-144897882D01*
X144383543Y-144901459D01*
X144397403Y-144906418D01*
X144410710Y-144912712D01*
X144423336Y-144920280D01*
X144435159Y-144929048D01*
X144446066Y-144938934D01*
X144455952Y-144949841D01*
X144464720Y-144961664D01*
X144472288Y-144974290D01*
X144478582Y-144987597D01*
X144483541Y-145001457D01*
X144487118Y-145015736D01*
X144489278Y-145030297D01*
X144490000Y-145045000D01*
X144490000Y-145345000D01*
X144489278Y-145359703D01*
X144487118Y-145374264D01*
X144483541Y-145388543D01*
X144478582Y-145402403D01*
X144472288Y-145415710D01*
X144464720Y-145428336D01*
X144455952Y-145440159D01*
X144446066Y-145451066D01*
X144435159Y-145460952D01*
X144423336Y-145469720D01*
X144410710Y-145477288D01*
X144397403Y-145483582D01*
X144383543Y-145488541D01*
X144369264Y-145492118D01*
X144354703Y-145494278D01*
X144340000Y-145495000D01*
X142690000Y-145495000D01*
X142675297Y-145494278D01*
X142660736Y-145492118D01*
X142646457Y-145488541D01*
X142632597Y-145483582D01*
X142619290Y-145477288D01*
X142606664Y-145469720D01*
X142594841Y-145460952D01*
X142583934Y-145451066D01*
X142574048Y-145440159D01*
X142565280Y-145428336D01*
X142557712Y-145415710D01*
X142551418Y-145402403D01*
X142546459Y-145388543D01*
X142542882Y-145374264D01*
X142540722Y-145359703D01*
X142540000Y-145345000D01*
X142540000Y-145045000D01*
X142540722Y-145030297D01*
X142542882Y-145015736D01*
X142546459Y-145001457D01*
X142551418Y-144987597D01*
X142557712Y-144974290D01*
X142565280Y-144961664D01*
X142574048Y-144949841D01*
X142583934Y-144938934D01*
X142594841Y-144929048D01*
X142606664Y-144920280D01*
X142619290Y-144912712D01*
X142632597Y-144906418D01*
X142646457Y-144901459D01*
X142660736Y-144897882D01*
X142675297Y-144895722D01*
X142690000Y-144895000D01*
X144340000Y-144895000D01*
X144354703Y-144895722D01*
X144354703Y-144895722D01*
G37*
D15*
X143515000Y-145195000D03*
D10*
G36*
X144354703Y-143625722D02*
G01*
X144369264Y-143627882D01*
X144383543Y-143631459D01*
X144397403Y-143636418D01*
X144410710Y-143642712D01*
X144423336Y-143650280D01*
X144435159Y-143659048D01*
X144446066Y-143668934D01*
X144455952Y-143679841D01*
X144464720Y-143691664D01*
X144472288Y-143704290D01*
X144478582Y-143717597D01*
X144483541Y-143731457D01*
X144487118Y-143745736D01*
X144489278Y-143760297D01*
X144490000Y-143775000D01*
X144490000Y-144075000D01*
X144489278Y-144089703D01*
X144487118Y-144104264D01*
X144483541Y-144118543D01*
X144478582Y-144132403D01*
X144472288Y-144145710D01*
X144464720Y-144158336D01*
X144455952Y-144170159D01*
X144446066Y-144181066D01*
X144435159Y-144190952D01*
X144423336Y-144199720D01*
X144410710Y-144207288D01*
X144397403Y-144213582D01*
X144383543Y-144218541D01*
X144369264Y-144222118D01*
X144354703Y-144224278D01*
X144340000Y-144225000D01*
X142690000Y-144225000D01*
X142675297Y-144224278D01*
X142660736Y-144222118D01*
X142646457Y-144218541D01*
X142632597Y-144213582D01*
X142619290Y-144207288D01*
X142606664Y-144199720D01*
X142594841Y-144190952D01*
X142583934Y-144181066D01*
X142574048Y-144170159D01*
X142565280Y-144158336D01*
X142557712Y-144145710D01*
X142551418Y-144132403D01*
X142546459Y-144118543D01*
X142542882Y-144104264D01*
X142540722Y-144089703D01*
X142540000Y-144075000D01*
X142540000Y-143775000D01*
X142540722Y-143760297D01*
X142542882Y-143745736D01*
X142546459Y-143731457D01*
X142551418Y-143717597D01*
X142557712Y-143704290D01*
X142565280Y-143691664D01*
X142574048Y-143679841D01*
X142583934Y-143668934D01*
X142594841Y-143659048D01*
X142606664Y-143650280D01*
X142619290Y-143642712D01*
X142632597Y-143636418D01*
X142646457Y-143631459D01*
X142660736Y-143627882D01*
X142675297Y-143625722D01*
X142690000Y-143625000D01*
X144340000Y-143625000D01*
X144354703Y-143625722D01*
X144354703Y-143625722D01*
G37*
D15*
X143515000Y-143925000D03*
D10*
G36*
X149304703Y-143625722D02*
G01*
X149319264Y-143627882D01*
X149333543Y-143631459D01*
X149347403Y-143636418D01*
X149360710Y-143642712D01*
X149373336Y-143650280D01*
X149385159Y-143659048D01*
X149396066Y-143668934D01*
X149405952Y-143679841D01*
X149414720Y-143691664D01*
X149422288Y-143704290D01*
X149428582Y-143717597D01*
X149433541Y-143731457D01*
X149437118Y-143745736D01*
X149439278Y-143760297D01*
X149440000Y-143775000D01*
X149440000Y-144075000D01*
X149439278Y-144089703D01*
X149437118Y-144104264D01*
X149433541Y-144118543D01*
X149428582Y-144132403D01*
X149422288Y-144145710D01*
X149414720Y-144158336D01*
X149405952Y-144170159D01*
X149396066Y-144181066D01*
X149385159Y-144190952D01*
X149373336Y-144199720D01*
X149360710Y-144207288D01*
X149347403Y-144213582D01*
X149333543Y-144218541D01*
X149319264Y-144222118D01*
X149304703Y-144224278D01*
X149290000Y-144225000D01*
X147640000Y-144225000D01*
X147625297Y-144224278D01*
X147610736Y-144222118D01*
X147596457Y-144218541D01*
X147582597Y-144213582D01*
X147569290Y-144207288D01*
X147556664Y-144199720D01*
X147544841Y-144190952D01*
X147533934Y-144181066D01*
X147524048Y-144170159D01*
X147515280Y-144158336D01*
X147507712Y-144145710D01*
X147501418Y-144132403D01*
X147496459Y-144118543D01*
X147492882Y-144104264D01*
X147490722Y-144089703D01*
X147490000Y-144075000D01*
X147490000Y-143775000D01*
X147490722Y-143760297D01*
X147492882Y-143745736D01*
X147496459Y-143731457D01*
X147501418Y-143717597D01*
X147507712Y-143704290D01*
X147515280Y-143691664D01*
X147524048Y-143679841D01*
X147533934Y-143668934D01*
X147544841Y-143659048D01*
X147556664Y-143650280D01*
X147569290Y-143642712D01*
X147582597Y-143636418D01*
X147596457Y-143631459D01*
X147610736Y-143627882D01*
X147625297Y-143625722D01*
X147640000Y-143625000D01*
X149290000Y-143625000D01*
X149304703Y-143625722D01*
X149304703Y-143625722D01*
G37*
D15*
X148465000Y-143925000D03*
D10*
G36*
X149304703Y-144895722D02*
G01*
X149319264Y-144897882D01*
X149333543Y-144901459D01*
X149347403Y-144906418D01*
X149360710Y-144912712D01*
X149373336Y-144920280D01*
X149385159Y-144929048D01*
X149396066Y-144938934D01*
X149405952Y-144949841D01*
X149414720Y-144961664D01*
X149422288Y-144974290D01*
X149428582Y-144987597D01*
X149433541Y-145001457D01*
X149437118Y-145015736D01*
X149439278Y-145030297D01*
X149440000Y-145045000D01*
X149440000Y-145345000D01*
X149439278Y-145359703D01*
X149437118Y-145374264D01*
X149433541Y-145388543D01*
X149428582Y-145402403D01*
X149422288Y-145415710D01*
X149414720Y-145428336D01*
X149405952Y-145440159D01*
X149396066Y-145451066D01*
X149385159Y-145460952D01*
X149373336Y-145469720D01*
X149360710Y-145477288D01*
X149347403Y-145483582D01*
X149333543Y-145488541D01*
X149319264Y-145492118D01*
X149304703Y-145494278D01*
X149290000Y-145495000D01*
X147640000Y-145495000D01*
X147625297Y-145494278D01*
X147610736Y-145492118D01*
X147596457Y-145488541D01*
X147582597Y-145483582D01*
X147569290Y-145477288D01*
X147556664Y-145469720D01*
X147544841Y-145460952D01*
X147533934Y-145451066D01*
X147524048Y-145440159D01*
X147515280Y-145428336D01*
X147507712Y-145415710D01*
X147501418Y-145402403D01*
X147496459Y-145388543D01*
X147492882Y-145374264D01*
X147490722Y-145359703D01*
X147490000Y-145345000D01*
X147490000Y-145045000D01*
X147490722Y-145030297D01*
X147492882Y-145015736D01*
X147496459Y-145001457D01*
X147501418Y-144987597D01*
X147507712Y-144974290D01*
X147515280Y-144961664D01*
X147524048Y-144949841D01*
X147533934Y-144938934D01*
X147544841Y-144929048D01*
X147556664Y-144920280D01*
X147569290Y-144912712D01*
X147582597Y-144906418D01*
X147596457Y-144901459D01*
X147610736Y-144897882D01*
X147625297Y-144895722D01*
X147640000Y-144895000D01*
X149290000Y-144895000D01*
X149304703Y-144895722D01*
X149304703Y-144895722D01*
G37*
D15*
X148465000Y-145195000D03*
D10*
G36*
X149304703Y-146165722D02*
G01*
X149319264Y-146167882D01*
X149333543Y-146171459D01*
X149347403Y-146176418D01*
X149360710Y-146182712D01*
X149373336Y-146190280D01*
X149385159Y-146199048D01*
X149396066Y-146208934D01*
X149405952Y-146219841D01*
X149414720Y-146231664D01*
X149422288Y-146244290D01*
X149428582Y-146257597D01*
X149433541Y-146271457D01*
X149437118Y-146285736D01*
X149439278Y-146300297D01*
X149440000Y-146315000D01*
X149440000Y-146615000D01*
X149439278Y-146629703D01*
X149437118Y-146644264D01*
X149433541Y-146658543D01*
X149428582Y-146672403D01*
X149422288Y-146685710D01*
X149414720Y-146698336D01*
X149405952Y-146710159D01*
X149396066Y-146721066D01*
X149385159Y-146730952D01*
X149373336Y-146739720D01*
X149360710Y-146747288D01*
X149347403Y-146753582D01*
X149333543Y-146758541D01*
X149319264Y-146762118D01*
X149304703Y-146764278D01*
X149290000Y-146765000D01*
X147640000Y-146765000D01*
X147625297Y-146764278D01*
X147610736Y-146762118D01*
X147596457Y-146758541D01*
X147582597Y-146753582D01*
X147569290Y-146747288D01*
X147556664Y-146739720D01*
X147544841Y-146730952D01*
X147533934Y-146721066D01*
X147524048Y-146710159D01*
X147515280Y-146698336D01*
X147507712Y-146685710D01*
X147501418Y-146672403D01*
X147496459Y-146658543D01*
X147492882Y-146644264D01*
X147490722Y-146629703D01*
X147490000Y-146615000D01*
X147490000Y-146315000D01*
X147490722Y-146300297D01*
X147492882Y-146285736D01*
X147496459Y-146271457D01*
X147501418Y-146257597D01*
X147507712Y-146244290D01*
X147515280Y-146231664D01*
X147524048Y-146219841D01*
X147533934Y-146208934D01*
X147544841Y-146199048D01*
X147556664Y-146190280D01*
X147569290Y-146182712D01*
X147582597Y-146176418D01*
X147596457Y-146171459D01*
X147610736Y-146167882D01*
X147625297Y-146165722D01*
X147640000Y-146165000D01*
X149290000Y-146165000D01*
X149304703Y-146165722D01*
X149304703Y-146165722D01*
G37*
D15*
X148465000Y-146465000D03*
D10*
G36*
X149304703Y-147435722D02*
G01*
X149319264Y-147437882D01*
X149333543Y-147441459D01*
X149347403Y-147446418D01*
X149360710Y-147452712D01*
X149373336Y-147460280D01*
X149385159Y-147469048D01*
X149396066Y-147478934D01*
X149405952Y-147489841D01*
X149414720Y-147501664D01*
X149422288Y-147514290D01*
X149428582Y-147527597D01*
X149433541Y-147541457D01*
X149437118Y-147555736D01*
X149439278Y-147570297D01*
X149440000Y-147585000D01*
X149440000Y-147885000D01*
X149439278Y-147899703D01*
X149437118Y-147914264D01*
X149433541Y-147928543D01*
X149428582Y-147942403D01*
X149422288Y-147955710D01*
X149414720Y-147968336D01*
X149405952Y-147980159D01*
X149396066Y-147991066D01*
X149385159Y-148000952D01*
X149373336Y-148009720D01*
X149360710Y-148017288D01*
X149347403Y-148023582D01*
X149333543Y-148028541D01*
X149319264Y-148032118D01*
X149304703Y-148034278D01*
X149290000Y-148035000D01*
X147640000Y-148035000D01*
X147625297Y-148034278D01*
X147610736Y-148032118D01*
X147596457Y-148028541D01*
X147582597Y-148023582D01*
X147569290Y-148017288D01*
X147556664Y-148009720D01*
X147544841Y-148000952D01*
X147533934Y-147991066D01*
X147524048Y-147980159D01*
X147515280Y-147968336D01*
X147507712Y-147955710D01*
X147501418Y-147942403D01*
X147496459Y-147928543D01*
X147492882Y-147914264D01*
X147490722Y-147899703D01*
X147490000Y-147885000D01*
X147490000Y-147585000D01*
X147490722Y-147570297D01*
X147492882Y-147555736D01*
X147496459Y-147541457D01*
X147501418Y-147527597D01*
X147507712Y-147514290D01*
X147515280Y-147501664D01*
X147524048Y-147489841D01*
X147533934Y-147478934D01*
X147544841Y-147469048D01*
X147556664Y-147460280D01*
X147569290Y-147452712D01*
X147582597Y-147446418D01*
X147596457Y-147441459D01*
X147610736Y-147437882D01*
X147625297Y-147435722D01*
X147640000Y-147435000D01*
X149290000Y-147435000D01*
X149304703Y-147435722D01*
X149304703Y-147435722D01*
G37*
D15*
X148465000Y-147735000D03*
D10*
G36*
X151387691Y-145029053D02*
G01*
X151408926Y-145032203D01*
X151429750Y-145037419D01*
X151449962Y-145044651D01*
X151469368Y-145053830D01*
X151487781Y-145064866D01*
X151505024Y-145077654D01*
X151520930Y-145092070D01*
X151535346Y-145107976D01*
X151548134Y-145125219D01*
X151559170Y-145143632D01*
X151568349Y-145163038D01*
X151575581Y-145183250D01*
X151580797Y-145204074D01*
X151583947Y-145225309D01*
X151585000Y-145246750D01*
X151585000Y-145684250D01*
X151583947Y-145705691D01*
X151580797Y-145726926D01*
X151575581Y-145747750D01*
X151568349Y-145767962D01*
X151559170Y-145787368D01*
X151548134Y-145805781D01*
X151535346Y-145823024D01*
X151520930Y-145838930D01*
X151505024Y-145853346D01*
X151487781Y-145866134D01*
X151469368Y-145877170D01*
X151449962Y-145886349D01*
X151429750Y-145893581D01*
X151408926Y-145898797D01*
X151387691Y-145901947D01*
X151366250Y-145903000D01*
X150853750Y-145903000D01*
X150832309Y-145901947D01*
X150811074Y-145898797D01*
X150790250Y-145893581D01*
X150770038Y-145886349D01*
X150750632Y-145877170D01*
X150732219Y-145866134D01*
X150714976Y-145853346D01*
X150699070Y-145838930D01*
X150684654Y-145823024D01*
X150671866Y-145805781D01*
X150660830Y-145787368D01*
X150651651Y-145767962D01*
X150644419Y-145747750D01*
X150639203Y-145726926D01*
X150636053Y-145705691D01*
X150635000Y-145684250D01*
X150635000Y-145246750D01*
X150636053Y-145225309D01*
X150639203Y-145204074D01*
X150644419Y-145183250D01*
X150651651Y-145163038D01*
X150660830Y-145143632D01*
X150671866Y-145125219D01*
X150684654Y-145107976D01*
X150699070Y-145092070D01*
X150714976Y-145077654D01*
X150732219Y-145064866D01*
X150750632Y-145053830D01*
X150770038Y-145044651D01*
X150790250Y-145037419D01*
X150811074Y-145032203D01*
X150832309Y-145029053D01*
X150853750Y-145028000D01*
X151366250Y-145028000D01*
X151387691Y-145029053D01*
X151387691Y-145029053D01*
G37*
D16*
X151110000Y-145465500D03*
D10*
G36*
X151387691Y-143454053D02*
G01*
X151408926Y-143457203D01*
X151429750Y-143462419D01*
X151449962Y-143469651D01*
X151469368Y-143478830D01*
X151487781Y-143489866D01*
X151505024Y-143502654D01*
X151520930Y-143517070D01*
X151535346Y-143532976D01*
X151548134Y-143550219D01*
X151559170Y-143568632D01*
X151568349Y-143588038D01*
X151575581Y-143608250D01*
X151580797Y-143629074D01*
X151583947Y-143650309D01*
X151585000Y-143671750D01*
X151585000Y-144109250D01*
X151583947Y-144130691D01*
X151580797Y-144151926D01*
X151575581Y-144172750D01*
X151568349Y-144192962D01*
X151559170Y-144212368D01*
X151548134Y-144230781D01*
X151535346Y-144248024D01*
X151520930Y-144263930D01*
X151505024Y-144278346D01*
X151487781Y-144291134D01*
X151469368Y-144302170D01*
X151449962Y-144311349D01*
X151429750Y-144318581D01*
X151408926Y-144323797D01*
X151387691Y-144326947D01*
X151366250Y-144328000D01*
X150853750Y-144328000D01*
X150832309Y-144326947D01*
X150811074Y-144323797D01*
X150790250Y-144318581D01*
X150770038Y-144311349D01*
X150750632Y-144302170D01*
X150732219Y-144291134D01*
X150714976Y-144278346D01*
X150699070Y-144263930D01*
X150684654Y-144248024D01*
X150671866Y-144230781D01*
X150660830Y-144212368D01*
X150651651Y-144192962D01*
X150644419Y-144172750D01*
X150639203Y-144151926D01*
X150636053Y-144130691D01*
X150635000Y-144109250D01*
X150635000Y-143671750D01*
X150636053Y-143650309D01*
X150639203Y-143629074D01*
X150644419Y-143608250D01*
X150651651Y-143588038D01*
X150660830Y-143568632D01*
X150671866Y-143550219D01*
X150684654Y-143532976D01*
X150699070Y-143517070D01*
X150714976Y-143502654D01*
X150732219Y-143489866D01*
X150750632Y-143478830D01*
X150770038Y-143469651D01*
X150790250Y-143462419D01*
X150811074Y-143457203D01*
X150832309Y-143454053D01*
X150853750Y-143453000D01*
X151366250Y-143453000D01*
X151387691Y-143454053D01*
X151387691Y-143454053D01*
G37*
D16*
X151110000Y-143890500D03*
D10*
G36*
X139574691Y-143376053D02*
G01*
X139595926Y-143379203D01*
X139616750Y-143384419D01*
X139636962Y-143391651D01*
X139656368Y-143400830D01*
X139674781Y-143411866D01*
X139692024Y-143424654D01*
X139707930Y-143439070D01*
X139722346Y-143454976D01*
X139735134Y-143472219D01*
X139746170Y-143490632D01*
X139755349Y-143510038D01*
X139762581Y-143530250D01*
X139767797Y-143551074D01*
X139770947Y-143572309D01*
X139772000Y-143593750D01*
X139772000Y-144106250D01*
X139770947Y-144127691D01*
X139767797Y-144148926D01*
X139762581Y-144169750D01*
X139755349Y-144189962D01*
X139746170Y-144209368D01*
X139735134Y-144227781D01*
X139722346Y-144245024D01*
X139707930Y-144260930D01*
X139692024Y-144275346D01*
X139674781Y-144288134D01*
X139656368Y-144299170D01*
X139636962Y-144308349D01*
X139616750Y-144315581D01*
X139595926Y-144320797D01*
X139574691Y-144323947D01*
X139553250Y-144325000D01*
X139115750Y-144325000D01*
X139094309Y-144323947D01*
X139073074Y-144320797D01*
X139052250Y-144315581D01*
X139032038Y-144308349D01*
X139012632Y-144299170D01*
X138994219Y-144288134D01*
X138976976Y-144275346D01*
X138961070Y-144260930D01*
X138946654Y-144245024D01*
X138933866Y-144227781D01*
X138922830Y-144209368D01*
X138913651Y-144189962D01*
X138906419Y-144169750D01*
X138901203Y-144148926D01*
X138898053Y-144127691D01*
X138897000Y-144106250D01*
X138897000Y-143593750D01*
X138898053Y-143572309D01*
X138901203Y-143551074D01*
X138906419Y-143530250D01*
X138913651Y-143510038D01*
X138922830Y-143490632D01*
X138933866Y-143472219D01*
X138946654Y-143454976D01*
X138961070Y-143439070D01*
X138976976Y-143424654D01*
X138994219Y-143411866D01*
X139012632Y-143400830D01*
X139032038Y-143391651D01*
X139052250Y-143384419D01*
X139073074Y-143379203D01*
X139094309Y-143376053D01*
X139115750Y-143375000D01*
X139553250Y-143375000D01*
X139574691Y-143376053D01*
X139574691Y-143376053D01*
G37*
D16*
X139334500Y-143850000D03*
D10*
G36*
X141149691Y-143376053D02*
G01*
X141170926Y-143379203D01*
X141191750Y-143384419D01*
X141211962Y-143391651D01*
X141231368Y-143400830D01*
X141249781Y-143411866D01*
X141267024Y-143424654D01*
X141282930Y-143439070D01*
X141297346Y-143454976D01*
X141310134Y-143472219D01*
X141321170Y-143490632D01*
X141330349Y-143510038D01*
X141337581Y-143530250D01*
X141342797Y-143551074D01*
X141345947Y-143572309D01*
X141347000Y-143593750D01*
X141347000Y-144106250D01*
X141345947Y-144127691D01*
X141342797Y-144148926D01*
X141337581Y-144169750D01*
X141330349Y-144189962D01*
X141321170Y-144209368D01*
X141310134Y-144227781D01*
X141297346Y-144245024D01*
X141282930Y-144260930D01*
X141267024Y-144275346D01*
X141249781Y-144288134D01*
X141231368Y-144299170D01*
X141211962Y-144308349D01*
X141191750Y-144315581D01*
X141170926Y-144320797D01*
X141149691Y-144323947D01*
X141128250Y-144325000D01*
X140690750Y-144325000D01*
X140669309Y-144323947D01*
X140648074Y-144320797D01*
X140627250Y-144315581D01*
X140607038Y-144308349D01*
X140587632Y-144299170D01*
X140569219Y-144288134D01*
X140551976Y-144275346D01*
X140536070Y-144260930D01*
X140521654Y-144245024D01*
X140508866Y-144227781D01*
X140497830Y-144209368D01*
X140488651Y-144189962D01*
X140481419Y-144169750D01*
X140476203Y-144148926D01*
X140473053Y-144127691D01*
X140472000Y-144106250D01*
X140472000Y-143593750D01*
X140473053Y-143572309D01*
X140476203Y-143551074D01*
X140481419Y-143530250D01*
X140488651Y-143510038D01*
X140497830Y-143490632D01*
X140508866Y-143472219D01*
X140521654Y-143454976D01*
X140536070Y-143439070D01*
X140551976Y-143424654D01*
X140569219Y-143411866D01*
X140587632Y-143400830D01*
X140607038Y-143391651D01*
X140627250Y-143384419D01*
X140648074Y-143379203D01*
X140669309Y-143376053D01*
X140690750Y-143375000D01*
X141128250Y-143375000D01*
X141149691Y-143376053D01*
X141149691Y-143376053D01*
G37*
D16*
X140909500Y-143850000D03*
D10*
G36*
X139560691Y-145096053D02*
G01*
X139581926Y-145099203D01*
X139602750Y-145104419D01*
X139622962Y-145111651D01*
X139642368Y-145120830D01*
X139660781Y-145131866D01*
X139678024Y-145144654D01*
X139693930Y-145159070D01*
X139708346Y-145174976D01*
X139721134Y-145192219D01*
X139732170Y-145210632D01*
X139741349Y-145230038D01*
X139748581Y-145250250D01*
X139753797Y-145271074D01*
X139756947Y-145292309D01*
X139758000Y-145313750D01*
X139758000Y-145826250D01*
X139756947Y-145847691D01*
X139753797Y-145868926D01*
X139748581Y-145889750D01*
X139741349Y-145909962D01*
X139732170Y-145929368D01*
X139721134Y-145947781D01*
X139708346Y-145965024D01*
X139693930Y-145980930D01*
X139678024Y-145995346D01*
X139660781Y-146008134D01*
X139642368Y-146019170D01*
X139622962Y-146028349D01*
X139602750Y-146035581D01*
X139581926Y-146040797D01*
X139560691Y-146043947D01*
X139539250Y-146045000D01*
X139101750Y-146045000D01*
X139080309Y-146043947D01*
X139059074Y-146040797D01*
X139038250Y-146035581D01*
X139018038Y-146028349D01*
X138998632Y-146019170D01*
X138980219Y-146008134D01*
X138962976Y-145995346D01*
X138947070Y-145980930D01*
X138932654Y-145965024D01*
X138919866Y-145947781D01*
X138908830Y-145929368D01*
X138899651Y-145909962D01*
X138892419Y-145889750D01*
X138887203Y-145868926D01*
X138884053Y-145847691D01*
X138883000Y-145826250D01*
X138883000Y-145313750D01*
X138884053Y-145292309D01*
X138887203Y-145271074D01*
X138892419Y-145250250D01*
X138899651Y-145230038D01*
X138908830Y-145210632D01*
X138919866Y-145192219D01*
X138932654Y-145174976D01*
X138947070Y-145159070D01*
X138962976Y-145144654D01*
X138980219Y-145131866D01*
X138998632Y-145120830D01*
X139018038Y-145111651D01*
X139038250Y-145104419D01*
X139059074Y-145099203D01*
X139080309Y-145096053D01*
X139101750Y-145095000D01*
X139539250Y-145095000D01*
X139560691Y-145096053D01*
X139560691Y-145096053D01*
G37*
D16*
X139320500Y-145570000D03*
D10*
G36*
X141135691Y-145096053D02*
G01*
X141156926Y-145099203D01*
X141177750Y-145104419D01*
X141197962Y-145111651D01*
X141217368Y-145120830D01*
X141235781Y-145131866D01*
X141253024Y-145144654D01*
X141268930Y-145159070D01*
X141283346Y-145174976D01*
X141296134Y-145192219D01*
X141307170Y-145210632D01*
X141316349Y-145230038D01*
X141323581Y-145250250D01*
X141328797Y-145271074D01*
X141331947Y-145292309D01*
X141333000Y-145313750D01*
X141333000Y-145826250D01*
X141331947Y-145847691D01*
X141328797Y-145868926D01*
X141323581Y-145889750D01*
X141316349Y-145909962D01*
X141307170Y-145929368D01*
X141296134Y-145947781D01*
X141283346Y-145965024D01*
X141268930Y-145980930D01*
X141253024Y-145995346D01*
X141235781Y-146008134D01*
X141217368Y-146019170D01*
X141197962Y-146028349D01*
X141177750Y-146035581D01*
X141156926Y-146040797D01*
X141135691Y-146043947D01*
X141114250Y-146045000D01*
X140676750Y-146045000D01*
X140655309Y-146043947D01*
X140634074Y-146040797D01*
X140613250Y-146035581D01*
X140593038Y-146028349D01*
X140573632Y-146019170D01*
X140555219Y-146008134D01*
X140537976Y-145995346D01*
X140522070Y-145980930D01*
X140507654Y-145965024D01*
X140494866Y-145947781D01*
X140483830Y-145929368D01*
X140474651Y-145909962D01*
X140467419Y-145889750D01*
X140462203Y-145868926D01*
X140459053Y-145847691D01*
X140458000Y-145826250D01*
X140458000Y-145313750D01*
X140459053Y-145292309D01*
X140462203Y-145271074D01*
X140467419Y-145250250D01*
X140474651Y-145230038D01*
X140483830Y-145210632D01*
X140494866Y-145192219D01*
X140507654Y-145174976D01*
X140522070Y-145159070D01*
X140537976Y-145144654D01*
X140555219Y-145131866D01*
X140573632Y-145120830D01*
X140593038Y-145111651D01*
X140613250Y-145104419D01*
X140634074Y-145099203D01*
X140655309Y-145096053D01*
X140676750Y-145095000D01*
X141114250Y-145095000D01*
X141135691Y-145096053D01*
X141135691Y-145096053D01*
G37*
D16*
X140895500Y-145570000D03*
D17*
X134250000Y-141180000D03*
X134250000Y-141830000D03*
X134250000Y-142480000D03*
X134250000Y-143130000D03*
X134250000Y-143780000D03*
D10*
G36*
X163737691Y-131416053D02*
G01*
X163758926Y-131419203D01*
X163779750Y-131424419D01*
X163799962Y-131431651D01*
X163819368Y-131440830D01*
X163837781Y-131451866D01*
X163855024Y-131464654D01*
X163870930Y-131479070D01*
X163885346Y-131494976D01*
X163898134Y-131512219D01*
X163909170Y-131530632D01*
X163918349Y-131550038D01*
X163925581Y-131570250D01*
X163930797Y-131591074D01*
X163933947Y-131612309D01*
X163935000Y-131633750D01*
X163935000Y-132146250D01*
X163933947Y-132167691D01*
X163930797Y-132188926D01*
X163925581Y-132209750D01*
X163918349Y-132229962D01*
X163909170Y-132249368D01*
X163898134Y-132267781D01*
X163885346Y-132285024D01*
X163870930Y-132300930D01*
X163855024Y-132315346D01*
X163837781Y-132328134D01*
X163819368Y-132339170D01*
X163799962Y-132348349D01*
X163779750Y-132355581D01*
X163758926Y-132360797D01*
X163737691Y-132363947D01*
X163716250Y-132365000D01*
X163278750Y-132365000D01*
X163257309Y-132363947D01*
X163236074Y-132360797D01*
X163215250Y-132355581D01*
X163195038Y-132348349D01*
X163175632Y-132339170D01*
X163157219Y-132328134D01*
X163139976Y-132315346D01*
X163124070Y-132300930D01*
X163109654Y-132285024D01*
X163096866Y-132267781D01*
X163085830Y-132249368D01*
X163076651Y-132229962D01*
X163069419Y-132209750D01*
X163064203Y-132188926D01*
X163061053Y-132167691D01*
X163060000Y-132146250D01*
X163060000Y-131633750D01*
X163061053Y-131612309D01*
X163064203Y-131591074D01*
X163069419Y-131570250D01*
X163076651Y-131550038D01*
X163085830Y-131530632D01*
X163096866Y-131512219D01*
X163109654Y-131494976D01*
X163124070Y-131479070D01*
X163139976Y-131464654D01*
X163157219Y-131451866D01*
X163175632Y-131440830D01*
X163195038Y-131431651D01*
X163215250Y-131424419D01*
X163236074Y-131419203D01*
X163257309Y-131416053D01*
X163278750Y-131415000D01*
X163716250Y-131415000D01*
X163737691Y-131416053D01*
X163737691Y-131416053D01*
G37*
D16*
X163497500Y-131890000D03*
D10*
G36*
X162162691Y-131416053D02*
G01*
X162183926Y-131419203D01*
X162204750Y-131424419D01*
X162224962Y-131431651D01*
X162244368Y-131440830D01*
X162262781Y-131451866D01*
X162280024Y-131464654D01*
X162295930Y-131479070D01*
X162310346Y-131494976D01*
X162323134Y-131512219D01*
X162334170Y-131530632D01*
X162343349Y-131550038D01*
X162350581Y-131570250D01*
X162355797Y-131591074D01*
X162358947Y-131612309D01*
X162360000Y-131633750D01*
X162360000Y-132146250D01*
X162358947Y-132167691D01*
X162355797Y-132188926D01*
X162350581Y-132209750D01*
X162343349Y-132229962D01*
X162334170Y-132249368D01*
X162323134Y-132267781D01*
X162310346Y-132285024D01*
X162295930Y-132300930D01*
X162280024Y-132315346D01*
X162262781Y-132328134D01*
X162244368Y-132339170D01*
X162224962Y-132348349D01*
X162204750Y-132355581D01*
X162183926Y-132360797D01*
X162162691Y-132363947D01*
X162141250Y-132365000D01*
X161703750Y-132365000D01*
X161682309Y-132363947D01*
X161661074Y-132360797D01*
X161640250Y-132355581D01*
X161620038Y-132348349D01*
X161600632Y-132339170D01*
X161582219Y-132328134D01*
X161564976Y-132315346D01*
X161549070Y-132300930D01*
X161534654Y-132285024D01*
X161521866Y-132267781D01*
X161510830Y-132249368D01*
X161501651Y-132229962D01*
X161494419Y-132209750D01*
X161489203Y-132188926D01*
X161486053Y-132167691D01*
X161485000Y-132146250D01*
X161485000Y-131633750D01*
X161486053Y-131612309D01*
X161489203Y-131591074D01*
X161494419Y-131570250D01*
X161501651Y-131550038D01*
X161510830Y-131530632D01*
X161521866Y-131512219D01*
X161534654Y-131494976D01*
X161549070Y-131479070D01*
X161564976Y-131464654D01*
X161582219Y-131451866D01*
X161600632Y-131440830D01*
X161620038Y-131431651D01*
X161640250Y-131424419D01*
X161661074Y-131419203D01*
X161682309Y-131416053D01*
X161703750Y-131415000D01*
X162141250Y-131415000D01*
X162162691Y-131416053D01*
X162162691Y-131416053D01*
G37*
D16*
X161922500Y-131890000D03*
D10*
G36*
X165284691Y-131426053D02*
G01*
X165305926Y-131429203D01*
X165326750Y-131434419D01*
X165346962Y-131441651D01*
X165366368Y-131450830D01*
X165384781Y-131461866D01*
X165402024Y-131474654D01*
X165417930Y-131489070D01*
X165432346Y-131504976D01*
X165445134Y-131522219D01*
X165456170Y-131540632D01*
X165465349Y-131560038D01*
X165472581Y-131580250D01*
X165477797Y-131601074D01*
X165480947Y-131622309D01*
X165482000Y-131643750D01*
X165482000Y-132156250D01*
X165480947Y-132177691D01*
X165477797Y-132198926D01*
X165472581Y-132219750D01*
X165465349Y-132239962D01*
X165456170Y-132259368D01*
X165445134Y-132277781D01*
X165432346Y-132295024D01*
X165417930Y-132310930D01*
X165402024Y-132325346D01*
X165384781Y-132338134D01*
X165366368Y-132349170D01*
X165346962Y-132358349D01*
X165326750Y-132365581D01*
X165305926Y-132370797D01*
X165284691Y-132373947D01*
X165263250Y-132375000D01*
X164825750Y-132375000D01*
X164804309Y-132373947D01*
X164783074Y-132370797D01*
X164762250Y-132365581D01*
X164742038Y-132358349D01*
X164722632Y-132349170D01*
X164704219Y-132338134D01*
X164686976Y-132325346D01*
X164671070Y-132310930D01*
X164656654Y-132295024D01*
X164643866Y-132277781D01*
X164632830Y-132259368D01*
X164623651Y-132239962D01*
X164616419Y-132219750D01*
X164611203Y-132198926D01*
X164608053Y-132177691D01*
X164607000Y-132156250D01*
X164607000Y-131643750D01*
X164608053Y-131622309D01*
X164611203Y-131601074D01*
X164616419Y-131580250D01*
X164623651Y-131560038D01*
X164632830Y-131540632D01*
X164643866Y-131522219D01*
X164656654Y-131504976D01*
X164671070Y-131489070D01*
X164686976Y-131474654D01*
X164704219Y-131461866D01*
X164722632Y-131450830D01*
X164742038Y-131441651D01*
X164762250Y-131434419D01*
X164783074Y-131429203D01*
X164804309Y-131426053D01*
X164825750Y-131425000D01*
X165263250Y-131425000D01*
X165284691Y-131426053D01*
X165284691Y-131426053D01*
G37*
D16*
X165044500Y-131900000D03*
D10*
G36*
X166859691Y-131426053D02*
G01*
X166880926Y-131429203D01*
X166901750Y-131434419D01*
X166921962Y-131441651D01*
X166941368Y-131450830D01*
X166959781Y-131461866D01*
X166977024Y-131474654D01*
X166992930Y-131489070D01*
X167007346Y-131504976D01*
X167020134Y-131522219D01*
X167031170Y-131540632D01*
X167040349Y-131560038D01*
X167047581Y-131580250D01*
X167052797Y-131601074D01*
X167055947Y-131622309D01*
X167057000Y-131643750D01*
X167057000Y-132156250D01*
X167055947Y-132177691D01*
X167052797Y-132198926D01*
X167047581Y-132219750D01*
X167040349Y-132239962D01*
X167031170Y-132259368D01*
X167020134Y-132277781D01*
X167007346Y-132295024D01*
X166992930Y-132310930D01*
X166977024Y-132325346D01*
X166959781Y-132338134D01*
X166941368Y-132349170D01*
X166921962Y-132358349D01*
X166901750Y-132365581D01*
X166880926Y-132370797D01*
X166859691Y-132373947D01*
X166838250Y-132375000D01*
X166400750Y-132375000D01*
X166379309Y-132373947D01*
X166358074Y-132370797D01*
X166337250Y-132365581D01*
X166317038Y-132358349D01*
X166297632Y-132349170D01*
X166279219Y-132338134D01*
X166261976Y-132325346D01*
X166246070Y-132310930D01*
X166231654Y-132295024D01*
X166218866Y-132277781D01*
X166207830Y-132259368D01*
X166198651Y-132239962D01*
X166191419Y-132219750D01*
X166186203Y-132198926D01*
X166183053Y-132177691D01*
X166182000Y-132156250D01*
X166182000Y-131643750D01*
X166183053Y-131622309D01*
X166186203Y-131601074D01*
X166191419Y-131580250D01*
X166198651Y-131560038D01*
X166207830Y-131540632D01*
X166218866Y-131522219D01*
X166231654Y-131504976D01*
X166246070Y-131489070D01*
X166261976Y-131474654D01*
X166279219Y-131461866D01*
X166297632Y-131450830D01*
X166317038Y-131441651D01*
X166337250Y-131434419D01*
X166358074Y-131429203D01*
X166379309Y-131426053D01*
X166400750Y-131425000D01*
X166838250Y-131425000D01*
X166859691Y-131426053D01*
X166859691Y-131426053D01*
G37*
D16*
X166619500Y-131900000D03*
D10*
G36*
X168732691Y-131456053D02*
G01*
X168753926Y-131459203D01*
X168774750Y-131464419D01*
X168794962Y-131471651D01*
X168814368Y-131480830D01*
X168832781Y-131491866D01*
X168850024Y-131504654D01*
X168865930Y-131519070D01*
X168880346Y-131534976D01*
X168893134Y-131552219D01*
X168904170Y-131570632D01*
X168913349Y-131590038D01*
X168920581Y-131610250D01*
X168925797Y-131631074D01*
X168928947Y-131652309D01*
X168930000Y-131673750D01*
X168930000Y-132186250D01*
X168928947Y-132207691D01*
X168925797Y-132228926D01*
X168920581Y-132249750D01*
X168913349Y-132269962D01*
X168904170Y-132289368D01*
X168893134Y-132307781D01*
X168880346Y-132325024D01*
X168865930Y-132340930D01*
X168850024Y-132355346D01*
X168832781Y-132368134D01*
X168814368Y-132379170D01*
X168794962Y-132388349D01*
X168774750Y-132395581D01*
X168753926Y-132400797D01*
X168732691Y-132403947D01*
X168711250Y-132405000D01*
X168273750Y-132405000D01*
X168252309Y-132403947D01*
X168231074Y-132400797D01*
X168210250Y-132395581D01*
X168190038Y-132388349D01*
X168170632Y-132379170D01*
X168152219Y-132368134D01*
X168134976Y-132355346D01*
X168119070Y-132340930D01*
X168104654Y-132325024D01*
X168091866Y-132307781D01*
X168080830Y-132289368D01*
X168071651Y-132269962D01*
X168064419Y-132249750D01*
X168059203Y-132228926D01*
X168056053Y-132207691D01*
X168055000Y-132186250D01*
X168055000Y-131673750D01*
X168056053Y-131652309D01*
X168059203Y-131631074D01*
X168064419Y-131610250D01*
X168071651Y-131590038D01*
X168080830Y-131570632D01*
X168091866Y-131552219D01*
X168104654Y-131534976D01*
X168119070Y-131519070D01*
X168134976Y-131504654D01*
X168152219Y-131491866D01*
X168170632Y-131480830D01*
X168190038Y-131471651D01*
X168210250Y-131464419D01*
X168231074Y-131459203D01*
X168252309Y-131456053D01*
X168273750Y-131455000D01*
X168711250Y-131455000D01*
X168732691Y-131456053D01*
X168732691Y-131456053D01*
G37*
D16*
X168492500Y-131930000D03*
D10*
G36*
X170307691Y-131456053D02*
G01*
X170328926Y-131459203D01*
X170349750Y-131464419D01*
X170369962Y-131471651D01*
X170389368Y-131480830D01*
X170407781Y-131491866D01*
X170425024Y-131504654D01*
X170440930Y-131519070D01*
X170455346Y-131534976D01*
X170468134Y-131552219D01*
X170479170Y-131570632D01*
X170488349Y-131590038D01*
X170495581Y-131610250D01*
X170500797Y-131631074D01*
X170503947Y-131652309D01*
X170505000Y-131673750D01*
X170505000Y-132186250D01*
X170503947Y-132207691D01*
X170500797Y-132228926D01*
X170495581Y-132249750D01*
X170488349Y-132269962D01*
X170479170Y-132289368D01*
X170468134Y-132307781D01*
X170455346Y-132325024D01*
X170440930Y-132340930D01*
X170425024Y-132355346D01*
X170407781Y-132368134D01*
X170389368Y-132379170D01*
X170369962Y-132388349D01*
X170349750Y-132395581D01*
X170328926Y-132400797D01*
X170307691Y-132403947D01*
X170286250Y-132405000D01*
X169848750Y-132405000D01*
X169827309Y-132403947D01*
X169806074Y-132400797D01*
X169785250Y-132395581D01*
X169765038Y-132388349D01*
X169745632Y-132379170D01*
X169727219Y-132368134D01*
X169709976Y-132355346D01*
X169694070Y-132340930D01*
X169679654Y-132325024D01*
X169666866Y-132307781D01*
X169655830Y-132289368D01*
X169646651Y-132269962D01*
X169639419Y-132249750D01*
X169634203Y-132228926D01*
X169631053Y-132207691D01*
X169630000Y-132186250D01*
X169630000Y-131673750D01*
X169631053Y-131652309D01*
X169634203Y-131631074D01*
X169639419Y-131610250D01*
X169646651Y-131590038D01*
X169655830Y-131570632D01*
X169666866Y-131552219D01*
X169679654Y-131534976D01*
X169694070Y-131519070D01*
X169709976Y-131504654D01*
X169727219Y-131491866D01*
X169745632Y-131480830D01*
X169765038Y-131471651D01*
X169785250Y-131464419D01*
X169806074Y-131459203D01*
X169827309Y-131456053D01*
X169848750Y-131455000D01*
X170286250Y-131455000D01*
X170307691Y-131456053D01*
X170307691Y-131456053D01*
G37*
D16*
X170067500Y-131930000D03*
D10*
G36*
X148794691Y-140056053D02*
G01*
X148815926Y-140059203D01*
X148836750Y-140064419D01*
X148856962Y-140071651D01*
X148876368Y-140080830D01*
X148894781Y-140091866D01*
X148912024Y-140104654D01*
X148927930Y-140119070D01*
X148942346Y-140134976D01*
X148955134Y-140152219D01*
X148966170Y-140170632D01*
X148975349Y-140190038D01*
X148982581Y-140210250D01*
X148987797Y-140231074D01*
X148990947Y-140252309D01*
X148992000Y-140273750D01*
X148992000Y-140786250D01*
X148990947Y-140807691D01*
X148987797Y-140828926D01*
X148982581Y-140849750D01*
X148975349Y-140869962D01*
X148966170Y-140889368D01*
X148955134Y-140907781D01*
X148942346Y-140925024D01*
X148927930Y-140940930D01*
X148912024Y-140955346D01*
X148894781Y-140968134D01*
X148876368Y-140979170D01*
X148856962Y-140988349D01*
X148836750Y-140995581D01*
X148815926Y-141000797D01*
X148794691Y-141003947D01*
X148773250Y-141005000D01*
X148335750Y-141005000D01*
X148314309Y-141003947D01*
X148293074Y-141000797D01*
X148272250Y-140995581D01*
X148252038Y-140988349D01*
X148232632Y-140979170D01*
X148214219Y-140968134D01*
X148196976Y-140955346D01*
X148181070Y-140940930D01*
X148166654Y-140925024D01*
X148153866Y-140907781D01*
X148142830Y-140889368D01*
X148133651Y-140869962D01*
X148126419Y-140849750D01*
X148121203Y-140828926D01*
X148118053Y-140807691D01*
X148117000Y-140786250D01*
X148117000Y-140273750D01*
X148118053Y-140252309D01*
X148121203Y-140231074D01*
X148126419Y-140210250D01*
X148133651Y-140190038D01*
X148142830Y-140170632D01*
X148153866Y-140152219D01*
X148166654Y-140134976D01*
X148181070Y-140119070D01*
X148196976Y-140104654D01*
X148214219Y-140091866D01*
X148232632Y-140080830D01*
X148252038Y-140071651D01*
X148272250Y-140064419D01*
X148293074Y-140059203D01*
X148314309Y-140056053D01*
X148335750Y-140055000D01*
X148773250Y-140055000D01*
X148794691Y-140056053D01*
X148794691Y-140056053D01*
G37*
D16*
X148554500Y-140530000D03*
D10*
G36*
X150369691Y-140056053D02*
G01*
X150390926Y-140059203D01*
X150411750Y-140064419D01*
X150431962Y-140071651D01*
X150451368Y-140080830D01*
X150469781Y-140091866D01*
X150487024Y-140104654D01*
X150502930Y-140119070D01*
X150517346Y-140134976D01*
X150530134Y-140152219D01*
X150541170Y-140170632D01*
X150550349Y-140190038D01*
X150557581Y-140210250D01*
X150562797Y-140231074D01*
X150565947Y-140252309D01*
X150567000Y-140273750D01*
X150567000Y-140786250D01*
X150565947Y-140807691D01*
X150562797Y-140828926D01*
X150557581Y-140849750D01*
X150550349Y-140869962D01*
X150541170Y-140889368D01*
X150530134Y-140907781D01*
X150517346Y-140925024D01*
X150502930Y-140940930D01*
X150487024Y-140955346D01*
X150469781Y-140968134D01*
X150451368Y-140979170D01*
X150431962Y-140988349D01*
X150411750Y-140995581D01*
X150390926Y-141000797D01*
X150369691Y-141003947D01*
X150348250Y-141005000D01*
X149910750Y-141005000D01*
X149889309Y-141003947D01*
X149868074Y-141000797D01*
X149847250Y-140995581D01*
X149827038Y-140988349D01*
X149807632Y-140979170D01*
X149789219Y-140968134D01*
X149771976Y-140955346D01*
X149756070Y-140940930D01*
X149741654Y-140925024D01*
X149728866Y-140907781D01*
X149717830Y-140889368D01*
X149708651Y-140869962D01*
X149701419Y-140849750D01*
X149696203Y-140828926D01*
X149693053Y-140807691D01*
X149692000Y-140786250D01*
X149692000Y-140273750D01*
X149693053Y-140252309D01*
X149696203Y-140231074D01*
X149701419Y-140210250D01*
X149708651Y-140190038D01*
X149717830Y-140170632D01*
X149728866Y-140152219D01*
X149741654Y-140134976D01*
X149756070Y-140119070D01*
X149771976Y-140104654D01*
X149789219Y-140091866D01*
X149807632Y-140080830D01*
X149827038Y-140071651D01*
X149847250Y-140064419D01*
X149868074Y-140059203D01*
X149889309Y-140056053D01*
X149910750Y-140055000D01*
X150348250Y-140055000D01*
X150369691Y-140056053D01*
X150369691Y-140056053D01*
G37*
D16*
X150129500Y-140530000D03*
D10*
G36*
X139550691Y-146816053D02*
G01*
X139571926Y-146819203D01*
X139592750Y-146824419D01*
X139612962Y-146831651D01*
X139632368Y-146840830D01*
X139650781Y-146851866D01*
X139668024Y-146864654D01*
X139683930Y-146879070D01*
X139698346Y-146894976D01*
X139711134Y-146912219D01*
X139722170Y-146930632D01*
X139731349Y-146950038D01*
X139738581Y-146970250D01*
X139743797Y-146991074D01*
X139746947Y-147012309D01*
X139748000Y-147033750D01*
X139748000Y-147546250D01*
X139746947Y-147567691D01*
X139743797Y-147588926D01*
X139738581Y-147609750D01*
X139731349Y-147629962D01*
X139722170Y-147649368D01*
X139711134Y-147667781D01*
X139698346Y-147685024D01*
X139683930Y-147700930D01*
X139668024Y-147715346D01*
X139650781Y-147728134D01*
X139632368Y-147739170D01*
X139612962Y-147748349D01*
X139592750Y-147755581D01*
X139571926Y-147760797D01*
X139550691Y-147763947D01*
X139529250Y-147765000D01*
X139091750Y-147765000D01*
X139070309Y-147763947D01*
X139049074Y-147760797D01*
X139028250Y-147755581D01*
X139008038Y-147748349D01*
X138988632Y-147739170D01*
X138970219Y-147728134D01*
X138952976Y-147715346D01*
X138937070Y-147700930D01*
X138922654Y-147685024D01*
X138909866Y-147667781D01*
X138898830Y-147649368D01*
X138889651Y-147629962D01*
X138882419Y-147609750D01*
X138877203Y-147588926D01*
X138874053Y-147567691D01*
X138873000Y-147546250D01*
X138873000Y-147033750D01*
X138874053Y-147012309D01*
X138877203Y-146991074D01*
X138882419Y-146970250D01*
X138889651Y-146950038D01*
X138898830Y-146930632D01*
X138909866Y-146912219D01*
X138922654Y-146894976D01*
X138937070Y-146879070D01*
X138952976Y-146864654D01*
X138970219Y-146851866D01*
X138988632Y-146840830D01*
X139008038Y-146831651D01*
X139028250Y-146824419D01*
X139049074Y-146819203D01*
X139070309Y-146816053D01*
X139091750Y-146815000D01*
X139529250Y-146815000D01*
X139550691Y-146816053D01*
X139550691Y-146816053D01*
G37*
D16*
X139310500Y-147290000D03*
D10*
G36*
X141125691Y-146816053D02*
G01*
X141146926Y-146819203D01*
X141167750Y-146824419D01*
X141187962Y-146831651D01*
X141207368Y-146840830D01*
X141225781Y-146851866D01*
X141243024Y-146864654D01*
X141258930Y-146879070D01*
X141273346Y-146894976D01*
X141286134Y-146912219D01*
X141297170Y-146930632D01*
X141306349Y-146950038D01*
X141313581Y-146970250D01*
X141318797Y-146991074D01*
X141321947Y-147012309D01*
X141323000Y-147033750D01*
X141323000Y-147546250D01*
X141321947Y-147567691D01*
X141318797Y-147588926D01*
X141313581Y-147609750D01*
X141306349Y-147629962D01*
X141297170Y-147649368D01*
X141286134Y-147667781D01*
X141273346Y-147685024D01*
X141258930Y-147700930D01*
X141243024Y-147715346D01*
X141225781Y-147728134D01*
X141207368Y-147739170D01*
X141187962Y-147748349D01*
X141167750Y-147755581D01*
X141146926Y-147760797D01*
X141125691Y-147763947D01*
X141104250Y-147765000D01*
X140666750Y-147765000D01*
X140645309Y-147763947D01*
X140624074Y-147760797D01*
X140603250Y-147755581D01*
X140583038Y-147748349D01*
X140563632Y-147739170D01*
X140545219Y-147728134D01*
X140527976Y-147715346D01*
X140512070Y-147700930D01*
X140497654Y-147685024D01*
X140484866Y-147667781D01*
X140473830Y-147649368D01*
X140464651Y-147629962D01*
X140457419Y-147609750D01*
X140452203Y-147588926D01*
X140449053Y-147567691D01*
X140448000Y-147546250D01*
X140448000Y-147033750D01*
X140449053Y-147012309D01*
X140452203Y-146991074D01*
X140457419Y-146970250D01*
X140464651Y-146950038D01*
X140473830Y-146930632D01*
X140484866Y-146912219D01*
X140497654Y-146894976D01*
X140512070Y-146879070D01*
X140527976Y-146864654D01*
X140545219Y-146851866D01*
X140563632Y-146840830D01*
X140583038Y-146831651D01*
X140603250Y-146824419D01*
X140624074Y-146819203D01*
X140645309Y-146816053D01*
X140666750Y-146815000D01*
X141104250Y-146815000D01*
X141125691Y-146816053D01*
X141125691Y-146816053D01*
G37*
D16*
X140885500Y-147290000D03*
D10*
G36*
X139562691Y-148476053D02*
G01*
X139583926Y-148479203D01*
X139604750Y-148484419D01*
X139624962Y-148491651D01*
X139644368Y-148500830D01*
X139662781Y-148511866D01*
X139680024Y-148524654D01*
X139695930Y-148539070D01*
X139710346Y-148554976D01*
X139723134Y-148572219D01*
X139734170Y-148590632D01*
X139743349Y-148610038D01*
X139750581Y-148630250D01*
X139755797Y-148651074D01*
X139758947Y-148672309D01*
X139760000Y-148693750D01*
X139760000Y-149206250D01*
X139758947Y-149227691D01*
X139755797Y-149248926D01*
X139750581Y-149269750D01*
X139743349Y-149289962D01*
X139734170Y-149309368D01*
X139723134Y-149327781D01*
X139710346Y-149345024D01*
X139695930Y-149360930D01*
X139680024Y-149375346D01*
X139662781Y-149388134D01*
X139644368Y-149399170D01*
X139624962Y-149408349D01*
X139604750Y-149415581D01*
X139583926Y-149420797D01*
X139562691Y-149423947D01*
X139541250Y-149425000D01*
X139103750Y-149425000D01*
X139082309Y-149423947D01*
X139061074Y-149420797D01*
X139040250Y-149415581D01*
X139020038Y-149408349D01*
X139000632Y-149399170D01*
X138982219Y-149388134D01*
X138964976Y-149375346D01*
X138949070Y-149360930D01*
X138934654Y-149345024D01*
X138921866Y-149327781D01*
X138910830Y-149309368D01*
X138901651Y-149289962D01*
X138894419Y-149269750D01*
X138889203Y-149248926D01*
X138886053Y-149227691D01*
X138885000Y-149206250D01*
X138885000Y-148693750D01*
X138886053Y-148672309D01*
X138889203Y-148651074D01*
X138894419Y-148630250D01*
X138901651Y-148610038D01*
X138910830Y-148590632D01*
X138921866Y-148572219D01*
X138934654Y-148554976D01*
X138949070Y-148539070D01*
X138964976Y-148524654D01*
X138982219Y-148511866D01*
X139000632Y-148500830D01*
X139020038Y-148491651D01*
X139040250Y-148484419D01*
X139061074Y-148479203D01*
X139082309Y-148476053D01*
X139103750Y-148475000D01*
X139541250Y-148475000D01*
X139562691Y-148476053D01*
X139562691Y-148476053D01*
G37*
D16*
X139322500Y-148950000D03*
D10*
G36*
X141137691Y-148476053D02*
G01*
X141158926Y-148479203D01*
X141179750Y-148484419D01*
X141199962Y-148491651D01*
X141219368Y-148500830D01*
X141237781Y-148511866D01*
X141255024Y-148524654D01*
X141270930Y-148539070D01*
X141285346Y-148554976D01*
X141298134Y-148572219D01*
X141309170Y-148590632D01*
X141318349Y-148610038D01*
X141325581Y-148630250D01*
X141330797Y-148651074D01*
X141333947Y-148672309D01*
X141335000Y-148693750D01*
X141335000Y-149206250D01*
X141333947Y-149227691D01*
X141330797Y-149248926D01*
X141325581Y-149269750D01*
X141318349Y-149289962D01*
X141309170Y-149309368D01*
X141298134Y-149327781D01*
X141285346Y-149345024D01*
X141270930Y-149360930D01*
X141255024Y-149375346D01*
X141237781Y-149388134D01*
X141219368Y-149399170D01*
X141199962Y-149408349D01*
X141179750Y-149415581D01*
X141158926Y-149420797D01*
X141137691Y-149423947D01*
X141116250Y-149425000D01*
X140678750Y-149425000D01*
X140657309Y-149423947D01*
X140636074Y-149420797D01*
X140615250Y-149415581D01*
X140595038Y-149408349D01*
X140575632Y-149399170D01*
X140557219Y-149388134D01*
X140539976Y-149375346D01*
X140524070Y-149360930D01*
X140509654Y-149345024D01*
X140496866Y-149327781D01*
X140485830Y-149309368D01*
X140476651Y-149289962D01*
X140469419Y-149269750D01*
X140464203Y-149248926D01*
X140461053Y-149227691D01*
X140460000Y-149206250D01*
X140460000Y-148693750D01*
X140461053Y-148672309D01*
X140464203Y-148651074D01*
X140469419Y-148630250D01*
X140476651Y-148610038D01*
X140485830Y-148590632D01*
X140496866Y-148572219D01*
X140509654Y-148554976D01*
X140524070Y-148539070D01*
X140539976Y-148524654D01*
X140557219Y-148511866D01*
X140575632Y-148500830D01*
X140595038Y-148491651D01*
X140615250Y-148484419D01*
X140636074Y-148479203D01*
X140657309Y-148476053D01*
X140678750Y-148475000D01*
X141116250Y-148475000D01*
X141137691Y-148476053D01*
X141137691Y-148476053D01*
G37*
D16*
X140897500Y-148950000D03*
D10*
G36*
X158774691Y-131416053D02*
G01*
X158795926Y-131419203D01*
X158816750Y-131424419D01*
X158836962Y-131431651D01*
X158856368Y-131440830D01*
X158874781Y-131451866D01*
X158892024Y-131464654D01*
X158907930Y-131479070D01*
X158922346Y-131494976D01*
X158935134Y-131512219D01*
X158946170Y-131530632D01*
X158955349Y-131550038D01*
X158962581Y-131570250D01*
X158967797Y-131591074D01*
X158970947Y-131612309D01*
X158972000Y-131633750D01*
X158972000Y-132146250D01*
X158970947Y-132167691D01*
X158967797Y-132188926D01*
X158962581Y-132209750D01*
X158955349Y-132229962D01*
X158946170Y-132249368D01*
X158935134Y-132267781D01*
X158922346Y-132285024D01*
X158907930Y-132300930D01*
X158892024Y-132315346D01*
X158874781Y-132328134D01*
X158856368Y-132339170D01*
X158836962Y-132348349D01*
X158816750Y-132355581D01*
X158795926Y-132360797D01*
X158774691Y-132363947D01*
X158753250Y-132365000D01*
X158315750Y-132365000D01*
X158294309Y-132363947D01*
X158273074Y-132360797D01*
X158252250Y-132355581D01*
X158232038Y-132348349D01*
X158212632Y-132339170D01*
X158194219Y-132328134D01*
X158176976Y-132315346D01*
X158161070Y-132300930D01*
X158146654Y-132285024D01*
X158133866Y-132267781D01*
X158122830Y-132249368D01*
X158113651Y-132229962D01*
X158106419Y-132209750D01*
X158101203Y-132188926D01*
X158098053Y-132167691D01*
X158097000Y-132146250D01*
X158097000Y-131633750D01*
X158098053Y-131612309D01*
X158101203Y-131591074D01*
X158106419Y-131570250D01*
X158113651Y-131550038D01*
X158122830Y-131530632D01*
X158133866Y-131512219D01*
X158146654Y-131494976D01*
X158161070Y-131479070D01*
X158176976Y-131464654D01*
X158194219Y-131451866D01*
X158212632Y-131440830D01*
X158232038Y-131431651D01*
X158252250Y-131424419D01*
X158273074Y-131419203D01*
X158294309Y-131416053D01*
X158315750Y-131415000D01*
X158753250Y-131415000D01*
X158774691Y-131416053D01*
X158774691Y-131416053D01*
G37*
D16*
X158534500Y-131890000D03*
D10*
G36*
X160349691Y-131416053D02*
G01*
X160370926Y-131419203D01*
X160391750Y-131424419D01*
X160411962Y-131431651D01*
X160431368Y-131440830D01*
X160449781Y-131451866D01*
X160467024Y-131464654D01*
X160482930Y-131479070D01*
X160497346Y-131494976D01*
X160510134Y-131512219D01*
X160521170Y-131530632D01*
X160530349Y-131550038D01*
X160537581Y-131570250D01*
X160542797Y-131591074D01*
X160545947Y-131612309D01*
X160547000Y-131633750D01*
X160547000Y-132146250D01*
X160545947Y-132167691D01*
X160542797Y-132188926D01*
X160537581Y-132209750D01*
X160530349Y-132229962D01*
X160521170Y-132249368D01*
X160510134Y-132267781D01*
X160497346Y-132285024D01*
X160482930Y-132300930D01*
X160467024Y-132315346D01*
X160449781Y-132328134D01*
X160431368Y-132339170D01*
X160411962Y-132348349D01*
X160391750Y-132355581D01*
X160370926Y-132360797D01*
X160349691Y-132363947D01*
X160328250Y-132365000D01*
X159890750Y-132365000D01*
X159869309Y-132363947D01*
X159848074Y-132360797D01*
X159827250Y-132355581D01*
X159807038Y-132348349D01*
X159787632Y-132339170D01*
X159769219Y-132328134D01*
X159751976Y-132315346D01*
X159736070Y-132300930D01*
X159721654Y-132285024D01*
X159708866Y-132267781D01*
X159697830Y-132249368D01*
X159688651Y-132229962D01*
X159681419Y-132209750D01*
X159676203Y-132188926D01*
X159673053Y-132167691D01*
X159672000Y-132146250D01*
X159672000Y-131633750D01*
X159673053Y-131612309D01*
X159676203Y-131591074D01*
X159681419Y-131570250D01*
X159688651Y-131550038D01*
X159697830Y-131530632D01*
X159708866Y-131512219D01*
X159721654Y-131494976D01*
X159736070Y-131479070D01*
X159751976Y-131464654D01*
X159769219Y-131451866D01*
X159787632Y-131440830D01*
X159807038Y-131431651D01*
X159827250Y-131424419D01*
X159848074Y-131419203D01*
X159869309Y-131416053D01*
X159890750Y-131415000D01*
X160328250Y-131415000D01*
X160349691Y-131416053D01*
X160349691Y-131416053D01*
G37*
D16*
X160109500Y-131890000D03*
D18*
X151850000Y-131970000D03*
X156000000Y-131970000D03*
X151850000Y-134120000D03*
X156000000Y-134120000D03*
D19*
X166440000Y-151570000D03*
X168840000Y-153470000D03*
X168840000Y-151570000D03*
X166440000Y-153470000D03*
D20*
X146530000Y-136760000D03*
X146530000Y-138660000D03*
X144330000Y-138660000D03*
X144330000Y-137710000D03*
X144330000Y-136760000D03*
D10*
G36*
X148500691Y-133276053D02*
G01*
X148521926Y-133279203D01*
X148542750Y-133284419D01*
X148562962Y-133291651D01*
X148582368Y-133300830D01*
X148600781Y-133311866D01*
X148618024Y-133324654D01*
X148633930Y-133339070D01*
X148648346Y-133354976D01*
X148661134Y-133372219D01*
X148672170Y-133390632D01*
X148681349Y-133410038D01*
X148688581Y-133430250D01*
X148693797Y-133451074D01*
X148696947Y-133472309D01*
X148698000Y-133493750D01*
X148698000Y-134006250D01*
X148696947Y-134027691D01*
X148693797Y-134048926D01*
X148688581Y-134069750D01*
X148681349Y-134089962D01*
X148672170Y-134109368D01*
X148661134Y-134127781D01*
X148648346Y-134145024D01*
X148633930Y-134160930D01*
X148618024Y-134175346D01*
X148600781Y-134188134D01*
X148582368Y-134199170D01*
X148562962Y-134208349D01*
X148542750Y-134215581D01*
X148521926Y-134220797D01*
X148500691Y-134223947D01*
X148479250Y-134225000D01*
X148041750Y-134225000D01*
X148020309Y-134223947D01*
X147999074Y-134220797D01*
X147978250Y-134215581D01*
X147958038Y-134208349D01*
X147938632Y-134199170D01*
X147920219Y-134188134D01*
X147902976Y-134175346D01*
X147887070Y-134160930D01*
X147872654Y-134145024D01*
X147859866Y-134127781D01*
X147848830Y-134109368D01*
X147839651Y-134089962D01*
X147832419Y-134069750D01*
X147827203Y-134048926D01*
X147824053Y-134027691D01*
X147823000Y-134006250D01*
X147823000Y-133493750D01*
X147824053Y-133472309D01*
X147827203Y-133451074D01*
X147832419Y-133430250D01*
X147839651Y-133410038D01*
X147848830Y-133390632D01*
X147859866Y-133372219D01*
X147872654Y-133354976D01*
X147887070Y-133339070D01*
X147902976Y-133324654D01*
X147920219Y-133311866D01*
X147938632Y-133300830D01*
X147958038Y-133291651D01*
X147978250Y-133284419D01*
X147999074Y-133279203D01*
X148020309Y-133276053D01*
X148041750Y-133275000D01*
X148479250Y-133275000D01*
X148500691Y-133276053D01*
X148500691Y-133276053D01*
G37*
D16*
X148260500Y-133750000D03*
D10*
G36*
X150075691Y-133276053D02*
G01*
X150096926Y-133279203D01*
X150117750Y-133284419D01*
X150137962Y-133291651D01*
X150157368Y-133300830D01*
X150175781Y-133311866D01*
X150193024Y-133324654D01*
X150208930Y-133339070D01*
X150223346Y-133354976D01*
X150236134Y-133372219D01*
X150247170Y-133390632D01*
X150256349Y-133410038D01*
X150263581Y-133430250D01*
X150268797Y-133451074D01*
X150271947Y-133472309D01*
X150273000Y-133493750D01*
X150273000Y-134006250D01*
X150271947Y-134027691D01*
X150268797Y-134048926D01*
X150263581Y-134069750D01*
X150256349Y-134089962D01*
X150247170Y-134109368D01*
X150236134Y-134127781D01*
X150223346Y-134145024D01*
X150208930Y-134160930D01*
X150193024Y-134175346D01*
X150175781Y-134188134D01*
X150157368Y-134199170D01*
X150137962Y-134208349D01*
X150117750Y-134215581D01*
X150096926Y-134220797D01*
X150075691Y-134223947D01*
X150054250Y-134225000D01*
X149616750Y-134225000D01*
X149595309Y-134223947D01*
X149574074Y-134220797D01*
X149553250Y-134215581D01*
X149533038Y-134208349D01*
X149513632Y-134199170D01*
X149495219Y-134188134D01*
X149477976Y-134175346D01*
X149462070Y-134160930D01*
X149447654Y-134145024D01*
X149434866Y-134127781D01*
X149423830Y-134109368D01*
X149414651Y-134089962D01*
X149407419Y-134069750D01*
X149402203Y-134048926D01*
X149399053Y-134027691D01*
X149398000Y-134006250D01*
X149398000Y-133493750D01*
X149399053Y-133472309D01*
X149402203Y-133451074D01*
X149407419Y-133430250D01*
X149414651Y-133410038D01*
X149423830Y-133390632D01*
X149434866Y-133372219D01*
X149447654Y-133354976D01*
X149462070Y-133339070D01*
X149477976Y-133324654D01*
X149495219Y-133311866D01*
X149513632Y-133300830D01*
X149533038Y-133291651D01*
X149553250Y-133284419D01*
X149574074Y-133279203D01*
X149595309Y-133276053D01*
X149616750Y-133275000D01*
X150054250Y-133275000D01*
X150075691Y-133276053D01*
X150075691Y-133276053D01*
G37*
D16*
X149835500Y-133750000D03*
D10*
G36*
X143670691Y-133286053D02*
G01*
X143691926Y-133289203D01*
X143712750Y-133294419D01*
X143732962Y-133301651D01*
X143752368Y-133310830D01*
X143770781Y-133321866D01*
X143788024Y-133334654D01*
X143803930Y-133349070D01*
X143818346Y-133364976D01*
X143831134Y-133382219D01*
X143842170Y-133400632D01*
X143851349Y-133420038D01*
X143858581Y-133440250D01*
X143863797Y-133461074D01*
X143866947Y-133482309D01*
X143868000Y-133503750D01*
X143868000Y-134016250D01*
X143866947Y-134037691D01*
X143863797Y-134058926D01*
X143858581Y-134079750D01*
X143851349Y-134099962D01*
X143842170Y-134119368D01*
X143831134Y-134137781D01*
X143818346Y-134155024D01*
X143803930Y-134170930D01*
X143788024Y-134185346D01*
X143770781Y-134198134D01*
X143752368Y-134209170D01*
X143732962Y-134218349D01*
X143712750Y-134225581D01*
X143691926Y-134230797D01*
X143670691Y-134233947D01*
X143649250Y-134235000D01*
X143211750Y-134235000D01*
X143190309Y-134233947D01*
X143169074Y-134230797D01*
X143148250Y-134225581D01*
X143128038Y-134218349D01*
X143108632Y-134209170D01*
X143090219Y-134198134D01*
X143072976Y-134185346D01*
X143057070Y-134170930D01*
X143042654Y-134155024D01*
X143029866Y-134137781D01*
X143018830Y-134119368D01*
X143009651Y-134099962D01*
X143002419Y-134079750D01*
X142997203Y-134058926D01*
X142994053Y-134037691D01*
X142993000Y-134016250D01*
X142993000Y-133503750D01*
X142994053Y-133482309D01*
X142997203Y-133461074D01*
X143002419Y-133440250D01*
X143009651Y-133420038D01*
X143018830Y-133400632D01*
X143029866Y-133382219D01*
X143042654Y-133364976D01*
X143057070Y-133349070D01*
X143072976Y-133334654D01*
X143090219Y-133321866D01*
X143108632Y-133310830D01*
X143128038Y-133301651D01*
X143148250Y-133294419D01*
X143169074Y-133289203D01*
X143190309Y-133286053D01*
X143211750Y-133285000D01*
X143649250Y-133285000D01*
X143670691Y-133286053D01*
X143670691Y-133286053D01*
G37*
D16*
X143430500Y-133760000D03*
D10*
G36*
X145245691Y-133286053D02*
G01*
X145266926Y-133289203D01*
X145287750Y-133294419D01*
X145307962Y-133301651D01*
X145327368Y-133310830D01*
X145345781Y-133321866D01*
X145363024Y-133334654D01*
X145378930Y-133349070D01*
X145393346Y-133364976D01*
X145406134Y-133382219D01*
X145417170Y-133400632D01*
X145426349Y-133420038D01*
X145433581Y-133440250D01*
X145438797Y-133461074D01*
X145441947Y-133482309D01*
X145443000Y-133503750D01*
X145443000Y-134016250D01*
X145441947Y-134037691D01*
X145438797Y-134058926D01*
X145433581Y-134079750D01*
X145426349Y-134099962D01*
X145417170Y-134119368D01*
X145406134Y-134137781D01*
X145393346Y-134155024D01*
X145378930Y-134170930D01*
X145363024Y-134185346D01*
X145345781Y-134198134D01*
X145327368Y-134209170D01*
X145307962Y-134218349D01*
X145287750Y-134225581D01*
X145266926Y-134230797D01*
X145245691Y-134233947D01*
X145224250Y-134235000D01*
X144786750Y-134235000D01*
X144765309Y-134233947D01*
X144744074Y-134230797D01*
X144723250Y-134225581D01*
X144703038Y-134218349D01*
X144683632Y-134209170D01*
X144665219Y-134198134D01*
X144647976Y-134185346D01*
X144632070Y-134170930D01*
X144617654Y-134155024D01*
X144604866Y-134137781D01*
X144593830Y-134119368D01*
X144584651Y-134099962D01*
X144577419Y-134079750D01*
X144572203Y-134058926D01*
X144569053Y-134037691D01*
X144568000Y-134016250D01*
X144568000Y-133503750D01*
X144569053Y-133482309D01*
X144572203Y-133461074D01*
X144577419Y-133440250D01*
X144584651Y-133420038D01*
X144593830Y-133400632D01*
X144604866Y-133382219D01*
X144617654Y-133364976D01*
X144632070Y-133349070D01*
X144647976Y-133334654D01*
X144665219Y-133321866D01*
X144683632Y-133310830D01*
X144703038Y-133301651D01*
X144723250Y-133294419D01*
X144744074Y-133289203D01*
X144765309Y-133286053D01*
X144786750Y-133285000D01*
X145224250Y-133285000D01*
X145245691Y-133286053D01*
X145245691Y-133286053D01*
G37*
D16*
X145005500Y-133760000D03*
D10*
G36*
X138932691Y-133376053D02*
G01*
X138953926Y-133379203D01*
X138974750Y-133384419D01*
X138994962Y-133391651D01*
X139014368Y-133400830D01*
X139032781Y-133411866D01*
X139050024Y-133424654D01*
X139065930Y-133439070D01*
X139080346Y-133454976D01*
X139093134Y-133472219D01*
X139104170Y-133490632D01*
X139113349Y-133510038D01*
X139120581Y-133530250D01*
X139125797Y-133551074D01*
X139128947Y-133572309D01*
X139130000Y-133593750D01*
X139130000Y-134106250D01*
X139128947Y-134127691D01*
X139125797Y-134148926D01*
X139120581Y-134169750D01*
X139113349Y-134189962D01*
X139104170Y-134209368D01*
X139093134Y-134227781D01*
X139080346Y-134245024D01*
X139065930Y-134260930D01*
X139050024Y-134275346D01*
X139032781Y-134288134D01*
X139014368Y-134299170D01*
X138994962Y-134308349D01*
X138974750Y-134315581D01*
X138953926Y-134320797D01*
X138932691Y-134323947D01*
X138911250Y-134325000D01*
X138473750Y-134325000D01*
X138452309Y-134323947D01*
X138431074Y-134320797D01*
X138410250Y-134315581D01*
X138390038Y-134308349D01*
X138370632Y-134299170D01*
X138352219Y-134288134D01*
X138334976Y-134275346D01*
X138319070Y-134260930D01*
X138304654Y-134245024D01*
X138291866Y-134227781D01*
X138280830Y-134209368D01*
X138271651Y-134189962D01*
X138264419Y-134169750D01*
X138259203Y-134148926D01*
X138256053Y-134127691D01*
X138255000Y-134106250D01*
X138255000Y-133593750D01*
X138256053Y-133572309D01*
X138259203Y-133551074D01*
X138264419Y-133530250D01*
X138271651Y-133510038D01*
X138280830Y-133490632D01*
X138291866Y-133472219D01*
X138304654Y-133454976D01*
X138319070Y-133439070D01*
X138334976Y-133424654D01*
X138352219Y-133411866D01*
X138370632Y-133400830D01*
X138390038Y-133391651D01*
X138410250Y-133384419D01*
X138431074Y-133379203D01*
X138452309Y-133376053D01*
X138473750Y-133375000D01*
X138911250Y-133375000D01*
X138932691Y-133376053D01*
X138932691Y-133376053D01*
G37*
D16*
X138692500Y-133850000D03*
D10*
G36*
X140507691Y-133376053D02*
G01*
X140528926Y-133379203D01*
X140549750Y-133384419D01*
X140569962Y-133391651D01*
X140589368Y-133400830D01*
X140607781Y-133411866D01*
X140625024Y-133424654D01*
X140640930Y-133439070D01*
X140655346Y-133454976D01*
X140668134Y-133472219D01*
X140679170Y-133490632D01*
X140688349Y-133510038D01*
X140695581Y-133530250D01*
X140700797Y-133551074D01*
X140703947Y-133572309D01*
X140705000Y-133593750D01*
X140705000Y-134106250D01*
X140703947Y-134127691D01*
X140700797Y-134148926D01*
X140695581Y-134169750D01*
X140688349Y-134189962D01*
X140679170Y-134209368D01*
X140668134Y-134227781D01*
X140655346Y-134245024D01*
X140640930Y-134260930D01*
X140625024Y-134275346D01*
X140607781Y-134288134D01*
X140589368Y-134299170D01*
X140569962Y-134308349D01*
X140549750Y-134315581D01*
X140528926Y-134320797D01*
X140507691Y-134323947D01*
X140486250Y-134325000D01*
X140048750Y-134325000D01*
X140027309Y-134323947D01*
X140006074Y-134320797D01*
X139985250Y-134315581D01*
X139965038Y-134308349D01*
X139945632Y-134299170D01*
X139927219Y-134288134D01*
X139909976Y-134275346D01*
X139894070Y-134260930D01*
X139879654Y-134245024D01*
X139866866Y-134227781D01*
X139855830Y-134209368D01*
X139846651Y-134189962D01*
X139839419Y-134169750D01*
X139834203Y-134148926D01*
X139831053Y-134127691D01*
X139830000Y-134106250D01*
X139830000Y-133593750D01*
X139831053Y-133572309D01*
X139834203Y-133551074D01*
X139839419Y-133530250D01*
X139846651Y-133510038D01*
X139855830Y-133490632D01*
X139866866Y-133472219D01*
X139879654Y-133454976D01*
X139894070Y-133439070D01*
X139909976Y-133424654D01*
X139927219Y-133411866D01*
X139945632Y-133400830D01*
X139965038Y-133391651D01*
X139985250Y-133384419D01*
X140006074Y-133379203D01*
X140027309Y-133376053D01*
X140048750Y-133375000D01*
X140486250Y-133375000D01*
X140507691Y-133376053D01*
X140507691Y-133376053D01*
G37*
D16*
X140267500Y-133850000D03*
D10*
G36*
X148800691Y-141706053D02*
G01*
X148821926Y-141709203D01*
X148842750Y-141714419D01*
X148862962Y-141721651D01*
X148882368Y-141730830D01*
X148900781Y-141741866D01*
X148918024Y-141754654D01*
X148933930Y-141769070D01*
X148948346Y-141784976D01*
X148961134Y-141802219D01*
X148972170Y-141820632D01*
X148981349Y-141840038D01*
X148988581Y-141860250D01*
X148993797Y-141881074D01*
X148996947Y-141902309D01*
X148998000Y-141923750D01*
X148998000Y-142436250D01*
X148996947Y-142457691D01*
X148993797Y-142478926D01*
X148988581Y-142499750D01*
X148981349Y-142519962D01*
X148972170Y-142539368D01*
X148961134Y-142557781D01*
X148948346Y-142575024D01*
X148933930Y-142590930D01*
X148918024Y-142605346D01*
X148900781Y-142618134D01*
X148882368Y-142629170D01*
X148862962Y-142638349D01*
X148842750Y-142645581D01*
X148821926Y-142650797D01*
X148800691Y-142653947D01*
X148779250Y-142655000D01*
X148341750Y-142655000D01*
X148320309Y-142653947D01*
X148299074Y-142650797D01*
X148278250Y-142645581D01*
X148258038Y-142638349D01*
X148238632Y-142629170D01*
X148220219Y-142618134D01*
X148202976Y-142605346D01*
X148187070Y-142590930D01*
X148172654Y-142575024D01*
X148159866Y-142557781D01*
X148148830Y-142539368D01*
X148139651Y-142519962D01*
X148132419Y-142499750D01*
X148127203Y-142478926D01*
X148124053Y-142457691D01*
X148123000Y-142436250D01*
X148123000Y-141923750D01*
X148124053Y-141902309D01*
X148127203Y-141881074D01*
X148132419Y-141860250D01*
X148139651Y-141840038D01*
X148148830Y-141820632D01*
X148159866Y-141802219D01*
X148172654Y-141784976D01*
X148187070Y-141769070D01*
X148202976Y-141754654D01*
X148220219Y-141741866D01*
X148238632Y-141730830D01*
X148258038Y-141721651D01*
X148278250Y-141714419D01*
X148299074Y-141709203D01*
X148320309Y-141706053D01*
X148341750Y-141705000D01*
X148779250Y-141705000D01*
X148800691Y-141706053D01*
X148800691Y-141706053D01*
G37*
D16*
X148560500Y-142180000D03*
D10*
G36*
X150375691Y-141706053D02*
G01*
X150396926Y-141709203D01*
X150417750Y-141714419D01*
X150437962Y-141721651D01*
X150457368Y-141730830D01*
X150475781Y-141741866D01*
X150493024Y-141754654D01*
X150508930Y-141769070D01*
X150523346Y-141784976D01*
X150536134Y-141802219D01*
X150547170Y-141820632D01*
X150556349Y-141840038D01*
X150563581Y-141860250D01*
X150568797Y-141881074D01*
X150571947Y-141902309D01*
X150573000Y-141923750D01*
X150573000Y-142436250D01*
X150571947Y-142457691D01*
X150568797Y-142478926D01*
X150563581Y-142499750D01*
X150556349Y-142519962D01*
X150547170Y-142539368D01*
X150536134Y-142557781D01*
X150523346Y-142575024D01*
X150508930Y-142590930D01*
X150493024Y-142605346D01*
X150475781Y-142618134D01*
X150457368Y-142629170D01*
X150437962Y-142638349D01*
X150417750Y-142645581D01*
X150396926Y-142650797D01*
X150375691Y-142653947D01*
X150354250Y-142655000D01*
X149916750Y-142655000D01*
X149895309Y-142653947D01*
X149874074Y-142650797D01*
X149853250Y-142645581D01*
X149833038Y-142638349D01*
X149813632Y-142629170D01*
X149795219Y-142618134D01*
X149777976Y-142605346D01*
X149762070Y-142590930D01*
X149747654Y-142575024D01*
X149734866Y-142557781D01*
X149723830Y-142539368D01*
X149714651Y-142519962D01*
X149707419Y-142499750D01*
X149702203Y-142478926D01*
X149699053Y-142457691D01*
X149698000Y-142436250D01*
X149698000Y-141923750D01*
X149699053Y-141902309D01*
X149702203Y-141881074D01*
X149707419Y-141860250D01*
X149714651Y-141840038D01*
X149723830Y-141820632D01*
X149734866Y-141802219D01*
X149747654Y-141784976D01*
X149762070Y-141769070D01*
X149777976Y-141754654D01*
X149795219Y-141741866D01*
X149813632Y-141730830D01*
X149833038Y-141721651D01*
X149853250Y-141714419D01*
X149874074Y-141709203D01*
X149895309Y-141706053D01*
X149916750Y-141705000D01*
X150354250Y-141705000D01*
X150375691Y-141706053D01*
X150375691Y-141706053D01*
G37*
D16*
X150135500Y-142180000D03*
D21*
X183600000Y-135930000D03*
X183600000Y-149070000D03*
D22*
X181000000Y-139000000D03*
X181000000Y-141500000D03*
X181000000Y-143500000D03*
X181000000Y-146000000D03*
D10*
G36*
X150087691Y-131626053D02*
G01*
X150108926Y-131629203D01*
X150129750Y-131634419D01*
X150149962Y-131641651D01*
X150169368Y-131650830D01*
X150187781Y-131661866D01*
X150205024Y-131674654D01*
X150220930Y-131689070D01*
X150235346Y-131704976D01*
X150248134Y-131722219D01*
X150259170Y-131740632D01*
X150268349Y-131760038D01*
X150275581Y-131780250D01*
X150280797Y-131801074D01*
X150283947Y-131822309D01*
X150285000Y-131843750D01*
X150285000Y-132356250D01*
X150283947Y-132377691D01*
X150280797Y-132398926D01*
X150275581Y-132419750D01*
X150268349Y-132439962D01*
X150259170Y-132459368D01*
X150248134Y-132477781D01*
X150235346Y-132495024D01*
X150220930Y-132510930D01*
X150205024Y-132525346D01*
X150187781Y-132538134D01*
X150169368Y-132549170D01*
X150149962Y-132558349D01*
X150129750Y-132565581D01*
X150108926Y-132570797D01*
X150087691Y-132573947D01*
X150066250Y-132575000D01*
X149628750Y-132575000D01*
X149607309Y-132573947D01*
X149586074Y-132570797D01*
X149565250Y-132565581D01*
X149545038Y-132558349D01*
X149525632Y-132549170D01*
X149507219Y-132538134D01*
X149489976Y-132525346D01*
X149474070Y-132510930D01*
X149459654Y-132495024D01*
X149446866Y-132477781D01*
X149435830Y-132459368D01*
X149426651Y-132439962D01*
X149419419Y-132419750D01*
X149414203Y-132398926D01*
X149411053Y-132377691D01*
X149410000Y-132356250D01*
X149410000Y-131843750D01*
X149411053Y-131822309D01*
X149414203Y-131801074D01*
X149419419Y-131780250D01*
X149426651Y-131760038D01*
X149435830Y-131740632D01*
X149446866Y-131722219D01*
X149459654Y-131704976D01*
X149474070Y-131689070D01*
X149489976Y-131674654D01*
X149507219Y-131661866D01*
X149525632Y-131650830D01*
X149545038Y-131641651D01*
X149565250Y-131634419D01*
X149586074Y-131629203D01*
X149607309Y-131626053D01*
X149628750Y-131625000D01*
X150066250Y-131625000D01*
X150087691Y-131626053D01*
X150087691Y-131626053D01*
G37*
D16*
X149847500Y-132100000D03*
D10*
G36*
X148512691Y-131626053D02*
G01*
X148533926Y-131629203D01*
X148554750Y-131634419D01*
X148574962Y-131641651D01*
X148594368Y-131650830D01*
X148612781Y-131661866D01*
X148630024Y-131674654D01*
X148645930Y-131689070D01*
X148660346Y-131704976D01*
X148673134Y-131722219D01*
X148684170Y-131740632D01*
X148693349Y-131760038D01*
X148700581Y-131780250D01*
X148705797Y-131801074D01*
X148708947Y-131822309D01*
X148710000Y-131843750D01*
X148710000Y-132356250D01*
X148708947Y-132377691D01*
X148705797Y-132398926D01*
X148700581Y-132419750D01*
X148693349Y-132439962D01*
X148684170Y-132459368D01*
X148673134Y-132477781D01*
X148660346Y-132495024D01*
X148645930Y-132510930D01*
X148630024Y-132525346D01*
X148612781Y-132538134D01*
X148594368Y-132549170D01*
X148574962Y-132558349D01*
X148554750Y-132565581D01*
X148533926Y-132570797D01*
X148512691Y-132573947D01*
X148491250Y-132575000D01*
X148053750Y-132575000D01*
X148032309Y-132573947D01*
X148011074Y-132570797D01*
X147990250Y-132565581D01*
X147970038Y-132558349D01*
X147950632Y-132549170D01*
X147932219Y-132538134D01*
X147914976Y-132525346D01*
X147899070Y-132510930D01*
X147884654Y-132495024D01*
X147871866Y-132477781D01*
X147860830Y-132459368D01*
X147851651Y-132439962D01*
X147844419Y-132419750D01*
X147839203Y-132398926D01*
X147836053Y-132377691D01*
X147835000Y-132356250D01*
X147835000Y-131843750D01*
X147836053Y-131822309D01*
X147839203Y-131801074D01*
X147844419Y-131780250D01*
X147851651Y-131760038D01*
X147860830Y-131740632D01*
X147871866Y-131722219D01*
X147884654Y-131704976D01*
X147899070Y-131689070D01*
X147914976Y-131674654D01*
X147932219Y-131661866D01*
X147950632Y-131650830D01*
X147970038Y-131641651D01*
X147990250Y-131634419D01*
X148011074Y-131629203D01*
X148032309Y-131626053D01*
X148053750Y-131625000D01*
X148491250Y-131625000D01*
X148512691Y-131626053D01*
X148512691Y-131626053D01*
G37*
D16*
X148272500Y-132100000D03*
D10*
G36*
X145257691Y-131636053D02*
G01*
X145278926Y-131639203D01*
X145299750Y-131644419D01*
X145319962Y-131651651D01*
X145339368Y-131660830D01*
X145357781Y-131671866D01*
X145375024Y-131684654D01*
X145390930Y-131699070D01*
X145405346Y-131714976D01*
X145418134Y-131732219D01*
X145429170Y-131750632D01*
X145438349Y-131770038D01*
X145445581Y-131790250D01*
X145450797Y-131811074D01*
X145453947Y-131832309D01*
X145455000Y-131853750D01*
X145455000Y-132366250D01*
X145453947Y-132387691D01*
X145450797Y-132408926D01*
X145445581Y-132429750D01*
X145438349Y-132449962D01*
X145429170Y-132469368D01*
X145418134Y-132487781D01*
X145405346Y-132505024D01*
X145390930Y-132520930D01*
X145375024Y-132535346D01*
X145357781Y-132548134D01*
X145339368Y-132559170D01*
X145319962Y-132568349D01*
X145299750Y-132575581D01*
X145278926Y-132580797D01*
X145257691Y-132583947D01*
X145236250Y-132585000D01*
X144798750Y-132585000D01*
X144777309Y-132583947D01*
X144756074Y-132580797D01*
X144735250Y-132575581D01*
X144715038Y-132568349D01*
X144695632Y-132559170D01*
X144677219Y-132548134D01*
X144659976Y-132535346D01*
X144644070Y-132520930D01*
X144629654Y-132505024D01*
X144616866Y-132487781D01*
X144605830Y-132469368D01*
X144596651Y-132449962D01*
X144589419Y-132429750D01*
X144584203Y-132408926D01*
X144581053Y-132387691D01*
X144580000Y-132366250D01*
X144580000Y-131853750D01*
X144581053Y-131832309D01*
X144584203Y-131811074D01*
X144589419Y-131790250D01*
X144596651Y-131770038D01*
X144605830Y-131750632D01*
X144616866Y-131732219D01*
X144629654Y-131714976D01*
X144644070Y-131699070D01*
X144659976Y-131684654D01*
X144677219Y-131671866D01*
X144695632Y-131660830D01*
X144715038Y-131651651D01*
X144735250Y-131644419D01*
X144756074Y-131639203D01*
X144777309Y-131636053D01*
X144798750Y-131635000D01*
X145236250Y-131635000D01*
X145257691Y-131636053D01*
X145257691Y-131636053D01*
G37*
D16*
X145017500Y-132110000D03*
D10*
G36*
X143682691Y-131636053D02*
G01*
X143703926Y-131639203D01*
X143724750Y-131644419D01*
X143744962Y-131651651D01*
X143764368Y-131660830D01*
X143782781Y-131671866D01*
X143800024Y-131684654D01*
X143815930Y-131699070D01*
X143830346Y-131714976D01*
X143843134Y-131732219D01*
X143854170Y-131750632D01*
X143863349Y-131770038D01*
X143870581Y-131790250D01*
X143875797Y-131811074D01*
X143878947Y-131832309D01*
X143880000Y-131853750D01*
X143880000Y-132366250D01*
X143878947Y-132387691D01*
X143875797Y-132408926D01*
X143870581Y-132429750D01*
X143863349Y-132449962D01*
X143854170Y-132469368D01*
X143843134Y-132487781D01*
X143830346Y-132505024D01*
X143815930Y-132520930D01*
X143800024Y-132535346D01*
X143782781Y-132548134D01*
X143764368Y-132559170D01*
X143744962Y-132568349D01*
X143724750Y-132575581D01*
X143703926Y-132580797D01*
X143682691Y-132583947D01*
X143661250Y-132585000D01*
X143223750Y-132585000D01*
X143202309Y-132583947D01*
X143181074Y-132580797D01*
X143160250Y-132575581D01*
X143140038Y-132568349D01*
X143120632Y-132559170D01*
X143102219Y-132548134D01*
X143084976Y-132535346D01*
X143069070Y-132520930D01*
X143054654Y-132505024D01*
X143041866Y-132487781D01*
X143030830Y-132469368D01*
X143021651Y-132449962D01*
X143014419Y-132429750D01*
X143009203Y-132408926D01*
X143006053Y-132387691D01*
X143005000Y-132366250D01*
X143005000Y-131853750D01*
X143006053Y-131832309D01*
X143009203Y-131811074D01*
X143014419Y-131790250D01*
X143021651Y-131770038D01*
X143030830Y-131750632D01*
X143041866Y-131732219D01*
X143054654Y-131714976D01*
X143069070Y-131699070D01*
X143084976Y-131684654D01*
X143102219Y-131671866D01*
X143120632Y-131660830D01*
X143140038Y-131651651D01*
X143160250Y-131644419D01*
X143181074Y-131639203D01*
X143202309Y-131636053D01*
X143223750Y-131635000D01*
X143661250Y-131635000D01*
X143682691Y-131636053D01*
X143682691Y-131636053D01*
G37*
D16*
X143442500Y-132110000D03*
D10*
G36*
X140497691Y-131696053D02*
G01*
X140518926Y-131699203D01*
X140539750Y-131704419D01*
X140559962Y-131711651D01*
X140579368Y-131720830D01*
X140597781Y-131731866D01*
X140615024Y-131744654D01*
X140630930Y-131759070D01*
X140645346Y-131774976D01*
X140658134Y-131792219D01*
X140669170Y-131810632D01*
X140678349Y-131830038D01*
X140685581Y-131850250D01*
X140690797Y-131871074D01*
X140693947Y-131892309D01*
X140695000Y-131913750D01*
X140695000Y-132426250D01*
X140693947Y-132447691D01*
X140690797Y-132468926D01*
X140685581Y-132489750D01*
X140678349Y-132509962D01*
X140669170Y-132529368D01*
X140658134Y-132547781D01*
X140645346Y-132565024D01*
X140630930Y-132580930D01*
X140615024Y-132595346D01*
X140597781Y-132608134D01*
X140579368Y-132619170D01*
X140559962Y-132628349D01*
X140539750Y-132635581D01*
X140518926Y-132640797D01*
X140497691Y-132643947D01*
X140476250Y-132645000D01*
X140038750Y-132645000D01*
X140017309Y-132643947D01*
X139996074Y-132640797D01*
X139975250Y-132635581D01*
X139955038Y-132628349D01*
X139935632Y-132619170D01*
X139917219Y-132608134D01*
X139899976Y-132595346D01*
X139884070Y-132580930D01*
X139869654Y-132565024D01*
X139856866Y-132547781D01*
X139845830Y-132529368D01*
X139836651Y-132509962D01*
X139829419Y-132489750D01*
X139824203Y-132468926D01*
X139821053Y-132447691D01*
X139820000Y-132426250D01*
X139820000Y-131913750D01*
X139821053Y-131892309D01*
X139824203Y-131871074D01*
X139829419Y-131850250D01*
X139836651Y-131830038D01*
X139845830Y-131810632D01*
X139856866Y-131792219D01*
X139869654Y-131774976D01*
X139884070Y-131759070D01*
X139899976Y-131744654D01*
X139917219Y-131731866D01*
X139935632Y-131720830D01*
X139955038Y-131711651D01*
X139975250Y-131704419D01*
X139996074Y-131699203D01*
X140017309Y-131696053D01*
X140038750Y-131695000D01*
X140476250Y-131695000D01*
X140497691Y-131696053D01*
X140497691Y-131696053D01*
G37*
D16*
X140257500Y-132170000D03*
D10*
G36*
X138922691Y-131696053D02*
G01*
X138943926Y-131699203D01*
X138964750Y-131704419D01*
X138984962Y-131711651D01*
X139004368Y-131720830D01*
X139022781Y-131731866D01*
X139040024Y-131744654D01*
X139055930Y-131759070D01*
X139070346Y-131774976D01*
X139083134Y-131792219D01*
X139094170Y-131810632D01*
X139103349Y-131830038D01*
X139110581Y-131850250D01*
X139115797Y-131871074D01*
X139118947Y-131892309D01*
X139120000Y-131913750D01*
X139120000Y-132426250D01*
X139118947Y-132447691D01*
X139115797Y-132468926D01*
X139110581Y-132489750D01*
X139103349Y-132509962D01*
X139094170Y-132529368D01*
X139083134Y-132547781D01*
X139070346Y-132565024D01*
X139055930Y-132580930D01*
X139040024Y-132595346D01*
X139022781Y-132608134D01*
X139004368Y-132619170D01*
X138984962Y-132628349D01*
X138964750Y-132635581D01*
X138943926Y-132640797D01*
X138922691Y-132643947D01*
X138901250Y-132645000D01*
X138463750Y-132645000D01*
X138442309Y-132643947D01*
X138421074Y-132640797D01*
X138400250Y-132635581D01*
X138380038Y-132628349D01*
X138360632Y-132619170D01*
X138342219Y-132608134D01*
X138324976Y-132595346D01*
X138309070Y-132580930D01*
X138294654Y-132565024D01*
X138281866Y-132547781D01*
X138270830Y-132529368D01*
X138261651Y-132509962D01*
X138254419Y-132489750D01*
X138249203Y-132468926D01*
X138246053Y-132447691D01*
X138245000Y-132426250D01*
X138245000Y-131913750D01*
X138246053Y-131892309D01*
X138249203Y-131871074D01*
X138254419Y-131850250D01*
X138261651Y-131830038D01*
X138270830Y-131810632D01*
X138281866Y-131792219D01*
X138294654Y-131774976D01*
X138309070Y-131759070D01*
X138324976Y-131744654D01*
X138342219Y-131731866D01*
X138360632Y-131720830D01*
X138380038Y-131711651D01*
X138400250Y-131704419D01*
X138421074Y-131699203D01*
X138442309Y-131696053D01*
X138463750Y-131695000D01*
X138901250Y-131695000D01*
X138922691Y-131696053D01*
X138922691Y-131696053D01*
G37*
D16*
X138682500Y-132170000D03*
D10*
G36*
X173807691Y-146996053D02*
G01*
X173828926Y-146999203D01*
X173849750Y-147004419D01*
X173869962Y-147011651D01*
X173889368Y-147020830D01*
X173907781Y-147031866D01*
X173925024Y-147044654D01*
X173940930Y-147059070D01*
X173955346Y-147074976D01*
X173968134Y-147092219D01*
X173979170Y-147110632D01*
X173988349Y-147130038D01*
X173995581Y-147150250D01*
X174000797Y-147171074D01*
X174003947Y-147192309D01*
X174005000Y-147213750D01*
X174005000Y-147726250D01*
X174003947Y-147747691D01*
X174000797Y-147768926D01*
X173995581Y-147789750D01*
X173988349Y-147809962D01*
X173979170Y-147829368D01*
X173968134Y-147847781D01*
X173955346Y-147865024D01*
X173940930Y-147880930D01*
X173925024Y-147895346D01*
X173907781Y-147908134D01*
X173889368Y-147919170D01*
X173869962Y-147928349D01*
X173849750Y-147935581D01*
X173828926Y-147940797D01*
X173807691Y-147943947D01*
X173786250Y-147945000D01*
X173348750Y-147945000D01*
X173327309Y-147943947D01*
X173306074Y-147940797D01*
X173285250Y-147935581D01*
X173265038Y-147928349D01*
X173245632Y-147919170D01*
X173227219Y-147908134D01*
X173209976Y-147895346D01*
X173194070Y-147880930D01*
X173179654Y-147865024D01*
X173166866Y-147847781D01*
X173155830Y-147829368D01*
X173146651Y-147809962D01*
X173139419Y-147789750D01*
X173134203Y-147768926D01*
X173131053Y-147747691D01*
X173130000Y-147726250D01*
X173130000Y-147213750D01*
X173131053Y-147192309D01*
X173134203Y-147171074D01*
X173139419Y-147150250D01*
X173146651Y-147130038D01*
X173155830Y-147110632D01*
X173166866Y-147092219D01*
X173179654Y-147074976D01*
X173194070Y-147059070D01*
X173209976Y-147044654D01*
X173227219Y-147031866D01*
X173245632Y-147020830D01*
X173265038Y-147011651D01*
X173285250Y-147004419D01*
X173306074Y-146999203D01*
X173327309Y-146996053D01*
X173348750Y-146995000D01*
X173786250Y-146995000D01*
X173807691Y-146996053D01*
X173807691Y-146996053D01*
G37*
D16*
X173567500Y-147470000D03*
D10*
G36*
X172232691Y-146996053D02*
G01*
X172253926Y-146999203D01*
X172274750Y-147004419D01*
X172294962Y-147011651D01*
X172314368Y-147020830D01*
X172332781Y-147031866D01*
X172350024Y-147044654D01*
X172365930Y-147059070D01*
X172380346Y-147074976D01*
X172393134Y-147092219D01*
X172404170Y-147110632D01*
X172413349Y-147130038D01*
X172420581Y-147150250D01*
X172425797Y-147171074D01*
X172428947Y-147192309D01*
X172430000Y-147213750D01*
X172430000Y-147726250D01*
X172428947Y-147747691D01*
X172425797Y-147768926D01*
X172420581Y-147789750D01*
X172413349Y-147809962D01*
X172404170Y-147829368D01*
X172393134Y-147847781D01*
X172380346Y-147865024D01*
X172365930Y-147880930D01*
X172350024Y-147895346D01*
X172332781Y-147908134D01*
X172314368Y-147919170D01*
X172294962Y-147928349D01*
X172274750Y-147935581D01*
X172253926Y-147940797D01*
X172232691Y-147943947D01*
X172211250Y-147945000D01*
X171773750Y-147945000D01*
X171752309Y-147943947D01*
X171731074Y-147940797D01*
X171710250Y-147935581D01*
X171690038Y-147928349D01*
X171670632Y-147919170D01*
X171652219Y-147908134D01*
X171634976Y-147895346D01*
X171619070Y-147880930D01*
X171604654Y-147865024D01*
X171591866Y-147847781D01*
X171580830Y-147829368D01*
X171571651Y-147809962D01*
X171564419Y-147789750D01*
X171559203Y-147768926D01*
X171556053Y-147747691D01*
X171555000Y-147726250D01*
X171555000Y-147213750D01*
X171556053Y-147192309D01*
X171559203Y-147171074D01*
X171564419Y-147150250D01*
X171571651Y-147130038D01*
X171580830Y-147110632D01*
X171591866Y-147092219D01*
X171604654Y-147074976D01*
X171619070Y-147059070D01*
X171634976Y-147044654D01*
X171652219Y-147031866D01*
X171670632Y-147020830D01*
X171690038Y-147011651D01*
X171710250Y-147004419D01*
X171731074Y-146999203D01*
X171752309Y-146996053D01*
X171773750Y-146995000D01*
X172211250Y-146995000D01*
X172232691Y-146996053D01*
X172232691Y-146996053D01*
G37*
D16*
X171992500Y-147470000D03*
D10*
G36*
X161967691Y-152969053D02*
G01*
X161988926Y-152972203D01*
X162009750Y-152977419D01*
X162029962Y-152984651D01*
X162049368Y-152993830D01*
X162067781Y-153004866D01*
X162085024Y-153017654D01*
X162100930Y-153032070D01*
X162115346Y-153047976D01*
X162128134Y-153065219D01*
X162139170Y-153083632D01*
X162148349Y-153103038D01*
X162155581Y-153123250D01*
X162160797Y-153144074D01*
X162163947Y-153165309D01*
X162165000Y-153186750D01*
X162165000Y-153624250D01*
X162163947Y-153645691D01*
X162160797Y-153666926D01*
X162155581Y-153687750D01*
X162148349Y-153707962D01*
X162139170Y-153727368D01*
X162128134Y-153745781D01*
X162115346Y-153763024D01*
X162100930Y-153778930D01*
X162085024Y-153793346D01*
X162067781Y-153806134D01*
X162049368Y-153817170D01*
X162029962Y-153826349D01*
X162009750Y-153833581D01*
X161988926Y-153838797D01*
X161967691Y-153841947D01*
X161946250Y-153843000D01*
X161433750Y-153843000D01*
X161412309Y-153841947D01*
X161391074Y-153838797D01*
X161370250Y-153833581D01*
X161350038Y-153826349D01*
X161330632Y-153817170D01*
X161312219Y-153806134D01*
X161294976Y-153793346D01*
X161279070Y-153778930D01*
X161264654Y-153763024D01*
X161251866Y-153745781D01*
X161240830Y-153727368D01*
X161231651Y-153707962D01*
X161224419Y-153687750D01*
X161219203Y-153666926D01*
X161216053Y-153645691D01*
X161215000Y-153624250D01*
X161215000Y-153186750D01*
X161216053Y-153165309D01*
X161219203Y-153144074D01*
X161224419Y-153123250D01*
X161231651Y-153103038D01*
X161240830Y-153083632D01*
X161251866Y-153065219D01*
X161264654Y-153047976D01*
X161279070Y-153032070D01*
X161294976Y-153017654D01*
X161312219Y-153004866D01*
X161330632Y-152993830D01*
X161350038Y-152984651D01*
X161370250Y-152977419D01*
X161391074Y-152972203D01*
X161412309Y-152969053D01*
X161433750Y-152968000D01*
X161946250Y-152968000D01*
X161967691Y-152969053D01*
X161967691Y-152969053D01*
G37*
D16*
X161690000Y-153405500D03*
D10*
G36*
X161967691Y-151394053D02*
G01*
X161988926Y-151397203D01*
X162009750Y-151402419D01*
X162029962Y-151409651D01*
X162049368Y-151418830D01*
X162067781Y-151429866D01*
X162085024Y-151442654D01*
X162100930Y-151457070D01*
X162115346Y-151472976D01*
X162128134Y-151490219D01*
X162139170Y-151508632D01*
X162148349Y-151528038D01*
X162155581Y-151548250D01*
X162160797Y-151569074D01*
X162163947Y-151590309D01*
X162165000Y-151611750D01*
X162165000Y-152049250D01*
X162163947Y-152070691D01*
X162160797Y-152091926D01*
X162155581Y-152112750D01*
X162148349Y-152132962D01*
X162139170Y-152152368D01*
X162128134Y-152170781D01*
X162115346Y-152188024D01*
X162100930Y-152203930D01*
X162085024Y-152218346D01*
X162067781Y-152231134D01*
X162049368Y-152242170D01*
X162029962Y-152251349D01*
X162009750Y-152258581D01*
X161988926Y-152263797D01*
X161967691Y-152266947D01*
X161946250Y-152268000D01*
X161433750Y-152268000D01*
X161412309Y-152266947D01*
X161391074Y-152263797D01*
X161370250Y-152258581D01*
X161350038Y-152251349D01*
X161330632Y-152242170D01*
X161312219Y-152231134D01*
X161294976Y-152218346D01*
X161279070Y-152203930D01*
X161264654Y-152188024D01*
X161251866Y-152170781D01*
X161240830Y-152152368D01*
X161231651Y-152132962D01*
X161224419Y-152112750D01*
X161219203Y-152091926D01*
X161216053Y-152070691D01*
X161215000Y-152049250D01*
X161215000Y-151611750D01*
X161216053Y-151590309D01*
X161219203Y-151569074D01*
X161224419Y-151548250D01*
X161231651Y-151528038D01*
X161240830Y-151508632D01*
X161251866Y-151490219D01*
X161264654Y-151472976D01*
X161279070Y-151457070D01*
X161294976Y-151442654D01*
X161312219Y-151429866D01*
X161330632Y-151418830D01*
X161350038Y-151409651D01*
X161370250Y-151402419D01*
X161391074Y-151397203D01*
X161412309Y-151394053D01*
X161433750Y-151393000D01*
X161946250Y-151393000D01*
X161967691Y-151394053D01*
X161967691Y-151394053D01*
G37*
D16*
X161690000Y-151830500D03*
D10*
G36*
X159397691Y-152969053D02*
G01*
X159418926Y-152972203D01*
X159439750Y-152977419D01*
X159459962Y-152984651D01*
X159479368Y-152993830D01*
X159497781Y-153004866D01*
X159515024Y-153017654D01*
X159530930Y-153032070D01*
X159545346Y-153047976D01*
X159558134Y-153065219D01*
X159569170Y-153083632D01*
X159578349Y-153103038D01*
X159585581Y-153123250D01*
X159590797Y-153144074D01*
X159593947Y-153165309D01*
X159595000Y-153186750D01*
X159595000Y-153624250D01*
X159593947Y-153645691D01*
X159590797Y-153666926D01*
X159585581Y-153687750D01*
X159578349Y-153707962D01*
X159569170Y-153727368D01*
X159558134Y-153745781D01*
X159545346Y-153763024D01*
X159530930Y-153778930D01*
X159515024Y-153793346D01*
X159497781Y-153806134D01*
X159479368Y-153817170D01*
X159459962Y-153826349D01*
X159439750Y-153833581D01*
X159418926Y-153838797D01*
X159397691Y-153841947D01*
X159376250Y-153843000D01*
X158863750Y-153843000D01*
X158842309Y-153841947D01*
X158821074Y-153838797D01*
X158800250Y-153833581D01*
X158780038Y-153826349D01*
X158760632Y-153817170D01*
X158742219Y-153806134D01*
X158724976Y-153793346D01*
X158709070Y-153778930D01*
X158694654Y-153763024D01*
X158681866Y-153745781D01*
X158670830Y-153727368D01*
X158661651Y-153707962D01*
X158654419Y-153687750D01*
X158649203Y-153666926D01*
X158646053Y-153645691D01*
X158645000Y-153624250D01*
X158645000Y-153186750D01*
X158646053Y-153165309D01*
X158649203Y-153144074D01*
X158654419Y-153123250D01*
X158661651Y-153103038D01*
X158670830Y-153083632D01*
X158681866Y-153065219D01*
X158694654Y-153047976D01*
X158709070Y-153032070D01*
X158724976Y-153017654D01*
X158742219Y-153004866D01*
X158760632Y-152993830D01*
X158780038Y-152984651D01*
X158800250Y-152977419D01*
X158821074Y-152972203D01*
X158842309Y-152969053D01*
X158863750Y-152968000D01*
X159376250Y-152968000D01*
X159397691Y-152969053D01*
X159397691Y-152969053D01*
G37*
D16*
X159120000Y-153405500D03*
D10*
G36*
X159397691Y-151394053D02*
G01*
X159418926Y-151397203D01*
X159439750Y-151402419D01*
X159459962Y-151409651D01*
X159479368Y-151418830D01*
X159497781Y-151429866D01*
X159515024Y-151442654D01*
X159530930Y-151457070D01*
X159545346Y-151472976D01*
X159558134Y-151490219D01*
X159569170Y-151508632D01*
X159578349Y-151528038D01*
X159585581Y-151548250D01*
X159590797Y-151569074D01*
X159593947Y-151590309D01*
X159595000Y-151611750D01*
X159595000Y-152049250D01*
X159593947Y-152070691D01*
X159590797Y-152091926D01*
X159585581Y-152112750D01*
X159578349Y-152132962D01*
X159569170Y-152152368D01*
X159558134Y-152170781D01*
X159545346Y-152188024D01*
X159530930Y-152203930D01*
X159515024Y-152218346D01*
X159497781Y-152231134D01*
X159479368Y-152242170D01*
X159459962Y-152251349D01*
X159439750Y-152258581D01*
X159418926Y-152263797D01*
X159397691Y-152266947D01*
X159376250Y-152268000D01*
X158863750Y-152268000D01*
X158842309Y-152266947D01*
X158821074Y-152263797D01*
X158800250Y-152258581D01*
X158780038Y-152251349D01*
X158760632Y-152242170D01*
X158742219Y-152231134D01*
X158724976Y-152218346D01*
X158709070Y-152203930D01*
X158694654Y-152188024D01*
X158681866Y-152170781D01*
X158670830Y-152152368D01*
X158661651Y-152132962D01*
X158654419Y-152112750D01*
X158649203Y-152091926D01*
X158646053Y-152070691D01*
X158645000Y-152049250D01*
X158645000Y-151611750D01*
X158646053Y-151590309D01*
X158649203Y-151569074D01*
X158654419Y-151548250D01*
X158661651Y-151528038D01*
X158670830Y-151508632D01*
X158681866Y-151490219D01*
X158694654Y-151472976D01*
X158709070Y-151457070D01*
X158724976Y-151442654D01*
X158742219Y-151429866D01*
X158760632Y-151418830D01*
X158780038Y-151409651D01*
X158800250Y-151402419D01*
X158821074Y-151397203D01*
X158842309Y-151394053D01*
X158863750Y-151393000D01*
X159376250Y-151393000D01*
X159397691Y-151394053D01*
X159397691Y-151394053D01*
G37*
D16*
X159120000Y-151830500D03*
D10*
G36*
X149270142Y-138043174D02*
G01*
X149293803Y-138046684D01*
X149317007Y-138052496D01*
X149339529Y-138060554D01*
X149361153Y-138070782D01*
X149381670Y-138083079D01*
X149400883Y-138097329D01*
X149418607Y-138113393D01*
X149434671Y-138131117D01*
X149448921Y-138150330D01*
X149461218Y-138170847D01*
X149471446Y-138192471D01*
X149479504Y-138214993D01*
X149485316Y-138238197D01*
X149488826Y-138261858D01*
X149490000Y-138285750D01*
X149490000Y-138773250D01*
X149488826Y-138797142D01*
X149485316Y-138820803D01*
X149479504Y-138844007D01*
X149471446Y-138866529D01*
X149461218Y-138888153D01*
X149448921Y-138908670D01*
X149434671Y-138927883D01*
X149418607Y-138945607D01*
X149400883Y-138961671D01*
X149381670Y-138975921D01*
X149361153Y-138988218D01*
X149339529Y-138998446D01*
X149317007Y-139006504D01*
X149293803Y-139012316D01*
X149270142Y-139015826D01*
X149246250Y-139017000D01*
X148333750Y-139017000D01*
X148309858Y-139015826D01*
X148286197Y-139012316D01*
X148262993Y-139006504D01*
X148240471Y-138998446D01*
X148218847Y-138988218D01*
X148198330Y-138975921D01*
X148179117Y-138961671D01*
X148161393Y-138945607D01*
X148145329Y-138927883D01*
X148131079Y-138908670D01*
X148118782Y-138888153D01*
X148108554Y-138866529D01*
X148100496Y-138844007D01*
X148094684Y-138820803D01*
X148091174Y-138797142D01*
X148090000Y-138773250D01*
X148090000Y-138285750D01*
X148091174Y-138261858D01*
X148094684Y-138238197D01*
X148100496Y-138214993D01*
X148108554Y-138192471D01*
X148118782Y-138170847D01*
X148131079Y-138150330D01*
X148145329Y-138131117D01*
X148161393Y-138113393D01*
X148179117Y-138097329D01*
X148198330Y-138083079D01*
X148218847Y-138070782D01*
X148240471Y-138060554D01*
X148262993Y-138052496D01*
X148286197Y-138046684D01*
X148309858Y-138043174D01*
X148333750Y-138042000D01*
X149246250Y-138042000D01*
X149270142Y-138043174D01*
X149270142Y-138043174D01*
G37*
D23*
X148790000Y-138529500D03*
D10*
G36*
X149270142Y-136168174D02*
G01*
X149293803Y-136171684D01*
X149317007Y-136177496D01*
X149339529Y-136185554D01*
X149361153Y-136195782D01*
X149381670Y-136208079D01*
X149400883Y-136222329D01*
X149418607Y-136238393D01*
X149434671Y-136256117D01*
X149448921Y-136275330D01*
X149461218Y-136295847D01*
X149471446Y-136317471D01*
X149479504Y-136339993D01*
X149485316Y-136363197D01*
X149488826Y-136386858D01*
X149490000Y-136410750D01*
X149490000Y-136898250D01*
X149488826Y-136922142D01*
X149485316Y-136945803D01*
X149479504Y-136969007D01*
X149471446Y-136991529D01*
X149461218Y-137013153D01*
X149448921Y-137033670D01*
X149434671Y-137052883D01*
X149418607Y-137070607D01*
X149400883Y-137086671D01*
X149381670Y-137100921D01*
X149361153Y-137113218D01*
X149339529Y-137123446D01*
X149317007Y-137131504D01*
X149293803Y-137137316D01*
X149270142Y-137140826D01*
X149246250Y-137142000D01*
X148333750Y-137142000D01*
X148309858Y-137140826D01*
X148286197Y-137137316D01*
X148262993Y-137131504D01*
X148240471Y-137123446D01*
X148218847Y-137113218D01*
X148198330Y-137100921D01*
X148179117Y-137086671D01*
X148161393Y-137070607D01*
X148145329Y-137052883D01*
X148131079Y-137033670D01*
X148118782Y-137013153D01*
X148108554Y-136991529D01*
X148100496Y-136969007D01*
X148094684Y-136945803D01*
X148091174Y-136922142D01*
X148090000Y-136898250D01*
X148090000Y-136410750D01*
X148091174Y-136386858D01*
X148094684Y-136363197D01*
X148100496Y-136339993D01*
X148108554Y-136317471D01*
X148118782Y-136295847D01*
X148131079Y-136275330D01*
X148145329Y-136256117D01*
X148161393Y-136238393D01*
X148179117Y-136222329D01*
X148198330Y-136208079D01*
X148218847Y-136195782D01*
X148240471Y-136185554D01*
X148262993Y-136177496D01*
X148286197Y-136171684D01*
X148309858Y-136168174D01*
X148333750Y-136167000D01*
X149246250Y-136167000D01*
X149270142Y-136168174D01*
X149270142Y-136168174D01*
G37*
D23*
X148790000Y-136654500D03*
D10*
G36*
X145300691Y-140056053D02*
G01*
X145321926Y-140059203D01*
X145342750Y-140064419D01*
X145362962Y-140071651D01*
X145382368Y-140080830D01*
X145400781Y-140091866D01*
X145418024Y-140104654D01*
X145433930Y-140119070D01*
X145448346Y-140134976D01*
X145461134Y-140152219D01*
X145472170Y-140170632D01*
X145481349Y-140190038D01*
X145488581Y-140210250D01*
X145493797Y-140231074D01*
X145496947Y-140252309D01*
X145498000Y-140273750D01*
X145498000Y-140786250D01*
X145496947Y-140807691D01*
X145493797Y-140828926D01*
X145488581Y-140849750D01*
X145481349Y-140869962D01*
X145472170Y-140889368D01*
X145461134Y-140907781D01*
X145448346Y-140925024D01*
X145433930Y-140940930D01*
X145418024Y-140955346D01*
X145400781Y-140968134D01*
X145382368Y-140979170D01*
X145362962Y-140988349D01*
X145342750Y-140995581D01*
X145321926Y-141000797D01*
X145300691Y-141003947D01*
X145279250Y-141005000D01*
X144841750Y-141005000D01*
X144820309Y-141003947D01*
X144799074Y-141000797D01*
X144778250Y-140995581D01*
X144758038Y-140988349D01*
X144738632Y-140979170D01*
X144720219Y-140968134D01*
X144702976Y-140955346D01*
X144687070Y-140940930D01*
X144672654Y-140925024D01*
X144659866Y-140907781D01*
X144648830Y-140889368D01*
X144639651Y-140869962D01*
X144632419Y-140849750D01*
X144627203Y-140828926D01*
X144624053Y-140807691D01*
X144623000Y-140786250D01*
X144623000Y-140273750D01*
X144624053Y-140252309D01*
X144627203Y-140231074D01*
X144632419Y-140210250D01*
X144639651Y-140190038D01*
X144648830Y-140170632D01*
X144659866Y-140152219D01*
X144672654Y-140134976D01*
X144687070Y-140119070D01*
X144702976Y-140104654D01*
X144720219Y-140091866D01*
X144738632Y-140080830D01*
X144758038Y-140071651D01*
X144778250Y-140064419D01*
X144799074Y-140059203D01*
X144820309Y-140056053D01*
X144841750Y-140055000D01*
X145279250Y-140055000D01*
X145300691Y-140056053D01*
X145300691Y-140056053D01*
G37*
D16*
X145060500Y-140530000D03*
D10*
G36*
X146875691Y-140056053D02*
G01*
X146896926Y-140059203D01*
X146917750Y-140064419D01*
X146937962Y-140071651D01*
X146957368Y-140080830D01*
X146975781Y-140091866D01*
X146993024Y-140104654D01*
X147008930Y-140119070D01*
X147023346Y-140134976D01*
X147036134Y-140152219D01*
X147047170Y-140170632D01*
X147056349Y-140190038D01*
X147063581Y-140210250D01*
X147068797Y-140231074D01*
X147071947Y-140252309D01*
X147073000Y-140273750D01*
X147073000Y-140786250D01*
X147071947Y-140807691D01*
X147068797Y-140828926D01*
X147063581Y-140849750D01*
X147056349Y-140869962D01*
X147047170Y-140889368D01*
X147036134Y-140907781D01*
X147023346Y-140925024D01*
X147008930Y-140940930D01*
X146993024Y-140955346D01*
X146975781Y-140968134D01*
X146957368Y-140979170D01*
X146937962Y-140988349D01*
X146917750Y-140995581D01*
X146896926Y-141000797D01*
X146875691Y-141003947D01*
X146854250Y-141005000D01*
X146416750Y-141005000D01*
X146395309Y-141003947D01*
X146374074Y-141000797D01*
X146353250Y-140995581D01*
X146333038Y-140988349D01*
X146313632Y-140979170D01*
X146295219Y-140968134D01*
X146277976Y-140955346D01*
X146262070Y-140940930D01*
X146247654Y-140925024D01*
X146234866Y-140907781D01*
X146223830Y-140889368D01*
X146214651Y-140869962D01*
X146207419Y-140849750D01*
X146202203Y-140828926D01*
X146199053Y-140807691D01*
X146198000Y-140786250D01*
X146198000Y-140273750D01*
X146199053Y-140252309D01*
X146202203Y-140231074D01*
X146207419Y-140210250D01*
X146214651Y-140190038D01*
X146223830Y-140170632D01*
X146234866Y-140152219D01*
X146247654Y-140134976D01*
X146262070Y-140119070D01*
X146277976Y-140104654D01*
X146295219Y-140091866D01*
X146313632Y-140080830D01*
X146333038Y-140071651D01*
X146353250Y-140064419D01*
X146374074Y-140059203D01*
X146395309Y-140056053D01*
X146416750Y-140055000D01*
X146854250Y-140055000D01*
X146875691Y-140056053D01*
X146875691Y-140056053D01*
G37*
D16*
X146635500Y-140530000D03*
D10*
G36*
X171067691Y-152821053D02*
G01*
X171088926Y-152824203D01*
X171109750Y-152829419D01*
X171129962Y-152836651D01*
X171149368Y-152845830D01*
X171167781Y-152856866D01*
X171185024Y-152869654D01*
X171200930Y-152884070D01*
X171215346Y-152899976D01*
X171228134Y-152917219D01*
X171239170Y-152935632D01*
X171248349Y-152955038D01*
X171255581Y-152975250D01*
X171260797Y-152996074D01*
X171263947Y-153017309D01*
X171265000Y-153038750D01*
X171265000Y-153476250D01*
X171263947Y-153497691D01*
X171260797Y-153518926D01*
X171255581Y-153539750D01*
X171248349Y-153559962D01*
X171239170Y-153579368D01*
X171228134Y-153597781D01*
X171215346Y-153615024D01*
X171200930Y-153630930D01*
X171185024Y-153645346D01*
X171167781Y-153658134D01*
X171149368Y-153669170D01*
X171129962Y-153678349D01*
X171109750Y-153685581D01*
X171088926Y-153690797D01*
X171067691Y-153693947D01*
X171046250Y-153695000D01*
X170533750Y-153695000D01*
X170512309Y-153693947D01*
X170491074Y-153690797D01*
X170470250Y-153685581D01*
X170450038Y-153678349D01*
X170430632Y-153669170D01*
X170412219Y-153658134D01*
X170394976Y-153645346D01*
X170379070Y-153630930D01*
X170364654Y-153615024D01*
X170351866Y-153597781D01*
X170340830Y-153579368D01*
X170331651Y-153559962D01*
X170324419Y-153539750D01*
X170319203Y-153518926D01*
X170316053Y-153497691D01*
X170315000Y-153476250D01*
X170315000Y-153038750D01*
X170316053Y-153017309D01*
X170319203Y-152996074D01*
X170324419Y-152975250D01*
X170331651Y-152955038D01*
X170340830Y-152935632D01*
X170351866Y-152917219D01*
X170364654Y-152899976D01*
X170379070Y-152884070D01*
X170394976Y-152869654D01*
X170412219Y-152856866D01*
X170430632Y-152845830D01*
X170450038Y-152836651D01*
X170470250Y-152829419D01*
X170491074Y-152824203D01*
X170512309Y-152821053D01*
X170533750Y-152820000D01*
X171046250Y-152820000D01*
X171067691Y-152821053D01*
X171067691Y-152821053D01*
G37*
D16*
X170790000Y-153257500D03*
D10*
G36*
X171067691Y-151246053D02*
G01*
X171088926Y-151249203D01*
X171109750Y-151254419D01*
X171129962Y-151261651D01*
X171149368Y-151270830D01*
X171167781Y-151281866D01*
X171185024Y-151294654D01*
X171200930Y-151309070D01*
X171215346Y-151324976D01*
X171228134Y-151342219D01*
X171239170Y-151360632D01*
X171248349Y-151380038D01*
X171255581Y-151400250D01*
X171260797Y-151421074D01*
X171263947Y-151442309D01*
X171265000Y-151463750D01*
X171265000Y-151901250D01*
X171263947Y-151922691D01*
X171260797Y-151943926D01*
X171255581Y-151964750D01*
X171248349Y-151984962D01*
X171239170Y-152004368D01*
X171228134Y-152022781D01*
X171215346Y-152040024D01*
X171200930Y-152055930D01*
X171185024Y-152070346D01*
X171167781Y-152083134D01*
X171149368Y-152094170D01*
X171129962Y-152103349D01*
X171109750Y-152110581D01*
X171088926Y-152115797D01*
X171067691Y-152118947D01*
X171046250Y-152120000D01*
X170533750Y-152120000D01*
X170512309Y-152118947D01*
X170491074Y-152115797D01*
X170470250Y-152110581D01*
X170450038Y-152103349D01*
X170430632Y-152094170D01*
X170412219Y-152083134D01*
X170394976Y-152070346D01*
X170379070Y-152055930D01*
X170364654Y-152040024D01*
X170351866Y-152022781D01*
X170340830Y-152004368D01*
X170331651Y-151984962D01*
X170324419Y-151964750D01*
X170319203Y-151943926D01*
X170316053Y-151922691D01*
X170315000Y-151901250D01*
X170315000Y-151463750D01*
X170316053Y-151442309D01*
X170319203Y-151421074D01*
X170324419Y-151400250D01*
X170331651Y-151380038D01*
X170340830Y-151360632D01*
X170351866Y-151342219D01*
X170364654Y-151324976D01*
X170379070Y-151309070D01*
X170394976Y-151294654D01*
X170412219Y-151281866D01*
X170430632Y-151270830D01*
X170450038Y-151261651D01*
X170470250Y-151254419D01*
X170491074Y-151249203D01*
X170512309Y-151246053D01*
X170533750Y-151245000D01*
X171046250Y-151245000D01*
X171067691Y-151246053D01*
X171067691Y-151246053D01*
G37*
D16*
X170790000Y-151682500D03*
D10*
G36*
X164817691Y-151346053D02*
G01*
X164838926Y-151349203D01*
X164859750Y-151354419D01*
X164879962Y-151361651D01*
X164899368Y-151370830D01*
X164917781Y-151381866D01*
X164935024Y-151394654D01*
X164950930Y-151409070D01*
X164965346Y-151424976D01*
X164978134Y-151442219D01*
X164989170Y-151460632D01*
X164998349Y-151480038D01*
X165005581Y-151500250D01*
X165010797Y-151521074D01*
X165013947Y-151542309D01*
X165015000Y-151563750D01*
X165015000Y-152001250D01*
X165013947Y-152022691D01*
X165010797Y-152043926D01*
X165005581Y-152064750D01*
X164998349Y-152084962D01*
X164989170Y-152104368D01*
X164978134Y-152122781D01*
X164965346Y-152140024D01*
X164950930Y-152155930D01*
X164935024Y-152170346D01*
X164917781Y-152183134D01*
X164899368Y-152194170D01*
X164879962Y-152203349D01*
X164859750Y-152210581D01*
X164838926Y-152215797D01*
X164817691Y-152218947D01*
X164796250Y-152220000D01*
X164283750Y-152220000D01*
X164262309Y-152218947D01*
X164241074Y-152215797D01*
X164220250Y-152210581D01*
X164200038Y-152203349D01*
X164180632Y-152194170D01*
X164162219Y-152183134D01*
X164144976Y-152170346D01*
X164129070Y-152155930D01*
X164114654Y-152140024D01*
X164101866Y-152122781D01*
X164090830Y-152104368D01*
X164081651Y-152084962D01*
X164074419Y-152064750D01*
X164069203Y-152043926D01*
X164066053Y-152022691D01*
X164065000Y-152001250D01*
X164065000Y-151563750D01*
X164066053Y-151542309D01*
X164069203Y-151521074D01*
X164074419Y-151500250D01*
X164081651Y-151480038D01*
X164090830Y-151460632D01*
X164101866Y-151442219D01*
X164114654Y-151424976D01*
X164129070Y-151409070D01*
X164144976Y-151394654D01*
X164162219Y-151381866D01*
X164180632Y-151370830D01*
X164200038Y-151361651D01*
X164220250Y-151354419D01*
X164241074Y-151349203D01*
X164262309Y-151346053D01*
X164283750Y-151345000D01*
X164796250Y-151345000D01*
X164817691Y-151346053D01*
X164817691Y-151346053D01*
G37*
D16*
X164540000Y-151782500D03*
D10*
G36*
X164817691Y-152921053D02*
G01*
X164838926Y-152924203D01*
X164859750Y-152929419D01*
X164879962Y-152936651D01*
X164899368Y-152945830D01*
X164917781Y-152956866D01*
X164935024Y-152969654D01*
X164950930Y-152984070D01*
X164965346Y-152999976D01*
X164978134Y-153017219D01*
X164989170Y-153035632D01*
X164998349Y-153055038D01*
X165005581Y-153075250D01*
X165010797Y-153096074D01*
X165013947Y-153117309D01*
X165015000Y-153138750D01*
X165015000Y-153576250D01*
X165013947Y-153597691D01*
X165010797Y-153618926D01*
X165005581Y-153639750D01*
X164998349Y-153659962D01*
X164989170Y-153679368D01*
X164978134Y-153697781D01*
X164965346Y-153715024D01*
X164950930Y-153730930D01*
X164935024Y-153745346D01*
X164917781Y-153758134D01*
X164899368Y-153769170D01*
X164879962Y-153778349D01*
X164859750Y-153785581D01*
X164838926Y-153790797D01*
X164817691Y-153793947D01*
X164796250Y-153795000D01*
X164283750Y-153795000D01*
X164262309Y-153793947D01*
X164241074Y-153790797D01*
X164220250Y-153785581D01*
X164200038Y-153778349D01*
X164180632Y-153769170D01*
X164162219Y-153758134D01*
X164144976Y-153745346D01*
X164129070Y-153730930D01*
X164114654Y-153715024D01*
X164101866Y-153697781D01*
X164090830Y-153679368D01*
X164081651Y-153659962D01*
X164074419Y-153639750D01*
X164069203Y-153618926D01*
X164066053Y-153597691D01*
X164065000Y-153576250D01*
X164065000Y-153138750D01*
X164066053Y-153117309D01*
X164069203Y-153096074D01*
X164074419Y-153075250D01*
X164081651Y-153055038D01*
X164090830Y-153035632D01*
X164101866Y-153017219D01*
X164114654Y-152999976D01*
X164129070Y-152984070D01*
X164144976Y-152969654D01*
X164162219Y-152956866D01*
X164180632Y-152945830D01*
X164200038Y-152936651D01*
X164220250Y-152929419D01*
X164241074Y-152924203D01*
X164262309Y-152921053D01*
X164283750Y-152920000D01*
X164796250Y-152920000D01*
X164817691Y-152921053D01*
X164817691Y-152921053D01*
G37*
D16*
X164540000Y-153357500D03*
D10*
G36*
X142540142Y-138043174D02*
G01*
X142563803Y-138046684D01*
X142587007Y-138052496D01*
X142609529Y-138060554D01*
X142631153Y-138070782D01*
X142651670Y-138083079D01*
X142670883Y-138097329D01*
X142688607Y-138113393D01*
X142704671Y-138131117D01*
X142718921Y-138150330D01*
X142731218Y-138170847D01*
X142741446Y-138192471D01*
X142749504Y-138214993D01*
X142755316Y-138238197D01*
X142758826Y-138261858D01*
X142760000Y-138285750D01*
X142760000Y-138773250D01*
X142758826Y-138797142D01*
X142755316Y-138820803D01*
X142749504Y-138844007D01*
X142741446Y-138866529D01*
X142731218Y-138888153D01*
X142718921Y-138908670D01*
X142704671Y-138927883D01*
X142688607Y-138945607D01*
X142670883Y-138961671D01*
X142651670Y-138975921D01*
X142631153Y-138988218D01*
X142609529Y-138998446D01*
X142587007Y-139006504D01*
X142563803Y-139012316D01*
X142540142Y-139015826D01*
X142516250Y-139017000D01*
X141603750Y-139017000D01*
X141579858Y-139015826D01*
X141556197Y-139012316D01*
X141532993Y-139006504D01*
X141510471Y-138998446D01*
X141488847Y-138988218D01*
X141468330Y-138975921D01*
X141449117Y-138961671D01*
X141431393Y-138945607D01*
X141415329Y-138927883D01*
X141401079Y-138908670D01*
X141388782Y-138888153D01*
X141378554Y-138866529D01*
X141370496Y-138844007D01*
X141364684Y-138820803D01*
X141361174Y-138797142D01*
X141360000Y-138773250D01*
X141360000Y-138285750D01*
X141361174Y-138261858D01*
X141364684Y-138238197D01*
X141370496Y-138214993D01*
X141378554Y-138192471D01*
X141388782Y-138170847D01*
X141401079Y-138150330D01*
X141415329Y-138131117D01*
X141431393Y-138113393D01*
X141449117Y-138097329D01*
X141468330Y-138083079D01*
X141488847Y-138070782D01*
X141510471Y-138060554D01*
X141532993Y-138052496D01*
X141556197Y-138046684D01*
X141579858Y-138043174D01*
X141603750Y-138042000D01*
X142516250Y-138042000D01*
X142540142Y-138043174D01*
X142540142Y-138043174D01*
G37*
D23*
X142060000Y-138529500D03*
D10*
G36*
X142540142Y-136168174D02*
G01*
X142563803Y-136171684D01*
X142587007Y-136177496D01*
X142609529Y-136185554D01*
X142631153Y-136195782D01*
X142651670Y-136208079D01*
X142670883Y-136222329D01*
X142688607Y-136238393D01*
X142704671Y-136256117D01*
X142718921Y-136275330D01*
X142731218Y-136295847D01*
X142741446Y-136317471D01*
X142749504Y-136339993D01*
X142755316Y-136363197D01*
X142758826Y-136386858D01*
X142760000Y-136410750D01*
X142760000Y-136898250D01*
X142758826Y-136922142D01*
X142755316Y-136945803D01*
X142749504Y-136969007D01*
X142741446Y-136991529D01*
X142731218Y-137013153D01*
X142718921Y-137033670D01*
X142704671Y-137052883D01*
X142688607Y-137070607D01*
X142670883Y-137086671D01*
X142651670Y-137100921D01*
X142631153Y-137113218D01*
X142609529Y-137123446D01*
X142587007Y-137131504D01*
X142563803Y-137137316D01*
X142540142Y-137140826D01*
X142516250Y-137142000D01*
X141603750Y-137142000D01*
X141579858Y-137140826D01*
X141556197Y-137137316D01*
X141532993Y-137131504D01*
X141510471Y-137123446D01*
X141488847Y-137113218D01*
X141468330Y-137100921D01*
X141449117Y-137086671D01*
X141431393Y-137070607D01*
X141415329Y-137052883D01*
X141401079Y-137033670D01*
X141388782Y-137013153D01*
X141378554Y-136991529D01*
X141370496Y-136969007D01*
X141364684Y-136945803D01*
X141361174Y-136922142D01*
X141360000Y-136898250D01*
X141360000Y-136410750D01*
X141361174Y-136386858D01*
X141364684Y-136363197D01*
X141370496Y-136339993D01*
X141378554Y-136317471D01*
X141388782Y-136295847D01*
X141401079Y-136275330D01*
X141415329Y-136256117D01*
X141431393Y-136238393D01*
X141449117Y-136222329D01*
X141468330Y-136208079D01*
X141488847Y-136195782D01*
X141510471Y-136185554D01*
X141532993Y-136177496D01*
X141556197Y-136171684D01*
X141579858Y-136168174D01*
X141603750Y-136167000D01*
X142516250Y-136167000D01*
X142540142Y-136168174D01*
X142540142Y-136168174D01*
G37*
D23*
X142060000Y-136654500D03*
D10*
G36*
X151440691Y-149696053D02*
G01*
X151461926Y-149699203D01*
X151482750Y-149704419D01*
X151502962Y-149711651D01*
X151522368Y-149720830D01*
X151540781Y-149731866D01*
X151558024Y-149744654D01*
X151573930Y-149759070D01*
X151588346Y-149774976D01*
X151601134Y-149792219D01*
X151612170Y-149810632D01*
X151621349Y-149830038D01*
X151628581Y-149850250D01*
X151633797Y-149871074D01*
X151636947Y-149892309D01*
X151638000Y-149913750D01*
X151638000Y-150426250D01*
X151636947Y-150447691D01*
X151633797Y-150468926D01*
X151628581Y-150489750D01*
X151621349Y-150509962D01*
X151612170Y-150529368D01*
X151601134Y-150547781D01*
X151588346Y-150565024D01*
X151573930Y-150580930D01*
X151558024Y-150595346D01*
X151540781Y-150608134D01*
X151522368Y-150619170D01*
X151502962Y-150628349D01*
X151482750Y-150635581D01*
X151461926Y-150640797D01*
X151440691Y-150643947D01*
X151419250Y-150645000D01*
X150981750Y-150645000D01*
X150960309Y-150643947D01*
X150939074Y-150640797D01*
X150918250Y-150635581D01*
X150898038Y-150628349D01*
X150878632Y-150619170D01*
X150860219Y-150608134D01*
X150842976Y-150595346D01*
X150827070Y-150580930D01*
X150812654Y-150565024D01*
X150799866Y-150547781D01*
X150788830Y-150529368D01*
X150779651Y-150509962D01*
X150772419Y-150489750D01*
X150767203Y-150468926D01*
X150764053Y-150447691D01*
X150763000Y-150426250D01*
X150763000Y-149913750D01*
X150764053Y-149892309D01*
X150767203Y-149871074D01*
X150772419Y-149850250D01*
X150779651Y-149830038D01*
X150788830Y-149810632D01*
X150799866Y-149792219D01*
X150812654Y-149774976D01*
X150827070Y-149759070D01*
X150842976Y-149744654D01*
X150860219Y-149731866D01*
X150878632Y-149720830D01*
X150898038Y-149711651D01*
X150918250Y-149704419D01*
X150939074Y-149699203D01*
X150960309Y-149696053D01*
X150981750Y-149695000D01*
X151419250Y-149695000D01*
X151440691Y-149696053D01*
X151440691Y-149696053D01*
G37*
D16*
X151200500Y-150170000D03*
D10*
G36*
X153015691Y-149696053D02*
G01*
X153036926Y-149699203D01*
X153057750Y-149704419D01*
X153077962Y-149711651D01*
X153097368Y-149720830D01*
X153115781Y-149731866D01*
X153133024Y-149744654D01*
X153148930Y-149759070D01*
X153163346Y-149774976D01*
X153176134Y-149792219D01*
X153187170Y-149810632D01*
X153196349Y-149830038D01*
X153203581Y-149850250D01*
X153208797Y-149871074D01*
X153211947Y-149892309D01*
X153213000Y-149913750D01*
X153213000Y-150426250D01*
X153211947Y-150447691D01*
X153208797Y-150468926D01*
X153203581Y-150489750D01*
X153196349Y-150509962D01*
X153187170Y-150529368D01*
X153176134Y-150547781D01*
X153163346Y-150565024D01*
X153148930Y-150580930D01*
X153133024Y-150595346D01*
X153115781Y-150608134D01*
X153097368Y-150619170D01*
X153077962Y-150628349D01*
X153057750Y-150635581D01*
X153036926Y-150640797D01*
X153015691Y-150643947D01*
X152994250Y-150645000D01*
X152556750Y-150645000D01*
X152535309Y-150643947D01*
X152514074Y-150640797D01*
X152493250Y-150635581D01*
X152473038Y-150628349D01*
X152453632Y-150619170D01*
X152435219Y-150608134D01*
X152417976Y-150595346D01*
X152402070Y-150580930D01*
X152387654Y-150565024D01*
X152374866Y-150547781D01*
X152363830Y-150529368D01*
X152354651Y-150509962D01*
X152347419Y-150489750D01*
X152342203Y-150468926D01*
X152339053Y-150447691D01*
X152338000Y-150426250D01*
X152338000Y-149913750D01*
X152339053Y-149892309D01*
X152342203Y-149871074D01*
X152347419Y-149850250D01*
X152354651Y-149830038D01*
X152363830Y-149810632D01*
X152374866Y-149792219D01*
X152387654Y-149774976D01*
X152402070Y-149759070D01*
X152417976Y-149744654D01*
X152435219Y-149731866D01*
X152453632Y-149720830D01*
X152473038Y-149711651D01*
X152493250Y-149704419D01*
X152514074Y-149699203D01*
X152535309Y-149696053D01*
X152556750Y-149695000D01*
X152994250Y-149695000D01*
X153015691Y-149696053D01*
X153015691Y-149696053D01*
G37*
D16*
X152775500Y-150170000D03*
M02*
