G04 #@! TF.GenerationSoftware,KiCad,Pcbnew,(5.1.2)-1*
G04 #@! TF.CreationDate,2022-02-25T21:01:52+09:00*
G04 #@! TF.ProjectId,wcc,7763632e-6b69-4636-9164-5f7063625858,v2.2*
G04 #@! TF.SameCoordinates,Original*
G04 #@! TF.FileFunction,Copper,L2,Bot*
G04 #@! TF.FilePolarity,Positive*
%FSLAX46Y46*%
G04 Gerber Fmt 4.6, Leading zero omitted, Abs format (unit mm)*
G04 Created by KiCad (PCBNEW (5.1.2)-1) date 2022-02-25 21:01:52*
%MOMM*%
%LPD*%
G04 APERTURE LIST*
%ADD10C,0.100000*%
%ADD11C,0.975000*%
%ADD12R,0.650000X0.400000*%
%ADD13C,0.875000*%
%ADD14R,0.500000X0.900000*%
%ADD15O,1.700000X1.700000*%
%ADD16R,1.700000X1.700000*%
%ADD17O,1.550000X1.550000*%
%ADD18O,1.250000X1.250000*%
%ADD19R,1.300000X1.900000*%
%ADD20R,1.000000X2.800000*%
%ADD21R,1.000000X0.800000*%
%ADD22R,1.000000X1.200000*%
%ADD23R,0.700000X1.200000*%
%ADD24R,0.800000X0.900000*%
%ADD25R,4.000000X4.000000*%
%ADD26C,2.400000*%
%ADD27C,3.000000*%
%ADD28C,1.524000*%
%ADD29C,0.800000*%
%ADD30C,0.200000*%
%ADD31C,0.400000*%
%ADD32C,0.350000*%
%ADD33C,0.300000*%
%ADD34C,0.254000*%
G04 APERTURE END LIST*
D10*
G36*
X178680142Y-140806174D02*
G01*
X178703803Y-140809684D01*
X178727007Y-140815496D01*
X178749529Y-140823554D01*
X178771153Y-140833782D01*
X178791670Y-140846079D01*
X178810883Y-140860329D01*
X178828607Y-140876393D01*
X178844671Y-140894117D01*
X178858921Y-140913330D01*
X178871218Y-140933847D01*
X178881446Y-140955471D01*
X178889504Y-140977993D01*
X178895316Y-141001197D01*
X178898826Y-141024858D01*
X178900000Y-141048750D01*
X178900000Y-141536250D01*
X178898826Y-141560142D01*
X178895316Y-141583803D01*
X178889504Y-141607007D01*
X178881446Y-141629529D01*
X178871218Y-141651153D01*
X178858921Y-141671670D01*
X178844671Y-141690883D01*
X178828607Y-141708607D01*
X178810883Y-141724671D01*
X178791670Y-141738921D01*
X178771153Y-141751218D01*
X178749529Y-141761446D01*
X178727007Y-141769504D01*
X178703803Y-141775316D01*
X178680142Y-141778826D01*
X178656250Y-141780000D01*
X177743750Y-141780000D01*
X177719858Y-141778826D01*
X177696197Y-141775316D01*
X177672993Y-141769504D01*
X177650471Y-141761446D01*
X177628847Y-141751218D01*
X177608330Y-141738921D01*
X177589117Y-141724671D01*
X177571393Y-141708607D01*
X177555329Y-141690883D01*
X177541079Y-141671670D01*
X177528782Y-141651153D01*
X177518554Y-141629529D01*
X177510496Y-141607007D01*
X177504684Y-141583803D01*
X177501174Y-141560142D01*
X177500000Y-141536250D01*
X177500000Y-141048750D01*
X177501174Y-141024858D01*
X177504684Y-141001197D01*
X177510496Y-140977993D01*
X177518554Y-140955471D01*
X177528782Y-140933847D01*
X177541079Y-140913330D01*
X177555329Y-140894117D01*
X177571393Y-140876393D01*
X177589117Y-140860329D01*
X177608330Y-140846079D01*
X177628847Y-140833782D01*
X177650471Y-140823554D01*
X177672993Y-140815496D01*
X177696197Y-140809684D01*
X177719858Y-140806174D01*
X177743750Y-140805000D01*
X178656250Y-140805000D01*
X178680142Y-140806174D01*
X178680142Y-140806174D01*
G37*
D11*
X178200000Y-141292500D03*
D10*
G36*
X178680142Y-142681174D02*
G01*
X178703803Y-142684684D01*
X178727007Y-142690496D01*
X178749529Y-142698554D01*
X178771153Y-142708782D01*
X178791670Y-142721079D01*
X178810883Y-142735329D01*
X178828607Y-142751393D01*
X178844671Y-142769117D01*
X178858921Y-142788330D01*
X178871218Y-142808847D01*
X178881446Y-142830471D01*
X178889504Y-142852993D01*
X178895316Y-142876197D01*
X178898826Y-142899858D01*
X178900000Y-142923750D01*
X178900000Y-143411250D01*
X178898826Y-143435142D01*
X178895316Y-143458803D01*
X178889504Y-143482007D01*
X178881446Y-143504529D01*
X178871218Y-143526153D01*
X178858921Y-143546670D01*
X178844671Y-143565883D01*
X178828607Y-143583607D01*
X178810883Y-143599671D01*
X178791670Y-143613921D01*
X178771153Y-143626218D01*
X178749529Y-143636446D01*
X178727007Y-143644504D01*
X178703803Y-143650316D01*
X178680142Y-143653826D01*
X178656250Y-143655000D01*
X177743750Y-143655000D01*
X177719858Y-143653826D01*
X177696197Y-143650316D01*
X177672993Y-143644504D01*
X177650471Y-143636446D01*
X177628847Y-143626218D01*
X177608330Y-143613921D01*
X177589117Y-143599671D01*
X177571393Y-143583607D01*
X177555329Y-143565883D01*
X177541079Y-143546670D01*
X177528782Y-143526153D01*
X177518554Y-143504529D01*
X177510496Y-143482007D01*
X177504684Y-143458803D01*
X177501174Y-143435142D01*
X177500000Y-143411250D01*
X177500000Y-142923750D01*
X177501174Y-142899858D01*
X177504684Y-142876197D01*
X177510496Y-142852993D01*
X177518554Y-142830471D01*
X177528782Y-142808847D01*
X177541079Y-142788330D01*
X177555329Y-142769117D01*
X177571393Y-142751393D01*
X177589117Y-142735329D01*
X177608330Y-142721079D01*
X177628847Y-142708782D01*
X177650471Y-142698554D01*
X177672993Y-142690496D01*
X177696197Y-142684684D01*
X177719858Y-142681174D01*
X177743750Y-142680000D01*
X178656250Y-142680000D01*
X178680142Y-142681174D01*
X178680142Y-142681174D01*
G37*
D11*
X178200000Y-143167500D03*
D12*
X173300000Y-145270000D03*
X173300000Y-146570000D03*
X175200000Y-145920000D03*
X173300000Y-145920000D03*
X175200000Y-146570000D03*
X175200000Y-145270000D03*
D10*
G36*
X175155691Y-143026053D02*
G01*
X175176926Y-143029203D01*
X175197750Y-143034419D01*
X175217962Y-143041651D01*
X175237368Y-143050830D01*
X175255781Y-143061866D01*
X175273024Y-143074654D01*
X175288930Y-143089070D01*
X175303346Y-143104976D01*
X175316134Y-143122219D01*
X175327170Y-143140632D01*
X175336349Y-143160038D01*
X175343581Y-143180250D01*
X175348797Y-143201074D01*
X175351947Y-143222309D01*
X175353000Y-143243750D01*
X175353000Y-143756250D01*
X175351947Y-143777691D01*
X175348797Y-143798926D01*
X175343581Y-143819750D01*
X175336349Y-143839962D01*
X175327170Y-143859368D01*
X175316134Y-143877781D01*
X175303346Y-143895024D01*
X175288930Y-143910930D01*
X175273024Y-143925346D01*
X175255781Y-143938134D01*
X175237368Y-143949170D01*
X175217962Y-143958349D01*
X175197750Y-143965581D01*
X175176926Y-143970797D01*
X175155691Y-143973947D01*
X175134250Y-143975000D01*
X174696750Y-143975000D01*
X174675309Y-143973947D01*
X174654074Y-143970797D01*
X174633250Y-143965581D01*
X174613038Y-143958349D01*
X174593632Y-143949170D01*
X174575219Y-143938134D01*
X174557976Y-143925346D01*
X174542070Y-143910930D01*
X174527654Y-143895024D01*
X174514866Y-143877781D01*
X174503830Y-143859368D01*
X174494651Y-143839962D01*
X174487419Y-143819750D01*
X174482203Y-143798926D01*
X174479053Y-143777691D01*
X174478000Y-143756250D01*
X174478000Y-143243750D01*
X174479053Y-143222309D01*
X174482203Y-143201074D01*
X174487419Y-143180250D01*
X174494651Y-143160038D01*
X174503830Y-143140632D01*
X174514866Y-143122219D01*
X174527654Y-143104976D01*
X174542070Y-143089070D01*
X174557976Y-143074654D01*
X174575219Y-143061866D01*
X174593632Y-143050830D01*
X174613038Y-143041651D01*
X174633250Y-143034419D01*
X174654074Y-143029203D01*
X174675309Y-143026053D01*
X174696750Y-143025000D01*
X175134250Y-143025000D01*
X175155691Y-143026053D01*
X175155691Y-143026053D01*
G37*
D13*
X174915500Y-143500000D03*
D10*
G36*
X173580691Y-143026053D02*
G01*
X173601926Y-143029203D01*
X173622750Y-143034419D01*
X173642962Y-143041651D01*
X173662368Y-143050830D01*
X173680781Y-143061866D01*
X173698024Y-143074654D01*
X173713930Y-143089070D01*
X173728346Y-143104976D01*
X173741134Y-143122219D01*
X173752170Y-143140632D01*
X173761349Y-143160038D01*
X173768581Y-143180250D01*
X173773797Y-143201074D01*
X173776947Y-143222309D01*
X173778000Y-143243750D01*
X173778000Y-143756250D01*
X173776947Y-143777691D01*
X173773797Y-143798926D01*
X173768581Y-143819750D01*
X173761349Y-143839962D01*
X173752170Y-143859368D01*
X173741134Y-143877781D01*
X173728346Y-143895024D01*
X173713930Y-143910930D01*
X173698024Y-143925346D01*
X173680781Y-143938134D01*
X173662368Y-143949170D01*
X173642962Y-143958349D01*
X173622750Y-143965581D01*
X173601926Y-143970797D01*
X173580691Y-143973947D01*
X173559250Y-143975000D01*
X173121750Y-143975000D01*
X173100309Y-143973947D01*
X173079074Y-143970797D01*
X173058250Y-143965581D01*
X173038038Y-143958349D01*
X173018632Y-143949170D01*
X173000219Y-143938134D01*
X172982976Y-143925346D01*
X172967070Y-143910930D01*
X172952654Y-143895024D01*
X172939866Y-143877781D01*
X172928830Y-143859368D01*
X172919651Y-143839962D01*
X172912419Y-143819750D01*
X172907203Y-143798926D01*
X172904053Y-143777691D01*
X172903000Y-143756250D01*
X172903000Y-143243750D01*
X172904053Y-143222309D01*
X172907203Y-143201074D01*
X172912419Y-143180250D01*
X172919651Y-143160038D01*
X172928830Y-143140632D01*
X172939866Y-143122219D01*
X172952654Y-143104976D01*
X172967070Y-143089070D01*
X172982976Y-143074654D01*
X173000219Y-143061866D01*
X173018632Y-143050830D01*
X173038038Y-143041651D01*
X173058250Y-143034419D01*
X173079074Y-143029203D01*
X173100309Y-143026053D01*
X173121750Y-143025000D01*
X173559250Y-143025000D01*
X173580691Y-143026053D01*
X173580691Y-143026053D01*
G37*
D13*
X173340500Y-143500000D03*
D10*
G36*
X178665691Y-144476053D02*
G01*
X178686926Y-144479203D01*
X178707750Y-144484419D01*
X178727962Y-144491651D01*
X178747368Y-144500830D01*
X178765781Y-144511866D01*
X178783024Y-144524654D01*
X178798930Y-144539070D01*
X178813346Y-144554976D01*
X178826134Y-144572219D01*
X178837170Y-144590632D01*
X178846349Y-144610038D01*
X178853581Y-144630250D01*
X178858797Y-144651074D01*
X178861947Y-144672309D01*
X178863000Y-144693750D01*
X178863000Y-145206250D01*
X178861947Y-145227691D01*
X178858797Y-145248926D01*
X178853581Y-145269750D01*
X178846349Y-145289962D01*
X178837170Y-145309368D01*
X178826134Y-145327781D01*
X178813346Y-145345024D01*
X178798930Y-145360930D01*
X178783024Y-145375346D01*
X178765781Y-145388134D01*
X178747368Y-145399170D01*
X178727962Y-145408349D01*
X178707750Y-145415581D01*
X178686926Y-145420797D01*
X178665691Y-145423947D01*
X178644250Y-145425000D01*
X178206750Y-145425000D01*
X178185309Y-145423947D01*
X178164074Y-145420797D01*
X178143250Y-145415581D01*
X178123038Y-145408349D01*
X178103632Y-145399170D01*
X178085219Y-145388134D01*
X178067976Y-145375346D01*
X178052070Y-145360930D01*
X178037654Y-145345024D01*
X178024866Y-145327781D01*
X178013830Y-145309368D01*
X178004651Y-145289962D01*
X177997419Y-145269750D01*
X177992203Y-145248926D01*
X177989053Y-145227691D01*
X177988000Y-145206250D01*
X177988000Y-144693750D01*
X177989053Y-144672309D01*
X177992203Y-144651074D01*
X177997419Y-144630250D01*
X178004651Y-144610038D01*
X178013830Y-144590632D01*
X178024866Y-144572219D01*
X178037654Y-144554976D01*
X178052070Y-144539070D01*
X178067976Y-144524654D01*
X178085219Y-144511866D01*
X178103632Y-144500830D01*
X178123038Y-144491651D01*
X178143250Y-144484419D01*
X178164074Y-144479203D01*
X178185309Y-144476053D01*
X178206750Y-144475000D01*
X178644250Y-144475000D01*
X178665691Y-144476053D01*
X178665691Y-144476053D01*
G37*
D13*
X178425500Y-144950000D03*
D10*
G36*
X177090691Y-144476053D02*
G01*
X177111926Y-144479203D01*
X177132750Y-144484419D01*
X177152962Y-144491651D01*
X177172368Y-144500830D01*
X177190781Y-144511866D01*
X177208024Y-144524654D01*
X177223930Y-144539070D01*
X177238346Y-144554976D01*
X177251134Y-144572219D01*
X177262170Y-144590632D01*
X177271349Y-144610038D01*
X177278581Y-144630250D01*
X177283797Y-144651074D01*
X177286947Y-144672309D01*
X177288000Y-144693750D01*
X177288000Y-145206250D01*
X177286947Y-145227691D01*
X177283797Y-145248926D01*
X177278581Y-145269750D01*
X177271349Y-145289962D01*
X177262170Y-145309368D01*
X177251134Y-145327781D01*
X177238346Y-145345024D01*
X177223930Y-145360930D01*
X177208024Y-145375346D01*
X177190781Y-145388134D01*
X177172368Y-145399170D01*
X177152962Y-145408349D01*
X177132750Y-145415581D01*
X177111926Y-145420797D01*
X177090691Y-145423947D01*
X177069250Y-145425000D01*
X176631750Y-145425000D01*
X176610309Y-145423947D01*
X176589074Y-145420797D01*
X176568250Y-145415581D01*
X176548038Y-145408349D01*
X176528632Y-145399170D01*
X176510219Y-145388134D01*
X176492976Y-145375346D01*
X176477070Y-145360930D01*
X176462654Y-145345024D01*
X176449866Y-145327781D01*
X176438830Y-145309368D01*
X176429651Y-145289962D01*
X176422419Y-145269750D01*
X176417203Y-145248926D01*
X176414053Y-145227691D01*
X176413000Y-145206250D01*
X176413000Y-144693750D01*
X176414053Y-144672309D01*
X176417203Y-144651074D01*
X176422419Y-144630250D01*
X176429651Y-144610038D01*
X176438830Y-144590632D01*
X176449866Y-144572219D01*
X176462654Y-144554976D01*
X176477070Y-144539070D01*
X176492976Y-144524654D01*
X176510219Y-144511866D01*
X176528632Y-144500830D01*
X176548038Y-144491651D01*
X176568250Y-144484419D01*
X176589074Y-144479203D01*
X176610309Y-144476053D01*
X176631750Y-144475000D01*
X177069250Y-144475000D01*
X177090691Y-144476053D01*
X177090691Y-144476053D01*
G37*
D13*
X176850500Y-144950000D03*
D14*
X145460000Y-147590000D03*
X146360000Y-147590000D03*
X147260000Y-147590000D03*
X148160000Y-147590000D03*
X148160000Y-145990000D03*
X147260000Y-145990000D03*
X146360000Y-145990000D03*
X145460000Y-145990000D03*
D10*
G36*
X178665691Y-146146053D02*
G01*
X178686926Y-146149203D01*
X178707750Y-146154419D01*
X178727962Y-146161651D01*
X178747368Y-146170830D01*
X178765781Y-146181866D01*
X178783024Y-146194654D01*
X178798930Y-146209070D01*
X178813346Y-146224976D01*
X178826134Y-146242219D01*
X178837170Y-146260632D01*
X178846349Y-146280038D01*
X178853581Y-146300250D01*
X178858797Y-146321074D01*
X178861947Y-146342309D01*
X178863000Y-146363750D01*
X178863000Y-146876250D01*
X178861947Y-146897691D01*
X178858797Y-146918926D01*
X178853581Y-146939750D01*
X178846349Y-146959962D01*
X178837170Y-146979368D01*
X178826134Y-146997781D01*
X178813346Y-147015024D01*
X178798930Y-147030930D01*
X178783024Y-147045346D01*
X178765781Y-147058134D01*
X178747368Y-147069170D01*
X178727962Y-147078349D01*
X178707750Y-147085581D01*
X178686926Y-147090797D01*
X178665691Y-147093947D01*
X178644250Y-147095000D01*
X178206750Y-147095000D01*
X178185309Y-147093947D01*
X178164074Y-147090797D01*
X178143250Y-147085581D01*
X178123038Y-147078349D01*
X178103632Y-147069170D01*
X178085219Y-147058134D01*
X178067976Y-147045346D01*
X178052070Y-147030930D01*
X178037654Y-147015024D01*
X178024866Y-146997781D01*
X178013830Y-146979368D01*
X178004651Y-146959962D01*
X177997419Y-146939750D01*
X177992203Y-146918926D01*
X177989053Y-146897691D01*
X177988000Y-146876250D01*
X177988000Y-146363750D01*
X177989053Y-146342309D01*
X177992203Y-146321074D01*
X177997419Y-146300250D01*
X178004651Y-146280038D01*
X178013830Y-146260632D01*
X178024866Y-146242219D01*
X178037654Y-146224976D01*
X178052070Y-146209070D01*
X178067976Y-146194654D01*
X178085219Y-146181866D01*
X178103632Y-146170830D01*
X178123038Y-146161651D01*
X178143250Y-146154419D01*
X178164074Y-146149203D01*
X178185309Y-146146053D01*
X178206750Y-146145000D01*
X178644250Y-146145000D01*
X178665691Y-146146053D01*
X178665691Y-146146053D01*
G37*
D13*
X178425500Y-146620000D03*
D10*
G36*
X177090691Y-146146053D02*
G01*
X177111926Y-146149203D01*
X177132750Y-146154419D01*
X177152962Y-146161651D01*
X177172368Y-146170830D01*
X177190781Y-146181866D01*
X177208024Y-146194654D01*
X177223930Y-146209070D01*
X177238346Y-146224976D01*
X177251134Y-146242219D01*
X177262170Y-146260632D01*
X177271349Y-146280038D01*
X177278581Y-146300250D01*
X177283797Y-146321074D01*
X177286947Y-146342309D01*
X177288000Y-146363750D01*
X177288000Y-146876250D01*
X177286947Y-146897691D01*
X177283797Y-146918926D01*
X177278581Y-146939750D01*
X177271349Y-146959962D01*
X177262170Y-146979368D01*
X177251134Y-146997781D01*
X177238346Y-147015024D01*
X177223930Y-147030930D01*
X177208024Y-147045346D01*
X177190781Y-147058134D01*
X177172368Y-147069170D01*
X177152962Y-147078349D01*
X177132750Y-147085581D01*
X177111926Y-147090797D01*
X177090691Y-147093947D01*
X177069250Y-147095000D01*
X176631750Y-147095000D01*
X176610309Y-147093947D01*
X176589074Y-147090797D01*
X176568250Y-147085581D01*
X176548038Y-147078349D01*
X176528632Y-147069170D01*
X176510219Y-147058134D01*
X176492976Y-147045346D01*
X176477070Y-147030930D01*
X176462654Y-147015024D01*
X176449866Y-146997781D01*
X176438830Y-146979368D01*
X176429651Y-146959962D01*
X176422419Y-146939750D01*
X176417203Y-146918926D01*
X176414053Y-146897691D01*
X176413000Y-146876250D01*
X176413000Y-146363750D01*
X176414053Y-146342309D01*
X176417203Y-146321074D01*
X176422419Y-146300250D01*
X176429651Y-146280038D01*
X176438830Y-146260632D01*
X176449866Y-146242219D01*
X176462654Y-146224976D01*
X176477070Y-146209070D01*
X176492976Y-146194654D01*
X176510219Y-146181866D01*
X176528632Y-146170830D01*
X176548038Y-146161651D01*
X176568250Y-146154419D01*
X176589074Y-146149203D01*
X176610309Y-146146053D01*
X176631750Y-146145000D01*
X177069250Y-146145000D01*
X177090691Y-146146053D01*
X177090691Y-146146053D01*
G37*
D13*
X176850500Y-146620000D03*
D15*
X180300000Y-153000000D03*
X182840000Y-153000000D03*
X185380000Y-153000000D03*
X187920000Y-153000000D03*
X190460000Y-153000000D03*
D16*
X193000000Y-153000000D03*
D17*
X131550000Y-138980000D03*
X131550000Y-145980000D03*
D18*
X134250000Y-139980000D03*
X134250000Y-144980000D03*
D10*
G36*
X168257691Y-151026053D02*
G01*
X168278926Y-151029203D01*
X168299750Y-151034419D01*
X168319962Y-151041651D01*
X168339368Y-151050830D01*
X168357781Y-151061866D01*
X168375024Y-151074654D01*
X168390930Y-151089070D01*
X168405346Y-151104976D01*
X168418134Y-151122219D01*
X168429170Y-151140632D01*
X168438349Y-151160038D01*
X168445581Y-151180250D01*
X168450797Y-151201074D01*
X168453947Y-151222309D01*
X168455000Y-151243750D01*
X168455000Y-151756250D01*
X168453947Y-151777691D01*
X168450797Y-151798926D01*
X168445581Y-151819750D01*
X168438349Y-151839962D01*
X168429170Y-151859368D01*
X168418134Y-151877781D01*
X168405346Y-151895024D01*
X168390930Y-151910930D01*
X168375024Y-151925346D01*
X168357781Y-151938134D01*
X168339368Y-151949170D01*
X168319962Y-151958349D01*
X168299750Y-151965581D01*
X168278926Y-151970797D01*
X168257691Y-151973947D01*
X168236250Y-151975000D01*
X167798750Y-151975000D01*
X167777309Y-151973947D01*
X167756074Y-151970797D01*
X167735250Y-151965581D01*
X167715038Y-151958349D01*
X167695632Y-151949170D01*
X167677219Y-151938134D01*
X167659976Y-151925346D01*
X167644070Y-151910930D01*
X167629654Y-151895024D01*
X167616866Y-151877781D01*
X167605830Y-151859368D01*
X167596651Y-151839962D01*
X167589419Y-151819750D01*
X167584203Y-151798926D01*
X167581053Y-151777691D01*
X167580000Y-151756250D01*
X167580000Y-151243750D01*
X167581053Y-151222309D01*
X167584203Y-151201074D01*
X167589419Y-151180250D01*
X167596651Y-151160038D01*
X167605830Y-151140632D01*
X167616866Y-151122219D01*
X167629654Y-151104976D01*
X167644070Y-151089070D01*
X167659976Y-151074654D01*
X167677219Y-151061866D01*
X167695632Y-151050830D01*
X167715038Y-151041651D01*
X167735250Y-151034419D01*
X167756074Y-151029203D01*
X167777309Y-151026053D01*
X167798750Y-151025000D01*
X168236250Y-151025000D01*
X168257691Y-151026053D01*
X168257691Y-151026053D01*
G37*
D13*
X168017500Y-151500000D03*
D10*
G36*
X166682691Y-151026053D02*
G01*
X166703926Y-151029203D01*
X166724750Y-151034419D01*
X166744962Y-151041651D01*
X166764368Y-151050830D01*
X166782781Y-151061866D01*
X166800024Y-151074654D01*
X166815930Y-151089070D01*
X166830346Y-151104976D01*
X166843134Y-151122219D01*
X166854170Y-151140632D01*
X166863349Y-151160038D01*
X166870581Y-151180250D01*
X166875797Y-151201074D01*
X166878947Y-151222309D01*
X166880000Y-151243750D01*
X166880000Y-151756250D01*
X166878947Y-151777691D01*
X166875797Y-151798926D01*
X166870581Y-151819750D01*
X166863349Y-151839962D01*
X166854170Y-151859368D01*
X166843134Y-151877781D01*
X166830346Y-151895024D01*
X166815930Y-151910930D01*
X166800024Y-151925346D01*
X166782781Y-151938134D01*
X166764368Y-151949170D01*
X166744962Y-151958349D01*
X166724750Y-151965581D01*
X166703926Y-151970797D01*
X166682691Y-151973947D01*
X166661250Y-151975000D01*
X166223750Y-151975000D01*
X166202309Y-151973947D01*
X166181074Y-151970797D01*
X166160250Y-151965581D01*
X166140038Y-151958349D01*
X166120632Y-151949170D01*
X166102219Y-151938134D01*
X166084976Y-151925346D01*
X166069070Y-151910930D01*
X166054654Y-151895024D01*
X166041866Y-151877781D01*
X166030830Y-151859368D01*
X166021651Y-151839962D01*
X166014419Y-151819750D01*
X166009203Y-151798926D01*
X166006053Y-151777691D01*
X166005000Y-151756250D01*
X166005000Y-151243750D01*
X166006053Y-151222309D01*
X166009203Y-151201074D01*
X166014419Y-151180250D01*
X166021651Y-151160038D01*
X166030830Y-151140632D01*
X166041866Y-151122219D01*
X166054654Y-151104976D01*
X166069070Y-151089070D01*
X166084976Y-151074654D01*
X166102219Y-151061866D01*
X166120632Y-151050830D01*
X166140038Y-151041651D01*
X166160250Y-151034419D01*
X166181074Y-151029203D01*
X166202309Y-151026053D01*
X166223750Y-151025000D01*
X166661250Y-151025000D01*
X166682691Y-151026053D01*
X166682691Y-151026053D01*
G37*
D13*
X166442500Y-151500000D03*
D15*
X153340000Y-153450000D03*
D16*
X150800000Y-153450000D03*
D15*
X147180000Y-153450000D03*
X144640000Y-153450000D03*
X142100000Y-153450000D03*
D16*
X139560000Y-153450000D03*
D19*
X167935000Y-131525000D03*
D20*
X154435000Y-131975000D03*
D21*
X154435000Y-136125000D03*
D22*
X154435000Y-142325000D03*
X165585000Y-146625000D03*
D23*
X157435000Y-146625000D03*
X158535000Y-146625000D03*
X159635000Y-146625000D03*
X160735000Y-146625000D03*
X161835000Y-146625000D03*
X162935000Y-146625000D03*
X164035000Y-146625000D03*
X156335000Y-146625000D03*
X155385000Y-146625000D03*
D10*
G36*
X149074691Y-149646053D02*
G01*
X149095926Y-149649203D01*
X149116750Y-149654419D01*
X149136962Y-149661651D01*
X149156368Y-149670830D01*
X149174781Y-149681866D01*
X149192024Y-149694654D01*
X149207930Y-149709070D01*
X149222346Y-149724976D01*
X149235134Y-149742219D01*
X149246170Y-149760632D01*
X149255349Y-149780038D01*
X149262581Y-149800250D01*
X149267797Y-149821074D01*
X149270947Y-149842309D01*
X149272000Y-149863750D01*
X149272000Y-150376250D01*
X149270947Y-150397691D01*
X149267797Y-150418926D01*
X149262581Y-150439750D01*
X149255349Y-150459962D01*
X149246170Y-150479368D01*
X149235134Y-150497781D01*
X149222346Y-150515024D01*
X149207930Y-150530930D01*
X149192024Y-150545346D01*
X149174781Y-150558134D01*
X149156368Y-150569170D01*
X149136962Y-150578349D01*
X149116750Y-150585581D01*
X149095926Y-150590797D01*
X149074691Y-150593947D01*
X149053250Y-150595000D01*
X148615750Y-150595000D01*
X148594309Y-150593947D01*
X148573074Y-150590797D01*
X148552250Y-150585581D01*
X148532038Y-150578349D01*
X148512632Y-150569170D01*
X148494219Y-150558134D01*
X148476976Y-150545346D01*
X148461070Y-150530930D01*
X148446654Y-150515024D01*
X148433866Y-150497781D01*
X148422830Y-150479368D01*
X148413651Y-150459962D01*
X148406419Y-150439750D01*
X148401203Y-150418926D01*
X148398053Y-150397691D01*
X148397000Y-150376250D01*
X148397000Y-149863750D01*
X148398053Y-149842309D01*
X148401203Y-149821074D01*
X148406419Y-149800250D01*
X148413651Y-149780038D01*
X148422830Y-149760632D01*
X148433866Y-149742219D01*
X148446654Y-149724976D01*
X148461070Y-149709070D01*
X148476976Y-149694654D01*
X148494219Y-149681866D01*
X148512632Y-149670830D01*
X148532038Y-149661651D01*
X148552250Y-149654419D01*
X148573074Y-149649203D01*
X148594309Y-149646053D01*
X148615750Y-149645000D01*
X149053250Y-149645000D01*
X149074691Y-149646053D01*
X149074691Y-149646053D01*
G37*
D13*
X148834500Y-150120000D03*
D10*
G36*
X150649691Y-149646053D02*
G01*
X150670926Y-149649203D01*
X150691750Y-149654419D01*
X150711962Y-149661651D01*
X150731368Y-149670830D01*
X150749781Y-149681866D01*
X150767024Y-149694654D01*
X150782930Y-149709070D01*
X150797346Y-149724976D01*
X150810134Y-149742219D01*
X150821170Y-149760632D01*
X150830349Y-149780038D01*
X150837581Y-149800250D01*
X150842797Y-149821074D01*
X150845947Y-149842309D01*
X150847000Y-149863750D01*
X150847000Y-150376250D01*
X150845947Y-150397691D01*
X150842797Y-150418926D01*
X150837581Y-150439750D01*
X150830349Y-150459962D01*
X150821170Y-150479368D01*
X150810134Y-150497781D01*
X150797346Y-150515024D01*
X150782930Y-150530930D01*
X150767024Y-150545346D01*
X150749781Y-150558134D01*
X150731368Y-150569170D01*
X150711962Y-150578349D01*
X150691750Y-150585581D01*
X150670926Y-150590797D01*
X150649691Y-150593947D01*
X150628250Y-150595000D01*
X150190750Y-150595000D01*
X150169309Y-150593947D01*
X150148074Y-150590797D01*
X150127250Y-150585581D01*
X150107038Y-150578349D01*
X150087632Y-150569170D01*
X150069219Y-150558134D01*
X150051976Y-150545346D01*
X150036070Y-150530930D01*
X150021654Y-150515024D01*
X150008866Y-150497781D01*
X149997830Y-150479368D01*
X149988651Y-150459962D01*
X149981419Y-150439750D01*
X149976203Y-150418926D01*
X149973053Y-150397691D01*
X149972000Y-150376250D01*
X149972000Y-149863750D01*
X149973053Y-149842309D01*
X149976203Y-149821074D01*
X149981419Y-149800250D01*
X149988651Y-149780038D01*
X149997830Y-149760632D01*
X150008866Y-149742219D01*
X150021654Y-149724976D01*
X150036070Y-149709070D01*
X150051976Y-149694654D01*
X150069219Y-149681866D01*
X150087632Y-149670830D01*
X150107038Y-149661651D01*
X150127250Y-149654419D01*
X150148074Y-149649203D01*
X150169309Y-149646053D01*
X150190750Y-149645000D01*
X150628250Y-149645000D01*
X150649691Y-149646053D01*
X150649691Y-149646053D01*
G37*
D13*
X150409500Y-150120000D03*
D10*
G36*
X138797691Y-148148053D02*
G01*
X138818926Y-148151203D01*
X138839750Y-148156419D01*
X138859962Y-148163651D01*
X138879368Y-148172830D01*
X138897781Y-148183866D01*
X138915024Y-148196654D01*
X138930930Y-148211070D01*
X138945346Y-148226976D01*
X138958134Y-148244219D01*
X138969170Y-148262632D01*
X138978349Y-148282038D01*
X138985581Y-148302250D01*
X138990797Y-148323074D01*
X138993947Y-148344309D01*
X138995000Y-148365750D01*
X138995000Y-148803250D01*
X138993947Y-148824691D01*
X138990797Y-148845926D01*
X138985581Y-148866750D01*
X138978349Y-148886962D01*
X138969170Y-148906368D01*
X138958134Y-148924781D01*
X138945346Y-148942024D01*
X138930930Y-148957930D01*
X138915024Y-148972346D01*
X138897781Y-148985134D01*
X138879368Y-148996170D01*
X138859962Y-149005349D01*
X138839750Y-149012581D01*
X138818926Y-149017797D01*
X138797691Y-149020947D01*
X138776250Y-149022000D01*
X138263750Y-149022000D01*
X138242309Y-149020947D01*
X138221074Y-149017797D01*
X138200250Y-149012581D01*
X138180038Y-149005349D01*
X138160632Y-148996170D01*
X138142219Y-148985134D01*
X138124976Y-148972346D01*
X138109070Y-148957930D01*
X138094654Y-148942024D01*
X138081866Y-148924781D01*
X138070830Y-148906368D01*
X138061651Y-148886962D01*
X138054419Y-148866750D01*
X138049203Y-148845926D01*
X138046053Y-148824691D01*
X138045000Y-148803250D01*
X138045000Y-148365750D01*
X138046053Y-148344309D01*
X138049203Y-148323074D01*
X138054419Y-148302250D01*
X138061651Y-148282038D01*
X138070830Y-148262632D01*
X138081866Y-148244219D01*
X138094654Y-148226976D01*
X138109070Y-148211070D01*
X138124976Y-148196654D01*
X138142219Y-148183866D01*
X138160632Y-148172830D01*
X138180038Y-148163651D01*
X138200250Y-148156419D01*
X138221074Y-148151203D01*
X138242309Y-148148053D01*
X138263750Y-148147000D01*
X138776250Y-148147000D01*
X138797691Y-148148053D01*
X138797691Y-148148053D01*
G37*
D13*
X138520000Y-148584500D03*
D10*
G36*
X138797691Y-149723053D02*
G01*
X138818926Y-149726203D01*
X138839750Y-149731419D01*
X138859962Y-149738651D01*
X138879368Y-149747830D01*
X138897781Y-149758866D01*
X138915024Y-149771654D01*
X138930930Y-149786070D01*
X138945346Y-149801976D01*
X138958134Y-149819219D01*
X138969170Y-149837632D01*
X138978349Y-149857038D01*
X138985581Y-149877250D01*
X138990797Y-149898074D01*
X138993947Y-149919309D01*
X138995000Y-149940750D01*
X138995000Y-150378250D01*
X138993947Y-150399691D01*
X138990797Y-150420926D01*
X138985581Y-150441750D01*
X138978349Y-150461962D01*
X138969170Y-150481368D01*
X138958134Y-150499781D01*
X138945346Y-150517024D01*
X138930930Y-150532930D01*
X138915024Y-150547346D01*
X138897781Y-150560134D01*
X138879368Y-150571170D01*
X138859962Y-150580349D01*
X138839750Y-150587581D01*
X138818926Y-150592797D01*
X138797691Y-150595947D01*
X138776250Y-150597000D01*
X138263750Y-150597000D01*
X138242309Y-150595947D01*
X138221074Y-150592797D01*
X138200250Y-150587581D01*
X138180038Y-150580349D01*
X138160632Y-150571170D01*
X138142219Y-150560134D01*
X138124976Y-150547346D01*
X138109070Y-150532930D01*
X138094654Y-150517024D01*
X138081866Y-150499781D01*
X138070830Y-150481368D01*
X138061651Y-150461962D01*
X138054419Y-150441750D01*
X138049203Y-150420926D01*
X138046053Y-150399691D01*
X138045000Y-150378250D01*
X138045000Y-149940750D01*
X138046053Y-149919309D01*
X138049203Y-149898074D01*
X138054419Y-149877250D01*
X138061651Y-149857038D01*
X138070830Y-149837632D01*
X138081866Y-149819219D01*
X138094654Y-149801976D01*
X138109070Y-149786070D01*
X138124976Y-149771654D01*
X138142219Y-149758866D01*
X138160632Y-149747830D01*
X138180038Y-149738651D01*
X138200250Y-149731419D01*
X138221074Y-149726203D01*
X138242309Y-149723053D01*
X138263750Y-149722000D01*
X138776250Y-149722000D01*
X138797691Y-149723053D01*
X138797691Y-149723053D01*
G37*
D13*
X138520000Y-150159500D03*
D10*
G36*
X150777691Y-147131053D02*
G01*
X150798926Y-147134203D01*
X150819750Y-147139419D01*
X150839962Y-147146651D01*
X150859368Y-147155830D01*
X150877781Y-147166866D01*
X150895024Y-147179654D01*
X150910930Y-147194070D01*
X150925346Y-147209976D01*
X150938134Y-147227219D01*
X150949170Y-147245632D01*
X150958349Y-147265038D01*
X150965581Y-147285250D01*
X150970797Y-147306074D01*
X150973947Y-147327309D01*
X150975000Y-147348750D01*
X150975000Y-147786250D01*
X150973947Y-147807691D01*
X150970797Y-147828926D01*
X150965581Y-147849750D01*
X150958349Y-147869962D01*
X150949170Y-147889368D01*
X150938134Y-147907781D01*
X150925346Y-147925024D01*
X150910930Y-147940930D01*
X150895024Y-147955346D01*
X150877781Y-147968134D01*
X150859368Y-147979170D01*
X150839962Y-147988349D01*
X150819750Y-147995581D01*
X150798926Y-148000797D01*
X150777691Y-148003947D01*
X150756250Y-148005000D01*
X150243750Y-148005000D01*
X150222309Y-148003947D01*
X150201074Y-148000797D01*
X150180250Y-147995581D01*
X150160038Y-147988349D01*
X150140632Y-147979170D01*
X150122219Y-147968134D01*
X150104976Y-147955346D01*
X150089070Y-147940930D01*
X150074654Y-147925024D01*
X150061866Y-147907781D01*
X150050830Y-147889368D01*
X150041651Y-147869962D01*
X150034419Y-147849750D01*
X150029203Y-147828926D01*
X150026053Y-147807691D01*
X150025000Y-147786250D01*
X150025000Y-147348750D01*
X150026053Y-147327309D01*
X150029203Y-147306074D01*
X150034419Y-147285250D01*
X150041651Y-147265038D01*
X150050830Y-147245632D01*
X150061866Y-147227219D01*
X150074654Y-147209976D01*
X150089070Y-147194070D01*
X150104976Y-147179654D01*
X150122219Y-147166866D01*
X150140632Y-147155830D01*
X150160038Y-147146651D01*
X150180250Y-147139419D01*
X150201074Y-147134203D01*
X150222309Y-147131053D01*
X150243750Y-147130000D01*
X150756250Y-147130000D01*
X150777691Y-147131053D01*
X150777691Y-147131053D01*
G37*
D13*
X150500000Y-147567500D03*
D10*
G36*
X150777691Y-145556053D02*
G01*
X150798926Y-145559203D01*
X150819750Y-145564419D01*
X150839962Y-145571651D01*
X150859368Y-145580830D01*
X150877781Y-145591866D01*
X150895024Y-145604654D01*
X150910930Y-145619070D01*
X150925346Y-145634976D01*
X150938134Y-145652219D01*
X150949170Y-145670632D01*
X150958349Y-145690038D01*
X150965581Y-145710250D01*
X150970797Y-145731074D01*
X150973947Y-145752309D01*
X150975000Y-145773750D01*
X150975000Y-146211250D01*
X150973947Y-146232691D01*
X150970797Y-146253926D01*
X150965581Y-146274750D01*
X150958349Y-146294962D01*
X150949170Y-146314368D01*
X150938134Y-146332781D01*
X150925346Y-146350024D01*
X150910930Y-146365930D01*
X150895024Y-146380346D01*
X150877781Y-146393134D01*
X150859368Y-146404170D01*
X150839962Y-146413349D01*
X150819750Y-146420581D01*
X150798926Y-146425797D01*
X150777691Y-146428947D01*
X150756250Y-146430000D01*
X150243750Y-146430000D01*
X150222309Y-146428947D01*
X150201074Y-146425797D01*
X150180250Y-146420581D01*
X150160038Y-146413349D01*
X150140632Y-146404170D01*
X150122219Y-146393134D01*
X150104976Y-146380346D01*
X150089070Y-146365930D01*
X150074654Y-146350024D01*
X150061866Y-146332781D01*
X150050830Y-146314368D01*
X150041651Y-146294962D01*
X150034419Y-146274750D01*
X150029203Y-146253926D01*
X150026053Y-146232691D01*
X150025000Y-146211250D01*
X150025000Y-145773750D01*
X150026053Y-145752309D01*
X150029203Y-145731074D01*
X150034419Y-145710250D01*
X150041651Y-145690038D01*
X150050830Y-145670632D01*
X150061866Y-145652219D01*
X150074654Y-145634976D01*
X150089070Y-145619070D01*
X150104976Y-145604654D01*
X150122219Y-145591866D01*
X150140632Y-145580830D01*
X150160038Y-145571651D01*
X150180250Y-145564419D01*
X150201074Y-145559203D01*
X150222309Y-145556053D01*
X150243750Y-145555000D01*
X150756250Y-145555000D01*
X150777691Y-145556053D01*
X150777691Y-145556053D01*
G37*
D13*
X150500000Y-145992500D03*
D10*
G36*
X145800691Y-149686053D02*
G01*
X145821926Y-149689203D01*
X145842750Y-149694419D01*
X145862962Y-149701651D01*
X145882368Y-149710830D01*
X145900781Y-149721866D01*
X145918024Y-149734654D01*
X145933930Y-149749070D01*
X145948346Y-149764976D01*
X145961134Y-149782219D01*
X145972170Y-149800632D01*
X145981349Y-149820038D01*
X145988581Y-149840250D01*
X145993797Y-149861074D01*
X145996947Y-149882309D01*
X145998000Y-149903750D01*
X145998000Y-150416250D01*
X145996947Y-150437691D01*
X145993797Y-150458926D01*
X145988581Y-150479750D01*
X145981349Y-150499962D01*
X145972170Y-150519368D01*
X145961134Y-150537781D01*
X145948346Y-150555024D01*
X145933930Y-150570930D01*
X145918024Y-150585346D01*
X145900781Y-150598134D01*
X145882368Y-150609170D01*
X145862962Y-150618349D01*
X145842750Y-150625581D01*
X145821926Y-150630797D01*
X145800691Y-150633947D01*
X145779250Y-150635000D01*
X145341750Y-150635000D01*
X145320309Y-150633947D01*
X145299074Y-150630797D01*
X145278250Y-150625581D01*
X145258038Y-150618349D01*
X145238632Y-150609170D01*
X145220219Y-150598134D01*
X145202976Y-150585346D01*
X145187070Y-150570930D01*
X145172654Y-150555024D01*
X145159866Y-150537781D01*
X145148830Y-150519368D01*
X145139651Y-150499962D01*
X145132419Y-150479750D01*
X145127203Y-150458926D01*
X145124053Y-150437691D01*
X145123000Y-150416250D01*
X145123000Y-149903750D01*
X145124053Y-149882309D01*
X145127203Y-149861074D01*
X145132419Y-149840250D01*
X145139651Y-149820038D01*
X145148830Y-149800632D01*
X145159866Y-149782219D01*
X145172654Y-149764976D01*
X145187070Y-149749070D01*
X145202976Y-149734654D01*
X145220219Y-149721866D01*
X145238632Y-149710830D01*
X145258038Y-149701651D01*
X145278250Y-149694419D01*
X145299074Y-149689203D01*
X145320309Y-149686053D01*
X145341750Y-149685000D01*
X145779250Y-149685000D01*
X145800691Y-149686053D01*
X145800691Y-149686053D01*
G37*
D13*
X145560500Y-150160000D03*
D10*
G36*
X147375691Y-149686053D02*
G01*
X147396926Y-149689203D01*
X147417750Y-149694419D01*
X147437962Y-149701651D01*
X147457368Y-149710830D01*
X147475781Y-149721866D01*
X147493024Y-149734654D01*
X147508930Y-149749070D01*
X147523346Y-149764976D01*
X147536134Y-149782219D01*
X147547170Y-149800632D01*
X147556349Y-149820038D01*
X147563581Y-149840250D01*
X147568797Y-149861074D01*
X147571947Y-149882309D01*
X147573000Y-149903750D01*
X147573000Y-150416250D01*
X147571947Y-150437691D01*
X147568797Y-150458926D01*
X147563581Y-150479750D01*
X147556349Y-150499962D01*
X147547170Y-150519368D01*
X147536134Y-150537781D01*
X147523346Y-150555024D01*
X147508930Y-150570930D01*
X147493024Y-150585346D01*
X147475781Y-150598134D01*
X147457368Y-150609170D01*
X147437962Y-150618349D01*
X147417750Y-150625581D01*
X147396926Y-150630797D01*
X147375691Y-150633947D01*
X147354250Y-150635000D01*
X146916750Y-150635000D01*
X146895309Y-150633947D01*
X146874074Y-150630797D01*
X146853250Y-150625581D01*
X146833038Y-150618349D01*
X146813632Y-150609170D01*
X146795219Y-150598134D01*
X146777976Y-150585346D01*
X146762070Y-150570930D01*
X146747654Y-150555024D01*
X146734866Y-150537781D01*
X146723830Y-150519368D01*
X146714651Y-150499962D01*
X146707419Y-150479750D01*
X146702203Y-150458926D01*
X146699053Y-150437691D01*
X146698000Y-150416250D01*
X146698000Y-149903750D01*
X146699053Y-149882309D01*
X146702203Y-149861074D01*
X146707419Y-149840250D01*
X146714651Y-149820038D01*
X146723830Y-149800632D01*
X146734866Y-149782219D01*
X146747654Y-149764976D01*
X146762070Y-149749070D01*
X146777976Y-149734654D01*
X146795219Y-149721866D01*
X146813632Y-149710830D01*
X146833038Y-149701651D01*
X146853250Y-149694419D01*
X146874074Y-149689203D01*
X146895309Y-149686053D01*
X146916750Y-149685000D01*
X147354250Y-149685000D01*
X147375691Y-149686053D01*
X147375691Y-149686053D01*
G37*
D13*
X147135500Y-150160000D03*
D10*
G36*
X165057691Y-150996053D02*
G01*
X165078926Y-150999203D01*
X165099750Y-151004419D01*
X165119962Y-151011651D01*
X165139368Y-151020830D01*
X165157781Y-151031866D01*
X165175024Y-151044654D01*
X165190930Y-151059070D01*
X165205346Y-151074976D01*
X165218134Y-151092219D01*
X165229170Y-151110632D01*
X165238349Y-151130038D01*
X165245581Y-151150250D01*
X165250797Y-151171074D01*
X165253947Y-151192309D01*
X165255000Y-151213750D01*
X165255000Y-151726250D01*
X165253947Y-151747691D01*
X165250797Y-151768926D01*
X165245581Y-151789750D01*
X165238349Y-151809962D01*
X165229170Y-151829368D01*
X165218134Y-151847781D01*
X165205346Y-151865024D01*
X165190930Y-151880930D01*
X165175024Y-151895346D01*
X165157781Y-151908134D01*
X165139368Y-151919170D01*
X165119962Y-151928349D01*
X165099750Y-151935581D01*
X165078926Y-151940797D01*
X165057691Y-151943947D01*
X165036250Y-151945000D01*
X164598750Y-151945000D01*
X164577309Y-151943947D01*
X164556074Y-151940797D01*
X164535250Y-151935581D01*
X164515038Y-151928349D01*
X164495632Y-151919170D01*
X164477219Y-151908134D01*
X164459976Y-151895346D01*
X164444070Y-151880930D01*
X164429654Y-151865024D01*
X164416866Y-151847781D01*
X164405830Y-151829368D01*
X164396651Y-151809962D01*
X164389419Y-151789750D01*
X164384203Y-151768926D01*
X164381053Y-151747691D01*
X164380000Y-151726250D01*
X164380000Y-151213750D01*
X164381053Y-151192309D01*
X164384203Y-151171074D01*
X164389419Y-151150250D01*
X164396651Y-151130038D01*
X164405830Y-151110632D01*
X164416866Y-151092219D01*
X164429654Y-151074976D01*
X164444070Y-151059070D01*
X164459976Y-151044654D01*
X164477219Y-151031866D01*
X164495632Y-151020830D01*
X164515038Y-151011651D01*
X164535250Y-151004419D01*
X164556074Y-150999203D01*
X164577309Y-150996053D01*
X164598750Y-150995000D01*
X165036250Y-150995000D01*
X165057691Y-150996053D01*
X165057691Y-150996053D01*
G37*
D13*
X164817500Y-151470000D03*
D10*
G36*
X163482691Y-150996053D02*
G01*
X163503926Y-150999203D01*
X163524750Y-151004419D01*
X163544962Y-151011651D01*
X163564368Y-151020830D01*
X163582781Y-151031866D01*
X163600024Y-151044654D01*
X163615930Y-151059070D01*
X163630346Y-151074976D01*
X163643134Y-151092219D01*
X163654170Y-151110632D01*
X163663349Y-151130038D01*
X163670581Y-151150250D01*
X163675797Y-151171074D01*
X163678947Y-151192309D01*
X163680000Y-151213750D01*
X163680000Y-151726250D01*
X163678947Y-151747691D01*
X163675797Y-151768926D01*
X163670581Y-151789750D01*
X163663349Y-151809962D01*
X163654170Y-151829368D01*
X163643134Y-151847781D01*
X163630346Y-151865024D01*
X163615930Y-151880930D01*
X163600024Y-151895346D01*
X163582781Y-151908134D01*
X163564368Y-151919170D01*
X163544962Y-151928349D01*
X163524750Y-151935581D01*
X163503926Y-151940797D01*
X163482691Y-151943947D01*
X163461250Y-151945000D01*
X163023750Y-151945000D01*
X163002309Y-151943947D01*
X162981074Y-151940797D01*
X162960250Y-151935581D01*
X162940038Y-151928349D01*
X162920632Y-151919170D01*
X162902219Y-151908134D01*
X162884976Y-151895346D01*
X162869070Y-151880930D01*
X162854654Y-151865024D01*
X162841866Y-151847781D01*
X162830830Y-151829368D01*
X162821651Y-151809962D01*
X162814419Y-151789750D01*
X162809203Y-151768926D01*
X162806053Y-151747691D01*
X162805000Y-151726250D01*
X162805000Y-151213750D01*
X162806053Y-151192309D01*
X162809203Y-151171074D01*
X162814419Y-151150250D01*
X162821651Y-151130038D01*
X162830830Y-151110632D01*
X162841866Y-151092219D01*
X162854654Y-151074976D01*
X162869070Y-151059070D01*
X162884976Y-151044654D01*
X162902219Y-151031866D01*
X162920632Y-151020830D01*
X162940038Y-151011651D01*
X162960250Y-151004419D01*
X162981074Y-150999203D01*
X163002309Y-150996053D01*
X163023750Y-150995000D01*
X163461250Y-150995000D01*
X163482691Y-150996053D01*
X163482691Y-150996053D01*
G37*
D13*
X163242500Y-151470000D03*
D24*
X141500000Y-148130000D03*
X140550000Y-150130000D03*
X142450000Y-150130000D03*
D10*
G36*
X140044691Y-146046053D02*
G01*
X140065926Y-146049203D01*
X140086750Y-146054419D01*
X140106962Y-146061651D01*
X140126368Y-146070830D01*
X140144781Y-146081866D01*
X140162024Y-146094654D01*
X140177930Y-146109070D01*
X140192346Y-146124976D01*
X140205134Y-146142219D01*
X140216170Y-146160632D01*
X140225349Y-146180038D01*
X140232581Y-146200250D01*
X140237797Y-146221074D01*
X140240947Y-146242309D01*
X140242000Y-146263750D01*
X140242000Y-146776250D01*
X140240947Y-146797691D01*
X140237797Y-146818926D01*
X140232581Y-146839750D01*
X140225349Y-146859962D01*
X140216170Y-146879368D01*
X140205134Y-146897781D01*
X140192346Y-146915024D01*
X140177930Y-146930930D01*
X140162024Y-146945346D01*
X140144781Y-146958134D01*
X140126368Y-146969170D01*
X140106962Y-146978349D01*
X140086750Y-146985581D01*
X140065926Y-146990797D01*
X140044691Y-146993947D01*
X140023250Y-146995000D01*
X139585750Y-146995000D01*
X139564309Y-146993947D01*
X139543074Y-146990797D01*
X139522250Y-146985581D01*
X139502038Y-146978349D01*
X139482632Y-146969170D01*
X139464219Y-146958134D01*
X139446976Y-146945346D01*
X139431070Y-146930930D01*
X139416654Y-146915024D01*
X139403866Y-146897781D01*
X139392830Y-146879368D01*
X139383651Y-146859962D01*
X139376419Y-146839750D01*
X139371203Y-146818926D01*
X139368053Y-146797691D01*
X139367000Y-146776250D01*
X139367000Y-146263750D01*
X139368053Y-146242309D01*
X139371203Y-146221074D01*
X139376419Y-146200250D01*
X139383651Y-146180038D01*
X139392830Y-146160632D01*
X139403866Y-146142219D01*
X139416654Y-146124976D01*
X139431070Y-146109070D01*
X139446976Y-146094654D01*
X139464219Y-146081866D01*
X139482632Y-146070830D01*
X139502038Y-146061651D01*
X139522250Y-146054419D01*
X139543074Y-146049203D01*
X139564309Y-146046053D01*
X139585750Y-146045000D01*
X140023250Y-146045000D01*
X140044691Y-146046053D01*
X140044691Y-146046053D01*
G37*
D13*
X139804500Y-146520000D03*
D10*
G36*
X141619691Y-146046053D02*
G01*
X141640926Y-146049203D01*
X141661750Y-146054419D01*
X141681962Y-146061651D01*
X141701368Y-146070830D01*
X141719781Y-146081866D01*
X141737024Y-146094654D01*
X141752930Y-146109070D01*
X141767346Y-146124976D01*
X141780134Y-146142219D01*
X141791170Y-146160632D01*
X141800349Y-146180038D01*
X141807581Y-146200250D01*
X141812797Y-146221074D01*
X141815947Y-146242309D01*
X141817000Y-146263750D01*
X141817000Y-146776250D01*
X141815947Y-146797691D01*
X141812797Y-146818926D01*
X141807581Y-146839750D01*
X141800349Y-146859962D01*
X141791170Y-146879368D01*
X141780134Y-146897781D01*
X141767346Y-146915024D01*
X141752930Y-146930930D01*
X141737024Y-146945346D01*
X141719781Y-146958134D01*
X141701368Y-146969170D01*
X141681962Y-146978349D01*
X141661750Y-146985581D01*
X141640926Y-146990797D01*
X141619691Y-146993947D01*
X141598250Y-146995000D01*
X141160750Y-146995000D01*
X141139309Y-146993947D01*
X141118074Y-146990797D01*
X141097250Y-146985581D01*
X141077038Y-146978349D01*
X141057632Y-146969170D01*
X141039219Y-146958134D01*
X141021976Y-146945346D01*
X141006070Y-146930930D01*
X140991654Y-146915024D01*
X140978866Y-146897781D01*
X140967830Y-146879368D01*
X140958651Y-146859962D01*
X140951419Y-146839750D01*
X140946203Y-146818926D01*
X140943053Y-146797691D01*
X140942000Y-146776250D01*
X140942000Y-146263750D01*
X140943053Y-146242309D01*
X140946203Y-146221074D01*
X140951419Y-146200250D01*
X140958651Y-146180038D01*
X140967830Y-146160632D01*
X140978866Y-146142219D01*
X140991654Y-146124976D01*
X141006070Y-146109070D01*
X141021976Y-146094654D01*
X141039219Y-146081866D01*
X141057632Y-146070830D01*
X141077038Y-146061651D01*
X141097250Y-146054419D01*
X141118074Y-146049203D01*
X141139309Y-146046053D01*
X141160750Y-146045000D01*
X141598250Y-146045000D01*
X141619691Y-146046053D01*
X141619691Y-146046053D01*
G37*
D13*
X141379500Y-146520000D03*
D10*
G36*
X159860142Y-150571174D02*
G01*
X159883803Y-150574684D01*
X159907007Y-150580496D01*
X159929529Y-150588554D01*
X159951153Y-150598782D01*
X159971670Y-150611079D01*
X159990883Y-150625329D01*
X160008607Y-150641393D01*
X160024671Y-150659117D01*
X160038921Y-150678330D01*
X160051218Y-150698847D01*
X160061446Y-150720471D01*
X160069504Y-150742993D01*
X160075316Y-150766197D01*
X160078826Y-150789858D01*
X160080000Y-150813750D01*
X160080000Y-151726250D01*
X160078826Y-151750142D01*
X160075316Y-151773803D01*
X160069504Y-151797007D01*
X160061446Y-151819529D01*
X160051218Y-151841153D01*
X160038921Y-151861670D01*
X160024671Y-151880883D01*
X160008607Y-151898607D01*
X159990883Y-151914671D01*
X159971670Y-151928921D01*
X159951153Y-151941218D01*
X159929529Y-151951446D01*
X159907007Y-151959504D01*
X159883803Y-151965316D01*
X159860142Y-151968826D01*
X159836250Y-151970000D01*
X159348750Y-151970000D01*
X159324858Y-151968826D01*
X159301197Y-151965316D01*
X159277993Y-151959504D01*
X159255471Y-151951446D01*
X159233847Y-151941218D01*
X159213330Y-151928921D01*
X159194117Y-151914671D01*
X159176393Y-151898607D01*
X159160329Y-151880883D01*
X159146079Y-151861670D01*
X159133782Y-151841153D01*
X159123554Y-151819529D01*
X159115496Y-151797007D01*
X159109684Y-151773803D01*
X159106174Y-151750142D01*
X159105000Y-151726250D01*
X159105000Y-150813750D01*
X159106174Y-150789858D01*
X159109684Y-150766197D01*
X159115496Y-150742993D01*
X159123554Y-150720471D01*
X159133782Y-150698847D01*
X159146079Y-150678330D01*
X159160329Y-150659117D01*
X159176393Y-150641393D01*
X159194117Y-150625329D01*
X159213330Y-150611079D01*
X159233847Y-150598782D01*
X159255471Y-150588554D01*
X159277993Y-150580496D01*
X159301197Y-150574684D01*
X159324858Y-150571174D01*
X159348750Y-150570000D01*
X159836250Y-150570000D01*
X159860142Y-150571174D01*
X159860142Y-150571174D01*
G37*
D11*
X159592500Y-151270000D03*
D10*
G36*
X161735142Y-150571174D02*
G01*
X161758803Y-150574684D01*
X161782007Y-150580496D01*
X161804529Y-150588554D01*
X161826153Y-150598782D01*
X161846670Y-150611079D01*
X161865883Y-150625329D01*
X161883607Y-150641393D01*
X161899671Y-150659117D01*
X161913921Y-150678330D01*
X161926218Y-150698847D01*
X161936446Y-150720471D01*
X161944504Y-150742993D01*
X161950316Y-150766197D01*
X161953826Y-150789858D01*
X161955000Y-150813750D01*
X161955000Y-151726250D01*
X161953826Y-151750142D01*
X161950316Y-151773803D01*
X161944504Y-151797007D01*
X161936446Y-151819529D01*
X161926218Y-151841153D01*
X161913921Y-151861670D01*
X161899671Y-151880883D01*
X161883607Y-151898607D01*
X161865883Y-151914671D01*
X161846670Y-151928921D01*
X161826153Y-151941218D01*
X161804529Y-151951446D01*
X161782007Y-151959504D01*
X161758803Y-151965316D01*
X161735142Y-151968826D01*
X161711250Y-151970000D01*
X161223750Y-151970000D01*
X161199858Y-151968826D01*
X161176197Y-151965316D01*
X161152993Y-151959504D01*
X161130471Y-151951446D01*
X161108847Y-151941218D01*
X161088330Y-151928921D01*
X161069117Y-151914671D01*
X161051393Y-151898607D01*
X161035329Y-151880883D01*
X161021079Y-151861670D01*
X161008782Y-151841153D01*
X160998554Y-151819529D01*
X160990496Y-151797007D01*
X160984684Y-151773803D01*
X160981174Y-151750142D01*
X160980000Y-151726250D01*
X160980000Y-150813750D01*
X160981174Y-150789858D01*
X160984684Y-150766197D01*
X160990496Y-150742993D01*
X160998554Y-150720471D01*
X161008782Y-150698847D01*
X161021079Y-150678330D01*
X161035329Y-150659117D01*
X161051393Y-150641393D01*
X161069117Y-150625329D01*
X161088330Y-150611079D01*
X161108847Y-150598782D01*
X161130471Y-150588554D01*
X161152993Y-150580496D01*
X161176197Y-150574684D01*
X161199858Y-150571174D01*
X161223750Y-150570000D01*
X161711250Y-150570000D01*
X161735142Y-150571174D01*
X161735142Y-150571174D01*
G37*
D11*
X161467500Y-151270000D03*
D10*
G36*
X160182691Y-148896053D02*
G01*
X160203926Y-148899203D01*
X160224750Y-148904419D01*
X160244962Y-148911651D01*
X160264368Y-148920830D01*
X160282781Y-148931866D01*
X160300024Y-148944654D01*
X160315930Y-148959070D01*
X160330346Y-148974976D01*
X160343134Y-148992219D01*
X160354170Y-149010632D01*
X160363349Y-149030038D01*
X160370581Y-149050250D01*
X160375797Y-149071074D01*
X160378947Y-149092309D01*
X160380000Y-149113750D01*
X160380000Y-149626250D01*
X160378947Y-149647691D01*
X160375797Y-149668926D01*
X160370581Y-149689750D01*
X160363349Y-149709962D01*
X160354170Y-149729368D01*
X160343134Y-149747781D01*
X160330346Y-149765024D01*
X160315930Y-149780930D01*
X160300024Y-149795346D01*
X160282781Y-149808134D01*
X160264368Y-149819170D01*
X160244962Y-149828349D01*
X160224750Y-149835581D01*
X160203926Y-149840797D01*
X160182691Y-149843947D01*
X160161250Y-149845000D01*
X159723750Y-149845000D01*
X159702309Y-149843947D01*
X159681074Y-149840797D01*
X159660250Y-149835581D01*
X159640038Y-149828349D01*
X159620632Y-149819170D01*
X159602219Y-149808134D01*
X159584976Y-149795346D01*
X159569070Y-149780930D01*
X159554654Y-149765024D01*
X159541866Y-149747781D01*
X159530830Y-149729368D01*
X159521651Y-149709962D01*
X159514419Y-149689750D01*
X159509203Y-149668926D01*
X159506053Y-149647691D01*
X159505000Y-149626250D01*
X159505000Y-149113750D01*
X159506053Y-149092309D01*
X159509203Y-149071074D01*
X159514419Y-149050250D01*
X159521651Y-149030038D01*
X159530830Y-149010632D01*
X159541866Y-148992219D01*
X159554654Y-148974976D01*
X159569070Y-148959070D01*
X159584976Y-148944654D01*
X159602219Y-148931866D01*
X159620632Y-148920830D01*
X159640038Y-148911651D01*
X159660250Y-148904419D01*
X159681074Y-148899203D01*
X159702309Y-148896053D01*
X159723750Y-148895000D01*
X160161250Y-148895000D01*
X160182691Y-148896053D01*
X160182691Y-148896053D01*
G37*
D13*
X159942500Y-149370000D03*
D10*
G36*
X161757691Y-148896053D02*
G01*
X161778926Y-148899203D01*
X161799750Y-148904419D01*
X161819962Y-148911651D01*
X161839368Y-148920830D01*
X161857781Y-148931866D01*
X161875024Y-148944654D01*
X161890930Y-148959070D01*
X161905346Y-148974976D01*
X161918134Y-148992219D01*
X161929170Y-149010632D01*
X161938349Y-149030038D01*
X161945581Y-149050250D01*
X161950797Y-149071074D01*
X161953947Y-149092309D01*
X161955000Y-149113750D01*
X161955000Y-149626250D01*
X161953947Y-149647691D01*
X161950797Y-149668926D01*
X161945581Y-149689750D01*
X161938349Y-149709962D01*
X161929170Y-149729368D01*
X161918134Y-149747781D01*
X161905346Y-149765024D01*
X161890930Y-149780930D01*
X161875024Y-149795346D01*
X161857781Y-149808134D01*
X161839368Y-149819170D01*
X161819962Y-149828349D01*
X161799750Y-149835581D01*
X161778926Y-149840797D01*
X161757691Y-149843947D01*
X161736250Y-149845000D01*
X161298750Y-149845000D01*
X161277309Y-149843947D01*
X161256074Y-149840797D01*
X161235250Y-149835581D01*
X161215038Y-149828349D01*
X161195632Y-149819170D01*
X161177219Y-149808134D01*
X161159976Y-149795346D01*
X161144070Y-149780930D01*
X161129654Y-149765024D01*
X161116866Y-149747781D01*
X161105830Y-149729368D01*
X161096651Y-149709962D01*
X161089419Y-149689750D01*
X161084203Y-149668926D01*
X161081053Y-149647691D01*
X161080000Y-149626250D01*
X161080000Y-149113750D01*
X161081053Y-149092309D01*
X161084203Y-149071074D01*
X161089419Y-149050250D01*
X161096651Y-149030038D01*
X161105830Y-149010632D01*
X161116866Y-148992219D01*
X161129654Y-148974976D01*
X161144070Y-148959070D01*
X161159976Y-148944654D01*
X161177219Y-148931866D01*
X161195632Y-148920830D01*
X161215038Y-148911651D01*
X161235250Y-148904419D01*
X161256074Y-148899203D01*
X161277309Y-148896053D01*
X161298750Y-148895000D01*
X161736250Y-148895000D01*
X161757691Y-148896053D01*
X161757691Y-148896053D01*
G37*
D13*
X161517500Y-149370000D03*
D25*
X145400000Y-136800000D03*
D26*
X152000000Y-136800000D03*
X138800000Y-136800000D03*
D27*
X183600000Y-135930000D03*
X183600000Y-149070000D03*
D28*
X181000000Y-139000000D03*
X181000000Y-141500000D03*
X181000000Y-143500000D03*
X181000000Y-146000000D03*
D15*
X182840000Y-132000000D03*
X185380000Y-132000000D03*
X187920000Y-132000000D03*
X190460000Y-132000000D03*
D16*
X193000000Y-132000000D03*
D10*
G36*
X175159691Y-141136053D02*
G01*
X175180926Y-141139203D01*
X175201750Y-141144419D01*
X175221962Y-141151651D01*
X175241368Y-141160830D01*
X175259781Y-141171866D01*
X175277024Y-141184654D01*
X175292930Y-141199070D01*
X175307346Y-141214976D01*
X175320134Y-141232219D01*
X175331170Y-141250632D01*
X175340349Y-141270038D01*
X175347581Y-141290250D01*
X175352797Y-141311074D01*
X175355947Y-141332309D01*
X175357000Y-141353750D01*
X175357000Y-141866250D01*
X175355947Y-141887691D01*
X175352797Y-141908926D01*
X175347581Y-141929750D01*
X175340349Y-141949962D01*
X175331170Y-141969368D01*
X175320134Y-141987781D01*
X175307346Y-142005024D01*
X175292930Y-142020930D01*
X175277024Y-142035346D01*
X175259781Y-142048134D01*
X175241368Y-142059170D01*
X175221962Y-142068349D01*
X175201750Y-142075581D01*
X175180926Y-142080797D01*
X175159691Y-142083947D01*
X175138250Y-142085000D01*
X174700750Y-142085000D01*
X174679309Y-142083947D01*
X174658074Y-142080797D01*
X174637250Y-142075581D01*
X174617038Y-142068349D01*
X174597632Y-142059170D01*
X174579219Y-142048134D01*
X174561976Y-142035346D01*
X174546070Y-142020930D01*
X174531654Y-142005024D01*
X174518866Y-141987781D01*
X174507830Y-141969368D01*
X174498651Y-141949962D01*
X174491419Y-141929750D01*
X174486203Y-141908926D01*
X174483053Y-141887691D01*
X174482000Y-141866250D01*
X174482000Y-141353750D01*
X174483053Y-141332309D01*
X174486203Y-141311074D01*
X174491419Y-141290250D01*
X174498651Y-141270038D01*
X174507830Y-141250632D01*
X174518866Y-141232219D01*
X174531654Y-141214976D01*
X174546070Y-141199070D01*
X174561976Y-141184654D01*
X174579219Y-141171866D01*
X174597632Y-141160830D01*
X174617038Y-141151651D01*
X174637250Y-141144419D01*
X174658074Y-141139203D01*
X174679309Y-141136053D01*
X174700750Y-141135000D01*
X175138250Y-141135000D01*
X175159691Y-141136053D01*
X175159691Y-141136053D01*
G37*
D13*
X174919500Y-141610000D03*
D10*
G36*
X173584691Y-141136053D02*
G01*
X173605926Y-141139203D01*
X173626750Y-141144419D01*
X173646962Y-141151651D01*
X173666368Y-141160830D01*
X173684781Y-141171866D01*
X173702024Y-141184654D01*
X173717930Y-141199070D01*
X173732346Y-141214976D01*
X173745134Y-141232219D01*
X173756170Y-141250632D01*
X173765349Y-141270038D01*
X173772581Y-141290250D01*
X173777797Y-141311074D01*
X173780947Y-141332309D01*
X173782000Y-141353750D01*
X173782000Y-141866250D01*
X173780947Y-141887691D01*
X173777797Y-141908926D01*
X173772581Y-141929750D01*
X173765349Y-141949962D01*
X173756170Y-141969368D01*
X173745134Y-141987781D01*
X173732346Y-142005024D01*
X173717930Y-142020930D01*
X173702024Y-142035346D01*
X173684781Y-142048134D01*
X173666368Y-142059170D01*
X173646962Y-142068349D01*
X173626750Y-142075581D01*
X173605926Y-142080797D01*
X173584691Y-142083947D01*
X173563250Y-142085000D01*
X173125750Y-142085000D01*
X173104309Y-142083947D01*
X173083074Y-142080797D01*
X173062250Y-142075581D01*
X173042038Y-142068349D01*
X173022632Y-142059170D01*
X173004219Y-142048134D01*
X172986976Y-142035346D01*
X172971070Y-142020930D01*
X172956654Y-142005024D01*
X172943866Y-141987781D01*
X172932830Y-141969368D01*
X172923651Y-141949962D01*
X172916419Y-141929750D01*
X172911203Y-141908926D01*
X172908053Y-141887691D01*
X172907000Y-141866250D01*
X172907000Y-141353750D01*
X172908053Y-141332309D01*
X172911203Y-141311074D01*
X172916419Y-141290250D01*
X172923651Y-141270038D01*
X172932830Y-141250632D01*
X172943866Y-141232219D01*
X172956654Y-141214976D01*
X172971070Y-141199070D01*
X172986976Y-141184654D01*
X173004219Y-141171866D01*
X173022632Y-141160830D01*
X173042038Y-141151651D01*
X173062250Y-141144419D01*
X173083074Y-141139203D01*
X173104309Y-141136053D01*
X173125750Y-141135000D01*
X173563250Y-141135000D01*
X173584691Y-141136053D01*
X173584691Y-141136053D01*
G37*
D13*
X173344500Y-141610000D03*
D29*
X169005600Y-149679100D03*
X149792900Y-148472400D03*
X157550000Y-141790000D03*
X162740000Y-133300000D03*
X169890000Y-135540000D03*
X134480000Y-136400000D03*
X134250000Y-147720000D03*
X156635000Y-148635000D03*
X157340000Y-133050000D03*
X142030000Y-140110000D03*
X151930000Y-139480000D03*
X145060000Y-141810000D03*
X137434700Y-142919300D03*
X136999990Y-149727000D03*
X137380200Y-134644900D03*
X163913300Y-150517100D03*
X138135300Y-143779300D03*
X170971300Y-146950200D03*
X172200000Y-141570000D03*
X161990000Y-141470000D03*
X162080000Y-137970000D03*
X152028300Y-132897500D03*
X153315267Y-138829935D03*
X170935300Y-141717700D03*
X154587200Y-148112100D03*
X164778000Y-143443400D03*
X185350000Y-134260000D03*
X160706800Y-142086500D03*
X161224100Y-145076100D03*
X161886500Y-144240000D03*
X157504600Y-145431700D03*
X157480000Y-137010002D03*
X157740000Y-140290000D03*
X158711269Y-139103185D03*
X160015000Y-138285000D03*
X151783900Y-149091600D03*
X160206900Y-145346600D03*
X162936500Y-144748400D03*
X167557100Y-145341100D03*
X176932400Y-140049600D03*
X172884700Y-149460500D03*
X178414500Y-147693700D03*
X136198700Y-140970000D03*
X168585200Y-148690400D03*
X166507000Y-142694700D03*
X171930000Y-150300000D03*
D30*
X167935000Y-131525000D02*
X165710600Y-131525000D01*
X165710600Y-131525000D02*
X160946500Y-136289100D01*
X165585000Y-146625000D02*
X165585000Y-147505300D01*
X165585000Y-147505300D02*
X167758800Y-149679100D01*
X167758800Y-149679100D02*
X169005600Y-149679100D01*
X168017500Y-151500000D02*
X168017500Y-150667200D01*
X168017500Y-150667200D02*
X169005600Y-149679100D01*
X145400000Y-136800000D02*
X149010000Y-136800000D01*
X149010000Y-136800000D02*
X151963300Y-139753300D01*
X168017500Y-151500000D02*
X167255800Y-152261700D01*
X167255800Y-152261700D02*
X160584200Y-152261700D01*
X160584200Y-152261700D02*
X159592500Y-151270000D01*
X154435000Y-142325000D02*
X155188500Y-142325000D01*
X183600000Y-135930000D02*
X183600000Y-136400000D01*
X183600000Y-136400000D02*
X181000000Y-139000000D01*
X174157200Y-145668100D02*
X174409100Y-145920000D01*
X174409100Y-145920000D02*
X175200000Y-145920000D01*
X174919500Y-141610000D02*
X174157200Y-142372300D01*
X174157200Y-142372300D02*
X174157200Y-145668100D01*
X174157200Y-145668100D02*
X173905300Y-145920000D01*
X173300000Y-145920000D02*
X173905300Y-145920000D01*
X148160000Y-147590000D02*
X148910500Y-147590000D01*
X148910500Y-147590000D02*
X149792900Y-148472400D01*
X149792900Y-148472400D02*
X150500000Y-147765300D01*
X150500000Y-147765300D02*
X150500000Y-147567500D01*
X174457888Y-141148388D02*
X174919500Y-141610000D01*
X174152900Y-140843400D02*
X174457888Y-141148388D01*
X170832400Y-140843400D02*
X174152900Y-140843400D01*
X169470000Y-142205800D02*
X170832400Y-140843400D01*
X169005600Y-149679100D02*
X169470000Y-149214700D01*
X169470000Y-149214700D02*
X169470000Y-142205800D01*
X155723500Y-141790000D02*
X156984315Y-141790000D01*
X156984315Y-141790000D02*
X157550000Y-141790000D01*
X155188500Y-142325000D02*
X155723500Y-141790000D01*
X158535000Y-144540800D02*
X158535000Y-146625000D01*
X160026400Y-143049400D02*
X158535000Y-144540800D01*
X160026400Y-141353600D02*
X160026400Y-143049400D01*
X160946500Y-136289100D02*
X160946500Y-140433500D01*
X160946500Y-140433500D02*
X160026400Y-141353600D01*
X154435000Y-133655300D02*
X154435000Y-131975000D01*
X155710000Y-134930300D02*
X154435000Y-133655300D01*
X155730000Y-136360000D02*
X155710000Y-136340000D01*
X155710000Y-136340000D02*
X155710000Y-134930300D01*
X155580000Y-135960000D02*
X155650000Y-136030000D01*
X160946500Y-136289100D02*
X160837900Y-136180500D01*
X155650000Y-141863500D02*
X155188500Y-142325000D01*
X158540500Y-136180500D02*
X158090000Y-135730000D01*
X160837900Y-136180500D02*
X158540500Y-136180500D01*
X158090000Y-135730000D02*
X156360000Y-135730000D01*
X155650000Y-136030000D02*
X155650000Y-141863500D01*
X156360000Y-135730000D02*
X156130000Y-135960000D01*
X156130000Y-135960000D02*
X155580000Y-135960000D01*
X152885000Y-142325000D02*
X154435000Y-142325000D01*
X151963300Y-139753300D02*
X151963300Y-141403300D01*
X151963300Y-141403300D02*
X152885000Y-142325000D01*
X158800000Y-149370000D02*
X159942500Y-149370000D01*
X158535000Y-146625000D02*
X158535000Y-149105000D01*
X158535000Y-149105000D02*
X158800000Y-149370000D01*
X175950000Y-145920000D02*
X175200000Y-145920000D01*
X181780000Y-150890000D02*
X180648600Y-150890000D01*
X183600000Y-149070000D02*
X181780000Y-150890000D01*
X180648600Y-150890000D02*
X177360800Y-147602200D01*
X177360800Y-147602200D02*
X176555000Y-147602200D01*
X176555000Y-147602200D02*
X175950000Y-146997200D01*
X175950000Y-146997200D02*
X175950000Y-145920000D01*
X187920000Y-134940000D02*
X187920000Y-132000000D01*
X186930000Y-135930000D02*
X187920000Y-134940000D01*
X139804500Y-145685500D02*
X139804500Y-146520000D01*
X141580000Y-143910000D02*
X139804500Y-145685500D01*
X151963300Y-139753300D02*
X147806600Y-143910000D01*
X147806600Y-143910000D02*
X141580000Y-143910000D01*
D31*
X162740000Y-133300000D02*
X167650000Y-133300000D01*
X167650000Y-133300000D02*
X169890000Y-135540000D01*
X159942500Y-150920000D02*
X159592500Y-151270000D01*
X159942500Y-149370000D02*
X159942500Y-150920000D01*
X158900000Y-151270000D02*
X159592500Y-151270000D01*
X158270000Y-150640000D02*
X158900000Y-151270000D01*
X156635000Y-148635000D02*
X158270000Y-150270000D01*
X158270000Y-150270000D02*
X158270000Y-150640000D01*
D30*
X184960000Y-150430000D02*
X183600000Y-149070000D01*
X189280000Y-150430000D02*
X184960000Y-150430000D01*
X190460000Y-153000000D02*
X190460000Y-151610000D01*
X190460000Y-151610000D02*
X189280000Y-150430000D01*
X175109500Y-141420000D02*
X174919500Y-141610000D01*
X179390000Y-141420000D02*
X175109500Y-141420000D01*
X179570000Y-141240000D02*
X179390000Y-141420000D01*
X181000000Y-139000000D02*
X179570000Y-140430000D01*
X179570000Y-140430000D02*
X179570000Y-141240000D01*
D32*
X173300000Y-146570000D02*
X172694700Y-146570000D01*
X172460000Y-144380500D02*
X172878888Y-143961612D01*
X172694700Y-146570000D02*
X172460000Y-146335300D01*
X172460000Y-146335300D02*
X172460000Y-144380500D01*
X155507700Y-151635300D02*
X157340100Y-153467700D01*
D31*
X172878888Y-143961612D02*
X173340500Y-143500000D01*
X172450000Y-144390500D02*
X172878888Y-143961612D01*
X172450000Y-146279002D02*
X172450000Y-144390500D01*
X173300000Y-146570000D02*
X172740998Y-146570000D01*
X172740998Y-146570000D02*
X172450000Y-146279002D01*
X157425510Y-153553110D02*
X157340100Y-153467700D01*
X157425510Y-153553110D02*
X155507700Y-151635300D01*
X137434700Y-142919300D02*
X136999990Y-143354010D01*
D32*
X137049990Y-150292685D02*
X137049990Y-149777000D01*
D31*
X136999990Y-149161315D02*
X136999990Y-149727000D01*
X136999990Y-143354010D02*
X136999990Y-149161315D01*
D32*
X137051100Y-150531380D02*
X137049990Y-150530270D01*
X137049990Y-149777000D02*
X136999990Y-149727000D01*
X137049990Y-150530270D02*
X137049990Y-150292685D01*
D31*
X155507700Y-151635300D02*
X138026462Y-151635300D01*
X136999990Y-150608828D02*
X137285581Y-150894419D01*
X136999990Y-149727000D02*
X136999990Y-150608828D01*
X138026462Y-151635300D02*
X137285581Y-150894419D01*
X137285581Y-150894419D02*
X137051100Y-150659938D01*
X157682400Y-153810000D02*
X157425510Y-153553110D01*
X169030000Y-153810000D02*
X157682400Y-153810000D01*
X171017310Y-151822690D02*
X169030000Y-153810000D01*
X171017310Y-149500926D02*
X171017310Y-151822690D01*
X173300000Y-146570000D02*
X172575000Y-146570000D01*
X172575000Y-146570000D02*
X172470000Y-146675000D01*
X172470000Y-146675000D02*
X172470000Y-147280000D01*
X172470000Y-147280000D02*
X171020000Y-148730000D01*
X171020000Y-148730000D02*
X171020000Y-149498236D01*
X171020000Y-149498236D02*
X171017310Y-149500926D01*
D30*
X172200000Y-141645000D02*
X170971300Y-142873700D01*
X170971300Y-142873700D02*
X170971300Y-146950200D01*
X173344500Y-141609500D02*
X173345000Y-141610000D01*
X172200000Y-141645000D02*
X172200000Y-141720000D01*
X172200000Y-141570000D02*
X172200000Y-141645000D01*
X173344500Y-141609500D02*
X173344500Y-141610000D01*
X172200000Y-141570000D02*
X173305000Y-141570000D01*
X173305000Y-141570000D02*
X173344500Y-141609500D01*
X137680000Y-149424500D02*
X138520000Y-148584500D01*
X150409500Y-150120000D02*
X149479500Y-151050000D01*
X137680000Y-150610000D02*
X137680000Y-149424500D01*
X149479500Y-151050000D02*
X138120000Y-151050000D01*
X138120000Y-151050000D02*
X137680000Y-150610000D01*
D33*
X138058388Y-148122888D02*
X138520000Y-148584500D01*
X137735301Y-147799801D02*
X138058388Y-148122888D01*
X137735301Y-144179299D02*
X137735301Y-147799801D01*
X138135300Y-143779300D02*
X137735301Y-144179299D01*
X170571301Y-147350199D02*
X170971300Y-146950200D01*
X150409500Y-150120000D02*
X156005976Y-150120000D01*
X156005976Y-150120000D02*
X159155974Y-153270000D01*
X159155974Y-153270000D02*
X168091124Y-153270000D01*
X168091124Y-153270000D02*
X170487300Y-150873824D01*
X170487300Y-150873824D02*
X170487300Y-147434200D01*
X170487300Y-147434200D02*
X170571301Y-147350199D01*
X170971300Y-142798700D02*
X172200000Y-141570000D01*
X170971300Y-146950200D02*
X170971300Y-142798700D01*
X173304500Y-141570000D02*
X173344500Y-141610000D01*
X172200000Y-141570000D02*
X173304500Y-141570000D01*
X164847500Y-151500000D02*
X164817500Y-151470000D01*
X166442500Y-151500000D02*
X164847500Y-151500000D01*
X163913300Y-150565800D02*
X164817500Y-151470000D01*
X163913300Y-150517100D02*
X163913300Y-150565800D01*
D30*
X161990000Y-141470000D02*
X161990000Y-138060000D01*
X161990000Y-138060000D02*
X162080000Y-137970000D01*
X137180000Y-134845100D02*
X137380200Y-134644900D01*
X137180000Y-138013100D02*
X137180000Y-134845100D01*
X138135300Y-143779300D02*
X138135300Y-138968400D01*
X138135300Y-138968400D02*
X137180000Y-138013100D01*
D31*
X190460000Y-132910000D02*
X190460000Y-132000000D01*
X193000000Y-153000000D02*
X193000000Y-135450000D01*
X193000000Y-135450000D02*
X190460000Y-132910000D01*
X179045500Y-146000000D02*
X178425500Y-146620000D01*
X181000000Y-146000000D02*
X179045500Y-146000000D01*
X178425500Y-145425500D02*
X178425500Y-144950000D01*
X181000000Y-146000000D02*
X179000000Y-146000000D01*
X179000000Y-146000000D02*
X178425500Y-145425500D01*
X178200000Y-144724500D02*
X178425500Y-144950000D01*
X178200000Y-143167500D02*
X178200000Y-144724500D01*
D30*
X153488593Y-138090924D02*
X153315267Y-138264250D01*
X153315267Y-138264250D02*
X153315267Y-138829935D01*
X152028300Y-132897500D02*
X153488593Y-134357793D01*
X153488593Y-134357793D02*
X153488593Y-138090924D01*
X154987199Y-148512099D02*
X154587200Y-148112100D01*
X169940000Y-142713000D02*
X169940000Y-150813000D01*
X169940000Y-150813000D02*
X168060300Y-152692700D01*
X168060300Y-152692700D02*
X159186800Y-152692700D01*
X159186800Y-152692700D02*
X155006199Y-148512099D01*
X170935300Y-141717700D02*
X169940000Y-142713000D01*
X155006199Y-148512099D02*
X154987199Y-148512099D01*
X181770099Y-133860001D02*
X184950001Y-133860001D01*
X184950001Y-133860001D02*
X185350000Y-134260000D01*
X177492900Y-138137200D02*
X181770099Y-133860001D01*
X170084200Y-138137200D02*
X177492900Y-138137200D01*
X164778000Y-143443400D02*
X170084200Y-138137200D01*
X159635000Y-145744700D02*
X159473500Y-145583200D01*
X159473500Y-145583200D02*
X159473500Y-144140100D01*
X159473500Y-144140100D02*
X160706800Y-142906800D01*
X160706800Y-142906800D02*
X160706800Y-142086500D01*
X159635000Y-146625000D02*
X159635000Y-145744700D01*
X161835000Y-146625000D02*
X161835000Y-145687000D01*
X161835000Y-145687000D02*
X161224100Y-145076100D01*
X162935000Y-146625000D02*
X162935000Y-145744700D01*
X162935000Y-145744700D02*
X161886500Y-144696200D01*
X161886500Y-144696200D02*
X161886500Y-144240000D01*
X148160000Y-145990000D02*
X148160000Y-146720300D01*
X148160000Y-146720300D02*
X149772200Y-146720300D01*
X149772200Y-146720300D02*
X150500000Y-145992500D01*
X157435000Y-146625000D02*
X157435000Y-145501300D01*
X157435000Y-145501300D02*
X157504600Y-145431700D01*
X138800000Y-136800000D02*
X138871900Y-136871900D01*
X138871900Y-136871900D02*
X138871900Y-147343500D01*
X138871900Y-147343500D02*
X140769100Y-149240700D01*
X140769100Y-149240700D02*
X146216200Y-149240700D01*
X146216200Y-149240700D02*
X147135500Y-150160000D01*
X161517500Y-151245000D02*
X161517500Y-149370000D01*
X161517500Y-151245000D02*
X163017500Y-151245000D01*
X163017500Y-151245000D02*
X163242500Y-151470000D01*
X161467500Y-151270000D02*
X161492500Y-151245000D01*
X161492500Y-151245000D02*
X161517500Y-151245000D01*
D33*
X160735000Y-148587500D02*
X161517500Y-149370000D01*
X160735000Y-146625000D02*
X160735000Y-148587500D01*
X161517500Y-151220000D02*
X161467500Y-151270000D01*
X161517500Y-149370000D02*
X161517500Y-151220000D01*
X163042500Y-151270000D02*
X163242500Y-151470000D01*
X161467500Y-151270000D02*
X163042500Y-151270000D01*
D30*
X141500000Y-148130000D02*
X141500000Y-147399700D01*
X141500000Y-147399700D02*
X141379500Y-147279200D01*
X141379500Y-147279200D02*
X141379500Y-146520000D01*
X142129700Y-146770000D02*
X141500000Y-147399700D01*
X147260000Y-145990000D02*
X147260000Y-146770000D01*
X147260000Y-146770000D02*
X142129700Y-146770000D01*
X140550000Y-150130000D02*
X138549500Y-150130000D01*
X138549500Y-150130000D02*
X138520000Y-150159500D01*
X142450000Y-150130000D02*
X145530500Y-150130000D01*
X145530500Y-150130000D02*
X145560500Y-150160000D01*
X148792584Y-150120000D02*
X148834500Y-150120000D01*
X148480000Y-150120000D02*
X148792584Y-150120000D01*
X146360000Y-147590000D02*
X146360000Y-148000000D01*
X146360000Y-148000000D02*
X148480000Y-150120000D01*
X157879999Y-137410001D02*
X157480000Y-137010002D01*
X148654900Y-149184900D02*
X150728700Y-149184900D01*
X147260000Y-147790000D02*
X148654900Y-149184900D01*
X159391271Y-139429587D02*
X159391271Y-138776783D01*
X159187100Y-142755500D02*
X159187100Y-139633758D01*
X159187100Y-139633758D02*
X159391271Y-139429587D01*
X159391271Y-138776783D02*
X158024489Y-137410001D01*
X155893700Y-144019900D02*
X157922700Y-144019900D01*
X150728700Y-149184900D02*
X155893700Y-144019900D01*
X158024489Y-137410001D02*
X157879999Y-137410001D01*
X147260000Y-147590000D02*
X147260000Y-147790000D01*
X157922700Y-144019900D02*
X159187100Y-142755500D01*
X145460000Y-147590000D02*
X145010000Y-147590000D01*
X143739600Y-148860400D02*
X140926700Y-148860400D01*
X140926700Y-148860400D02*
X140609800Y-148543500D01*
X153288800Y-143205400D02*
X157654000Y-143205400D01*
X158139999Y-140689999D02*
X157740000Y-140290000D01*
X145010000Y-147590000D02*
X143739600Y-148860400D01*
X151734211Y-144759989D02*
X153288800Y-143205400D01*
X141931911Y-144759989D02*
X151734211Y-144759989D01*
X140609800Y-146082100D02*
X141931911Y-144759989D01*
X140609800Y-148543500D02*
X140609800Y-146082100D01*
X158309999Y-140859999D02*
X158139999Y-140689999D01*
X157654000Y-143205400D02*
X158309999Y-142549401D01*
X158309999Y-142549401D02*
X158309999Y-140859999D01*
X158711269Y-139668870D02*
X158711269Y-139103185D01*
X145460000Y-145990000D02*
X145460000Y-145790000D01*
X157788600Y-143613800D02*
X158711269Y-142691131D01*
X145460000Y-145790000D02*
X146110000Y-145140000D01*
X158711269Y-142691131D02*
X158711269Y-139668870D01*
X155348300Y-143613800D02*
X157788600Y-143613800D01*
X146110000Y-145140000D02*
X153822100Y-145140000D01*
X153822100Y-145140000D02*
X155348300Y-143613800D01*
X155871500Y-144739200D02*
X152183899Y-148426801D01*
X160015000Y-139343274D02*
X159634700Y-139723574D01*
X152183899Y-148426801D02*
X152183899Y-148691601D01*
X157798800Y-144739200D02*
X155871500Y-144739200D01*
X152183899Y-148691601D02*
X151783900Y-149091600D01*
X160015000Y-138285000D02*
X160015000Y-139343274D01*
X159634700Y-139723574D02*
X159634700Y-142903300D01*
X159634700Y-142903300D02*
X157798800Y-144739200D01*
X160206900Y-144953400D02*
X160206900Y-145346600D01*
X168130300Y-137030000D02*
X160206900Y-144953400D01*
X177420000Y-137030000D02*
X168130300Y-137030000D01*
X182840000Y-132000000D02*
X182450000Y-132000000D01*
X182450000Y-132000000D02*
X177420000Y-137030000D01*
X169709204Y-137410011D02*
X162936500Y-144182715D01*
X162936500Y-144182715D02*
X162936500Y-144748400D01*
X181687300Y-133340000D02*
X177617289Y-137410011D01*
X184040000Y-133340000D02*
X181687300Y-133340000D01*
X177617289Y-137410011D02*
X169709204Y-137410011D01*
X185380000Y-132000000D02*
X184040000Y-133340000D01*
X167557100Y-145341100D02*
X167557100Y-143516200D01*
X167557100Y-143516200D02*
X171023700Y-140049600D01*
X171023700Y-140049600D02*
X176932400Y-140049600D01*
X174071900Y-148273300D02*
X172884700Y-149460500D01*
X177494100Y-148273300D02*
X174071900Y-148273300D01*
X180800800Y-151580000D02*
X177494100Y-148273300D01*
X185652400Y-151580000D02*
X180800800Y-151580000D01*
X187920000Y-153000000D02*
X187072400Y-153000000D01*
X187072400Y-153000000D02*
X185652400Y-151580000D01*
X178414500Y-147693700D02*
X177990100Y-147693700D01*
X177990100Y-147693700D02*
X176916400Y-146620000D01*
X176916400Y-146620000D02*
X176850500Y-146620000D01*
D31*
X136198700Y-140970000D02*
X136198700Y-150678700D01*
X137735310Y-152215310D02*
X136198700Y-150678700D01*
X143405310Y-152215310D02*
X137735310Y-152215310D01*
X144640000Y-153450000D02*
X143405310Y-152215310D01*
D32*
X176850500Y-144950000D02*
X176313000Y-144950000D01*
X175242350Y-145227650D02*
X175200000Y-145270000D01*
D31*
X175520000Y-144950000D02*
X175200000Y-145270000D01*
X176850500Y-144950000D02*
X175520000Y-144950000D01*
X175200000Y-143784500D02*
X174915500Y-143500000D01*
X175200000Y-145270000D02*
X175200000Y-143784500D01*
D30*
X168585200Y-148690400D02*
X166507000Y-146612200D01*
X166507000Y-146612200D02*
X166507000Y-142694700D01*
X171930000Y-149315000D02*
X171930000Y-149734315D01*
X174675000Y-146570000D02*
X171930000Y-149315000D01*
X171930000Y-149734315D02*
X171930000Y-150300000D01*
X175200000Y-146570000D02*
X174675000Y-146570000D01*
D34*
G36*
X149324188Y-152475518D02*
G01*
X149311928Y-152600000D01*
X149311928Y-154300000D01*
X149315868Y-154340000D01*
X148367386Y-154340000D01*
X148375178Y-154331355D01*
X148524157Y-154081252D01*
X148621481Y-153806891D01*
X148500814Y-153577000D01*
X147307000Y-153577000D01*
X147307000Y-153597000D01*
X147053000Y-153597000D01*
X147053000Y-153577000D01*
X147033000Y-153577000D01*
X147033000Y-153323000D01*
X147053000Y-153323000D01*
X147053000Y-153303000D01*
X147307000Y-153303000D01*
X147307000Y-153323000D01*
X148500814Y-153323000D01*
X148621481Y-153093109D01*
X148524157Y-152818748D01*
X148375178Y-152568645D01*
X148286531Y-152470300D01*
X149325771Y-152470300D01*
X149324188Y-152475518D01*
X149324188Y-152475518D01*
G37*
X149324188Y-152475518D02*
X149311928Y-152600000D01*
X149311928Y-154300000D01*
X149315868Y-154340000D01*
X148367386Y-154340000D01*
X148375178Y-154331355D01*
X148524157Y-154081252D01*
X148621481Y-153806891D01*
X148500814Y-153577000D01*
X147307000Y-153577000D01*
X147307000Y-153597000D01*
X147053000Y-153597000D01*
X147053000Y-153577000D01*
X147033000Y-153577000D01*
X147033000Y-153323000D01*
X147053000Y-153323000D01*
X147053000Y-153303000D01*
X147307000Y-153303000D01*
X147307000Y-153323000D01*
X148500814Y-153323000D01*
X148621481Y-153093109D01*
X148524157Y-152818748D01*
X148375178Y-152568645D01*
X148286531Y-152470300D01*
X149325771Y-152470300D01*
X149324188Y-152475518D01*
G36*
X153300000Y-131689250D02*
G01*
X153458750Y-131848000D01*
X154308000Y-131848000D01*
X154308000Y-131828000D01*
X154562000Y-131828000D01*
X154562000Y-131848000D01*
X155411250Y-131848000D01*
X155570000Y-131689250D01*
X155572838Y-130660000D01*
X166647321Y-130660000D01*
X166650000Y-131239250D01*
X166808750Y-131398000D01*
X167808000Y-131398000D01*
X167808000Y-131378000D01*
X168062000Y-131378000D01*
X168062000Y-131398000D01*
X169061250Y-131398000D01*
X169220000Y-131239250D01*
X169222679Y-130660000D01*
X182196752Y-130660000D01*
X182010986Y-130759294D01*
X181784866Y-130944866D01*
X181599294Y-131170986D01*
X181461401Y-131428966D01*
X181376487Y-131708889D01*
X181347815Y-132000000D01*
X181353440Y-132057113D01*
X177115554Y-136295000D01*
X168166405Y-136295000D01*
X168130300Y-136291444D01*
X167986215Y-136305635D01*
X167847666Y-136347663D01*
X167767616Y-136390451D01*
X167719980Y-136415913D01*
X167608062Y-136507762D01*
X167585046Y-136535807D01*
X162975714Y-141145139D01*
X162907205Y-140979744D01*
X162793937Y-140810226D01*
X162725000Y-140741289D01*
X162725000Y-138783809D01*
X162739774Y-138773937D01*
X162883937Y-138629774D01*
X162997205Y-138460256D01*
X163075226Y-138271898D01*
X163115000Y-138071939D01*
X163115000Y-137868061D01*
X163075226Y-137668102D01*
X162997205Y-137479744D01*
X162883937Y-137310226D01*
X162739774Y-137166063D01*
X162570256Y-137052795D01*
X162381898Y-136974774D01*
X162181939Y-136935000D01*
X161978061Y-136935000D01*
X161778102Y-136974774D01*
X161589744Y-137052795D01*
X161420226Y-137166063D01*
X161276063Y-137310226D01*
X161162795Y-137479744D01*
X161084774Y-137668102D01*
X161045000Y-137868061D01*
X161045000Y-138071939D01*
X161084774Y-138271898D01*
X161162795Y-138460256D01*
X161255001Y-138598252D01*
X161255000Y-140741289D01*
X161186063Y-140810226D01*
X161072795Y-140979744D01*
X161023976Y-141097602D01*
X161008698Y-141091274D01*
X160808739Y-141051500D01*
X160604861Y-141051500D01*
X160404902Y-141091274D01*
X160369700Y-141105855D01*
X160369700Y-140028020D01*
X160509187Y-139888533D01*
X160537238Y-139865512D01*
X160629087Y-139753594D01*
X160697337Y-139625907D01*
X160739365Y-139487359D01*
X160750000Y-139379379D01*
X160750000Y-139379370D01*
X160753555Y-139343275D01*
X160750000Y-139307180D01*
X160750000Y-139013711D01*
X160818937Y-138944774D01*
X160932205Y-138775256D01*
X161010226Y-138586898D01*
X161050000Y-138386939D01*
X161050000Y-138183061D01*
X161010226Y-137983102D01*
X160932205Y-137794744D01*
X160818937Y-137625226D01*
X160674774Y-137481063D01*
X160505256Y-137367795D01*
X160316898Y-137289774D01*
X160116939Y-137250000D01*
X159913061Y-137250000D01*
X159713102Y-137289774D01*
X159524744Y-137367795D01*
X159355226Y-137481063D01*
X159245112Y-137591177D01*
X158569747Y-136915813D01*
X158546727Y-136887763D01*
X158503985Y-136852685D01*
X158475226Y-136708104D01*
X158397205Y-136519746D01*
X158283937Y-136350228D01*
X158139774Y-136206065D01*
X157970256Y-136092797D01*
X157781898Y-136014776D01*
X157581939Y-135975002D01*
X157378061Y-135975002D01*
X157178102Y-136014776D01*
X156989744Y-136092797D01*
X156820226Y-136206065D01*
X156676063Y-136350228D01*
X156562795Y-136519746D01*
X156484774Y-136708104D01*
X156445000Y-136908063D01*
X156445000Y-137111941D01*
X156484774Y-137311900D01*
X156562795Y-137500258D01*
X156676063Y-137669776D01*
X156820226Y-137813939D01*
X156989744Y-137927207D01*
X157178102Y-138005228D01*
X157378061Y-138045002D01*
X157508806Y-138045002D01*
X157597366Y-138092338D01*
X157689103Y-138120166D01*
X157697866Y-138122824D01*
X157962892Y-138387851D01*
X157907332Y-138443411D01*
X157794064Y-138612929D01*
X157716043Y-138801287D01*
X157676269Y-139001246D01*
X157676269Y-139205124D01*
X157686190Y-139255000D01*
X157638061Y-139255000D01*
X157438102Y-139294774D01*
X157249744Y-139372795D01*
X157080226Y-139486063D01*
X156936063Y-139630226D01*
X156822795Y-139799744D01*
X156744774Y-139988102D01*
X156705000Y-140188061D01*
X156705000Y-140391939D01*
X156744774Y-140591898D01*
X156822795Y-140780256D01*
X156936063Y-140949774D01*
X157080226Y-141093937D01*
X157249744Y-141207205D01*
X157438102Y-141285226D01*
X157575000Y-141312456D01*
X157574999Y-142244954D01*
X157349554Y-142470400D01*
X155429650Y-142470400D01*
X155411250Y-142452000D01*
X154562000Y-142452000D01*
X154562000Y-142470400D01*
X154308000Y-142470400D01*
X154308000Y-142452000D01*
X153458750Y-142452000D01*
X153440350Y-142470400D01*
X153324905Y-142470400D01*
X153288800Y-142466844D01*
X153252695Y-142470400D01*
X153144715Y-142481035D01*
X153006167Y-142523063D01*
X152878480Y-142591313D01*
X152766562Y-142683162D01*
X152743546Y-142711207D01*
X151429765Y-144024989D01*
X141968005Y-144024989D01*
X141931910Y-144021434D01*
X141895815Y-144024989D01*
X141895806Y-144024989D01*
X141787826Y-144035624D01*
X141649278Y-144077652D01*
X141521591Y-144145902D01*
X141409673Y-144237751D01*
X141386657Y-144265796D01*
X140245210Y-145407244D01*
X140242000Y-145406928D01*
X140090250Y-145410000D01*
X139931500Y-145568750D01*
X139931500Y-145791916D01*
X139927464Y-145799467D01*
X139885435Y-145938015D01*
X139871244Y-146082100D01*
X139874801Y-146118215D01*
X139874801Y-146667000D01*
X139677500Y-146667000D01*
X139677500Y-146647000D01*
X139657500Y-146647000D01*
X139657500Y-146393000D01*
X139677500Y-146393000D01*
X139677500Y-145568750D01*
X139606900Y-145498150D01*
X139606900Y-141725000D01*
X153296928Y-141725000D01*
X153300000Y-142039250D01*
X153458750Y-142198000D01*
X154308000Y-142198000D01*
X154308000Y-141248750D01*
X154562000Y-141248750D01*
X154562000Y-142198000D01*
X155411250Y-142198000D01*
X155570000Y-142039250D01*
X155573072Y-141725000D01*
X155560812Y-141600518D01*
X155524502Y-141480820D01*
X155465537Y-141370506D01*
X155386185Y-141273815D01*
X155289494Y-141194463D01*
X155179180Y-141135498D01*
X155059482Y-141099188D01*
X154935000Y-141086928D01*
X154720750Y-141090000D01*
X154562000Y-141248750D01*
X154308000Y-141248750D01*
X154149250Y-141090000D01*
X153935000Y-141086928D01*
X153810518Y-141099188D01*
X153690820Y-141135498D01*
X153580506Y-141194463D01*
X153483815Y-141273815D01*
X153404463Y-141370506D01*
X153345498Y-141480820D01*
X153309188Y-141600518D01*
X153296928Y-141725000D01*
X139606900Y-141725000D01*
X139606900Y-138800000D01*
X142761928Y-138800000D01*
X142774188Y-138924482D01*
X142810498Y-139044180D01*
X142869463Y-139154494D01*
X142948815Y-139251185D01*
X143045506Y-139330537D01*
X143155820Y-139389502D01*
X143275518Y-139425812D01*
X143400000Y-139438072D01*
X145114250Y-139435000D01*
X145273000Y-139276250D01*
X145273000Y-136927000D01*
X145527000Y-136927000D01*
X145527000Y-139276250D01*
X145685750Y-139435000D01*
X147400000Y-139438072D01*
X147524482Y-139425812D01*
X147644180Y-139389502D01*
X147754494Y-139330537D01*
X147851185Y-139251185D01*
X147930537Y-139154494D01*
X147989502Y-139044180D01*
X148025812Y-138924482D01*
X148038072Y-138800000D01*
X148035000Y-137085750D01*
X147876250Y-136927000D01*
X145527000Y-136927000D01*
X145273000Y-136927000D01*
X142923750Y-136927000D01*
X142765000Y-137085750D01*
X142761928Y-138800000D01*
X139606900Y-138800000D01*
X139606900Y-138451961D01*
X139669199Y-138426156D01*
X139969744Y-138225338D01*
X140225338Y-137969744D01*
X140426156Y-137669199D01*
X140564482Y-137335250D01*
X140635000Y-136980732D01*
X140635000Y-136619268D01*
X140564482Y-136264750D01*
X140426156Y-135930801D01*
X140225338Y-135630256D01*
X139969744Y-135374662D01*
X139669199Y-135173844D01*
X139335250Y-135035518D01*
X138980732Y-134965000D01*
X138619268Y-134965000D01*
X138345315Y-135019493D01*
X138375426Y-134946798D01*
X138404625Y-134800000D01*
X142761928Y-134800000D01*
X142765000Y-136514250D01*
X142923750Y-136673000D01*
X145273000Y-136673000D01*
X145273000Y-134323750D01*
X145527000Y-134323750D01*
X145527000Y-136673000D01*
X147876250Y-136673000D01*
X147929982Y-136619268D01*
X150165000Y-136619268D01*
X150165000Y-136980732D01*
X150235518Y-137335250D01*
X150373844Y-137669199D01*
X150574662Y-137969744D01*
X150830256Y-138225338D01*
X151130801Y-138426156D01*
X151464750Y-138564482D01*
X151819268Y-138635000D01*
X152180732Y-138635000D01*
X152303627Y-138610555D01*
X152280267Y-138727996D01*
X152280267Y-138931874D01*
X152320041Y-139131833D01*
X152398062Y-139320191D01*
X152511330Y-139489709D01*
X152655493Y-139633872D01*
X152825011Y-139747140D01*
X153013369Y-139825161D01*
X153213328Y-139864935D01*
X153417206Y-139864935D01*
X153617165Y-139825161D01*
X153805523Y-139747140D01*
X153975041Y-139633872D01*
X154119204Y-139489709D01*
X154232472Y-139320191D01*
X154310493Y-139131833D01*
X154350267Y-138931874D01*
X154350267Y-138727996D01*
X154310493Y-138528037D01*
X154232472Y-138339679D01*
X154197214Y-138286911D01*
X154207612Y-138252633D01*
X154212958Y-138235010D01*
X154227149Y-138090924D01*
X154223593Y-138054819D01*
X154223593Y-137163072D01*
X154935000Y-137163072D01*
X155059482Y-137150812D01*
X155179180Y-137114502D01*
X155289494Y-137055537D01*
X155386185Y-136976185D01*
X155465537Y-136879494D01*
X155524502Y-136769180D01*
X155560812Y-136649482D01*
X155573072Y-136525000D01*
X155573072Y-135725000D01*
X155560812Y-135600518D01*
X155524502Y-135480820D01*
X155465537Y-135370506D01*
X155386185Y-135273815D01*
X155289494Y-135194463D01*
X155179180Y-135135498D01*
X155059482Y-135099188D01*
X154935000Y-135086928D01*
X154223593Y-135086928D01*
X154223593Y-134393889D01*
X154227148Y-134357792D01*
X154223593Y-134321695D01*
X154223593Y-134321688D01*
X154212958Y-134213708D01*
X154211985Y-134210498D01*
X154185377Y-134122786D01*
X154170930Y-134075160D01*
X154136201Y-134010187D01*
X154149250Y-134010000D01*
X154308000Y-133851250D01*
X154308000Y-132102000D01*
X154562000Y-132102000D01*
X154562000Y-133851250D01*
X154720750Y-134010000D01*
X154935000Y-134013072D01*
X155059482Y-134000812D01*
X155179180Y-133964502D01*
X155289494Y-133905537D01*
X155386185Y-133826185D01*
X155465537Y-133729494D01*
X155524502Y-133619180D01*
X155560812Y-133499482D01*
X155573072Y-133375000D01*
X155570591Y-132475000D01*
X166646928Y-132475000D01*
X166659188Y-132599482D01*
X166695498Y-132719180D01*
X166754463Y-132829494D01*
X166833815Y-132926185D01*
X166930506Y-133005537D01*
X167040820Y-133064502D01*
X167160518Y-133100812D01*
X167285000Y-133113072D01*
X167649250Y-133110000D01*
X167808000Y-132951250D01*
X167808000Y-131652000D01*
X168062000Y-131652000D01*
X168062000Y-132951250D01*
X168220750Y-133110000D01*
X168585000Y-133113072D01*
X168709482Y-133100812D01*
X168829180Y-133064502D01*
X168939494Y-133005537D01*
X169036185Y-132926185D01*
X169115537Y-132829494D01*
X169142060Y-132779872D01*
X173765000Y-132779872D01*
X173765000Y-133220128D01*
X173850890Y-133651925D01*
X174019369Y-134058669D01*
X174263962Y-134424729D01*
X174575271Y-134736038D01*
X174941331Y-134980631D01*
X175348075Y-135149110D01*
X175779872Y-135235000D01*
X176220128Y-135235000D01*
X176651925Y-135149110D01*
X177058669Y-134980631D01*
X177424729Y-134736038D01*
X177736038Y-134424729D01*
X177980631Y-134058669D01*
X178149110Y-133651925D01*
X178235000Y-133220128D01*
X178235000Y-132779872D01*
X178149110Y-132348075D01*
X177980631Y-131941331D01*
X177736038Y-131575271D01*
X177424729Y-131263962D01*
X177058669Y-131019369D01*
X176651925Y-130850890D01*
X176220128Y-130765000D01*
X175779872Y-130765000D01*
X175348075Y-130850890D01*
X174941331Y-131019369D01*
X174575271Y-131263962D01*
X174263962Y-131575271D01*
X174019369Y-131941331D01*
X173850890Y-132348075D01*
X173765000Y-132779872D01*
X169142060Y-132779872D01*
X169174502Y-132719180D01*
X169210812Y-132599482D01*
X169223072Y-132475000D01*
X169220000Y-131810750D01*
X169061250Y-131652000D01*
X168062000Y-131652000D01*
X167808000Y-131652000D01*
X166808750Y-131652000D01*
X166650000Y-131810750D01*
X166646928Y-132475000D01*
X155570591Y-132475000D01*
X155570000Y-132260750D01*
X155411250Y-132102000D01*
X154562000Y-132102000D01*
X154308000Y-132102000D01*
X153458750Y-132102000D01*
X153300000Y-132260750D01*
X153297611Y-133127364D01*
X153063300Y-132893054D01*
X153063300Y-132795561D01*
X153023526Y-132595602D01*
X152945505Y-132407244D01*
X152832237Y-132237726D01*
X152688074Y-132093563D01*
X152518556Y-131980295D01*
X152330198Y-131902274D01*
X152130239Y-131862500D01*
X151926361Y-131862500D01*
X151726402Y-131902274D01*
X151538044Y-131980295D01*
X151368526Y-132093563D01*
X151224363Y-132237726D01*
X151111095Y-132407244D01*
X151033074Y-132595602D01*
X150993300Y-132795561D01*
X150993300Y-132999439D01*
X151033074Y-133199398D01*
X151111095Y-133387756D01*
X151224363Y-133557274D01*
X151368526Y-133701437D01*
X151538044Y-133814705D01*
X151726402Y-133892726D01*
X151926361Y-133932500D01*
X152023854Y-133932500D01*
X152753593Y-134662240D01*
X152753593Y-135125959D01*
X152535250Y-135035518D01*
X152180732Y-134965000D01*
X151819268Y-134965000D01*
X151464750Y-135035518D01*
X151130801Y-135173844D01*
X150830256Y-135374662D01*
X150574662Y-135630256D01*
X150373844Y-135930801D01*
X150235518Y-136264750D01*
X150165000Y-136619268D01*
X147929982Y-136619268D01*
X148035000Y-136514250D01*
X148038072Y-134800000D01*
X148025812Y-134675518D01*
X147989502Y-134555820D01*
X147930537Y-134445506D01*
X147851185Y-134348815D01*
X147754494Y-134269463D01*
X147644180Y-134210498D01*
X147524482Y-134174188D01*
X147400000Y-134161928D01*
X145685750Y-134165000D01*
X145527000Y-134323750D01*
X145273000Y-134323750D01*
X145114250Y-134165000D01*
X143400000Y-134161928D01*
X143275518Y-134174188D01*
X143155820Y-134210498D01*
X143045506Y-134269463D01*
X142948815Y-134348815D01*
X142869463Y-134445506D01*
X142810498Y-134555820D01*
X142774188Y-134675518D01*
X142761928Y-134800000D01*
X138404625Y-134800000D01*
X138415200Y-134746839D01*
X138415200Y-134542961D01*
X138375426Y-134343002D01*
X138297405Y-134154644D01*
X138184137Y-133985126D01*
X138039974Y-133840963D01*
X137870456Y-133727695D01*
X137682098Y-133649674D01*
X137482139Y-133609900D01*
X137278261Y-133609900D01*
X137078302Y-133649674D01*
X136889944Y-133727695D01*
X136720426Y-133840963D01*
X136576263Y-133985126D01*
X136462995Y-134154644D01*
X136384974Y-134343002D01*
X136345200Y-134542961D01*
X136345200Y-134746839D01*
X136384974Y-134946798D01*
X136445001Y-135091715D01*
X136445000Y-137976995D01*
X136441444Y-138013100D01*
X136455635Y-138157185D01*
X136463485Y-138183061D01*
X136497663Y-138295732D01*
X136565913Y-138423419D01*
X136657762Y-138535337D01*
X136685808Y-138558354D01*
X137400301Y-139272848D01*
X137400300Y-141884300D01*
X137332761Y-141884300D01*
X137132802Y-141924074D01*
X137033700Y-141965124D01*
X137033700Y-141583285D01*
X137115905Y-141460256D01*
X137193926Y-141271898D01*
X137233700Y-141071939D01*
X137233700Y-140868061D01*
X137193926Y-140668102D01*
X137115905Y-140479744D01*
X137002637Y-140310226D01*
X136858474Y-140166063D01*
X136688956Y-140052795D01*
X136500598Y-139974774D01*
X136300639Y-139935000D01*
X136096761Y-139935000D01*
X135896802Y-139974774D01*
X135708444Y-140052795D01*
X135538926Y-140166063D01*
X135493274Y-140211715D01*
X135516096Y-139980000D01*
X135491768Y-139732997D01*
X135419720Y-139495486D01*
X135302720Y-139276595D01*
X135145265Y-139084735D01*
X134953405Y-138927280D01*
X134734514Y-138810280D01*
X134497003Y-138738232D01*
X134311893Y-138720000D01*
X134188107Y-138720000D01*
X134002997Y-138738232D01*
X133765486Y-138810280D01*
X133546595Y-138927280D01*
X133354735Y-139084735D01*
X133197280Y-139276595D01*
X133080280Y-139495486D01*
X133008232Y-139732997D01*
X132983904Y-139980000D01*
X133008232Y-140227003D01*
X133080280Y-140464514D01*
X133197280Y-140683405D01*
X133354735Y-140875265D01*
X133546595Y-141032720D01*
X133765486Y-141149720D01*
X134002997Y-141221768D01*
X134188107Y-141240000D01*
X134311893Y-141240000D01*
X134497003Y-141221768D01*
X134734514Y-141149720D01*
X134953405Y-141032720D01*
X135145265Y-140875265D01*
X135167706Y-140847920D01*
X135163700Y-140868061D01*
X135163700Y-141071939D01*
X135203474Y-141271898D01*
X135281495Y-141460256D01*
X135363700Y-141583285D01*
X135363700Y-144390681D01*
X135302720Y-144276595D01*
X135145265Y-144084735D01*
X134953405Y-143927280D01*
X134734514Y-143810280D01*
X134497003Y-143738232D01*
X134311893Y-143720000D01*
X134188107Y-143720000D01*
X134002997Y-143738232D01*
X133765486Y-143810280D01*
X133546595Y-143927280D01*
X133354735Y-144084735D01*
X133197280Y-144276595D01*
X133080280Y-144495486D01*
X133008232Y-144732997D01*
X132983904Y-144980000D01*
X133008232Y-145227003D01*
X133080280Y-145464514D01*
X133197280Y-145683405D01*
X133354735Y-145875265D01*
X133546595Y-146032720D01*
X133765486Y-146149720D01*
X134002997Y-146221768D01*
X134188107Y-146240000D01*
X134311893Y-146240000D01*
X134497003Y-146221768D01*
X134734514Y-146149720D01*
X134953405Y-146032720D01*
X135145265Y-145875265D01*
X135302720Y-145683405D01*
X135363700Y-145569319D01*
X135363701Y-150637671D01*
X135359660Y-150678700D01*
X135375782Y-150842388D01*
X135423528Y-150999786D01*
X135501064Y-151144845D01*
X135521585Y-151169850D01*
X135605410Y-151271991D01*
X135637274Y-151298141D01*
X137115873Y-152776742D01*
X137142019Y-152808601D01*
X137173878Y-152834747D01*
X137173880Y-152834749D01*
X137227759Y-152878966D01*
X137269164Y-152912946D01*
X137414223Y-152990482D01*
X137571621Y-153038228D01*
X137694291Y-153050310D01*
X137694292Y-153050310D01*
X137735310Y-153054350D01*
X137776328Y-153050310D01*
X138071928Y-153050310D01*
X138071928Y-154300000D01*
X138075868Y-154340000D01*
X131032279Y-154340000D01*
X130934576Y-154330420D01*
X130871643Y-154311420D01*
X130813594Y-154280554D01*
X130762657Y-154239011D01*
X130720752Y-154188356D01*
X130689485Y-154130529D01*
X130670044Y-154067728D01*
X130660000Y-153972165D01*
X130660000Y-151779872D01*
X130765000Y-151779872D01*
X130765000Y-152220128D01*
X130850890Y-152651925D01*
X131019369Y-153058669D01*
X131263962Y-153424729D01*
X131575271Y-153736038D01*
X131941331Y-153980631D01*
X132348075Y-154149110D01*
X132779872Y-154235000D01*
X133220128Y-154235000D01*
X133651925Y-154149110D01*
X134058669Y-153980631D01*
X134424729Y-153736038D01*
X134736038Y-153424729D01*
X134980631Y-153058669D01*
X135149110Y-152651925D01*
X135235000Y-152220128D01*
X135235000Y-151779872D01*
X135149110Y-151348075D01*
X134980631Y-150941331D01*
X134736038Y-150575271D01*
X134424729Y-150263962D01*
X134058669Y-150019369D01*
X133651925Y-149850890D01*
X133220128Y-149765000D01*
X132779872Y-149765000D01*
X132348075Y-149850890D01*
X131941331Y-150019369D01*
X131575271Y-150263962D01*
X131263962Y-150575271D01*
X131019369Y-150941331D01*
X130850890Y-151348075D01*
X130765000Y-151779872D01*
X130660000Y-151779872D01*
X130660000Y-147073632D01*
X130762856Y-147158044D01*
X131007806Y-147288973D01*
X131273592Y-147369598D01*
X131480736Y-147390000D01*
X131619264Y-147390000D01*
X131826408Y-147369598D01*
X132092194Y-147288973D01*
X132337144Y-147158044D01*
X132551844Y-146981844D01*
X132728044Y-146767144D01*
X132858973Y-146522194D01*
X132939598Y-146256408D01*
X132966822Y-145980000D01*
X132939598Y-145703592D01*
X132858973Y-145437806D01*
X132728044Y-145192856D01*
X132551844Y-144978156D01*
X132337144Y-144801956D01*
X132092194Y-144671027D01*
X131826408Y-144590402D01*
X131619264Y-144570000D01*
X131480736Y-144570000D01*
X131273592Y-144590402D01*
X131007806Y-144671027D01*
X130762856Y-144801956D01*
X130660000Y-144886368D01*
X130660000Y-140073632D01*
X130762856Y-140158044D01*
X131007806Y-140288973D01*
X131273592Y-140369598D01*
X131480736Y-140390000D01*
X131619264Y-140390000D01*
X131826408Y-140369598D01*
X132092194Y-140288973D01*
X132337144Y-140158044D01*
X132551844Y-139981844D01*
X132728044Y-139767144D01*
X132858973Y-139522194D01*
X132939598Y-139256408D01*
X132966822Y-138980000D01*
X132939598Y-138703592D01*
X132858973Y-138437806D01*
X132728044Y-138192856D01*
X132551844Y-137978156D01*
X132337144Y-137801956D01*
X132092194Y-137671027D01*
X131826408Y-137590402D01*
X131619264Y-137570000D01*
X131480736Y-137570000D01*
X131273592Y-137590402D01*
X131007806Y-137671027D01*
X130762856Y-137801956D01*
X130660000Y-137886368D01*
X130660000Y-132779872D01*
X130765000Y-132779872D01*
X130765000Y-133220128D01*
X130850890Y-133651925D01*
X131019369Y-134058669D01*
X131263962Y-134424729D01*
X131575271Y-134736038D01*
X131941331Y-134980631D01*
X132348075Y-135149110D01*
X132779872Y-135235000D01*
X133220128Y-135235000D01*
X133651925Y-135149110D01*
X134058669Y-134980631D01*
X134424729Y-134736038D01*
X134736038Y-134424729D01*
X134980631Y-134058669D01*
X135149110Y-133651925D01*
X135235000Y-133220128D01*
X135235000Y-132779872D01*
X135149110Y-132348075D01*
X134980631Y-131941331D01*
X134736038Y-131575271D01*
X134424729Y-131263962D01*
X134058669Y-131019369D01*
X133651925Y-130850890D01*
X133220128Y-130765000D01*
X132779872Y-130765000D01*
X132348075Y-130850890D01*
X131941331Y-131019369D01*
X131575271Y-131263962D01*
X131263962Y-131575271D01*
X131019369Y-131941331D01*
X130850890Y-132348075D01*
X130765000Y-132779872D01*
X130660000Y-132779872D01*
X130660000Y-131032279D01*
X130669580Y-130934576D01*
X130688580Y-130871644D01*
X130719445Y-130813595D01*
X130760989Y-130762657D01*
X130811644Y-130720752D01*
X130869471Y-130689485D01*
X130932272Y-130670044D01*
X131027835Y-130660000D01*
X153297162Y-130660000D01*
X153300000Y-131689250D01*
X153300000Y-131689250D01*
G37*
X153300000Y-131689250D02*
X153458750Y-131848000D01*
X154308000Y-131848000D01*
X154308000Y-131828000D01*
X154562000Y-131828000D01*
X154562000Y-131848000D01*
X155411250Y-131848000D01*
X155570000Y-131689250D01*
X155572838Y-130660000D01*
X166647321Y-130660000D01*
X166650000Y-131239250D01*
X166808750Y-131398000D01*
X167808000Y-131398000D01*
X167808000Y-131378000D01*
X168062000Y-131378000D01*
X168062000Y-131398000D01*
X169061250Y-131398000D01*
X169220000Y-131239250D01*
X169222679Y-130660000D01*
X182196752Y-130660000D01*
X182010986Y-130759294D01*
X181784866Y-130944866D01*
X181599294Y-131170986D01*
X181461401Y-131428966D01*
X181376487Y-131708889D01*
X181347815Y-132000000D01*
X181353440Y-132057113D01*
X177115554Y-136295000D01*
X168166405Y-136295000D01*
X168130300Y-136291444D01*
X167986215Y-136305635D01*
X167847666Y-136347663D01*
X167767616Y-136390451D01*
X167719980Y-136415913D01*
X167608062Y-136507762D01*
X167585046Y-136535807D01*
X162975714Y-141145139D01*
X162907205Y-140979744D01*
X162793937Y-140810226D01*
X162725000Y-140741289D01*
X162725000Y-138783809D01*
X162739774Y-138773937D01*
X162883937Y-138629774D01*
X162997205Y-138460256D01*
X163075226Y-138271898D01*
X163115000Y-138071939D01*
X163115000Y-137868061D01*
X163075226Y-137668102D01*
X162997205Y-137479744D01*
X162883937Y-137310226D01*
X162739774Y-137166063D01*
X162570256Y-137052795D01*
X162381898Y-136974774D01*
X162181939Y-136935000D01*
X161978061Y-136935000D01*
X161778102Y-136974774D01*
X161589744Y-137052795D01*
X161420226Y-137166063D01*
X161276063Y-137310226D01*
X161162795Y-137479744D01*
X161084774Y-137668102D01*
X161045000Y-137868061D01*
X161045000Y-138071939D01*
X161084774Y-138271898D01*
X161162795Y-138460256D01*
X161255001Y-138598252D01*
X161255000Y-140741289D01*
X161186063Y-140810226D01*
X161072795Y-140979744D01*
X161023976Y-141097602D01*
X161008698Y-141091274D01*
X160808739Y-141051500D01*
X160604861Y-141051500D01*
X160404902Y-141091274D01*
X160369700Y-141105855D01*
X160369700Y-140028020D01*
X160509187Y-139888533D01*
X160537238Y-139865512D01*
X160629087Y-139753594D01*
X160697337Y-139625907D01*
X160739365Y-139487359D01*
X160750000Y-139379379D01*
X160750000Y-139379370D01*
X160753555Y-139343275D01*
X160750000Y-139307180D01*
X160750000Y-139013711D01*
X160818937Y-138944774D01*
X160932205Y-138775256D01*
X161010226Y-138586898D01*
X161050000Y-138386939D01*
X161050000Y-138183061D01*
X161010226Y-137983102D01*
X160932205Y-137794744D01*
X160818937Y-137625226D01*
X160674774Y-137481063D01*
X160505256Y-137367795D01*
X160316898Y-137289774D01*
X160116939Y-137250000D01*
X159913061Y-137250000D01*
X159713102Y-137289774D01*
X159524744Y-137367795D01*
X159355226Y-137481063D01*
X159245112Y-137591177D01*
X158569747Y-136915813D01*
X158546727Y-136887763D01*
X158503985Y-136852685D01*
X158475226Y-136708104D01*
X158397205Y-136519746D01*
X158283937Y-136350228D01*
X158139774Y-136206065D01*
X157970256Y-136092797D01*
X157781898Y-136014776D01*
X157581939Y-135975002D01*
X157378061Y-135975002D01*
X157178102Y-136014776D01*
X156989744Y-136092797D01*
X156820226Y-136206065D01*
X156676063Y-136350228D01*
X156562795Y-136519746D01*
X156484774Y-136708104D01*
X156445000Y-136908063D01*
X156445000Y-137111941D01*
X156484774Y-137311900D01*
X156562795Y-137500258D01*
X156676063Y-137669776D01*
X156820226Y-137813939D01*
X156989744Y-137927207D01*
X157178102Y-138005228D01*
X157378061Y-138045002D01*
X157508806Y-138045002D01*
X157597366Y-138092338D01*
X157689103Y-138120166D01*
X157697866Y-138122824D01*
X157962892Y-138387851D01*
X157907332Y-138443411D01*
X157794064Y-138612929D01*
X157716043Y-138801287D01*
X157676269Y-139001246D01*
X157676269Y-139205124D01*
X157686190Y-139255000D01*
X157638061Y-139255000D01*
X157438102Y-139294774D01*
X157249744Y-139372795D01*
X157080226Y-139486063D01*
X156936063Y-139630226D01*
X156822795Y-139799744D01*
X156744774Y-139988102D01*
X156705000Y-140188061D01*
X156705000Y-140391939D01*
X156744774Y-140591898D01*
X156822795Y-140780256D01*
X156936063Y-140949774D01*
X157080226Y-141093937D01*
X157249744Y-141207205D01*
X157438102Y-141285226D01*
X157575000Y-141312456D01*
X157574999Y-142244954D01*
X157349554Y-142470400D01*
X155429650Y-142470400D01*
X155411250Y-142452000D01*
X154562000Y-142452000D01*
X154562000Y-142470400D01*
X154308000Y-142470400D01*
X154308000Y-142452000D01*
X153458750Y-142452000D01*
X153440350Y-142470400D01*
X153324905Y-142470400D01*
X153288800Y-142466844D01*
X153252695Y-142470400D01*
X153144715Y-142481035D01*
X153006167Y-142523063D01*
X152878480Y-142591313D01*
X152766562Y-142683162D01*
X152743546Y-142711207D01*
X151429765Y-144024989D01*
X141968005Y-144024989D01*
X141931910Y-144021434D01*
X141895815Y-144024989D01*
X141895806Y-144024989D01*
X141787826Y-144035624D01*
X141649278Y-144077652D01*
X141521591Y-144145902D01*
X141409673Y-144237751D01*
X141386657Y-144265796D01*
X140245210Y-145407244D01*
X140242000Y-145406928D01*
X140090250Y-145410000D01*
X139931500Y-145568750D01*
X139931500Y-145791916D01*
X139927464Y-145799467D01*
X139885435Y-145938015D01*
X139871244Y-146082100D01*
X139874801Y-146118215D01*
X139874801Y-146667000D01*
X139677500Y-146667000D01*
X139677500Y-146647000D01*
X139657500Y-146647000D01*
X139657500Y-146393000D01*
X139677500Y-146393000D01*
X139677500Y-145568750D01*
X139606900Y-145498150D01*
X139606900Y-141725000D01*
X153296928Y-141725000D01*
X153300000Y-142039250D01*
X153458750Y-142198000D01*
X154308000Y-142198000D01*
X154308000Y-141248750D01*
X154562000Y-141248750D01*
X154562000Y-142198000D01*
X155411250Y-142198000D01*
X155570000Y-142039250D01*
X155573072Y-141725000D01*
X155560812Y-141600518D01*
X155524502Y-141480820D01*
X155465537Y-141370506D01*
X155386185Y-141273815D01*
X155289494Y-141194463D01*
X155179180Y-141135498D01*
X155059482Y-141099188D01*
X154935000Y-141086928D01*
X154720750Y-141090000D01*
X154562000Y-141248750D01*
X154308000Y-141248750D01*
X154149250Y-141090000D01*
X153935000Y-141086928D01*
X153810518Y-141099188D01*
X153690820Y-141135498D01*
X153580506Y-141194463D01*
X153483815Y-141273815D01*
X153404463Y-141370506D01*
X153345498Y-141480820D01*
X153309188Y-141600518D01*
X153296928Y-141725000D01*
X139606900Y-141725000D01*
X139606900Y-138800000D01*
X142761928Y-138800000D01*
X142774188Y-138924482D01*
X142810498Y-139044180D01*
X142869463Y-139154494D01*
X142948815Y-139251185D01*
X143045506Y-139330537D01*
X143155820Y-139389502D01*
X143275518Y-139425812D01*
X143400000Y-139438072D01*
X145114250Y-139435000D01*
X145273000Y-139276250D01*
X145273000Y-136927000D01*
X145527000Y-136927000D01*
X145527000Y-139276250D01*
X145685750Y-139435000D01*
X147400000Y-139438072D01*
X147524482Y-139425812D01*
X147644180Y-139389502D01*
X147754494Y-139330537D01*
X147851185Y-139251185D01*
X147930537Y-139154494D01*
X147989502Y-139044180D01*
X148025812Y-138924482D01*
X148038072Y-138800000D01*
X148035000Y-137085750D01*
X147876250Y-136927000D01*
X145527000Y-136927000D01*
X145273000Y-136927000D01*
X142923750Y-136927000D01*
X142765000Y-137085750D01*
X142761928Y-138800000D01*
X139606900Y-138800000D01*
X139606900Y-138451961D01*
X139669199Y-138426156D01*
X139969744Y-138225338D01*
X140225338Y-137969744D01*
X140426156Y-137669199D01*
X140564482Y-137335250D01*
X140635000Y-136980732D01*
X140635000Y-136619268D01*
X140564482Y-136264750D01*
X140426156Y-135930801D01*
X140225338Y-135630256D01*
X139969744Y-135374662D01*
X139669199Y-135173844D01*
X139335250Y-135035518D01*
X138980732Y-134965000D01*
X138619268Y-134965000D01*
X138345315Y-135019493D01*
X138375426Y-134946798D01*
X138404625Y-134800000D01*
X142761928Y-134800000D01*
X142765000Y-136514250D01*
X142923750Y-136673000D01*
X145273000Y-136673000D01*
X145273000Y-134323750D01*
X145527000Y-134323750D01*
X145527000Y-136673000D01*
X147876250Y-136673000D01*
X147929982Y-136619268D01*
X150165000Y-136619268D01*
X150165000Y-136980732D01*
X150235518Y-137335250D01*
X150373844Y-137669199D01*
X150574662Y-137969744D01*
X150830256Y-138225338D01*
X151130801Y-138426156D01*
X151464750Y-138564482D01*
X151819268Y-138635000D01*
X152180732Y-138635000D01*
X152303627Y-138610555D01*
X152280267Y-138727996D01*
X152280267Y-138931874D01*
X152320041Y-139131833D01*
X152398062Y-139320191D01*
X152511330Y-139489709D01*
X152655493Y-139633872D01*
X152825011Y-139747140D01*
X153013369Y-139825161D01*
X153213328Y-139864935D01*
X153417206Y-139864935D01*
X153617165Y-139825161D01*
X153805523Y-139747140D01*
X153975041Y-139633872D01*
X154119204Y-139489709D01*
X154232472Y-139320191D01*
X154310493Y-139131833D01*
X154350267Y-138931874D01*
X154350267Y-138727996D01*
X154310493Y-138528037D01*
X154232472Y-138339679D01*
X154197214Y-138286911D01*
X154207612Y-138252633D01*
X154212958Y-138235010D01*
X154227149Y-138090924D01*
X154223593Y-138054819D01*
X154223593Y-137163072D01*
X154935000Y-137163072D01*
X155059482Y-137150812D01*
X155179180Y-137114502D01*
X155289494Y-137055537D01*
X155386185Y-136976185D01*
X155465537Y-136879494D01*
X155524502Y-136769180D01*
X155560812Y-136649482D01*
X155573072Y-136525000D01*
X155573072Y-135725000D01*
X155560812Y-135600518D01*
X155524502Y-135480820D01*
X155465537Y-135370506D01*
X155386185Y-135273815D01*
X155289494Y-135194463D01*
X155179180Y-135135498D01*
X155059482Y-135099188D01*
X154935000Y-135086928D01*
X154223593Y-135086928D01*
X154223593Y-134393889D01*
X154227148Y-134357792D01*
X154223593Y-134321695D01*
X154223593Y-134321688D01*
X154212958Y-134213708D01*
X154211985Y-134210498D01*
X154185377Y-134122786D01*
X154170930Y-134075160D01*
X154136201Y-134010187D01*
X154149250Y-134010000D01*
X154308000Y-133851250D01*
X154308000Y-132102000D01*
X154562000Y-132102000D01*
X154562000Y-133851250D01*
X154720750Y-134010000D01*
X154935000Y-134013072D01*
X155059482Y-134000812D01*
X155179180Y-133964502D01*
X155289494Y-133905537D01*
X155386185Y-133826185D01*
X155465537Y-133729494D01*
X155524502Y-133619180D01*
X155560812Y-133499482D01*
X155573072Y-133375000D01*
X155570591Y-132475000D01*
X166646928Y-132475000D01*
X166659188Y-132599482D01*
X166695498Y-132719180D01*
X166754463Y-132829494D01*
X166833815Y-132926185D01*
X166930506Y-133005537D01*
X167040820Y-133064502D01*
X167160518Y-133100812D01*
X167285000Y-133113072D01*
X167649250Y-133110000D01*
X167808000Y-132951250D01*
X167808000Y-131652000D01*
X168062000Y-131652000D01*
X168062000Y-132951250D01*
X168220750Y-133110000D01*
X168585000Y-133113072D01*
X168709482Y-133100812D01*
X168829180Y-133064502D01*
X168939494Y-133005537D01*
X169036185Y-132926185D01*
X169115537Y-132829494D01*
X169142060Y-132779872D01*
X173765000Y-132779872D01*
X173765000Y-133220128D01*
X173850890Y-133651925D01*
X174019369Y-134058669D01*
X174263962Y-134424729D01*
X174575271Y-134736038D01*
X174941331Y-134980631D01*
X175348075Y-135149110D01*
X175779872Y-135235000D01*
X176220128Y-135235000D01*
X176651925Y-135149110D01*
X177058669Y-134980631D01*
X177424729Y-134736038D01*
X177736038Y-134424729D01*
X177980631Y-134058669D01*
X178149110Y-133651925D01*
X178235000Y-133220128D01*
X178235000Y-132779872D01*
X178149110Y-132348075D01*
X177980631Y-131941331D01*
X177736038Y-131575271D01*
X177424729Y-131263962D01*
X177058669Y-131019369D01*
X176651925Y-130850890D01*
X176220128Y-130765000D01*
X175779872Y-130765000D01*
X175348075Y-130850890D01*
X174941331Y-131019369D01*
X174575271Y-131263962D01*
X174263962Y-131575271D01*
X174019369Y-131941331D01*
X173850890Y-132348075D01*
X173765000Y-132779872D01*
X169142060Y-132779872D01*
X169174502Y-132719180D01*
X169210812Y-132599482D01*
X169223072Y-132475000D01*
X169220000Y-131810750D01*
X169061250Y-131652000D01*
X168062000Y-131652000D01*
X167808000Y-131652000D01*
X166808750Y-131652000D01*
X166650000Y-131810750D01*
X166646928Y-132475000D01*
X155570591Y-132475000D01*
X155570000Y-132260750D01*
X155411250Y-132102000D01*
X154562000Y-132102000D01*
X154308000Y-132102000D01*
X153458750Y-132102000D01*
X153300000Y-132260750D01*
X153297611Y-133127364D01*
X153063300Y-132893054D01*
X153063300Y-132795561D01*
X153023526Y-132595602D01*
X152945505Y-132407244D01*
X152832237Y-132237726D01*
X152688074Y-132093563D01*
X152518556Y-131980295D01*
X152330198Y-131902274D01*
X152130239Y-131862500D01*
X151926361Y-131862500D01*
X151726402Y-131902274D01*
X151538044Y-131980295D01*
X151368526Y-132093563D01*
X151224363Y-132237726D01*
X151111095Y-132407244D01*
X151033074Y-132595602D01*
X150993300Y-132795561D01*
X150993300Y-132999439D01*
X151033074Y-133199398D01*
X151111095Y-133387756D01*
X151224363Y-133557274D01*
X151368526Y-133701437D01*
X151538044Y-133814705D01*
X151726402Y-133892726D01*
X151926361Y-133932500D01*
X152023854Y-133932500D01*
X152753593Y-134662240D01*
X152753593Y-135125959D01*
X152535250Y-135035518D01*
X152180732Y-134965000D01*
X151819268Y-134965000D01*
X151464750Y-135035518D01*
X151130801Y-135173844D01*
X150830256Y-135374662D01*
X150574662Y-135630256D01*
X150373844Y-135930801D01*
X150235518Y-136264750D01*
X150165000Y-136619268D01*
X147929982Y-136619268D01*
X148035000Y-136514250D01*
X148038072Y-134800000D01*
X148025812Y-134675518D01*
X147989502Y-134555820D01*
X147930537Y-134445506D01*
X147851185Y-134348815D01*
X147754494Y-134269463D01*
X147644180Y-134210498D01*
X147524482Y-134174188D01*
X147400000Y-134161928D01*
X145685750Y-134165000D01*
X145527000Y-134323750D01*
X145273000Y-134323750D01*
X145114250Y-134165000D01*
X143400000Y-134161928D01*
X143275518Y-134174188D01*
X143155820Y-134210498D01*
X143045506Y-134269463D01*
X142948815Y-134348815D01*
X142869463Y-134445506D01*
X142810498Y-134555820D01*
X142774188Y-134675518D01*
X142761928Y-134800000D01*
X138404625Y-134800000D01*
X138415200Y-134746839D01*
X138415200Y-134542961D01*
X138375426Y-134343002D01*
X138297405Y-134154644D01*
X138184137Y-133985126D01*
X138039974Y-133840963D01*
X137870456Y-133727695D01*
X137682098Y-133649674D01*
X137482139Y-133609900D01*
X137278261Y-133609900D01*
X137078302Y-133649674D01*
X136889944Y-133727695D01*
X136720426Y-133840963D01*
X136576263Y-133985126D01*
X136462995Y-134154644D01*
X136384974Y-134343002D01*
X136345200Y-134542961D01*
X136345200Y-134746839D01*
X136384974Y-134946798D01*
X136445001Y-135091715D01*
X136445000Y-137976995D01*
X136441444Y-138013100D01*
X136455635Y-138157185D01*
X136463485Y-138183061D01*
X136497663Y-138295732D01*
X136565913Y-138423419D01*
X136657762Y-138535337D01*
X136685808Y-138558354D01*
X137400301Y-139272848D01*
X137400300Y-141884300D01*
X137332761Y-141884300D01*
X137132802Y-141924074D01*
X137033700Y-141965124D01*
X137033700Y-141583285D01*
X137115905Y-141460256D01*
X137193926Y-141271898D01*
X137233700Y-141071939D01*
X137233700Y-140868061D01*
X137193926Y-140668102D01*
X137115905Y-140479744D01*
X137002637Y-140310226D01*
X136858474Y-140166063D01*
X136688956Y-140052795D01*
X136500598Y-139974774D01*
X136300639Y-139935000D01*
X136096761Y-139935000D01*
X135896802Y-139974774D01*
X135708444Y-140052795D01*
X135538926Y-140166063D01*
X135493274Y-140211715D01*
X135516096Y-139980000D01*
X135491768Y-139732997D01*
X135419720Y-139495486D01*
X135302720Y-139276595D01*
X135145265Y-139084735D01*
X134953405Y-138927280D01*
X134734514Y-138810280D01*
X134497003Y-138738232D01*
X134311893Y-138720000D01*
X134188107Y-138720000D01*
X134002997Y-138738232D01*
X133765486Y-138810280D01*
X133546595Y-138927280D01*
X133354735Y-139084735D01*
X133197280Y-139276595D01*
X133080280Y-139495486D01*
X133008232Y-139732997D01*
X132983904Y-139980000D01*
X133008232Y-140227003D01*
X133080280Y-140464514D01*
X133197280Y-140683405D01*
X133354735Y-140875265D01*
X133546595Y-141032720D01*
X133765486Y-141149720D01*
X134002997Y-141221768D01*
X134188107Y-141240000D01*
X134311893Y-141240000D01*
X134497003Y-141221768D01*
X134734514Y-141149720D01*
X134953405Y-141032720D01*
X135145265Y-140875265D01*
X135167706Y-140847920D01*
X135163700Y-140868061D01*
X135163700Y-141071939D01*
X135203474Y-141271898D01*
X135281495Y-141460256D01*
X135363700Y-141583285D01*
X135363700Y-144390681D01*
X135302720Y-144276595D01*
X135145265Y-144084735D01*
X134953405Y-143927280D01*
X134734514Y-143810280D01*
X134497003Y-143738232D01*
X134311893Y-143720000D01*
X134188107Y-143720000D01*
X134002997Y-143738232D01*
X133765486Y-143810280D01*
X133546595Y-143927280D01*
X133354735Y-144084735D01*
X133197280Y-144276595D01*
X133080280Y-144495486D01*
X133008232Y-144732997D01*
X132983904Y-144980000D01*
X133008232Y-145227003D01*
X133080280Y-145464514D01*
X133197280Y-145683405D01*
X133354735Y-145875265D01*
X133546595Y-146032720D01*
X133765486Y-146149720D01*
X134002997Y-146221768D01*
X134188107Y-146240000D01*
X134311893Y-146240000D01*
X134497003Y-146221768D01*
X134734514Y-146149720D01*
X134953405Y-146032720D01*
X135145265Y-145875265D01*
X135302720Y-145683405D01*
X135363700Y-145569319D01*
X135363701Y-150637671D01*
X135359660Y-150678700D01*
X135375782Y-150842388D01*
X135423528Y-150999786D01*
X135501064Y-151144845D01*
X135521585Y-151169850D01*
X135605410Y-151271991D01*
X135637274Y-151298141D01*
X137115873Y-152776742D01*
X137142019Y-152808601D01*
X137173878Y-152834747D01*
X137173880Y-152834749D01*
X137227759Y-152878966D01*
X137269164Y-152912946D01*
X137414223Y-152990482D01*
X137571621Y-153038228D01*
X137694291Y-153050310D01*
X137694292Y-153050310D01*
X137735310Y-153054350D01*
X137776328Y-153050310D01*
X138071928Y-153050310D01*
X138071928Y-154300000D01*
X138075868Y-154340000D01*
X131032279Y-154340000D01*
X130934576Y-154330420D01*
X130871643Y-154311420D01*
X130813594Y-154280554D01*
X130762657Y-154239011D01*
X130720752Y-154188356D01*
X130689485Y-154130529D01*
X130670044Y-154067728D01*
X130660000Y-153972165D01*
X130660000Y-151779872D01*
X130765000Y-151779872D01*
X130765000Y-152220128D01*
X130850890Y-152651925D01*
X131019369Y-153058669D01*
X131263962Y-153424729D01*
X131575271Y-153736038D01*
X131941331Y-153980631D01*
X132348075Y-154149110D01*
X132779872Y-154235000D01*
X133220128Y-154235000D01*
X133651925Y-154149110D01*
X134058669Y-153980631D01*
X134424729Y-153736038D01*
X134736038Y-153424729D01*
X134980631Y-153058669D01*
X135149110Y-152651925D01*
X135235000Y-152220128D01*
X135235000Y-151779872D01*
X135149110Y-151348075D01*
X134980631Y-150941331D01*
X134736038Y-150575271D01*
X134424729Y-150263962D01*
X134058669Y-150019369D01*
X133651925Y-149850890D01*
X133220128Y-149765000D01*
X132779872Y-149765000D01*
X132348075Y-149850890D01*
X131941331Y-150019369D01*
X131575271Y-150263962D01*
X131263962Y-150575271D01*
X131019369Y-150941331D01*
X130850890Y-151348075D01*
X130765000Y-151779872D01*
X130660000Y-151779872D01*
X130660000Y-147073632D01*
X130762856Y-147158044D01*
X131007806Y-147288973D01*
X131273592Y-147369598D01*
X131480736Y-147390000D01*
X131619264Y-147390000D01*
X131826408Y-147369598D01*
X132092194Y-147288973D01*
X132337144Y-147158044D01*
X132551844Y-146981844D01*
X132728044Y-146767144D01*
X132858973Y-146522194D01*
X132939598Y-146256408D01*
X132966822Y-145980000D01*
X132939598Y-145703592D01*
X132858973Y-145437806D01*
X132728044Y-145192856D01*
X132551844Y-144978156D01*
X132337144Y-144801956D01*
X132092194Y-144671027D01*
X131826408Y-144590402D01*
X131619264Y-144570000D01*
X131480736Y-144570000D01*
X131273592Y-144590402D01*
X131007806Y-144671027D01*
X130762856Y-144801956D01*
X130660000Y-144886368D01*
X130660000Y-140073632D01*
X130762856Y-140158044D01*
X131007806Y-140288973D01*
X131273592Y-140369598D01*
X131480736Y-140390000D01*
X131619264Y-140390000D01*
X131826408Y-140369598D01*
X132092194Y-140288973D01*
X132337144Y-140158044D01*
X132551844Y-139981844D01*
X132728044Y-139767144D01*
X132858973Y-139522194D01*
X132939598Y-139256408D01*
X132966822Y-138980000D01*
X132939598Y-138703592D01*
X132858973Y-138437806D01*
X132728044Y-138192856D01*
X132551844Y-137978156D01*
X132337144Y-137801956D01*
X132092194Y-137671027D01*
X131826408Y-137590402D01*
X131619264Y-137570000D01*
X131480736Y-137570000D01*
X131273592Y-137590402D01*
X131007806Y-137671027D01*
X130762856Y-137801956D01*
X130660000Y-137886368D01*
X130660000Y-132779872D01*
X130765000Y-132779872D01*
X130765000Y-133220128D01*
X130850890Y-133651925D01*
X131019369Y-134058669D01*
X131263962Y-134424729D01*
X131575271Y-134736038D01*
X131941331Y-134980631D01*
X132348075Y-135149110D01*
X132779872Y-135235000D01*
X133220128Y-135235000D01*
X133651925Y-135149110D01*
X134058669Y-134980631D01*
X134424729Y-134736038D01*
X134736038Y-134424729D01*
X134980631Y-134058669D01*
X135149110Y-133651925D01*
X135235000Y-133220128D01*
X135235000Y-132779872D01*
X135149110Y-132348075D01*
X134980631Y-131941331D01*
X134736038Y-131575271D01*
X134424729Y-131263962D01*
X134058669Y-131019369D01*
X133651925Y-130850890D01*
X133220128Y-130765000D01*
X132779872Y-130765000D01*
X132348075Y-130850890D01*
X131941331Y-131019369D01*
X131575271Y-131263962D01*
X131263962Y-131575271D01*
X131019369Y-131941331D01*
X130850890Y-132348075D01*
X130765000Y-132779872D01*
X130660000Y-132779872D01*
X130660000Y-131032279D01*
X130669580Y-130934576D01*
X130688580Y-130871644D01*
X130719445Y-130813595D01*
X130760989Y-130762657D01*
X130811644Y-130720752D01*
X130869471Y-130689485D01*
X130932272Y-130670044D01*
X131027835Y-130660000D01*
X153297162Y-130660000D01*
X153300000Y-131689250D01*
G36*
X156864080Y-154172549D02*
G01*
X156864091Y-154172558D01*
X157031533Y-154340000D01*
X154527386Y-154340000D01*
X154535178Y-154331355D01*
X154684157Y-154081252D01*
X154781481Y-153806891D01*
X154660814Y-153577000D01*
X153467000Y-153577000D01*
X153467000Y-153597000D01*
X153213000Y-153597000D01*
X153213000Y-153577000D01*
X153193000Y-153577000D01*
X153193000Y-153323000D01*
X153213000Y-153323000D01*
X153213000Y-153303000D01*
X153467000Y-153303000D01*
X153467000Y-153323000D01*
X154660814Y-153323000D01*
X154781481Y-153093109D01*
X154684157Y-152818748D01*
X154535178Y-152568645D01*
X154446531Y-152470300D01*
X155161833Y-152470300D01*
X156864080Y-154172549D01*
X156864080Y-154172549D01*
G37*
X156864080Y-154172549D02*
X156864091Y-154172558D01*
X157031533Y-154340000D01*
X154527386Y-154340000D01*
X154535178Y-154331355D01*
X154684157Y-154081252D01*
X154781481Y-153806891D01*
X154660814Y-153577000D01*
X153467000Y-153577000D01*
X153467000Y-153597000D01*
X153213000Y-153597000D01*
X153213000Y-153577000D01*
X153193000Y-153577000D01*
X153193000Y-153323000D01*
X153213000Y-153323000D01*
X153213000Y-153303000D01*
X153467000Y-153303000D01*
X153467000Y-153323000D01*
X154660814Y-153323000D01*
X154781481Y-153093109D01*
X154684157Y-152818748D01*
X154535178Y-152568645D01*
X154446531Y-152470300D01*
X155161833Y-152470300D01*
X156864080Y-154172549D01*
G36*
X188047000Y-131873000D02*
G01*
X188067000Y-131873000D01*
X188067000Y-132127000D01*
X188047000Y-132127000D01*
X188047000Y-133320155D01*
X188276890Y-133441476D01*
X188424099Y-133396825D01*
X188686920Y-133271641D01*
X188920269Y-133097588D01*
X189115178Y-132881355D01*
X189184799Y-132764477D01*
X189219294Y-132829014D01*
X189404866Y-133055134D01*
X189630986Y-133240706D01*
X189713562Y-133284844D01*
X189762364Y-133376145D01*
X189866709Y-133503291D01*
X189898579Y-133529446D01*
X192165001Y-135795869D01*
X192165000Y-151511928D01*
X192150000Y-151511928D01*
X192025518Y-151524188D01*
X191905820Y-151560498D01*
X191795506Y-151619463D01*
X191698815Y-151698815D01*
X191619463Y-151795506D01*
X191560498Y-151905820D01*
X191536034Y-151986466D01*
X191460269Y-151902412D01*
X191226920Y-151728359D01*
X190964099Y-151603175D01*
X190816890Y-151558524D01*
X190587000Y-151679845D01*
X190587000Y-152873000D01*
X190607000Y-152873000D01*
X190607000Y-153127000D01*
X190587000Y-153127000D01*
X190587000Y-153147000D01*
X190333000Y-153147000D01*
X190333000Y-153127000D01*
X190313000Y-153127000D01*
X190313000Y-152873000D01*
X190333000Y-152873000D01*
X190333000Y-151679845D01*
X190103110Y-151558524D01*
X189955901Y-151603175D01*
X189693080Y-151728359D01*
X189459731Y-151902412D01*
X189264822Y-152118645D01*
X189195201Y-152235523D01*
X189160706Y-152170986D01*
X188975134Y-151944866D01*
X188749014Y-151759294D01*
X188491034Y-151621401D01*
X188211111Y-151536487D01*
X187992950Y-151515000D01*
X187847050Y-151515000D01*
X187628889Y-151536487D01*
X187348966Y-151621401D01*
X187090986Y-151759294D01*
X186970237Y-151858390D01*
X186197658Y-151085812D01*
X186174638Y-151057762D01*
X186062720Y-150965913D01*
X185935033Y-150897663D01*
X185796485Y-150855635D01*
X185688505Y-150845000D01*
X185652400Y-150841444D01*
X185616295Y-150845000D01*
X184771964Y-150845000D01*
X184912048Y-150561653D01*
X183600000Y-149249605D01*
X182287952Y-150561653D01*
X182428036Y-150845000D01*
X181105247Y-150845000D01*
X179373071Y-149112824D01*
X181455098Y-149112824D01*
X181504666Y-149530451D01*
X181634757Y-149930383D01*
X181792786Y-150226038D01*
X182108347Y-150382048D01*
X183420395Y-149070000D01*
X183779605Y-149070000D01*
X185091653Y-150382048D01*
X185407214Y-150226038D01*
X185598020Y-149851255D01*
X185712044Y-149446449D01*
X185744902Y-149027176D01*
X185695334Y-148609549D01*
X185565243Y-148209617D01*
X185407214Y-147913962D01*
X185091653Y-147757952D01*
X183779605Y-149070000D01*
X183420395Y-149070000D01*
X182108347Y-147757952D01*
X181792786Y-147913962D01*
X181601980Y-148288745D01*
X181487956Y-148693551D01*
X181455098Y-149112824D01*
X179373071Y-149112824D01*
X178880994Y-148620748D01*
X178904756Y-148610905D01*
X179074274Y-148497637D01*
X179218437Y-148353474D01*
X179331705Y-148183956D01*
X179409726Y-147995598D01*
X179449500Y-147795639D01*
X179449500Y-147591761D01*
X179446832Y-147578347D01*
X182287952Y-147578347D01*
X183600000Y-148890395D01*
X184912048Y-147578347D01*
X184756038Y-147262786D01*
X184381255Y-147071980D01*
X183976449Y-146957956D01*
X183557176Y-146925098D01*
X183139549Y-146974666D01*
X182739617Y-147104757D01*
X182443962Y-147262786D01*
X182287952Y-147578347D01*
X179446832Y-147578347D01*
X179409726Y-147391802D01*
X179377338Y-147313610D01*
X179435850Y-147204142D01*
X179484608Y-147043408D01*
X179501072Y-146876250D01*
X179501072Y-146835000D01*
X179877773Y-146835000D01*
X179914880Y-146890535D01*
X180109465Y-147085120D01*
X180338273Y-147238005D01*
X180592510Y-147343314D01*
X180862408Y-147397000D01*
X181137592Y-147397000D01*
X181407490Y-147343314D01*
X181661727Y-147238005D01*
X181890535Y-147085120D01*
X182085120Y-146890535D01*
X182238005Y-146661727D01*
X182343314Y-146407490D01*
X182397000Y-146137592D01*
X182397000Y-145862408D01*
X182343314Y-145592510D01*
X182238005Y-145338273D01*
X182085120Y-145109465D01*
X181890535Y-144914880D01*
X181661727Y-144761995D01*
X181632769Y-144750000D01*
X181661727Y-144738005D01*
X181890535Y-144585120D01*
X182085120Y-144390535D01*
X182238005Y-144161727D01*
X182343314Y-143907490D01*
X182397000Y-143637592D01*
X182397000Y-143362408D01*
X182343314Y-143092510D01*
X182238005Y-142838273D01*
X182085120Y-142609465D01*
X181975655Y-142500000D01*
X182085120Y-142390535D01*
X182238005Y-142161727D01*
X182343314Y-141907490D01*
X182397000Y-141637592D01*
X182397000Y-141362408D01*
X182343314Y-141092510D01*
X182238005Y-140838273D01*
X182085120Y-140609465D01*
X181890535Y-140414880D01*
X181661727Y-140261995D01*
X181634599Y-140250758D01*
X181718980Y-140205656D01*
X181785960Y-139965565D01*
X181000000Y-139179605D01*
X180214040Y-139965565D01*
X180281020Y-140205656D01*
X180371533Y-140248218D01*
X180338273Y-140261995D01*
X180109465Y-140414880D01*
X179914880Y-140609465D01*
X179761995Y-140838273D01*
X179656686Y-141092510D01*
X179603000Y-141362408D01*
X179603000Y-141637592D01*
X179656686Y-141907490D01*
X179761995Y-142161727D01*
X179914880Y-142390535D01*
X180024345Y-142500000D01*
X179914880Y-142609465D01*
X179761995Y-142838273D01*
X179656686Y-143092510D01*
X179603000Y-143362408D01*
X179603000Y-143637592D01*
X179656686Y-143907490D01*
X179761995Y-144161727D01*
X179914880Y-144390535D01*
X180109465Y-144585120D01*
X180338273Y-144738005D01*
X180367231Y-144750000D01*
X180338273Y-144761995D01*
X180109465Y-144914880D01*
X179914880Y-145109465D01*
X179877773Y-145165000D01*
X179501072Y-145165000D01*
X179501072Y-144693750D01*
X179484608Y-144526592D01*
X179435850Y-144365858D01*
X179356671Y-144217725D01*
X179250115Y-144087885D01*
X179232606Y-144073516D01*
X179279792Y-144034792D01*
X179389458Y-143901164D01*
X179470947Y-143748709D01*
X179521128Y-143583285D01*
X179538072Y-143411250D01*
X179538072Y-142923750D01*
X179521128Y-142751715D01*
X179470947Y-142586291D01*
X179389458Y-142433836D01*
X179279792Y-142300208D01*
X179273436Y-142294992D01*
X179351185Y-142231185D01*
X179430537Y-142134494D01*
X179489502Y-142024180D01*
X179525812Y-141904482D01*
X179538072Y-141780000D01*
X179535000Y-141578250D01*
X179376250Y-141419500D01*
X178327000Y-141419500D01*
X178327000Y-141439500D01*
X178073000Y-141439500D01*
X178073000Y-141419500D01*
X177023750Y-141419500D01*
X176865000Y-141578250D01*
X176861928Y-141780000D01*
X176874188Y-141904482D01*
X176910498Y-142024180D01*
X176969463Y-142134494D01*
X177048815Y-142231185D01*
X177126564Y-142294992D01*
X177120208Y-142300208D01*
X177010542Y-142433836D01*
X176929053Y-142586291D01*
X176878872Y-142751715D01*
X176861928Y-142923750D01*
X176861928Y-143411250D01*
X176878872Y-143583285D01*
X176929053Y-143748709D01*
X176976207Y-143836928D01*
X176631750Y-143836928D01*
X176464592Y-143853392D01*
X176303858Y-143902150D01*
X176155725Y-143981329D01*
X176035000Y-144080405D01*
X176035000Y-143825518D01*
X176039040Y-143784500D01*
X176033439Y-143727637D01*
X176022918Y-143620811D01*
X175991072Y-143515828D01*
X175991072Y-143243750D01*
X175974608Y-143076592D01*
X175925850Y-142915858D01*
X175846671Y-142767725D01*
X175740115Y-142637885D01*
X175712189Y-142614967D01*
X175808185Y-142536185D01*
X175887537Y-142439494D01*
X175946502Y-142329180D01*
X175982812Y-142209482D01*
X175995072Y-142085000D01*
X175992000Y-141895750D01*
X175833250Y-141737000D01*
X175046500Y-141737000D01*
X175046500Y-141757000D01*
X174792500Y-141757000D01*
X174792500Y-141737000D01*
X174772500Y-141737000D01*
X174772500Y-141483000D01*
X174792500Y-141483000D01*
X174792500Y-141463000D01*
X175046500Y-141463000D01*
X175046500Y-141483000D01*
X175833250Y-141483000D01*
X175992000Y-141324250D01*
X175995072Y-141135000D01*
X175982812Y-141010518D01*
X175946502Y-140890820D01*
X175889725Y-140784600D01*
X176203689Y-140784600D01*
X176272626Y-140853537D01*
X176442144Y-140966805D01*
X176630502Y-141044826D01*
X176830461Y-141084600D01*
X176942850Y-141084600D01*
X177023750Y-141165500D01*
X178073000Y-141165500D01*
X178073000Y-140328750D01*
X178327000Y-140328750D01*
X178327000Y-141165500D01*
X179376250Y-141165500D01*
X179535000Y-141006750D01*
X179538072Y-140805000D01*
X179525812Y-140680518D01*
X179489502Y-140560820D01*
X179430537Y-140450506D01*
X179351185Y-140353815D01*
X179254494Y-140274463D01*
X179144180Y-140215498D01*
X179024482Y-140179188D01*
X178900000Y-140166928D01*
X178485750Y-140170000D01*
X178327000Y-140328750D01*
X178073000Y-140328750D01*
X177955519Y-140211269D01*
X177967400Y-140151539D01*
X177967400Y-139947661D01*
X177927626Y-139747702D01*
X177849605Y-139559344D01*
X177736337Y-139389826D01*
X177592174Y-139245663D01*
X177422656Y-139132395D01*
X177276892Y-139072017D01*
X179598090Y-139072017D01*
X179639078Y-139344133D01*
X179732364Y-139603023D01*
X179794344Y-139718980D01*
X180034435Y-139785960D01*
X180820395Y-139000000D01*
X181179605Y-139000000D01*
X181965565Y-139785960D01*
X182205656Y-139718980D01*
X182322756Y-139469952D01*
X182389023Y-139202865D01*
X182401910Y-138927983D01*
X182360922Y-138655867D01*
X182267636Y-138396977D01*
X182205656Y-138281020D01*
X181965565Y-138214040D01*
X181179605Y-139000000D01*
X180820395Y-139000000D01*
X180034435Y-138214040D01*
X179794344Y-138281020D01*
X179677244Y-138530048D01*
X179610977Y-138797135D01*
X179598090Y-139072017D01*
X177276892Y-139072017D01*
X177234298Y-139054374D01*
X177034339Y-139014600D01*
X176830461Y-139014600D01*
X176630502Y-139054374D01*
X176442144Y-139132395D01*
X176272626Y-139245663D01*
X176203689Y-139314600D01*
X171059805Y-139314600D01*
X171023700Y-139311044D01*
X170879615Y-139325235D01*
X170741066Y-139367263D01*
X170631529Y-139425812D01*
X170613380Y-139435513D01*
X170501462Y-139527362D01*
X170478446Y-139555407D01*
X167525259Y-142508595D01*
X167502226Y-142392802D01*
X167424205Y-142204444D01*
X167310937Y-142034926D01*
X167268429Y-141992418D01*
X170388647Y-138872200D01*
X177456795Y-138872200D01*
X177492900Y-138875756D01*
X177529005Y-138872200D01*
X177636985Y-138861565D01*
X177775533Y-138819537D01*
X177903220Y-138751287D01*
X178015138Y-138659438D01*
X178038159Y-138631387D01*
X178635111Y-138034435D01*
X180214040Y-138034435D01*
X181000000Y-138820395D01*
X181785960Y-138034435D01*
X181718980Y-137794344D01*
X181469952Y-137677244D01*
X181202865Y-137610977D01*
X180927983Y-137598090D01*
X180655867Y-137639078D01*
X180396977Y-137732364D01*
X180281020Y-137794344D01*
X180214040Y-138034435D01*
X178635111Y-138034435D01*
X179247893Y-137421653D01*
X182287952Y-137421653D01*
X182443962Y-137737214D01*
X182818745Y-137928020D01*
X183223551Y-138042044D01*
X183642824Y-138074902D01*
X184060451Y-138025334D01*
X184460383Y-137895243D01*
X184756038Y-137737214D01*
X184912048Y-137421653D01*
X183600000Y-136109605D01*
X182287952Y-137421653D01*
X179247893Y-137421653D01*
X181686171Y-134983375D01*
X181601980Y-135148745D01*
X181487956Y-135553551D01*
X181455098Y-135972824D01*
X181504666Y-136390451D01*
X181634757Y-136790383D01*
X181792786Y-137086038D01*
X182108347Y-137242048D01*
X183420395Y-135930000D01*
X183406253Y-135915858D01*
X183585858Y-135736253D01*
X183600000Y-135750395D01*
X183614143Y-135736253D01*
X183793748Y-135915858D01*
X183779605Y-135930000D01*
X185091653Y-137242048D01*
X185407214Y-137086038D01*
X185598020Y-136711255D01*
X185712044Y-136306449D01*
X185744902Y-135887176D01*
X185695334Y-135469549D01*
X185627215Y-135260136D01*
X185651898Y-135255226D01*
X185840256Y-135177205D01*
X186009774Y-135063937D01*
X186153937Y-134919774D01*
X186267205Y-134750256D01*
X186345226Y-134561898D01*
X186385000Y-134361939D01*
X186385000Y-134158061D01*
X186345226Y-133958102D01*
X186267205Y-133769744D01*
X186153937Y-133600226D01*
X186009774Y-133456063D01*
X185911699Y-133390531D01*
X185951034Y-133378599D01*
X186209014Y-133240706D01*
X186435134Y-133055134D01*
X186620706Y-132829014D01*
X186655201Y-132764477D01*
X186724822Y-132881355D01*
X186919731Y-133097588D01*
X187153080Y-133271641D01*
X187415901Y-133396825D01*
X187563110Y-133441476D01*
X187793000Y-133320155D01*
X187793000Y-132127000D01*
X187773000Y-132127000D01*
X187773000Y-131873000D01*
X187793000Y-131873000D01*
X187793000Y-131853000D01*
X188047000Y-131853000D01*
X188047000Y-131873000D01*
X188047000Y-131873000D01*
G37*
X188047000Y-131873000D02*
X188067000Y-131873000D01*
X188067000Y-132127000D01*
X188047000Y-132127000D01*
X188047000Y-133320155D01*
X188276890Y-133441476D01*
X188424099Y-133396825D01*
X188686920Y-133271641D01*
X188920269Y-133097588D01*
X189115178Y-132881355D01*
X189184799Y-132764477D01*
X189219294Y-132829014D01*
X189404866Y-133055134D01*
X189630986Y-133240706D01*
X189713562Y-133284844D01*
X189762364Y-133376145D01*
X189866709Y-133503291D01*
X189898579Y-133529446D01*
X192165001Y-135795869D01*
X192165000Y-151511928D01*
X192150000Y-151511928D01*
X192025518Y-151524188D01*
X191905820Y-151560498D01*
X191795506Y-151619463D01*
X191698815Y-151698815D01*
X191619463Y-151795506D01*
X191560498Y-151905820D01*
X191536034Y-151986466D01*
X191460269Y-151902412D01*
X191226920Y-151728359D01*
X190964099Y-151603175D01*
X190816890Y-151558524D01*
X190587000Y-151679845D01*
X190587000Y-152873000D01*
X190607000Y-152873000D01*
X190607000Y-153127000D01*
X190587000Y-153127000D01*
X190587000Y-153147000D01*
X190333000Y-153147000D01*
X190333000Y-153127000D01*
X190313000Y-153127000D01*
X190313000Y-152873000D01*
X190333000Y-152873000D01*
X190333000Y-151679845D01*
X190103110Y-151558524D01*
X189955901Y-151603175D01*
X189693080Y-151728359D01*
X189459731Y-151902412D01*
X189264822Y-152118645D01*
X189195201Y-152235523D01*
X189160706Y-152170986D01*
X188975134Y-151944866D01*
X188749014Y-151759294D01*
X188491034Y-151621401D01*
X188211111Y-151536487D01*
X187992950Y-151515000D01*
X187847050Y-151515000D01*
X187628889Y-151536487D01*
X187348966Y-151621401D01*
X187090986Y-151759294D01*
X186970237Y-151858390D01*
X186197658Y-151085812D01*
X186174638Y-151057762D01*
X186062720Y-150965913D01*
X185935033Y-150897663D01*
X185796485Y-150855635D01*
X185688505Y-150845000D01*
X185652400Y-150841444D01*
X185616295Y-150845000D01*
X184771964Y-150845000D01*
X184912048Y-150561653D01*
X183600000Y-149249605D01*
X182287952Y-150561653D01*
X182428036Y-150845000D01*
X181105247Y-150845000D01*
X179373071Y-149112824D01*
X181455098Y-149112824D01*
X181504666Y-149530451D01*
X181634757Y-149930383D01*
X181792786Y-150226038D01*
X182108347Y-150382048D01*
X183420395Y-149070000D01*
X183779605Y-149070000D01*
X185091653Y-150382048D01*
X185407214Y-150226038D01*
X185598020Y-149851255D01*
X185712044Y-149446449D01*
X185744902Y-149027176D01*
X185695334Y-148609549D01*
X185565243Y-148209617D01*
X185407214Y-147913962D01*
X185091653Y-147757952D01*
X183779605Y-149070000D01*
X183420395Y-149070000D01*
X182108347Y-147757952D01*
X181792786Y-147913962D01*
X181601980Y-148288745D01*
X181487956Y-148693551D01*
X181455098Y-149112824D01*
X179373071Y-149112824D01*
X178880994Y-148620748D01*
X178904756Y-148610905D01*
X179074274Y-148497637D01*
X179218437Y-148353474D01*
X179331705Y-148183956D01*
X179409726Y-147995598D01*
X179449500Y-147795639D01*
X179449500Y-147591761D01*
X179446832Y-147578347D01*
X182287952Y-147578347D01*
X183600000Y-148890395D01*
X184912048Y-147578347D01*
X184756038Y-147262786D01*
X184381255Y-147071980D01*
X183976449Y-146957956D01*
X183557176Y-146925098D01*
X183139549Y-146974666D01*
X182739617Y-147104757D01*
X182443962Y-147262786D01*
X182287952Y-147578347D01*
X179446832Y-147578347D01*
X179409726Y-147391802D01*
X179377338Y-147313610D01*
X179435850Y-147204142D01*
X179484608Y-147043408D01*
X179501072Y-146876250D01*
X179501072Y-146835000D01*
X179877773Y-146835000D01*
X179914880Y-146890535D01*
X180109465Y-147085120D01*
X180338273Y-147238005D01*
X180592510Y-147343314D01*
X180862408Y-147397000D01*
X181137592Y-147397000D01*
X181407490Y-147343314D01*
X181661727Y-147238005D01*
X181890535Y-147085120D01*
X182085120Y-146890535D01*
X182238005Y-146661727D01*
X182343314Y-146407490D01*
X182397000Y-146137592D01*
X182397000Y-145862408D01*
X182343314Y-145592510D01*
X182238005Y-145338273D01*
X182085120Y-145109465D01*
X181890535Y-144914880D01*
X181661727Y-144761995D01*
X181632769Y-144750000D01*
X181661727Y-144738005D01*
X181890535Y-144585120D01*
X182085120Y-144390535D01*
X182238005Y-144161727D01*
X182343314Y-143907490D01*
X182397000Y-143637592D01*
X182397000Y-143362408D01*
X182343314Y-143092510D01*
X182238005Y-142838273D01*
X182085120Y-142609465D01*
X181975655Y-142500000D01*
X182085120Y-142390535D01*
X182238005Y-142161727D01*
X182343314Y-141907490D01*
X182397000Y-141637592D01*
X182397000Y-141362408D01*
X182343314Y-141092510D01*
X182238005Y-140838273D01*
X182085120Y-140609465D01*
X181890535Y-140414880D01*
X181661727Y-140261995D01*
X181634599Y-140250758D01*
X181718980Y-140205656D01*
X181785960Y-139965565D01*
X181000000Y-139179605D01*
X180214040Y-139965565D01*
X180281020Y-140205656D01*
X180371533Y-140248218D01*
X180338273Y-140261995D01*
X180109465Y-140414880D01*
X179914880Y-140609465D01*
X179761995Y-140838273D01*
X179656686Y-141092510D01*
X179603000Y-141362408D01*
X179603000Y-141637592D01*
X179656686Y-141907490D01*
X179761995Y-142161727D01*
X179914880Y-142390535D01*
X180024345Y-142500000D01*
X179914880Y-142609465D01*
X179761995Y-142838273D01*
X179656686Y-143092510D01*
X179603000Y-143362408D01*
X179603000Y-143637592D01*
X179656686Y-143907490D01*
X179761995Y-144161727D01*
X179914880Y-144390535D01*
X180109465Y-144585120D01*
X180338273Y-144738005D01*
X180367231Y-144750000D01*
X180338273Y-144761995D01*
X180109465Y-144914880D01*
X179914880Y-145109465D01*
X179877773Y-145165000D01*
X179501072Y-145165000D01*
X179501072Y-144693750D01*
X179484608Y-144526592D01*
X179435850Y-144365858D01*
X179356671Y-144217725D01*
X179250115Y-144087885D01*
X179232606Y-144073516D01*
X179279792Y-144034792D01*
X179389458Y-143901164D01*
X179470947Y-143748709D01*
X179521128Y-143583285D01*
X179538072Y-143411250D01*
X179538072Y-142923750D01*
X179521128Y-142751715D01*
X179470947Y-142586291D01*
X179389458Y-142433836D01*
X179279792Y-142300208D01*
X179273436Y-142294992D01*
X179351185Y-142231185D01*
X179430537Y-142134494D01*
X179489502Y-142024180D01*
X179525812Y-141904482D01*
X179538072Y-141780000D01*
X179535000Y-141578250D01*
X179376250Y-141419500D01*
X178327000Y-141419500D01*
X178327000Y-141439500D01*
X178073000Y-141439500D01*
X178073000Y-141419500D01*
X177023750Y-141419500D01*
X176865000Y-141578250D01*
X176861928Y-141780000D01*
X176874188Y-141904482D01*
X176910498Y-142024180D01*
X176969463Y-142134494D01*
X177048815Y-142231185D01*
X177126564Y-142294992D01*
X177120208Y-142300208D01*
X177010542Y-142433836D01*
X176929053Y-142586291D01*
X176878872Y-142751715D01*
X176861928Y-142923750D01*
X176861928Y-143411250D01*
X176878872Y-143583285D01*
X176929053Y-143748709D01*
X176976207Y-143836928D01*
X176631750Y-143836928D01*
X176464592Y-143853392D01*
X176303858Y-143902150D01*
X176155725Y-143981329D01*
X176035000Y-144080405D01*
X176035000Y-143825518D01*
X176039040Y-143784500D01*
X176033439Y-143727637D01*
X176022918Y-143620811D01*
X175991072Y-143515828D01*
X175991072Y-143243750D01*
X175974608Y-143076592D01*
X175925850Y-142915858D01*
X175846671Y-142767725D01*
X175740115Y-142637885D01*
X175712189Y-142614967D01*
X175808185Y-142536185D01*
X175887537Y-142439494D01*
X175946502Y-142329180D01*
X175982812Y-142209482D01*
X175995072Y-142085000D01*
X175992000Y-141895750D01*
X175833250Y-141737000D01*
X175046500Y-141737000D01*
X175046500Y-141757000D01*
X174792500Y-141757000D01*
X174792500Y-141737000D01*
X174772500Y-141737000D01*
X174772500Y-141483000D01*
X174792500Y-141483000D01*
X174792500Y-141463000D01*
X175046500Y-141463000D01*
X175046500Y-141483000D01*
X175833250Y-141483000D01*
X175992000Y-141324250D01*
X175995072Y-141135000D01*
X175982812Y-141010518D01*
X175946502Y-140890820D01*
X175889725Y-140784600D01*
X176203689Y-140784600D01*
X176272626Y-140853537D01*
X176442144Y-140966805D01*
X176630502Y-141044826D01*
X176830461Y-141084600D01*
X176942850Y-141084600D01*
X177023750Y-141165500D01*
X178073000Y-141165500D01*
X178073000Y-140328750D01*
X178327000Y-140328750D01*
X178327000Y-141165500D01*
X179376250Y-141165500D01*
X179535000Y-141006750D01*
X179538072Y-140805000D01*
X179525812Y-140680518D01*
X179489502Y-140560820D01*
X179430537Y-140450506D01*
X179351185Y-140353815D01*
X179254494Y-140274463D01*
X179144180Y-140215498D01*
X179024482Y-140179188D01*
X178900000Y-140166928D01*
X178485750Y-140170000D01*
X178327000Y-140328750D01*
X178073000Y-140328750D01*
X177955519Y-140211269D01*
X177967400Y-140151539D01*
X177967400Y-139947661D01*
X177927626Y-139747702D01*
X177849605Y-139559344D01*
X177736337Y-139389826D01*
X177592174Y-139245663D01*
X177422656Y-139132395D01*
X177276892Y-139072017D01*
X179598090Y-139072017D01*
X179639078Y-139344133D01*
X179732364Y-139603023D01*
X179794344Y-139718980D01*
X180034435Y-139785960D01*
X180820395Y-139000000D01*
X181179605Y-139000000D01*
X181965565Y-139785960D01*
X182205656Y-139718980D01*
X182322756Y-139469952D01*
X182389023Y-139202865D01*
X182401910Y-138927983D01*
X182360922Y-138655867D01*
X182267636Y-138396977D01*
X182205656Y-138281020D01*
X181965565Y-138214040D01*
X181179605Y-139000000D01*
X180820395Y-139000000D01*
X180034435Y-138214040D01*
X179794344Y-138281020D01*
X179677244Y-138530048D01*
X179610977Y-138797135D01*
X179598090Y-139072017D01*
X177276892Y-139072017D01*
X177234298Y-139054374D01*
X177034339Y-139014600D01*
X176830461Y-139014600D01*
X176630502Y-139054374D01*
X176442144Y-139132395D01*
X176272626Y-139245663D01*
X176203689Y-139314600D01*
X171059805Y-139314600D01*
X171023700Y-139311044D01*
X170879615Y-139325235D01*
X170741066Y-139367263D01*
X170631529Y-139425812D01*
X170613380Y-139435513D01*
X170501462Y-139527362D01*
X170478446Y-139555407D01*
X167525259Y-142508595D01*
X167502226Y-142392802D01*
X167424205Y-142204444D01*
X167310937Y-142034926D01*
X167268429Y-141992418D01*
X170388647Y-138872200D01*
X177456795Y-138872200D01*
X177492900Y-138875756D01*
X177529005Y-138872200D01*
X177636985Y-138861565D01*
X177775533Y-138819537D01*
X177903220Y-138751287D01*
X178015138Y-138659438D01*
X178038159Y-138631387D01*
X178635111Y-138034435D01*
X180214040Y-138034435D01*
X181000000Y-138820395D01*
X181785960Y-138034435D01*
X181718980Y-137794344D01*
X181469952Y-137677244D01*
X181202865Y-137610977D01*
X180927983Y-137598090D01*
X180655867Y-137639078D01*
X180396977Y-137732364D01*
X180281020Y-137794344D01*
X180214040Y-138034435D01*
X178635111Y-138034435D01*
X179247893Y-137421653D01*
X182287952Y-137421653D01*
X182443962Y-137737214D01*
X182818745Y-137928020D01*
X183223551Y-138042044D01*
X183642824Y-138074902D01*
X184060451Y-138025334D01*
X184460383Y-137895243D01*
X184756038Y-137737214D01*
X184912048Y-137421653D01*
X183600000Y-136109605D01*
X182287952Y-137421653D01*
X179247893Y-137421653D01*
X181686171Y-134983375D01*
X181601980Y-135148745D01*
X181487956Y-135553551D01*
X181455098Y-135972824D01*
X181504666Y-136390451D01*
X181634757Y-136790383D01*
X181792786Y-137086038D01*
X182108347Y-137242048D01*
X183420395Y-135930000D01*
X183406253Y-135915858D01*
X183585858Y-135736253D01*
X183600000Y-135750395D01*
X183614143Y-135736253D01*
X183793748Y-135915858D01*
X183779605Y-135930000D01*
X185091653Y-137242048D01*
X185407214Y-137086038D01*
X185598020Y-136711255D01*
X185712044Y-136306449D01*
X185744902Y-135887176D01*
X185695334Y-135469549D01*
X185627215Y-135260136D01*
X185651898Y-135255226D01*
X185840256Y-135177205D01*
X186009774Y-135063937D01*
X186153937Y-134919774D01*
X186267205Y-134750256D01*
X186345226Y-134561898D01*
X186385000Y-134361939D01*
X186385000Y-134158061D01*
X186345226Y-133958102D01*
X186267205Y-133769744D01*
X186153937Y-133600226D01*
X186009774Y-133456063D01*
X185911699Y-133390531D01*
X185951034Y-133378599D01*
X186209014Y-133240706D01*
X186435134Y-133055134D01*
X186620706Y-132829014D01*
X186655201Y-132764477D01*
X186724822Y-132881355D01*
X186919731Y-133097588D01*
X187153080Y-133271641D01*
X187415901Y-133396825D01*
X187563110Y-133441476D01*
X187793000Y-133320155D01*
X187793000Y-132127000D01*
X187773000Y-132127000D01*
X187773000Y-131873000D01*
X187793000Y-131873000D01*
X187793000Y-131853000D01*
X188047000Y-131853000D01*
X188047000Y-131873000D01*
G36*
X165772000Y-145488750D02*
G01*
X165712000Y-145548750D01*
X165712000Y-146498000D01*
X165732000Y-146498000D01*
X165732000Y-146752000D01*
X165712000Y-146752000D01*
X165712000Y-147701250D01*
X165870750Y-147860000D01*
X166085000Y-147863072D01*
X166209482Y-147850812D01*
X166329180Y-147814502D01*
X166439494Y-147755537D01*
X166533633Y-147678279D01*
X167550200Y-148694847D01*
X167550200Y-148792339D01*
X167589974Y-148992298D01*
X167667995Y-149180656D01*
X167781263Y-149350174D01*
X167925426Y-149494337D01*
X168094944Y-149607605D01*
X168283302Y-149685626D01*
X168483261Y-149725400D01*
X168687139Y-149725400D01*
X168887098Y-149685626D01*
X169075456Y-149607605D01*
X169205001Y-149521046D01*
X169205001Y-150508552D01*
X169005570Y-150707984D01*
X168985537Y-150670506D01*
X168906185Y-150573815D01*
X168809494Y-150494463D01*
X168699180Y-150435498D01*
X168579482Y-150399188D01*
X168455000Y-150386928D01*
X168303250Y-150390000D01*
X168144500Y-150548750D01*
X168144500Y-151373000D01*
X168164500Y-151373000D01*
X168164500Y-151549054D01*
X168066554Y-151647000D01*
X167890500Y-151647000D01*
X167890500Y-151627000D01*
X167870500Y-151627000D01*
X167870500Y-151373000D01*
X167890500Y-151373000D01*
X167890500Y-150548750D01*
X167731750Y-150390000D01*
X167580000Y-150386928D01*
X167455518Y-150399188D01*
X167335820Y-150435498D01*
X167225506Y-150494463D01*
X167158930Y-150549100D01*
X167137275Y-150531329D01*
X166989142Y-150452150D01*
X166828408Y-150403392D01*
X166661250Y-150386928D01*
X166223750Y-150386928D01*
X166056592Y-150403392D01*
X165895858Y-150452150D01*
X165747725Y-150531329D01*
X165647075Y-150613929D01*
X165642115Y-150607885D01*
X165512275Y-150501329D01*
X165364142Y-150422150D01*
X165203408Y-150373392D01*
X165036250Y-150356928D01*
X164936717Y-150356928D01*
X164908526Y-150215202D01*
X164830505Y-150026844D01*
X164717237Y-149857326D01*
X164573074Y-149713163D01*
X164403556Y-149599895D01*
X164215198Y-149521874D01*
X164015239Y-149482100D01*
X163811361Y-149482100D01*
X163611402Y-149521874D01*
X163423044Y-149599895D01*
X163253526Y-149713163D01*
X163109363Y-149857326D01*
X162996095Y-150026844D01*
X162918074Y-150215202D01*
X162887208Y-150370377D01*
X162856592Y-150373392D01*
X162695858Y-150422150D01*
X162578274Y-150485000D01*
X162528589Y-150485000D01*
X162525947Y-150476291D01*
X162444458Y-150323836D01*
X162355650Y-150215623D01*
X162448671Y-150102275D01*
X162527850Y-149954142D01*
X162576608Y-149793408D01*
X162593072Y-149626250D01*
X162593072Y-149113750D01*
X162576608Y-148946592D01*
X162527850Y-148785858D01*
X162448671Y-148637725D01*
X162342115Y-148507885D01*
X162212275Y-148401329D01*
X162064142Y-148322150D01*
X161903408Y-148273392D01*
X161736250Y-148256928D01*
X161520000Y-148256928D01*
X161520000Y-147863072D01*
X162185000Y-147863072D01*
X162309482Y-147850812D01*
X162385000Y-147827904D01*
X162460518Y-147850812D01*
X162585000Y-147863072D01*
X163285000Y-147863072D01*
X163409482Y-147850812D01*
X163485000Y-147827904D01*
X163560518Y-147850812D01*
X163685000Y-147863072D01*
X164385000Y-147863072D01*
X164509482Y-147850812D01*
X164629180Y-147814502D01*
X164735000Y-147757939D01*
X164840820Y-147814502D01*
X164960518Y-147850812D01*
X165085000Y-147863072D01*
X165299250Y-147860000D01*
X165458000Y-147701250D01*
X165458000Y-146752000D01*
X165438000Y-146752000D01*
X165438000Y-146498000D01*
X165458000Y-146498000D01*
X165458000Y-145548750D01*
X165299250Y-145390000D01*
X165085000Y-145386928D01*
X164960518Y-145399188D01*
X164840820Y-145435498D01*
X164735000Y-145492061D01*
X164629180Y-145435498D01*
X164509482Y-145399188D01*
X164385000Y-145386928D01*
X163754633Y-145386928D01*
X163853705Y-145238656D01*
X163931726Y-145050298D01*
X163971500Y-144850339D01*
X163971500Y-144646461D01*
X163931726Y-144446502D01*
X163867416Y-144291245D01*
X164014775Y-144143886D01*
X164118226Y-144247337D01*
X164287744Y-144360605D01*
X164476102Y-144438626D01*
X164676061Y-144478400D01*
X164879939Y-144478400D01*
X165079898Y-144438626D01*
X165268256Y-144360605D01*
X165437774Y-144247337D01*
X165581937Y-144103174D01*
X165695205Y-143933656D01*
X165772001Y-143748256D01*
X165772000Y-145488750D01*
X165772000Y-145488750D01*
G37*
X165772000Y-145488750D02*
X165712000Y-145548750D01*
X165712000Y-146498000D01*
X165732000Y-146498000D01*
X165732000Y-146752000D01*
X165712000Y-146752000D01*
X165712000Y-147701250D01*
X165870750Y-147860000D01*
X166085000Y-147863072D01*
X166209482Y-147850812D01*
X166329180Y-147814502D01*
X166439494Y-147755537D01*
X166533633Y-147678279D01*
X167550200Y-148694847D01*
X167550200Y-148792339D01*
X167589974Y-148992298D01*
X167667995Y-149180656D01*
X167781263Y-149350174D01*
X167925426Y-149494337D01*
X168094944Y-149607605D01*
X168283302Y-149685626D01*
X168483261Y-149725400D01*
X168687139Y-149725400D01*
X168887098Y-149685626D01*
X169075456Y-149607605D01*
X169205001Y-149521046D01*
X169205001Y-150508552D01*
X169005570Y-150707984D01*
X168985537Y-150670506D01*
X168906185Y-150573815D01*
X168809494Y-150494463D01*
X168699180Y-150435498D01*
X168579482Y-150399188D01*
X168455000Y-150386928D01*
X168303250Y-150390000D01*
X168144500Y-150548750D01*
X168144500Y-151373000D01*
X168164500Y-151373000D01*
X168164500Y-151549054D01*
X168066554Y-151647000D01*
X167890500Y-151647000D01*
X167890500Y-151627000D01*
X167870500Y-151627000D01*
X167870500Y-151373000D01*
X167890500Y-151373000D01*
X167890500Y-150548750D01*
X167731750Y-150390000D01*
X167580000Y-150386928D01*
X167455518Y-150399188D01*
X167335820Y-150435498D01*
X167225506Y-150494463D01*
X167158930Y-150549100D01*
X167137275Y-150531329D01*
X166989142Y-150452150D01*
X166828408Y-150403392D01*
X166661250Y-150386928D01*
X166223750Y-150386928D01*
X166056592Y-150403392D01*
X165895858Y-150452150D01*
X165747725Y-150531329D01*
X165647075Y-150613929D01*
X165642115Y-150607885D01*
X165512275Y-150501329D01*
X165364142Y-150422150D01*
X165203408Y-150373392D01*
X165036250Y-150356928D01*
X164936717Y-150356928D01*
X164908526Y-150215202D01*
X164830505Y-150026844D01*
X164717237Y-149857326D01*
X164573074Y-149713163D01*
X164403556Y-149599895D01*
X164215198Y-149521874D01*
X164015239Y-149482100D01*
X163811361Y-149482100D01*
X163611402Y-149521874D01*
X163423044Y-149599895D01*
X163253526Y-149713163D01*
X163109363Y-149857326D01*
X162996095Y-150026844D01*
X162918074Y-150215202D01*
X162887208Y-150370377D01*
X162856592Y-150373392D01*
X162695858Y-150422150D01*
X162578274Y-150485000D01*
X162528589Y-150485000D01*
X162525947Y-150476291D01*
X162444458Y-150323836D01*
X162355650Y-150215623D01*
X162448671Y-150102275D01*
X162527850Y-149954142D01*
X162576608Y-149793408D01*
X162593072Y-149626250D01*
X162593072Y-149113750D01*
X162576608Y-148946592D01*
X162527850Y-148785858D01*
X162448671Y-148637725D01*
X162342115Y-148507885D01*
X162212275Y-148401329D01*
X162064142Y-148322150D01*
X161903408Y-148273392D01*
X161736250Y-148256928D01*
X161520000Y-148256928D01*
X161520000Y-147863072D01*
X162185000Y-147863072D01*
X162309482Y-147850812D01*
X162385000Y-147827904D01*
X162460518Y-147850812D01*
X162585000Y-147863072D01*
X163285000Y-147863072D01*
X163409482Y-147850812D01*
X163485000Y-147827904D01*
X163560518Y-147850812D01*
X163685000Y-147863072D01*
X164385000Y-147863072D01*
X164509482Y-147850812D01*
X164629180Y-147814502D01*
X164735000Y-147757939D01*
X164840820Y-147814502D01*
X164960518Y-147850812D01*
X165085000Y-147863072D01*
X165299250Y-147860000D01*
X165458000Y-147701250D01*
X165458000Y-146752000D01*
X165438000Y-146752000D01*
X165438000Y-146498000D01*
X165458000Y-146498000D01*
X165458000Y-145548750D01*
X165299250Y-145390000D01*
X165085000Y-145386928D01*
X164960518Y-145399188D01*
X164840820Y-145435498D01*
X164735000Y-145492061D01*
X164629180Y-145435498D01*
X164509482Y-145399188D01*
X164385000Y-145386928D01*
X163754633Y-145386928D01*
X163853705Y-145238656D01*
X163931726Y-145050298D01*
X163971500Y-144850339D01*
X163971500Y-144646461D01*
X163931726Y-144446502D01*
X163867416Y-144291245D01*
X164014775Y-144143886D01*
X164118226Y-144247337D01*
X164287744Y-144360605D01*
X164476102Y-144438626D01*
X164676061Y-144478400D01*
X164879939Y-144478400D01*
X165079898Y-144438626D01*
X165268256Y-144360605D01*
X165437774Y-144247337D01*
X165581937Y-144103174D01*
X165695205Y-143933656D01*
X165772001Y-143748256D01*
X165772000Y-145488750D01*
G36*
X159719500Y-151143000D02*
G01*
X159739500Y-151143000D01*
X159739500Y-151397000D01*
X159719500Y-151397000D01*
X159719500Y-151417000D01*
X159465500Y-151417000D01*
X159465500Y-151397000D01*
X159445500Y-151397000D01*
X159445500Y-151143000D01*
X159465500Y-151143000D01*
X159465500Y-151123000D01*
X159719500Y-151123000D01*
X159719500Y-151143000D01*
X159719500Y-151143000D01*
G37*
X159719500Y-151143000D02*
X159739500Y-151143000D01*
X159739500Y-151397000D01*
X159719500Y-151397000D01*
X159719500Y-151417000D01*
X159465500Y-151417000D01*
X159465500Y-151397000D01*
X159445500Y-151397000D01*
X159445500Y-151143000D01*
X159465500Y-151143000D01*
X159465500Y-151123000D01*
X159719500Y-151123000D01*
X159719500Y-151143000D01*
G36*
X158646928Y-147225000D02*
G01*
X158659188Y-147349482D01*
X158662000Y-147358752D01*
X158662000Y-147701250D01*
X158820750Y-147860000D01*
X158885000Y-147863072D01*
X159009482Y-147850812D01*
X159085000Y-147827904D01*
X159160518Y-147850812D01*
X159285000Y-147863072D01*
X159950001Y-147863072D01*
X159950001Y-148548938D01*
X159946203Y-148587500D01*
X159961359Y-148741386D01*
X160006246Y-148889359D01*
X160028133Y-148930307D01*
X160069500Y-149007699D01*
X160069500Y-149243000D01*
X160089500Y-149243000D01*
X160089500Y-149497000D01*
X160069500Y-149497000D01*
X160069500Y-149517000D01*
X159815500Y-149517000D01*
X159815500Y-149497000D01*
X159028750Y-149497000D01*
X158870000Y-149655750D01*
X158866928Y-149845000D01*
X158879188Y-149969482D01*
X158880700Y-149974467D01*
X158860820Y-149980498D01*
X158750506Y-150039463D01*
X158653815Y-150118815D01*
X158574463Y-150215506D01*
X158515498Y-150325820D01*
X158479188Y-150445518D01*
X158466928Y-150570000D01*
X158469643Y-150936096D01*
X156428547Y-148895000D01*
X158866928Y-148895000D01*
X158870000Y-149084250D01*
X159028750Y-149243000D01*
X159815500Y-149243000D01*
X159815500Y-148418750D01*
X159656750Y-148260000D01*
X159505000Y-148256928D01*
X159380518Y-148269188D01*
X159260820Y-148305498D01*
X159150506Y-148364463D01*
X159053815Y-148443815D01*
X158974463Y-148540506D01*
X158915498Y-148650820D01*
X158879188Y-148770518D01*
X158866928Y-148895000D01*
X156428547Y-148895000D01*
X155622200Y-148088654D01*
X155622200Y-148010161D01*
X155592942Y-147863072D01*
X155735000Y-147863072D01*
X155859482Y-147850812D01*
X155860000Y-147850655D01*
X155860518Y-147850812D01*
X155985000Y-147863072D01*
X156685000Y-147863072D01*
X156809482Y-147850812D01*
X156885000Y-147827904D01*
X156960518Y-147850812D01*
X157085000Y-147863072D01*
X157785000Y-147863072D01*
X157909482Y-147850812D01*
X157985000Y-147827904D01*
X158060518Y-147850812D01*
X158185000Y-147863072D01*
X158249250Y-147860000D01*
X158408000Y-147701250D01*
X158408000Y-147358752D01*
X158410812Y-147349482D01*
X158423072Y-147225000D01*
X158423072Y-146478000D01*
X158646928Y-146478000D01*
X158646928Y-147225000D01*
X158646928Y-147225000D01*
G37*
X158646928Y-147225000D02*
X158659188Y-147349482D01*
X158662000Y-147358752D01*
X158662000Y-147701250D01*
X158820750Y-147860000D01*
X158885000Y-147863072D01*
X159009482Y-147850812D01*
X159085000Y-147827904D01*
X159160518Y-147850812D01*
X159285000Y-147863072D01*
X159950001Y-147863072D01*
X159950001Y-148548938D01*
X159946203Y-148587500D01*
X159961359Y-148741386D01*
X160006246Y-148889359D01*
X160028133Y-148930307D01*
X160069500Y-149007699D01*
X160069500Y-149243000D01*
X160089500Y-149243000D01*
X160089500Y-149497000D01*
X160069500Y-149497000D01*
X160069500Y-149517000D01*
X159815500Y-149517000D01*
X159815500Y-149497000D01*
X159028750Y-149497000D01*
X158870000Y-149655750D01*
X158866928Y-149845000D01*
X158879188Y-149969482D01*
X158880700Y-149974467D01*
X158860820Y-149980498D01*
X158750506Y-150039463D01*
X158653815Y-150118815D01*
X158574463Y-150215506D01*
X158515498Y-150325820D01*
X158479188Y-150445518D01*
X158466928Y-150570000D01*
X158469643Y-150936096D01*
X156428547Y-148895000D01*
X158866928Y-148895000D01*
X158870000Y-149084250D01*
X159028750Y-149243000D01*
X159815500Y-149243000D01*
X159815500Y-148418750D01*
X159656750Y-148260000D01*
X159505000Y-148256928D01*
X159380518Y-148269188D01*
X159260820Y-148305498D01*
X159150506Y-148364463D01*
X159053815Y-148443815D01*
X158974463Y-148540506D01*
X158915498Y-148650820D01*
X158879188Y-148770518D01*
X158866928Y-148895000D01*
X156428547Y-148895000D01*
X155622200Y-148088654D01*
X155622200Y-148010161D01*
X155592942Y-147863072D01*
X155735000Y-147863072D01*
X155859482Y-147850812D01*
X155860000Y-147850655D01*
X155860518Y-147850812D01*
X155985000Y-147863072D01*
X156685000Y-147863072D01*
X156809482Y-147850812D01*
X156885000Y-147827904D01*
X156960518Y-147850812D01*
X157085000Y-147863072D01*
X157785000Y-147863072D01*
X157909482Y-147850812D01*
X157985000Y-147827904D01*
X158060518Y-147850812D01*
X158185000Y-147863072D01*
X158249250Y-147860000D01*
X158408000Y-147701250D01*
X158408000Y-147358752D01*
X158410812Y-147349482D01*
X158423072Y-147225000D01*
X158423072Y-146478000D01*
X158646928Y-146478000D01*
X158646928Y-147225000D01*
G36*
X150627000Y-147440500D02*
G01*
X150647000Y-147440500D01*
X150647000Y-147694500D01*
X150627000Y-147694500D01*
X150627000Y-147714500D01*
X150373000Y-147714500D01*
X150373000Y-147694500D01*
X149548750Y-147694500D01*
X149390000Y-147853250D01*
X149386928Y-148005000D01*
X149399188Y-148129482D01*
X149435498Y-148249180D01*
X149494463Y-148359494D01*
X149568657Y-148449900D01*
X148959347Y-148449900D01*
X148923600Y-148414153D01*
X148947755Y-148383447D01*
X149004425Y-148271937D01*
X149038252Y-148151514D01*
X149047936Y-148026805D01*
X149045000Y-147875750D01*
X148886250Y-147717000D01*
X148283000Y-147717000D01*
X148283000Y-147737000D01*
X148246446Y-147737000D01*
X148148072Y-147638626D01*
X148148072Y-147457681D01*
X148160000Y-147458856D01*
X148196105Y-147455300D01*
X148283000Y-147455300D01*
X148283000Y-147463000D01*
X148886250Y-147463000D01*
X148893950Y-147455300D01*
X149736095Y-147455300D01*
X149772200Y-147458856D01*
X149808305Y-147455300D01*
X149916285Y-147444665D01*
X149930015Y-147440500D01*
X150373000Y-147440500D01*
X150373000Y-147420500D01*
X150627000Y-147420500D01*
X150627000Y-147440500D01*
X150627000Y-147440500D01*
G37*
X150627000Y-147440500D02*
X150647000Y-147440500D01*
X150647000Y-147694500D01*
X150627000Y-147694500D01*
X150627000Y-147714500D01*
X150373000Y-147714500D01*
X150373000Y-147694500D01*
X149548750Y-147694500D01*
X149390000Y-147853250D01*
X149386928Y-148005000D01*
X149399188Y-148129482D01*
X149435498Y-148249180D01*
X149494463Y-148359494D01*
X149568657Y-148449900D01*
X148959347Y-148449900D01*
X148923600Y-148414153D01*
X148947755Y-148383447D01*
X149004425Y-148271937D01*
X149038252Y-148151514D01*
X149047936Y-148026805D01*
X149045000Y-147875750D01*
X148886250Y-147717000D01*
X148283000Y-147717000D01*
X148283000Y-147737000D01*
X148246446Y-147737000D01*
X148148072Y-147638626D01*
X148148072Y-147457681D01*
X148160000Y-147458856D01*
X148196105Y-147455300D01*
X148283000Y-147455300D01*
X148283000Y-147463000D01*
X148886250Y-147463000D01*
X148893950Y-147455300D01*
X149736095Y-147455300D01*
X149772200Y-147458856D01*
X149808305Y-147455300D01*
X149916285Y-147444665D01*
X149930015Y-147440500D01*
X150373000Y-147440500D01*
X150373000Y-147420500D01*
X150627000Y-147420500D01*
X150627000Y-147440500D01*
G36*
X174307968Y-145756218D02*
G01*
X174344463Y-145824494D01*
X174395519Y-145886707D01*
X174392367Y-145887663D01*
X174264680Y-145955913D01*
X174166675Y-146036344D01*
X174155537Y-146015506D01*
X174077158Y-145920000D01*
X174155537Y-145824494D01*
X174192032Y-145756218D01*
X174250000Y-145698250D01*
X174307968Y-145756218D01*
X174307968Y-145756218D01*
G37*
X174307968Y-145756218D02*
X174344463Y-145824494D01*
X174395519Y-145886707D01*
X174392367Y-145887663D01*
X174264680Y-145955913D01*
X174166675Y-146036344D01*
X174155537Y-146015506D01*
X174077158Y-145920000D01*
X174155537Y-145824494D01*
X174192032Y-145756218D01*
X174250000Y-145698250D01*
X174307968Y-145756218D01*
G36*
X174250355Y-145598328D02*
G01*
X174250000Y-145601409D01*
X174249645Y-145598328D01*
X174250000Y-145597159D01*
X174250355Y-145598328D01*
X174250355Y-145598328D01*
G37*
X174250355Y-145598328D02*
X174250000Y-145601409D01*
X174249645Y-145598328D01*
X174250000Y-145597159D01*
X174250355Y-145598328D01*
M02*
