G04 #@! TF.GenerationSoftware,KiCad,Pcbnew,(5.1.2)-1*
G04 #@! TF.CreationDate,2022-02-25T21:01:52+09:00*
G04 #@! TF.ProjectId,wcc,7763632e-6b69-4636-9164-5f7063625858,v2.2*
G04 #@! TF.SameCoordinates,Original*
G04 #@! TF.FileFunction,Legend,Bot*
G04 #@! TF.FilePolarity,Positive*
%FSLAX46Y46*%
G04 Gerber Fmt 4.6, Leading zero omitted, Abs format (unit mm)*
G04 Created by KiCad (PCBNEW (5.1.2)-1) date 2022-02-25 21:01:52*
%MOMM*%
%LPD*%
G04 APERTURE LIST*
%ADD10C,0.120000*%
%ADD11C,0.150000*%
%ADD12C,0.100000*%
%ADD13C,1.077000*%
%ADD14R,0.752000X0.502000*%
%ADD15C,0.977000*%
%ADD16R,0.602000X1.002000*%
%ADD17O,1.802000X1.802000*%
%ADD18R,1.802000X1.802000*%
%ADD19O,1.652000X1.652000*%
%ADD20O,1.352000X1.352000*%
%ADD21C,3.302000*%
%ADD22R,1.402000X2.002000*%
%ADD23R,1.102000X2.902000*%
%ADD24R,1.102000X0.902000*%
%ADD25R,1.102000X1.302000*%
%ADD26R,0.802000X1.302000*%
%ADD27R,0.902000X1.002000*%
%ADD28R,4.102000X4.102000*%
%ADD29C,2.502000*%
%ADD30C,3.102000*%
%ADD31C,1.626000*%
G04 APERTURE END LIST*
D10*
X183491428Y-134021904D02*
X183491428Y-133221904D01*
X183186666Y-133221904D01*
X183110476Y-133260000D01*
X183072380Y-133298095D01*
X183034285Y-133374285D01*
X183034285Y-133488571D01*
X183072380Y-133564761D01*
X183110476Y-133602857D01*
X183186666Y-133640952D01*
X183491428Y-133640952D01*
X182272380Y-133260000D02*
X182348571Y-133221904D01*
X182462857Y-133221904D01*
X182577142Y-133260000D01*
X182653333Y-133336190D01*
X182691428Y-133412380D01*
X182729523Y-133564761D01*
X182729523Y-133679047D01*
X182691428Y-133831428D01*
X182653333Y-133907619D01*
X182577142Y-133983809D01*
X182462857Y-134021904D01*
X182386666Y-134021904D01*
X182272380Y-133983809D01*
X182234285Y-133945714D01*
X182234285Y-133679047D01*
X182386666Y-133679047D01*
X181891428Y-133602857D02*
X181624761Y-133602857D01*
X181510476Y-134021904D02*
X181891428Y-134021904D01*
X181891428Y-133221904D01*
X181510476Y-133221904D01*
X180710476Y-133945714D02*
X180748571Y-133983809D01*
X180862857Y-134021904D01*
X180939047Y-134021904D01*
X181053333Y-133983809D01*
X181129523Y-133907619D01*
X181167619Y-133831428D01*
X181205714Y-133679047D01*
X181205714Y-133564761D01*
X181167619Y-133412380D01*
X181129523Y-133336190D01*
X181053333Y-133260000D01*
X180939047Y-133221904D01*
X180862857Y-133221904D01*
X180748571Y-133260000D01*
X180710476Y-133298095D01*
X186781428Y-134031904D02*
X186781428Y-133231904D01*
X186476666Y-133231904D01*
X186400476Y-133270000D01*
X186362380Y-133308095D01*
X186324285Y-133384285D01*
X186324285Y-133498571D01*
X186362380Y-133574761D01*
X186400476Y-133612857D01*
X186476666Y-133650952D01*
X186781428Y-133650952D01*
X185562380Y-133270000D02*
X185638571Y-133231904D01*
X185752857Y-133231904D01*
X185867142Y-133270000D01*
X185943333Y-133346190D01*
X185981428Y-133422380D01*
X186019523Y-133574761D01*
X186019523Y-133689047D01*
X185981428Y-133841428D01*
X185943333Y-133917619D01*
X185867142Y-133993809D01*
X185752857Y-134031904D01*
X185676666Y-134031904D01*
X185562380Y-133993809D01*
X185524285Y-133955714D01*
X185524285Y-133689047D01*
X185676666Y-133689047D01*
X185181428Y-133612857D02*
X184914761Y-133612857D01*
X184800476Y-134031904D02*
X185181428Y-134031904D01*
X185181428Y-133231904D01*
X184800476Y-133231904D01*
X184457619Y-134031904D02*
X184457619Y-133231904D01*
X184267142Y-133231904D01*
X184152857Y-133270000D01*
X184076666Y-133346190D01*
X184038571Y-133422380D01*
X184000476Y-133574761D01*
X184000476Y-133689047D01*
X184038571Y-133841428D01*
X184076666Y-133917619D01*
X184152857Y-133993809D01*
X184267142Y-134031904D01*
X184457619Y-134031904D01*
X188260000Y-134999523D02*
X188298095Y-135075714D01*
X188298095Y-135190000D01*
X188260000Y-135304285D01*
X188183809Y-135380476D01*
X188107619Y-135418571D01*
X187955238Y-135456666D01*
X187840952Y-135456666D01*
X187688571Y-135418571D01*
X187612380Y-135380476D01*
X187536190Y-135304285D01*
X187498095Y-135190000D01*
X187498095Y-135113809D01*
X187536190Y-134999523D01*
X187574285Y-134961428D01*
X187840952Y-134961428D01*
X187840952Y-135113809D01*
X187498095Y-134618571D02*
X188298095Y-134618571D01*
X187498095Y-134161428D01*
X188298095Y-134161428D01*
X187498095Y-133780476D02*
X188298095Y-133780476D01*
X188298095Y-133590000D01*
X188260000Y-133475714D01*
X188183809Y-133399523D01*
X188107619Y-133361428D01*
X187955238Y-133323333D01*
X187840952Y-133323333D01*
X187688571Y-133361428D01*
X187612380Y-133399523D01*
X187536190Y-133475714D01*
X187498095Y-133590000D01*
X187498095Y-133780476D01*
X192548095Y-134688095D02*
X192929047Y-134954761D01*
X192548095Y-135145238D02*
X193348095Y-135145238D01*
X193348095Y-134840476D01*
X193310000Y-134764285D01*
X193271904Y-134726190D01*
X193195714Y-134688095D01*
X193081428Y-134688095D01*
X193005238Y-134726190D01*
X192967142Y-134764285D01*
X192929047Y-134840476D01*
X192929047Y-135145238D01*
X192586190Y-134383333D02*
X192548095Y-134269047D01*
X192548095Y-134078571D01*
X192586190Y-134002380D01*
X192624285Y-133964285D01*
X192700476Y-133926190D01*
X192776666Y-133926190D01*
X192852857Y-133964285D01*
X192890952Y-134002380D01*
X192929047Y-134078571D01*
X192967142Y-134230952D01*
X193005238Y-134307142D01*
X193043333Y-134345238D01*
X193119523Y-134383333D01*
X193195714Y-134383333D01*
X193271904Y-134345238D01*
X193310000Y-134307142D01*
X193348095Y-134230952D01*
X193348095Y-134040476D01*
X193310000Y-133926190D01*
X193348095Y-133697619D02*
X193348095Y-133240476D01*
X192548095Y-133469047D02*
X193348095Y-133469047D01*
X190778095Y-135128095D02*
X190778095Y-134632857D01*
X190473333Y-134899523D01*
X190473333Y-134785238D01*
X190435238Y-134709047D01*
X190397142Y-134670952D01*
X190320952Y-134632857D01*
X190130476Y-134632857D01*
X190054285Y-134670952D01*
X190016190Y-134709047D01*
X189978095Y-134785238D01*
X189978095Y-135013809D01*
X190016190Y-135090000D01*
X190054285Y-135128095D01*
X190054285Y-134290000D02*
X190016190Y-134251904D01*
X189978095Y-134290000D01*
X190016190Y-134328095D01*
X190054285Y-134290000D01*
X189978095Y-134290000D01*
X190778095Y-133985238D02*
X190778095Y-133490000D01*
X190473333Y-133756666D01*
X190473333Y-133642380D01*
X190435238Y-133566190D01*
X190397142Y-133528095D01*
X190320952Y-133490000D01*
X190130476Y-133490000D01*
X190054285Y-133528095D01*
X190016190Y-133566190D01*
X189978095Y-133642380D01*
X189978095Y-133870952D01*
X190016190Y-133947142D01*
X190054285Y-133985238D01*
X179964285Y-151343333D02*
X179926190Y-151381428D01*
X179888095Y-151495714D01*
X179888095Y-151571904D01*
X179926190Y-151686190D01*
X180002380Y-151762380D01*
X180078571Y-151800476D01*
X180230952Y-151838571D01*
X180345238Y-151838571D01*
X180497619Y-151800476D01*
X180573809Y-151762380D01*
X180650000Y-151686190D01*
X180688095Y-151571904D01*
X180688095Y-151495714D01*
X180650000Y-151381428D01*
X180611904Y-151343333D01*
X179926190Y-151038571D02*
X179888095Y-150924285D01*
X179888095Y-150733809D01*
X179926190Y-150657619D01*
X179964285Y-150619523D01*
X180040476Y-150581428D01*
X180116666Y-150581428D01*
X180192857Y-150619523D01*
X180230952Y-150657619D01*
X180269047Y-150733809D01*
X180307142Y-150886190D01*
X180345238Y-150962380D01*
X180383333Y-151000476D01*
X180459523Y-151038571D01*
X180535714Y-151038571D01*
X180611904Y-151000476D01*
X180650000Y-150962380D01*
X180688095Y-150886190D01*
X180688095Y-150695714D01*
X180650000Y-150581428D01*
X184107142Y-151731904D02*
X184107142Y-150931904D01*
X183840476Y-151503333D01*
X183573809Y-150931904D01*
X183573809Y-151731904D01*
X183040476Y-150931904D02*
X182888095Y-150931904D01*
X182811904Y-150970000D01*
X182735714Y-151046190D01*
X182697619Y-151198571D01*
X182697619Y-151465238D01*
X182735714Y-151617619D01*
X182811904Y-151693809D01*
X182888095Y-151731904D01*
X183040476Y-151731904D01*
X183116666Y-151693809D01*
X183192857Y-151617619D01*
X183230952Y-151465238D01*
X183230952Y-151198571D01*
X183192857Y-151046190D01*
X183116666Y-150970000D01*
X183040476Y-150931904D01*
X182392857Y-151693809D02*
X182278571Y-151731904D01*
X182088095Y-151731904D01*
X182011904Y-151693809D01*
X181973809Y-151655714D01*
X181935714Y-151579523D01*
X181935714Y-151503333D01*
X181973809Y-151427142D01*
X182011904Y-151389047D01*
X182088095Y-151350952D01*
X182240476Y-151312857D01*
X182316666Y-151274761D01*
X182354761Y-151236666D01*
X182392857Y-151160476D01*
X182392857Y-151084285D01*
X182354761Y-151008095D01*
X182316666Y-150970000D01*
X182240476Y-150931904D01*
X182050000Y-150931904D01*
X181935714Y-150970000D01*
X181592857Y-151731904D02*
X181592857Y-150931904D01*
X185338095Y-151747142D02*
X186138095Y-151747142D01*
X185566666Y-151480476D01*
X186138095Y-151213809D01*
X185338095Y-151213809D01*
X185338095Y-150832857D02*
X186138095Y-150832857D01*
X185376190Y-150490000D02*
X185338095Y-150375714D01*
X185338095Y-150185238D01*
X185376190Y-150109047D01*
X185414285Y-150070952D01*
X185490476Y-150032857D01*
X185566666Y-150032857D01*
X185642857Y-150070952D01*
X185680952Y-150109047D01*
X185719047Y-150185238D01*
X185757142Y-150337619D01*
X185795238Y-150413809D01*
X185833333Y-150451904D01*
X185909523Y-150490000D01*
X185985714Y-150490000D01*
X186061904Y-150451904D01*
X186100000Y-150413809D01*
X186138095Y-150337619D01*
X186138095Y-150147142D01*
X186100000Y-150032857D01*
X186138095Y-149537619D02*
X186138095Y-149385238D01*
X186100000Y-149309047D01*
X186023809Y-149232857D01*
X185871428Y-149194761D01*
X185604761Y-149194761D01*
X185452380Y-149232857D01*
X185376190Y-149309047D01*
X185338095Y-149385238D01*
X185338095Y-149537619D01*
X185376190Y-149613809D01*
X185452380Y-149690000D01*
X185604761Y-149728095D01*
X185871428Y-149728095D01*
X186023809Y-149690000D01*
X186100000Y-149613809D01*
X186138095Y-149537619D01*
X187536190Y-151828571D02*
X187498095Y-151714285D01*
X187498095Y-151523809D01*
X187536190Y-151447619D01*
X187574285Y-151409523D01*
X187650476Y-151371428D01*
X187726666Y-151371428D01*
X187802857Y-151409523D01*
X187840952Y-151447619D01*
X187879047Y-151523809D01*
X187917142Y-151676190D01*
X187955238Y-151752380D01*
X187993333Y-151790476D01*
X188069523Y-151828571D01*
X188145714Y-151828571D01*
X188221904Y-151790476D01*
X188260000Y-151752380D01*
X188298095Y-151676190D01*
X188298095Y-151485714D01*
X188260000Y-151371428D01*
X187574285Y-150571428D02*
X187536190Y-150609523D01*
X187498095Y-150723809D01*
X187498095Y-150800000D01*
X187536190Y-150914285D01*
X187612380Y-150990476D01*
X187688571Y-151028571D01*
X187840952Y-151066666D01*
X187955238Y-151066666D01*
X188107619Y-151028571D01*
X188183809Y-150990476D01*
X188260000Y-150914285D01*
X188298095Y-150800000D01*
X188298095Y-150723809D01*
X188260000Y-150609523D01*
X188221904Y-150571428D01*
X187498095Y-150228571D02*
X188298095Y-150228571D01*
X187498095Y-149771428D02*
X187955238Y-150114285D01*
X188298095Y-149771428D02*
X187840952Y-150228571D01*
X190780000Y-151369523D02*
X190818095Y-151445714D01*
X190818095Y-151560000D01*
X190780000Y-151674285D01*
X190703809Y-151750476D01*
X190627619Y-151788571D01*
X190475238Y-151826666D01*
X190360952Y-151826666D01*
X190208571Y-151788571D01*
X190132380Y-151750476D01*
X190056190Y-151674285D01*
X190018095Y-151560000D01*
X190018095Y-151483809D01*
X190056190Y-151369523D01*
X190094285Y-151331428D01*
X190360952Y-151331428D01*
X190360952Y-151483809D01*
X190018095Y-150988571D02*
X190818095Y-150988571D01*
X190018095Y-150531428D01*
X190818095Y-150531428D01*
X190018095Y-150150476D02*
X190818095Y-150150476D01*
X190818095Y-149960000D01*
X190780000Y-149845714D01*
X190703809Y-149769523D01*
X190627619Y-149731428D01*
X190475238Y-149693333D01*
X190360952Y-149693333D01*
X190208571Y-149731428D01*
X190132380Y-149769523D01*
X190056190Y-149845714D01*
X190018095Y-149960000D01*
X190018095Y-150150476D01*
X193368095Y-151488095D02*
X193368095Y-150992857D01*
X193063333Y-151259523D01*
X193063333Y-151145238D01*
X193025238Y-151069047D01*
X192987142Y-151030952D01*
X192910952Y-150992857D01*
X192720476Y-150992857D01*
X192644285Y-151030952D01*
X192606190Y-151069047D01*
X192568095Y-151145238D01*
X192568095Y-151373809D01*
X192606190Y-151450000D01*
X192644285Y-151488095D01*
X192644285Y-150650000D02*
X192606190Y-150611904D01*
X192568095Y-150650000D01*
X192606190Y-150688095D01*
X192644285Y-150650000D01*
X192568095Y-150650000D01*
X193368095Y-150345238D02*
X193368095Y-149850000D01*
X193063333Y-150116666D01*
X193063333Y-150002380D01*
X193025238Y-149926190D01*
X192987142Y-149888095D01*
X192910952Y-149850000D01*
X192720476Y-149850000D01*
X192644285Y-149888095D01*
X192606190Y-149926190D01*
X192568095Y-150002380D01*
X192568095Y-150230952D01*
X192606190Y-150307142D01*
X192644285Y-150345238D01*
D11*
X189873095Y-149254761D02*
X189225476Y-149254761D01*
X189149285Y-149216666D01*
X189111190Y-149178571D01*
X189073095Y-149102380D01*
X189073095Y-148950000D01*
X189111190Y-148873809D01*
X189149285Y-148835714D01*
X189225476Y-148797619D01*
X189873095Y-148797619D01*
X189111190Y-148454761D02*
X189073095Y-148340476D01*
X189073095Y-148150000D01*
X189111190Y-148073809D01*
X189149285Y-148035714D01*
X189225476Y-147997619D01*
X189301666Y-147997619D01*
X189377857Y-148035714D01*
X189415952Y-148073809D01*
X189454047Y-148150000D01*
X189492142Y-148302380D01*
X189530238Y-148378571D01*
X189568333Y-148416666D01*
X189644523Y-148454761D01*
X189720714Y-148454761D01*
X189796904Y-148416666D01*
X189835000Y-148378571D01*
X189873095Y-148302380D01*
X189873095Y-148111904D01*
X189835000Y-147997619D01*
X189492142Y-147388095D02*
X189454047Y-147273809D01*
X189415952Y-147235714D01*
X189339761Y-147197619D01*
X189225476Y-147197619D01*
X189149285Y-147235714D01*
X189111190Y-147273809D01*
X189073095Y-147350000D01*
X189073095Y-147654761D01*
X189873095Y-147654761D01*
X189873095Y-147388095D01*
X189835000Y-147311904D01*
X189796904Y-147273809D01*
X189720714Y-147235714D01*
X189644523Y-147235714D01*
X189568333Y-147273809D01*
X189530238Y-147311904D01*
X189492142Y-147388095D01*
X189492142Y-147654761D01*
X189149285Y-145788095D02*
X189111190Y-145826190D01*
X189073095Y-145940476D01*
X189073095Y-146016666D01*
X189111190Y-146130952D01*
X189187380Y-146207142D01*
X189263571Y-146245238D01*
X189415952Y-146283333D01*
X189530238Y-146283333D01*
X189682619Y-146245238D01*
X189758809Y-146207142D01*
X189835000Y-146130952D01*
X189873095Y-146016666D01*
X189873095Y-145940476D01*
X189835000Y-145826190D01*
X189796904Y-145788095D01*
X189073095Y-145102380D02*
X189492142Y-145102380D01*
X189568333Y-145140476D01*
X189606428Y-145216666D01*
X189606428Y-145369047D01*
X189568333Y-145445238D01*
X189111190Y-145102380D02*
X189073095Y-145178571D01*
X189073095Y-145369047D01*
X189111190Y-145445238D01*
X189187380Y-145483333D01*
X189263571Y-145483333D01*
X189339761Y-145445238D01*
X189377857Y-145369047D01*
X189377857Y-145178571D01*
X189415952Y-145102380D01*
X189073095Y-144721428D02*
X189606428Y-144721428D01*
X189530238Y-144721428D02*
X189568333Y-144683333D01*
X189606428Y-144607142D01*
X189606428Y-144492857D01*
X189568333Y-144416666D01*
X189492142Y-144378571D01*
X189073095Y-144378571D01*
X189492142Y-144378571D02*
X189568333Y-144340476D01*
X189606428Y-144264285D01*
X189606428Y-144150000D01*
X189568333Y-144073809D01*
X189492142Y-144035714D01*
X189073095Y-144035714D01*
X189111190Y-143350000D02*
X189073095Y-143426190D01*
X189073095Y-143578571D01*
X189111190Y-143654761D01*
X189187380Y-143692857D01*
X189492142Y-143692857D01*
X189568333Y-143654761D01*
X189606428Y-143578571D01*
X189606428Y-143426190D01*
X189568333Y-143350000D01*
X189492142Y-143311904D01*
X189415952Y-143311904D01*
X189339761Y-143692857D01*
X189073095Y-142969047D02*
X189606428Y-142969047D01*
X189454047Y-142969047D02*
X189530238Y-142930952D01*
X189568333Y-142892857D01*
X189606428Y-142816666D01*
X189606428Y-142740476D01*
X189073095Y-142130952D02*
X189492142Y-142130952D01*
X189568333Y-142169047D01*
X189606428Y-142245238D01*
X189606428Y-142397619D01*
X189568333Y-142473809D01*
X189111190Y-142130952D02*
X189073095Y-142207142D01*
X189073095Y-142397619D01*
X189111190Y-142473809D01*
X189187380Y-142511904D01*
X189263571Y-142511904D01*
X189339761Y-142473809D01*
X189377857Y-142397619D01*
X189377857Y-142207142D01*
X189415952Y-142130952D01*
X189149285Y-140683333D02*
X189111190Y-140721428D01*
X189073095Y-140835714D01*
X189073095Y-140911904D01*
X189111190Y-141026190D01*
X189187380Y-141102380D01*
X189263571Y-141140476D01*
X189415952Y-141178571D01*
X189530238Y-141178571D01*
X189682619Y-141140476D01*
X189758809Y-141102380D01*
X189835000Y-141026190D01*
X189873095Y-140911904D01*
X189873095Y-140835714D01*
X189835000Y-140721428D01*
X189796904Y-140683333D01*
X189073095Y-140226190D02*
X189111190Y-140302380D01*
X189149285Y-140340476D01*
X189225476Y-140378571D01*
X189454047Y-140378571D01*
X189530238Y-140340476D01*
X189568333Y-140302380D01*
X189606428Y-140226190D01*
X189606428Y-140111904D01*
X189568333Y-140035714D01*
X189530238Y-139997619D01*
X189454047Y-139959523D01*
X189225476Y-139959523D01*
X189149285Y-139997619D01*
X189111190Y-140035714D01*
X189073095Y-140111904D01*
X189073095Y-140226190D01*
X189606428Y-139616666D02*
X189073095Y-139616666D01*
X189530238Y-139616666D02*
X189568333Y-139578571D01*
X189606428Y-139502380D01*
X189606428Y-139388095D01*
X189568333Y-139311904D01*
X189492142Y-139273809D01*
X189073095Y-139273809D01*
X189606428Y-138969047D02*
X189073095Y-138778571D01*
X189606428Y-138588095D01*
X189111190Y-137978571D02*
X189073095Y-138054761D01*
X189073095Y-138207142D01*
X189111190Y-138283333D01*
X189187380Y-138321428D01*
X189492142Y-138321428D01*
X189568333Y-138283333D01*
X189606428Y-138207142D01*
X189606428Y-138054761D01*
X189568333Y-137978571D01*
X189492142Y-137940476D01*
X189415952Y-137940476D01*
X189339761Y-138321428D01*
X189073095Y-137597619D02*
X189606428Y-137597619D01*
X189454047Y-137597619D02*
X189530238Y-137559523D01*
X189568333Y-137521428D01*
X189606428Y-137445238D01*
X189606428Y-137369047D01*
X189606428Y-137216666D02*
X189606428Y-136911904D01*
X189873095Y-137102380D02*
X189187380Y-137102380D01*
X189111190Y-137064285D01*
X189073095Y-136988095D01*
X189073095Y-136911904D01*
X189111190Y-136340476D02*
X189073095Y-136416666D01*
X189073095Y-136569047D01*
X189111190Y-136645238D01*
X189187380Y-136683333D01*
X189492142Y-136683333D01*
X189568333Y-136645238D01*
X189606428Y-136569047D01*
X189606428Y-136416666D01*
X189568333Y-136340476D01*
X189492142Y-136302380D01*
X189415952Y-136302380D01*
X189339761Y-136683333D01*
X189073095Y-135959523D02*
X189606428Y-135959523D01*
X189454047Y-135959523D02*
X189530238Y-135921428D01*
X189568333Y-135883333D01*
X189606428Y-135807142D01*
X189606428Y-135730952D01*
X188446904Y-148378571D02*
X188485000Y-148340476D01*
X188523095Y-148264285D01*
X188523095Y-148073809D01*
X188485000Y-147997619D01*
X188446904Y-147959523D01*
X188370714Y-147921428D01*
X188294523Y-147921428D01*
X188180238Y-147959523D01*
X187723095Y-148416666D01*
X187723095Y-147921428D01*
X188446904Y-147616666D02*
X188485000Y-147578571D01*
X188523095Y-147502380D01*
X188523095Y-147311904D01*
X188485000Y-147235714D01*
X188446904Y-147197619D01*
X188370714Y-147159523D01*
X188294523Y-147159523D01*
X188180238Y-147197619D01*
X187723095Y-147654761D01*
X187723095Y-147159523D01*
X188523095Y-146664285D02*
X188523095Y-146588095D01*
X188485000Y-146511904D01*
X188446904Y-146473809D01*
X188370714Y-146435714D01*
X188218333Y-146397619D01*
X188027857Y-146397619D01*
X187875476Y-146435714D01*
X187799285Y-146473809D01*
X187761190Y-146511904D01*
X187723095Y-146588095D01*
X187723095Y-146664285D01*
X187761190Y-146740476D01*
X187799285Y-146778571D01*
X187875476Y-146816666D01*
X188027857Y-146854761D01*
X188218333Y-146854761D01*
X188370714Y-146816666D01*
X188446904Y-146778571D01*
X188485000Y-146740476D01*
X188523095Y-146664285D01*
X188446904Y-146092857D02*
X188485000Y-146054761D01*
X188523095Y-145978571D01*
X188523095Y-145788095D01*
X188485000Y-145711904D01*
X188446904Y-145673809D01*
X188370714Y-145635714D01*
X188294523Y-145635714D01*
X188180238Y-145673809D01*
X187723095Y-146130952D01*
X187723095Y-145635714D01*
X188256428Y-144759523D02*
X187723095Y-144569047D01*
X188256428Y-144378571D01*
X188446904Y-144111904D02*
X188485000Y-144073809D01*
X188523095Y-143997619D01*
X188523095Y-143807142D01*
X188485000Y-143730952D01*
X188446904Y-143692857D01*
X188370714Y-143654761D01*
X188294523Y-143654761D01*
X188180238Y-143692857D01*
X187723095Y-144150000D01*
X187723095Y-143654761D01*
X187799285Y-143311904D02*
X187761190Y-143273809D01*
X187723095Y-143311904D01*
X187761190Y-143350000D01*
X187799285Y-143311904D01*
X187723095Y-143311904D01*
X188446904Y-142969047D02*
X188485000Y-142930952D01*
X188523095Y-142854761D01*
X188523095Y-142664285D01*
X188485000Y-142588095D01*
X188446904Y-142550000D01*
X188370714Y-142511904D01*
X188294523Y-142511904D01*
X188180238Y-142550000D01*
X187723095Y-143007142D01*
X187723095Y-142511904D01*
X187799285Y-141102380D02*
X187761190Y-141140476D01*
X187723095Y-141254761D01*
X187723095Y-141330952D01*
X187761190Y-141445238D01*
X187837380Y-141521428D01*
X187913571Y-141559523D01*
X188065952Y-141597619D01*
X188180238Y-141597619D01*
X188332619Y-141559523D01*
X188408809Y-141521428D01*
X188485000Y-141445238D01*
X188523095Y-141330952D01*
X188523095Y-141254761D01*
X188485000Y-141140476D01*
X188446904Y-141102380D01*
X187723095Y-140759523D02*
X188256428Y-140759523D01*
X188104047Y-140759523D02*
X188180238Y-140721428D01*
X188218333Y-140683333D01*
X188256428Y-140607142D01*
X188256428Y-140530952D01*
X187761190Y-139959523D02*
X187723095Y-140035714D01*
X187723095Y-140188095D01*
X187761190Y-140264285D01*
X187837380Y-140302380D01*
X188142142Y-140302380D01*
X188218333Y-140264285D01*
X188256428Y-140188095D01*
X188256428Y-140035714D01*
X188218333Y-139959523D01*
X188142142Y-139921428D01*
X188065952Y-139921428D01*
X187989761Y-140302380D01*
X187761190Y-139616666D02*
X187723095Y-139540476D01*
X187723095Y-139388095D01*
X187761190Y-139311904D01*
X187837380Y-139273809D01*
X187875476Y-139273809D01*
X187951666Y-139311904D01*
X187989761Y-139388095D01*
X187989761Y-139502380D01*
X188027857Y-139578571D01*
X188104047Y-139616666D01*
X188142142Y-139616666D01*
X188218333Y-139578571D01*
X188256428Y-139502380D01*
X188256428Y-139388095D01*
X188218333Y-139311904D01*
X187761190Y-138588095D02*
X187723095Y-138664285D01*
X187723095Y-138816666D01*
X187761190Y-138892857D01*
X187799285Y-138930952D01*
X187875476Y-138969047D01*
X188104047Y-138969047D01*
X188180238Y-138930952D01*
X188218333Y-138892857D01*
X188256428Y-138816666D01*
X188256428Y-138664285D01*
X188218333Y-138588095D01*
X187761190Y-137940476D02*
X187723095Y-138016666D01*
X187723095Y-138169047D01*
X187761190Y-138245238D01*
X187837380Y-138283333D01*
X188142142Y-138283333D01*
X188218333Y-138245238D01*
X188256428Y-138169047D01*
X188256428Y-138016666D01*
X188218333Y-137940476D01*
X188142142Y-137902380D01*
X188065952Y-137902380D01*
X187989761Y-138283333D01*
X188256428Y-137559523D02*
X187723095Y-137559523D01*
X188180238Y-137559523D02*
X188218333Y-137521428D01*
X188256428Y-137445238D01*
X188256428Y-137330952D01*
X188218333Y-137254761D01*
X188142142Y-137216666D01*
X187723095Y-137216666D01*
X188256428Y-136950000D02*
X188256428Y-136645238D01*
X188523095Y-136835714D02*
X187837380Y-136835714D01*
X187761190Y-136797619D01*
X187723095Y-136721428D01*
X187723095Y-136645238D01*
D10*
X177490000Y-142488578D02*
X177490000Y-141971422D01*
X178910000Y-142488578D02*
X178910000Y-141971422D01*
X174950000Y-147080000D02*
X173550000Y-147080000D01*
X173550000Y-144760000D02*
X175450000Y-144760000D01*
X173965221Y-142990000D02*
X174290779Y-142990000D01*
X173965221Y-144010000D02*
X174290779Y-144010000D01*
X177475221Y-144440000D02*
X177800779Y-144440000D01*
X177475221Y-145460000D02*
X177800779Y-145460000D01*
X144700000Y-145980000D02*
G75*
G03X144700000Y-145980000I-100000J0D01*
G01*
X177800779Y-146110000D02*
X177475221Y-146110000D01*
X177800779Y-147130000D02*
X177475221Y-147130000D01*
X167067221Y-150990000D02*
X167392779Y-150990000D01*
X167067221Y-152010000D02*
X167392779Y-152010000D01*
X166335000Y-146785000D02*
X168255000Y-146785000D01*
X168255000Y-146785000D02*
X168255000Y-132775000D01*
X154735000Y-146785000D02*
X154285000Y-146785000D01*
X154285000Y-146785000D02*
X154285000Y-143175000D01*
X166575000Y-130515000D02*
X164265000Y-130515000D01*
X155315000Y-130515000D02*
X157175000Y-130515000D01*
X155315000Y-130515000D02*
X155115000Y-130715000D01*
X154285000Y-141475000D02*
X154285000Y-136775000D01*
X154285000Y-135475000D02*
X154285000Y-133675000D01*
X157385000Y-130865000D02*
X163755000Y-130865000D01*
X157385000Y-130865000D02*
X157385000Y-130715000D01*
X157175000Y-130515000D02*
X157385000Y-130715000D01*
X166575000Y-130515000D02*
X166775000Y-130715000D01*
X166775000Y-130715000D02*
X167035000Y-130715000D01*
X164265000Y-130515000D02*
X163755000Y-130865000D01*
X149784779Y-150630000D02*
X149459221Y-150630000D01*
X149784779Y-149610000D02*
X149459221Y-149610000D01*
X138010000Y-149534779D02*
X138010000Y-149209221D01*
X139030000Y-149534779D02*
X139030000Y-149209221D01*
X151010000Y-146617221D02*
X151010000Y-146942779D01*
X149990000Y-146617221D02*
X149990000Y-146942779D01*
X146510779Y-150670000D02*
X146185221Y-150670000D01*
X146510779Y-149650000D02*
X146185221Y-149650000D01*
X163867221Y-150960000D02*
X164192779Y-150960000D01*
X163867221Y-151980000D02*
X164192779Y-151980000D01*
X139920000Y-148370000D02*
X139920000Y-149830000D01*
X143080000Y-148370000D02*
X143080000Y-150530000D01*
X143080000Y-148370000D02*
X142150000Y-148370000D01*
X139920000Y-148370000D02*
X140850000Y-148370000D01*
X140754779Y-147030000D02*
X140429221Y-147030000D01*
X140754779Y-146010000D02*
X140429221Y-146010000D01*
X160788578Y-151980000D02*
X160271422Y-151980000D01*
X160788578Y-150560000D02*
X160271422Y-150560000D01*
X160892779Y-149880000D02*
X160567221Y-149880000D01*
X160892779Y-148860000D02*
X160567221Y-148860000D01*
X151996181Y-135480763D02*
G75*
G03X138800001Y-135500001I-6596181J-1319237D01*
G01*
X138800001Y-138100001D02*
G75*
G03X151999999Y-138099999I6599999J1300001D01*
G01*
X173969221Y-141100000D02*
X174294779Y-141100000D01*
X173969221Y-142120000D02*
X174294779Y-142120000D01*
D11*
X178597142Y-138534642D02*
X178644761Y-138487023D01*
X178692380Y-138344166D01*
X178692380Y-138248928D01*
X178644761Y-138106071D01*
X178549523Y-138010833D01*
X178454285Y-137963214D01*
X178263809Y-137915595D01*
X178120952Y-137915595D01*
X177930476Y-137963214D01*
X177835238Y-138010833D01*
X177740000Y-138106071D01*
X177692380Y-138248928D01*
X177692380Y-138344166D01*
X177740000Y-138487023D01*
X177787619Y-138534642D01*
X177787619Y-138915595D02*
X177740000Y-138963214D01*
X177692380Y-139058452D01*
X177692380Y-139296547D01*
X177740000Y-139391785D01*
X177787619Y-139439404D01*
X177882857Y-139487023D01*
X177978095Y-139487023D01*
X178120952Y-139439404D01*
X178692380Y-138867976D01*
X178692380Y-139487023D01*
X177692380Y-139820357D02*
X177692380Y-140439404D01*
X178073333Y-140106071D01*
X178073333Y-140248928D01*
X178120952Y-140344166D01*
X178168571Y-140391785D01*
X178263809Y-140439404D01*
X178501904Y-140439404D01*
X178597142Y-140391785D01*
X178644761Y-140344166D01*
X178692380Y-140248928D01*
X178692380Y-139963214D01*
X178644761Y-139867976D01*
X178597142Y-139820357D01*
X175011904Y-147404380D02*
X175011904Y-148213904D01*
X174964285Y-148309142D01*
X174916666Y-148356761D01*
X174821428Y-148404380D01*
X174630952Y-148404380D01*
X174535714Y-148356761D01*
X174488095Y-148309142D01*
X174440476Y-148213904D01*
X174440476Y-147404380D01*
X173440476Y-148404380D02*
X174011904Y-148404380D01*
X173726190Y-148404380D02*
X173726190Y-147404380D01*
X173821428Y-147547238D01*
X173916666Y-147642476D01*
X174011904Y-147690095D01*
X171972857Y-143972380D02*
X172306190Y-143496190D01*
X172544285Y-143972380D02*
X172544285Y-142972380D01*
X172163333Y-142972380D01*
X172068095Y-143020000D01*
X172020476Y-143067619D01*
X171972857Y-143162857D01*
X171972857Y-143305714D01*
X172020476Y-143400952D01*
X172068095Y-143448571D01*
X172163333Y-143496190D01*
X172544285Y-143496190D01*
X171639523Y-142972380D02*
X170972857Y-143972380D01*
X170972857Y-142972380D02*
X171639523Y-143972380D01*
X170068095Y-143972380D02*
X170639523Y-143972380D01*
X170353809Y-143972380D02*
X170353809Y-142972380D01*
X170449047Y-143115238D01*
X170544285Y-143210476D01*
X170639523Y-143258095D01*
X176528571Y-142126666D02*
X176528571Y-141793333D01*
X177052380Y-141793333D02*
X176052380Y-141793333D01*
X176052380Y-142269523D01*
X176528571Y-142983809D02*
X176576190Y-143126666D01*
X176623809Y-143174285D01*
X176719047Y-143221904D01*
X176861904Y-143221904D01*
X176957142Y-143174285D01*
X177004761Y-143126666D01*
X177052380Y-143031428D01*
X177052380Y-142650476D01*
X176052380Y-142650476D01*
X176052380Y-142983809D01*
X176100000Y-143079047D01*
X176147619Y-143126666D01*
X176242857Y-143174285D01*
X176338095Y-143174285D01*
X176433333Y-143126666D01*
X176480952Y-143079047D01*
X176528571Y-142983809D01*
X176528571Y-142650476D01*
X177052380Y-144174285D02*
X177052380Y-143602857D01*
X177052380Y-143888571D02*
X176052380Y-143888571D01*
X176195238Y-143793333D01*
X176290476Y-143698095D01*
X176338095Y-143602857D01*
X147381904Y-143982380D02*
X147381904Y-144791904D01*
X147334285Y-144887142D01*
X147286666Y-144934761D01*
X147191428Y-144982380D01*
X147000952Y-144982380D01*
X146905714Y-144934761D01*
X146858095Y-144887142D01*
X146810476Y-144791904D01*
X146810476Y-143982380D01*
X145905714Y-144315714D02*
X145905714Y-144982380D01*
X146143809Y-143934761D02*
X146381904Y-144649047D01*
X145762857Y-144649047D01*
X178170857Y-148654380D02*
X178504190Y-148178190D01*
X178742285Y-148654380D02*
X178742285Y-147654380D01*
X178361333Y-147654380D01*
X178266095Y-147702000D01*
X178218476Y-147749619D01*
X178170857Y-147844857D01*
X178170857Y-147987714D01*
X178218476Y-148082952D01*
X178266095Y-148130571D01*
X178361333Y-148178190D01*
X178742285Y-148178190D01*
X177218476Y-148654380D02*
X177789904Y-148654380D01*
X177504190Y-148654380D02*
X177504190Y-147654380D01*
X177599428Y-147797238D01*
X177694666Y-147892476D01*
X177789904Y-147940095D01*
X176885142Y-147654380D02*
X176266095Y-147654380D01*
X176599428Y-148035333D01*
X176456571Y-148035333D01*
X176361333Y-148082952D01*
X176313714Y-148130571D01*
X176266095Y-148225809D01*
X176266095Y-148463904D01*
X176313714Y-148559142D01*
X176361333Y-148606761D01*
X176456571Y-148654380D01*
X176742285Y-148654380D01*
X176837523Y-148606761D01*
X176885142Y-148559142D01*
X167872857Y-153287142D02*
X167920476Y-153334761D01*
X168063333Y-153382380D01*
X168158571Y-153382380D01*
X168301428Y-153334761D01*
X168396666Y-153239523D01*
X168444285Y-153144285D01*
X168491904Y-152953809D01*
X168491904Y-152810952D01*
X168444285Y-152620476D01*
X168396666Y-152525238D01*
X168301428Y-152430000D01*
X168158571Y-152382380D01*
X168063333Y-152382380D01*
X167920476Y-152430000D01*
X167872857Y-152477619D01*
X167491904Y-152477619D02*
X167444285Y-152430000D01*
X167349047Y-152382380D01*
X167110952Y-152382380D01*
X167015714Y-152430000D01*
X166968095Y-152477619D01*
X166920476Y-152572857D01*
X166920476Y-152668095D01*
X166968095Y-152810952D01*
X167539523Y-153382380D01*
X166920476Y-153382380D01*
X165968095Y-153382380D02*
X166539523Y-153382380D01*
X166253809Y-153382380D02*
X166253809Y-152382380D01*
X166349047Y-152525238D01*
X166444285Y-152620476D01*
X166539523Y-152668095D01*
X167493333Y-147152380D02*
X167493333Y-147866666D01*
X167540952Y-148009523D01*
X167636190Y-148104761D01*
X167779047Y-148152380D01*
X167874285Y-148152380D01*
X167064761Y-147247619D02*
X167017142Y-147200000D01*
X166921904Y-147152380D01*
X166683809Y-147152380D01*
X166588571Y-147200000D01*
X166540952Y-147247619D01*
X166493333Y-147342857D01*
X166493333Y-147438095D01*
X166540952Y-147580952D01*
X167112380Y-148152380D01*
X166493333Y-148152380D01*
X149676166Y-152072380D02*
X150009500Y-151596190D01*
X150247595Y-152072380D02*
X150247595Y-151072380D01*
X149866642Y-151072380D01*
X149771404Y-151120000D01*
X149723785Y-151167619D01*
X149676166Y-151262857D01*
X149676166Y-151405714D01*
X149723785Y-151500952D01*
X149771404Y-151548571D01*
X149866642Y-151596190D01*
X150247595Y-151596190D01*
X148819023Y-151072380D02*
X149009500Y-151072380D01*
X149104738Y-151120000D01*
X149152357Y-151167619D01*
X149247595Y-151310476D01*
X149295214Y-151500952D01*
X149295214Y-151881904D01*
X149247595Y-151977142D01*
X149199976Y-152024761D01*
X149104738Y-152072380D01*
X148914261Y-152072380D01*
X148819023Y-152024761D01*
X148771404Y-151977142D01*
X148723785Y-151881904D01*
X148723785Y-151643809D01*
X148771404Y-151548571D01*
X148819023Y-151500952D01*
X148914261Y-151453333D01*
X149104738Y-151453333D01*
X149199976Y-151500952D01*
X149247595Y-151548571D01*
X149295214Y-151643809D01*
X138686666Y-152011880D02*
X139020000Y-151535690D01*
X139258095Y-152011880D02*
X139258095Y-151011880D01*
X138877142Y-151011880D01*
X138781904Y-151059500D01*
X138734285Y-151107119D01*
X138686666Y-151202357D01*
X138686666Y-151345214D01*
X138734285Y-151440452D01*
X138781904Y-151488071D01*
X138877142Y-151535690D01*
X139258095Y-151535690D01*
X137781904Y-151011880D02*
X138258095Y-151011880D01*
X138305714Y-151488071D01*
X138258095Y-151440452D01*
X138162857Y-151392833D01*
X137924761Y-151392833D01*
X137829523Y-151440452D01*
X137781904Y-151488071D01*
X137734285Y-151583309D01*
X137734285Y-151821404D01*
X137781904Y-151916642D01*
X137829523Y-151964261D01*
X137924761Y-152011880D01*
X138162857Y-152011880D01*
X138258095Y-151964261D01*
X138305714Y-151916642D01*
X150922380Y-144153333D02*
X150446190Y-143820000D01*
X150922380Y-143581904D02*
X149922380Y-143581904D01*
X149922380Y-143962857D01*
X149970000Y-144058095D01*
X150017619Y-144105714D01*
X150112857Y-144153333D01*
X150255714Y-144153333D01*
X150350952Y-144105714D01*
X150398571Y-144058095D01*
X150446190Y-143962857D01*
X150446190Y-143581904D01*
X150255714Y-145010476D02*
X150922380Y-145010476D01*
X149874761Y-144772380D02*
X150589047Y-144534285D01*
X150589047Y-145153333D01*
X146467166Y-151882380D02*
X146800500Y-151406190D01*
X147038595Y-151882380D02*
X147038595Y-150882380D01*
X146657642Y-150882380D01*
X146562404Y-150930000D01*
X146514785Y-150977619D01*
X146467166Y-151072857D01*
X146467166Y-151215714D01*
X146514785Y-151310952D01*
X146562404Y-151358571D01*
X146657642Y-151406190D01*
X147038595Y-151406190D01*
X146086214Y-150977619D02*
X146038595Y-150930000D01*
X145943357Y-150882380D01*
X145705261Y-150882380D01*
X145610023Y-150930000D01*
X145562404Y-150977619D01*
X145514785Y-151072857D01*
X145514785Y-151168095D01*
X145562404Y-151310952D01*
X146133833Y-151882380D01*
X145514785Y-151882380D01*
X164903333Y-152938571D02*
X165236666Y-152938571D01*
X165236666Y-153462380D02*
X165236666Y-152462380D01*
X164760476Y-152462380D01*
X164046190Y-152938571D02*
X163903333Y-152986190D01*
X163855714Y-153033809D01*
X163808095Y-153129047D01*
X163808095Y-153271904D01*
X163855714Y-153367142D01*
X163903333Y-153414761D01*
X163998571Y-153462380D01*
X164379523Y-153462380D01*
X164379523Y-152462380D01*
X164046190Y-152462380D01*
X163950952Y-152510000D01*
X163903333Y-152557619D01*
X163855714Y-152652857D01*
X163855714Y-152748095D01*
X163903333Y-152843333D01*
X163950952Y-152890952D01*
X164046190Y-152938571D01*
X164379523Y-152938571D01*
X163474761Y-152462380D02*
X162855714Y-152462380D01*
X163189047Y-152843333D01*
X163046190Y-152843333D01*
X162950952Y-152890952D01*
X162903333Y-152938571D01*
X162855714Y-153033809D01*
X162855714Y-153271904D01*
X162903333Y-153367142D01*
X162950952Y-153414761D01*
X163046190Y-153462380D01*
X163331904Y-153462380D01*
X163427142Y-153414761D01*
X163474761Y-153367142D01*
X142238095Y-151882380D02*
X142238095Y-150882380D01*
X142000000Y-150882380D01*
X141857142Y-150930000D01*
X141761904Y-151025238D01*
X141714285Y-151120476D01*
X141666666Y-151310952D01*
X141666666Y-151453809D01*
X141714285Y-151644285D01*
X141761904Y-151739523D01*
X141857142Y-151834761D01*
X142000000Y-151882380D01*
X142238095Y-151882380D01*
X140761904Y-150882380D02*
X141238095Y-150882380D01*
X141285714Y-151358571D01*
X141238095Y-151310952D01*
X141142857Y-151263333D01*
X140904761Y-151263333D01*
X140809523Y-151310952D01*
X140761904Y-151358571D01*
X140714285Y-151453809D01*
X140714285Y-151691904D01*
X140761904Y-151787142D01*
X140809523Y-151834761D01*
X140904761Y-151882380D01*
X141142857Y-151882380D01*
X141238095Y-151834761D01*
X141285714Y-151787142D01*
X141362857Y-145637142D02*
X141410476Y-145684761D01*
X141553333Y-145732380D01*
X141648571Y-145732380D01*
X141791428Y-145684761D01*
X141886666Y-145589523D01*
X141934285Y-145494285D01*
X141981904Y-145303809D01*
X141981904Y-145160952D01*
X141934285Y-144970476D01*
X141886666Y-144875238D01*
X141791428Y-144780000D01*
X141648571Y-144732380D01*
X141553333Y-144732380D01*
X141410476Y-144780000D01*
X141362857Y-144827619D01*
X140410476Y-145732380D02*
X140981904Y-145732380D01*
X140696190Y-145732380D02*
X140696190Y-144732380D01*
X140791428Y-144875238D01*
X140886666Y-144970476D01*
X140981904Y-145018095D01*
X139934285Y-145732380D02*
X139743809Y-145732380D01*
X139648571Y-145684761D01*
X139600952Y-145637142D01*
X139505714Y-145494285D01*
X139458095Y-145303809D01*
X139458095Y-144922857D01*
X139505714Y-144827619D01*
X139553333Y-144780000D01*
X139648571Y-144732380D01*
X139839047Y-144732380D01*
X139934285Y-144780000D01*
X139981904Y-144827619D01*
X140029523Y-144922857D01*
X140029523Y-145160952D01*
X139981904Y-145256190D01*
X139934285Y-145303809D01*
X139839047Y-145351428D01*
X139648571Y-145351428D01*
X139553333Y-145303809D01*
X139505714Y-145256190D01*
X139458095Y-145160952D01*
X161192857Y-153227142D02*
X161240476Y-153274761D01*
X161383333Y-153322380D01*
X161478571Y-153322380D01*
X161621428Y-153274761D01*
X161716666Y-153179523D01*
X161764285Y-153084285D01*
X161811904Y-152893809D01*
X161811904Y-152750952D01*
X161764285Y-152560476D01*
X161716666Y-152465238D01*
X161621428Y-152370000D01*
X161478571Y-152322380D01*
X161383333Y-152322380D01*
X161240476Y-152370000D01*
X161192857Y-152417619D01*
X160240476Y-153322380D02*
X160811904Y-153322380D01*
X160526190Y-153322380D02*
X160526190Y-152322380D01*
X160621428Y-152465238D01*
X160716666Y-152560476D01*
X160811904Y-152608095D01*
X159669047Y-152750952D02*
X159764285Y-152703333D01*
X159811904Y-152655714D01*
X159859523Y-152560476D01*
X159859523Y-152512857D01*
X159811904Y-152417619D01*
X159764285Y-152370000D01*
X159669047Y-152322380D01*
X159478571Y-152322380D01*
X159383333Y-152370000D01*
X159335714Y-152417619D01*
X159288095Y-152512857D01*
X159288095Y-152560476D01*
X159335714Y-152655714D01*
X159383333Y-152703333D01*
X159478571Y-152750952D01*
X159669047Y-152750952D01*
X159764285Y-152798571D01*
X159811904Y-152846190D01*
X159859523Y-152941428D01*
X159859523Y-153131904D01*
X159811904Y-153227142D01*
X159764285Y-153274761D01*
X159669047Y-153322380D01*
X159478571Y-153322380D01*
X159383333Y-153274761D01*
X159335714Y-153227142D01*
X159288095Y-153131904D01*
X159288095Y-152941428D01*
X159335714Y-152846190D01*
X159383333Y-152798571D01*
X159478571Y-152750952D01*
X158472857Y-149727142D02*
X158520476Y-149774761D01*
X158663333Y-149822380D01*
X158758571Y-149822380D01*
X158901428Y-149774761D01*
X158996666Y-149679523D01*
X159044285Y-149584285D01*
X159091904Y-149393809D01*
X159091904Y-149250952D01*
X159044285Y-149060476D01*
X158996666Y-148965238D01*
X158901428Y-148870000D01*
X158758571Y-148822380D01*
X158663333Y-148822380D01*
X158520476Y-148870000D01*
X158472857Y-148917619D01*
X157520476Y-149822380D02*
X158091904Y-149822380D01*
X157806190Y-149822380D02*
X157806190Y-148822380D01*
X157901428Y-148965238D01*
X157996666Y-149060476D01*
X158091904Y-149108095D01*
X157139523Y-148917619D02*
X157091904Y-148870000D01*
X156996666Y-148822380D01*
X156758571Y-148822380D01*
X156663333Y-148870000D01*
X156615714Y-148917619D01*
X156568095Y-149012857D01*
X156568095Y-149108095D01*
X156615714Y-149250952D01*
X157187142Y-149822380D01*
X156568095Y-149822380D01*
X141565714Y-143358571D02*
X141422857Y-143406190D01*
X141375238Y-143453809D01*
X141327619Y-143549047D01*
X141327619Y-143691904D01*
X141375238Y-143787142D01*
X141422857Y-143834761D01*
X141518095Y-143882380D01*
X141899047Y-143882380D01*
X141899047Y-142882380D01*
X141565714Y-142882380D01*
X141470476Y-142930000D01*
X141422857Y-142977619D01*
X141375238Y-143072857D01*
X141375238Y-143168095D01*
X141422857Y-143263333D01*
X141470476Y-143310952D01*
X141565714Y-143358571D01*
X141899047Y-143358571D01*
X141041904Y-142882380D02*
X140470476Y-142882380D01*
X140756190Y-143882380D02*
X140756190Y-142882380D01*
X139613333Y-143882380D02*
X140184761Y-143882380D01*
X139899047Y-143882380D02*
X139899047Y-142882380D01*
X139994285Y-143025238D01*
X140089523Y-143120476D01*
X140184761Y-143168095D01*
X174749357Y-140697142D02*
X174796976Y-140744761D01*
X174939833Y-140792380D01*
X175035071Y-140792380D01*
X175177928Y-140744761D01*
X175273166Y-140649523D01*
X175320785Y-140554285D01*
X175368404Y-140363809D01*
X175368404Y-140220952D01*
X175320785Y-140030476D01*
X175273166Y-139935238D01*
X175177928Y-139840000D01*
X175035071Y-139792380D01*
X174939833Y-139792380D01*
X174796976Y-139840000D01*
X174749357Y-139887619D01*
X173796976Y-140792380D02*
X174368404Y-140792380D01*
X174082690Y-140792380D02*
X174082690Y-139792380D01*
X174177928Y-139935238D01*
X174273166Y-140030476D01*
X174368404Y-140078095D01*
X172939833Y-140125714D02*
X172939833Y-140792380D01*
X173177928Y-139744761D02*
X173416023Y-140459047D01*
X172796976Y-140459047D01*
%LPC*%
D12*
G36*
X178708141Y-140755297D02*
G01*
X178734278Y-140759174D01*
X178759909Y-140765594D01*
X178784788Y-140774495D01*
X178808674Y-140785793D01*
X178831337Y-140799377D01*
X178852560Y-140815117D01*
X178872139Y-140832861D01*
X178889883Y-140852440D01*
X178905623Y-140873663D01*
X178919207Y-140896326D01*
X178930505Y-140920212D01*
X178939406Y-140945091D01*
X178945826Y-140970722D01*
X178949703Y-140996859D01*
X178951000Y-141023250D01*
X178951000Y-141561750D01*
X178949703Y-141588141D01*
X178945826Y-141614278D01*
X178939406Y-141639909D01*
X178930505Y-141664788D01*
X178919207Y-141688674D01*
X178905623Y-141711337D01*
X178889883Y-141732560D01*
X178872139Y-141752139D01*
X178852560Y-141769883D01*
X178831337Y-141785623D01*
X178808674Y-141799207D01*
X178784788Y-141810505D01*
X178759909Y-141819406D01*
X178734278Y-141825826D01*
X178708141Y-141829703D01*
X178681750Y-141831000D01*
X177718250Y-141831000D01*
X177691859Y-141829703D01*
X177665722Y-141825826D01*
X177640091Y-141819406D01*
X177615212Y-141810505D01*
X177591326Y-141799207D01*
X177568663Y-141785623D01*
X177547440Y-141769883D01*
X177527861Y-141752139D01*
X177510117Y-141732560D01*
X177494377Y-141711337D01*
X177480793Y-141688674D01*
X177469495Y-141664788D01*
X177460594Y-141639909D01*
X177454174Y-141614278D01*
X177450297Y-141588141D01*
X177449000Y-141561750D01*
X177449000Y-141023250D01*
X177450297Y-140996859D01*
X177454174Y-140970722D01*
X177460594Y-140945091D01*
X177469495Y-140920212D01*
X177480793Y-140896326D01*
X177494377Y-140873663D01*
X177510117Y-140852440D01*
X177527861Y-140832861D01*
X177547440Y-140815117D01*
X177568663Y-140799377D01*
X177591326Y-140785793D01*
X177615212Y-140774495D01*
X177640091Y-140765594D01*
X177665722Y-140759174D01*
X177691859Y-140755297D01*
X177718250Y-140754000D01*
X178681750Y-140754000D01*
X178708141Y-140755297D01*
X178708141Y-140755297D01*
G37*
D13*
X178200000Y-141292500D03*
D12*
G36*
X178708141Y-142630297D02*
G01*
X178734278Y-142634174D01*
X178759909Y-142640594D01*
X178784788Y-142649495D01*
X178808674Y-142660793D01*
X178831337Y-142674377D01*
X178852560Y-142690117D01*
X178872139Y-142707861D01*
X178889883Y-142727440D01*
X178905623Y-142748663D01*
X178919207Y-142771326D01*
X178930505Y-142795212D01*
X178939406Y-142820091D01*
X178945826Y-142845722D01*
X178949703Y-142871859D01*
X178951000Y-142898250D01*
X178951000Y-143436750D01*
X178949703Y-143463141D01*
X178945826Y-143489278D01*
X178939406Y-143514909D01*
X178930505Y-143539788D01*
X178919207Y-143563674D01*
X178905623Y-143586337D01*
X178889883Y-143607560D01*
X178872139Y-143627139D01*
X178852560Y-143644883D01*
X178831337Y-143660623D01*
X178808674Y-143674207D01*
X178784788Y-143685505D01*
X178759909Y-143694406D01*
X178734278Y-143700826D01*
X178708141Y-143704703D01*
X178681750Y-143706000D01*
X177718250Y-143706000D01*
X177691859Y-143704703D01*
X177665722Y-143700826D01*
X177640091Y-143694406D01*
X177615212Y-143685505D01*
X177591326Y-143674207D01*
X177568663Y-143660623D01*
X177547440Y-143644883D01*
X177527861Y-143627139D01*
X177510117Y-143607560D01*
X177494377Y-143586337D01*
X177480793Y-143563674D01*
X177469495Y-143539788D01*
X177460594Y-143514909D01*
X177454174Y-143489278D01*
X177450297Y-143463141D01*
X177449000Y-143436750D01*
X177449000Y-142898250D01*
X177450297Y-142871859D01*
X177454174Y-142845722D01*
X177460594Y-142820091D01*
X177469495Y-142795212D01*
X177480793Y-142771326D01*
X177494377Y-142748663D01*
X177510117Y-142727440D01*
X177527861Y-142707861D01*
X177547440Y-142690117D01*
X177568663Y-142674377D01*
X177591326Y-142660793D01*
X177615212Y-142649495D01*
X177640091Y-142640594D01*
X177665722Y-142634174D01*
X177691859Y-142630297D01*
X177718250Y-142629000D01*
X178681750Y-142629000D01*
X178708141Y-142630297D01*
X178708141Y-142630297D01*
G37*
D13*
X178200000Y-143167500D03*
D14*
X173300000Y-145270000D03*
X173300000Y-146570000D03*
X175200000Y-145920000D03*
X173300000Y-145920000D03*
X175200000Y-146570000D03*
X175200000Y-145270000D03*
D12*
G36*
X175183691Y-142975176D02*
G01*
X175207401Y-142978693D01*
X175230652Y-142984517D01*
X175253220Y-142992592D01*
X175274889Y-143002841D01*
X175295448Y-143015164D01*
X175314701Y-143029442D01*
X175332461Y-143045539D01*
X175348558Y-143063299D01*
X175362836Y-143082552D01*
X175375159Y-143103111D01*
X175385408Y-143124780D01*
X175393483Y-143147348D01*
X175399307Y-143170599D01*
X175402824Y-143194309D01*
X175404000Y-143218250D01*
X175404000Y-143781750D01*
X175402824Y-143805691D01*
X175399307Y-143829401D01*
X175393483Y-143852652D01*
X175385408Y-143875220D01*
X175375159Y-143896889D01*
X175362836Y-143917448D01*
X175348558Y-143936701D01*
X175332461Y-143954461D01*
X175314701Y-143970558D01*
X175295448Y-143984836D01*
X175274889Y-143997159D01*
X175253220Y-144007408D01*
X175230652Y-144015483D01*
X175207401Y-144021307D01*
X175183691Y-144024824D01*
X175159750Y-144026000D01*
X174671250Y-144026000D01*
X174647309Y-144024824D01*
X174623599Y-144021307D01*
X174600348Y-144015483D01*
X174577780Y-144007408D01*
X174556111Y-143997159D01*
X174535552Y-143984836D01*
X174516299Y-143970558D01*
X174498539Y-143954461D01*
X174482442Y-143936701D01*
X174468164Y-143917448D01*
X174455841Y-143896889D01*
X174445592Y-143875220D01*
X174437517Y-143852652D01*
X174431693Y-143829401D01*
X174428176Y-143805691D01*
X174427000Y-143781750D01*
X174427000Y-143218250D01*
X174428176Y-143194309D01*
X174431693Y-143170599D01*
X174437517Y-143147348D01*
X174445592Y-143124780D01*
X174455841Y-143103111D01*
X174468164Y-143082552D01*
X174482442Y-143063299D01*
X174498539Y-143045539D01*
X174516299Y-143029442D01*
X174535552Y-143015164D01*
X174556111Y-143002841D01*
X174577780Y-142992592D01*
X174600348Y-142984517D01*
X174623599Y-142978693D01*
X174647309Y-142975176D01*
X174671250Y-142974000D01*
X175159750Y-142974000D01*
X175183691Y-142975176D01*
X175183691Y-142975176D01*
G37*
D15*
X174915500Y-143500000D03*
D12*
G36*
X173608691Y-142975176D02*
G01*
X173632401Y-142978693D01*
X173655652Y-142984517D01*
X173678220Y-142992592D01*
X173699889Y-143002841D01*
X173720448Y-143015164D01*
X173739701Y-143029442D01*
X173757461Y-143045539D01*
X173773558Y-143063299D01*
X173787836Y-143082552D01*
X173800159Y-143103111D01*
X173810408Y-143124780D01*
X173818483Y-143147348D01*
X173824307Y-143170599D01*
X173827824Y-143194309D01*
X173829000Y-143218250D01*
X173829000Y-143781750D01*
X173827824Y-143805691D01*
X173824307Y-143829401D01*
X173818483Y-143852652D01*
X173810408Y-143875220D01*
X173800159Y-143896889D01*
X173787836Y-143917448D01*
X173773558Y-143936701D01*
X173757461Y-143954461D01*
X173739701Y-143970558D01*
X173720448Y-143984836D01*
X173699889Y-143997159D01*
X173678220Y-144007408D01*
X173655652Y-144015483D01*
X173632401Y-144021307D01*
X173608691Y-144024824D01*
X173584750Y-144026000D01*
X173096250Y-144026000D01*
X173072309Y-144024824D01*
X173048599Y-144021307D01*
X173025348Y-144015483D01*
X173002780Y-144007408D01*
X172981111Y-143997159D01*
X172960552Y-143984836D01*
X172941299Y-143970558D01*
X172923539Y-143954461D01*
X172907442Y-143936701D01*
X172893164Y-143917448D01*
X172880841Y-143896889D01*
X172870592Y-143875220D01*
X172862517Y-143852652D01*
X172856693Y-143829401D01*
X172853176Y-143805691D01*
X172852000Y-143781750D01*
X172852000Y-143218250D01*
X172853176Y-143194309D01*
X172856693Y-143170599D01*
X172862517Y-143147348D01*
X172870592Y-143124780D01*
X172880841Y-143103111D01*
X172893164Y-143082552D01*
X172907442Y-143063299D01*
X172923539Y-143045539D01*
X172941299Y-143029442D01*
X172960552Y-143015164D01*
X172981111Y-143002841D01*
X173002780Y-142992592D01*
X173025348Y-142984517D01*
X173048599Y-142978693D01*
X173072309Y-142975176D01*
X173096250Y-142974000D01*
X173584750Y-142974000D01*
X173608691Y-142975176D01*
X173608691Y-142975176D01*
G37*
D15*
X173340500Y-143500000D03*
D12*
G36*
X178693691Y-144425176D02*
G01*
X178717401Y-144428693D01*
X178740652Y-144434517D01*
X178763220Y-144442592D01*
X178784889Y-144452841D01*
X178805448Y-144465164D01*
X178824701Y-144479442D01*
X178842461Y-144495539D01*
X178858558Y-144513299D01*
X178872836Y-144532552D01*
X178885159Y-144553111D01*
X178895408Y-144574780D01*
X178903483Y-144597348D01*
X178909307Y-144620599D01*
X178912824Y-144644309D01*
X178914000Y-144668250D01*
X178914000Y-145231750D01*
X178912824Y-145255691D01*
X178909307Y-145279401D01*
X178903483Y-145302652D01*
X178895408Y-145325220D01*
X178885159Y-145346889D01*
X178872836Y-145367448D01*
X178858558Y-145386701D01*
X178842461Y-145404461D01*
X178824701Y-145420558D01*
X178805448Y-145434836D01*
X178784889Y-145447159D01*
X178763220Y-145457408D01*
X178740652Y-145465483D01*
X178717401Y-145471307D01*
X178693691Y-145474824D01*
X178669750Y-145476000D01*
X178181250Y-145476000D01*
X178157309Y-145474824D01*
X178133599Y-145471307D01*
X178110348Y-145465483D01*
X178087780Y-145457408D01*
X178066111Y-145447159D01*
X178045552Y-145434836D01*
X178026299Y-145420558D01*
X178008539Y-145404461D01*
X177992442Y-145386701D01*
X177978164Y-145367448D01*
X177965841Y-145346889D01*
X177955592Y-145325220D01*
X177947517Y-145302652D01*
X177941693Y-145279401D01*
X177938176Y-145255691D01*
X177937000Y-145231750D01*
X177937000Y-144668250D01*
X177938176Y-144644309D01*
X177941693Y-144620599D01*
X177947517Y-144597348D01*
X177955592Y-144574780D01*
X177965841Y-144553111D01*
X177978164Y-144532552D01*
X177992442Y-144513299D01*
X178008539Y-144495539D01*
X178026299Y-144479442D01*
X178045552Y-144465164D01*
X178066111Y-144452841D01*
X178087780Y-144442592D01*
X178110348Y-144434517D01*
X178133599Y-144428693D01*
X178157309Y-144425176D01*
X178181250Y-144424000D01*
X178669750Y-144424000D01*
X178693691Y-144425176D01*
X178693691Y-144425176D01*
G37*
D15*
X178425500Y-144950000D03*
D12*
G36*
X177118691Y-144425176D02*
G01*
X177142401Y-144428693D01*
X177165652Y-144434517D01*
X177188220Y-144442592D01*
X177209889Y-144452841D01*
X177230448Y-144465164D01*
X177249701Y-144479442D01*
X177267461Y-144495539D01*
X177283558Y-144513299D01*
X177297836Y-144532552D01*
X177310159Y-144553111D01*
X177320408Y-144574780D01*
X177328483Y-144597348D01*
X177334307Y-144620599D01*
X177337824Y-144644309D01*
X177339000Y-144668250D01*
X177339000Y-145231750D01*
X177337824Y-145255691D01*
X177334307Y-145279401D01*
X177328483Y-145302652D01*
X177320408Y-145325220D01*
X177310159Y-145346889D01*
X177297836Y-145367448D01*
X177283558Y-145386701D01*
X177267461Y-145404461D01*
X177249701Y-145420558D01*
X177230448Y-145434836D01*
X177209889Y-145447159D01*
X177188220Y-145457408D01*
X177165652Y-145465483D01*
X177142401Y-145471307D01*
X177118691Y-145474824D01*
X177094750Y-145476000D01*
X176606250Y-145476000D01*
X176582309Y-145474824D01*
X176558599Y-145471307D01*
X176535348Y-145465483D01*
X176512780Y-145457408D01*
X176491111Y-145447159D01*
X176470552Y-145434836D01*
X176451299Y-145420558D01*
X176433539Y-145404461D01*
X176417442Y-145386701D01*
X176403164Y-145367448D01*
X176390841Y-145346889D01*
X176380592Y-145325220D01*
X176372517Y-145302652D01*
X176366693Y-145279401D01*
X176363176Y-145255691D01*
X176362000Y-145231750D01*
X176362000Y-144668250D01*
X176363176Y-144644309D01*
X176366693Y-144620599D01*
X176372517Y-144597348D01*
X176380592Y-144574780D01*
X176390841Y-144553111D01*
X176403164Y-144532552D01*
X176417442Y-144513299D01*
X176433539Y-144495539D01*
X176451299Y-144479442D01*
X176470552Y-144465164D01*
X176491111Y-144452841D01*
X176512780Y-144442592D01*
X176535348Y-144434517D01*
X176558599Y-144428693D01*
X176582309Y-144425176D01*
X176606250Y-144424000D01*
X177094750Y-144424000D01*
X177118691Y-144425176D01*
X177118691Y-144425176D01*
G37*
D15*
X176850500Y-144950000D03*
D16*
X145460000Y-147590000D03*
X146360000Y-147590000D03*
X147260000Y-147590000D03*
X148160000Y-147590000D03*
X148160000Y-145990000D03*
X147260000Y-145990000D03*
X146360000Y-145990000D03*
X145460000Y-145990000D03*
D12*
G36*
X178693691Y-146095176D02*
G01*
X178717401Y-146098693D01*
X178740652Y-146104517D01*
X178763220Y-146112592D01*
X178784889Y-146122841D01*
X178805448Y-146135164D01*
X178824701Y-146149442D01*
X178842461Y-146165539D01*
X178858558Y-146183299D01*
X178872836Y-146202552D01*
X178885159Y-146223111D01*
X178895408Y-146244780D01*
X178903483Y-146267348D01*
X178909307Y-146290599D01*
X178912824Y-146314309D01*
X178914000Y-146338250D01*
X178914000Y-146901750D01*
X178912824Y-146925691D01*
X178909307Y-146949401D01*
X178903483Y-146972652D01*
X178895408Y-146995220D01*
X178885159Y-147016889D01*
X178872836Y-147037448D01*
X178858558Y-147056701D01*
X178842461Y-147074461D01*
X178824701Y-147090558D01*
X178805448Y-147104836D01*
X178784889Y-147117159D01*
X178763220Y-147127408D01*
X178740652Y-147135483D01*
X178717401Y-147141307D01*
X178693691Y-147144824D01*
X178669750Y-147146000D01*
X178181250Y-147146000D01*
X178157309Y-147144824D01*
X178133599Y-147141307D01*
X178110348Y-147135483D01*
X178087780Y-147127408D01*
X178066111Y-147117159D01*
X178045552Y-147104836D01*
X178026299Y-147090558D01*
X178008539Y-147074461D01*
X177992442Y-147056701D01*
X177978164Y-147037448D01*
X177965841Y-147016889D01*
X177955592Y-146995220D01*
X177947517Y-146972652D01*
X177941693Y-146949401D01*
X177938176Y-146925691D01*
X177937000Y-146901750D01*
X177937000Y-146338250D01*
X177938176Y-146314309D01*
X177941693Y-146290599D01*
X177947517Y-146267348D01*
X177955592Y-146244780D01*
X177965841Y-146223111D01*
X177978164Y-146202552D01*
X177992442Y-146183299D01*
X178008539Y-146165539D01*
X178026299Y-146149442D01*
X178045552Y-146135164D01*
X178066111Y-146122841D01*
X178087780Y-146112592D01*
X178110348Y-146104517D01*
X178133599Y-146098693D01*
X178157309Y-146095176D01*
X178181250Y-146094000D01*
X178669750Y-146094000D01*
X178693691Y-146095176D01*
X178693691Y-146095176D01*
G37*
D15*
X178425500Y-146620000D03*
D12*
G36*
X177118691Y-146095176D02*
G01*
X177142401Y-146098693D01*
X177165652Y-146104517D01*
X177188220Y-146112592D01*
X177209889Y-146122841D01*
X177230448Y-146135164D01*
X177249701Y-146149442D01*
X177267461Y-146165539D01*
X177283558Y-146183299D01*
X177297836Y-146202552D01*
X177310159Y-146223111D01*
X177320408Y-146244780D01*
X177328483Y-146267348D01*
X177334307Y-146290599D01*
X177337824Y-146314309D01*
X177339000Y-146338250D01*
X177339000Y-146901750D01*
X177337824Y-146925691D01*
X177334307Y-146949401D01*
X177328483Y-146972652D01*
X177320408Y-146995220D01*
X177310159Y-147016889D01*
X177297836Y-147037448D01*
X177283558Y-147056701D01*
X177267461Y-147074461D01*
X177249701Y-147090558D01*
X177230448Y-147104836D01*
X177209889Y-147117159D01*
X177188220Y-147127408D01*
X177165652Y-147135483D01*
X177142401Y-147141307D01*
X177118691Y-147144824D01*
X177094750Y-147146000D01*
X176606250Y-147146000D01*
X176582309Y-147144824D01*
X176558599Y-147141307D01*
X176535348Y-147135483D01*
X176512780Y-147127408D01*
X176491111Y-147117159D01*
X176470552Y-147104836D01*
X176451299Y-147090558D01*
X176433539Y-147074461D01*
X176417442Y-147056701D01*
X176403164Y-147037448D01*
X176390841Y-147016889D01*
X176380592Y-146995220D01*
X176372517Y-146972652D01*
X176366693Y-146949401D01*
X176363176Y-146925691D01*
X176362000Y-146901750D01*
X176362000Y-146338250D01*
X176363176Y-146314309D01*
X176366693Y-146290599D01*
X176372517Y-146267348D01*
X176380592Y-146244780D01*
X176390841Y-146223111D01*
X176403164Y-146202552D01*
X176417442Y-146183299D01*
X176433539Y-146165539D01*
X176451299Y-146149442D01*
X176470552Y-146135164D01*
X176491111Y-146122841D01*
X176512780Y-146112592D01*
X176535348Y-146104517D01*
X176558599Y-146098693D01*
X176582309Y-146095176D01*
X176606250Y-146094000D01*
X177094750Y-146094000D01*
X177118691Y-146095176D01*
X177118691Y-146095176D01*
G37*
D15*
X176850500Y-146620000D03*
D17*
X180300000Y-153000000D03*
X182840000Y-153000000D03*
X185380000Y-153000000D03*
X187920000Y-153000000D03*
X190460000Y-153000000D03*
D18*
X193000000Y-153000000D03*
D19*
X131550000Y-138980000D03*
X131550000Y-145980000D03*
D20*
X134250000Y-139980000D03*
X134250000Y-144980000D03*
D12*
G36*
X168285691Y-150975176D02*
G01*
X168309401Y-150978693D01*
X168332652Y-150984517D01*
X168355220Y-150992592D01*
X168376889Y-151002841D01*
X168397448Y-151015164D01*
X168416701Y-151029442D01*
X168434461Y-151045539D01*
X168450558Y-151063299D01*
X168464836Y-151082552D01*
X168477159Y-151103111D01*
X168487408Y-151124780D01*
X168495483Y-151147348D01*
X168501307Y-151170599D01*
X168504824Y-151194309D01*
X168506000Y-151218250D01*
X168506000Y-151781750D01*
X168504824Y-151805691D01*
X168501307Y-151829401D01*
X168495483Y-151852652D01*
X168487408Y-151875220D01*
X168477159Y-151896889D01*
X168464836Y-151917448D01*
X168450558Y-151936701D01*
X168434461Y-151954461D01*
X168416701Y-151970558D01*
X168397448Y-151984836D01*
X168376889Y-151997159D01*
X168355220Y-152007408D01*
X168332652Y-152015483D01*
X168309401Y-152021307D01*
X168285691Y-152024824D01*
X168261750Y-152026000D01*
X167773250Y-152026000D01*
X167749309Y-152024824D01*
X167725599Y-152021307D01*
X167702348Y-152015483D01*
X167679780Y-152007408D01*
X167658111Y-151997159D01*
X167637552Y-151984836D01*
X167618299Y-151970558D01*
X167600539Y-151954461D01*
X167584442Y-151936701D01*
X167570164Y-151917448D01*
X167557841Y-151896889D01*
X167547592Y-151875220D01*
X167539517Y-151852652D01*
X167533693Y-151829401D01*
X167530176Y-151805691D01*
X167529000Y-151781750D01*
X167529000Y-151218250D01*
X167530176Y-151194309D01*
X167533693Y-151170599D01*
X167539517Y-151147348D01*
X167547592Y-151124780D01*
X167557841Y-151103111D01*
X167570164Y-151082552D01*
X167584442Y-151063299D01*
X167600539Y-151045539D01*
X167618299Y-151029442D01*
X167637552Y-151015164D01*
X167658111Y-151002841D01*
X167679780Y-150992592D01*
X167702348Y-150984517D01*
X167725599Y-150978693D01*
X167749309Y-150975176D01*
X167773250Y-150974000D01*
X168261750Y-150974000D01*
X168285691Y-150975176D01*
X168285691Y-150975176D01*
G37*
D15*
X168017500Y-151500000D03*
D12*
G36*
X166710691Y-150975176D02*
G01*
X166734401Y-150978693D01*
X166757652Y-150984517D01*
X166780220Y-150992592D01*
X166801889Y-151002841D01*
X166822448Y-151015164D01*
X166841701Y-151029442D01*
X166859461Y-151045539D01*
X166875558Y-151063299D01*
X166889836Y-151082552D01*
X166902159Y-151103111D01*
X166912408Y-151124780D01*
X166920483Y-151147348D01*
X166926307Y-151170599D01*
X166929824Y-151194309D01*
X166931000Y-151218250D01*
X166931000Y-151781750D01*
X166929824Y-151805691D01*
X166926307Y-151829401D01*
X166920483Y-151852652D01*
X166912408Y-151875220D01*
X166902159Y-151896889D01*
X166889836Y-151917448D01*
X166875558Y-151936701D01*
X166859461Y-151954461D01*
X166841701Y-151970558D01*
X166822448Y-151984836D01*
X166801889Y-151997159D01*
X166780220Y-152007408D01*
X166757652Y-152015483D01*
X166734401Y-152021307D01*
X166710691Y-152024824D01*
X166686750Y-152026000D01*
X166198250Y-152026000D01*
X166174309Y-152024824D01*
X166150599Y-152021307D01*
X166127348Y-152015483D01*
X166104780Y-152007408D01*
X166083111Y-151997159D01*
X166062552Y-151984836D01*
X166043299Y-151970558D01*
X166025539Y-151954461D01*
X166009442Y-151936701D01*
X165995164Y-151917448D01*
X165982841Y-151896889D01*
X165972592Y-151875220D01*
X165964517Y-151852652D01*
X165958693Y-151829401D01*
X165955176Y-151805691D01*
X165954000Y-151781750D01*
X165954000Y-151218250D01*
X165955176Y-151194309D01*
X165958693Y-151170599D01*
X165964517Y-151147348D01*
X165972592Y-151124780D01*
X165982841Y-151103111D01*
X165995164Y-151082552D01*
X166009442Y-151063299D01*
X166025539Y-151045539D01*
X166043299Y-151029442D01*
X166062552Y-151015164D01*
X166083111Y-151002841D01*
X166104780Y-150992592D01*
X166127348Y-150984517D01*
X166150599Y-150978693D01*
X166174309Y-150975176D01*
X166198250Y-150974000D01*
X166686750Y-150974000D01*
X166710691Y-150975176D01*
X166710691Y-150975176D01*
G37*
D15*
X166442500Y-151500000D03*
D17*
X153340000Y-153450000D03*
D18*
X150800000Y-153450000D03*
D17*
X147180000Y-153450000D03*
X144640000Y-153450000D03*
X142100000Y-153450000D03*
D18*
X139560000Y-153450000D03*
D21*
X176000000Y-152000000D03*
X176000000Y-133000000D03*
D22*
X167935000Y-131525000D03*
D23*
X154435000Y-131975000D03*
D24*
X154435000Y-136125000D03*
D25*
X154435000Y-142325000D03*
X165585000Y-146625000D03*
D26*
X157435000Y-146625000D03*
X158535000Y-146625000D03*
X159635000Y-146625000D03*
X160735000Y-146625000D03*
X161835000Y-146625000D03*
X162935000Y-146625000D03*
X164035000Y-146625000D03*
X156335000Y-146625000D03*
X155385000Y-146625000D03*
D12*
G36*
X149102691Y-149595176D02*
G01*
X149126401Y-149598693D01*
X149149652Y-149604517D01*
X149172220Y-149612592D01*
X149193889Y-149622841D01*
X149214448Y-149635164D01*
X149233701Y-149649442D01*
X149251461Y-149665539D01*
X149267558Y-149683299D01*
X149281836Y-149702552D01*
X149294159Y-149723111D01*
X149304408Y-149744780D01*
X149312483Y-149767348D01*
X149318307Y-149790599D01*
X149321824Y-149814309D01*
X149323000Y-149838250D01*
X149323000Y-150401750D01*
X149321824Y-150425691D01*
X149318307Y-150449401D01*
X149312483Y-150472652D01*
X149304408Y-150495220D01*
X149294159Y-150516889D01*
X149281836Y-150537448D01*
X149267558Y-150556701D01*
X149251461Y-150574461D01*
X149233701Y-150590558D01*
X149214448Y-150604836D01*
X149193889Y-150617159D01*
X149172220Y-150627408D01*
X149149652Y-150635483D01*
X149126401Y-150641307D01*
X149102691Y-150644824D01*
X149078750Y-150646000D01*
X148590250Y-150646000D01*
X148566309Y-150644824D01*
X148542599Y-150641307D01*
X148519348Y-150635483D01*
X148496780Y-150627408D01*
X148475111Y-150617159D01*
X148454552Y-150604836D01*
X148435299Y-150590558D01*
X148417539Y-150574461D01*
X148401442Y-150556701D01*
X148387164Y-150537448D01*
X148374841Y-150516889D01*
X148364592Y-150495220D01*
X148356517Y-150472652D01*
X148350693Y-150449401D01*
X148347176Y-150425691D01*
X148346000Y-150401750D01*
X148346000Y-149838250D01*
X148347176Y-149814309D01*
X148350693Y-149790599D01*
X148356517Y-149767348D01*
X148364592Y-149744780D01*
X148374841Y-149723111D01*
X148387164Y-149702552D01*
X148401442Y-149683299D01*
X148417539Y-149665539D01*
X148435299Y-149649442D01*
X148454552Y-149635164D01*
X148475111Y-149622841D01*
X148496780Y-149612592D01*
X148519348Y-149604517D01*
X148542599Y-149598693D01*
X148566309Y-149595176D01*
X148590250Y-149594000D01*
X149078750Y-149594000D01*
X149102691Y-149595176D01*
X149102691Y-149595176D01*
G37*
D15*
X148834500Y-150120000D03*
D12*
G36*
X150677691Y-149595176D02*
G01*
X150701401Y-149598693D01*
X150724652Y-149604517D01*
X150747220Y-149612592D01*
X150768889Y-149622841D01*
X150789448Y-149635164D01*
X150808701Y-149649442D01*
X150826461Y-149665539D01*
X150842558Y-149683299D01*
X150856836Y-149702552D01*
X150869159Y-149723111D01*
X150879408Y-149744780D01*
X150887483Y-149767348D01*
X150893307Y-149790599D01*
X150896824Y-149814309D01*
X150898000Y-149838250D01*
X150898000Y-150401750D01*
X150896824Y-150425691D01*
X150893307Y-150449401D01*
X150887483Y-150472652D01*
X150879408Y-150495220D01*
X150869159Y-150516889D01*
X150856836Y-150537448D01*
X150842558Y-150556701D01*
X150826461Y-150574461D01*
X150808701Y-150590558D01*
X150789448Y-150604836D01*
X150768889Y-150617159D01*
X150747220Y-150627408D01*
X150724652Y-150635483D01*
X150701401Y-150641307D01*
X150677691Y-150644824D01*
X150653750Y-150646000D01*
X150165250Y-150646000D01*
X150141309Y-150644824D01*
X150117599Y-150641307D01*
X150094348Y-150635483D01*
X150071780Y-150627408D01*
X150050111Y-150617159D01*
X150029552Y-150604836D01*
X150010299Y-150590558D01*
X149992539Y-150574461D01*
X149976442Y-150556701D01*
X149962164Y-150537448D01*
X149949841Y-150516889D01*
X149939592Y-150495220D01*
X149931517Y-150472652D01*
X149925693Y-150449401D01*
X149922176Y-150425691D01*
X149921000Y-150401750D01*
X149921000Y-149838250D01*
X149922176Y-149814309D01*
X149925693Y-149790599D01*
X149931517Y-149767348D01*
X149939592Y-149744780D01*
X149949841Y-149723111D01*
X149962164Y-149702552D01*
X149976442Y-149683299D01*
X149992539Y-149665539D01*
X150010299Y-149649442D01*
X150029552Y-149635164D01*
X150050111Y-149622841D01*
X150071780Y-149612592D01*
X150094348Y-149604517D01*
X150117599Y-149598693D01*
X150141309Y-149595176D01*
X150165250Y-149594000D01*
X150653750Y-149594000D01*
X150677691Y-149595176D01*
X150677691Y-149595176D01*
G37*
D15*
X150409500Y-150120000D03*
D12*
G36*
X138825691Y-148097176D02*
G01*
X138849401Y-148100693D01*
X138872652Y-148106517D01*
X138895220Y-148114592D01*
X138916889Y-148124841D01*
X138937448Y-148137164D01*
X138956701Y-148151442D01*
X138974461Y-148167539D01*
X138990558Y-148185299D01*
X139004836Y-148204552D01*
X139017159Y-148225111D01*
X139027408Y-148246780D01*
X139035483Y-148269348D01*
X139041307Y-148292599D01*
X139044824Y-148316309D01*
X139046000Y-148340250D01*
X139046000Y-148828750D01*
X139044824Y-148852691D01*
X139041307Y-148876401D01*
X139035483Y-148899652D01*
X139027408Y-148922220D01*
X139017159Y-148943889D01*
X139004836Y-148964448D01*
X138990558Y-148983701D01*
X138974461Y-149001461D01*
X138956701Y-149017558D01*
X138937448Y-149031836D01*
X138916889Y-149044159D01*
X138895220Y-149054408D01*
X138872652Y-149062483D01*
X138849401Y-149068307D01*
X138825691Y-149071824D01*
X138801750Y-149073000D01*
X138238250Y-149073000D01*
X138214309Y-149071824D01*
X138190599Y-149068307D01*
X138167348Y-149062483D01*
X138144780Y-149054408D01*
X138123111Y-149044159D01*
X138102552Y-149031836D01*
X138083299Y-149017558D01*
X138065539Y-149001461D01*
X138049442Y-148983701D01*
X138035164Y-148964448D01*
X138022841Y-148943889D01*
X138012592Y-148922220D01*
X138004517Y-148899652D01*
X137998693Y-148876401D01*
X137995176Y-148852691D01*
X137994000Y-148828750D01*
X137994000Y-148340250D01*
X137995176Y-148316309D01*
X137998693Y-148292599D01*
X138004517Y-148269348D01*
X138012592Y-148246780D01*
X138022841Y-148225111D01*
X138035164Y-148204552D01*
X138049442Y-148185299D01*
X138065539Y-148167539D01*
X138083299Y-148151442D01*
X138102552Y-148137164D01*
X138123111Y-148124841D01*
X138144780Y-148114592D01*
X138167348Y-148106517D01*
X138190599Y-148100693D01*
X138214309Y-148097176D01*
X138238250Y-148096000D01*
X138801750Y-148096000D01*
X138825691Y-148097176D01*
X138825691Y-148097176D01*
G37*
D15*
X138520000Y-148584500D03*
D12*
G36*
X138825691Y-149672176D02*
G01*
X138849401Y-149675693D01*
X138872652Y-149681517D01*
X138895220Y-149689592D01*
X138916889Y-149699841D01*
X138937448Y-149712164D01*
X138956701Y-149726442D01*
X138974461Y-149742539D01*
X138990558Y-149760299D01*
X139004836Y-149779552D01*
X139017159Y-149800111D01*
X139027408Y-149821780D01*
X139035483Y-149844348D01*
X139041307Y-149867599D01*
X139044824Y-149891309D01*
X139046000Y-149915250D01*
X139046000Y-150403750D01*
X139044824Y-150427691D01*
X139041307Y-150451401D01*
X139035483Y-150474652D01*
X139027408Y-150497220D01*
X139017159Y-150518889D01*
X139004836Y-150539448D01*
X138990558Y-150558701D01*
X138974461Y-150576461D01*
X138956701Y-150592558D01*
X138937448Y-150606836D01*
X138916889Y-150619159D01*
X138895220Y-150629408D01*
X138872652Y-150637483D01*
X138849401Y-150643307D01*
X138825691Y-150646824D01*
X138801750Y-150648000D01*
X138238250Y-150648000D01*
X138214309Y-150646824D01*
X138190599Y-150643307D01*
X138167348Y-150637483D01*
X138144780Y-150629408D01*
X138123111Y-150619159D01*
X138102552Y-150606836D01*
X138083299Y-150592558D01*
X138065539Y-150576461D01*
X138049442Y-150558701D01*
X138035164Y-150539448D01*
X138022841Y-150518889D01*
X138012592Y-150497220D01*
X138004517Y-150474652D01*
X137998693Y-150451401D01*
X137995176Y-150427691D01*
X137994000Y-150403750D01*
X137994000Y-149915250D01*
X137995176Y-149891309D01*
X137998693Y-149867599D01*
X138004517Y-149844348D01*
X138012592Y-149821780D01*
X138022841Y-149800111D01*
X138035164Y-149779552D01*
X138049442Y-149760299D01*
X138065539Y-149742539D01*
X138083299Y-149726442D01*
X138102552Y-149712164D01*
X138123111Y-149699841D01*
X138144780Y-149689592D01*
X138167348Y-149681517D01*
X138190599Y-149675693D01*
X138214309Y-149672176D01*
X138238250Y-149671000D01*
X138801750Y-149671000D01*
X138825691Y-149672176D01*
X138825691Y-149672176D01*
G37*
D15*
X138520000Y-150159500D03*
D12*
G36*
X150805691Y-147080176D02*
G01*
X150829401Y-147083693D01*
X150852652Y-147089517D01*
X150875220Y-147097592D01*
X150896889Y-147107841D01*
X150917448Y-147120164D01*
X150936701Y-147134442D01*
X150954461Y-147150539D01*
X150970558Y-147168299D01*
X150984836Y-147187552D01*
X150997159Y-147208111D01*
X151007408Y-147229780D01*
X151015483Y-147252348D01*
X151021307Y-147275599D01*
X151024824Y-147299309D01*
X151026000Y-147323250D01*
X151026000Y-147811750D01*
X151024824Y-147835691D01*
X151021307Y-147859401D01*
X151015483Y-147882652D01*
X151007408Y-147905220D01*
X150997159Y-147926889D01*
X150984836Y-147947448D01*
X150970558Y-147966701D01*
X150954461Y-147984461D01*
X150936701Y-148000558D01*
X150917448Y-148014836D01*
X150896889Y-148027159D01*
X150875220Y-148037408D01*
X150852652Y-148045483D01*
X150829401Y-148051307D01*
X150805691Y-148054824D01*
X150781750Y-148056000D01*
X150218250Y-148056000D01*
X150194309Y-148054824D01*
X150170599Y-148051307D01*
X150147348Y-148045483D01*
X150124780Y-148037408D01*
X150103111Y-148027159D01*
X150082552Y-148014836D01*
X150063299Y-148000558D01*
X150045539Y-147984461D01*
X150029442Y-147966701D01*
X150015164Y-147947448D01*
X150002841Y-147926889D01*
X149992592Y-147905220D01*
X149984517Y-147882652D01*
X149978693Y-147859401D01*
X149975176Y-147835691D01*
X149974000Y-147811750D01*
X149974000Y-147323250D01*
X149975176Y-147299309D01*
X149978693Y-147275599D01*
X149984517Y-147252348D01*
X149992592Y-147229780D01*
X150002841Y-147208111D01*
X150015164Y-147187552D01*
X150029442Y-147168299D01*
X150045539Y-147150539D01*
X150063299Y-147134442D01*
X150082552Y-147120164D01*
X150103111Y-147107841D01*
X150124780Y-147097592D01*
X150147348Y-147089517D01*
X150170599Y-147083693D01*
X150194309Y-147080176D01*
X150218250Y-147079000D01*
X150781750Y-147079000D01*
X150805691Y-147080176D01*
X150805691Y-147080176D01*
G37*
D15*
X150500000Y-147567500D03*
D12*
G36*
X150805691Y-145505176D02*
G01*
X150829401Y-145508693D01*
X150852652Y-145514517D01*
X150875220Y-145522592D01*
X150896889Y-145532841D01*
X150917448Y-145545164D01*
X150936701Y-145559442D01*
X150954461Y-145575539D01*
X150970558Y-145593299D01*
X150984836Y-145612552D01*
X150997159Y-145633111D01*
X151007408Y-145654780D01*
X151015483Y-145677348D01*
X151021307Y-145700599D01*
X151024824Y-145724309D01*
X151026000Y-145748250D01*
X151026000Y-146236750D01*
X151024824Y-146260691D01*
X151021307Y-146284401D01*
X151015483Y-146307652D01*
X151007408Y-146330220D01*
X150997159Y-146351889D01*
X150984836Y-146372448D01*
X150970558Y-146391701D01*
X150954461Y-146409461D01*
X150936701Y-146425558D01*
X150917448Y-146439836D01*
X150896889Y-146452159D01*
X150875220Y-146462408D01*
X150852652Y-146470483D01*
X150829401Y-146476307D01*
X150805691Y-146479824D01*
X150781750Y-146481000D01*
X150218250Y-146481000D01*
X150194309Y-146479824D01*
X150170599Y-146476307D01*
X150147348Y-146470483D01*
X150124780Y-146462408D01*
X150103111Y-146452159D01*
X150082552Y-146439836D01*
X150063299Y-146425558D01*
X150045539Y-146409461D01*
X150029442Y-146391701D01*
X150015164Y-146372448D01*
X150002841Y-146351889D01*
X149992592Y-146330220D01*
X149984517Y-146307652D01*
X149978693Y-146284401D01*
X149975176Y-146260691D01*
X149974000Y-146236750D01*
X149974000Y-145748250D01*
X149975176Y-145724309D01*
X149978693Y-145700599D01*
X149984517Y-145677348D01*
X149992592Y-145654780D01*
X150002841Y-145633111D01*
X150015164Y-145612552D01*
X150029442Y-145593299D01*
X150045539Y-145575539D01*
X150063299Y-145559442D01*
X150082552Y-145545164D01*
X150103111Y-145532841D01*
X150124780Y-145522592D01*
X150147348Y-145514517D01*
X150170599Y-145508693D01*
X150194309Y-145505176D01*
X150218250Y-145504000D01*
X150781750Y-145504000D01*
X150805691Y-145505176D01*
X150805691Y-145505176D01*
G37*
D15*
X150500000Y-145992500D03*
D12*
G36*
X145828691Y-149635176D02*
G01*
X145852401Y-149638693D01*
X145875652Y-149644517D01*
X145898220Y-149652592D01*
X145919889Y-149662841D01*
X145940448Y-149675164D01*
X145959701Y-149689442D01*
X145977461Y-149705539D01*
X145993558Y-149723299D01*
X146007836Y-149742552D01*
X146020159Y-149763111D01*
X146030408Y-149784780D01*
X146038483Y-149807348D01*
X146044307Y-149830599D01*
X146047824Y-149854309D01*
X146049000Y-149878250D01*
X146049000Y-150441750D01*
X146047824Y-150465691D01*
X146044307Y-150489401D01*
X146038483Y-150512652D01*
X146030408Y-150535220D01*
X146020159Y-150556889D01*
X146007836Y-150577448D01*
X145993558Y-150596701D01*
X145977461Y-150614461D01*
X145959701Y-150630558D01*
X145940448Y-150644836D01*
X145919889Y-150657159D01*
X145898220Y-150667408D01*
X145875652Y-150675483D01*
X145852401Y-150681307D01*
X145828691Y-150684824D01*
X145804750Y-150686000D01*
X145316250Y-150686000D01*
X145292309Y-150684824D01*
X145268599Y-150681307D01*
X145245348Y-150675483D01*
X145222780Y-150667408D01*
X145201111Y-150657159D01*
X145180552Y-150644836D01*
X145161299Y-150630558D01*
X145143539Y-150614461D01*
X145127442Y-150596701D01*
X145113164Y-150577448D01*
X145100841Y-150556889D01*
X145090592Y-150535220D01*
X145082517Y-150512652D01*
X145076693Y-150489401D01*
X145073176Y-150465691D01*
X145072000Y-150441750D01*
X145072000Y-149878250D01*
X145073176Y-149854309D01*
X145076693Y-149830599D01*
X145082517Y-149807348D01*
X145090592Y-149784780D01*
X145100841Y-149763111D01*
X145113164Y-149742552D01*
X145127442Y-149723299D01*
X145143539Y-149705539D01*
X145161299Y-149689442D01*
X145180552Y-149675164D01*
X145201111Y-149662841D01*
X145222780Y-149652592D01*
X145245348Y-149644517D01*
X145268599Y-149638693D01*
X145292309Y-149635176D01*
X145316250Y-149634000D01*
X145804750Y-149634000D01*
X145828691Y-149635176D01*
X145828691Y-149635176D01*
G37*
D15*
X145560500Y-150160000D03*
D12*
G36*
X147403691Y-149635176D02*
G01*
X147427401Y-149638693D01*
X147450652Y-149644517D01*
X147473220Y-149652592D01*
X147494889Y-149662841D01*
X147515448Y-149675164D01*
X147534701Y-149689442D01*
X147552461Y-149705539D01*
X147568558Y-149723299D01*
X147582836Y-149742552D01*
X147595159Y-149763111D01*
X147605408Y-149784780D01*
X147613483Y-149807348D01*
X147619307Y-149830599D01*
X147622824Y-149854309D01*
X147624000Y-149878250D01*
X147624000Y-150441750D01*
X147622824Y-150465691D01*
X147619307Y-150489401D01*
X147613483Y-150512652D01*
X147605408Y-150535220D01*
X147595159Y-150556889D01*
X147582836Y-150577448D01*
X147568558Y-150596701D01*
X147552461Y-150614461D01*
X147534701Y-150630558D01*
X147515448Y-150644836D01*
X147494889Y-150657159D01*
X147473220Y-150667408D01*
X147450652Y-150675483D01*
X147427401Y-150681307D01*
X147403691Y-150684824D01*
X147379750Y-150686000D01*
X146891250Y-150686000D01*
X146867309Y-150684824D01*
X146843599Y-150681307D01*
X146820348Y-150675483D01*
X146797780Y-150667408D01*
X146776111Y-150657159D01*
X146755552Y-150644836D01*
X146736299Y-150630558D01*
X146718539Y-150614461D01*
X146702442Y-150596701D01*
X146688164Y-150577448D01*
X146675841Y-150556889D01*
X146665592Y-150535220D01*
X146657517Y-150512652D01*
X146651693Y-150489401D01*
X146648176Y-150465691D01*
X146647000Y-150441750D01*
X146647000Y-149878250D01*
X146648176Y-149854309D01*
X146651693Y-149830599D01*
X146657517Y-149807348D01*
X146665592Y-149784780D01*
X146675841Y-149763111D01*
X146688164Y-149742552D01*
X146702442Y-149723299D01*
X146718539Y-149705539D01*
X146736299Y-149689442D01*
X146755552Y-149675164D01*
X146776111Y-149662841D01*
X146797780Y-149652592D01*
X146820348Y-149644517D01*
X146843599Y-149638693D01*
X146867309Y-149635176D01*
X146891250Y-149634000D01*
X147379750Y-149634000D01*
X147403691Y-149635176D01*
X147403691Y-149635176D01*
G37*
D15*
X147135500Y-150160000D03*
D12*
G36*
X165085691Y-150945176D02*
G01*
X165109401Y-150948693D01*
X165132652Y-150954517D01*
X165155220Y-150962592D01*
X165176889Y-150972841D01*
X165197448Y-150985164D01*
X165216701Y-150999442D01*
X165234461Y-151015539D01*
X165250558Y-151033299D01*
X165264836Y-151052552D01*
X165277159Y-151073111D01*
X165287408Y-151094780D01*
X165295483Y-151117348D01*
X165301307Y-151140599D01*
X165304824Y-151164309D01*
X165306000Y-151188250D01*
X165306000Y-151751750D01*
X165304824Y-151775691D01*
X165301307Y-151799401D01*
X165295483Y-151822652D01*
X165287408Y-151845220D01*
X165277159Y-151866889D01*
X165264836Y-151887448D01*
X165250558Y-151906701D01*
X165234461Y-151924461D01*
X165216701Y-151940558D01*
X165197448Y-151954836D01*
X165176889Y-151967159D01*
X165155220Y-151977408D01*
X165132652Y-151985483D01*
X165109401Y-151991307D01*
X165085691Y-151994824D01*
X165061750Y-151996000D01*
X164573250Y-151996000D01*
X164549309Y-151994824D01*
X164525599Y-151991307D01*
X164502348Y-151985483D01*
X164479780Y-151977408D01*
X164458111Y-151967159D01*
X164437552Y-151954836D01*
X164418299Y-151940558D01*
X164400539Y-151924461D01*
X164384442Y-151906701D01*
X164370164Y-151887448D01*
X164357841Y-151866889D01*
X164347592Y-151845220D01*
X164339517Y-151822652D01*
X164333693Y-151799401D01*
X164330176Y-151775691D01*
X164329000Y-151751750D01*
X164329000Y-151188250D01*
X164330176Y-151164309D01*
X164333693Y-151140599D01*
X164339517Y-151117348D01*
X164347592Y-151094780D01*
X164357841Y-151073111D01*
X164370164Y-151052552D01*
X164384442Y-151033299D01*
X164400539Y-151015539D01*
X164418299Y-150999442D01*
X164437552Y-150985164D01*
X164458111Y-150972841D01*
X164479780Y-150962592D01*
X164502348Y-150954517D01*
X164525599Y-150948693D01*
X164549309Y-150945176D01*
X164573250Y-150944000D01*
X165061750Y-150944000D01*
X165085691Y-150945176D01*
X165085691Y-150945176D01*
G37*
D15*
X164817500Y-151470000D03*
D12*
G36*
X163510691Y-150945176D02*
G01*
X163534401Y-150948693D01*
X163557652Y-150954517D01*
X163580220Y-150962592D01*
X163601889Y-150972841D01*
X163622448Y-150985164D01*
X163641701Y-150999442D01*
X163659461Y-151015539D01*
X163675558Y-151033299D01*
X163689836Y-151052552D01*
X163702159Y-151073111D01*
X163712408Y-151094780D01*
X163720483Y-151117348D01*
X163726307Y-151140599D01*
X163729824Y-151164309D01*
X163731000Y-151188250D01*
X163731000Y-151751750D01*
X163729824Y-151775691D01*
X163726307Y-151799401D01*
X163720483Y-151822652D01*
X163712408Y-151845220D01*
X163702159Y-151866889D01*
X163689836Y-151887448D01*
X163675558Y-151906701D01*
X163659461Y-151924461D01*
X163641701Y-151940558D01*
X163622448Y-151954836D01*
X163601889Y-151967159D01*
X163580220Y-151977408D01*
X163557652Y-151985483D01*
X163534401Y-151991307D01*
X163510691Y-151994824D01*
X163486750Y-151996000D01*
X162998250Y-151996000D01*
X162974309Y-151994824D01*
X162950599Y-151991307D01*
X162927348Y-151985483D01*
X162904780Y-151977408D01*
X162883111Y-151967159D01*
X162862552Y-151954836D01*
X162843299Y-151940558D01*
X162825539Y-151924461D01*
X162809442Y-151906701D01*
X162795164Y-151887448D01*
X162782841Y-151866889D01*
X162772592Y-151845220D01*
X162764517Y-151822652D01*
X162758693Y-151799401D01*
X162755176Y-151775691D01*
X162754000Y-151751750D01*
X162754000Y-151188250D01*
X162755176Y-151164309D01*
X162758693Y-151140599D01*
X162764517Y-151117348D01*
X162772592Y-151094780D01*
X162782841Y-151073111D01*
X162795164Y-151052552D01*
X162809442Y-151033299D01*
X162825539Y-151015539D01*
X162843299Y-150999442D01*
X162862552Y-150985164D01*
X162883111Y-150972841D01*
X162904780Y-150962592D01*
X162927348Y-150954517D01*
X162950599Y-150948693D01*
X162974309Y-150945176D01*
X162998250Y-150944000D01*
X163486750Y-150944000D01*
X163510691Y-150945176D01*
X163510691Y-150945176D01*
G37*
D15*
X163242500Y-151470000D03*
D27*
X141500000Y-148130000D03*
X140550000Y-150130000D03*
X142450000Y-150130000D03*
D12*
G36*
X140072691Y-145995176D02*
G01*
X140096401Y-145998693D01*
X140119652Y-146004517D01*
X140142220Y-146012592D01*
X140163889Y-146022841D01*
X140184448Y-146035164D01*
X140203701Y-146049442D01*
X140221461Y-146065539D01*
X140237558Y-146083299D01*
X140251836Y-146102552D01*
X140264159Y-146123111D01*
X140274408Y-146144780D01*
X140282483Y-146167348D01*
X140288307Y-146190599D01*
X140291824Y-146214309D01*
X140293000Y-146238250D01*
X140293000Y-146801750D01*
X140291824Y-146825691D01*
X140288307Y-146849401D01*
X140282483Y-146872652D01*
X140274408Y-146895220D01*
X140264159Y-146916889D01*
X140251836Y-146937448D01*
X140237558Y-146956701D01*
X140221461Y-146974461D01*
X140203701Y-146990558D01*
X140184448Y-147004836D01*
X140163889Y-147017159D01*
X140142220Y-147027408D01*
X140119652Y-147035483D01*
X140096401Y-147041307D01*
X140072691Y-147044824D01*
X140048750Y-147046000D01*
X139560250Y-147046000D01*
X139536309Y-147044824D01*
X139512599Y-147041307D01*
X139489348Y-147035483D01*
X139466780Y-147027408D01*
X139445111Y-147017159D01*
X139424552Y-147004836D01*
X139405299Y-146990558D01*
X139387539Y-146974461D01*
X139371442Y-146956701D01*
X139357164Y-146937448D01*
X139344841Y-146916889D01*
X139334592Y-146895220D01*
X139326517Y-146872652D01*
X139320693Y-146849401D01*
X139317176Y-146825691D01*
X139316000Y-146801750D01*
X139316000Y-146238250D01*
X139317176Y-146214309D01*
X139320693Y-146190599D01*
X139326517Y-146167348D01*
X139334592Y-146144780D01*
X139344841Y-146123111D01*
X139357164Y-146102552D01*
X139371442Y-146083299D01*
X139387539Y-146065539D01*
X139405299Y-146049442D01*
X139424552Y-146035164D01*
X139445111Y-146022841D01*
X139466780Y-146012592D01*
X139489348Y-146004517D01*
X139512599Y-145998693D01*
X139536309Y-145995176D01*
X139560250Y-145994000D01*
X140048750Y-145994000D01*
X140072691Y-145995176D01*
X140072691Y-145995176D01*
G37*
D15*
X139804500Y-146520000D03*
D12*
G36*
X141647691Y-145995176D02*
G01*
X141671401Y-145998693D01*
X141694652Y-146004517D01*
X141717220Y-146012592D01*
X141738889Y-146022841D01*
X141759448Y-146035164D01*
X141778701Y-146049442D01*
X141796461Y-146065539D01*
X141812558Y-146083299D01*
X141826836Y-146102552D01*
X141839159Y-146123111D01*
X141849408Y-146144780D01*
X141857483Y-146167348D01*
X141863307Y-146190599D01*
X141866824Y-146214309D01*
X141868000Y-146238250D01*
X141868000Y-146801750D01*
X141866824Y-146825691D01*
X141863307Y-146849401D01*
X141857483Y-146872652D01*
X141849408Y-146895220D01*
X141839159Y-146916889D01*
X141826836Y-146937448D01*
X141812558Y-146956701D01*
X141796461Y-146974461D01*
X141778701Y-146990558D01*
X141759448Y-147004836D01*
X141738889Y-147017159D01*
X141717220Y-147027408D01*
X141694652Y-147035483D01*
X141671401Y-147041307D01*
X141647691Y-147044824D01*
X141623750Y-147046000D01*
X141135250Y-147046000D01*
X141111309Y-147044824D01*
X141087599Y-147041307D01*
X141064348Y-147035483D01*
X141041780Y-147027408D01*
X141020111Y-147017159D01*
X140999552Y-147004836D01*
X140980299Y-146990558D01*
X140962539Y-146974461D01*
X140946442Y-146956701D01*
X140932164Y-146937448D01*
X140919841Y-146916889D01*
X140909592Y-146895220D01*
X140901517Y-146872652D01*
X140895693Y-146849401D01*
X140892176Y-146825691D01*
X140891000Y-146801750D01*
X140891000Y-146238250D01*
X140892176Y-146214309D01*
X140895693Y-146190599D01*
X140901517Y-146167348D01*
X140909592Y-146144780D01*
X140919841Y-146123111D01*
X140932164Y-146102552D01*
X140946442Y-146083299D01*
X140962539Y-146065539D01*
X140980299Y-146049442D01*
X140999552Y-146035164D01*
X141020111Y-146022841D01*
X141041780Y-146012592D01*
X141064348Y-146004517D01*
X141087599Y-145998693D01*
X141111309Y-145995176D01*
X141135250Y-145994000D01*
X141623750Y-145994000D01*
X141647691Y-145995176D01*
X141647691Y-145995176D01*
G37*
D15*
X141379500Y-146520000D03*
D12*
G36*
X159888141Y-150520297D02*
G01*
X159914278Y-150524174D01*
X159939909Y-150530594D01*
X159964788Y-150539495D01*
X159988674Y-150550793D01*
X160011337Y-150564377D01*
X160032560Y-150580117D01*
X160052139Y-150597861D01*
X160069883Y-150617440D01*
X160085623Y-150638663D01*
X160099207Y-150661326D01*
X160110505Y-150685212D01*
X160119406Y-150710091D01*
X160125826Y-150735722D01*
X160129703Y-150761859D01*
X160131000Y-150788250D01*
X160131000Y-151751750D01*
X160129703Y-151778141D01*
X160125826Y-151804278D01*
X160119406Y-151829909D01*
X160110505Y-151854788D01*
X160099207Y-151878674D01*
X160085623Y-151901337D01*
X160069883Y-151922560D01*
X160052139Y-151942139D01*
X160032560Y-151959883D01*
X160011337Y-151975623D01*
X159988674Y-151989207D01*
X159964788Y-152000505D01*
X159939909Y-152009406D01*
X159914278Y-152015826D01*
X159888141Y-152019703D01*
X159861750Y-152021000D01*
X159323250Y-152021000D01*
X159296859Y-152019703D01*
X159270722Y-152015826D01*
X159245091Y-152009406D01*
X159220212Y-152000505D01*
X159196326Y-151989207D01*
X159173663Y-151975623D01*
X159152440Y-151959883D01*
X159132861Y-151942139D01*
X159115117Y-151922560D01*
X159099377Y-151901337D01*
X159085793Y-151878674D01*
X159074495Y-151854788D01*
X159065594Y-151829909D01*
X159059174Y-151804278D01*
X159055297Y-151778141D01*
X159054000Y-151751750D01*
X159054000Y-150788250D01*
X159055297Y-150761859D01*
X159059174Y-150735722D01*
X159065594Y-150710091D01*
X159074495Y-150685212D01*
X159085793Y-150661326D01*
X159099377Y-150638663D01*
X159115117Y-150617440D01*
X159132861Y-150597861D01*
X159152440Y-150580117D01*
X159173663Y-150564377D01*
X159196326Y-150550793D01*
X159220212Y-150539495D01*
X159245091Y-150530594D01*
X159270722Y-150524174D01*
X159296859Y-150520297D01*
X159323250Y-150519000D01*
X159861750Y-150519000D01*
X159888141Y-150520297D01*
X159888141Y-150520297D01*
G37*
D13*
X159592500Y-151270000D03*
D12*
G36*
X161763141Y-150520297D02*
G01*
X161789278Y-150524174D01*
X161814909Y-150530594D01*
X161839788Y-150539495D01*
X161863674Y-150550793D01*
X161886337Y-150564377D01*
X161907560Y-150580117D01*
X161927139Y-150597861D01*
X161944883Y-150617440D01*
X161960623Y-150638663D01*
X161974207Y-150661326D01*
X161985505Y-150685212D01*
X161994406Y-150710091D01*
X162000826Y-150735722D01*
X162004703Y-150761859D01*
X162006000Y-150788250D01*
X162006000Y-151751750D01*
X162004703Y-151778141D01*
X162000826Y-151804278D01*
X161994406Y-151829909D01*
X161985505Y-151854788D01*
X161974207Y-151878674D01*
X161960623Y-151901337D01*
X161944883Y-151922560D01*
X161927139Y-151942139D01*
X161907560Y-151959883D01*
X161886337Y-151975623D01*
X161863674Y-151989207D01*
X161839788Y-152000505D01*
X161814909Y-152009406D01*
X161789278Y-152015826D01*
X161763141Y-152019703D01*
X161736750Y-152021000D01*
X161198250Y-152021000D01*
X161171859Y-152019703D01*
X161145722Y-152015826D01*
X161120091Y-152009406D01*
X161095212Y-152000505D01*
X161071326Y-151989207D01*
X161048663Y-151975623D01*
X161027440Y-151959883D01*
X161007861Y-151942139D01*
X160990117Y-151922560D01*
X160974377Y-151901337D01*
X160960793Y-151878674D01*
X160949495Y-151854788D01*
X160940594Y-151829909D01*
X160934174Y-151804278D01*
X160930297Y-151778141D01*
X160929000Y-151751750D01*
X160929000Y-150788250D01*
X160930297Y-150761859D01*
X160934174Y-150735722D01*
X160940594Y-150710091D01*
X160949495Y-150685212D01*
X160960793Y-150661326D01*
X160974377Y-150638663D01*
X160990117Y-150617440D01*
X161007861Y-150597861D01*
X161027440Y-150580117D01*
X161048663Y-150564377D01*
X161071326Y-150550793D01*
X161095212Y-150539495D01*
X161120091Y-150530594D01*
X161145722Y-150524174D01*
X161171859Y-150520297D01*
X161198250Y-150519000D01*
X161736750Y-150519000D01*
X161763141Y-150520297D01*
X161763141Y-150520297D01*
G37*
D13*
X161467500Y-151270000D03*
D12*
G36*
X160210691Y-148845176D02*
G01*
X160234401Y-148848693D01*
X160257652Y-148854517D01*
X160280220Y-148862592D01*
X160301889Y-148872841D01*
X160322448Y-148885164D01*
X160341701Y-148899442D01*
X160359461Y-148915539D01*
X160375558Y-148933299D01*
X160389836Y-148952552D01*
X160402159Y-148973111D01*
X160412408Y-148994780D01*
X160420483Y-149017348D01*
X160426307Y-149040599D01*
X160429824Y-149064309D01*
X160431000Y-149088250D01*
X160431000Y-149651750D01*
X160429824Y-149675691D01*
X160426307Y-149699401D01*
X160420483Y-149722652D01*
X160412408Y-149745220D01*
X160402159Y-149766889D01*
X160389836Y-149787448D01*
X160375558Y-149806701D01*
X160359461Y-149824461D01*
X160341701Y-149840558D01*
X160322448Y-149854836D01*
X160301889Y-149867159D01*
X160280220Y-149877408D01*
X160257652Y-149885483D01*
X160234401Y-149891307D01*
X160210691Y-149894824D01*
X160186750Y-149896000D01*
X159698250Y-149896000D01*
X159674309Y-149894824D01*
X159650599Y-149891307D01*
X159627348Y-149885483D01*
X159604780Y-149877408D01*
X159583111Y-149867159D01*
X159562552Y-149854836D01*
X159543299Y-149840558D01*
X159525539Y-149824461D01*
X159509442Y-149806701D01*
X159495164Y-149787448D01*
X159482841Y-149766889D01*
X159472592Y-149745220D01*
X159464517Y-149722652D01*
X159458693Y-149699401D01*
X159455176Y-149675691D01*
X159454000Y-149651750D01*
X159454000Y-149088250D01*
X159455176Y-149064309D01*
X159458693Y-149040599D01*
X159464517Y-149017348D01*
X159472592Y-148994780D01*
X159482841Y-148973111D01*
X159495164Y-148952552D01*
X159509442Y-148933299D01*
X159525539Y-148915539D01*
X159543299Y-148899442D01*
X159562552Y-148885164D01*
X159583111Y-148872841D01*
X159604780Y-148862592D01*
X159627348Y-148854517D01*
X159650599Y-148848693D01*
X159674309Y-148845176D01*
X159698250Y-148844000D01*
X160186750Y-148844000D01*
X160210691Y-148845176D01*
X160210691Y-148845176D01*
G37*
D15*
X159942500Y-149370000D03*
D12*
G36*
X161785691Y-148845176D02*
G01*
X161809401Y-148848693D01*
X161832652Y-148854517D01*
X161855220Y-148862592D01*
X161876889Y-148872841D01*
X161897448Y-148885164D01*
X161916701Y-148899442D01*
X161934461Y-148915539D01*
X161950558Y-148933299D01*
X161964836Y-148952552D01*
X161977159Y-148973111D01*
X161987408Y-148994780D01*
X161995483Y-149017348D01*
X162001307Y-149040599D01*
X162004824Y-149064309D01*
X162006000Y-149088250D01*
X162006000Y-149651750D01*
X162004824Y-149675691D01*
X162001307Y-149699401D01*
X161995483Y-149722652D01*
X161987408Y-149745220D01*
X161977159Y-149766889D01*
X161964836Y-149787448D01*
X161950558Y-149806701D01*
X161934461Y-149824461D01*
X161916701Y-149840558D01*
X161897448Y-149854836D01*
X161876889Y-149867159D01*
X161855220Y-149877408D01*
X161832652Y-149885483D01*
X161809401Y-149891307D01*
X161785691Y-149894824D01*
X161761750Y-149896000D01*
X161273250Y-149896000D01*
X161249309Y-149894824D01*
X161225599Y-149891307D01*
X161202348Y-149885483D01*
X161179780Y-149877408D01*
X161158111Y-149867159D01*
X161137552Y-149854836D01*
X161118299Y-149840558D01*
X161100539Y-149824461D01*
X161084442Y-149806701D01*
X161070164Y-149787448D01*
X161057841Y-149766889D01*
X161047592Y-149745220D01*
X161039517Y-149722652D01*
X161033693Y-149699401D01*
X161030176Y-149675691D01*
X161029000Y-149651750D01*
X161029000Y-149088250D01*
X161030176Y-149064309D01*
X161033693Y-149040599D01*
X161039517Y-149017348D01*
X161047592Y-148994780D01*
X161057841Y-148973111D01*
X161070164Y-148952552D01*
X161084442Y-148933299D01*
X161100539Y-148915539D01*
X161118299Y-148899442D01*
X161137552Y-148885164D01*
X161158111Y-148872841D01*
X161179780Y-148862592D01*
X161202348Y-148854517D01*
X161225599Y-148848693D01*
X161249309Y-148845176D01*
X161273250Y-148844000D01*
X161761750Y-148844000D01*
X161785691Y-148845176D01*
X161785691Y-148845176D01*
G37*
D15*
X161517500Y-149370000D03*
D28*
X145400000Y-136800000D03*
D29*
X152000000Y-136800000D03*
X138800000Y-136800000D03*
D21*
X133000000Y-152000000D03*
X133000000Y-133000000D03*
D30*
X183600000Y-135930000D03*
X183600000Y-149070000D03*
D31*
X181000000Y-139000000D03*
X181000000Y-141500000D03*
X181000000Y-143500000D03*
X181000000Y-146000000D03*
D17*
X182840000Y-132000000D03*
X185380000Y-132000000D03*
X187920000Y-132000000D03*
X190460000Y-132000000D03*
D18*
X193000000Y-132000000D03*
D12*
G36*
X175187691Y-141085176D02*
G01*
X175211401Y-141088693D01*
X175234652Y-141094517D01*
X175257220Y-141102592D01*
X175278889Y-141112841D01*
X175299448Y-141125164D01*
X175318701Y-141139442D01*
X175336461Y-141155539D01*
X175352558Y-141173299D01*
X175366836Y-141192552D01*
X175379159Y-141213111D01*
X175389408Y-141234780D01*
X175397483Y-141257348D01*
X175403307Y-141280599D01*
X175406824Y-141304309D01*
X175408000Y-141328250D01*
X175408000Y-141891750D01*
X175406824Y-141915691D01*
X175403307Y-141939401D01*
X175397483Y-141962652D01*
X175389408Y-141985220D01*
X175379159Y-142006889D01*
X175366836Y-142027448D01*
X175352558Y-142046701D01*
X175336461Y-142064461D01*
X175318701Y-142080558D01*
X175299448Y-142094836D01*
X175278889Y-142107159D01*
X175257220Y-142117408D01*
X175234652Y-142125483D01*
X175211401Y-142131307D01*
X175187691Y-142134824D01*
X175163750Y-142136000D01*
X174675250Y-142136000D01*
X174651309Y-142134824D01*
X174627599Y-142131307D01*
X174604348Y-142125483D01*
X174581780Y-142117408D01*
X174560111Y-142107159D01*
X174539552Y-142094836D01*
X174520299Y-142080558D01*
X174502539Y-142064461D01*
X174486442Y-142046701D01*
X174472164Y-142027448D01*
X174459841Y-142006889D01*
X174449592Y-141985220D01*
X174441517Y-141962652D01*
X174435693Y-141939401D01*
X174432176Y-141915691D01*
X174431000Y-141891750D01*
X174431000Y-141328250D01*
X174432176Y-141304309D01*
X174435693Y-141280599D01*
X174441517Y-141257348D01*
X174449592Y-141234780D01*
X174459841Y-141213111D01*
X174472164Y-141192552D01*
X174486442Y-141173299D01*
X174502539Y-141155539D01*
X174520299Y-141139442D01*
X174539552Y-141125164D01*
X174560111Y-141112841D01*
X174581780Y-141102592D01*
X174604348Y-141094517D01*
X174627599Y-141088693D01*
X174651309Y-141085176D01*
X174675250Y-141084000D01*
X175163750Y-141084000D01*
X175187691Y-141085176D01*
X175187691Y-141085176D01*
G37*
D15*
X174919500Y-141610000D03*
D12*
G36*
X173612691Y-141085176D02*
G01*
X173636401Y-141088693D01*
X173659652Y-141094517D01*
X173682220Y-141102592D01*
X173703889Y-141112841D01*
X173724448Y-141125164D01*
X173743701Y-141139442D01*
X173761461Y-141155539D01*
X173777558Y-141173299D01*
X173791836Y-141192552D01*
X173804159Y-141213111D01*
X173814408Y-141234780D01*
X173822483Y-141257348D01*
X173828307Y-141280599D01*
X173831824Y-141304309D01*
X173833000Y-141328250D01*
X173833000Y-141891750D01*
X173831824Y-141915691D01*
X173828307Y-141939401D01*
X173822483Y-141962652D01*
X173814408Y-141985220D01*
X173804159Y-142006889D01*
X173791836Y-142027448D01*
X173777558Y-142046701D01*
X173761461Y-142064461D01*
X173743701Y-142080558D01*
X173724448Y-142094836D01*
X173703889Y-142107159D01*
X173682220Y-142117408D01*
X173659652Y-142125483D01*
X173636401Y-142131307D01*
X173612691Y-142134824D01*
X173588750Y-142136000D01*
X173100250Y-142136000D01*
X173076309Y-142134824D01*
X173052599Y-142131307D01*
X173029348Y-142125483D01*
X173006780Y-142117408D01*
X172985111Y-142107159D01*
X172964552Y-142094836D01*
X172945299Y-142080558D01*
X172927539Y-142064461D01*
X172911442Y-142046701D01*
X172897164Y-142027448D01*
X172884841Y-142006889D01*
X172874592Y-141985220D01*
X172866517Y-141962652D01*
X172860693Y-141939401D01*
X172857176Y-141915691D01*
X172856000Y-141891750D01*
X172856000Y-141328250D01*
X172857176Y-141304309D01*
X172860693Y-141280599D01*
X172866517Y-141257348D01*
X172874592Y-141234780D01*
X172884841Y-141213111D01*
X172897164Y-141192552D01*
X172911442Y-141173299D01*
X172927539Y-141155539D01*
X172945299Y-141139442D01*
X172964552Y-141125164D01*
X172985111Y-141112841D01*
X173006780Y-141102592D01*
X173029348Y-141094517D01*
X173052599Y-141088693D01*
X173076309Y-141085176D01*
X173100250Y-141084000D01*
X173588750Y-141084000D01*
X173612691Y-141085176D01*
X173612691Y-141085176D01*
G37*
D15*
X173344500Y-141610000D03*
M02*
