G04 #@! TF.GenerationSoftware,KiCad,Pcbnew,(5.1.2)-1*
G04 #@! TF.CreationDate,2022-02-25T21:01:52+09:00*
G04 #@! TF.ProjectId,wcc,7763632e-6b69-4636-9164-5f7063625858,v2.2*
G04 #@! TF.SameCoordinates,Original*
G04 #@! TF.FileFunction,Paste,Bot*
G04 #@! TF.FilePolarity,Positive*
%FSLAX46Y46*%
G04 Gerber Fmt 4.6, Leading zero omitted, Abs format (unit mm)*
G04 Created by KiCad (PCBNEW (5.1.2)-1) date 2022-02-25 21:01:52*
%MOMM*%
%LPD*%
G04 APERTURE LIST*
%ADD10C,0.100000*%
%ADD11C,0.975000*%
%ADD12R,0.650000X0.400000*%
%ADD13C,0.875000*%
%ADD14R,0.500000X0.900000*%
%ADD15R,1.300000X1.900000*%
%ADD16R,1.000000X2.800000*%
%ADD17R,1.000000X0.800000*%
%ADD18R,1.000000X1.200000*%
%ADD19R,0.700000X1.200000*%
%ADD20R,0.800000X0.900000*%
%ADD21R,4.000000X4.000000*%
%ADD22C,3.000000*%
%ADD23C,1.524000*%
G04 APERTURE END LIST*
D10*
G36*
X178680142Y-140806174D02*
G01*
X178703803Y-140809684D01*
X178727007Y-140815496D01*
X178749529Y-140823554D01*
X178771153Y-140833782D01*
X178791670Y-140846079D01*
X178810883Y-140860329D01*
X178828607Y-140876393D01*
X178844671Y-140894117D01*
X178858921Y-140913330D01*
X178871218Y-140933847D01*
X178881446Y-140955471D01*
X178889504Y-140977993D01*
X178895316Y-141001197D01*
X178898826Y-141024858D01*
X178900000Y-141048750D01*
X178900000Y-141536250D01*
X178898826Y-141560142D01*
X178895316Y-141583803D01*
X178889504Y-141607007D01*
X178881446Y-141629529D01*
X178871218Y-141651153D01*
X178858921Y-141671670D01*
X178844671Y-141690883D01*
X178828607Y-141708607D01*
X178810883Y-141724671D01*
X178791670Y-141738921D01*
X178771153Y-141751218D01*
X178749529Y-141761446D01*
X178727007Y-141769504D01*
X178703803Y-141775316D01*
X178680142Y-141778826D01*
X178656250Y-141780000D01*
X177743750Y-141780000D01*
X177719858Y-141778826D01*
X177696197Y-141775316D01*
X177672993Y-141769504D01*
X177650471Y-141761446D01*
X177628847Y-141751218D01*
X177608330Y-141738921D01*
X177589117Y-141724671D01*
X177571393Y-141708607D01*
X177555329Y-141690883D01*
X177541079Y-141671670D01*
X177528782Y-141651153D01*
X177518554Y-141629529D01*
X177510496Y-141607007D01*
X177504684Y-141583803D01*
X177501174Y-141560142D01*
X177500000Y-141536250D01*
X177500000Y-141048750D01*
X177501174Y-141024858D01*
X177504684Y-141001197D01*
X177510496Y-140977993D01*
X177518554Y-140955471D01*
X177528782Y-140933847D01*
X177541079Y-140913330D01*
X177555329Y-140894117D01*
X177571393Y-140876393D01*
X177589117Y-140860329D01*
X177608330Y-140846079D01*
X177628847Y-140833782D01*
X177650471Y-140823554D01*
X177672993Y-140815496D01*
X177696197Y-140809684D01*
X177719858Y-140806174D01*
X177743750Y-140805000D01*
X178656250Y-140805000D01*
X178680142Y-140806174D01*
X178680142Y-140806174D01*
G37*
D11*
X178200000Y-141292500D03*
D10*
G36*
X178680142Y-142681174D02*
G01*
X178703803Y-142684684D01*
X178727007Y-142690496D01*
X178749529Y-142698554D01*
X178771153Y-142708782D01*
X178791670Y-142721079D01*
X178810883Y-142735329D01*
X178828607Y-142751393D01*
X178844671Y-142769117D01*
X178858921Y-142788330D01*
X178871218Y-142808847D01*
X178881446Y-142830471D01*
X178889504Y-142852993D01*
X178895316Y-142876197D01*
X178898826Y-142899858D01*
X178900000Y-142923750D01*
X178900000Y-143411250D01*
X178898826Y-143435142D01*
X178895316Y-143458803D01*
X178889504Y-143482007D01*
X178881446Y-143504529D01*
X178871218Y-143526153D01*
X178858921Y-143546670D01*
X178844671Y-143565883D01*
X178828607Y-143583607D01*
X178810883Y-143599671D01*
X178791670Y-143613921D01*
X178771153Y-143626218D01*
X178749529Y-143636446D01*
X178727007Y-143644504D01*
X178703803Y-143650316D01*
X178680142Y-143653826D01*
X178656250Y-143655000D01*
X177743750Y-143655000D01*
X177719858Y-143653826D01*
X177696197Y-143650316D01*
X177672993Y-143644504D01*
X177650471Y-143636446D01*
X177628847Y-143626218D01*
X177608330Y-143613921D01*
X177589117Y-143599671D01*
X177571393Y-143583607D01*
X177555329Y-143565883D01*
X177541079Y-143546670D01*
X177528782Y-143526153D01*
X177518554Y-143504529D01*
X177510496Y-143482007D01*
X177504684Y-143458803D01*
X177501174Y-143435142D01*
X177500000Y-143411250D01*
X177500000Y-142923750D01*
X177501174Y-142899858D01*
X177504684Y-142876197D01*
X177510496Y-142852993D01*
X177518554Y-142830471D01*
X177528782Y-142808847D01*
X177541079Y-142788330D01*
X177555329Y-142769117D01*
X177571393Y-142751393D01*
X177589117Y-142735329D01*
X177608330Y-142721079D01*
X177628847Y-142708782D01*
X177650471Y-142698554D01*
X177672993Y-142690496D01*
X177696197Y-142684684D01*
X177719858Y-142681174D01*
X177743750Y-142680000D01*
X178656250Y-142680000D01*
X178680142Y-142681174D01*
X178680142Y-142681174D01*
G37*
D11*
X178200000Y-143167500D03*
D12*
X173300000Y-145270000D03*
X173300000Y-146570000D03*
X175200000Y-145920000D03*
X173300000Y-145920000D03*
X175200000Y-146570000D03*
X175200000Y-145270000D03*
D10*
G36*
X175155691Y-143026053D02*
G01*
X175176926Y-143029203D01*
X175197750Y-143034419D01*
X175217962Y-143041651D01*
X175237368Y-143050830D01*
X175255781Y-143061866D01*
X175273024Y-143074654D01*
X175288930Y-143089070D01*
X175303346Y-143104976D01*
X175316134Y-143122219D01*
X175327170Y-143140632D01*
X175336349Y-143160038D01*
X175343581Y-143180250D01*
X175348797Y-143201074D01*
X175351947Y-143222309D01*
X175353000Y-143243750D01*
X175353000Y-143756250D01*
X175351947Y-143777691D01*
X175348797Y-143798926D01*
X175343581Y-143819750D01*
X175336349Y-143839962D01*
X175327170Y-143859368D01*
X175316134Y-143877781D01*
X175303346Y-143895024D01*
X175288930Y-143910930D01*
X175273024Y-143925346D01*
X175255781Y-143938134D01*
X175237368Y-143949170D01*
X175217962Y-143958349D01*
X175197750Y-143965581D01*
X175176926Y-143970797D01*
X175155691Y-143973947D01*
X175134250Y-143975000D01*
X174696750Y-143975000D01*
X174675309Y-143973947D01*
X174654074Y-143970797D01*
X174633250Y-143965581D01*
X174613038Y-143958349D01*
X174593632Y-143949170D01*
X174575219Y-143938134D01*
X174557976Y-143925346D01*
X174542070Y-143910930D01*
X174527654Y-143895024D01*
X174514866Y-143877781D01*
X174503830Y-143859368D01*
X174494651Y-143839962D01*
X174487419Y-143819750D01*
X174482203Y-143798926D01*
X174479053Y-143777691D01*
X174478000Y-143756250D01*
X174478000Y-143243750D01*
X174479053Y-143222309D01*
X174482203Y-143201074D01*
X174487419Y-143180250D01*
X174494651Y-143160038D01*
X174503830Y-143140632D01*
X174514866Y-143122219D01*
X174527654Y-143104976D01*
X174542070Y-143089070D01*
X174557976Y-143074654D01*
X174575219Y-143061866D01*
X174593632Y-143050830D01*
X174613038Y-143041651D01*
X174633250Y-143034419D01*
X174654074Y-143029203D01*
X174675309Y-143026053D01*
X174696750Y-143025000D01*
X175134250Y-143025000D01*
X175155691Y-143026053D01*
X175155691Y-143026053D01*
G37*
D13*
X174915500Y-143500000D03*
D10*
G36*
X173580691Y-143026053D02*
G01*
X173601926Y-143029203D01*
X173622750Y-143034419D01*
X173642962Y-143041651D01*
X173662368Y-143050830D01*
X173680781Y-143061866D01*
X173698024Y-143074654D01*
X173713930Y-143089070D01*
X173728346Y-143104976D01*
X173741134Y-143122219D01*
X173752170Y-143140632D01*
X173761349Y-143160038D01*
X173768581Y-143180250D01*
X173773797Y-143201074D01*
X173776947Y-143222309D01*
X173778000Y-143243750D01*
X173778000Y-143756250D01*
X173776947Y-143777691D01*
X173773797Y-143798926D01*
X173768581Y-143819750D01*
X173761349Y-143839962D01*
X173752170Y-143859368D01*
X173741134Y-143877781D01*
X173728346Y-143895024D01*
X173713930Y-143910930D01*
X173698024Y-143925346D01*
X173680781Y-143938134D01*
X173662368Y-143949170D01*
X173642962Y-143958349D01*
X173622750Y-143965581D01*
X173601926Y-143970797D01*
X173580691Y-143973947D01*
X173559250Y-143975000D01*
X173121750Y-143975000D01*
X173100309Y-143973947D01*
X173079074Y-143970797D01*
X173058250Y-143965581D01*
X173038038Y-143958349D01*
X173018632Y-143949170D01*
X173000219Y-143938134D01*
X172982976Y-143925346D01*
X172967070Y-143910930D01*
X172952654Y-143895024D01*
X172939866Y-143877781D01*
X172928830Y-143859368D01*
X172919651Y-143839962D01*
X172912419Y-143819750D01*
X172907203Y-143798926D01*
X172904053Y-143777691D01*
X172903000Y-143756250D01*
X172903000Y-143243750D01*
X172904053Y-143222309D01*
X172907203Y-143201074D01*
X172912419Y-143180250D01*
X172919651Y-143160038D01*
X172928830Y-143140632D01*
X172939866Y-143122219D01*
X172952654Y-143104976D01*
X172967070Y-143089070D01*
X172982976Y-143074654D01*
X173000219Y-143061866D01*
X173018632Y-143050830D01*
X173038038Y-143041651D01*
X173058250Y-143034419D01*
X173079074Y-143029203D01*
X173100309Y-143026053D01*
X173121750Y-143025000D01*
X173559250Y-143025000D01*
X173580691Y-143026053D01*
X173580691Y-143026053D01*
G37*
D13*
X173340500Y-143500000D03*
D10*
G36*
X178665691Y-144476053D02*
G01*
X178686926Y-144479203D01*
X178707750Y-144484419D01*
X178727962Y-144491651D01*
X178747368Y-144500830D01*
X178765781Y-144511866D01*
X178783024Y-144524654D01*
X178798930Y-144539070D01*
X178813346Y-144554976D01*
X178826134Y-144572219D01*
X178837170Y-144590632D01*
X178846349Y-144610038D01*
X178853581Y-144630250D01*
X178858797Y-144651074D01*
X178861947Y-144672309D01*
X178863000Y-144693750D01*
X178863000Y-145206250D01*
X178861947Y-145227691D01*
X178858797Y-145248926D01*
X178853581Y-145269750D01*
X178846349Y-145289962D01*
X178837170Y-145309368D01*
X178826134Y-145327781D01*
X178813346Y-145345024D01*
X178798930Y-145360930D01*
X178783024Y-145375346D01*
X178765781Y-145388134D01*
X178747368Y-145399170D01*
X178727962Y-145408349D01*
X178707750Y-145415581D01*
X178686926Y-145420797D01*
X178665691Y-145423947D01*
X178644250Y-145425000D01*
X178206750Y-145425000D01*
X178185309Y-145423947D01*
X178164074Y-145420797D01*
X178143250Y-145415581D01*
X178123038Y-145408349D01*
X178103632Y-145399170D01*
X178085219Y-145388134D01*
X178067976Y-145375346D01*
X178052070Y-145360930D01*
X178037654Y-145345024D01*
X178024866Y-145327781D01*
X178013830Y-145309368D01*
X178004651Y-145289962D01*
X177997419Y-145269750D01*
X177992203Y-145248926D01*
X177989053Y-145227691D01*
X177988000Y-145206250D01*
X177988000Y-144693750D01*
X177989053Y-144672309D01*
X177992203Y-144651074D01*
X177997419Y-144630250D01*
X178004651Y-144610038D01*
X178013830Y-144590632D01*
X178024866Y-144572219D01*
X178037654Y-144554976D01*
X178052070Y-144539070D01*
X178067976Y-144524654D01*
X178085219Y-144511866D01*
X178103632Y-144500830D01*
X178123038Y-144491651D01*
X178143250Y-144484419D01*
X178164074Y-144479203D01*
X178185309Y-144476053D01*
X178206750Y-144475000D01*
X178644250Y-144475000D01*
X178665691Y-144476053D01*
X178665691Y-144476053D01*
G37*
D13*
X178425500Y-144950000D03*
D10*
G36*
X177090691Y-144476053D02*
G01*
X177111926Y-144479203D01*
X177132750Y-144484419D01*
X177152962Y-144491651D01*
X177172368Y-144500830D01*
X177190781Y-144511866D01*
X177208024Y-144524654D01*
X177223930Y-144539070D01*
X177238346Y-144554976D01*
X177251134Y-144572219D01*
X177262170Y-144590632D01*
X177271349Y-144610038D01*
X177278581Y-144630250D01*
X177283797Y-144651074D01*
X177286947Y-144672309D01*
X177288000Y-144693750D01*
X177288000Y-145206250D01*
X177286947Y-145227691D01*
X177283797Y-145248926D01*
X177278581Y-145269750D01*
X177271349Y-145289962D01*
X177262170Y-145309368D01*
X177251134Y-145327781D01*
X177238346Y-145345024D01*
X177223930Y-145360930D01*
X177208024Y-145375346D01*
X177190781Y-145388134D01*
X177172368Y-145399170D01*
X177152962Y-145408349D01*
X177132750Y-145415581D01*
X177111926Y-145420797D01*
X177090691Y-145423947D01*
X177069250Y-145425000D01*
X176631750Y-145425000D01*
X176610309Y-145423947D01*
X176589074Y-145420797D01*
X176568250Y-145415581D01*
X176548038Y-145408349D01*
X176528632Y-145399170D01*
X176510219Y-145388134D01*
X176492976Y-145375346D01*
X176477070Y-145360930D01*
X176462654Y-145345024D01*
X176449866Y-145327781D01*
X176438830Y-145309368D01*
X176429651Y-145289962D01*
X176422419Y-145269750D01*
X176417203Y-145248926D01*
X176414053Y-145227691D01*
X176413000Y-145206250D01*
X176413000Y-144693750D01*
X176414053Y-144672309D01*
X176417203Y-144651074D01*
X176422419Y-144630250D01*
X176429651Y-144610038D01*
X176438830Y-144590632D01*
X176449866Y-144572219D01*
X176462654Y-144554976D01*
X176477070Y-144539070D01*
X176492976Y-144524654D01*
X176510219Y-144511866D01*
X176528632Y-144500830D01*
X176548038Y-144491651D01*
X176568250Y-144484419D01*
X176589074Y-144479203D01*
X176610309Y-144476053D01*
X176631750Y-144475000D01*
X177069250Y-144475000D01*
X177090691Y-144476053D01*
X177090691Y-144476053D01*
G37*
D13*
X176850500Y-144950000D03*
D14*
X145460000Y-147590000D03*
X146360000Y-147590000D03*
X147260000Y-147590000D03*
X148160000Y-147590000D03*
X148160000Y-145990000D03*
X147260000Y-145990000D03*
X146360000Y-145990000D03*
X145460000Y-145990000D03*
D10*
G36*
X178665691Y-146146053D02*
G01*
X178686926Y-146149203D01*
X178707750Y-146154419D01*
X178727962Y-146161651D01*
X178747368Y-146170830D01*
X178765781Y-146181866D01*
X178783024Y-146194654D01*
X178798930Y-146209070D01*
X178813346Y-146224976D01*
X178826134Y-146242219D01*
X178837170Y-146260632D01*
X178846349Y-146280038D01*
X178853581Y-146300250D01*
X178858797Y-146321074D01*
X178861947Y-146342309D01*
X178863000Y-146363750D01*
X178863000Y-146876250D01*
X178861947Y-146897691D01*
X178858797Y-146918926D01*
X178853581Y-146939750D01*
X178846349Y-146959962D01*
X178837170Y-146979368D01*
X178826134Y-146997781D01*
X178813346Y-147015024D01*
X178798930Y-147030930D01*
X178783024Y-147045346D01*
X178765781Y-147058134D01*
X178747368Y-147069170D01*
X178727962Y-147078349D01*
X178707750Y-147085581D01*
X178686926Y-147090797D01*
X178665691Y-147093947D01*
X178644250Y-147095000D01*
X178206750Y-147095000D01*
X178185309Y-147093947D01*
X178164074Y-147090797D01*
X178143250Y-147085581D01*
X178123038Y-147078349D01*
X178103632Y-147069170D01*
X178085219Y-147058134D01*
X178067976Y-147045346D01*
X178052070Y-147030930D01*
X178037654Y-147015024D01*
X178024866Y-146997781D01*
X178013830Y-146979368D01*
X178004651Y-146959962D01*
X177997419Y-146939750D01*
X177992203Y-146918926D01*
X177989053Y-146897691D01*
X177988000Y-146876250D01*
X177988000Y-146363750D01*
X177989053Y-146342309D01*
X177992203Y-146321074D01*
X177997419Y-146300250D01*
X178004651Y-146280038D01*
X178013830Y-146260632D01*
X178024866Y-146242219D01*
X178037654Y-146224976D01*
X178052070Y-146209070D01*
X178067976Y-146194654D01*
X178085219Y-146181866D01*
X178103632Y-146170830D01*
X178123038Y-146161651D01*
X178143250Y-146154419D01*
X178164074Y-146149203D01*
X178185309Y-146146053D01*
X178206750Y-146145000D01*
X178644250Y-146145000D01*
X178665691Y-146146053D01*
X178665691Y-146146053D01*
G37*
D13*
X178425500Y-146620000D03*
D10*
G36*
X177090691Y-146146053D02*
G01*
X177111926Y-146149203D01*
X177132750Y-146154419D01*
X177152962Y-146161651D01*
X177172368Y-146170830D01*
X177190781Y-146181866D01*
X177208024Y-146194654D01*
X177223930Y-146209070D01*
X177238346Y-146224976D01*
X177251134Y-146242219D01*
X177262170Y-146260632D01*
X177271349Y-146280038D01*
X177278581Y-146300250D01*
X177283797Y-146321074D01*
X177286947Y-146342309D01*
X177288000Y-146363750D01*
X177288000Y-146876250D01*
X177286947Y-146897691D01*
X177283797Y-146918926D01*
X177278581Y-146939750D01*
X177271349Y-146959962D01*
X177262170Y-146979368D01*
X177251134Y-146997781D01*
X177238346Y-147015024D01*
X177223930Y-147030930D01*
X177208024Y-147045346D01*
X177190781Y-147058134D01*
X177172368Y-147069170D01*
X177152962Y-147078349D01*
X177132750Y-147085581D01*
X177111926Y-147090797D01*
X177090691Y-147093947D01*
X177069250Y-147095000D01*
X176631750Y-147095000D01*
X176610309Y-147093947D01*
X176589074Y-147090797D01*
X176568250Y-147085581D01*
X176548038Y-147078349D01*
X176528632Y-147069170D01*
X176510219Y-147058134D01*
X176492976Y-147045346D01*
X176477070Y-147030930D01*
X176462654Y-147015024D01*
X176449866Y-146997781D01*
X176438830Y-146979368D01*
X176429651Y-146959962D01*
X176422419Y-146939750D01*
X176417203Y-146918926D01*
X176414053Y-146897691D01*
X176413000Y-146876250D01*
X176413000Y-146363750D01*
X176414053Y-146342309D01*
X176417203Y-146321074D01*
X176422419Y-146300250D01*
X176429651Y-146280038D01*
X176438830Y-146260632D01*
X176449866Y-146242219D01*
X176462654Y-146224976D01*
X176477070Y-146209070D01*
X176492976Y-146194654D01*
X176510219Y-146181866D01*
X176528632Y-146170830D01*
X176548038Y-146161651D01*
X176568250Y-146154419D01*
X176589074Y-146149203D01*
X176610309Y-146146053D01*
X176631750Y-146145000D01*
X177069250Y-146145000D01*
X177090691Y-146146053D01*
X177090691Y-146146053D01*
G37*
D13*
X176850500Y-146620000D03*
D10*
G36*
X168257691Y-151026053D02*
G01*
X168278926Y-151029203D01*
X168299750Y-151034419D01*
X168319962Y-151041651D01*
X168339368Y-151050830D01*
X168357781Y-151061866D01*
X168375024Y-151074654D01*
X168390930Y-151089070D01*
X168405346Y-151104976D01*
X168418134Y-151122219D01*
X168429170Y-151140632D01*
X168438349Y-151160038D01*
X168445581Y-151180250D01*
X168450797Y-151201074D01*
X168453947Y-151222309D01*
X168455000Y-151243750D01*
X168455000Y-151756250D01*
X168453947Y-151777691D01*
X168450797Y-151798926D01*
X168445581Y-151819750D01*
X168438349Y-151839962D01*
X168429170Y-151859368D01*
X168418134Y-151877781D01*
X168405346Y-151895024D01*
X168390930Y-151910930D01*
X168375024Y-151925346D01*
X168357781Y-151938134D01*
X168339368Y-151949170D01*
X168319962Y-151958349D01*
X168299750Y-151965581D01*
X168278926Y-151970797D01*
X168257691Y-151973947D01*
X168236250Y-151975000D01*
X167798750Y-151975000D01*
X167777309Y-151973947D01*
X167756074Y-151970797D01*
X167735250Y-151965581D01*
X167715038Y-151958349D01*
X167695632Y-151949170D01*
X167677219Y-151938134D01*
X167659976Y-151925346D01*
X167644070Y-151910930D01*
X167629654Y-151895024D01*
X167616866Y-151877781D01*
X167605830Y-151859368D01*
X167596651Y-151839962D01*
X167589419Y-151819750D01*
X167584203Y-151798926D01*
X167581053Y-151777691D01*
X167580000Y-151756250D01*
X167580000Y-151243750D01*
X167581053Y-151222309D01*
X167584203Y-151201074D01*
X167589419Y-151180250D01*
X167596651Y-151160038D01*
X167605830Y-151140632D01*
X167616866Y-151122219D01*
X167629654Y-151104976D01*
X167644070Y-151089070D01*
X167659976Y-151074654D01*
X167677219Y-151061866D01*
X167695632Y-151050830D01*
X167715038Y-151041651D01*
X167735250Y-151034419D01*
X167756074Y-151029203D01*
X167777309Y-151026053D01*
X167798750Y-151025000D01*
X168236250Y-151025000D01*
X168257691Y-151026053D01*
X168257691Y-151026053D01*
G37*
D13*
X168017500Y-151500000D03*
D10*
G36*
X166682691Y-151026053D02*
G01*
X166703926Y-151029203D01*
X166724750Y-151034419D01*
X166744962Y-151041651D01*
X166764368Y-151050830D01*
X166782781Y-151061866D01*
X166800024Y-151074654D01*
X166815930Y-151089070D01*
X166830346Y-151104976D01*
X166843134Y-151122219D01*
X166854170Y-151140632D01*
X166863349Y-151160038D01*
X166870581Y-151180250D01*
X166875797Y-151201074D01*
X166878947Y-151222309D01*
X166880000Y-151243750D01*
X166880000Y-151756250D01*
X166878947Y-151777691D01*
X166875797Y-151798926D01*
X166870581Y-151819750D01*
X166863349Y-151839962D01*
X166854170Y-151859368D01*
X166843134Y-151877781D01*
X166830346Y-151895024D01*
X166815930Y-151910930D01*
X166800024Y-151925346D01*
X166782781Y-151938134D01*
X166764368Y-151949170D01*
X166744962Y-151958349D01*
X166724750Y-151965581D01*
X166703926Y-151970797D01*
X166682691Y-151973947D01*
X166661250Y-151975000D01*
X166223750Y-151975000D01*
X166202309Y-151973947D01*
X166181074Y-151970797D01*
X166160250Y-151965581D01*
X166140038Y-151958349D01*
X166120632Y-151949170D01*
X166102219Y-151938134D01*
X166084976Y-151925346D01*
X166069070Y-151910930D01*
X166054654Y-151895024D01*
X166041866Y-151877781D01*
X166030830Y-151859368D01*
X166021651Y-151839962D01*
X166014419Y-151819750D01*
X166009203Y-151798926D01*
X166006053Y-151777691D01*
X166005000Y-151756250D01*
X166005000Y-151243750D01*
X166006053Y-151222309D01*
X166009203Y-151201074D01*
X166014419Y-151180250D01*
X166021651Y-151160038D01*
X166030830Y-151140632D01*
X166041866Y-151122219D01*
X166054654Y-151104976D01*
X166069070Y-151089070D01*
X166084976Y-151074654D01*
X166102219Y-151061866D01*
X166120632Y-151050830D01*
X166140038Y-151041651D01*
X166160250Y-151034419D01*
X166181074Y-151029203D01*
X166202309Y-151026053D01*
X166223750Y-151025000D01*
X166661250Y-151025000D01*
X166682691Y-151026053D01*
X166682691Y-151026053D01*
G37*
D13*
X166442500Y-151500000D03*
D15*
X167935000Y-131525000D03*
D16*
X154435000Y-131975000D03*
D17*
X154435000Y-136125000D03*
D18*
X154435000Y-142325000D03*
X165585000Y-146625000D03*
D19*
X157435000Y-146625000D03*
X158535000Y-146625000D03*
X159635000Y-146625000D03*
X160735000Y-146625000D03*
X161835000Y-146625000D03*
X162935000Y-146625000D03*
X164035000Y-146625000D03*
X156335000Y-146625000D03*
X155385000Y-146625000D03*
D10*
G36*
X149074691Y-149646053D02*
G01*
X149095926Y-149649203D01*
X149116750Y-149654419D01*
X149136962Y-149661651D01*
X149156368Y-149670830D01*
X149174781Y-149681866D01*
X149192024Y-149694654D01*
X149207930Y-149709070D01*
X149222346Y-149724976D01*
X149235134Y-149742219D01*
X149246170Y-149760632D01*
X149255349Y-149780038D01*
X149262581Y-149800250D01*
X149267797Y-149821074D01*
X149270947Y-149842309D01*
X149272000Y-149863750D01*
X149272000Y-150376250D01*
X149270947Y-150397691D01*
X149267797Y-150418926D01*
X149262581Y-150439750D01*
X149255349Y-150459962D01*
X149246170Y-150479368D01*
X149235134Y-150497781D01*
X149222346Y-150515024D01*
X149207930Y-150530930D01*
X149192024Y-150545346D01*
X149174781Y-150558134D01*
X149156368Y-150569170D01*
X149136962Y-150578349D01*
X149116750Y-150585581D01*
X149095926Y-150590797D01*
X149074691Y-150593947D01*
X149053250Y-150595000D01*
X148615750Y-150595000D01*
X148594309Y-150593947D01*
X148573074Y-150590797D01*
X148552250Y-150585581D01*
X148532038Y-150578349D01*
X148512632Y-150569170D01*
X148494219Y-150558134D01*
X148476976Y-150545346D01*
X148461070Y-150530930D01*
X148446654Y-150515024D01*
X148433866Y-150497781D01*
X148422830Y-150479368D01*
X148413651Y-150459962D01*
X148406419Y-150439750D01*
X148401203Y-150418926D01*
X148398053Y-150397691D01*
X148397000Y-150376250D01*
X148397000Y-149863750D01*
X148398053Y-149842309D01*
X148401203Y-149821074D01*
X148406419Y-149800250D01*
X148413651Y-149780038D01*
X148422830Y-149760632D01*
X148433866Y-149742219D01*
X148446654Y-149724976D01*
X148461070Y-149709070D01*
X148476976Y-149694654D01*
X148494219Y-149681866D01*
X148512632Y-149670830D01*
X148532038Y-149661651D01*
X148552250Y-149654419D01*
X148573074Y-149649203D01*
X148594309Y-149646053D01*
X148615750Y-149645000D01*
X149053250Y-149645000D01*
X149074691Y-149646053D01*
X149074691Y-149646053D01*
G37*
D13*
X148834500Y-150120000D03*
D10*
G36*
X150649691Y-149646053D02*
G01*
X150670926Y-149649203D01*
X150691750Y-149654419D01*
X150711962Y-149661651D01*
X150731368Y-149670830D01*
X150749781Y-149681866D01*
X150767024Y-149694654D01*
X150782930Y-149709070D01*
X150797346Y-149724976D01*
X150810134Y-149742219D01*
X150821170Y-149760632D01*
X150830349Y-149780038D01*
X150837581Y-149800250D01*
X150842797Y-149821074D01*
X150845947Y-149842309D01*
X150847000Y-149863750D01*
X150847000Y-150376250D01*
X150845947Y-150397691D01*
X150842797Y-150418926D01*
X150837581Y-150439750D01*
X150830349Y-150459962D01*
X150821170Y-150479368D01*
X150810134Y-150497781D01*
X150797346Y-150515024D01*
X150782930Y-150530930D01*
X150767024Y-150545346D01*
X150749781Y-150558134D01*
X150731368Y-150569170D01*
X150711962Y-150578349D01*
X150691750Y-150585581D01*
X150670926Y-150590797D01*
X150649691Y-150593947D01*
X150628250Y-150595000D01*
X150190750Y-150595000D01*
X150169309Y-150593947D01*
X150148074Y-150590797D01*
X150127250Y-150585581D01*
X150107038Y-150578349D01*
X150087632Y-150569170D01*
X150069219Y-150558134D01*
X150051976Y-150545346D01*
X150036070Y-150530930D01*
X150021654Y-150515024D01*
X150008866Y-150497781D01*
X149997830Y-150479368D01*
X149988651Y-150459962D01*
X149981419Y-150439750D01*
X149976203Y-150418926D01*
X149973053Y-150397691D01*
X149972000Y-150376250D01*
X149972000Y-149863750D01*
X149973053Y-149842309D01*
X149976203Y-149821074D01*
X149981419Y-149800250D01*
X149988651Y-149780038D01*
X149997830Y-149760632D01*
X150008866Y-149742219D01*
X150021654Y-149724976D01*
X150036070Y-149709070D01*
X150051976Y-149694654D01*
X150069219Y-149681866D01*
X150087632Y-149670830D01*
X150107038Y-149661651D01*
X150127250Y-149654419D01*
X150148074Y-149649203D01*
X150169309Y-149646053D01*
X150190750Y-149645000D01*
X150628250Y-149645000D01*
X150649691Y-149646053D01*
X150649691Y-149646053D01*
G37*
D13*
X150409500Y-150120000D03*
D10*
G36*
X138797691Y-148148053D02*
G01*
X138818926Y-148151203D01*
X138839750Y-148156419D01*
X138859962Y-148163651D01*
X138879368Y-148172830D01*
X138897781Y-148183866D01*
X138915024Y-148196654D01*
X138930930Y-148211070D01*
X138945346Y-148226976D01*
X138958134Y-148244219D01*
X138969170Y-148262632D01*
X138978349Y-148282038D01*
X138985581Y-148302250D01*
X138990797Y-148323074D01*
X138993947Y-148344309D01*
X138995000Y-148365750D01*
X138995000Y-148803250D01*
X138993947Y-148824691D01*
X138990797Y-148845926D01*
X138985581Y-148866750D01*
X138978349Y-148886962D01*
X138969170Y-148906368D01*
X138958134Y-148924781D01*
X138945346Y-148942024D01*
X138930930Y-148957930D01*
X138915024Y-148972346D01*
X138897781Y-148985134D01*
X138879368Y-148996170D01*
X138859962Y-149005349D01*
X138839750Y-149012581D01*
X138818926Y-149017797D01*
X138797691Y-149020947D01*
X138776250Y-149022000D01*
X138263750Y-149022000D01*
X138242309Y-149020947D01*
X138221074Y-149017797D01*
X138200250Y-149012581D01*
X138180038Y-149005349D01*
X138160632Y-148996170D01*
X138142219Y-148985134D01*
X138124976Y-148972346D01*
X138109070Y-148957930D01*
X138094654Y-148942024D01*
X138081866Y-148924781D01*
X138070830Y-148906368D01*
X138061651Y-148886962D01*
X138054419Y-148866750D01*
X138049203Y-148845926D01*
X138046053Y-148824691D01*
X138045000Y-148803250D01*
X138045000Y-148365750D01*
X138046053Y-148344309D01*
X138049203Y-148323074D01*
X138054419Y-148302250D01*
X138061651Y-148282038D01*
X138070830Y-148262632D01*
X138081866Y-148244219D01*
X138094654Y-148226976D01*
X138109070Y-148211070D01*
X138124976Y-148196654D01*
X138142219Y-148183866D01*
X138160632Y-148172830D01*
X138180038Y-148163651D01*
X138200250Y-148156419D01*
X138221074Y-148151203D01*
X138242309Y-148148053D01*
X138263750Y-148147000D01*
X138776250Y-148147000D01*
X138797691Y-148148053D01*
X138797691Y-148148053D01*
G37*
D13*
X138520000Y-148584500D03*
D10*
G36*
X138797691Y-149723053D02*
G01*
X138818926Y-149726203D01*
X138839750Y-149731419D01*
X138859962Y-149738651D01*
X138879368Y-149747830D01*
X138897781Y-149758866D01*
X138915024Y-149771654D01*
X138930930Y-149786070D01*
X138945346Y-149801976D01*
X138958134Y-149819219D01*
X138969170Y-149837632D01*
X138978349Y-149857038D01*
X138985581Y-149877250D01*
X138990797Y-149898074D01*
X138993947Y-149919309D01*
X138995000Y-149940750D01*
X138995000Y-150378250D01*
X138993947Y-150399691D01*
X138990797Y-150420926D01*
X138985581Y-150441750D01*
X138978349Y-150461962D01*
X138969170Y-150481368D01*
X138958134Y-150499781D01*
X138945346Y-150517024D01*
X138930930Y-150532930D01*
X138915024Y-150547346D01*
X138897781Y-150560134D01*
X138879368Y-150571170D01*
X138859962Y-150580349D01*
X138839750Y-150587581D01*
X138818926Y-150592797D01*
X138797691Y-150595947D01*
X138776250Y-150597000D01*
X138263750Y-150597000D01*
X138242309Y-150595947D01*
X138221074Y-150592797D01*
X138200250Y-150587581D01*
X138180038Y-150580349D01*
X138160632Y-150571170D01*
X138142219Y-150560134D01*
X138124976Y-150547346D01*
X138109070Y-150532930D01*
X138094654Y-150517024D01*
X138081866Y-150499781D01*
X138070830Y-150481368D01*
X138061651Y-150461962D01*
X138054419Y-150441750D01*
X138049203Y-150420926D01*
X138046053Y-150399691D01*
X138045000Y-150378250D01*
X138045000Y-149940750D01*
X138046053Y-149919309D01*
X138049203Y-149898074D01*
X138054419Y-149877250D01*
X138061651Y-149857038D01*
X138070830Y-149837632D01*
X138081866Y-149819219D01*
X138094654Y-149801976D01*
X138109070Y-149786070D01*
X138124976Y-149771654D01*
X138142219Y-149758866D01*
X138160632Y-149747830D01*
X138180038Y-149738651D01*
X138200250Y-149731419D01*
X138221074Y-149726203D01*
X138242309Y-149723053D01*
X138263750Y-149722000D01*
X138776250Y-149722000D01*
X138797691Y-149723053D01*
X138797691Y-149723053D01*
G37*
D13*
X138520000Y-150159500D03*
D10*
G36*
X150777691Y-147131053D02*
G01*
X150798926Y-147134203D01*
X150819750Y-147139419D01*
X150839962Y-147146651D01*
X150859368Y-147155830D01*
X150877781Y-147166866D01*
X150895024Y-147179654D01*
X150910930Y-147194070D01*
X150925346Y-147209976D01*
X150938134Y-147227219D01*
X150949170Y-147245632D01*
X150958349Y-147265038D01*
X150965581Y-147285250D01*
X150970797Y-147306074D01*
X150973947Y-147327309D01*
X150975000Y-147348750D01*
X150975000Y-147786250D01*
X150973947Y-147807691D01*
X150970797Y-147828926D01*
X150965581Y-147849750D01*
X150958349Y-147869962D01*
X150949170Y-147889368D01*
X150938134Y-147907781D01*
X150925346Y-147925024D01*
X150910930Y-147940930D01*
X150895024Y-147955346D01*
X150877781Y-147968134D01*
X150859368Y-147979170D01*
X150839962Y-147988349D01*
X150819750Y-147995581D01*
X150798926Y-148000797D01*
X150777691Y-148003947D01*
X150756250Y-148005000D01*
X150243750Y-148005000D01*
X150222309Y-148003947D01*
X150201074Y-148000797D01*
X150180250Y-147995581D01*
X150160038Y-147988349D01*
X150140632Y-147979170D01*
X150122219Y-147968134D01*
X150104976Y-147955346D01*
X150089070Y-147940930D01*
X150074654Y-147925024D01*
X150061866Y-147907781D01*
X150050830Y-147889368D01*
X150041651Y-147869962D01*
X150034419Y-147849750D01*
X150029203Y-147828926D01*
X150026053Y-147807691D01*
X150025000Y-147786250D01*
X150025000Y-147348750D01*
X150026053Y-147327309D01*
X150029203Y-147306074D01*
X150034419Y-147285250D01*
X150041651Y-147265038D01*
X150050830Y-147245632D01*
X150061866Y-147227219D01*
X150074654Y-147209976D01*
X150089070Y-147194070D01*
X150104976Y-147179654D01*
X150122219Y-147166866D01*
X150140632Y-147155830D01*
X150160038Y-147146651D01*
X150180250Y-147139419D01*
X150201074Y-147134203D01*
X150222309Y-147131053D01*
X150243750Y-147130000D01*
X150756250Y-147130000D01*
X150777691Y-147131053D01*
X150777691Y-147131053D01*
G37*
D13*
X150500000Y-147567500D03*
D10*
G36*
X150777691Y-145556053D02*
G01*
X150798926Y-145559203D01*
X150819750Y-145564419D01*
X150839962Y-145571651D01*
X150859368Y-145580830D01*
X150877781Y-145591866D01*
X150895024Y-145604654D01*
X150910930Y-145619070D01*
X150925346Y-145634976D01*
X150938134Y-145652219D01*
X150949170Y-145670632D01*
X150958349Y-145690038D01*
X150965581Y-145710250D01*
X150970797Y-145731074D01*
X150973947Y-145752309D01*
X150975000Y-145773750D01*
X150975000Y-146211250D01*
X150973947Y-146232691D01*
X150970797Y-146253926D01*
X150965581Y-146274750D01*
X150958349Y-146294962D01*
X150949170Y-146314368D01*
X150938134Y-146332781D01*
X150925346Y-146350024D01*
X150910930Y-146365930D01*
X150895024Y-146380346D01*
X150877781Y-146393134D01*
X150859368Y-146404170D01*
X150839962Y-146413349D01*
X150819750Y-146420581D01*
X150798926Y-146425797D01*
X150777691Y-146428947D01*
X150756250Y-146430000D01*
X150243750Y-146430000D01*
X150222309Y-146428947D01*
X150201074Y-146425797D01*
X150180250Y-146420581D01*
X150160038Y-146413349D01*
X150140632Y-146404170D01*
X150122219Y-146393134D01*
X150104976Y-146380346D01*
X150089070Y-146365930D01*
X150074654Y-146350024D01*
X150061866Y-146332781D01*
X150050830Y-146314368D01*
X150041651Y-146294962D01*
X150034419Y-146274750D01*
X150029203Y-146253926D01*
X150026053Y-146232691D01*
X150025000Y-146211250D01*
X150025000Y-145773750D01*
X150026053Y-145752309D01*
X150029203Y-145731074D01*
X150034419Y-145710250D01*
X150041651Y-145690038D01*
X150050830Y-145670632D01*
X150061866Y-145652219D01*
X150074654Y-145634976D01*
X150089070Y-145619070D01*
X150104976Y-145604654D01*
X150122219Y-145591866D01*
X150140632Y-145580830D01*
X150160038Y-145571651D01*
X150180250Y-145564419D01*
X150201074Y-145559203D01*
X150222309Y-145556053D01*
X150243750Y-145555000D01*
X150756250Y-145555000D01*
X150777691Y-145556053D01*
X150777691Y-145556053D01*
G37*
D13*
X150500000Y-145992500D03*
D10*
G36*
X145800691Y-149686053D02*
G01*
X145821926Y-149689203D01*
X145842750Y-149694419D01*
X145862962Y-149701651D01*
X145882368Y-149710830D01*
X145900781Y-149721866D01*
X145918024Y-149734654D01*
X145933930Y-149749070D01*
X145948346Y-149764976D01*
X145961134Y-149782219D01*
X145972170Y-149800632D01*
X145981349Y-149820038D01*
X145988581Y-149840250D01*
X145993797Y-149861074D01*
X145996947Y-149882309D01*
X145998000Y-149903750D01*
X145998000Y-150416250D01*
X145996947Y-150437691D01*
X145993797Y-150458926D01*
X145988581Y-150479750D01*
X145981349Y-150499962D01*
X145972170Y-150519368D01*
X145961134Y-150537781D01*
X145948346Y-150555024D01*
X145933930Y-150570930D01*
X145918024Y-150585346D01*
X145900781Y-150598134D01*
X145882368Y-150609170D01*
X145862962Y-150618349D01*
X145842750Y-150625581D01*
X145821926Y-150630797D01*
X145800691Y-150633947D01*
X145779250Y-150635000D01*
X145341750Y-150635000D01*
X145320309Y-150633947D01*
X145299074Y-150630797D01*
X145278250Y-150625581D01*
X145258038Y-150618349D01*
X145238632Y-150609170D01*
X145220219Y-150598134D01*
X145202976Y-150585346D01*
X145187070Y-150570930D01*
X145172654Y-150555024D01*
X145159866Y-150537781D01*
X145148830Y-150519368D01*
X145139651Y-150499962D01*
X145132419Y-150479750D01*
X145127203Y-150458926D01*
X145124053Y-150437691D01*
X145123000Y-150416250D01*
X145123000Y-149903750D01*
X145124053Y-149882309D01*
X145127203Y-149861074D01*
X145132419Y-149840250D01*
X145139651Y-149820038D01*
X145148830Y-149800632D01*
X145159866Y-149782219D01*
X145172654Y-149764976D01*
X145187070Y-149749070D01*
X145202976Y-149734654D01*
X145220219Y-149721866D01*
X145238632Y-149710830D01*
X145258038Y-149701651D01*
X145278250Y-149694419D01*
X145299074Y-149689203D01*
X145320309Y-149686053D01*
X145341750Y-149685000D01*
X145779250Y-149685000D01*
X145800691Y-149686053D01*
X145800691Y-149686053D01*
G37*
D13*
X145560500Y-150160000D03*
D10*
G36*
X147375691Y-149686053D02*
G01*
X147396926Y-149689203D01*
X147417750Y-149694419D01*
X147437962Y-149701651D01*
X147457368Y-149710830D01*
X147475781Y-149721866D01*
X147493024Y-149734654D01*
X147508930Y-149749070D01*
X147523346Y-149764976D01*
X147536134Y-149782219D01*
X147547170Y-149800632D01*
X147556349Y-149820038D01*
X147563581Y-149840250D01*
X147568797Y-149861074D01*
X147571947Y-149882309D01*
X147573000Y-149903750D01*
X147573000Y-150416250D01*
X147571947Y-150437691D01*
X147568797Y-150458926D01*
X147563581Y-150479750D01*
X147556349Y-150499962D01*
X147547170Y-150519368D01*
X147536134Y-150537781D01*
X147523346Y-150555024D01*
X147508930Y-150570930D01*
X147493024Y-150585346D01*
X147475781Y-150598134D01*
X147457368Y-150609170D01*
X147437962Y-150618349D01*
X147417750Y-150625581D01*
X147396926Y-150630797D01*
X147375691Y-150633947D01*
X147354250Y-150635000D01*
X146916750Y-150635000D01*
X146895309Y-150633947D01*
X146874074Y-150630797D01*
X146853250Y-150625581D01*
X146833038Y-150618349D01*
X146813632Y-150609170D01*
X146795219Y-150598134D01*
X146777976Y-150585346D01*
X146762070Y-150570930D01*
X146747654Y-150555024D01*
X146734866Y-150537781D01*
X146723830Y-150519368D01*
X146714651Y-150499962D01*
X146707419Y-150479750D01*
X146702203Y-150458926D01*
X146699053Y-150437691D01*
X146698000Y-150416250D01*
X146698000Y-149903750D01*
X146699053Y-149882309D01*
X146702203Y-149861074D01*
X146707419Y-149840250D01*
X146714651Y-149820038D01*
X146723830Y-149800632D01*
X146734866Y-149782219D01*
X146747654Y-149764976D01*
X146762070Y-149749070D01*
X146777976Y-149734654D01*
X146795219Y-149721866D01*
X146813632Y-149710830D01*
X146833038Y-149701651D01*
X146853250Y-149694419D01*
X146874074Y-149689203D01*
X146895309Y-149686053D01*
X146916750Y-149685000D01*
X147354250Y-149685000D01*
X147375691Y-149686053D01*
X147375691Y-149686053D01*
G37*
D13*
X147135500Y-150160000D03*
D10*
G36*
X165057691Y-150996053D02*
G01*
X165078926Y-150999203D01*
X165099750Y-151004419D01*
X165119962Y-151011651D01*
X165139368Y-151020830D01*
X165157781Y-151031866D01*
X165175024Y-151044654D01*
X165190930Y-151059070D01*
X165205346Y-151074976D01*
X165218134Y-151092219D01*
X165229170Y-151110632D01*
X165238349Y-151130038D01*
X165245581Y-151150250D01*
X165250797Y-151171074D01*
X165253947Y-151192309D01*
X165255000Y-151213750D01*
X165255000Y-151726250D01*
X165253947Y-151747691D01*
X165250797Y-151768926D01*
X165245581Y-151789750D01*
X165238349Y-151809962D01*
X165229170Y-151829368D01*
X165218134Y-151847781D01*
X165205346Y-151865024D01*
X165190930Y-151880930D01*
X165175024Y-151895346D01*
X165157781Y-151908134D01*
X165139368Y-151919170D01*
X165119962Y-151928349D01*
X165099750Y-151935581D01*
X165078926Y-151940797D01*
X165057691Y-151943947D01*
X165036250Y-151945000D01*
X164598750Y-151945000D01*
X164577309Y-151943947D01*
X164556074Y-151940797D01*
X164535250Y-151935581D01*
X164515038Y-151928349D01*
X164495632Y-151919170D01*
X164477219Y-151908134D01*
X164459976Y-151895346D01*
X164444070Y-151880930D01*
X164429654Y-151865024D01*
X164416866Y-151847781D01*
X164405830Y-151829368D01*
X164396651Y-151809962D01*
X164389419Y-151789750D01*
X164384203Y-151768926D01*
X164381053Y-151747691D01*
X164380000Y-151726250D01*
X164380000Y-151213750D01*
X164381053Y-151192309D01*
X164384203Y-151171074D01*
X164389419Y-151150250D01*
X164396651Y-151130038D01*
X164405830Y-151110632D01*
X164416866Y-151092219D01*
X164429654Y-151074976D01*
X164444070Y-151059070D01*
X164459976Y-151044654D01*
X164477219Y-151031866D01*
X164495632Y-151020830D01*
X164515038Y-151011651D01*
X164535250Y-151004419D01*
X164556074Y-150999203D01*
X164577309Y-150996053D01*
X164598750Y-150995000D01*
X165036250Y-150995000D01*
X165057691Y-150996053D01*
X165057691Y-150996053D01*
G37*
D13*
X164817500Y-151470000D03*
D10*
G36*
X163482691Y-150996053D02*
G01*
X163503926Y-150999203D01*
X163524750Y-151004419D01*
X163544962Y-151011651D01*
X163564368Y-151020830D01*
X163582781Y-151031866D01*
X163600024Y-151044654D01*
X163615930Y-151059070D01*
X163630346Y-151074976D01*
X163643134Y-151092219D01*
X163654170Y-151110632D01*
X163663349Y-151130038D01*
X163670581Y-151150250D01*
X163675797Y-151171074D01*
X163678947Y-151192309D01*
X163680000Y-151213750D01*
X163680000Y-151726250D01*
X163678947Y-151747691D01*
X163675797Y-151768926D01*
X163670581Y-151789750D01*
X163663349Y-151809962D01*
X163654170Y-151829368D01*
X163643134Y-151847781D01*
X163630346Y-151865024D01*
X163615930Y-151880930D01*
X163600024Y-151895346D01*
X163582781Y-151908134D01*
X163564368Y-151919170D01*
X163544962Y-151928349D01*
X163524750Y-151935581D01*
X163503926Y-151940797D01*
X163482691Y-151943947D01*
X163461250Y-151945000D01*
X163023750Y-151945000D01*
X163002309Y-151943947D01*
X162981074Y-151940797D01*
X162960250Y-151935581D01*
X162940038Y-151928349D01*
X162920632Y-151919170D01*
X162902219Y-151908134D01*
X162884976Y-151895346D01*
X162869070Y-151880930D01*
X162854654Y-151865024D01*
X162841866Y-151847781D01*
X162830830Y-151829368D01*
X162821651Y-151809962D01*
X162814419Y-151789750D01*
X162809203Y-151768926D01*
X162806053Y-151747691D01*
X162805000Y-151726250D01*
X162805000Y-151213750D01*
X162806053Y-151192309D01*
X162809203Y-151171074D01*
X162814419Y-151150250D01*
X162821651Y-151130038D01*
X162830830Y-151110632D01*
X162841866Y-151092219D01*
X162854654Y-151074976D01*
X162869070Y-151059070D01*
X162884976Y-151044654D01*
X162902219Y-151031866D01*
X162920632Y-151020830D01*
X162940038Y-151011651D01*
X162960250Y-151004419D01*
X162981074Y-150999203D01*
X163002309Y-150996053D01*
X163023750Y-150995000D01*
X163461250Y-150995000D01*
X163482691Y-150996053D01*
X163482691Y-150996053D01*
G37*
D13*
X163242500Y-151470000D03*
D20*
X141500000Y-148130000D03*
X140550000Y-150130000D03*
X142450000Y-150130000D03*
D10*
G36*
X140044691Y-146046053D02*
G01*
X140065926Y-146049203D01*
X140086750Y-146054419D01*
X140106962Y-146061651D01*
X140126368Y-146070830D01*
X140144781Y-146081866D01*
X140162024Y-146094654D01*
X140177930Y-146109070D01*
X140192346Y-146124976D01*
X140205134Y-146142219D01*
X140216170Y-146160632D01*
X140225349Y-146180038D01*
X140232581Y-146200250D01*
X140237797Y-146221074D01*
X140240947Y-146242309D01*
X140242000Y-146263750D01*
X140242000Y-146776250D01*
X140240947Y-146797691D01*
X140237797Y-146818926D01*
X140232581Y-146839750D01*
X140225349Y-146859962D01*
X140216170Y-146879368D01*
X140205134Y-146897781D01*
X140192346Y-146915024D01*
X140177930Y-146930930D01*
X140162024Y-146945346D01*
X140144781Y-146958134D01*
X140126368Y-146969170D01*
X140106962Y-146978349D01*
X140086750Y-146985581D01*
X140065926Y-146990797D01*
X140044691Y-146993947D01*
X140023250Y-146995000D01*
X139585750Y-146995000D01*
X139564309Y-146993947D01*
X139543074Y-146990797D01*
X139522250Y-146985581D01*
X139502038Y-146978349D01*
X139482632Y-146969170D01*
X139464219Y-146958134D01*
X139446976Y-146945346D01*
X139431070Y-146930930D01*
X139416654Y-146915024D01*
X139403866Y-146897781D01*
X139392830Y-146879368D01*
X139383651Y-146859962D01*
X139376419Y-146839750D01*
X139371203Y-146818926D01*
X139368053Y-146797691D01*
X139367000Y-146776250D01*
X139367000Y-146263750D01*
X139368053Y-146242309D01*
X139371203Y-146221074D01*
X139376419Y-146200250D01*
X139383651Y-146180038D01*
X139392830Y-146160632D01*
X139403866Y-146142219D01*
X139416654Y-146124976D01*
X139431070Y-146109070D01*
X139446976Y-146094654D01*
X139464219Y-146081866D01*
X139482632Y-146070830D01*
X139502038Y-146061651D01*
X139522250Y-146054419D01*
X139543074Y-146049203D01*
X139564309Y-146046053D01*
X139585750Y-146045000D01*
X140023250Y-146045000D01*
X140044691Y-146046053D01*
X140044691Y-146046053D01*
G37*
D13*
X139804500Y-146520000D03*
D10*
G36*
X141619691Y-146046053D02*
G01*
X141640926Y-146049203D01*
X141661750Y-146054419D01*
X141681962Y-146061651D01*
X141701368Y-146070830D01*
X141719781Y-146081866D01*
X141737024Y-146094654D01*
X141752930Y-146109070D01*
X141767346Y-146124976D01*
X141780134Y-146142219D01*
X141791170Y-146160632D01*
X141800349Y-146180038D01*
X141807581Y-146200250D01*
X141812797Y-146221074D01*
X141815947Y-146242309D01*
X141817000Y-146263750D01*
X141817000Y-146776250D01*
X141815947Y-146797691D01*
X141812797Y-146818926D01*
X141807581Y-146839750D01*
X141800349Y-146859962D01*
X141791170Y-146879368D01*
X141780134Y-146897781D01*
X141767346Y-146915024D01*
X141752930Y-146930930D01*
X141737024Y-146945346D01*
X141719781Y-146958134D01*
X141701368Y-146969170D01*
X141681962Y-146978349D01*
X141661750Y-146985581D01*
X141640926Y-146990797D01*
X141619691Y-146993947D01*
X141598250Y-146995000D01*
X141160750Y-146995000D01*
X141139309Y-146993947D01*
X141118074Y-146990797D01*
X141097250Y-146985581D01*
X141077038Y-146978349D01*
X141057632Y-146969170D01*
X141039219Y-146958134D01*
X141021976Y-146945346D01*
X141006070Y-146930930D01*
X140991654Y-146915024D01*
X140978866Y-146897781D01*
X140967830Y-146879368D01*
X140958651Y-146859962D01*
X140951419Y-146839750D01*
X140946203Y-146818926D01*
X140943053Y-146797691D01*
X140942000Y-146776250D01*
X140942000Y-146263750D01*
X140943053Y-146242309D01*
X140946203Y-146221074D01*
X140951419Y-146200250D01*
X140958651Y-146180038D01*
X140967830Y-146160632D01*
X140978866Y-146142219D01*
X140991654Y-146124976D01*
X141006070Y-146109070D01*
X141021976Y-146094654D01*
X141039219Y-146081866D01*
X141057632Y-146070830D01*
X141077038Y-146061651D01*
X141097250Y-146054419D01*
X141118074Y-146049203D01*
X141139309Y-146046053D01*
X141160750Y-146045000D01*
X141598250Y-146045000D01*
X141619691Y-146046053D01*
X141619691Y-146046053D01*
G37*
D13*
X141379500Y-146520000D03*
D10*
G36*
X159860142Y-150571174D02*
G01*
X159883803Y-150574684D01*
X159907007Y-150580496D01*
X159929529Y-150588554D01*
X159951153Y-150598782D01*
X159971670Y-150611079D01*
X159990883Y-150625329D01*
X160008607Y-150641393D01*
X160024671Y-150659117D01*
X160038921Y-150678330D01*
X160051218Y-150698847D01*
X160061446Y-150720471D01*
X160069504Y-150742993D01*
X160075316Y-150766197D01*
X160078826Y-150789858D01*
X160080000Y-150813750D01*
X160080000Y-151726250D01*
X160078826Y-151750142D01*
X160075316Y-151773803D01*
X160069504Y-151797007D01*
X160061446Y-151819529D01*
X160051218Y-151841153D01*
X160038921Y-151861670D01*
X160024671Y-151880883D01*
X160008607Y-151898607D01*
X159990883Y-151914671D01*
X159971670Y-151928921D01*
X159951153Y-151941218D01*
X159929529Y-151951446D01*
X159907007Y-151959504D01*
X159883803Y-151965316D01*
X159860142Y-151968826D01*
X159836250Y-151970000D01*
X159348750Y-151970000D01*
X159324858Y-151968826D01*
X159301197Y-151965316D01*
X159277993Y-151959504D01*
X159255471Y-151951446D01*
X159233847Y-151941218D01*
X159213330Y-151928921D01*
X159194117Y-151914671D01*
X159176393Y-151898607D01*
X159160329Y-151880883D01*
X159146079Y-151861670D01*
X159133782Y-151841153D01*
X159123554Y-151819529D01*
X159115496Y-151797007D01*
X159109684Y-151773803D01*
X159106174Y-151750142D01*
X159105000Y-151726250D01*
X159105000Y-150813750D01*
X159106174Y-150789858D01*
X159109684Y-150766197D01*
X159115496Y-150742993D01*
X159123554Y-150720471D01*
X159133782Y-150698847D01*
X159146079Y-150678330D01*
X159160329Y-150659117D01*
X159176393Y-150641393D01*
X159194117Y-150625329D01*
X159213330Y-150611079D01*
X159233847Y-150598782D01*
X159255471Y-150588554D01*
X159277993Y-150580496D01*
X159301197Y-150574684D01*
X159324858Y-150571174D01*
X159348750Y-150570000D01*
X159836250Y-150570000D01*
X159860142Y-150571174D01*
X159860142Y-150571174D01*
G37*
D11*
X159592500Y-151270000D03*
D10*
G36*
X161735142Y-150571174D02*
G01*
X161758803Y-150574684D01*
X161782007Y-150580496D01*
X161804529Y-150588554D01*
X161826153Y-150598782D01*
X161846670Y-150611079D01*
X161865883Y-150625329D01*
X161883607Y-150641393D01*
X161899671Y-150659117D01*
X161913921Y-150678330D01*
X161926218Y-150698847D01*
X161936446Y-150720471D01*
X161944504Y-150742993D01*
X161950316Y-150766197D01*
X161953826Y-150789858D01*
X161955000Y-150813750D01*
X161955000Y-151726250D01*
X161953826Y-151750142D01*
X161950316Y-151773803D01*
X161944504Y-151797007D01*
X161936446Y-151819529D01*
X161926218Y-151841153D01*
X161913921Y-151861670D01*
X161899671Y-151880883D01*
X161883607Y-151898607D01*
X161865883Y-151914671D01*
X161846670Y-151928921D01*
X161826153Y-151941218D01*
X161804529Y-151951446D01*
X161782007Y-151959504D01*
X161758803Y-151965316D01*
X161735142Y-151968826D01*
X161711250Y-151970000D01*
X161223750Y-151970000D01*
X161199858Y-151968826D01*
X161176197Y-151965316D01*
X161152993Y-151959504D01*
X161130471Y-151951446D01*
X161108847Y-151941218D01*
X161088330Y-151928921D01*
X161069117Y-151914671D01*
X161051393Y-151898607D01*
X161035329Y-151880883D01*
X161021079Y-151861670D01*
X161008782Y-151841153D01*
X160998554Y-151819529D01*
X160990496Y-151797007D01*
X160984684Y-151773803D01*
X160981174Y-151750142D01*
X160980000Y-151726250D01*
X160980000Y-150813750D01*
X160981174Y-150789858D01*
X160984684Y-150766197D01*
X160990496Y-150742993D01*
X160998554Y-150720471D01*
X161008782Y-150698847D01*
X161021079Y-150678330D01*
X161035329Y-150659117D01*
X161051393Y-150641393D01*
X161069117Y-150625329D01*
X161088330Y-150611079D01*
X161108847Y-150598782D01*
X161130471Y-150588554D01*
X161152993Y-150580496D01*
X161176197Y-150574684D01*
X161199858Y-150571174D01*
X161223750Y-150570000D01*
X161711250Y-150570000D01*
X161735142Y-150571174D01*
X161735142Y-150571174D01*
G37*
D11*
X161467500Y-151270000D03*
D10*
G36*
X160182691Y-148896053D02*
G01*
X160203926Y-148899203D01*
X160224750Y-148904419D01*
X160244962Y-148911651D01*
X160264368Y-148920830D01*
X160282781Y-148931866D01*
X160300024Y-148944654D01*
X160315930Y-148959070D01*
X160330346Y-148974976D01*
X160343134Y-148992219D01*
X160354170Y-149010632D01*
X160363349Y-149030038D01*
X160370581Y-149050250D01*
X160375797Y-149071074D01*
X160378947Y-149092309D01*
X160380000Y-149113750D01*
X160380000Y-149626250D01*
X160378947Y-149647691D01*
X160375797Y-149668926D01*
X160370581Y-149689750D01*
X160363349Y-149709962D01*
X160354170Y-149729368D01*
X160343134Y-149747781D01*
X160330346Y-149765024D01*
X160315930Y-149780930D01*
X160300024Y-149795346D01*
X160282781Y-149808134D01*
X160264368Y-149819170D01*
X160244962Y-149828349D01*
X160224750Y-149835581D01*
X160203926Y-149840797D01*
X160182691Y-149843947D01*
X160161250Y-149845000D01*
X159723750Y-149845000D01*
X159702309Y-149843947D01*
X159681074Y-149840797D01*
X159660250Y-149835581D01*
X159640038Y-149828349D01*
X159620632Y-149819170D01*
X159602219Y-149808134D01*
X159584976Y-149795346D01*
X159569070Y-149780930D01*
X159554654Y-149765024D01*
X159541866Y-149747781D01*
X159530830Y-149729368D01*
X159521651Y-149709962D01*
X159514419Y-149689750D01*
X159509203Y-149668926D01*
X159506053Y-149647691D01*
X159505000Y-149626250D01*
X159505000Y-149113750D01*
X159506053Y-149092309D01*
X159509203Y-149071074D01*
X159514419Y-149050250D01*
X159521651Y-149030038D01*
X159530830Y-149010632D01*
X159541866Y-148992219D01*
X159554654Y-148974976D01*
X159569070Y-148959070D01*
X159584976Y-148944654D01*
X159602219Y-148931866D01*
X159620632Y-148920830D01*
X159640038Y-148911651D01*
X159660250Y-148904419D01*
X159681074Y-148899203D01*
X159702309Y-148896053D01*
X159723750Y-148895000D01*
X160161250Y-148895000D01*
X160182691Y-148896053D01*
X160182691Y-148896053D01*
G37*
D13*
X159942500Y-149370000D03*
D10*
G36*
X161757691Y-148896053D02*
G01*
X161778926Y-148899203D01*
X161799750Y-148904419D01*
X161819962Y-148911651D01*
X161839368Y-148920830D01*
X161857781Y-148931866D01*
X161875024Y-148944654D01*
X161890930Y-148959070D01*
X161905346Y-148974976D01*
X161918134Y-148992219D01*
X161929170Y-149010632D01*
X161938349Y-149030038D01*
X161945581Y-149050250D01*
X161950797Y-149071074D01*
X161953947Y-149092309D01*
X161955000Y-149113750D01*
X161955000Y-149626250D01*
X161953947Y-149647691D01*
X161950797Y-149668926D01*
X161945581Y-149689750D01*
X161938349Y-149709962D01*
X161929170Y-149729368D01*
X161918134Y-149747781D01*
X161905346Y-149765024D01*
X161890930Y-149780930D01*
X161875024Y-149795346D01*
X161857781Y-149808134D01*
X161839368Y-149819170D01*
X161819962Y-149828349D01*
X161799750Y-149835581D01*
X161778926Y-149840797D01*
X161757691Y-149843947D01*
X161736250Y-149845000D01*
X161298750Y-149845000D01*
X161277309Y-149843947D01*
X161256074Y-149840797D01*
X161235250Y-149835581D01*
X161215038Y-149828349D01*
X161195632Y-149819170D01*
X161177219Y-149808134D01*
X161159976Y-149795346D01*
X161144070Y-149780930D01*
X161129654Y-149765024D01*
X161116866Y-149747781D01*
X161105830Y-149729368D01*
X161096651Y-149709962D01*
X161089419Y-149689750D01*
X161084203Y-149668926D01*
X161081053Y-149647691D01*
X161080000Y-149626250D01*
X161080000Y-149113750D01*
X161081053Y-149092309D01*
X161084203Y-149071074D01*
X161089419Y-149050250D01*
X161096651Y-149030038D01*
X161105830Y-149010632D01*
X161116866Y-148992219D01*
X161129654Y-148974976D01*
X161144070Y-148959070D01*
X161159976Y-148944654D01*
X161177219Y-148931866D01*
X161195632Y-148920830D01*
X161215038Y-148911651D01*
X161235250Y-148904419D01*
X161256074Y-148899203D01*
X161277309Y-148896053D01*
X161298750Y-148895000D01*
X161736250Y-148895000D01*
X161757691Y-148896053D01*
X161757691Y-148896053D01*
G37*
D13*
X161517500Y-149370000D03*
D21*
X145400000Y-136800000D03*
D22*
X183600000Y-135930000D03*
X183600000Y-149070000D03*
D23*
X181000000Y-139000000D03*
X181000000Y-141500000D03*
X181000000Y-143500000D03*
X181000000Y-146000000D03*
D10*
G36*
X175159691Y-141136053D02*
G01*
X175180926Y-141139203D01*
X175201750Y-141144419D01*
X175221962Y-141151651D01*
X175241368Y-141160830D01*
X175259781Y-141171866D01*
X175277024Y-141184654D01*
X175292930Y-141199070D01*
X175307346Y-141214976D01*
X175320134Y-141232219D01*
X175331170Y-141250632D01*
X175340349Y-141270038D01*
X175347581Y-141290250D01*
X175352797Y-141311074D01*
X175355947Y-141332309D01*
X175357000Y-141353750D01*
X175357000Y-141866250D01*
X175355947Y-141887691D01*
X175352797Y-141908926D01*
X175347581Y-141929750D01*
X175340349Y-141949962D01*
X175331170Y-141969368D01*
X175320134Y-141987781D01*
X175307346Y-142005024D01*
X175292930Y-142020930D01*
X175277024Y-142035346D01*
X175259781Y-142048134D01*
X175241368Y-142059170D01*
X175221962Y-142068349D01*
X175201750Y-142075581D01*
X175180926Y-142080797D01*
X175159691Y-142083947D01*
X175138250Y-142085000D01*
X174700750Y-142085000D01*
X174679309Y-142083947D01*
X174658074Y-142080797D01*
X174637250Y-142075581D01*
X174617038Y-142068349D01*
X174597632Y-142059170D01*
X174579219Y-142048134D01*
X174561976Y-142035346D01*
X174546070Y-142020930D01*
X174531654Y-142005024D01*
X174518866Y-141987781D01*
X174507830Y-141969368D01*
X174498651Y-141949962D01*
X174491419Y-141929750D01*
X174486203Y-141908926D01*
X174483053Y-141887691D01*
X174482000Y-141866250D01*
X174482000Y-141353750D01*
X174483053Y-141332309D01*
X174486203Y-141311074D01*
X174491419Y-141290250D01*
X174498651Y-141270038D01*
X174507830Y-141250632D01*
X174518866Y-141232219D01*
X174531654Y-141214976D01*
X174546070Y-141199070D01*
X174561976Y-141184654D01*
X174579219Y-141171866D01*
X174597632Y-141160830D01*
X174617038Y-141151651D01*
X174637250Y-141144419D01*
X174658074Y-141139203D01*
X174679309Y-141136053D01*
X174700750Y-141135000D01*
X175138250Y-141135000D01*
X175159691Y-141136053D01*
X175159691Y-141136053D01*
G37*
D13*
X174919500Y-141610000D03*
D10*
G36*
X173584691Y-141136053D02*
G01*
X173605926Y-141139203D01*
X173626750Y-141144419D01*
X173646962Y-141151651D01*
X173666368Y-141160830D01*
X173684781Y-141171866D01*
X173702024Y-141184654D01*
X173717930Y-141199070D01*
X173732346Y-141214976D01*
X173745134Y-141232219D01*
X173756170Y-141250632D01*
X173765349Y-141270038D01*
X173772581Y-141290250D01*
X173777797Y-141311074D01*
X173780947Y-141332309D01*
X173782000Y-141353750D01*
X173782000Y-141866250D01*
X173780947Y-141887691D01*
X173777797Y-141908926D01*
X173772581Y-141929750D01*
X173765349Y-141949962D01*
X173756170Y-141969368D01*
X173745134Y-141987781D01*
X173732346Y-142005024D01*
X173717930Y-142020930D01*
X173702024Y-142035346D01*
X173684781Y-142048134D01*
X173666368Y-142059170D01*
X173646962Y-142068349D01*
X173626750Y-142075581D01*
X173605926Y-142080797D01*
X173584691Y-142083947D01*
X173563250Y-142085000D01*
X173125750Y-142085000D01*
X173104309Y-142083947D01*
X173083074Y-142080797D01*
X173062250Y-142075581D01*
X173042038Y-142068349D01*
X173022632Y-142059170D01*
X173004219Y-142048134D01*
X172986976Y-142035346D01*
X172971070Y-142020930D01*
X172956654Y-142005024D01*
X172943866Y-141987781D01*
X172932830Y-141969368D01*
X172923651Y-141949962D01*
X172916419Y-141929750D01*
X172911203Y-141908926D01*
X172908053Y-141887691D01*
X172907000Y-141866250D01*
X172907000Y-141353750D01*
X172908053Y-141332309D01*
X172911203Y-141311074D01*
X172916419Y-141290250D01*
X172923651Y-141270038D01*
X172932830Y-141250632D01*
X172943866Y-141232219D01*
X172956654Y-141214976D01*
X172971070Y-141199070D01*
X172986976Y-141184654D01*
X173004219Y-141171866D01*
X173022632Y-141160830D01*
X173042038Y-141151651D01*
X173062250Y-141144419D01*
X173083074Y-141139203D01*
X173104309Y-141136053D01*
X173125750Y-141135000D01*
X173563250Y-141135000D01*
X173584691Y-141136053D01*
X173584691Y-141136053D01*
G37*
D13*
X173344500Y-141610000D03*
M02*
