M48
; DRILL file {KiCad (5.1.2)-1} date 2022/02/25 21:01:53
; FORMAT={-:-/ absolute / metric / decimal}
; #@! TF.CreationDate,2022-02-25T21:01:53+09:00
; #@! TF.GenerationSoftware,Kicad,Pcbnew,(5.1.2)-1
FMAT,2
METRIC
T1C0.400
T2C0.500
T3C0.550
T4C1.000
T5C2.000
T6C2.500
T7C3.200
%
G90
G05
T1
X134.25Y-147.72
X134.48Y-136.4
X136.199Y-140.97
X137.0Y-149.727
X137.38Y-134.645
X137.435Y-142.919
X138.135Y-143.779
X142.03Y-140.11
X145.06Y-141.81
X149.793Y-148.472
X151.784Y-149.092
X151.93Y-139.48
X152.028Y-132.898
X153.315Y-138.83
X154.587Y-148.112
X156.635Y-148.635
X157.34Y-133.05
X157.48Y-137.01
X157.505Y-145.432
X157.55Y-141.79
X157.74Y-140.29
X158.711Y-139.103
X160.015Y-138.285
X160.207Y-145.347
X160.707Y-142.087
X161.224Y-145.076
X161.886Y-144.24
X161.99Y-141.47
X162.08Y-137.97
X162.74Y-133.3
X162.936Y-144.748
X163.913Y-150.517
X164.778Y-143.443
X166.507Y-142.695
X167.557Y-145.341
X168.585Y-148.69
X169.006Y-149.679
X169.89Y-135.54
X170.935Y-141.718
X170.971Y-146.95
X171.93Y-150.3
X172.2Y-141.57
X172.885Y-149.46
X176.932Y-140.05
X178.415Y-147.694
X185.35Y-134.26
T4
X150.8Y-153.45
X153.34Y-153.45
X181.0Y-139.0
X181.0Y-141.5
X181.0Y-143.5
X181.0Y-146.0
X180.3Y-153.0
X182.84Y-153.0
X185.38Y-153.0
X187.92Y-153.0
X190.46Y-153.0
X193.0Y-153.0
X182.84Y-132.0
X185.38Y-132.0
X187.92Y-132.0
X190.46Y-132.0
X193.0Y-132.0
X139.56Y-153.45
X142.1Y-153.45
X144.64Y-153.45
X147.18Y-153.45
T5
X138.8Y-136.8
X152.0Y-136.8
T6
X183.6Y-135.93
X183.6Y-149.07
T7
X133.0Y-133.0
X176.0Y-133.0
X133.0Y-152.0
X176.0Y-152.0
T2
G00X131.875Y-138.98
M15
G01X131.225Y-138.98
M16
G05
G00X131.875Y-145.98
M15
G01X131.225Y-145.98
M16
G05
T3
G00X134.25Y-139.83
M15
G01X134.25Y-140.13
M16
G05
G00X134.25Y-144.83
M15
G01X134.25Y-145.13
M16
G05
T0
M30
